<?xml version="1.0" encoding="utf-8"?>
<!-- Generator: Adobe Illustrator 22.1.0, SVG Export Plug-In . SVG Version: 6.00 Build 0)  -->
<svg version="1.1" id="Layer_1" xmlns="http://www.w3.org/2000/svg" xmlns:xlink="http://www.w3.org/1999/xlink" x="0px" y="0px"
	 viewBox="0 0 35 35" style="enable-background:new 0 0 35 35;" xml:space="preserve">
<style type="text/css">
	.st0{fill:#FF3008;}
</style>
<path class="st0" d="M32.1,12.5C30.7,9.8,28,8.2,25,8.2H2.4C2,8.2,1.7,8.6,1.7,9c0,0.2,0.1,0.4,0.2,0.5l4.9,4.9
	c0.4,0.5,1,0.8,1.6,0.8h15.9c1.1,0,2.1,0.9,2.1,2s-0.9,2.1-2,2.1h-11c-0.4,0-0.8,0.4-0.8,0.8c0,0.2,0.1,0.4,0.2,0.5l4.9,4.9
	c0.4,0.4,1,0.7,1.6,0.7h5C30.8,26.2,35.7,19.3,32.1,12.5"/>
</svg>
