<svg xmlns="http://www.w3.org/2000/svg" viewBox="0 0 600 600"><defs><style>.cls-1,.cls-2,.cls-4,.cls-5{fill:none;stroke:#ff3008;stroke-linecap:round;}.cls-1{stroke-linejoin:round;}.cls-1,.cls-4{stroke-width:16px;}.cls-2,.cls-4,.cls-5{stroke-miterlimit:10;}.cls-2{stroke-width:18px;stroke-dasharray:30 40;}.cls-3{fill:#ff3008;}.cls-5{stroke-width:15.53px;}</style></defs><title>Topics icons_NEW</title><g id="Layer_2" data-name="Layer 2"><path class="cls-1" d="M393.65,420.58v40.16c0,15-12.91,27.15-28.83,27.15H217.05c-15.92,0-28.83-12.15-28.83-27.15V155c0-15,12.91-27.14,28.83-27.14H364.82c15.92,0,28.83,12.15,28.83,27.14v21.47"/><line class="cls-2" x1="393.65" y1="211.41" x2="393.65" y2="391.24"/><ellipse class="cls-3" cx="290.93" cy="460.72" rx="8.75" ry="8.24"/><ellipse class="cls-1" cx="291.67" cy="235.36" rx="20.34" ry="19.16"/><path class="cls-1" d="M257.58,288.9c0-17.73,15.26-32.1,34.09-32.1s34.09,14.37,34.09,32.1"/><path class="cls-4" d="M290.48,362.24c-10.24.13-18.65-6.67-18.78-15.21s8.07-15.57,18.31-15.72,18.66,6.66,18.78,15.21"/><path class="cls-4" d="M290.48,362.24a26.66,26.66,0,0,1,6.42.7c9,2.15,15.62,9,15.74,17.12.16,10-9.53,18.25-21.65,18.42s-22-7.82-22.19-17.82"/><line class="cls-4" x1="291.04" y1="398.48" x2="291.23" y2="410.47"/><line class="cls-5" x1="289.84" y1="320.48" x2="290.01" y2="331.31"/><rect class="cls-1" x="216" y="179.43" width="149.84" height="252.25"/></g></svg>