<?xml version="1.0" encoding="utf-8"?>
<!-- Generator: Adobe Illustrator 23.0.6, SVG Export Plug-In . SVG Version: 6.00 Build 0)  -->
<svg version="1.1" xmlns="http://www.w3.org/2000/svg" xmlns:xlink="http://www.w3.org/1999/xlink" x="0px" y="0px"
	 viewBox="0 0 500 500" style="enable-background:new 0 0 500 500;" xml:space="preserve">
<style type="text/css">
	.st0{fill:none;stroke:#FF3008;stroke-width:16;stroke-linecap:round;stroke-linejoin:round;stroke-miterlimit:10;}
	.st1{fill:none;stroke:#FF3008;stroke-width:16;stroke-linecap:round;stroke-miterlimit:10;}
	.st2{fill:none;stroke:#FF3008;stroke-width:18;stroke-linecap:round;stroke-miterlimit:10;stroke-dasharray:30,40;}
	.st3{fill:none;stroke:#FF3008;stroke-width:15.5273;stroke-linecap:round;stroke-miterlimit:10;}
	.st4{fill:none;stroke:#FF3008;stroke-width:18;stroke-linecap:round;stroke-miterlimit:10;stroke-dasharray:29.1136,38.8182;}
	.st5{fill:none;stroke:#FF3008;stroke-width:16;stroke-linecap:round;stroke-linejoin:round;}
	.st6{fill:none;stroke:#FF3008;stroke-width:18;stroke-linecap:round;stroke-miterlimit:10;stroke-dasharray:33.7034,44.9379;}
	.st7{fill:none;stroke:#FF3008;stroke-width:18;stroke-linecap:round;stroke-miterlimit:10;stroke-dasharray:26.5234,35.3646;}
	.st8{fill:#FF3008;}
	.st9{fill:none;stroke:#FF3008;stroke-width:16;stroke-linecap:round;stroke-miterlimit:10;stroke-dasharray:30,40;}
	
		.st10{fill:none;stroke:#FF3008;stroke-width:18;stroke-linecap:round;stroke-linejoin:round;stroke-miterlimit:10;stroke-dasharray:33.7034,44.9379;}
</style>
<g id="Layer_1">
</g>
<g id="Layer_2">
	<g>
		<path class="st0" d="M364.6,386.6c-1.4,27.9-24.7,27.6-31.2,27.6H150.7c-17.5,0-31.7-13.7-31.7-30.4V263.1
			c0-16.7,14.3-30.4,31.7-30.4h18.7"/>
		<path class="st0" d="M169.5,232.7v-77.7c0-41,33.2-74.3,74.1-74.3h0c40.9,0,74.1,33.2,74.1,74.3l0,0"/>
		<path class="st7" d="M199.9,232.7h133c17.5,0,31.7,13.7,31.7,30.4v112"/>
		<g>
			<path class="st0" d="M226.4,325.1c-6.6-4.9-10.9-12.8-10.9-21.7c0-14.8,11.8-26.7,26.3-26.7c14.5,0,26.3,12,26.3,26.7
				c0,9.7-5.1,18.3-12.8,22.9"/>
			<path class="st0" d="M255.3,327.1v29.3c0,7.6-6.1,13.8-13.6,13.8H240c-7.5,0-13.6-6.2-13.6-13.8v-29.3"/>
		</g>
	</g>
</g>
</svg>
