<?xml version="1.0" encoding="utf-8"?>
<!-- Generator: Adobe Illustrator 23.0.6, SVG Export Plug-In . SVG Version: 6.00 Build 0)  -->
<svg version="1.1" xmlns="http://www.w3.org/2000/svg" xmlns:xlink="http://www.w3.org/1999/xlink" x="0px" y="0px"
	 viewBox="0 0 500 500" style="enable-background:new 0 0 500 500;" xml:space="preserve">
<style type="text/css">
	.st0{fill:none;stroke:#FF3008;stroke-width:16;stroke-linecap:round;stroke-linejoin:round;stroke-miterlimit:10;}
	.st1{fill:none;stroke:#FF3008;stroke-width:16;stroke-linecap:round;stroke-miterlimit:10;}
	.st2{fill:none;stroke:#FF3008;stroke-width:18;stroke-linecap:round;stroke-miterlimit:10;stroke-dasharray:30,40;}
	.st3{fill:none;stroke:#FF3008;stroke-width:15.5273;stroke-linecap:round;stroke-miterlimit:10;}
	.st4{fill:none;stroke:#FF3008;stroke-width:18;stroke-linecap:round;stroke-miterlimit:10;stroke-dasharray:29.1136,38.8182;}
	.st5{fill:none;stroke:#FF3008;stroke-width:16;stroke-linecap:round;stroke-linejoin:round;}
	.st6{fill:none;stroke:#FF3008;stroke-width:18;stroke-linecap:round;stroke-miterlimit:10;stroke-dasharray:33.7034,44.9379;}
	.st7{fill:none;stroke:#FF3008;stroke-width:18;stroke-linecap:round;stroke-miterlimit:10;stroke-dasharray:26.5234,35.3646;}
	.st8{fill:#FF3008;}
	.st9{fill:none;stroke:#FF3008;stroke-width:16;stroke-linecap:round;stroke-miterlimit:10;stroke-dasharray:30,40;}
	
		.st10{fill:none;stroke:#FF3008;stroke-width:18;stroke-linecap:round;stroke-linejoin:round;stroke-miterlimit:10;stroke-dasharray:33.7034,44.9379;}
</style>
<g id="Layer_1">
</g>
<g id="Layer_2">
	<g>
		<path class="st0" d="M216.3,380.4v40.3c0,9.8-8.5,17.7-18.9,17.7h-75.7c-10.5,0-18.9-7.9-18.9-17.7V184.8c0-3.4,1-6.7,2.9-9.7
			l27.5-42.4c1.2-1.8,1.8-3.8,1.8-5.9l0.4-70c0-4.9,4.3-8.8,9.5-8.8h28.5c5.2,0,9.4,3.9,9.5,8.8l0.1,14.1l0.3,55.8
			c0,2.1,0.7,4.2,1.9,6l1.9,2.9"/>
		<path class="st1" d="M401,275.8c-4.5,11.9-12.5,22.7-23.2,30.6c-10.7,7.9-24.2,12.8-39.7,12.8c-40.4,0-68-30.6-68-66
			c0-32.9,19.1-89.3,24.4-104.3c0.8-2.3,2.9-3.8,5.2-3.8h71.6c2.2,0,4.2,1.3,5,3.4"/>
		<path class="st1" d="M289.4,253.2c6.4-4.8,12.9-10.5,28.5-10.5c20.2,0,21.1,19.1,39.5,19.1c16.5,0,23-7.6,26.6-10.5"/>
		<path class="st1" d="M338.1,319.2l-0.9,85.1l59.5,27.8c0.9,0.4,0.6,1.8-0.4,1.8H282.4c-1,0-1.3-1.4-0.4-1.8l55.2-27.8"/>
		<path class="st2" d="M205.5,160l7.7,11.6c2,3,3,6.4,3,9.9v191.1"/>
		<path class="st2" d="M377.3,152.4c0.9,2.1,2.1,5,3.5,8.5c8.6,21.4,42.9,71.6,16.8,123.1"/>
		<rect x="102.8" y="232.6" class="st0" width="70.2" height="121.7"/>
	</g>
</g>
</svg>
