<?xml version="1.0" encoding="utf-8"?>
<!-- Generator: Adobe Illustrator 23.0.6, SVG Export Plug-In . SVG Version: 6.00 Build 0)  -->
<svg version="1.1" xmlns="http://www.w3.org/2000/svg" xmlns:xlink="http://www.w3.org/1999/xlink" x="0px" y="0px"
	 viewBox="0 0 500 500" style="enable-background:new 0 0 500 500;" xml:space="preserve">
<style type="text/css">
	.st0{fill:none;stroke:#FF3008;stroke-width:16;stroke-linecap:round;stroke-linejoin:round;stroke-miterlimit:10;}
	.st1{fill:none;stroke:#FF3008;stroke-width:16;stroke-linecap:round;stroke-miterlimit:10;}
	.st2{fill:none;stroke:#FF3008;stroke-width:18;stroke-linecap:round;stroke-miterlimit:10;stroke-dasharray:30,40;}
	.st3{fill:none;stroke:#FF3008;stroke-width:15.5273;stroke-linecap:round;stroke-miterlimit:10;}
	.st4{fill:none;stroke:#FF3008;stroke-width:18;stroke-linecap:round;stroke-miterlimit:10;stroke-dasharray:29.1136,38.8182;}
	.st5{fill:none;stroke:#FF3008;stroke-width:16;stroke-linecap:round;stroke-linejoin:round;}
	.st6{fill:none;stroke:#FF3008;stroke-width:18;stroke-linecap:round;stroke-miterlimit:10;stroke-dasharray:33.7034,44.9379;}
	.st7{fill:none;stroke:#FF3008;stroke-width:18;stroke-linecap:round;stroke-miterlimit:10;stroke-dasharray:26.5234,35.3646;}
	.st8{fill:#FF3008;}
	.st9{fill:none;stroke:#FF3008;stroke-width:16;stroke-linecap:round;stroke-miterlimit:10;stroke-dasharray:30,40;}
	
		.st10{fill:none;stroke:#FF3008;stroke-width:18;stroke-linecap:round;stroke-linejoin:round;stroke-miterlimit:10;stroke-dasharray:33.7034,44.9379;}
</style>
<g id="Layer_1">
</g>
<g id="Layer_2">
	<g>
		<path class="st0" d="M277.7,181.7c-1.9-6.7-2.9-13.7-2.9-21c0-42,34.1-76,76-75.9c7.3,0,14.4,1.1,21.1,3L332.7,127l10.9,40.8
			l40.8,10.9l39.2-39.2c2.2,7.6,3.3,15.8,2.9,24.2c-1.5,39.6-33.8,71.6-73.4,72.8c-8.5,0.3-16.8-0.9-24.5-3.2L146.8,414.7
			c-14.2,14.2-37.1,14.2-51.3,0l0,0c-5.1-5.1-8.4-11.4-9.8-17.9c-2.5-11.6,1.2-23.6,9.3-32.2l12.3-13.1"/>
		<line class="st2" x1="254.7" y1="203.6" x2="112.7" y2="345.2"/>
		<path class="st0" d="M264.8,330.8l87.5,87.8c14.2,14.2,37.1,14.2,51.3,0l0,0c14.2-14.2,14.2-37.1,0-51.3l-85.1-85.4"/>
		<line class="st0" x1="163.2" y1="178.4" x2="204.7" y2="219"/>
		<polygon class="st0" points="167.3,182.4 119.2,172.8 76,118.8 103.9,90.9 158.3,134.4 		"/>
		<g>
			<path class="st8" d="M121.6,374.5c-6.4,0-11.5,5.2-11.5,11.5s5.2,11.5,11.5,11.5s11.5-5.2,11.5-11.5S128,374.5,121.6,374.5
				L121.6,374.5z"/>
		</g>
		<line class="st5" x1="287.5" y1="312.9" x2="369.7" y2="396.5"/>
	</g>
</g>
</svg>
