<?xml version="1.0" encoding="utf-8"?>
<!-- Generator: Adobe Illustrator 23.0.6, SVG Export Plug-In . SVG Version: 6.00 Build 0)  -->
<svg version="1.1" xmlns="http://www.w3.org/2000/svg" xmlns:xlink="http://www.w3.org/1999/xlink" x="0px" y="0px"
	 viewBox="0 0 500 500" style="enable-background:new 0 0 500 500;" xml:space="preserve">
<style type="text/css">
	.st0{fill:none;stroke:#FF3008;stroke-width:16;stroke-linecap:round;stroke-linejoin:round;stroke-miterlimit:10;}
	.st1{fill:none;stroke:#FF3008;stroke-width:16;stroke-linecap:round;stroke-miterlimit:10;}
	.st2{fill:none;stroke:#FF3008;stroke-width:18;stroke-linecap:round;stroke-miterlimit:10;stroke-dasharray:30,40;}
	.st3{fill:none;stroke:#FF3008;stroke-width:15.5273;stroke-linecap:round;stroke-miterlimit:10;}
	.st4{fill:none;stroke:#FF3008;stroke-width:18;stroke-linecap:round;stroke-miterlimit:10;stroke-dasharray:29.1136,38.8182;}
	.st5{fill:none;stroke:#FF3008;stroke-width:16;stroke-linecap:round;stroke-linejoin:round;}
	.st6{fill:none;stroke:#FF3008;stroke-width:18;stroke-linecap:round;stroke-miterlimit:10;stroke-dasharray:33.7034,44.9379;}
	.st7{fill:none;stroke:#FF3008;stroke-width:18;stroke-linecap:round;stroke-miterlimit:10;stroke-dasharray:26.5234,35.3646;}
	.st8{fill:#FF3008;}
	.st9{fill:none;stroke:#FF3008;stroke-width:16;stroke-linecap:round;stroke-miterlimit:10;stroke-dasharray:30,40;}
	
		.st10{fill:none;stroke:#FF3008;stroke-width:18;stroke-linecap:round;stroke-linejoin:round;stroke-miterlimit:10;stroke-dasharray:33.7034,44.9379;}
</style>
<g id="Layer_1">
</g>
<g id="Layer_2">
	<g>
		<path class="st0" d="M321.7,210.7c11.9-16.2,18.9-36.3,18.9-57.9c0-54.6-44.7-98.9-99.5-98.1c-52.9,0.7-96,43.9-96.7,96.8
			c-0.6,42,25.2,78,61.9,92.5v32.6l17,14.6c2.2,1.9,2.2,5.2,0.1,7.1l-17.1,15.3l0.2,28.4l17.1,13.1c2.1,1.6,2.5,4.5,0.9,6.6
			l-12.9,17.1c-7.4,10.1-6.3,24.1,2.6,33c14.9,14.8,36.4,35.5,44.7,41.1c10.4,7,24.4-0.5,24.4-13"/>
		<path class="st10" d="M283.3,409.5V242c6.2-2.8,12-6.3,17.4-10.3"/>
		<circle class="st0" cx="242.5" cy="113.5" r="26.4"/>
	</g>
</g>
</svg>
