<?xml version="1.0" encoding="utf-8"?>
<!-- Generator: Adobe Illustrator 23.0.6, SVG Export Plug-In . SVG Version: 6.00 Build 0)  -->
<svg version="1.1" xmlns="http://www.w3.org/2000/svg" xmlns:xlink="http://www.w3.org/1999/xlink" x="0px" y="0px"
	 viewBox="0 0 600 600" style="enable-background:new 0 0 600 600;" xml:space="preserve">
<style type="text/css">
	.st0{fill:none;stroke:#FF3008;stroke-width:16;stroke-linecap:round;stroke-linejoin:round;stroke-miterlimit:10;}
	.st1{fill:none;stroke:#FF3008;stroke-width:16;stroke-linecap:round;stroke-miterlimit:10;}
	.st2{fill:none;stroke:#FF3008;stroke-width:18;stroke-linecap:round;stroke-miterlimit:10;stroke-dasharray:30,40;}
	.st3{fill:none;stroke:#FF3008;stroke-width:15.5273;stroke-linecap:round;stroke-miterlimit:10;}
	.st4{fill:none;stroke:#FF3008;stroke-width:18;stroke-linecap:round;stroke-miterlimit:10;stroke-dasharray:29.1136,38.8182;}
	.st5{fill:none;stroke:#FF3008;stroke-width:16;stroke-linecap:round;stroke-linejoin:round;}
	.st6{fill:none;stroke:#FF3008;stroke-width:18;stroke-linecap:round;stroke-miterlimit:10;stroke-dasharray:33.7034,44.9379;}
	.st7{fill:none;stroke:#FF3008;stroke-width:18;stroke-linecap:round;stroke-miterlimit:10;stroke-dasharray:26.5234,35.3646;}
	.st8{fill:#FF3008;}
	.st9{fill:none;stroke:#FF3008;stroke-width:16;stroke-linecap:round;stroke-miterlimit:10;stroke-dasharray:30,40;}
	
		.st10{fill:none;stroke:#FF3008;stroke-width:18;stroke-linecap:round;stroke-linejoin:round;stroke-miterlimit:10;stroke-dasharray:33.7034,44.9379;}
	.st11{fill:none;stroke:#FF3008;stroke-width:18;stroke-linecap:round;stroke-miterlimit:10;stroke-dasharray:20,40;}
	
		.st12{fill:none;stroke:#FF3008;stroke-width:18;stroke-linecap:round;stroke-linejoin:round;stroke-miterlimit:10;stroke-dasharray:30,40;}
</style>
<g id="Layer_1">
</g>
<g id="Layer_2">
	<g>
		<path class="st0" d="M323.4,380.9l53.9,11l-9.6-22.6c-2.3-5.4-0.6-11.7,4.1-15.3l82.3-61.3l-16.8-8.1c-5.1-2.4-7.6-8.2-6-13.6
			l13.8-46.3l-43,5.9c-4,0.5-7.9-1.5-9.7-5.1l-9-18l-35.9,41c-1.9,2.2-5,2.9-7.7,1.8l0,0c-2.9-1.2-4.6-4.4-4-7.5l17.6-93.3
			l-24.1,15.4c-4.8,3-11.2,1.2-13.6-3.9l-27.8-58.1h-0.3l-27.8,58.1c-2.4,5.1-8.8,6.9-13.6,3.9l-24.1-15.4l17.6,93.3
			c0.6,3.1-1.1,6.3-4,7.5h0c-2.7,1.1-5.8,0.4-7.7-1.8l-35.9-41l-9,18c-1.8,3.6-5.7,5.7-9.7,5.1l-43-5.9l13.8,46.3
			c1.6,5.4-1,11.2-6,13.6l-16.8,8.1"/>
	</g>
	<path class="st12" d="M288.2,485.7V375.6h-10.6l-79.8,16.3l9.6-22.6c2.3-5.4,0.6-11.7-4.1-15.3L121,292.8"/>
</g>
</svg>
