<?xml version="1.0" encoding="utf-8"?>
<!-- Generator: Adobe Illustrator 23.0.6, SVG Export Plug-In . SVG Version: 6.00 Build 0)  -->
<svg version="1.1" xmlns="http://www.w3.org/2000/svg" xmlns:xlink="http://www.w3.org/1999/xlink" x="0px" y="0px"
	 viewBox="0 0 500 500" style="enable-background:new 0 0 500 500;" xml:space="preserve">
<style type="text/css">
	.st0{fill:none;stroke:#FF3008;stroke-width:16;stroke-linecap:round;stroke-linejoin:round;stroke-miterlimit:10;}
	.st1{fill:none;stroke:#FF3008;stroke-width:16;stroke-linecap:round;stroke-miterlimit:10;}
	.st2{fill:none;stroke:#FF3008;stroke-width:18;stroke-linecap:round;stroke-miterlimit:10;stroke-dasharray:30,40;}
	.st3{fill:none;stroke:#FF3008;stroke-width:15.5273;stroke-linecap:round;stroke-miterlimit:10;}
	.st4{fill:none;stroke:#FF3008;stroke-width:18;stroke-linecap:round;stroke-miterlimit:10;stroke-dasharray:29.1136,38.8182;}
	.st5{fill:none;stroke:#FF3008;stroke-width:16;stroke-linecap:round;stroke-linejoin:round;}
	.st6{fill:none;stroke:#FF3008;stroke-width:18;stroke-linecap:round;stroke-miterlimit:10;stroke-dasharray:33.7034,44.9379;}
	.st7{fill:none;stroke:#FF3008;stroke-width:18;stroke-linecap:round;stroke-miterlimit:10;stroke-dasharray:26.5234,35.3646;}
	.st8{fill:#FF3008;}
	.st9{fill:none;stroke:#FF3008;stroke-width:16;stroke-linecap:round;stroke-miterlimit:10;stroke-dasharray:30,40;}
	
		.st10{fill:none;stroke:#FF3008;stroke-width:18;stroke-linecap:round;stroke-linejoin:round;stroke-miterlimit:10;stroke-dasharray:33.7034,44.9379;}
</style>
<g id="Layer_1">
</g>
<g id="Layer_2">
	<g>
		<path class="st8" d="M298,258.9c-5.3-9.9-15.6-16-26.8-16h-84.8c-1.6,0-2.9,1.3-2.9,2.9c0,0.8,0.3,1.5,0.8,2l18.5,18.6
			c1.6,1.6,3.8,2.6,6.1,2.6h59.8c4.3,0,7.7,3.4,7.8,7.6c0,4.3-3.4,7.7-7.6,7.8h-41.2c-1.6,0-2.9,1.3-2.9,2.9c0,0.8,0.3,1.5,0.8,2
			l18.5,18.6c1.6,1.6,3.8,2.6,6.2,2.6H269C293.2,310.5,311.5,284.6,298,258.9"/>
		<path class="st0" d="M395.7,379.1v49c0,6.1-4.9,11-11,11H107.6c-6.1,0-11-4.9-11-11V124.5c0-6.1,4.9-11,11-11h277.1
			c6.1,0,11,4.9,11,11v16.4"/>
		<line class="st2" x1="395.7" y1="174.9" x2="395.7" y2="372.3"/>
		<path class="st0" d="M179.1,113.5V75.2c0-15,12.1-27.1,27.1-27.1H286c15,0,27.1,12.1,27.1,27.1v38.2"/>
	</g>
</g>
</svg>
