<svg xmlns="http://www.w3.org/2000/svg" viewBox="0 0 600 600"><defs><style>.cls-1,.cls-2{fill:none;stroke:#ff3008;stroke-linecap:round;}.cls-1{stroke-linejoin:round;stroke-width:16px;}.cls-2{stroke-miterlimit:10;stroke-width:18px;stroke-dasharray:30 40;}</style></defs><title>Topics icons_NEW</title><g id="Layer_2" data-name="Layer 2"><g id="Layer_1-2" data-name="Layer 1-2"><circle class="cls-1" cx="141.93" cy="411.28" r="46.92"/><circle class="cls-1" cx="475.43" cy="411.28" r="46.92"/><path class="cls-1" d="M90.35,407.49H56.18a4.94,4.94,0,0,1-4.88-3.94l-18-39.4c-1.36-6.48,0-183.19,0-183.19H375.88v29.38l78.49.06a44,44,0,0,1,34.85,17.2c26.92,35.07,85.52,102.27,85.52,107.79v67.13a5,5,0,0,1-5,5H522.35"/><line class="cls-1" x1="189.26" y1="407.74" x2="425.69" y2="407.74"/><line class="cls-1" x1="46.12" y1="379.01" x2="76.53" y2="379.01"/><line class="cls-1" x1="544.33" y1="379.01" x2="574.75" y2="379.01"/><polygon class="cls-1" points="508.16 296.21 410.36 295.84 410.36 239.88 462.52 239.88 508.16 296.21"/><line class="cls-1" x1="38.19" y1="309.97" x2="141.88" y2="309.97"/><line class="cls-2" x1="222.54" y1="379.01" x2="392.75" y2="378.93"/><circle class="cls-1" cx="141.49" cy="410.81" r="16.97"/><circle class="cls-1" cx="475.84" cy="410.81" r="16.97"/></g><polyline class="cls-1" points="375.88 212.03 375.88 342.13 34.09 342.13"/></g></svg>