<svg xmlns="http://www.w3.org/2000/svg" viewBox="0 0 600 600"><defs><style>.cls-1,.cls-2{fill:none;stroke:#ff3008;stroke-linecap:round;}.cls-1{stroke-linejoin:round;stroke-width:16px;}.cls-2{stroke-miterlimit:10;stroke-width:18px;stroke-dasharray:30 40;}.cls-3{fill:#ff3008;}</style></defs><title>Topics icons_NEW</title><g id="Layer_2" data-name="Layer 2"><path class="cls-1" d="M454.88,435.55v49a11,11,0,0,1-11,11H166.77a11,11,0,0,1-11-11V180.86a11,11,0,0,1,11-11H443.88a11,11,0,0,1,11,11v16.42"/><line class="cls-2" x1="454.88" y1="231.33" x2="454.88" y2="428.75"/><path class="cls-1" d="M238.3,169.86V131.61a27.12,27.12,0,0,1,27.12-27.12h79.81a27.12,27.12,0,0,1,27.12,27.12v38.25"/><line class="cls-1" x1="305.51" y1="316.93" x2="305.51" y2="383.2"/><circle class="cls-3" cx="305.51" cy="290.32" r="7.66"/><circle class="cls-1" cx="305.51" cy="335.18" r="81.62"/></g></svg>