<?xml version="1.0" encoding="utf-8"?>
<!-- Generator: Adobe Illustrator 23.0.6, SVG Export Plug-In . SVG Version: 6.00 Build 0)  -->
<svg version="1.1" xmlns="http://www.w3.org/2000/svg" xmlns:xlink="http://www.w3.org/1999/xlink" x="0px" y="0px"
	 viewBox="0 0 500 500" style="enable-background:new 0 0 500 500;" xml:space="preserve">
<style type="text/css">
	.st0{fill:none;stroke:#FF3008;stroke-width:16;stroke-linecap:round;stroke-linejoin:round;stroke-miterlimit:10;}
	.st1{fill:none;stroke:#FF3008;stroke-width:16;stroke-linecap:round;stroke-miterlimit:10;}
	.st2{fill:none;stroke:#FF3008;stroke-width:18;stroke-linecap:round;stroke-miterlimit:10;stroke-dasharray:30,40;}
	.st3{fill:none;stroke:#FF3008;stroke-width:15.5273;stroke-linecap:round;stroke-miterlimit:10;}
	.st4{fill:none;stroke:#FF3008;stroke-width:18;stroke-linecap:round;stroke-miterlimit:10;stroke-dasharray:29.1136,38.8182;}
	.st5{fill:none;stroke:#FF3008;stroke-width:16;stroke-linecap:round;stroke-linejoin:round;}
	.st6{fill:none;stroke:#FF3008;stroke-width:18;stroke-linecap:round;stroke-miterlimit:10;stroke-dasharray:33.7034,44.9379;}
	.st7{fill:none;stroke:#FF3008;stroke-width:18;stroke-linecap:round;stroke-miterlimit:10;stroke-dasharray:26.5234,35.3646;}
	.st8{fill:#FF3008;}
	.st9{fill:none;stroke:#FF3008;stroke-width:16;stroke-linecap:round;stroke-miterlimit:10;stroke-dasharray:30,40;}
	
		.st10{fill:none;stroke:#FF3008;stroke-width:18;stroke-linecap:round;stroke-linejoin:round;stroke-miterlimit:10;stroke-dasharray:33.7034,44.9379;}
</style>
<g id="Layer_1">
</g>
<g id="Layer_2">
	<g>
		<g>
			<circle class="st0" cx="361.3" cy="350.8" r="31.4"/>
			<line class="st0" x1="319.2" y1="184.1" x2="359" y2="283.4"/>
			<path class="st0" d="M339.1,226.3c12.3,0,22.4-10.1,22.4-22.4v0c0-12.3-10.1-22.4-22.4-22.4h-32.5"/>
			<path class="st0" d="M232.9,308.3l6.6-31c1.7-7-3.7-13.7-10.9-13.7h-33.1c-39.8,0-72.3,31.6-73.6,71.3l-0.2,6.9h176.5
				c0-32.2,26.1-58.4,58.4-58.4c15.7,0,29.9,6.2,40.4,16.2"/>
			<circle class="st0" cx="242.2" cy="115.4" r="22.1"/>
			<path class="st0" d="M271.9,310l8-45c3.9-16.7-8.7-35.8-25.9-35.8l-49.3-0.2l8.4-66l31.9,18.8h34.8"/>
			<path class="st0" d="M209.4,350.8c0,17.3-14.1,31.4-31.4,31.4s-31.4-14.1-31.4-31.4"/>
			<line class="st0" x1="170.2" y1="232.1" x2="103.7" y2="232.1"/>
			<rect x="107.6" y="148.6" class="st0" width="57.6" height="55.4"/>
			<path class="st0" d="M147.4,121.4h-22c-1.7,0-3.1,1.4-3.1,3.1v24h28.2v-24C150.5,122.8,149.1,121.4,147.4,121.4z"/>
		</g>
		<g>
			<line class="st5" x1="231.4" y1="417" x2="44.4" y2="417"/>
			<line class="st6" x1="456.2" y1="416.5" x2="267.4" y2="417"/>
		</g>
	</g>
</g>
</svg>
