<svg xmlns="http://www.w3.org/2000/svg" viewBox="0 0 600 600"><defs><style>.cls-1,.cls-2{fill:none;stroke:#ff3008;stroke-linecap:round;}.cls-1{stroke-linejoin:round;stroke-width:16px;}.cls-2{stroke-miterlimit:10;stroke-width:18px;stroke-dasharray:30 40;}</style></defs><title>Topics icons_NEW</title><g id="Layer_2" data-name="Layer 2"><path class="cls-1" d="M443.23,247.4a41.34,41.34,0,0,1,5.25-.34,40.09,40.09,0,0,1,0,80.18,40.81,40.81,0,0,1-5-.31"/><path class="cls-1" d="M254,373.3l14,75.75a32.83,32.83,0,0,1-26.34,38.23l-10.82,2a32.82,32.82,0,0,1-38.23-26.34l-15.87-86.17"/><path class="cls-1" d="M266.38,209l44.77-2.22h0C366.31,190.57,402.4,166,422.36,149a11.71,11.71,0,0,1,19.29,8.93V416.37a11.71,11.71,0,0,1-19.27,9C403.26,409,369.3,385.75,317.92,369.6l-172.8,1.23c-12.08.52-23.36-9.34-31.42-25.37a89.62,89.62,0,0,1-12.88-39.27"/><path class="cls-2" d="M234.42,210.55l-96,4.78c-13.81.6-25.42,14.64-31.75,35.52a115.1,115.1,0,0,0-3.19,13.56,142.93,142.93,0,0,0-1.85,30.4"/><line class="cls-1" x1="311.02" y1="210.07" x2="311.02" y2="367.83"/><line class="cls-1" x1="278.96" y1="280.84" x2="278.96" y2="364.69"/></g></svg>