<svg xmlns="http://www.w3.org/2000/svg" viewBox="0 0 600 600"><defs><style>.cls-1,.cls-2{fill:none;stroke:#ff3008;stroke-linecap:round;}.cls-1{stroke-linejoin:round;stroke-width:16px;}.cls-2{stroke-miterlimit:10;stroke-width:18px;stroke-dasharray:30 40;}</style></defs><title>Topics icons_NEW</title><g id="Layer_2" data-name="Layer 2"><path class="cls-1" d="M475.37,429.33H135.17a13.5,13.5,0,0,1-13.5-13.51V168.39a13.69,13.69,0,0,1,13.69-13.69H475.19a13.69,13.69,0,0,1,13.69,13.69V178"/><line class="cls-2" x1="488.88" y1="213.75" x2="488.88" y2="406.28"/><path class="cls-1" d="M285.18,294.6c0,10-9.24,18.08-20.63,18.08s-20.64-8.1-20.64-18.08"/><path class="cls-1" d="M326.45,294.6c0,10-9.24,18.08-20.63,18.08s-20.64-8.1-20.64-18.08"/><path class="cls-1" d="M367.72,294.6c0,10-9.23,18.08-20.63,18.08s-20.64-8.1-20.64-18.08"/><polyline class="cls-1" points="367.73 295.06 367.73 361.73 243.54 361.73 243.54 295.06"/><path class="cls-1" d="M235.1,263.23l19-31.49H358.2l17.36,31.4c2.16,3.91-1,8.53-5.8,8.54L240.81,272C235.87,272,232.72,267.17,235.1,263.23Z"/><path class="cls-1" d="M502.45,463.65H108.1a34.28,34.28,0,0,1-34.28-34.27h462.9A34.27,34.27,0,0,1,502.45,463.65Z"/></g></svg>