<?xml version="1.0" encoding="utf-8"?>
<!-- Generator: Adobe Illustrator 23.0.6, SVG Export Plug-In . SVG Version: 6.00 Build 0)  -->
<svg version="1.1" xmlns="http://www.w3.org/2000/svg" xmlns:xlink="http://www.w3.org/1999/xlink" x="0px" y="0px"
	 viewBox="0 0 500 500" style="enable-background:new 0 0 500 500;" xml:space="preserve">
<style type="text/css">
	.st0{fill:none;stroke:#FF3008;stroke-width:16;stroke-linecap:round;stroke-linejoin:round;stroke-miterlimit:10;}
	.st1{fill:none;stroke:#FF3008;stroke-width:16;stroke-linecap:round;stroke-miterlimit:10;}
	.st2{fill:none;stroke:#FF3008;stroke-width:18;stroke-linecap:round;stroke-miterlimit:10;stroke-dasharray:30,40;}
	.st3{fill:none;stroke:#FF3008;stroke-width:15.5273;stroke-linecap:round;stroke-miterlimit:10;}
	.st4{fill:none;stroke:#FF3008;stroke-width:18;stroke-linecap:round;stroke-miterlimit:10;stroke-dasharray:29.1136,38.8182;}
	.st5{fill:none;stroke:#FF3008;stroke-width:16;stroke-linecap:round;stroke-linejoin:round;}
	.st6{fill:none;stroke:#FF3008;stroke-width:18;stroke-linecap:round;stroke-miterlimit:10;stroke-dasharray:33.7034,44.9379;}
	.st7{fill:none;stroke:#FF3008;stroke-width:18;stroke-linecap:round;stroke-miterlimit:10;stroke-dasharray:26.5234,35.3646;}
	.st8{fill:#FF3008;}
	.st9{fill:none;stroke:#FF3008;stroke-width:16;stroke-linecap:round;stroke-miterlimit:10;stroke-dasharray:30,40;}
	
		.st10{fill:none;stroke:#FF3008;stroke-width:18;stroke-linecap:round;stroke-linejoin:round;stroke-miterlimit:10;stroke-dasharray:33.7034,44.9379;}
</style>
<g id="Layer_1">
</g>
<g id="Layer_2">
	<g>
		<line class="st5" x1="248.8" y1="393.2" x2="46.5" y2="393.2"/>
		<line class="st6" x1="469.6" y1="392.7" x2="280.7" y2="393.2"/>
		<circle class="st5" cx="171.3" cy="324.5" r="34"/>
		<circle class="st5" cx="390.7" cy="324.5" r="34"/>
		<path class="st5" d="M133.9,321.8h-24.8c-1.7,0-3.2-1.2-3.5-2.9l-12.3-58.3c-1-4.7,0.4-9.5,3.7-12.9h272.6"/>
		<line class="st5" x1="205.6" y1="322" x2="356.7" y2="322"/>
		<line class="st5" x1="103.9" y1="291.9" x2="125.9" y2="291.9"/>
		<line class="st5" x1="439.6" y1="291.9" x2="458.6" y2="291.9"/>
		<line class="st5" x1="320.1" y1="224.5" x2="342.2" y2="224.5"/>
		<line class="st5" x1="223" y1="291.9" x2="339.8" y2="291.9"/>
		<g>
			<path class="st8" d="M171,311.9c-6.8,0-12.3,5.5-12.3,12.3c0,6.8,5.5,12.3,12.3,12.3s12.3-5.5,12.3-12.3
				C183.3,317.4,177.8,311.9,171,311.9L171,311.9z"/>
		</g>
		<g>
			<path class="st8" d="M391,311.9c-6.8,0-12.3,5.5-12.3,12.3c0,6.8,5.5,12.3,12.3,12.3c6.8,0,12.3-5.5,12.3-12.3
				C403.3,317.4,397.8,311.9,391,311.9L391,311.9z"/>
		</g>
		<path class="st5" d="M122.9,240.7l10.5-49.5c1.8-8.4,9.2-14.4,17.8-14.3l160.7,2c3,0,5.8,1.6,7.5,4.1l39.3,59.1
			c2.1,2.5,5,4.2,8.2,4.9l82.8,19c5.1,1,8.8,5.4,8.8,10.6v41.6c0,2-1.6,3.6-3.6,3.6h-30.3"/>
		<line class="st5" x1="232.4" y1="181.2" x2="232.4" y2="242"/>
		<line class="st5" x1="91.4" y1="293.1" x2="64.1" y2="293.1"/>
		<line class="st5" x1="94.4" y1="247.5" x2="37.6" y2="247.5"/>
		<line class="st5" x1="89.4" y1="203.9" x2="62.1" y2="203.9"/>
	</g>
</g>
</svg>
