<?xml version="1.0" encoding="utf-8"?>
<!-- Generator: Adobe Illustrator 23.0.6, SVG Export Plug-In . SVG Version: 6.00 Build 0)  -->
<svg version="1.1" xmlns="http://www.w3.org/2000/svg" xmlns:xlink="http://www.w3.org/1999/xlink" x="0px" y="0px"
	 viewBox="0 0 500 500" style="enable-background:new 0 0 500 500;" xml:space="preserve">
<style type="text/css">
	.st0{fill:none;stroke:#FF3008;stroke-width:16;stroke-linecap:round;stroke-linejoin:round;stroke-miterlimit:10;}
	.st1{fill:none;stroke:#FF3008;stroke-width:16;stroke-linecap:round;stroke-miterlimit:10;}
	.st2{fill:none;stroke:#FF3008;stroke-width:18;stroke-linecap:round;stroke-miterlimit:10;stroke-dasharray:30,40;}
	.st3{fill:none;stroke:#FF3008;stroke-width:15.5273;stroke-linecap:round;stroke-miterlimit:10;}
	.st4{fill:none;stroke:#FF3008;stroke-width:18;stroke-linecap:round;stroke-miterlimit:10;stroke-dasharray:29.1136,38.8182;}
	.st5{fill:none;stroke:#FF3008;stroke-width:16;stroke-linecap:round;stroke-linejoin:round;}
	.st6{fill:none;stroke:#FF3008;stroke-width:18;stroke-linecap:round;stroke-miterlimit:10;stroke-dasharray:33.7034,44.9379;}
	.st7{fill:none;stroke:#FF3008;stroke-width:18;stroke-linecap:round;stroke-miterlimit:10;stroke-dasharray:26.5234,35.3646;}
	.st8{fill:#FF3008;}
	.st9{fill:none;stroke:#FF3008;stroke-width:16;stroke-linecap:round;stroke-miterlimit:10;stroke-dasharray:30,40;}
	
		.st10{fill:none;stroke:#FF3008;stroke-width:18;stroke-linecap:round;stroke-linejoin:round;stroke-miterlimit:10;stroke-dasharray:33.7034,44.9379;}
</style>
<g id="Layer_1">
</g>
<g id="Layer_2">
	<g>
		<g>
			<path class="st8" d="M217.3,186.9c9-9.5,21.3-14.3,36.9-14.3c14.5,0,26.1,4.1,34.8,12.2c8.7,8.2,13.1,18.6,13.1,31.3
				c0,7.7-1.6,13.9-4.7,18.7s-9.6,11.8-19.4,21.1c-7.1,6.7-11.7,12.5-13.9,17.1c-1.4,3-2.3,7-2.8,12c-0.5,5-4.6,8.8-9.6,8.8h0
				c-5.7,0-10.2-4.9-9.6-10.6c0.6-5.6,1.6-10.5,3.2-14.5c2.5-6.3,8-13.6,16.5-21.8l8.9-8.6c2.7-2.5,4.8-5,6.5-7.7
				c3-4.7,4.5-9.6,4.5-14.7c0-7.1-2.2-13.3-6.5-18.5c-4.3-5.2-11.5-7.8-21.5-7.8c-12.4,0-20.9,4.5-25.7,13.5
				c-1.8,3.4-3.1,7.9-3.9,13.3c-0.7,4.8-4.8,8.3-9.6,8.3h0c-5.9,0-10.5-5.3-9.6-11.1C206.4,203,210.6,194.1,217.3,186.9z
				 M251.8,311.9L251.8,311.9c6,0,10.8,4.8,10.8,10.8v1c0,6-4.8,10.8-10.8,10.8h0c-6,0-10.8-4.8-10.8-10.8v-1
				C241,316.8,245.8,311.9,251.8,311.9z"/>
		</g>
		<path class="st2" d="M362.3,138c22.7,21.4,39.6,49.5,47.3,82.2c21.1,89-34,178.2-123,199.3c-4.9,1.2-9.8,2.1-14.7,2.8"/>
		<path class="st0" d="M244.2,423.9c-73.3-1.9-139.1-52.7-156.8-127.4c-21.1-89,34-178.2,123-199.3c44-10.4,88.1-2.2,123.9,19.5"/>
	</g>
</g>
</svg>
