<svg xmlns="http://www.w3.org/2000/svg" viewBox="0 0 600 600"><defs><style>.cls-1,.cls-2{fill:none;stroke:#ff3008;stroke-linecap:round;}.cls-1{stroke-linejoin:round;stroke-width:16px;}.cls-2{stroke-miterlimit:10;stroke-width:18px;stroke-dasharray:30 40;}</style></defs><title>Topics icons_NEW</title><g id="Layer_2" data-name="Layer 2"><line class="cls-1" x1="215.86" y1="224.71" x2="369.09" y2="225.97"/><line class="cls-1" x1="413.66" y1="340.13" x2="454.32" y2="302.6"/><path class="cls-1" d="M259.47,225.84,215,271.44a27.08,27.08,0,0,0,.56,38.4h0a27.08,27.08,0,0,0,38.35-.71l19.88-20.68,9.35-9.35c14.33-14.33,37.07-15.34,52-2.31l95.19,85.06a22,22,0,0,1,1.84,31h0c-8,9.3-21.87,10.59-31.06,2.88l-38.24-32.1"/><path class="cls-1" d="M406.09,399.85a22,22,0,0,1,1.84,31h0c-8,9.3-21.87,10.59-31.06,2.88l-38.24-32.1"/><path class="cls-1" d="M375.89,433.43a22,22,0,0,1,1.84,31h0a22.21,22.21,0,0,1-31.05,2.88l-38.24-32.1"/><path class="cls-1" d="M329,452.2a22,22,0,0,1,1.84,31h0a22.21,22.21,0,0,1-31.06,2.88l-17.07-14.18"/><line class="cls-1" x1="118.37" y1="301.29" x2="157.98" y2="341.95"/><rect class="cls-1" x="142.36" y="329.07" width="42.61" height="72.98" rx="21.31" transform="translate(329.41 0.93) rotate(48.56)"/><rect class="cls-1" x="171.55" y="364.52" width="42.61" height="72.98" rx="21.31" transform="translate(365.85 -8.96) rotate(48.56)"/><rect class="cls-1" x="200.74" y="397.88" width="42.61" height="72.98" rx="21.31" transform="translate(400.74 -19.56) rotate(48.56)"/><rect class="cls-1" x="239.04" y="433.86" width="42.61" height="58.48" rx="21.31" transform="translate(435.22 -38.55) rotate(48.56)"/><polyline class="cls-2" points="175.66 242.3 203.33 214.24 114.1 129.24"/><polyline class="cls-1" points="62.6 275.23 101.69 313.54 154.3 261.14"/><polyline class="cls-1" points="454.32 129.8 368.31 218.15 469.17 315.11 509.83 275.23"/></g></svg>