<?xml version="1.0" encoding="utf-8"?>
<!-- Generator: Adobe Illustrator 23.0.6, SVG Export Plug-In . SVG Version: 6.00 Build 0)  -->
<svg version="1.1" xmlns="http://www.w3.org/2000/svg" xmlns:xlink="http://www.w3.org/1999/xlink" x="0px" y="0px"
	 viewBox="0 0 500 500" style="enable-background:new 0 0 500 500;" xml:space="preserve">
<style type="text/css">
	.st0{fill:none;stroke:#FF3008;stroke-width:16;stroke-linecap:round;stroke-linejoin:round;stroke-miterlimit:10;}
	.st1{fill:none;stroke:#FF3008;stroke-width:16;stroke-linecap:round;stroke-miterlimit:10;}
	.st2{fill:none;stroke:#FF3008;stroke-width:18;stroke-linecap:round;stroke-miterlimit:10;stroke-dasharray:30,40;}
	.st3{fill:none;stroke:#FF3008;stroke-width:15.5273;stroke-linecap:round;stroke-miterlimit:10;}
	.st4{fill:none;stroke:#FF3008;stroke-width:18;stroke-linecap:round;stroke-miterlimit:10;stroke-dasharray:29.1136,38.8182;}
	.st5{fill:none;stroke:#FF3008;stroke-width:16;stroke-linecap:round;stroke-linejoin:round;}
	.st6{fill:none;stroke:#FF3008;stroke-width:18;stroke-linecap:round;stroke-miterlimit:10;stroke-dasharray:33.7034,44.9379;}
	.st7{fill:none;stroke:#FF3008;stroke-width:18;stroke-linecap:round;stroke-miterlimit:10;stroke-dasharray:26.5234,35.3646;}
	.st8{fill:#FF3008;}
	.st9{fill:none;stroke:#FF3008;stroke-width:16;stroke-linecap:round;stroke-miterlimit:10;stroke-dasharray:30,40;}
	
		.st10{fill:none;stroke:#FF3008;stroke-width:18;stroke-linecap:round;stroke-linejoin:round;stroke-miterlimit:10;stroke-dasharray:33.7034,44.9379;}
</style>
<g id="Layer_1">
</g>
<g id="Layer_2">
	<g>
		<path class="st1" d="M297.9,273.9c0.6,38.7-30.4,70.6-69.1,71.1s-70.6-30.4-71.1-69.1c-0.6-38.7,30.4-70.6,69.1-71.1
			c17.2-0.3,34,5.9,47,17.1C288.8,235.1,297.6,254,297.9,273.9z"/>
		<path class="st1" d="M227.7,271.5c-10.2,0.1-18.5-7-18.6-16c-0.1-9,8-16.4,18.2-16.6s18.5,7,18.6,16"/>
		<path class="st1" d="M227.7,271.5c2.1,0,4.3,0.2,6.4,0.7c8.9,2.3,15.5,9.4,15.6,18c0.2,10.5-9.4,19.2-21.5,19.4s-21.9-8.2-22-18.8
			"/>
		<line class="st1" x1="228.3" y1="309.7" x2="228.5" y2="322.4"/>
		<line class="st3" x1="227.1" y1="227.6" x2="227.3" y2="239"/>
		<path class="st4" d="M435.2,332.7c5.3-0.1,10-3.8,11.1-9.3c0.1-0.7,0.2-1.5,0.2-2.2V132.7c0-7.5-5.3-14-12.7-15.6
			c-33.3-6.9-83.2-15.6-135.9-5.2c-10.5,2.1-16.8,3.8-23.9,5.6c-36.2,8.9-106.4,25.5-166.1,17.6c-6.3-0.8-12,3.6-12.8,9.8
			c-0.1,0.5-0.1,1-0.1,1.5v20.9"/>
		<path class="st1" d="M228.4,384.3c10.1-2.6,26.6-7.4,50.7-10.8c34.9-4.9,70.2-4.9,105.1,0.1c9.4,1.3,18.1-5.3,19.4-14.6
			c0.1-0.8,0.2-1.6,0.2-2.4v-82.6"/>
		<path class="st1" d="M228.4,384.3c-10.1,2.6-26.6,7.4-50.7,10.8c-36.5,5.1-73.6,4.9-110-0.8c-8.4-1.3-14.6-8.5-14.6-17V227.6"/>
		<path class="st3" d="M228.4,172c-10.1,2.6-26.6,7.4-50.7,10.8c-34.8,4.9-70.2,4.9-105.1-0.1c-9.4-1.3-18.1,5.2-19.4,14.6
			c-0.1,0.8-0.2,1.6-0.2,2.4v27.8"/>
		<path class="st1" d="M228.4,172c10.1-2.6,26.6-7.4,50.7-10.8c36.5-5.1,73.6-4.9,110,0.8c8.4,1.3,14.6,8.5,14.6,17v95"/>
		<path class="st3" d="M118.2,224.9c-4.2-0.2-7.9-0.5-12.5-1.2c-6-0.8-11.6,3.4-12.4,9.4c-0.1,0.5-0.1,1-0.1,1.5v17.8"/>
		<path class="st1" d="M339.3,333.6c4.2,0.2,7.9,0.5,12.5,1.2c6,0.8,11.6-3.4,12.4-9.4c0.1-0.5,0.1-1,0.1-1.5V306"/>
	</g>
</g>
</svg>
