<svg xmlns="http://www.w3.org/2000/svg" viewBox="0 0 600 600"><defs><style>.cls-1,.cls-2{fill:none;stroke:#ff3008;stroke-linecap:round;}.cls-1{stroke-miterlimit:10;stroke-width:18px;stroke-dasharray:33.7 44.94;}.cls-2{stroke-linejoin:round;stroke-width:16px;}</style></defs><title>Topics icons_NEW</title><g id="Layer_2" data-name="Layer 2"><path class="cls-1" d="M343.07,414.23q5.58-5.31,10.8-10.49c56.67-56.17,82.09-100.57,87-136.24a100.11,100.11,0,0,0,.93-11.72"/><path class="cls-2" d="M431,210.49a81.26,81.26,0,0,0-23-26.43,83.13,83.13,0,0,0-40.83-15.61c-56.79-6.09-94,48.35-94,48.35h-2.6s-37.17-54.44-94-48.35c-49,5.26-80.61,48.74-73.7,99.05,6.82,49.62,53.35,116.14,168.49,207.74h1q20.47-16.29,38.11-31.53"/></g></svg>