<svg xmlns="http://www.w3.org/2000/svg" viewBox="0 0 600 600"><defs><style>.cls-1,.cls-2{fill:none;stroke:#ff3008;stroke-linecap:round;}.cls-1{stroke-linejoin:round;stroke-width:16px;}.cls-2{stroke-miterlimit:10;stroke-width:18px;stroke-dasharray:33.7 44.94;}.cls-3{fill:#ff3008;}</style></defs><title>Topics icons_NEW</title><g id="Layer_2" data-name="Layer 2"><path class="cls-1" d="M432.56,165.66V149.33A38.36,38.36,0,0,0,394.2,111H206.44a38.36,38.36,0,0,0-38.36,38.36V457.66A38.37,38.37,0,0,0,206.44,496H394.2a38.37,38.37,0,0,0,38.36-38.36V428.21"/><line class="cls-2" x1="432.56" y1="393.19" x2="432.56" y2="200.34"/><rect class="cls-1" x="195.73" y="158.92" width="209.18" height="291.87"/><line class="cls-1" x1="280.85" y1="135.71" x2="322.31" y2="135.71"/><line class="cls-1" x1="225.03" y1="233" x2="304.45" y2="233"/><line class="cls-1" x1="225.03" y1="294.89" x2="304.45" y2="294.89"/><line class="cls-1" x1="225.03" y1="356.78" x2="304.45" y2="356.78"/><polyline class="cls-1" points="338.73 226.71 350.04 238.01 368.88 211.63"/><polyline class="cls-1" points="338.73 288.6 350.04 299.9 368.88 273.52"/><polyline class="cls-1" points="338.73 350.49 350.04 361.79 368.88 335.41"/><circle class="cls-3" cx="296.35" cy="474.45" r="8.56"/></g></svg>