<svg xmlns="http://www.w3.org/2000/svg" viewBox="0 0 600 600"><defs><style>.cls-1,.cls-2{fill:none;stroke:#ff3008;stroke-linecap:round;}.cls-1{stroke-linejoin:round;stroke-width:16px;}.cls-2{stroke-miterlimit:10;stroke-width:18px;stroke-dasharray:33.7 44.94;}.cls-3{fill:#ff3008;}</style></defs><title>Topics icons_NEW</title><g id="Layer_2" data-name="Layer 2"><path class="cls-1" d="M444.85,250.9v227a10.14,10.14,0,0,1-10.14,10.13H179.37a10.14,10.14,0,0,1-10.14-10.13v-227"/><rect class="cls-1" x="159.07" y="150.4" width="295.95" height="98.46" rx="12.68"/><line class="cls-1" x1="159.97" y1="199.12" x2="454.11" y2="199.12"/><line class="cls-2" x1="419.49" y1="279.64" x2="419.49" y2="459.81"/><line class="cls-2" x1="197.04" y1="279.64" x2="197.04" y2="459.81"/><path class="cls-3" d="M346.73,347a21.81,21.81,0,0,0-19.35-11.57H266.12a2.11,2.11,0,0,0-2.1,2.13,2.15,2.15,0,0,0,.62,1.47L278,352.49a6.25,6.25,0,0,0,4.45,1.86h43.2a5.57,5.57,0,1,1,.12,11.14H296a2.11,2.11,0,0,0-2.09,2.13,2.14,2.14,0,0,0,.61,1.47l13.35,13.42a6.3,6.3,0,0,0,4.45,1.85h13.47c17.51,0,30.76-18.73,21-37.32"/><path class="cls-1" d="M245.14,150.4l5.94-29.64a8.89,8.89,0,0,1,8.71-7.13h94.49a8.87,8.87,0,0,1,8.71,7.13l5.95,29.64"/></g></svg>