<?xml version="1.0" encoding="utf-8"?>
<!-- Generator: Adobe Illustrator 23.0.6, SVG Export Plug-In . SVG Version: 6.00 Build 0)  -->
<svg version="1.1" xmlns="http://www.w3.org/2000/svg" xmlns:xlink="http://www.w3.org/1999/xlink" x="0px" y="0px"
	 viewBox="0 0 500 500" style="enable-background:new 0 0 500 500;" xml:space="preserve">
<style type="text/css">
	.st0{fill:none;stroke:#FF3008;stroke-width:16;stroke-linecap:round;stroke-linejoin:round;stroke-miterlimit:10;}
	.st1{fill:none;stroke:#FF3008;stroke-width:16;stroke-linecap:round;stroke-miterlimit:10;}
	.st2{fill:none;stroke:#FF3008;stroke-width:18;stroke-linecap:round;stroke-miterlimit:10;stroke-dasharray:30,40;}
	.st3{fill:none;stroke:#FF3008;stroke-width:15.5273;stroke-linecap:round;stroke-miterlimit:10;}
	.st4{fill:none;stroke:#FF3008;stroke-width:18;stroke-linecap:round;stroke-miterlimit:10;stroke-dasharray:29.1136,38.8182;}
	.st5{fill:none;stroke:#FF3008;stroke-width:16;stroke-linecap:round;stroke-linejoin:round;}
	.st6{fill:none;stroke:#FF3008;stroke-width:18;stroke-linecap:round;stroke-miterlimit:10;stroke-dasharray:33.7034,44.9379;}
	.st7{fill:none;stroke:#FF3008;stroke-width:18;stroke-linecap:round;stroke-miterlimit:10;stroke-dasharray:26.5234,35.3646;}
	.st8{fill:#FF3008;}
	.st9{fill:none;stroke:#FF3008;stroke-width:16;stroke-linecap:round;stroke-miterlimit:10;stroke-dasharray:30,40;}
	
		.st10{fill:none;stroke:#FF3008;stroke-width:18;stroke-linecap:round;stroke-linejoin:round;stroke-miterlimit:10;stroke-dasharray:33.7034,44.9379;}
</style>
<g id="Layer_1">
</g>
<g id="Layer_2">
	<g>
		<g>
			<g>
				<path class="st0" d="M369.8,316.1v105c0,6.1-4.9,11-11,11H108.3c-6.1,0-11-4.9-11-11V86c0-6.1,4.9-11,11-11h250.5
					c6.1,0,11,4.9,11,11v98.6"/>
			</g>
		</g>
		<path class="st0" d="M266.3,388.7c-0.4,4.2,3.9,7.5,7.9,5.9c8.1-3.3,20.6-9.9,29.4-22c14.1-19.3,128.4-178.1,133.6-185.2
			c4-5.4,5.6-11.5,6.3-15.5c0.4-2.5-0.7-5-2.8-6.5l-6.5-4.8c-2.1-1.5-4.9-1.8-7.1-0.7c-3.5,1.8-8.8,5.2-12.8,10.7
			c-5.2,7.1-121.4,164.4-135.5,183.8C269.9,366.5,267.1,380.1,266.3,388.7z"/>
		<line class="st7" x1="132.5" y1="160.4" x2="335.9" y2="160.4"/>
		<line class="st0" x1="153.5" y1="204.1" x2="316.9" y2="204.1"/>
		<line class="st0" x1="394.9" y1="200.1" x2="416.9" y2="214.9"/>
		<line class="st0" x1="453.7" y1="141.9" x2="439.3" y2="162.1"/>
	</g>
</g>
</svg>
