<?xml version="1.0" encoding="utf-8"?>
<!-- Generator: Adobe Illustrator 23.0.6, SVG Export Plug-In . SVG Version: 6.00 Build 0)  -->
<svg version="1.1" xmlns="http://www.w3.org/2000/svg" xmlns:xlink="http://www.w3.org/1999/xlink" x="0px" y="0px"
	 viewBox="0 0 600 600" style="enable-background:new 0 0 600 600;" xml:space="preserve">
<style type="text/css">
	.st0{fill:none;stroke:#FF3008;stroke-width:16;stroke-linecap:round;stroke-linejoin:round;stroke-miterlimit:10;}
	.st1{fill:none;stroke:#FF3008;stroke-width:16;stroke-linecap:round;stroke-miterlimit:10;}
	.st2{fill:none;stroke:#FF3008;stroke-width:18;stroke-linecap:round;stroke-miterlimit:10;stroke-dasharray:30,40;}
	.st3{fill:none;stroke:#FF3008;stroke-width:15.5273;stroke-linecap:round;stroke-miterlimit:10;}
	.st4{fill:none;stroke:#FF3008;stroke-width:18;stroke-linecap:round;stroke-miterlimit:10;stroke-dasharray:29.1136,38.8182;}
	.st5{fill:none;stroke:#FF3008;stroke-width:16;stroke-linecap:round;stroke-linejoin:round;}
	.st6{fill:none;stroke:#FF3008;stroke-width:18;stroke-linecap:round;stroke-miterlimit:10;stroke-dasharray:33.7034,44.9379;}
	.st7{fill:none;stroke:#FF3008;stroke-width:18;stroke-linecap:round;stroke-miterlimit:10;stroke-dasharray:26.5234,35.3646;}
	.st8{fill:#FF3008;}
	.st9{fill:none;stroke:#FF3008;stroke-width:16;stroke-linecap:round;stroke-miterlimit:10;stroke-dasharray:30,40;}
	
		.st10{fill:none;stroke:#FF3008;stroke-width:18;stroke-linecap:round;stroke-linejoin:round;stroke-miterlimit:10;stroke-dasharray:33.7034,44.9379;}
	.st11{fill:none;stroke:#FF3008;stroke-width:18;stroke-linecap:round;stroke-miterlimit:10;stroke-dasharray:20,40;}
	
		.st12{fill:none;stroke:#FF3008;stroke-width:18;stroke-linecap:round;stroke-linejoin:round;stroke-miterlimit:10;stroke-dasharray:30,40;}
</style>
<g id="Layer_1">
</g>
<g id="Layer_2">
	<path class="st0" d="M99.9,334.4V171.3c0-4.9,4-8.9,8.9-8.9h197.5"/>
	<path class="st0" d="M314.3,162.4H504c4.9,0,8.9,4,8.9,8.9v269.6c0,4.9-4,8.9-8.9,8.9H108.7c-4.9,0-8.9-4-8.9-8.9V334.4"/>
	<line class="st0" x1="100.2" y1="392.5" x2="505.9" y2="392.5"/>
	<line class="st0" x1="100.2" y1="335.2" x2="505.9" y2="335.2"/>
	<line class="st0" x1="306.4" y1="279.1" x2="505.9" y2="279.1"/>
	<line class="st0" x1="306.4" y1="218" x2="505.9" y2="218"/>
	<line class="st11" x1="133.3" y1="279.1" x2="289.3" y2="279.1"/>
	<line class="st11" x1="133.3" y1="218" x2="289.3" y2="218"/>
	<line class="st0" x1="306.3" y1="162.4" x2="306.3" y2="326.9"/>
</g>
</svg>
