<svg width="310" height="240" viewBox="0 0 310 240" fill="none" xmlns="http://www.w3.org/2000/svg">
<path d="M25.1133 139.58C6.52558 88.5796 40.6901 0.655503 94.0156 24.8776C135.788 62.9199 181.059 -10.6601 219.501 27.1655C254.547 61.6492 229.934 104.254 267.421 113.322C320.221 128.344 270.971 189.317 216.395 186.666C161.821 184.015 143.629 205.664 102.808 203.897C65.496 202.282 43.7015 190.581 25.1133 139.58Z" fill="#D0ECED"/>
<path d="M114.74 72.5585C114.74 72.5585 117.883 64.4814 126.052 64.6787C134.221 64.876 141.456 72.5585 141.456 72.5585H114.74Z" fill="white"/>
<g style="mix-blend-mode:multiply">
<path d="M110.867 70.587C110.867 70.587 112.588 79.7044 117.516 80.1946C122.444 80.6849 138.211 80.4398 138.211 80.4398C138.211 80.4398 143.139 74.2818 142.888 70.8322C136.238 70.8322 110.867 70.587 110.867 70.587Z" fill="#C7C6B7"/>
</g>
<path d="M119.767 62.964C119.669 63.9206 119.955 65.5826 119.969 65.9951C119.99 66.4017 120.331 66.6827 120.931 66.6707C121.53 66.6588 123.977 66.9517 124.235 66.6588C124.493 66.3658 124.395 65.0565 124.423 64.1298C124.451 63.2031 124.395 62.8504 123.635 62.8564C122.862 62.8683 119.857 62.0672 119.767 62.964Z" fill="#E85125"/>
<path d="M128.472 63.5932C128.284 63.922 128.116 64.5138 127.977 65.1894C127.838 65.865 127.635 66.5167 128.116 66.8574C128.597 67.1922 129.81 67.4374 130.214 67.4733C130.619 67.5091 131.79 67.6706 131.964 67.0727C132.138 66.4748 132.487 65.2851 132.494 64.8247C132.508 64.3644 132.494 64.0894 131.65 63.9339C130.814 63.7785 128.597 63.3779 128.472 63.5932Z" fill="#C33D27"/>
<path d="M130.808 66.933C130.529 66.4128 130.104 65.9883 129.051 66.2574C127.992 66.5264 126.089 66.9031 125.796 67.0884C125.511 67.2737 125.964 68.5173 126.222 68.9776C126.479 69.438 126.661 70.4185 127.037 70.4723C127.413 70.5261 129.63 70.0299 130.376 69.8804C131.122 69.7309 131.874 69.8385 131.826 69.4679C131.777 69.0972 131.163 68.3917 131.115 68.0151C131.066 67.6384 130.808 66.933 130.808 66.933Z" fill="#E85125"/>
<path d="M133.166 64.583L133.256 65.987C133.256 65.987 134.21 66.1543 134.447 66.1364C134.684 66.1184 134.788 65.8078 134.865 65.5389C134.942 65.2761 134.698 64.5173 134.698 64.5173L133.166 64.583Z" fill="#85C68B"/>
<path d="M121.418 68.721L121.481 69.6907C121.481 69.6907 122.136 69.8045 122.303 69.7925C122.463 69.7805 122.54 69.565 122.589 69.3795C122.644 69.1999 122.477 68.6791 122.477 68.6791L121.418 68.721Z" fill="#85C68B"/>
<path d="M120.708 65.4565L120.771 66.4262C120.771 66.4262 121.426 66.5399 121.593 66.5279C121.76 66.516 121.83 66.3005 121.879 66.1149C121.934 65.9353 121.767 65.4146 121.767 65.4146L120.708 65.4565Z" fill="#85C68B"/>
<path d="M124.701 66.1431C125.189 66.0833 127.183 66.1252 127.183 66.1252C127.183 66.1252 127.406 67.1117 127.594 67.3688C127.782 67.6259 127.371 68.3432 127.371 68.3432L125.189 68.2237L124.701 66.1431Z" fill="#85C68B"/>
<path d="M122.325 64.2734C122.249 64.106 121.74 64.8653 121.74 64.8653C121.74 64.8653 122.318 65.5588 122.583 65.6724C122.848 65.786 123.134 65.7083 123.315 65.5289C123.496 65.3495 123.866 64.8593 123.726 64.668C123.587 64.4826 122.437 64.5125 122.325 64.2734Z" fill="#85C68B"/>
<path d="M119.098 71.3363L124.04 70.4917L124.159 70.8152L119.036 71.6239L119.098 71.3363Z" fill="#28362C"/>
<path d="M121.579 63.8933L126.521 63.0487L126.64 63.3722L121.517 64.1809L121.579 63.8933Z" fill="#28362C"/>
<path d="M127.602 69.3849L131.917 71.6806L131.652 71.9676L127.247 69.5463L127.602 69.3849Z" fill="#28362C"/>
<path d="M132.46 64.2242C132.516 64.3797 131.094 66.1015 130.836 66.3945C130.578 66.6874 129.937 67.3989 129.937 67.3989C129.937 67.3989 129.742 67.2255 129.923 67.1238C130.097 67.0222 132.028 64.577 132.132 64.4395C132.237 64.302 132.46 64.2242 132.46 64.2242Z" fill="#28362C"/>
<path fill-rule="evenodd" clip-rule="evenodd" d="M164.371 54.8742C164.386 55.9877 161.4 83.228 161.4 83.228L149.867 83.1368L147.941 54.6113L164.371 54.8742Z" fill="#FF3008"/>
<path fill-rule="evenodd" clip-rule="evenodd" d="M164.35 52.2369L165 54.6429L146.679 56.6341L146.801 54.141L164.35 52.2369Z" fill="white"/>
<path d="M149.034 35.2133L153.062 53.8769" stroke="white" stroke-width="2"/>
<path fill-rule="evenodd" clip-rule="evenodd" d="M147.342 54.7514L163.703 53.2122C163.719 53.3526 163.735 53.9107 163.745 54.7801L147.655 56.5271L147.342 54.7514Z" fill="#DA260D"/>
<path d="M109.085 86.4243L146.43 192Z" fill="#E6E5D8"/>
<path d="M109.085 86.4243L146.43 192" stroke="#C7C6B7" stroke-width="2" stroke-miterlimit="10"/>
<path d="M181.311 86.4243L131.93 206Z" fill="#E6E5D8"/>
<path d="M181.311 86.4243L131.93 206" stroke="#C7C6B7" stroke-width="2" stroke-miterlimit="10"/>
<path d="M82.3945 79.632L83.1325 85.6151C83.1325 85.6151 215.702 88.3411 214.964 86.5463C214.226 84.7492 214.964 79.9628 214.964 79.9628L82.3945 79.632Z" fill="#C7C6B7"/>
<path fill-rule="evenodd" clip-rule="evenodd" d="M197.944 58.2016C197.397 59.4918 195.068 64.5006 194.495 65.2061C194.019 65.7929 189.564 61.1315 189.564 61.1315L194.677 58.0184L197.944 58.2016Z" fill="#D4D3C8"/>
<path fill-rule="evenodd" clip-rule="evenodd" d="M168.084 58.0176C169.354 60.2297 171.352 65.2073 171.352 65.2073C171.352 65.2073 175.881 61.832 175.698 61.2805C175.518 60.727 171.169 57.8324 171.169 57.8324L168.084 58.0176Z" fill="#D4D3C8"/>
<path fill-rule="evenodd" clip-rule="evenodd" d="M171.474 64.7703C171.656 65.6921 175.102 79.5159 175.102 79.5159C175.102 79.5159 190.526 79.8864 191.071 79.5159C191.616 79.1497 194.519 64.7703 194.519 64.7703H171.474Z" fill="#E6E5D8"/>
<path fill-rule="evenodd" clip-rule="evenodd" d="M189.256 58.0178C190.348 58.2218 194.519 65.2075 194.519 65.2075C194.519 65.2075 171.802 65.8173 171.474 65.2075C171.117 64.5395 176.546 58.0761 176.546 58.0761C176.546 58.0761 188.722 57.9179 189.256 58.0178" fill="white"/>
<path d="M182.93 197L191.93 158" stroke="#E5BBB7" stroke-width="2" stroke-miterlimit="10"/>
<path d="M246.93 206L229.93 158" stroke="#E5BBB7" stroke-width="2" stroke-miterlimit="10"/>
<path d="M248.815 70.9996C245.192 62.7948 242.022 60.7436 240.513 70.9996C239.758 76.127 238.098 85.8314 234.475 107.29C230.852 128.749 213.342 141.74 204.285 143.581C195.228 145.421 168.209 155.099 174.85 156.992C181.492 158.886 203.279 159.359 213.342 159.359C219.883 159.359 233.116 161.252 245.796 149.892C261.646 135.691 253.343 81.2556 248.815 70.9996Z" fill="#B13F25"/>
<path fill-rule="evenodd" clip-rule="evenodd" d="M107.529 156.999L101.769 153.961C101.769 153.961 71.2744 154.554 65.9464 154.641C60.3481 154.733 54.3544 154.98 54.3544 154.98L50.9766 158.988L107.529 156.999Z" fill="#DAE4E7"/>
<path fill-rule="evenodd" clip-rule="evenodd" d="M107.613 156.771C99.9749 157.676 80.224 157.653 72.483 158.005C69.2117 158.153 53.4409 157.597 50.9767 158.987C49.7681 180.452 49.9955 202.23 47.013 223.628C46.9311 224.223 47.226 224.381 48.2052 224.383C67.2739 224.429 90.5481 224.498 109.609 224.864C110.631 224.883 110.748 224.3 110.67 223.686C109.277 212.568 109.291 201.574 108.527 190.289C108.115 184.211 108.332 179.418 108.146 172.085C108.101 170.358 108.035 159.674 107.613 159.597V156.771Z" fill="white"/>
<path d="M50.2269 195C51.0602 203.833 51.5269 221.8 46.7269 223C40.7269 224.5 73.7269 220 77.7269 223" stroke="#C7C6B7" stroke-width="0.75"/>
<path fill-rule="evenodd" clip-rule="evenodd" d="M90.9026 187.55C90.9395 190.072 90.1734 192.667 88.5694 194.975C86.8201 197.497 84.3743 198.769 81.3365 198.675C76.2994 198.519 72.1759 196.604 69.5314 192.039C68.5687 190.372 68.0013 188.568 68.0914 186.616C68.1405 185.565 68.4335 184.539 68.9087 183.609C70.2852 180.916 72.0141 178.49 74.548 176.781C76.4653 175.485 78.6039 175.066 80.8674 175.489C85.8901 176.425 89.9439 179.915 90.8043 185.226C90.9128 185.898 90.8575 186.566 90.9026 187.55" fill="#FF3008"/>
<path fill-rule="evenodd" clip-rule="evenodd" d="M72.7134 184.478C73.1169 185.246 73.0043 185.769 73.6577 186.401C74.3111 187.034 74.7065 187.41 75.0875 187.4C75.4726 187.39 77.8877 187.065 79.2929 187.03C80.6961 186.99 81.8452 186.959 81.9886 187.606C82.1361 188.249 82.1443 188.64 81.1262 188.796C80.1082 188.952 77.9368 188.882 77.5558 189.023C77.1789 189.163 75.7696 189.071 76.4251 189.702C77.0806 190.332 78.5411 191.924 78.9406 191.874C79.6084 191.791 82.091 191.705 82.9883 191.604C84.4836 191.433 85.6942 188.867 85.5672 187.639C85.4402 186.416 84.203 184.299 82.7957 184.208C81.3884 184.116 77.3039 184.227 76.4128 184.249C75.5177 184.272 72.7134 184.478 72.7134 184.478" fill="white"/>
<path d="M92.0546 160.686C92.0546 160.686 86.9602 128.531 76.9762 130.052C68.8214 131.295 67.7583 160.686 67.7583 160.686" stroke="white"/>
<path d="M92.8462 154.543C92.8462 154.543 87.5059 130.984 79.8981 130.707C69.8363 130.343 69.9776 154.848 69.9776 154.848" stroke="#E6E5D8"/>
</svg>
