<svg width="310" height="240" viewBox="0 0 310 240" fill="none" xmlns="http://www.w3.org/2000/svg">
<g clip-path="url(#clip0)">
<path d="M21.1061 132.211C10.5497 89.3396 40.0337 22.9747 101.537 57.3442C145.8 87.5104 183.93 40.982 235.329 36.1977C275.478 32.4607 298.706 82.5632 288.669 114.101C273.757 160.957 204.658 138.381 195.18 176.193C180.841 233.398 109.536 227.368 71.2924 204.652C50.8445 192.506 33.2424 181.497 21.1061 132.211Z" fill="#FFF0ED"/>
<path d="M109.407 137.298C106.952 138.769 93.1292 219.724 94.6023 221.03C96.0747 222.338 213.466 218.49 215.102 216.529C216.739 214.569 230.985 134.939 229.857 135.991C228.27 137.471 111.862 135.827 109.407 137.298Z" fill="#C7C6B7"/>
<mask id="path-3-inside-1" fill="white">
<path d="M170.576 159.797C168.852 159.797 166.041 160.891 164 163.013C162.797 164.264 161.378 166.388 161.449 169.406C161.532 172.958 162.495 175.744 164.233 177.459C165.761 178.969 167.857 179.663 170.466 179.52C176.574 179.187 179.357 174.561 179.357 170.405C179.357 166.637 177.55 160.163 170.777 159.802C170.711 159.798 170.645 159.797 170.576 159.797ZM169.808 180.149C167.354 180.149 165.35 179.397 163.843 177.907C161.99 176.077 160.963 173.143 160.876 169.42C160.815 166.858 161.758 164.491 163.599 162.576C165.863 160.223 168.931 159.092 170.805 159.192C178.008 159.576 179.93 166.421 179.93 170.405C179.93 174.84 176.978 179.775 170.496 180.129C170.263 180.143 170.033 180.149 169.808 180.149Z"/>
</mask>
<path d="M170.576 159.797C168.852 159.797 166.041 160.891 164 163.013C162.797 164.264 161.378 166.388 161.449 169.406C161.532 172.958 162.495 175.744 164.233 177.459C165.761 178.969 167.857 179.663 170.466 179.52C176.574 179.187 179.357 174.561 179.357 170.405C179.357 166.637 177.55 160.163 170.777 159.802C170.711 159.798 170.645 159.797 170.576 159.797ZM169.808 180.149C167.354 180.149 165.35 179.397 163.843 177.907C161.99 176.077 160.963 173.143 160.876 169.42C160.815 166.858 161.758 164.491 163.599 162.576C165.863 160.223 168.931 159.092 170.805 159.192C178.008 159.576 179.93 166.421 179.93 170.405C179.93 174.84 176.978 179.775 170.496 180.129C170.263 180.143 170.033 180.149 169.808 180.149Z" fill="white"/>
<path d="M164 163.013L168.324 167.173L168.326 167.172L164 163.013ZM161.449 169.406L155.45 169.547L155.45 169.547L161.449 169.406ZM164.233 177.459L168.451 173.191L168.447 173.187L164.233 177.459ZM170.466 179.52L170.139 173.529L170.138 173.529L170.466 179.52ZM170.777 159.802L170.441 165.792L170.449 165.793L170.457 165.793L170.777 159.802ZM163.843 177.907L168.062 173.64L168.058 173.636L163.843 177.907ZM160.876 169.42L166.874 169.28L166.874 169.278L160.876 169.42ZM163.599 162.576L159.275 158.416L159.274 158.418L163.599 162.576ZM170.805 159.192L170.485 165.184L170.486 165.184L170.805 159.192ZM170.496 180.129L170.169 174.138L170.159 174.139L170.15 174.139L170.496 180.129ZM170.576 153.797C166.984 153.797 162.673 155.737 159.675 158.855L168.326 167.172C168.767 166.713 169.339 166.324 169.911 166.062C170.189 165.934 170.419 165.858 170.576 165.818C170.75 165.774 170.747 165.797 170.576 165.797V153.797ZM159.676 158.854C157.786 160.819 155.329 164.41 155.45 169.547L167.447 169.264C167.426 168.366 167.809 167.709 168.324 167.173L159.676 158.854ZM155.45 169.547C155.554 173.949 156.755 178.51 160.019 181.73L168.447 173.187C168.234 172.978 167.511 171.968 167.447 169.264L155.45 169.547ZM160.015 181.726C163.002 184.678 166.888 185.725 170.794 185.511L170.138 173.529C168.826 173.601 168.521 173.26 168.451 173.191L160.015 181.726ZM170.793 185.511C180.659 184.973 185.357 177.137 185.357 170.405H173.357C173.357 171.208 173.076 171.986 172.63 172.511C172.277 172.926 171.612 173.449 170.139 173.529L170.793 185.511ZM185.357 170.405C185.357 167.747 184.752 164.026 182.733 160.708C180.548 157.116 176.721 154.11 171.096 153.81L170.457 165.793C171.172 165.831 171.543 166.008 171.745 166.138C171.972 166.282 172.225 166.524 172.481 166.944C173.059 167.895 173.357 169.295 173.357 170.405H185.357ZM171.113 153.811C170.898 153.799 170.712 153.797 170.576 153.797V165.797C170.576 165.797 170.562 165.797 170.54 165.796C170.518 165.796 170.484 165.795 170.441 165.792L171.113 153.811ZM169.808 174.149C168.661 174.149 168.265 173.841 168.062 173.64L159.625 182.173C162.435 184.952 166.048 186.149 169.808 186.149V174.149ZM168.058 173.636C167.711 173.294 166.94 172.115 166.874 169.28L154.877 169.561C154.985 174.17 156.268 178.861 159.629 182.177L168.058 173.636ZM166.874 169.278C166.853 168.382 167.145 167.546 167.924 166.735L159.274 158.418C156.371 161.437 154.777 165.334 154.877 169.562L166.874 169.278ZM167.923 166.736C168.465 166.173 169.131 165.735 169.762 165.457C170.071 165.321 170.324 165.245 170.493 165.208C170.68 165.167 170.671 165.194 170.485 165.184L171.125 153.201C167.187 152.99 162.504 155.061 159.275 158.416L167.923 166.736ZM170.486 165.184C171.315 165.228 171.777 165.435 172.052 165.61C172.351 165.8 172.656 166.099 172.951 166.58C173.606 167.651 173.93 169.193 173.93 170.405H185.93C185.93 167.633 185.293 163.76 183.187 160.317C180.913 156.6 176.948 153.511 171.124 153.201L170.486 165.184ZM173.93 170.405C173.93 171.357 173.6 172.286 173.061 172.925C172.616 173.452 171.818 174.048 170.169 174.138L170.823 186.121C181.09 185.56 185.93 177.385 185.93 170.405H173.93ZM170.15 174.139C170.04 174.146 169.925 174.149 169.808 174.149V186.149C170.141 186.149 170.487 186.14 170.842 186.119L170.15 174.139Z" fill="white" mask="url(#path-3-inside-1)"/>
<path d="M180.46 55.3645C183.331 52.995 262.617 51.8674 265.129 54.575C267.641 57.2815 265.129 94.0615 262.258 97.2204C260.342 99.3284 247.481 97.6579 228.981 98.3868C227.783 110.948 203.942 120.939 203.942 119.331C203.942 115.744 205.632 106.425 201.889 97.294C194.52 96.9708 186.379 96.8108 184.765 96.4309C174.717 94.0615 177.589 57.7329 180.46 55.3645Z" fill="white"/>
<path d="M209.53 74.2236C209.713 74.2236 217.686 72.0551 219.146 70.7294C220.608 69.4038 224.138 66.3915 224.564 63.0783C225.072 59.1293 224.767 58.1436 226.694 57.7766C228.277 57.4747 229.86 57.9566 230.773 60.0051C231.428 61.4767 231.32 64.8249 229.251 68.681C228.211 70.6175 228.277 71.6932 228.703 72.1151C229.129 72.537 235.52 73.1399 235.642 77.1159C235.763 81.0919 234.12 90.7315 231.807 91.5743C229.494 92.4181 220.182 92.2981 217.686 91.0934C215.19 89.8877 213.706 88.0922 212.573 87.2973C211.113 86.2736 210.184 85.7877 209.896 85.4298C209.165 84.526 209.53 74.2236 209.53 74.2236Z" fill="#F8E300"/>
<path d="M231.78 71.9003C231.482 71.9003 227.424 71.783 226.351 73.5356C225.277 75.2882 226.052 77.3917 228.14 77.6253C229.398 77.7658 233.39 77.0989 234.405 76.9826C235.419 76.8663 237.627 76.6317 237.925 74.9964C238.224 73.3611 237.567 72.0176 236.194 71.8422C234.823 71.6667 231.78 71.9003 231.78 71.9003Z" fill="#FAF424"/>
<path d="M226.729 78.4639C225.696 79.2427 225.452 81.3416 226.789 82.1204C227.501 82.5352 229.585 82.6596 231.226 82.7192C232.866 82.7799 236.512 82.585 237.607 82.1801C239.109 81.6251 239.42 79.8873 238.995 78.9284C238.569 77.9685 238.275 77.1449 235.541 77.2653C232.806 77.3846 227.859 77.6114 226.729 78.4639Z" fill="#FAF424"/>
<path d="M225.788 83.9812C225.199 84.8376 225.418 86.2254 226.714 86.8322C228.01 87.4381 230.788 87.2559 232.702 87.3777C234.615 87.4985 237.331 87.4381 237.887 86.5283C238.442 85.6186 238.556 84.3516 238.124 83.6844C237.692 83.0171 236.282 82.3439 233.257 82.4043C230.232 82.4657 227.331 81.7381 225.788 83.9812Z" fill="#FAF424"/>
<path d="M225.825 88.6658C225.334 89.6708 225.32 90.1805 226.073 90.9604C226.853 91.768 227.799 91.8792 229.36 92.0526C230.921 92.225 233.612 92.0631 234.875 91.5227C235.889 91.0897 236.325 90.2629 235.845 89.2808C235.364 88.2998 233.563 87.3177 230.621 87.4337C227.678 87.5486 226.305 87.6847 225.825 88.6658Z" fill="#FAF424"/>
<path d="M135.252 75.3164V66.0959C139.015 67.6013 164.23 63.8378 161.031 44.2677C157.832 24.6975 147.483 27.7083 141.838 26.0147C137.321 24.6599 90.7797 24.9484 68.0733 25.262C45.0408 25.262 40.9135 40.4414 41.7289 48.0311C43.5354 64.4399 60.0446 67.2876 68.0733 66.6604H124.337L135.252 75.3164Z" fill="#FF5E3C"/>
<path d="M133.37 78.3272V69.1066C137.133 70.612 162.349 66.8485 159.15 47.2784C155.951 27.7083 145.601 30.7191 139.956 29.0255C135.44 27.6706 88.8979 27.9592 66.1915 28.2728C43.159 28.2728 39.0317 43.4522 39.8471 51.0419C41.6536 67.4507 58.1627 70.2984 66.1915 69.6711H122.456L133.37 78.3272Z" stroke="white"/>
<path d="M105.192 39.3009L105.194 39.8464L57.0668 40.0389L57.0647 39.4935L105.192 39.3009Z" fill="white"/>
<path d="M59.3262 45.6071L124.297 45.9824L124.294 46.4913L59.3233 46.116L59.3262 45.6071Z" fill="white"/>
<path d="M61.5819 53.2262H115.023V52.4735H61.5819V53.2262Z" fill="white"/>
</g>
<defs>
<clipPath id="clip0">
<rect width="310" height="240" fill="white"/>
</clipPath>
</defs>
</svg>
