<svg width="310" height="240" viewBox="0 0 310 240" fill="none" xmlns="http://www.w3.org/2000/svg">
<g clip-path="url(#clip0)">
<path d="M44.8989 168.787C6.63502 129.059 31.7141 60.0125 93.0232 60.0125C117.724 71.3092 170.12 2.9186 207.732 52.7608C230.748 83.2619 239.752 102.646 288.819 94.9522C332.045 88.1742 283.549 176.336 190.921 209.661C149.682 229.814 58.0836 197.465 44.8989 168.787Z" fill="#EBC804" fill-opacity="0.3"/>
<path d="M166.302 90.8819C166.302 90.8819 162.251 63.6323 185.258 51.1223C208.265 38.6124 240.524 48.1927 240.524 48.1927L166.302 90.8819Z" fill="white"/>
<path d="M152.426 91.6481C152.426 91.6481 171.639 113.987 186.105 107.462C200.571 100.937 243.984 75.0696 243.984 75.0696C243.984 75.0696 247.928 50.2499 241.771 41.158C223.298 51.783 152.426 91.6481 152.426 91.6481Z" fill="#B13F25"/>
<path d="M165.084 56.441C166.326 59.2292 169.751 63.3463 170.443 64.4592C171.144 65.5445 172.538 65.7721 174.184 64.7813C175.83 63.7906 183.091 60.6877 183.344 59.4694C183.596 58.2512 181.253 54.8041 179.864 52.2095C178.475 49.6148 177.761 48.7332 175.66 49.9637C173.53 51.2328 163.916 53.8284 165.084 56.441Z" fill="#E85125"/>
<path d="M185.392 16.2674C183.586 17.1767 180.969 19.571 180.254 20.0633C179.558 20.5613 179.451 21.4905 180.158 22.5489C180.865 23.6072 183.144 28.3142 183.958 28.4435C184.772 28.5727 186.98 26.9147 188.653 25.9146C190.327 24.9145 190.888 24.4151 190.008 23.0633C189.102 21.6932 187.085 15.4133 185.392 16.2674Z" fill="#E85125"/>
<path d="M190.262 44.2579C190.26 45.4635 190.732 47.3595 191.414 49.4413C192.096 51.5232 192.565 53.6394 194.441 53.8087C196.307 53.9615 200.064 52.6982 201.244 52.151C202.424 51.6037 205.933 50.1769 205.47 48.2532C205.008 46.3296 204.093 42.4988 203.384 41.2208C202.694 39.9318 202.22 39.1972 199.631 40.1171C197.062 41.0258 190.27 43.4652 190.262 44.2579Z" fill="#C33D27"/>
<path d="M202.028 49.7255C200.43 48.7396 198.577 48.2509 196.079 50.6729C193.561 53.1062 188.871 57.1831 188.351 58.1609C187.851 59.1276 191.078 61.8256 192.523 62.6804C193.968 63.5351 196.023 65.9437 197.154 65.4903C198.285 65.037 203.657 60.1298 205.492 58.5268C207.328 56.9238 209.589 56.0171 208.867 55.0751C208.145 54.133 205.324 53.1717 204.593 52.2132C203.861 51.2547 202.028 49.7255 202.028 49.7255Z" fill="#E85125"/>
<path d="M204.856 39.4967L207.331 43.2181C207.331 43.2181 210.249 42.153 210.879 41.725C211.509 41.297 211.308 40.2744 211.095 39.4115C210.891 38.5651 209.012 36.8656 209.012 36.8656L204.856 39.4967Z" fill="#85C68B"/>
<path d="M178.779 69.6525L180.486 72.2175C180.486 72.2175 182.486 71.4833 182.932 71.1831C183.358 70.894 183.231 70.1792 183.073 69.5912C182.944 69.0086 181.656 67.8445 181.656 67.8445L178.779 69.6525Z" fill="#85C68B"/>
<path d="M181.025 37.7258L186.243 41.2743C186.243 41.2743 189.47 38.3381 190.084 37.4246C190.67 36.5471 189.877 35.2897 189.123 34.296C188.429 33.2902 185.087 32.0758 185.087 32.0758L181.025 37.7258Z" fill="#85C68B"/>
<path d="M171.641 61.7966L173.348 64.3616C173.348 64.3616 175.348 63.6272 175.794 63.327C176.239 63.0268 176.092 62.3232 175.935 61.7352C175.806 61.1525 174.518 59.9885 174.518 59.9885L171.641 61.7966Z" fill="#85C68B"/>
<path d="M183.823 57.3126C185.083 56.3685 190.688 53.2985 190.688 53.2985C190.688 53.2985 192.869 55.6567 193.798 56.0634C194.728 56.4702 194.721 59.1014 194.721 59.1014L188.471 62.2584L183.823 57.3126Z" fill="#85C68B"/>
<path d="M174.265 55.9649C173.787 55.6268 173.575 58.5293 173.575 58.5293C173.575 58.5293 176.28 59.5133 177.196 59.4027C178.111 59.292 178.782 58.6215 179.002 57.8384C179.221 57.0553 179.472 55.1159 178.782 54.8122C178.101 54.525 174.953 56.4448 174.265 55.9649Z" fill="#85C68B"/>
<path d="M176.469 80.5476L188.864 70.3316L189.704 71.0306L176.749 81.4376L176.469 80.5476Z" fill="#28362C"/>
<path d="M171.582 56.0949L183.976 45.8788L184.817 46.5779L171.862 56.9848L171.582 56.0949Z" fill="#28362C"/>
<path d="M197.974 25.8493L205.916 25.1321L206.064 25.654L197.839 26.2925L197.974 25.8493Z" fill="#28362C"/>
<path d="M197 61.597L212.62 61.0206L212.338 62.2335L196.268 62.6092L197 61.597Z" fill="#28362C"/>
<path d="M202.338 39.633C202.739 39.9717 201.514 46.9819 201.261 48.2001C201.008 49.4184 200.353 52.4008 200.353 52.4008C200.353 52.4008 199.536 52.2355 199.879 51.6662C200.202 51.1081 201.695 41.2942 201.768 40.7487C201.841 40.2033 202.338 39.633 202.338 39.633Z" fill="#28362C"/>
<path d="M106.813 162.281C106.813 162.281 105.486 139.756 81.4975 130.24C57.5111 120.727 28.9861 129.671 28.9861 129.671L106.813 162.281Z" fill="white"/>
<path d="M78.9048 129.946C78.122 128.619 74.3529 123.663 74.3529 123.663C74.3529 123.663 71.9654 124.669 71.1041 124.603C70.2421 124.539 69.5652 126.715 69.5652 126.715L73.8365 132.024L78.9048 129.946Z" fill="#78BB7F"/>
<path d="M90.4864 108.715C91.8564 108.01 97.0191 104.53 97.0191 104.53C97.0191 104.53 96.1511 102.089 96.2664 101.233C96.3801 100.376 94.2461 99.5755 94.2461 99.5755L88.7013 103.536L90.4864 108.715Z" fill="#78BB7F"/>
<path d="M101.426 143.898C101.982 143.777 101.512 145.934 101.512 145.934C101.512 145.934 98.5968 145.936 97.7253 145.606C96.8519 145.271 96.3242 144.631 96.2772 143.996C96.2305 143.365 96.4532 141.912 97.1896 141.881C97.9306 141.838 100.633 144.064 101.426 143.898Z" fill="#78BB7F"/>
<path d="M74.8566 115.469C73.8516 115.782 74.3657 111.726 74.3657 111.726C74.3657 111.726 79.7432 111.247 81.4048 111.715C83.0706 112.19 84.1484 113.284 84.3388 114.448C84.528 115.605 84.3543 118.32 83.001 118.499C81.6412 118.699 76.2919 115.033 74.8566 115.469Z" fill="#DD1E07"/>
<path d="M71.7786 128.531C70.9233 126.672 70.3338 124.662 69.614 122.726C69.4966 122.394 69.3603 122.054 69.1203 121.82C68.5725 121.285 68.0126 120.51 67.2809 120.81C66.2608 121.231 66.409 121.371 66.3932 121.871C66.3808 122.342 66.3791 122.791 66.2456 123.255C66.1191 123.676 65.6339 123.904 65.2377 123.849C64.8377 123.794 64.5088 123.521 64.2201 123.232C63.3011 122.326 62.6057 121.165 62.1968 119.889C61.8949 118.961 61.7495 117.963 61.3626 117.089C61.0008 116.259 60.352 115.503 59.5064 115.339C59.4004 115.319 59.2989 115.367 59.2327 115.45C58.8097 116.019 58.7573 116.809 58.8412 117.513C58.9349 118.272 59.1609 119.011 59.0936 119.784C59.0263 120.557 58.5557 121.412 57.8339 121.539C57.3007 121.63 56.8233 121.328 56.3608 121.079C54.8513 120.265 53.1247 119.991 51.4274 119.722C51.0023 119.657 50.5166 119.613 50.2109 120.025C50.0274 120.265 49.9907 120.599 50.0688 120.88C50.2361 121.459 50.7246 121.743 51.195 121.996C53.002 122.955 55.0412 123.809 56.1112 125.602C56.178 125.711 56.1225 125.865 56.0086 125.921C54.938 126.409 53.9253 127.059 53.0169 127.852C52.8075 128.034 52.6555 128.3 52.6298 128.581C52.5645 129.108 52.9124 129.287 53.2384 129.412C56.0593 130.481 59.3138 128.876 62.3493 129.019C62.7524 129.04 63.1019 129.312 63.2089 129.718C63.3355 130.178 63.0417 130.482 62.7787 130.744C62.137 131.39 61.4884 132.034 60.8467 132.68C60.7877 132.746 60.7906 132.836 60.8494 132.894C61.7112 133.684 63.103 133.479 64.2708 133.12C65.4938 132.754 66.8503 132.315 67.9136 132.942C67.9011 132.95 76.3655 138.494 71.7786 128.531Z" fill="#63796D"/>
<path d="M109.499 90.9354C109.765 89.4928 110.25 88.0724 110.627 86.641C110.696 86.3978 110.757 86.1422 110.713 85.9061C110.613 85.3665 110.605 84.6812 110.052 84.5551C109.281 84.3801 109.31 84.5233 109.094 84.81C108.892 85.0804 108.706 85.3429 108.436 85.5596C108.188 85.754 107.81 85.6871 107.6 85.4913C107.389 85.2941 107.309 84.9984 107.259 84.7097C107.094 83.7999 107.167 82.8324 107.454 81.9158C107.66 81.2475 107.987 80.6031 108.122 79.9309C108.252 79.2958 108.184 78.5845 107.757 78.1395C107.703 78.0838 107.624 78.0701 107.55 78.0916C107.068 78.2501 106.711 78.6916 106.469 79.1383C106.211 79.6218 106.038 80.1479 105.679 80.5731C105.321 80.9983 104.692 81.3044 104.217 81.0808C103.867 80.9141 103.712 80.5401 103.544 80.203C102.996 79.1029 102.097 78.2296 101.214 77.3713C100.992 77.1575 100.725 76.931 100.376 77.0463C100.17 77.1109 100.01 77.2917 99.9398 77.4884C99.7987 77.8968 99.9674 78.2651 100.139 78.6073C100.801 79.9152 101.643 81.2578 101.53 82.7496C101.524 82.8413 101.428 82.9088 101.338 82.8946C100.509 82.7383 99.6477 82.7005 98.7881 82.7899C98.5901 82.8103 98.3913 82.9033 98.2599 83.0577C98.0044 83.3389 98.1342 83.5875 98.2734 83.7956C99.4845 85.5868 102.054 85.9903 103.773 87.3274C104.001 87.506 104.093 87.8098 103.988 88.0917C103.872 88.4137 103.575 88.4707 103.312 88.5155C102.67 88.6287 102.024 88.7384 101.381 88.8516C101.319 88.8658 101.284 88.9198 101.294 88.978C101.473 89.797 102.373 90.2514 103.205 90.5237C104.073 90.8138 105.049 91.1171 105.413 91.9234C105.402 91.9228 108.072 98.6658 109.499 90.9354Z" fill="#63796D"/>
<path d="M93.6016 144.538C92.7463 142.678 92.1568 140.669 91.437 138.733C91.3196 138.4 91.1833 138.06 90.9433 137.826C90.3955 137.291 89.8356 136.516 89.1039 136.817C88.0838 137.237 88.232 137.377 88.2162 137.878C88.2038 138.348 88.2021 138.797 88.0686 139.261C87.9421 139.682 87.4569 139.91 87.0607 139.855C86.6607 139.8 86.3318 139.528 86.0431 139.238C85.1241 138.333 84.4287 137.172 84.0198 135.895C83.7179 134.967 83.5725 133.97 83.1856 133.095C82.8238 132.266 82.175 131.509 81.3294 131.345C81.2234 131.325 81.1219 131.373 81.0557 131.457C80.6327 132.025 80.5803 132.816 80.6642 133.519C80.7579 134.279 80.9839 135.017 80.9166 135.791C80.8493 136.564 80.3787 137.418 79.6569 137.545C79.1237 137.636 78.6463 137.335 78.1838 137.085C76.6743 136.271 74.9477 135.998 73.2504 135.729C72.8253 135.664 72.3396 135.619 72.0339 136.032C71.8504 136.271 71.8137 136.606 71.8918 136.887C72.0591 137.466 72.5476 137.75 73.018 138.003C74.825 138.961 76.8642 139.816 77.9342 141.608C78.001 141.718 77.9455 141.872 77.8316 141.928C76.761 142.416 75.7483 143.065 74.8399 143.858C74.6305 144.04 74.4785 144.306 74.4528 144.588C74.3875 145.114 74.7354 145.293 75.0614 145.419C77.8823 146.488 81.1368 144.882 84.1723 145.025C84.5754 145.046 84.9249 145.318 85.0319 145.724C85.1585 146.184 84.8647 146.489 84.6017 146.751C83.96 147.396 83.3114 148.041 82.6697 148.686C82.6107 148.752 82.6136 148.842 82.6724 148.9C83.5342 149.691 84.926 149.485 86.0938 149.127C87.3168 148.76 88.6733 148.322 89.7366 148.949C89.7241 148.956 98.1885 154.5 93.6016 144.538Z" fill="#63796D"/>
<path d="M119.702 152.99C120.152 150.993 120.903 149.039 121.507 147.063C121.615 146.728 121.714 146.375 121.665 146.043C121.555 145.286 121.58 144.33 120.817 144.124C119.751 143.839 119.784 144.04 119.467 144.428C119.172 144.794 118.898 145.15 118.51 145.438C118.154 145.696 117.63 145.582 117.348 145.298C117.064 145.012 116.968 144.595 116.914 144.19C116.734 142.912 116.886 141.567 117.337 140.305C117.66 139.384 118.15 138.504 118.374 137.574C118.59 136.695 118.534 135.7 117.962 135.056C117.89 134.976 117.78 134.953 117.677 134.979C116.995 135.174 116.474 135.77 116.113 136.38C115.726 137.04 115.457 137.764 114.934 138.338C114.411 138.911 113.519 139.304 112.868 138.967C112.389 138.716 112.193 138.186 111.977 137.707C111.272 136.144 110.066 134.878 108.881 133.634C108.583 133.324 108.224 132.994 107.73 133.136C107.439 133.215 107.207 133.458 107.098 133.729C106.88 134.29 107.095 134.813 107.316 135.299C108.169 137.158 109.27 139.075 109.032 141.149C109.019 141.277 108.881 141.366 108.757 141.341C107.61 141.078 106.411 140.979 105.208 141.058C104.931 141.076 104.648 141.195 104.457 141.403C104.086 141.781 104.253 142.135 104.436 142.432C106.028 144.995 109.589 145.695 111.914 147.652C112.222 147.913 112.334 148.342 112.173 148.729C111.994 149.172 111.575 149.235 111.208 149.284C110.306 149.407 109.399 149.525 108.497 149.648C108.41 149.665 108.358 149.738 108.369 149.82C108.574 150.971 109.805 151.653 110.95 152.078C112.145 152.529 113.489 153.004 113.953 154.148C113.938 154.146 117.297 163.691 119.702 152.99Z" fill="#78BB7F"/>
<path d="M32.0122 120.313C33.1936 118.642 34.1411 116.775 35.2033 115.003C35.3796 114.698 35.5759 114.388 35.8546 114.202C36.4912 113.777 37.1835 113.117 37.8478 113.547C38.7737 114.147 38.6023 114.257 38.5262 114.752C38.4523 115.217 38.3717 115.659 38.4179 116.139C38.4652 116.576 38.9004 116.889 39.3 116.908C39.7033 116.927 40.0766 116.719 40.4134 116.488C41.4827 115.766 42.379 114.752 43.0147 113.572C43.4815 112.715 43.807 111.761 44.3477 110.972C44.8552 110.223 45.6316 109.598 46.4929 109.592C46.6008 109.591 46.6917 109.657 46.7416 109.751C47.0533 110.388 46.96 111.175 46.7487 111.851C46.5176 112.58 46.1601 113.265 46.0846 114.037C46.0091 114.81 46.3153 115.736 47.0016 115.993C47.5091 116.18 48.0337 115.971 48.5341 115.811C50.1671 115.287 51.9146 115.334 53.6324 115.381C54.0623 115.394 54.5478 115.44 54.7729 115.901C54.9094 116.17 54.8843 116.506 54.7561 116.768C54.4855 117.306 53.9532 117.496 53.4445 117.658C51.4924 118.27 49.3313 118.737 47.9511 120.303C47.8654 120.398 47.8917 120.56 47.9934 120.636C48.9566 121.312 49.8332 122.135 50.581 123.081C50.7535 123.299 50.8542 123.588 50.8279 123.87C50.7958 124.399 50.421 124.511 50.0775 124.575C47.1084 125.109 44.203 122.935 41.1927 122.519C40.7926 122.466 40.3992 122.67 40.2197 123.049C40.0109 123.478 40.2439 123.832 40.4545 124.137C40.9671 124.889 41.4868 125.642 41.9994 126.394C42.0454 126.469 42.026 126.557 41.9576 126.604C40.9656 127.223 39.6349 126.766 38.5525 126.2C37.4174 125.615 36.1642 124.936 35.004 125.357C35.0149 125.367 25.6783 129.267 32.0122 120.313Z" fill="#3D5749"/>
<path d="M57.3413 91.4572C58.8822 89.2772 60.1179 86.8419 61.5033 84.5315C61.7333 84.1333 61.9893 83.7295 62.3529 83.487C63.1831 82.9319 64.0861 82.0719 64.9525 82.632C66.1601 83.4146 65.9366 83.5585 65.8373 84.2041C65.7409 84.8103 65.6358 85.3865 65.6961 86.0136C65.7578 86.5834 66.3255 86.9917 66.8466 87.0158C67.3726 87.0412 67.8594 86.7699 68.2988 86.4677C69.6934 85.5266 70.8624 84.2036 71.6916 82.6647C72.3004 81.547 72.725 80.3027 73.4301 79.2735C74.0921 78.2969 75.1047 77.4815 76.2281 77.4736C76.3688 77.4728 76.4874 77.5589 76.5525 77.6815C76.959 78.5117 76.8374 79.538 76.5618 80.4198C76.2603 81.371 75.794 82.2643 75.6956 83.2719C75.5972 84.2795 75.9965 85.4871 76.8916 85.8224C77.5535 86.0668 78.2378 85.7938 78.8904 85.5846C81.0203 84.9015 83.2996 84.9631 85.54 85.0238C86.1007 85.0417 86.734 85.1009 87.0276 85.7027C87.2056 86.0538 87.1728 86.4914 87.0056 86.8328C86.6527 87.5354 85.9584 87.7832 85.295 87.9947C82.7489 88.7926 79.9302 89.4011 78.13 91.4434C78.0182 91.5678 78.0525 91.7791 78.1852 91.878C79.4414 92.7595 80.5847 93.8338 81.5602 95.0675C81.7851 95.3515 81.9165 95.7286 81.8822 96.0959C81.8402 96.786 81.3514 96.9326 80.9034 97.0156C77.031 97.7126 73.2414 94.8769 69.3152 94.3349C68.7933 94.2653 68.2802 94.531 68.0461 95.0257C67.7738 95.5856 68.0777 96.0462 68.3524 96.4448C69.021 97.4257 69.6988 98.407 70.3673 99.3879C70.4273 99.4866 70.4021 99.6014 70.3128 99.6617C69.0189 100.469 67.2835 99.8737 65.8717 99.1352C64.3912 98.3728 62.7566 97.4864 61.2434 98.0363C61.2576 98.0492 49.0801 103.136 57.3413 91.4572Z" fill="#3D5749"/>
<path d="M36.1821 125.332C37.3635 123.66 38.311 121.793 39.3732 120.022C39.5495 119.716 39.7458 119.407 40.0246 119.221C40.6611 118.795 41.3534 118.136 42.0177 118.565C42.9436 119.165 42.7723 119.276 42.6961 119.771C42.6222 120.235 42.5416 120.677 42.5879 121.158C42.6351 121.595 43.0704 121.908 43.4699 121.926C43.8732 121.946 44.2465 121.738 44.5833 121.506C45.6526 120.785 46.5489 119.77 47.1847 118.59C47.6514 117.733 47.977 116.779 48.5176 115.99C49.0251 115.242 49.8015 114.616 50.6628 114.61C50.7707 114.61 50.8616 114.676 50.9115 114.77C51.2232 115.406 51.1299 116.193 50.9186 116.869C50.6875 117.599 50.33 118.283 50.2545 119.056C50.1791 119.828 50.4852 120.754 51.1715 121.011C51.679 121.199 52.2036 120.989 52.704 120.829C54.337 120.305 56.0846 120.353 57.8023 120.399C58.2322 120.413 58.7178 120.458 58.9428 120.92C59.0794 121.189 59.0542 121.524 58.926 121.786C58.6554 122.325 58.1231 122.515 57.6144 122.677C55.6624 123.289 53.5012 123.755 52.121 125.321C52.0353 125.417 52.0616 125.578 52.1633 125.654C53.1265 126.33 54.0031 127.154 54.7509 128.1C54.9234 128.317 55.0242 128.607 54.9978 128.888C54.9657 129.417 54.5909 129.53 54.2474 129.593C51.2784 130.128 48.3729 127.954 45.3626 127.538C44.9625 127.485 44.5691 127.688 44.3896 128.068C44.1808 128.497 44.4139 128.85 44.6245 129.156C45.1371 129.908 45.6567 130.66 46.1693 131.412C46.2153 131.488 46.1959 131.576 46.1275 131.622C45.1355 132.241 43.8049 131.785 42.7225 131.218C41.5873 130.634 40.3341 129.954 39.1739 130.376C39.1848 130.386 29.8482 134.286 36.1821 125.332Z" fill="#78BB7F"/>
<path d="M72.2909 141.643C74.4636 142.055 76.5733 142.856 78.5956 143.72C80.3548 144.475 82.223 145.447 84.1378 145.655C84.6486 145.71 85.1798 145.716 85.6036 145.472C86.0585 145.201 86.2863 144.684 86.3978 144.175C86.4367 144.012 86.4688 143.839 86.4207 143.667C86.3303 143.327 85.9731 143.122 85.6499 142.959C83.9364 142.098 79.4674 139.841 83.6549 138.808C86.5283 138.103 89.7521 141.768 92.5639 142.409C93.0516 142.519 93.5764 142.589 94.0149 142.406C94.8664 142.058 95.0482 140.901 94.6155 140.087C94.1785 139.274 93.3187 138.735 92.4716 138.306C91.4745 137.803 89.1693 136.865 89.2818 135.538C89.3672 134.519 91.5022 133.748 92.3057 133.39C93.359 132.917 94.4106 132.453 95.4521 131.986C96.0079 131.739 96.6096 131.436 96.8 130.885C96.9772 130.365 96.7 129.753 96.2542 129.375C95.8049 129.002 95.2145 128.828 94.6268 128.741C93.5799 128.595 92.5068 128.71 91.5434 129.087C90.6667 129.425 89.9 129.981 89.0325 130.342C88.1735 130.717 87.1248 130.888 86.2511 130.474C86.3523 129.774 86.7908 129.186 87.1145 128.559C87.4375 127.933 87.6565 127.168 87.3037 126.521C86.7724 125.554 85.2331 125.503 84.3526 126.141C83.4738 126.771 83.0739 127.826 82.6381 128.792C81.9142 130.4 81.1491 132.751 79.4036 133.602C76.7208 134.914 78.3639 130.917 77.3765 129.937C76.9493 129.516 76.2189 129.791 75.7464 130.13C73.8251 131.546 73.7285 134.8 71.3209 135.618C71.3157 135.587 61.7666 139.661 72.2909 141.643Z" fill="#3D5749"/>
<path d="M58.6125 127.446C54.6824 130.085 51.3531 133.064 51.5137 134.172C51.6721 135.281 54.1624 137.78 55.9884 139.379C57.815 140.977 60.7546 139.919 62.0574 138.798C63.3579 137.678 68.3023 131.835 68.4225 131.051C68.5419 130.269 64.1821 126.776 62.543 126.715C60.9047 126.652 58.6125 127.446 58.6125 127.446Z" fill="#DD1E07"/>
<path d="M12.0762 115.438L125.169 162.825L124.602 164.177C122.664 168.803 117.467 171.034 112.997 169.161L16.0958 128.559C11.6242 126.685 9.57129 121.416 11.5095 116.791L12.0762 115.438Z" fill="#C7C6B7"/>
<path d="M203.084 152.115C205.023 150.204 206.666 148.024 208.458 145.973C208.756 145.618 209.084 145.264 209.505 145.066C210.463 144.624 211.542 143.897 212.39 144.512C213.57 145.369 213.314 145.483 213.119 146.084C212.934 146.646 212.746 147.182 212.724 147.78C212.71 148.325 213.262 148.763 213.817 148.839C214.373 148.914 214.926 148.704 215.436 148.459C217.047 147.706 218.473 146.57 219.567 145.195C220.366 144.199 220.99 143.063 221.878 142.161C222.715 141.301 223.906 140.63 225.105 140.731C225.253 140.744 225.368 140.835 225.421 140.96C225.742 141.783 225.475 142.74 225.059 143.544C224.61 144.417 223.993 145.215 223.752 146.158C223.51 147.099 223.772 148.277 224.681 148.68C225.35 148.977 226.12 148.786 226.841 148.651C229.205 148.212 231.625 148.494 234.003 148.765C234.598 148.836 235.264 148.951 235.497 149.551C235.638 149.9 235.545 150.31 235.321 150.616C234.848 151.244 234.076 151.411 233.34 151.547C230.517 152.057 227.433 152.359 225.239 154.114C225.102 154.218 225.109 154.423 225.238 154.528C226.454 155.483 227.528 156.607 228.399 157.867C228.601 158.158 228.691 158.524 228.604 158.869C228.467 159.518 227.928 159.61 227.437 159.644C223.215 159.929 219.562 156.882 215.452 155.989C214.907 155.875 214.324 156.076 214.006 156.52C213.641 157.021 213.901 157.488 214.141 157.891C214.719 158.883 215.311 159.872 215.888 160.865C215.938 160.963 215.896 161.071 215.793 161.119C214.305 161.758 212.536 161.025 211.131 160.191C209.657 159.325 208.037 158.334 206.349 158.705C206.363 158.717 192.699 162.344 203.084 152.115Z" fill="#63796D"/>
<path d="M203.51 167.005C200.426 166.633 197.266 166.827 194.197 167.153C191.53 167.439 188.626 167.978 185.97 167.436C185.263 167.29 184.547 167.067 184.077 166.541C183.575 165.967 183.483 165.149 183.54 164.394C183.555 164.149 183.582 163.894 183.717 163.677C183.977 163.245 184.539 163.113 185.042 163.026C187.693 162.576 194.613 161.376 189.414 158.123C185.848 155.89 180.02 159.589 175.985 159.258C175.286 159.2 174.555 159.068 174.039 158.622C173.039 157.766 173.266 156.079 174.182 155.138C175.097 154.196 176.473 153.82 177.786 153.59C179.33 153.324 182.806 153.022 183.196 151.126C183.498 149.674 180.947 147.673 180.015 146.823C178.793 145.709 177.573 144.608 176.367 143.506C175.721 142.92 175.039 142.238 175.008 141.388C174.982 140.589 175.604 139.854 176.358 139.526C177.11 139.199 177.975 139.216 178.8 139.35C180.263 139.602 181.66 140.228 182.798 141.172C183.836 142.025 184.637 143.128 185.653 144.009C186.656 144.901 187.994 145.597 189.334 145.402C189.483 144.383 189.136 143.375 188.958 142.363C188.781 141.349 188.798 140.191 189.536 139.444C190.644 138.331 192.73 138.929 193.653 140.199C194.573 141.457 194.681 143.099 194.871 144.632C195.186 147.183 195.252 150.787 197.246 152.727C200.313 155.721 199.739 149.445 201.465 148.513C202.211 148.11 203.078 148.813 203.575 149.489C205.577 152.294 204.375 156.862 207.27 159.045C207.293 159.004 218.446 168.823 203.51 167.005Z" fill="#3D5749"/>
<path d="M251.208 147.405C253.146 145.495 254.791 143.314 256.581 141.264C256.88 140.909 257.207 140.555 257.628 140.357C258.588 139.915 259.666 139.187 260.515 139.803C261.694 140.659 261.438 140.774 261.244 141.375C261.058 141.936 260.87 142.473 260.848 143.071C260.835 143.615 261.385 144.053 261.94 144.129C262.496 144.204 263.05 143.994 263.561 143.749C265.171 142.997 266.597 141.861 267.691 140.485C268.489 139.489 269.114 138.353 270.001 137.452C270.839 136.592 272.029 135.92 273.23 136.022C273.378 136.035 273.493 136.125 273.545 136.25C273.866 137.073 273.6 138.031 273.184 138.835C272.735 139.708 272.118 140.506 271.875 141.448C271.633 142.39 271.897 143.568 272.804 143.971C273.475 144.268 274.244 144.076 274.967 143.941C277.328 143.503 279.749 143.784 282.128 144.055C282.723 144.126 283.388 144.242 283.621 144.841C283.762 145.19 283.669 145.6 283.445 145.907C282.971 146.535 282.199 146.701 281.465 146.838C278.641 147.347 275.556 147.649 273.363 149.404C273.226 149.508 273.232 149.714 273.363 149.818C274.579 150.774 275.652 151.898 276.523 153.158C276.725 153.449 276.815 153.815 276.728 154.159C276.59 154.808 276.051 154.901 275.56 154.934C271.339 155.219 267.685 152.172 263.576 151.28C263.03 151.166 262.449 151.366 262.132 151.81C261.766 152.311 262.024 152.779 262.266 153.181C262.843 154.173 263.435 155.162 264.013 156.155C264.063 156.253 264.019 156.362 263.918 156.41C262.429 157.049 260.661 156.316 259.257 155.481C257.78 154.616 256.16 153.625 254.473 153.995C254.487 154.007 240.822 157.635 251.208 147.405Z" fill="#63796D"/>
<path d="M251.664 162.293C248.578 161.921 245.419 162.115 242.35 162.441C239.683 162.727 236.779 163.266 234.123 162.724C233.415 162.578 232.699 162.355 232.23 161.829C231.729 161.256 231.637 160.438 231.693 159.682C231.709 159.437 231.735 159.182 231.871 158.966C232.129 158.532 232.691 158.401 233.194 158.314C235.846 157.865 242.766 156.664 237.568 153.411C234.001 151.179 228.174 154.877 224.138 154.546C223.439 154.488 222.707 154.357 222.193 153.91C221.192 153.054 221.421 151.366 222.335 150.426C223.251 149.484 224.626 149.108 225.939 148.878C227.483 148.612 230.958 148.31 231.348 146.415C231.651 144.962 229.102 142.961 228.168 142.112C226.947 140.997 225.726 139.896 224.52 138.794C223.874 138.208 223.192 137.526 223.162 136.677C223.136 135.877 223.757 135.142 224.51 134.814C225.263 134.486 226.129 134.504 226.952 134.639C228.416 134.89 229.812 135.516 230.95 136.46C231.99 137.313 232.792 138.416 233.805 139.296C234.809 140.19 236.146 140.886 237.487 140.69C237.636 139.671 237.289 138.663 237.111 137.65C236.934 136.637 236.951 135.479 237.689 134.732C238.797 133.62 240.884 134.217 241.805 135.488C242.728 136.745 242.835 138.387 243.024 139.921C243.34 142.471 243.404 146.075 245.4 148.016C248.466 151.009 247.892 144.733 249.618 143.801C250.363 143.398 251.231 144.102 251.728 144.777C253.73 147.582 252.528 152.15 255.424 154.333C255.446 154.293 266.599 164.111 251.664 162.293Z" fill="#3D5749"/>
<path d="M166.105 162.452C165.998 165.354 183.997 192.201 186.017 193.103C188.211 194.081 270.678 185.245 272.356 184.654C274.032 184.062 283.032 165.244 283.032 165.244C285.55 162.576 286.931 151.909 286.807 150.64C286.683 149.372 166.105 162.452 166.105 162.452Z" fill="#E6E5D8"/>
<path d="M158.251 159.578C157.552 160.417 157.898 162.615 159.484 163.314C161.07 164.013 209.761 158.607 217.943 158.02C226.126 157.434 291.32 150.9 291.902 150.202C292.484 149.505 295.271 147.174 294.186 146.059C293.101 144.944 218.408 153.905 211.106 154.619C203.803 155.334 158.445 159.344 158.251 159.578Z" fill="#C7C6B7"/>
<path d="M238.591 173.893C238.795 175.694 238.407 177.606 237.376 179.372C236.247 181.306 234.517 182.391 232.249 182.545C228.489 182.802 225.286 181.731 222.999 178.661C222.164 177.539 221.617 176.29 221.545 174.887C221.51 174.133 221.657 173.377 221.943 172.679C222.78 170.65 223.898 168.791 225.664 167.385C227.001 166.32 228.563 165.864 230.277 166.001C234.082 166.306 237.345 168.504 238.355 172.24C238.483 172.712 238.488 173.195 238.591 173.893Z" fill="#F0340D"/>
<path d="M224.151 172.319C224.559 172.839 224.497 173.226 225.119 173.625C225.74 174.027 226.111 174.267 226.449 174.224C226.785 174.184 228.891 173.741 230.124 173.594C231.358 173.444 232.366 173.325 232.539 173.778C232.714 174.232 232.748 174.512 231.863 174.714C230.978 174.915 229.06 175.051 228.737 175.185C228.412 175.318 227.167 175.373 227.788 175.773C228.409 176.172 229.806 177.194 230.156 177.126C230.739 177.007 232.917 176.731 233.699 176.579C235.007 176.328 235.891 174.372 235.692 173.494C235.492 172.621 234.252 171.2 233.007 171.256C231.761 171.31 228.175 171.741 227.389 171.834C226.605 171.93 224.151 172.319 224.151 172.319Z" fill="white"/>
</g>
<defs>
<clipPath id="clip0">
<rect width="310" height="240" fill="white"/>
</clipPath>
</defs>
</svg>
