<svg width="310" height="240" viewBox="0 0 310 240" fill="none" xmlns="http://www.w3.org/2000/svg">
<path d="M9.71935 159.699C-11.0714 102.459 27.1422 3.77825 86.7878 30.9637C133.511 73.6601 184.147 -8.92175 227.146 33.5315C266.345 72.234 238.815 120.051 280.745 130.229C339.803 147.088 284.715 215.52 223.672 212.545C162.629 209.57 142.281 233.868 96.6223 231.885C54.8881 230.071 30.5106 216.939 9.71935 159.699Z" fill="#FFF0ED"/>
<path d="M56.1346 38.9931L90.5122 111.99C92.7055 116.359 97.1571 117.133 100.634 115.828L134.996 99.6718C139.545 97.5963 142.329 93.6401 140.533 89.8094L105.754 15.6713C103.98 11.8608 99.1323 10.6563 94.6438 12.7795L60.5522 28.7752C55.9881 30.909 54.3036 35.142 56.1346 38.9931Z" fill="#B13F25"/>
<path d="M67.5136 29.2748C67.5136 29.2748 69.2997 32.2727 72.303 31.0633C74.0696 30.3516 83.0171 26.0046 85.0036 25.0839C86.9908 24.1615 90.794 22.4924 91.2599 21.3656C91.8916 19.8398 90.4748 19.0248 91.09 18.4995C91.6021 18.0637 96.6398 15.3494 98.5761 15.7443C100.603 16.1579 101.626 17.3944 102.729 19.9067C103.846 22.4539 131.039 80.2515 132.382 83.5676C133.724 86.8842 135.418 89.7511 135.594 90.6126C135.839 91.8129 136.045 94.2234 133.036 95.9783C130.026 97.7319 103.054 109.856 101.13 110.9C98.5938 112.275 95.1453 111.546 94.2822 109.261C93.4203 106.975 61.8878 40.6006 60.9968 38.6864C60.1057 36.7723 59.2144 34.1339 62.463 32.0304C65.4023 30.1266 67.5136 29.2748 67.5136 29.2748Z" fill="white"/>
<path d="M72.2776 27.5965C71.8209 27.8046 72.2178 28.237 72.5918 28.1393C72.9645 28.0421 84.8022 22.2936 85.2025 22.075C85.6004 21.8574 85.514 21.4829 84.9646 21.5992C84.5166 21.6925 73.3182 27.1231 72.2776 27.5965Z" fill="white"/>
<path d="M88.0171 20.1754C87.8695 20.3517 88.0177 20.647 88.2289 20.6894C88.4407 20.733 88.8842 20.4924 88.8433 20.1987C88.7945 19.8714 88.2506 19.8984 88.0171 20.1754Z" fill="white"/>
<path d="M83.3348 63.3042C84.7409 64.3416 84.9724 65.3864 86.7301 65.9542C88.49 66.5229 89.5461 66.8659 90.2507 66.5115C90.9553 66.157 95.1889 63.4493 97.7758 62.1499C100.361 60.8512 102.477 59.7886 103.295 60.8293C104.115 61.8708 104.465 62.5652 102.7 63.7437C100.936 64.9199 96.8235 66.6964 96.2335 67.282C95.6459 67.8685 92.943 68.9336 94.7013 69.503C96.4613 70.0716 100.534 71.6702 101.24 71.2299C102.416 70.4946 106.972 68.1612 108.558 67.1903C111.206 65.5717 111.28 59.8693 109.995 57.755C108.716 55.6495 104.611 52.9068 101.909 53.9735C99.2056 55.0425 91.6821 58.8217 90.0368 59.6475C88.3907 60.4757 83.3348 63.3042 83.3348 63.3042Z" fill="#FF0000"/>
<path d="M59.3201 197.939C59.3201 197.939 57.8215 164.601 86.8984 152.583C115.975 140.565 153.411 156.363 153.411 156.363L59.3201 197.939Z" fill="white"/>
<path d="M42.6069 197.018C42.6069 197.018 62.8587 226.449 80.9767 220.506C99.0948 214.564 154.24 189.165 154.24 189.165C154.24 189.165 162.012 159.809 155.76 148.051C132.342 158.399 42.6069 197.018 42.6069 197.018Z" fill="#C7C6B7"/>
<path d="M62.0913 156.32C63.2362 159.841 66.8291 165.25 67.5202 166.681C68.2265 168.08 69.8666 168.538 71.9591 167.563C74.0516 166.588 83.1238 163.813 83.5761 162.38C84.0285 160.947 81.6472 156.487 80.3033 153.18C78.9594 149.873 78.2141 148.718 75.5477 149.921C72.8416 151.167 61.0148 153.021 62.0913 156.32Z" fill="#E85125"/>
<path d="M93.728 144.99C93.5769 146.44 93.9088 148.785 94.4692 151.381C95.0296 153.978 95.3318 156.587 97.5559 157.039C99.7707 157.47 104.424 156.446 105.903 155.943C107.383 155.44 111.758 154.186 111.441 151.81C111.124 149.433 110.5 144.7 109.809 143.068C109.141 141.425 108.664 140.478 105.452 141.244C102.264 141.998 93.8349 144.036 93.728 144.99Z" fill="#C33D27"/>
<path d="M107.151 153.118C105.36 151.72 103.202 150.887 99.9136 153.473C96.601 156.069 90.4856 160.357 89.7431 161.465C89.025 162.562 92.5558 166.237 94.1805 167.457C95.8051 168.677 97.9692 171.848 99.3785 171.451C100.788 171.055 107.822 165.858 110.216 164.171C112.61 162.484 115.428 161.692 114.68 160.462C113.931 159.233 110.673 157.703 109.915 156.452C109.157 155.202 107.151 153.118 107.151 153.118Z" fill="#E85125"/>
<path d="M111.796 141.177L114.301 145.984C114.301 145.984 117.925 145.087 118.732 144.655C119.538 144.223 119.423 142.966 119.274 141.899C119.135 140.853 117.094 138.559 117.094 138.559L111.796 141.177Z" fill="#B13F25"/>
<path d="M76.866 174.029L78.5972 177.349C78.5972 177.349 81.0818 176.73 81.6523 176.428C82.1982 176.136 82.1327 175.257 82.0155 174.527C81.9322 173.808 80.532 172.232 80.532 172.232L76.866 174.029Z" fill="#B13F25"/>
<path d="M69.2843 163.637L71.0153 166.957C71.0153 166.957 73.4999 166.338 74.0704 166.036C74.6409 165.733 74.5508 164.865 74.4336 164.135C74.3504 163.416 72.9502 161.841 72.9502 161.841L69.2843 163.637Z" fill="#B13F25"/>
<path d="M84.418 159.844C86.0433 158.874 93.1291 155.919 93.1291 155.919C93.1291 155.919 95.4497 159.046 96.5126 159.659C97.5754 160.271 97.2436 163.438 97.2436 163.438L89.3741 166.412L84.418 159.844Z" fill="#B13F25"/>
<path d="M73.1388 156.954C72.6083 156.483 71.998 159.949 71.998 159.949C71.998 159.949 75.1146 161.491 76.2242 161.479C77.3338 161.467 78.2193 160.749 78.5784 159.835C78.9375 158.921 79.4756 156.62 78.687 156.163C77.9076 155.727 73.9037 157.622 73.1388 156.954Z" fill="#B13F25"/>
<path d="M72.7636 186.846L88.8535 176.181L89.7742 177.136L72.9901 187.956L72.7636 186.846Z" fill="#28362C"/>
<path d="M69.9177 156.775L86.0075 146.11L86.9283 147.064L70.1442 157.885L69.9177 156.775Z" fill="#28362C"/>
<path d="M99.6736 166.741L118.441 168.112L117.955 169.535L98.6728 167.863L99.6736 166.741Z" fill="#28362C"/>
<path d="M108.755 141.009C109.193 141.47 106.865 149.746 106.413 151.18C105.96 152.613 104.809 156.116 104.809 156.116C104.809 156.116 103.852 155.809 104.332 155.169C104.787 154.54 107.782 142.924 107.936 142.277C108.09 141.63 108.755 141.009 108.755 141.009Z" fill="#28362C"/>
<path d="M184.655 64.5683C183.393 65.5115 181.803 76.5329 183.166 77.4795C184.529 78.4258 254.704 88.5534 256.646 88.0847C258.588 87.615 260.441 77.3806 259.604 75.3844C258.766 73.3893 185.915 63.6255 184.655 64.5683Z" fill="#C7C6B7"/>
<path d="M186.491 75.2188C186.491 75.2188 180.582 133.656 181.996 134.953C183.41 136.25 240.303 144.761 242.25 143.648C244.194 142.537 255.195 85.1349 255.195 85.1349L186.491 75.2188Z" fill="#F8D0CC"/>
<path d="M211.337 128.099L212.805 146.955L257.922 153.119L264.645 135.793L211.337 128.099Z" fill="#FF5E3C"/>
<path d="M209.898 130.085C212.283 130.494 262.14 137.698 265.545 137.452C265.589 136.668 264.418 133.556 264.072 133.179C262.716 132.475 213.433 125.691 211.184 125.909C210.662 126.453 209.814 129.446 209.898 130.085ZM218.471 132.045C213.27 131.294 209.741 130.733 209.537 130.579C209.362 130.447 209.338 130.2 209.337 130.027C209.325 129.012 210.218 125.954 210.88 125.411C211.359 125.025 225.636 126.891 237.531 128.523C241.88 129.119 263.607 132.126 264.413 132.709C264.809 132.996 266.419 136.985 266.025 137.824L265.967 137.949L265.799 138.005C264.838 138.263 234.102 134.301 218.471 132.045Z" fill="#C33D27"/>
</svg>
