<svg width="310" height="240" viewBox="0 0 310 240" fill="none" xmlns="http://www.w3.org/2000/svg">
<path d="M50.247 156.88C0.938004 114.054 23.747 35.3802 77.247 46.1472C97.1216 55.2591 147.485 12.4915 177.747 52.6928C196.266 77.2945 213.768 66.5861 253.247 60.3802C280.747 56.0574 321.356 148.076 235.747 174.38C192.243 183.606 197.786 217.185 141.247 207.88C98.2471 200.803 99.5565 199.707 50.247 156.88Z" fill="#FFF0ED"/>
<path d="M144.015 34.4073L142.095 31C142.095 31 119.104 46.6088 118.049 47.7892C116.994 48.9686 109.109 53.2366 110.799 60.3625C112.503 67.5405 119.146 96.4764 119.146 96.4764L122.823 95.0952C122.823 95.0952 115.178 64.7541 115.045 60.4406C114.91 56.1271 115.335 55.1057 117.758 53.1241C120.179 51.1435 144.015 34.4073 144.015 34.4073Z" fill="#EDB9B6"/>
<path d="M145.522 92.0034C146.577 91.7134 140.552 171.361 137.709 172.757C135.086 174.047 104.292 175.419 99.0822 172.757C97.7802 164.326 92.1383 92.4472 92.1383 92.4472L145.522 92.0034Z" fill="#B13F25"/>
<path d="M90.5569 91.7741C96.3154 92.2447 142.498 91.4114 146.585 91.3361C146.478 89.4277 145.601 78.26 139.5 72.2521C131.314 64.1906 121.091 61.0314 111.46 63.5861C105.55 65.1523 91.725 71.0319 90.5569 91.7741ZM99.3823 92.4735C94.7136 92.4735 91.295 92.4251 90.233 92.2986L89.9761 92.2689L89.9891 92.0094C91.0725 70.6896 105.266 64.6547 111.318 63.0504C121.142 60.4454 131.558 63.6549 139.889 71.8568C146.701 78.566 147.15 91.47 147.153 91.6002L147.161 91.8801L146.881 91.8848C145.244 91.9155 115.166 92.4735 99.3823 92.4735Z" fill="#C7C6B3"/>
<path d="M148.422 90.7521L147.829 94.0104L89.5995 94.01L89.155 90.7525L148.422 90.7521Z" fill="#FF5E3C"/>
<path d="M104.177 160.519C103.801 163.333 118.562 186.455 120.417 187.525C122.428 188.688 202.441 187.94 204.106 187.525C205.771 187.11 216.179 169.66 216.179 169.66C218.846 167.307 221.177 161.765 221.177 160.519C221.177 159.273 104.177 160.519 104.177 160.519Z" fill="#C7C6B7"/>
<path d="M106.668 153.399C107.804 147.397 113.956 129.993 116.247 129.721C118.539 129.446 175.39 129.993 182.471 129.993C189.553 129.993 209.335 129.17 210.794 131.096C213.398 134.542 219.75 155.328 219.75 155.328C219.75 155.328 106.461 154.501 106.668 153.399Z" fill="#E6E5D8"/>
<path d="M100.96 158.455C100.96 157.816 102.626 153.971 104.709 153.76C106.792 153.544 149.919 153.544 160.13 153.544C170.34 153.544 217.843 153.544 219.926 153.76C222.008 153.971 223.674 157.816 223.674 159.093C223.674 160.374 132.837 159.735 125.336 159.947C117.835 160.162 100.96 158.455 100.96 158.455Z" fill="#C7C6B7"/>
<path d="M96.7734 158.595C96.0216 159.33 96.1513 159.61 97.6051 160.423C99.0588 161.24 146.274 160.628 154.179 160.833C162.083 161.035 226.351 161.24 226.976 160.628C227.598 160.017 227.598 158.595 227.598 158.595C227.598 158.595 155.01 158.797 147.938 158.797C140.865 158.797 96.9797 158.393 96.7734 158.595Z" fill="white"/>
<path d="M172.305 142.529C172.328 144.379 171.768 146.282 170.59 147.974C169.302 149.824 167.507 150.754 165.276 150.687C161.575 150.573 158.545 149.17 156.605 145.819C155.894 144.6 155.48 143.274 155.546 141.844C155.582 141.071 155.798 140.319 156.145 139.641C157.158 137.664 158.43 135.884 160.287 134.632C161.697 133.682 163.27 133.373 164.928 133.685C168.62 134.37 171.599 136.928 172.232 140.823C172.311 141.317 172.268 141.807 172.305 142.529Z" fill="#FF3008"/>
<path d="M159.106 140.558C159.396 141.092 159.314 141.455 159.786 141.893C160.26 142.332 160.543 142.596 160.819 142.59C161.095 142.58 162.837 142.354 163.851 142.329C164.862 142.303 165.691 142.281 165.798 142.729C165.899 143.178 165.908 143.448 165.174 143.556C164.439 143.667 162.873 143.616 162.6 143.715C162.327 143.81 161.31 143.747 161.784 144.186C162.255 144.624 163.308 145.728 163.598 145.696C164.079 145.638 165.869 145.578 166.516 145.505C167.595 145.387 168.466 143.607 168.375 142.752C168.284 141.903 167.39 140.434 166.376 140.37C165.362 140.307 162.418 140.383 161.775 140.399C161.131 140.418 159.106 140.558 159.106 140.558Z" fill="white"/>
<path d="M184.423 117.462C184.301 117.709 184.329 118.007 184.723 118.107C185.118 118.206 187.897 118.769 188.768 120.33C189.418 121.494 190.075 123.785 190.358 123.888C190.642 123.99 190.901 123.907 190.894 123.739C190.889 123.571 191.396 120.137 192.466 119.349C193.796 118.37 196.603 118.128 196.621 117.492C196.627 117.21 195.376 117.083 194.247 116.784C193.12 116.484 191.513 115.303 191.194 114.078C190.875 112.854 190.369 111.075 190.145 111.026C189.918 110.978 189.9 113.9 188.927 114.883C188.006 115.811 187.241 116.37 186.357 116.725C185.491 117.07 184.513 117.28 184.423 117.462Z" fill="#EE3A24"/>
<path d="M196.736 104.218C196.517 104.662 196.568 105.198 197.273 105.379C197.98 105.557 202.952 106.571 204.512 109.38C205.674 111.475 206.85 115.599 207.356 115.786C207.864 115.969 208.327 115.82 208.316 115.516C208.307 115.215 209.214 109.033 211.128 107.615C213.509 105.852 218.532 105.416 218.564 104.273C218.575 103.765 216.336 103.536 214.316 102.997C212.299 102.458 209.424 100.332 208.853 98.1279C208.282 95.9239 207.375 92.7225 206.975 92.6336C206.569 92.5476 206.537 97.8069 204.796 99.5752C203.148 101.246 201.779 102.252 200.196 102.891C198.648 103.513 196.898 103.892 196.736 104.218Z" fill="#EE3A24"/>
<path d="M201.898 132.614C201.68 133.059 201.731 133.595 202.435 133.775C203.143 133.953 208.115 134.967 209.674 137.776C210.836 139.871 212.012 143.996 212.518 144.182C213.027 144.365 213.49 144.216 213.478 143.912C213.47 143.611 214.376 137.429 216.291 136.011C218.672 134.248 223.695 133.812 223.726 132.669C223.738 132.162 221.499 131.932 219.479 131.393C217.462 130.855 214.586 128.728 214.015 126.524C213.444 124.32 212.538 121.119 212.137 121.03C211.731 120.944 211.7 126.203 209.958 127.971C208.311 129.642 206.941 130.648 205.359 131.287C203.81 131.909 202.06 132.288 201.898 132.614Z" fill="#EE3A24"/>
</svg>
