<svg width="310" height="240" viewBox="0 0 310 240" fill="none" xmlns="http://www.w3.org/2000/svg">
<path d="M16.1061 123.211C5.54969 80.3396 35.0337 13.9747 96.5366 48.3442C140.8 78.5104 178.93 31.982 230.329 27.1977C270.478 23.4607 293.706 73.5632 283.669 105.101C268.757 151.957 199.658 129.381 190.18 167.193C175.841 224.398 104.536 218.368 66.2924 195.652C45.8445 183.506 28.2424 172.497 16.1061 123.211Z" fill="#D0ECED"/>
<path d="M24.6061 138.968L22.5826 190.013L272.242 189.05L270.588 138.968H24.6061ZM22 190.983L24.1001 138H271.1L272.818 190.016L272.53 190.017L22 190.983Z" fill="#C7C6B7"/>
<path d="M79.2996 104.041C81.0175 102.649 82.5188 101.015 84.1294 99.4981C84.3983 99.2348 84.6914 98.9744 85.0474 98.8476C85.857 98.5659 86.7866 98.0626 87.4231 98.6279C88.3092 99.4139 88.0934 99.4865 87.8884 99.9569C87.6939 100.396 87.4995 100.815 87.4347 101.298C87.3805 101.737 87.7916 102.135 88.2347 102.24C88.6777 102.345 89.142 102.219 89.5734 102.061C90.9354 101.58 92.1775 100.774 93.1709 99.7478C93.8954 99.0054 94.4893 98.1362 95.2787 97.477C96.0235 96.8478 97.0392 96.3987 98.0007 96.5758C98.1187 96.5981 98.2048 96.6803 98.2377 96.7859C98.4321 97.477 98.141 98.2301 97.7405 98.8476C97.3091 99.5184 96.7471 100.115 96.4772 100.858C96.2073 101.6 96.3263 102.574 97.0285 102.972C97.5461 103.265 98.1835 103.171 98.7775 103.119C100.723 102.952 102.656 103.371 104.557 103.778C105.033 103.883 105.562 104.029 105.703 104.532C105.79 104.826 105.682 105.15 105.476 105.38C105.045 105.851 104.407 105.924 103.802 105.977C101.479 106.165 98.9622 106.165 97.0498 107.411C96.9308 107.485 96.9202 107.651 97.0169 107.746C97.9243 108.615 98.703 109.609 99.3075 110.697C99.4478 110.949 99.4913 111.252 99.3936 111.524C99.2321 112.038 98.7891 112.07 98.3896 112.058C94.9536 111.955 92.2423 109.201 88.9901 108.154C88.5587 108.018 88.0722 108.134 87.78 108.468C87.4453 108.845 87.6185 109.243 87.78 109.588C88.1689 110.436 88.5694 111.283 88.9573 112.132C88.9901 112.215 88.9476 112.299 88.8605 112.33C87.6069 112.729 86.2352 111.996 85.1654 111.21C84.0423 110.393 82.8109 109.463 81.417 109.63C81.4277 109.64 70.0956 111.493 79.2996 104.041Z" fill="#63796D"/>
<path d="M78.4665 116.116C76.0027 115.571 73.4326 115.478 70.9262 115.498C68.7478 115.518 66.3576 115.725 64.2537 115.076C63.6936 114.902 63.1326 114.665 62.794 114.202C62.4342 113.699 62.4245 113.03 62.5299 112.423C62.5619 112.226 62.6034 112.022 62.7302 111.858C62.9739 111.528 63.4392 111.466 63.8523 111.436C66.0307 111.282 71.7194 110.859 67.7747 107.815C65.0682 105.727 60.0652 108.258 56.8295 107.671C56.2685 107.569 55.6881 107.404 55.307 107.002C54.566 106.231 54.8833 104.884 55.6978 104.195C56.5123 103.506 57.6537 103.31 58.7332 103.228C60.0023 103.135 62.8366 103.166 63.3019 101.664C63.6607 100.513 61.757 98.6923 61.0703 97.9315C60.1706 96.9335 59.272 95.9462 58.384 94.9599C57.9081 94.4343 57.4109 93.8283 57.4535 93.1391C57.4951 92.4906 58.0561 91.9447 58.6916 91.7395C59.3252 91.5342 60.0236 91.6165 60.6795 91.7908C61.8422 92.1102 62.9217 92.7268 63.7671 93.5805C64.539 94.3529 65.0991 95.3083 65.8507 96.1011C66.5907 96.9026 67.617 97.5714 68.7159 97.5191C68.9171 96.707 68.7159 95.8639 68.6521 95.0315C68.5892 94.1971 68.6946 93.2621 69.3505 92.7161C70.3342 91.904 71.9729 92.5525 72.619 93.6531C73.2633 94.743 73.2207 96.0798 73.2526 97.3352C73.3058 99.4231 73.0737 102.343 74.5324 104.071C76.7746 106.735 76.8066 101.614 78.2759 100.996C78.9105 100.729 79.5557 101.367 79.9039 101.952C81.3007 104.38 79.9677 107.98 82.1355 109.975C82.1568 109.944 90.3954 118.769 78.4665 116.116Z" fill="#3D5749"/>
<path d="M118.573 104.041C120.29 102.649 121.793 101.015 123.402 99.4981C123.672 99.2348 123.964 98.9744 124.32 98.8476C125.131 98.5659 126.06 98.0626 126.698 98.6279C127.583 99.4139 127.367 99.4865 127.162 99.9569C126.968 100.396 126.773 100.815 126.709 101.298C126.654 101.737 127.065 102.135 127.508 102.24C127.951 102.345 128.415 102.219 128.847 102.061C130.208 101.58 131.451 100.774 132.445 99.7478C133.168 99.0054 133.763 98.1362 134.552 97.477C135.297 96.8478 136.312 96.3987 137.275 96.5758C137.394 96.5981 137.48 96.6803 137.512 96.7859C137.706 97.477 137.415 98.2301 137.015 98.8476C136.583 99.5184 136.021 100.115 135.75 100.858C135.48 101.6 135.6 102.574 136.301 102.972C136.821 103.265 137.457 103.171 138.052 103.119C139.996 102.952 141.93 103.371 143.832 103.778C144.307 103.883 144.836 104.029 144.976 104.532C145.063 104.826 144.955 105.15 144.75 105.38C144.318 105.851 143.68 105.924 143.076 105.977C140.753 106.165 138.235 106.165 136.324 107.411C136.205 107.485 136.193 107.651 136.291 107.746C137.198 108.615 137.977 109.609 138.581 110.697C138.722 110.949 138.765 111.252 138.667 111.524C138.505 112.038 138.062 112.07 137.662 112.058C134.227 111.955 131.515 109.201 128.264 108.154C127.832 108.018 127.346 108.134 127.055 108.468C126.719 108.845 126.891 109.243 127.055 109.588C127.443 110.436 127.843 111.283 128.232 112.132C128.264 112.215 128.22 112.299 128.134 112.33C126.881 112.729 125.509 111.996 124.44 111.21C123.315 110.393 122.084 109.463 120.691 109.63C120.702 109.64 109.368 111.493 118.573 104.041Z" fill="#63796D"/>
<path d="M117.763 116.116C115.298 115.571 112.729 115.478 110.222 115.498C108.044 115.519 105.654 115.725 103.55 115.076C102.989 114.902 102.428 114.665 102.09 114.202C101.73 113.699 101.721 113.03 101.826 112.423C101.858 112.227 101.9 112.023 102.026 111.858C102.269 111.528 102.734 111.466 103.147 111.436C105.327 111.282 111.016 110.859 107.071 107.816C104.364 105.728 99.3613 108.258 96.1257 107.671C95.5646 107.569 94.9833 107.404 94.6031 107.003C93.8621 106.231 94.1804 104.884 94.9939 104.196C95.8084 103.506 96.9498 103.311 98.0293 103.229C99.2985 103.136 102.132 103.167 102.597 101.664C102.957 100.513 101.054 98.6927 100.366 97.9319C99.4677 96.9339 98.5681 95.9466 97.6801 94.9593C97.2042 94.4347 96.707 93.8287 96.7496 93.1395C96.7921 92.491 97.3522 91.9451 97.9868 91.7399C98.6213 91.5337 99.3197 91.6169 99.9746 91.7912C101.138 92.1106 102.217 92.7272 103.062 93.5809C103.835 94.3534 104.396 95.3087 105.146 96.1005C105.887 96.903 106.912 97.5718 108.012 97.5196C108.213 96.7074 108.012 95.8643 107.948 95.0309C107.885 94.1975 107.991 93.2625 108.647 92.7165C109.63 91.9044 111.27 92.553 111.914 93.6535C112.56 94.7434 112.517 96.0802 112.549 97.3356C112.602 99.4235 112.369 102.344 113.829 104.072C116.071 106.736 116.103 101.614 117.572 100.996C118.206 100.729 118.852 101.367 119.2 101.953C120.597 104.38 119.264 107.98 121.432 109.975C121.453 109.944 129.692 118.769 117.763 116.116Z" fill="#3D5749"/>
<path d="M48.5894 109.476C48.2731 111.816 60.6993 134.956 62.2605 135.845C63.9562 136.81 131.317 136.191 132.72 135.845C134.122 135.5 142.885 120.99 142.885 120.99C145.132 119.032 147.092 110.513 147.092 109.476C147.092 108.44 48.5894 109.476 48.5894 109.476Z" fill="white"/>
<path d="M90.4393 110.228C91.6001 111.416 92.7657 112.345 93.291 112.354C93.8172 112.364 106.967 112.218 107.496 112.098C108.024 111.978 110.201 108.131 110.201 108.131L89.3008 107.874L90.4393 110.228Z" fill="#C7C6B6"/>
<path d="M42.468 106.525C41.8363 107.148 41.9427 108.954 43.1693 109.645C44.3958 110.336 84.1826 109.817 90.8425 109.99C97.5035 110.164 150.719 110.039 151.246 109.521C151.771 109.003 154.209 107.338 153.419 106.35C152.631 105.363 91.5438 106.698 85.5852 106.698C79.6255 106.698 42.6431 106.352 42.468 106.525Z" fill="#E6E5D7"/>
<path d="M106.283 124.462C106.305 125.936 105.84 127.451 104.866 128.798C103.801 130.273 102.317 131.013 100.471 130.958C97.4114 130.869 94.907 129.749 93.3012 127.085C92.715 126.111 92.3716 125.058 92.4248 123.917C92.4558 123.305 92.6347 122.704 92.9211 122.162C93.7578 120.588 94.8093 119.172 96.3473 118.174C97.5129 117.419 98.8111 117.174 100.186 117.42C103.238 117.968 105.701 120.005 106.223 123.106C106.288 123.498 106.255 123.889 106.283 124.462Z" fill="#F0340D"/>
<path d="M94.731 122.048C95.0202 122.501 94.9389 122.809 95.41 123.182C95.8801 123.555 96.1616 123.779 96.4383 123.771C96.713 123.765 98.4503 123.574 99.4582 123.552C100.468 123.529 101.292 123.513 101.396 123.892C101.501 124.274 101.507 124.503 100.776 124.596C100.044 124.689 98.4832 124.647 98.2114 124.729C97.9386 124.812 96.9277 124.758 97.3979 125.13C97.868 125.502 98.9165 126.439 99.2048 126.412C99.6856 126.361 101.468 126.311 102.113 126.25C103.189 126.15 104.059 124.638 103.967 123.912C103.875 123.19 102.985 121.943 101.974 121.889C100.962 121.834 98.0295 121.899 97.3872 121.913C96.7459 121.928 94.731 122.048 94.731 122.048Z" fill="white"/>
<path d="M162.276 113.988C161.982 116.222 173.672 135.502 175.124 136.351C176.7 137.272 239.332 136.68 240.635 136.351C241.939 136.02 249.951 121.245 249.951 121.245C252.039 119.375 253.862 114.977 253.862 113.988C253.862 112.999 162.276 113.988 162.276 113.988Z" fill="white"/>
<path d="M164.397 109.303C165.285 106.076 170.1 96.7269 171.893 96.5779C173.686 96.4307 218.175 96.7269 223.715 96.7269C229.256 96.7269 244.738 96.2826 245.879 97.3183C247.918 99.1691 252.886 110.337 252.886 110.337C252.886 110.337 164.234 109.894 164.397 109.303Z" fill="white"/>
<path d="M160.003 112.414C160.003 111.969 161.307 109.306 162.936 109.159C164.566 109.01 198.299 109.01 206.284 109.01C214.269 109.01 251.426 109.01 253.055 109.159C254.685 109.306 255.989 111.969 255.989 112.857C255.989 113.746 184.936 113.301 179.07 113.449C173.203 113.597 160.003 112.414 160.003 112.414Z" fill="#EAEADD"/>
<path d="M156.58 112.456C155.993 112.99 156.091 113.197 157.232 113.788C158.372 114.38 195.366 113.936 201.558 114.085C207.75 114.233 258.107 114.38 258.595 113.936C259.085 113.492 259.085 112.456 259.085 112.456C259.085 112.456 202.21 112.604 196.669 112.604C191.129 112.604 156.742 112.309 156.58 112.456Z" fill="white"/>
<path d="M200.118 112.449C200.491 112.122 201.493 110.634 202.96 110.659C204.426 110.685 217.146 110.349 217.99 110.918C218.834 111.489 219.312 112.332 219.551 112.668C219.787 113.006 200.118 112.449 200.118 112.449Z" fill="#C7C6B6"/>
<path d="M201.164 114.431C202.244 115.448 203.327 116.243 203.816 116.252C204.305 116.26 216.532 116.135 217.023 116.032C217.514 115.929 219.537 112.635 219.537 112.635L200.105 112.415L201.164 114.431Z" fill="white"/>
<path d="M216.682 127.115C216.704 128.588 216.239 130.103 215.266 131.45C214.201 132.924 212.716 133.665 210.87 133.61C207.81 133.52 205.306 132.401 203.7 129.736C203.114 128.762 202.77 127.709 202.824 126.57C202.855 125.956 203.034 125.357 203.32 124.814C204.157 123.24 205.208 121.824 206.746 120.827C207.912 120.071 209.209 119.825 210.585 120.073C213.637 120.62 216.1 122.657 216.622 125.757C216.687 126.149 216.654 126.541 216.682 127.115Z" fill="#F0340D"/>
<path d="M205.137 124.695C205.427 125.149 205.345 125.457 205.816 125.83C206.286 126.204 206.568 126.426 206.844 126.419C207.12 126.413 208.857 126.221 209.864 126.2C210.874 126.176 211.698 126.16 211.803 126.539C211.907 126.921 211.913 127.15 211.182 127.244C210.451 127.336 208.89 127.294 208.618 127.377C208.344 127.458 207.333 127.405 207.804 127.777C208.274 128.149 209.322 129.087 209.611 129.059C210.092 129.01 211.874 128.958 212.519 128.897C213.596 128.798 214.466 127.286 214.373 126.561C214.281 125.839 213.392 124.591 212.381 124.537C211.368 124.481 208.436 124.546 207.794 124.56C207.152 124.576 205.137 124.695 205.137 124.695Z" fill="white"/>
<path d="M243.934 71.7116C243.934 71.7116 231.423 49.8715 212.198 50.4107C192.973 50.9518 175.946 71.9982 175.946 71.9982L243.934 71.7116Z" fill="white"/>
<path d="M235.212 65.0015C234.425 67.5076 232.047 71.4549 231.57 72.4868C231.096 73.5021 230.045 73.8951 228.766 73.3221C227.47 72.7481 221.844 71.2913 221.597 70.3079C221.351 69.3409 222.942 66.0992 223.861 63.7403C224.78 61.3823 225.272 60.514 226.912 61.2342C228.585 61.9553 235.967 62.6426 235.212 65.0015Z" fill="#DA5327"/>
<path d="M206.526 47.1703C206.969 48.0705 207.362 49.6908 207.69 51.5435C208.018 53.3942 208.494 55.1782 207.362 56.1123C206.231 57.0454 203.377 57.7017 202.424 57.7984C201.473 57.8972 198.717 58.3395 198.307 56.7027C197.897 55.064 197.077 51.8039 197.06 50.5436C197.044 49.2833 197.06 48.5283 199.046 48.1034C201.014 47.6775 206.231 46.5808 206.526 47.1703Z" fill="#B53F28"/>
<path d="M201.019 56.643C201.676 55.2182 202.676 54.0547 205.153 54.7923C207.647 55.5298 212.125 56.5607 212.814 57.0679C213.486 57.5771 212.42 60.9824 211.812 62.2446C211.206 63.5058 210.779 66.191 209.893 66.34C209.007 66.4862 203.791 65.1272 202.036 64.7177C200.281 64.3083 198.509 64.6035 198.624 63.5881C198.74 62.5718 200.182 60.6397 200.297 59.6079C200.413 58.576 201.019 56.643 201.019 56.643Z" fill="#DA5327"/>
<path d="M192.501 55.5032L192.288 59.3518C192.288 59.3518 190.04 59.8106 189.482 59.7612C188.925 59.7128 188.678 58.86 188.498 58.1234C188.317 57.4033 188.892 55.3221 188.892 55.3221L192.501 55.5032Z" fill="#78BB7F"/>
<path d="M223.126 61.4819L222.979 64.1351C222.979 64.1351 221.436 64.4468 221.044 64.4129C220.666 64.3809 220.485 63.7914 220.37 63.2833C220.24 62.7925 220.632 61.3677 220.632 61.3677L223.126 61.4819Z" fill="#78BB7F"/>
<path d="M215.389 54.2725C214.241 54.1089 209.551 54.2231 209.551 54.2231C209.551 54.2231 209.025 56.9247 208.582 57.6303C208.139 58.334 209.107 60.3 209.107 60.3L214.241 59.9728L215.389 54.2725Z" fill="#78BB7F"/>
<path d="M230.037 55.6412C230.381 55.2811 230.677 57.6729 230.677 57.6729C230.677 57.6729 228.691 58.9177 228.002 58.9497C227.314 58.9826 226.772 58.5567 226.559 57.9333C226.346 57.3128 226.083 55.7399 226.576 55.3953C227.067 55.0352 229.544 56.1484 230.037 55.6412Z" fill="#78BB7F"/>
<path d="M228.602 67.7394L216.971 65.4288L216.693 66.3143L228.749 68.5257L228.602 67.7394Z" fill="#28372C"/>
<path d="M224.934 56.6659L215.093 50.0664L214.502 50.7853L224.771 57.4515L224.934 56.6659Z" fill="#28372C"/>
<path d="M196.188 61.2332L186.034 67.5221L186.657 68.3087L197.008 61.6746L196.188 61.2332Z" fill="#28372C"/>
<path d="M197.135 49.2657C197.003 49.6907 200.349 54.4076 200.957 55.211C201.564 56.0134 203.072 57.9619 203.072 57.9619C203.072 57.9619 203.532 57.4866 203.105 57.2088C202.695 56.9301 198.151 50.2318 197.905 49.8543C197.659 49.4942 197.135 49.2657 197.135 49.2657Z" fill="#28372C"/>
<path d="M164.287 71.2598C163.985 73.4919 175.838 95.5614 177.326 96.4093C178.944 97.3318 243.192 96.7394 244.53 96.4093C245.867 96.0812 254.225 82.2413 254.225 82.2413C256.367 80.3741 258.238 72.2481 258.238 71.2598C258.238 70.2715 164.287 71.2598 164.287 71.2598Z" fill="#C7C6B7"/>
<path d="M204.166 71.9307C205.273 73.0632 206.385 73.9489 206.886 73.9586C207.388 73.9673 219.93 73.8279 220.434 73.7137C220.937 73.5995 223.014 69.9309 223.014 69.9309L203.08 69.686L204.166 71.9307Z" fill="#C7C6B6"/>
<path d="M158.433 68.2995C157.83 68.8938 157.931 70.6168 159.101 71.275C160.272 71.9342 198.219 71.4395 204.572 71.6051C210.924 71.7696 260.103 71.9342 260.605 71.4395C261.106 70.9459 263.174 68.9799 262.679 68.4156C262.182 67.8513 205.24 68.465 199.557 68.465C193.873 68.465 158.6 68.1349 158.433 68.2995Z" fill="white"/>
<path d="M219.281 85.5663C219.302 86.9709 218.858 88.416 217.93 89.7015C216.915 91.1079 215.499 91.8136 213.738 91.7613C210.82 91.6761 208.431 90.6085 206.899 88.0666C206.341 87.1383 206.012 86.1336 206.063 85.0465C206.092 84.4609 206.264 83.8898 206.537 83.372C207.335 81.8707 208.338 80.5204 209.805 79.5689C210.916 78.8477 212.155 78.6135 213.466 78.8497C216.376 79.3724 218.726 81.3141 219.224 84.2722C219.287 84.6458 219.255 85.0194 219.281 85.5663Z" fill="#F0340D"/>
<path d="M36.6265 123.139L39.0979 134.733L69.682 135.196L72.4636 123.138L36.6265 123.139Z" fill="#3B646E"/>
<path d="M35.9522 124.4C38.5668 124.426 69.8605 124.41 73.0768 124.004C72.9104 123.454 72.1066 122.05 71.8125 121.729C69.9263 121.397 38.5687 121.594 36.3642 121.948C36.1524 122.345 35.9019 123.863 35.9522 124.4ZM41.7299 125.158C38.146 125.158 35.7006 125.126 35.5488 125.044C35.335 124.934 35.2934 124.682 35.2799 124.599C35.1677 123.918 35.4801 121.845 35.8999 121.404C36.0237 121.275 36.2791 121.006 53.9133 120.891C59.1958 120.856 71.5485 120.808 72.1366 121.102C72.4955 121.281 73.9735 123.739 73.7704 124.379L73.721 124.534L73.546 124.613C72.9366 124.863 52.3414 125.158 41.7299 125.158Z" fill="white"/>
<path d="M208.278 83.0931C208.554 83.5248 208.476 83.8191 208.925 84.1743C209.374 84.5305 209.643 84.7445 209.906 84.7367C210.169 84.7309 211.825 84.5489 212.787 84.5276C213.75 84.5063 214.535 84.4889 214.635 84.8519C214.735 85.2149 214.741 85.4346 214.043 85.5237C213.346 85.6118 211.857 85.5721 211.598 85.6505C211.337 85.7289 210.373 85.6766 210.821 86.0319C211.27 86.3871 212.27 87.2815 212.545 87.2544C213.003 87.2079 214.704 87.1586 215.318 87.1015C216.345 87.0066 217.174 85.5634 217.086 84.8722C216.999 84.183 216.151 82.9924 215.187 82.9421C214.221 82.8898 211.424 82.9508 210.811 82.9634C210.2 82.9789 208.278 83.0931 208.278 83.0931Z" fill="white"/>
<path d="M19.0675 136.136H293.096L295.432 148.372H17L19.0675 136.136Z" fill="white"/>
</svg>
