<svg width="310" height="240" viewBox="0 0 310 240" fill="none" xmlns="http://www.w3.org/2000/svg">
<g clip-path="url(#clip0)">
<path d="M13.2558 118.099C-15.4815 48.5399 58.4324 5.47762 91.9259 30.5568C131.973 64.2513 172.457 -9.32084 209.271 24.1312C242.832 54.6277 214.441 80.2419 250.747 88.725C304.635 96.6011 272.648 163.025 235.391 180.564C202.34 196.123 165.487 198.378 128.096 164.361C90.7053 130.344 26.6463 150.512 13.2558 118.099Z" fill="#D0ECED"/>
<mask id="mask0" mask-type="alpha" maskUnits="userSpaceOnUse" x="45" y="37" width="214" height="123">
<path d="M258.311 150.436C257.398 151.884 216.916 159.603 206.427 159.999C202.564 160.144 137.931 136.2 124.38 135.914C115.405 137.499 88.8578 145.374 72.5187 149.113C57.0796 102.002 53.515 81.8105 45.2026 48.5559C61.0437 44.4933 84.6308 36.4615 101.17 37.584C114.834 38.5118 186.139 62.8093 186.139 62.8093C186.139 62.8093 229.402 50.6088 231.92 51.3647C234.436 52.1206 259.224 148.99 258.311 150.436Z" fill="#E6E5D8"/>
</mask>
<g mask="url(#mask0)">
<path d="M258.311 150.436C257.398 151.884 216.916 159.603 206.427 159.999C202.564 160.144 137.931 136.2 124.38 135.914C115.405 137.499 88.8578 145.374 72.5187 149.113C57.0796 102.002 53.515 81.8105 45.2026 48.5559C61.0437 44.4933 84.6308 36.4615 101.17 37.584C114.834 38.5118 186.139 62.8093 186.139 62.8093C186.139 62.8093 229.402 50.6088 231.92 51.3647C234.436 52.1206 259.224 148.99 258.311 150.436Z" fill="#C7C6B7"/>
<path d="M254.103 173.841C237.42 166.287 208.612 153.629 208.612 153.629C208.612 153.629 100.314 67.7853 95.3361 65.6895C90.3583 63.5937 36.4012 40.7094 6.91602 29.4897C7.7781 28.3824 11.5879 26.0212 12.4475 24.9164C33.0742 33.0897 64.1521 46.2712 84.6777 54.6392C91.9535 57.6046 98.8249 59.8799 101.707 62.2361C104.589 64.5948 213.674 149.915 213.674 149.915C213.674 149.915 231.904 157.207 260.408 169.946C259.586 170.835 254.922 172.946 254.103 173.841Z" fill="white"/>
<path d="M42.5392 160.31C41.212 159.796 38.3249 157.91 36.9951 157.412C49.8808 142.704 78.0286 107.627 78.0286 107.627L119.163 78.8063L171.04 73.3052C171.04 73.3052 194.096 55.4897 206.822 43.1981C208.064 43.7745 215.054 41.4234 216.288 41.9821C201.875 56.1318 175.886 77.0341 175.886 77.0341L124.01 83.0611L82.875 111.356C82.875 111.356 58.0567 142.347 42.5392 160.31Z" fill="white"/>
<path d="M29.1053 118.282C27.8033 117.918 28.0511 113.418 26.7466 113.062C42.1098 97.2485 82.127 54.1192 82.127 54.1192C82.127 54.1192 101.904 43.9361 123.987 37.1229C131.346 34.8526 138.964 32.9591 146.189 31.9377C147.681 33.2043 148.553 33.5052 150.039 34.754C147.63 35.4948 138.362 38.2125 128.899 40.69C117.326 43.7161 88.652 56.6372 88.652 56.6372C88.652 56.6372 76.4616 68.3701 67.8812 77.4106C59.7736 85.948 35.7896 111.277 29.1053 118.282Z" fill="white"/>
<path d="M153.023 163.101C139.06 151.231 125.674 140.547 109.254 129.717C97.7258 123.865 90.8469 118.71 75.8729 113.373C57.0058 106.486 37.7164 100.841 18.2476 95.9392C19.1728 94.9456 19.9692 91.3406 20.8894 90.347C37.2462 94.6701 47.4066 97.451 63.3361 102.747C103.985 115.886 126.672 132.918 159.366 160.545C158.281 160.83 154.095 162.797 153.023 163.101Z" fill="white"/>
<path d="M17.82 77.2253C16.5257 76.8487 16.4144 70.2857 15.1226 69.9065C24.0265 60.1683 28.4608 55.284 37.1246 45.6368C47.2395 34.0329 57.2406 22.2974 67.0066 10.3977C68.296 10.9842 70.321 13.9598 71.6027 14.5413C64.5266 22.8739 60.5145 28.3775 52.685 37.2562C43.8139 47.5 39.1774 52.7559 29.8462 63.2323C25.7532 67.793 21.9585 72.6571 17.82 77.2253Z" fill="white"/>
<path d="M211.818 100.223C188.635 87.6126 166.519 71.994 145.003 54.2998C127.789 40.145 110.317 24.0335 109.154 23.0703C109.169 23.0855 111.945 20.8152 112.428 20.2515C134.658 39.8543 162.095 62.2608 186.41 78.7086C195.319 84.7356 205.141 90.2089 216.083 96.1423C215.238 97.0171 212.665 99.3556 211.818 100.223Z" fill="white"/>
<path d="M183.135 169.092C181.613 167.851 178.88 165.394 177.354 164.145C192.29 160.34 199.646 163.725 211.013 151.133C212.259 151.623 214.85 153.701 216.089 154.187C204.799 166.787 197.963 165.148 183.135 169.092Z" fill="white"/>
<path d="M254.755 169.079C253.544 168.563 250.718 166.237 249.512 165.724C259.624 154.226 270.042 142.999 280.64 131.946C281.907 132.459 284.766 134.785 286.043 135.299C275.359 146.319 264.913 157.571 254.755 169.079Z" fill="white"/>
<path d="M226.159 145.48C224.323 144.779 224.298 145.781 222.455 145.08C223.469 144.125 222.5 141.521 220.496 139.802C217.234 137.352 215.596 136.128 212.307 133.676C214.097 132.761 214.992 132.303 216.779 131.383C220.109 133.868 221.767 135.109 225.071 137.595C227.468 139.625 229.223 142.577 226.159 145.48Z" fill="white"/>
<path d="M226.457 84.0814C217.824 80.6027 163.2 49.3049 146.274 35.2411C147.27 34.8442 149.062 33.3374 150.048 32.895C162.102 40.1279 174.894 49.9243 184.913 55.5215C200.863 63.8667 217.556 73.5089 229.054 80.1856C228.23 81.1361 227.284 83.1384 226.457 84.0814Z" fill="white"/>
<path d="M187.25 119.747C187.25 119.747 183.355 121.555 182.707 123.782C182.381 124.895 181.729 126.513 185.488 130.272C175.52 124.106 174.312 122.768 174.312 122.768C177.828 122.278 182.798 118.913 187.25 119.747Z" fill="white"/>
<path d="M217.764 153.782C216.591 153.231 213.947 150.993 212.766 150.442C224.024 139.716 235.506 129.075 246.296 118.009C253.795 110.321 271.266 88.9994 271.443 88.7845C272.725 89.2371 275.422 91.4264 276.712 91.8865C276.535 92.0989 258.899 113.446 251.309 121.217C240.487 132.301 229.004 142.987 217.764 153.782Z" fill="white"/>
<path d="M106.857 154.758C105.619 154.141 103.144 151.368 101.905 150.761C113.602 136.548 118.648 133.049 133.008 127.495C150.439 121.746 163.052 119.891 182.71 114.698C208.489 106.353 239.906 61.6282 257.451 40.1444C258.667 40.6703 260.272 45.7821 261.491 46.3155C245.642 65.9183 229.546 85.2987 211.968 103.39C195.136 121.006 174.178 124.158 157.859 127.311C146.518 129.5 122.483 135.633 106.857 154.758Z" fill="white"/>
</g>
<path d="M148.152 111.68C147.734 111.805 134.721 94.67 135.77 86.2958C136.691 78.931 144.404 74.7164 151.202 76.6194C157.622 78.4174 160.851 84.3936 159.806 89.4608C158.116 97.6504 148.57 111.555 148.152 111.68Z" fill="#FF5E3C"/>
<path d="M153.079 89.1287C153.132 90.689 152.672 91.6876 151.664 92.7236C150.871 93.5387 149.704 93.9476 148.558 93.9338C146.473 93.9084 145.796 93.6122 144.367 92.1312C143.633 91.3705 143.227 89.0717 143.539 88.058C143.946 86.7396 144.393 85.8042 145.57 85.0956C147.999 83.6351 151.25 84.1259 152.478 86.6536C152.866 87.454 153.137 88.2967 153.079 89.1287Z" fill="white"/>
<path d="M205.596 85.968C205.178 86.0923 192.165 68.9576 193.213 60.5834C194.135 53.2185 201.848 49.004 208.646 50.907C215.066 52.705 218.294 58.6812 217.249 63.7484C215.56 71.938 206.014 85.8429 205.596 85.968Z" fill="#FF5E3C"/>
<path d="M210.523 63.4158C210.576 64.9761 210.116 65.9747 209.108 67.0107C208.315 67.8258 207.148 68.2347 206.002 68.2209C203.917 68.1955 203.24 67.8993 201.811 66.4183C201.077 65.6576 200.671 63.3588 200.983 62.3451C201.389 61.0267 201.836 60.0913 203.014 59.3827C205.443 57.9222 208.694 58.413 209.921 60.9407C210.31 61.7411 210.581 62.5838 210.523 63.4158Z" fill="white"/>
<path d="M84.5149 77.3194C84.0971 77.4438 71.0843 60.3091 72.1323 51.9348C73.0537 44.57 80.7668 40.3554 87.5648 42.2584C93.9851 44.0564 97.2134 50.0326 96.1684 55.0998C94.4786 63.2895 84.9327 77.1943 84.5149 77.3194Z" fill="#FF5E3C"/>
<path d="M89.4416 54.7672C89.4941 56.3274 89.0344 57.326 88.0268 58.3621C87.2336 59.1772 86.0668 59.586 84.9207 59.5722C82.8358 59.5468 82.1585 59.2506 80.7292 57.7697C79.9953 57.0089 79.5894 54.7102 79.9016 53.6964C80.3079 52.378 80.7549 51.4426 81.9327 50.734C84.361 49.2735 87.6128 49.7643 88.8398 52.292C89.2285 53.0924 89.4995 53.9351 89.4416 54.7672Z" fill="white"/>
<path d="M207.037 146.509C206.62 146.633 193.607 129.498 194.655 121.124C195.576 113.759 203.289 109.545 210.087 111.448C216.508 113.246 219.736 119.222 218.691 124.289C217.001 132.479 207.455 146.384 207.037 146.509Z" fill="#FF5E3C"/>
<path d="M211.965 123.956C212.017 125.517 211.557 126.515 210.55 127.551C209.757 128.366 208.59 128.775 207.444 128.761C205.359 128.736 204.681 128.44 203.252 126.959C202.518 126.198 202.112 123.899 202.425 122.886C202.831 121.567 203.278 120.632 204.456 119.923C206.884 118.463 210.136 118.954 211.363 121.481C211.751 122.282 212.022 123.124 211.965 123.956Z" fill="white"/>
<path d="M180.5 62L174.5 65L162.5 56M108 101.5L121 91.5L135 101.5L121 113L108 101.5Z" stroke="white"/>
</g>
<defs>
<clipPath id="clip0">
<rect width="310" height="240" fill="white"/>
</clipPath>
</defs>
</svg>
