<svg width="310" height="240" viewBox="0 0 310 240" fill="none" xmlns="http://www.w3.org/2000/svg">
<path d="M25.2118 135.954C-3.52552 66.3944 70.3883 23.3321 103.882 48.4113C143.929 82.1058 184.413 8.53365 221.227 41.9857C254.788 72.4822 226.397 98.0964 262.703 106.579C316.591 114.456 284.604 180.879 247.347 198.419C214.295 213.977 177.443 216.233 140.052 182.216C102.661 148.198 38.6022 168.367 25.2118 135.954Z" fill="#F9EFB3"/>
<path d="M191.88 130.498C192.547 137.289 194.163 144.161 195.293 155.653C196.422 167.145 196.146 178.203 196.146 178.203C196.146 178.203 196.784 187.467 197.482 188.968C198.841 191.882 204.746 191.609 204.746 191.609C204.746 191.609 206.983 187.493 206.821 185.841C206.525 182.819 204.902 177.347 204.029 173.743C203.156 170.138 200.724 157.985 199.949 150.799C199.382 145.554 196.686 130.699 197.457 127.982C198.228 125.265 200.078 122.968 199.204 119.363C198.332 115.759 195.685 98.6884 194.968 91.3749C194.249 84.0615 192.061 70.531 192.061 70.531C192.061 70.531 191.401 61.0657 189.449 62.3196C187.495 63.5726 185.611 65.9573 184.362 68.6393C182.086 73.5251 181.959 76.7881 182.214 81.5565C182.578 88.3916 182.806 91.9452 183.422 98.214C184.038 104.482 185.323 113.196 185.733 117.375C186.144 121.553 187.026 128.358 187.026 128.358C187.026 128.358 191.624 127.887 191.88 130.498Z" fill="#B13F25"/>
<path d="M122.72 45.5612C122.588 43.8072 122.779 43.3449 122.665 42.5844C122.58 42.0066 122.854 41.1946 123.135 41.1257C123.43 41.0519 123.891 40.981 124.132 42.3339C124.353 43.5877 124.473 44.6871 124.773 46.579C125.214 49.3616 126.941 58.1996 127.255 60.5063C127.412 61.6591 127.834 63.3461 128.23 64.1435C128.624 64.9399 129.351 64.9331 129.794 64.8243C130.077 64.7553 130.165 64.4931 130.16 63.6132C130.148 61.7368 129.672 58.8047 129.417 57.7315C129.042 56.1552 126.955 45.8419 126.579 44.2656C126.374 43.4022 126.212 42.6767 125.991 41.7939C125.807 41.0635 125.873 40.0612 126.15 39.8854C126.76 39.4969 127.286 39.9029 127.661 41.4792C128.035 43.0555 131.671 59.3224 131.671 59.3224C131.671 59.3224 131.925 60.787 132.332 61.7494C132.514 62.1826 132.89 62.5361 133.25 62.5206C133.762 62.4992 133.989 62.0952 134.106 61.4804C134.254 60.6986 133.868 59.6875 133.719 59.0572C133.45 57.9316 130.258 45.3854 129.855 43.8004C129.296 41.6045 128.452 39.6407 129.063 39.2522C129.369 39.0579 129.849 39.0939 130.091 39.6232C130.346 40.1826 130.568 40.8838 130.7 41.4462C130.969 42.5728 135.034 56.7486 135.576 58.0452C135.926 58.8805 136.4 60.3936 136.955 61.7213C137.26 62.4526 137.709 62.9771 138.006 62.8741C138.436 62.7255 138.623 62.3963 138.649 61.8805C138.673 61.3629 138.456 61.2308 138.241 60.3295C137.813 58.5279 136.269 53.0561 135.819 51.505C135.524 50.4921 133.403 44.3608 132.549 41.1499C132.264 40.0797 132.121 39.3347 132.233 39.2114C133.006 38.3606 133.783 38.8297 133.945 39.5066C134.105 40.1816 137.772 49.3674 138.422 51.1146C139.072 52.8618 142.588 62.8353 142.796 64.6912C143.002 66.5472 142.987 70.2039 141.75 72.8912C140.514 75.5786 139.38 77.5142 139.695 79.8208C140.009 82.1265 143.524 95.0019 144.281 98.1875C145.078 101.535 149.725 120.431 150.971 123.699C152.219 126.969 153.443 132.613 154.583 135.921C155.936 139.847 159.504 150.268 159.504 150.268C159.382 151.728 159.474 153.595 157.979 154.85C156.854 155.796 154.367 157.068 152.109 156.075C150.475 155.356 149.319 152.232 148.784 149.981C148.249 147.728 147.815 140.515 147.234 135.582C146.665 130.747 143.023 113.901 142.193 109.556C141.302 104.901 139.332 93.8656 137.917 88.5346C136.541 83.3464 133.734 78.837 133.734 78.837C133.734 78.837 130.723 75.0483 128.255 72.5571C125.787 70.065 124.871 65.2108 124.255 59.9138C123.604 54.3157 122.72 45.5612 122.72 45.5612Z" fill="#FF5E3C"/>
<path d="M82.0119 70.6831C86.6029 68.7602 93.8372 73.6527 96.8958 82.1011C97.7852 83.7393 100.372 92.3545 100.839 94.1628C101.305 95.9712 101.805 99.5934 100.96 102.428C100.115 105.263 99.2649 107.339 99.9011 109.578C100.537 111.817 105.831 124.068 107.03 127.115C108.291 130.317 115.555 148.37 117.249 151.43C118.945 154.49 120.952 159.906 122.548 163.02C124.44 166.716 129.441 176.531 129.441 176.531C129.526 177.993 129.88 179.829 128.578 181.282C127.597 182.377 125.314 183.987 122.938 183.322C121.22 182.84 119.635 179.91 118.787 177.757C117.94 175.602 116.494 168.522 115.224 163.721C113.979 159.013 107.999 142.849 106.565 138.664C105.027 134.181 101.521 123.534 99.3691 118.456C97.2759 113.513 93.8617 109.444 93.8617 109.444C93.8617 109.444 90.3466 106.118 87.5517 103.999C84.7575 101.88 81.5562 97.5423 79.3297 92.4277C71.7865 75.0999 82.0119 70.6831 82.0119 70.6831Z" fill="#B13F25"/>
<path d="M83.6089 76.5481C81.6084 76.8651 78.7746 80.2163 83.4427 91.0851C88.1109 101.954 91.6119 103.508 92.7789 102.926" stroke="white"/>
<path d="M183.077 79.7376C182.93 80.0343 182.964 80.3922 183.437 80.5128C183.912 80.6315 187.252 81.3091 188.3 83.1849C189.081 84.5841 189.871 87.3385 190.211 87.4629C190.552 87.5854 190.863 87.4859 190.856 87.283C190.85 87.082 191.459 82.9533 192.745 82.0058C194.345 80.8287 197.719 80.5377 197.74 79.774C197.748 79.4352 196.244 79.2821 194.887 78.9222C193.532 78.5624 191.6 77.1421 191.217 75.6702C190.833 74.1982 190.224 72.0602 189.955 72.0008C189.682 71.9434 189.661 75.4558 188.491 76.6368C187.384 77.7527 186.464 78.4245 185.401 78.8514C184.361 79.2668 183.185 79.5194 183.077 79.7376Z" fill="white"/>
<path d="M207.62 67.0184L207.62 67.0182C206.596 65.1732 204.494 63.9698 202.638 63.2075C200.988 62.5299 199.436 62.1637 198.808 62.0153C198.722 61.9951 198.653 61.9789 198.604 61.9666C198.301 61.8886 198.235 61.767 198.214 61.7086C198.187 61.6297 198.188 61.4974 198.26 61.3282C198.262 61.3273 198.263 61.3263 198.265 61.3253C198.311 61.2952 198.388 61.2549 198.504 61.205C198.734 61.1056 199.054 60.9948 199.446 60.8665C199.595 60.8177 199.753 60.7667 199.919 60.7135C200.606 60.4924 201.415 60.2323 202.182 59.9246L202.183 59.9242C204.17 59.1214 205.872 57.8622 207.881 55.8254L207.881 55.8251C208.482 55.2148 208.907 54.3378 209.221 53.4214C209.539 52.4964 209.761 51.4816 209.928 50.5551C210.029 50.0011 210.115 49.4469 210.189 48.9691C210.223 48.7521 210.254 48.5508 210.283 48.3725C210.419 48.7227 210.566 49.1513 210.72 49.6309C211.134 50.9242 211.575 52.538 211.918 53.8598C212.298 55.3283 213.422 56.7126 214.712 57.7949C216.008 58.8822 217.542 59.7244 218.84 60.0711L218.841 60.0712C219.631 60.2819 220.469 60.4582 221.215 60.6153C221.619 60.7003 221.997 60.7798 222.325 60.8559C222.811 60.9687 223.185 61.0727 223.43 61.1761C223.453 61.1859 223.474 61.1952 223.493 61.2039C223.486 61.2099 223.479 61.2162 223.472 61.2227C223.352 61.3262 223.153 61.4442 222.861 61.5745C222.28 61.8344 221.466 62.0856 220.52 62.3724C220.466 62.3888 220.412 62.4053 220.357 62.4219C218.544 62.9711 216.312 63.6472 214.84 64.7367L214.84 64.7368C214.158 65.2419 213.615 66.1242 213.181 67.0855C212.739 68.0627 212.379 69.192 212.096 70.2643C211.813 71.3388 211.603 72.369 211.464 73.1536C211.395 73.5461 211.343 73.8789 211.309 74.127C211.292 74.2508 211.279 74.3554 211.27 74.4369C211.267 74.4697 211.263 74.5065 211.26 74.5427C211.174 74.5644 211.023 74.5688 210.834 74.5118C210.817 74.4899 210.794 74.4563 210.764 74.4076C210.681 74.2734 210.581 74.0748 210.464 73.8135C210.231 73.2932 209.959 72.5878 209.655 71.7933C209.626 71.7171 209.597 71.6401 209.567 71.5624C208.987 70.0418 208.305 68.2532 207.62 67.0184ZM198.234 61.3476C198.234 61.3476 198.235 61.3466 198.237 61.3447C198.235 61.3466 198.234 61.3476 198.234 61.3476ZM223.576 61.102C223.576 61.1002 223.577 61.0993 223.577 61.0993C223.577 61.0993 223.577 61.1002 223.576 61.102ZM210.856 74.5372C210.859 74.5395 210.86 74.5409 210.86 74.5409C210.86 74.541 210.858 74.5398 210.856 74.5372Z" stroke="#FF5E3C"/>
<path d="M213.826 101.154L213.826 101.154C212.801 99.3088 210.699 98.1054 208.843 97.3431C207.194 96.6655 205.642 96.2993 205.013 96.151C204.928 96.1307 204.859 96.1145 204.81 96.1022C204.506 96.0242 204.44 95.9026 204.42 95.8442C204.393 95.7653 204.394 95.633 204.466 95.4639C204.467 95.4629 204.469 95.4619 204.47 95.4609C204.517 95.4308 204.594 95.3905 204.71 95.3406C204.94 95.2412 205.259 95.1304 205.652 95.0021C205.801 94.9533 205.959 94.9023 206.125 94.8491C206.812 94.6281 207.621 94.3679 208.387 94.0602L208.388 94.0598C210.376 93.257 212.078 91.9978 214.086 89.961L214.087 89.9607C214.688 89.3504 215.113 88.4734 215.427 87.557C215.745 86.632 215.966 85.6172 216.134 84.6907C216.234 84.1367 216.321 83.5825 216.395 83.1048C216.429 82.8877 216.46 82.6864 216.489 82.5081C216.624 82.8583 216.772 83.2869 216.926 83.7665C217.34 85.0598 217.781 86.6737 218.123 87.9954C218.504 89.464 219.628 90.8483 220.918 91.9305C222.214 93.0178 223.748 93.86 225.046 94.2067L225.046 94.2068C225.836 94.4175 226.674 94.5939 227.421 94.7509C227.825 94.836 228.202 94.9154 228.531 94.9916C229.017 95.1044 229.391 95.2083 229.636 95.3118C229.659 95.3215 229.68 95.3308 229.699 95.3395C229.692 95.3455 229.685 95.3518 229.677 95.3583C229.557 95.4618 229.358 95.5799 229.067 95.7101C228.486 95.97 227.672 96.2212 226.726 96.508C226.672 96.5244 226.618 96.5409 226.563 96.5575C224.749 97.1068 222.517 97.7828 221.046 98.8723L221.045 98.8724C220.364 99.3775 219.821 100.26 219.387 101.221C218.945 102.198 218.585 103.328 218.302 104.4C218.018 105.474 217.808 106.505 217.67 107.289C217.601 107.682 217.549 108.015 217.515 108.263C217.497 108.386 217.484 108.491 217.476 108.572C217.472 108.605 217.469 108.642 217.466 108.678C217.38 108.7 217.229 108.704 217.04 108.647C217.023 108.626 216.999 108.592 216.969 108.543C216.887 108.409 216.787 108.21 216.67 107.949C216.437 107.429 216.165 106.723 215.861 105.929C215.832 105.853 215.803 105.776 215.773 105.698C215.193 104.177 214.511 102.389 213.826 101.154ZM204.44 95.4832C204.44 95.4832 204.441 95.4822 204.443 95.4803C204.441 95.4823 204.44 95.4832 204.44 95.4832ZM229.782 95.2376C229.782 95.2358 229.782 95.2349 229.782 95.2349C229.782 95.2349 229.782 95.2358 229.782 95.2376ZM217.062 108.673C217.064 108.675 217.066 108.677 217.065 108.677C217.065 108.677 217.064 108.675 217.062 108.673Z" stroke="#FF5E3C"/>
</svg>
