<svg id="Layer_1" data-name="Layer 1" xmlns="http://www.w3.org/2000/svg" viewBox="0 0 220 56"><g id="Layer_2" data-name="Layer 2"><g id="Layer_1-2" data-name="Layer 1-2"><path d="M62.87,8.59V19.44h2.77A5.35,5.35,0,0,0,70.94,14h0a5.26,5.26,0,0,0-5.1-5.43h-3Zm2.77-3.4a8.83,8.83,0,1,1,0,17.66h-6.1a.44.44,0,0,1-.44-.44V5.64a.44.44,0,0,1,.44-.44Z" style="fill:#ef3b24"/><path d="M88.08,19.82A5.8,5.8,0,1,0,82.27,14a5.8,5.8,0,0,0,5.81,5.8h0m0-15A9.35,9.35,0,0,1,97.67,14a9.6,9.6,0,0,1-19.18,0,9.35,9.35,0,0,1,9.59-9.22" style="fill:#ef3b24"/><path d="M110.87,19.82a5.8,5.8,0,1,0-5.8-5.8h0a5.82,5.82,0,0,0,5.8,5.8m0-15A9.35,9.35,0,0,1,120.46,14a9.6,9.6,0,0,1-19.18,0,9.35,9.35,0,0,1,9.59-9.22" style="fill:#ef3b24"/><path d="M133.17,8.59h-3.91v4.67h3.91a2.29,2.29,0,0,0,2.39-2.18h0a.14.14,0,0,0,0-.09,2.32,2.32,0,0,0-2.24-2.4h-.15m-7.7-2.94a.44.44,0,0,1,.44-.44h7.37A5.82,5.82,0,0,1,139.33,11a5.71,5.71,0,0,1-3.15,5.17l3.41,6a.45.45,0,0,1-.12.61h0a.45.45,0,0,1-.28.07h-3a.45.45,0,0,1-.4-.24l-3.27-5.94h-3.28v5.71a.44.44,0,0,1-.44.43H126a.44.44,0,0,1-.44-.43Z" style="fill:#ef3b24"/><path d="M149.2,8.67V19.53H152a5.37,5.37,0,0,0,5.3-5.43h0a5.26,5.26,0,0,0-5.1-5.42h-3ZM152,5.27a8.83,8.83,0,1,1,0,17.66h-6.1a.44.44,0,0,1-.44-.44V5.73a.44.44,0,0,1,.44-.44Z" style="fill:#ef3b24"/><path d="M172.6,9.58l-2.15,5.81h4.29Zm-3.41,9.09-1.41,3.86a.43.43,0,0,1-.43.3h-3a.44.44,0,0,1-.48-.39.51.51,0,0,1,0-.24l6.59-16.74a.43.43,0,0,1,.43-.3h3.42a.45.45,0,0,1,.44.3l6.58,16.74a.44.44,0,0,1-.2.59h0a.37.37,0,0,1-.23,0h-3a.43.43,0,0,1-.43-.3L176,18.67Z" style="fill:#ef3b24"/><path d="M184.86,10c0-2.77,2.39-5.17,6.18-5.17a7.8,7.8,0,0,1,5.49,2.1.45.45,0,0,1,0,.64l-1.7,1.7a.44.44,0,0,1-.62,0h0a4.46,4.46,0,0,0-2.93-1.16c-1.51,0-2.63.88-2.63,1.9,0,3.28,8.95,1.39,8.95,7.69,0,3.16-2.4,5.56-6.69,5.56a9,9,0,0,1-6.38-2.57.44.44,0,0,1,0-.62v0l1.63-1.64a.44.44,0,0,1,.62,0h0A5.6,5.6,0,0,0,190.63,20c1.9,0,3.15-1,3.15-2.27,0-3.28-8.95-1.39-8.95-7.7" style="fill:#ef3b24"/><path d="M213.83,5.63v6.6h-7.57V5.65a.44.44,0,0,0-.44-.44h-2.89a.43.43,0,0,0-.44.44V22.37a.43.43,0,0,0,.41.46h2.9a.44.44,0,0,0,.44-.44V15.66h7.57v6.71a.43.43,0,0,0,.41.46h2.94a.44.44,0,0,0,.46-.41V5.63a.44.44,0,0,0-.42-.46h-2.93a.44.44,0,0,0-.46.42v0Z" style="fill:#ef3b24"/><path d="M44.16,7.48a11.1,11.1,0,0,0-9.82-5.87H3.24A1.07,1.07,0,0,0,2.17,2.69a1.11,1.11,0,0,0,.31.74l6.78,6.82a3.18,3.18,0,0,0,2.26.94H33.45a2.83,2.83,0,0,1,.06,5.66H18.39a1.06,1.06,0,0,0-.75,1.82l6.77,6.82a3.19,3.19,0,0,0,2.26.94h6.84c8.89,0,15.61-9.51,10.65-18.95" style="fill:#ef3b24"/></g></g><path d="M59.86,38.07H70v2.06H62.12v4h6.19v2.06H62.12V52.5H59.86Z" style="fill:#717272"/><path d="M79.84,50.55a7.42,7.42,0,0,1,0-10.53A7.91,7.91,0,0,1,90.7,40a7.4,7.4,0,0,1,0,10.53,7.93,7.93,0,0,1-10.86,0Zm1.63-9.07a5.42,5.42,0,1,0,3.8-1.56A5.18,5.18,0,0,0,81.47,41.48Z" style="fill:#717272"/><path d="M102.24,52.5V38.07h6.08a4.6,4.6,0,0,1,3.32,1.28A4.23,4.23,0,0,1,113,42.5a4.79,4.79,0,0,1-.29,1.66,3.56,3.56,0,0,1-.73,1.22,8.39,8.39,0,0,1-.84.77,3.14,3.14,0,0,1-.73.45l-.29.13,3.3,5.77h-2.48l-3.09-5.57h-3.3V52.5ZM110,44.19a2.37,2.37,0,0,0-1.69-4.06H104.5v4.74h3.82A2.32,2.32,0,0,0,110,44.19Z" style="fill:#717272"/><path d="M143.07,38.07l3.5,11,3.51-11h2.37L147.71,52.5h-2.27l-3.51-10.93-3.5,10.93h-2.27l-4.74-14.43h2.37l3.51,11,3.5-11Z" style="fill:#717272"/><path d="M162.12,50.55a7.42,7.42,0,0,1,0-10.53A7.92,7.92,0,0,1,173,40a7.42,7.42,0,0,1,0,10.53,7.94,7.94,0,0,1-10.87,0Zm1.63-9.07a5.42,5.42,0,1,0,3.81-1.56A5.17,5.17,0,0,0,163.75,41.48Z" style="fill:#717272"/><path d="M184.52,52.5V38.07h6.08a4.6,4.6,0,0,1,3.32,1.28,4.21,4.21,0,0,1,1.32,3.15,4.57,4.57,0,0,1-.3,1.66,3.71,3.71,0,0,1-.72,1.22,8.45,8.45,0,0,1-.85.77,3,3,0,0,1-.73.45l-.29.13,3.3,5.77h-2.47l-3.1-5.57h-3.29V52.5Zm7.77-8.31a2.37,2.37,0,0,0-1.69-4.06h-3.81v4.74h3.81A2.31,2.31,0,0,0,192.29,44.19Z" style="fill:#717272"/><path d="M207.25,38.07v7l6.5-7h2.88l-5.56,6,6,8.45h-2.79l-4.74-6.8-2.27,2.47V52.5H205V38.07Z" style="fill:#717272"/></svg>