<svg width="310" height="240" viewBox="0 0 310 240" fill="none" xmlns="http://www.w3.org/2000/svg">
<path d="M21.1061 133.211C10.5497 90.3396 40.0337 23.9747 101.537 58.3442C145.8 88.5104 183.93 41.982 235.329 37.1977C275.478 33.4607 298.706 83.5632 288.669 115.101C273.757 161.957 204.658 139.38 195.18 177.193C168 214 87.9479 205.145 67.5 193C47.0521 180.855 33.2424 182.497 21.1061 133.211Z" fill="#F9EFB3"/>
<path d="M148.421 56.8426L142.947 54C142.947 54 113.952 54.5547 108.887 54.6376C103.563 54.7223 97.8677 54.9539 97.8677 54.9539L94.6536 58.7037L148.421 56.8426Z" fill="#E6E5D8"/>
<path d="M148.504 56.635C141.243 57.48 122.463 57.4627 115.103 57.7893C111.994 57.9293 96.9986 57.4092 94.6554 58.7086C93.508 78.7987 93.724 99.1773 90.8883 119.205C90.8105 119.762 91.0905 119.91 92.0219 119.914C110.152 119.957 132.278 120.021 150.4 120.363C151.373 120.382 151.485 119.834 151.411 119.26C150.085 108.858 150.101 98.5656 149.373 88.0039C148.981 82.3135 149.187 77.831 149.01 70.969C148.969 69.3498 148.905 59.3497 148.504 59.2806V56.635Z" fill="#F7F7F7"/>
<path d="M150.325 104.695L151.355 118.649C151.355 118.649 151.87 120.284 150.546 120.356C147.821 120.51 123.647 119.987 117.694 119.987C111.743 119.987 92.5948 119.885 92.5948 119.885C92.5948 119.885 91.3731 120.163 91.4595 118.946C91.6668 116.007 92.7814 104.398 92.7814 104.398L150.325 104.695Z" fill="#E6E5D8"/>
<path d="M132.616 85.4403C132.65 87.8008 131.923 90.2286 130.399 92.3887C128.733 94.7509 126.409 95.938 123.519 95.8499C118.731 95.7065 114.812 93.9128 112.298 89.6411C111.38 88.0807 110.843 86.3924 110.927 84.5659C110.974 83.5826 111.256 82.6219 111.703 81.7527C113.013 79.2297 114.658 76.9608 117.065 75.3624C118.89 74.1511 120.922 73.7571 123.073 74.1528C127.85 75.0306 131.707 78.2949 132.522 83.2647C132.626 83.8937 132.572 84.521 132.616 85.4403Z" fill="#FF3008"/>
<path d="M115.32 82.565C115.703 83.2839 115.594 83.7729 116.218 84.3639C116.84 84.9566 117.213 85.3109 117.578 85.3005C117.943 85.2901 120.241 84.986 121.575 84.9514C122.911 84.9152 124.001 84.8875 124.139 85.4906C124.278 86.0954 124.286 86.46 123.319 86.6069C122.351 86.7538 120.286 86.6881 119.925 86.8177C119.564 86.949 118.226 86.8626 118.848 87.4536C119.47 88.0446 120.858 89.5324 121.24 89.4875C121.876 89.4097 124.234 89.3285 125.088 89.2318C126.512 89.0745 127.663 86.6743 127.54 85.5234C127.419 84.3777 126.242 82.3974 124.905 82.3127C123.566 82.2263 119.685 82.3283 118.834 82.3508C117.986 82.375 115.32 82.565 115.32 82.565Z" fill="white"/>
<path d="M124.667 113.198C124.667 93.9483 140.272 78.3431 159.522 78.3431V78.3431C178.772 78.3431 194.377 93.9483 194.377 113.198V114.858H124.667V113.198Z" fill="#E6E5D8"/>
<rect x="122.454" y="112.645" width="74.1361" height="6.63905" fill="#C7C6B7"/>
<rect x="61" y="119.29" width="187" height="9" fill="white"/>
<rect x="78" y="128.29" width="147" height="43" fill="#C7C6B7"/>
<path d="M172.984 160.631L180.075 122.683H192.533L197.516 160.631L183.908 146.065L172.984 160.631Z" stroke="#FFF0ED"/>
<path d="M178.247 99.9715C176.718 100.528 175.606 99.5543 174.28 100.728C173.408 101.5 173.624 103.273 173.104 104.141C172.27 105.532 170.045 104.837 169.489 106.783C168.933 108.729 170.88 110.953 169.767 111.787C168.655 112.622 167.682 113.317 168.098 114.567C168.72 116.433 170.405 116.249 170.601 117.626C170.88 119.572 169.211 121.24 170.045 122.352C170.88 123.464 173.382 123.186 173.659 124.576C173.938 125.966 172.547 126.522 173.938 127.913C175.329 129.302 178.386 127.357 179.221 128.469C180.055 129.581 179.499 130.971 181.445 131.527C183.392 132.083 183.666 129.611 185.894 129.859C187.146 129.998 188.396 132.083 190.064 131.527C191.733 130.971 191.733 127.913 193.679 128.191C195.626 128.469 195.756 128.948 197.294 128.052C198.962 127.078 197.232 125.155 198.267 123.603C199.102 122.352 200.213 123.742 201.465 121.518C202.027 120.519 199.796 118.738 200.909 117.348C202.021 115.958 203.272 116.375 203.272 114.289C203.272 112.792 200.909 112.404 200.909 109.841C200.909 108.729 201.882 107.617 201.187 106.088C200.672 104.956 198.406 105.671 197.85 103.724C197.294 101.778 198.128 101.5 196.738 100.389C195.348 99.2763 193.123 101.222 192.288 99.8324C191.455 98.442 191.733 97.0523 189.786 97.3304C187.841 97.6077 187.007 99.2763 185.338 98.442C183.669 97.6077 183.598 96.5656 181.306 97.1906C179.777 97.6077 179.777 99.4153 178.247 99.9715Z" fill="#B13F25"/>
<path d="M177.831 103.631C175.185 105.157 173.933 107.931 173.098 110.844C172.309 113.594 173.236 119.167 175.046 121.525C176.857 123.883 180.197 126.935 184.931 126.935C188.145 126.935 193.143 125.27 195.232 122.774C197.321 120.277 199.13 116.254 198.434 111.677C197.824 107.661 193.726 103.67 190.36 102.105C188.271 101.134 185.765 100.857 182.703 101.55C180.38 102.076 177.831 103.631 177.831 103.631Z" fill="#EDB9B6"/>
<path d="M177.892 112.071C177.892 112.956 182.038 114.7 182.038 115.254C182.038 115.807 180.103 121.067 180.518 121.205C180.932 121.344 184.664 117.745 185.494 117.883C186.323 118.022 190.331 121.344 190.745 121.067C191.161 120.79 189.087 115.669 189.363 115.254C189.64 114.839 193.51 112.486 193.51 111.932C193.51 111.378 187.982 111.932 187.704 111.517C187.429 111.102 186.184 105.981 185.632 105.981C185.078 105.981 183.834 111.378 183.282 111.517C182.729 111.655 177.892 111.24 177.892 112.071Z" fill="#FFF0ED"/>
</svg>
