<?xml version="1.0" standalone="no"?>
<!DOCTYPE svg PUBLIC "-//W3C//DTD SVG 1.1//EN" "http://www.w3.org/Graphics/SVG/1.1/DTD/svg11.dtd" >
<svg xmlns="http://www.w3.org/2000/svg" xmlns:xlink="http://www.w3.org/1999/xlink" version="1.1">
<metadata>
Created by FontForge 20170731 at Wed Feb 25 21:35:28 2015
 By Aleksey,,,
Copyright (c) 2012 by ARS Type-Angus R. Shamal. All rights reserved.
</metadata>
<defs>
<font id="SQMarket-Medium" horiz-adv-x="576" >
  <font-face 
    font-family="SQ Market Light"
    font-weight="500"
    font-stretch="normal"
    units-per-em="1000"
    panose-1="2 0 0 0 0 0 0 0 0 0"
    ascent="800"
    descent="-200"
    x-height="528"
    cap-height="714"
    bbox="-167 -200 3036 1000"
    underline-thickness="50"
    underline-position="-200"
    unicode-range="U+0002-FEFF"
  />
<missing-glyph horiz-adv-x="574" 
d="M40 0v714h494v-714h-494zM504 684h-416l416 -628v628zM70 658v-628h415z" />
    <glyph glyph-name="fi" unicode="fi" horiz-adv-x="601" 
d="M347 714l-15 -97q-24 9 -50 9q-54 0 -54 -44v-54h111v-102h-111v-426h-127v426h-80v102h80v60q0 138 158 138q45 0 88 -12zM536 603h-127v111h127v-111zM536 0h-127v528h127v-528z" />
    <glyph glyph-name="fl" unicode="fl" horiz-adv-x="601" 
d="M347 714l-15 -97q-24 9 -50 9q-54 0 -54 -44v-54h111v-102h-111v-426h-127v426h-80v102h80v60q0 138 158 138q45 0 88 -12zM537 0h-127v714h127v-714z" />
    <glyph glyph-name="r_f" unicode="rf" horiz-adv-x="744" 
d="M365 532v-106q-174 0 -174 -175v-251h-127v528h127v-69q45 78 140 78q21 0 34 -5zM731 714l-14 -97q-24 9 -50 9q-55 0 -55 -44v-54h112v-102h-112v-426h-126v426h-81v102h81v60q0 138 157 138q47 0 88 -12z" />
    <glyph glyph-name="r_t" unicode="rt" horiz-adv-x="791" 
d="M365 532v-106q-174 0 -174 -175v-251h-127v528h127v-69q45 78 140 78q21 0 34 -5zM746 114l27 -99q-41 -27 -113 -27q-159 0 -159 162v276h-97v102h97v186h126v-186h131v-102h-131v-256q0 -73 63 -73q33 0 56 17z" />
    <glyph glyph-name="uniFDFC" unicode="&#xfdfc;" horiz-adv-x="994" arabic-form="isolated" 
d="M189 -13q-49 0 -87 16.5t-59 42t-31.5 52.5t-10.5 53l105 45q0 -47 22 -75t64 -28q37 0 59.5 24t22.5 74v523h122v-500q0 -108 -56 -167.5t-151 -59.5zM456 0v100h82v-100h-82zM591 0v100h82v-100h-82zM703 -184q-74 0 -112 22v98q39 -23 102 -23q76 0 124 45t48 132
q0 46 -18 82v143q52 -32 89 -94.5t37 -142.5q0 -117 -76.5 -189.5t-193.5 -72.5zM656 172q-98 0 -149 53t-51 152v337h122v-348q0 -45 16 -65t54 -20h41v33q0 42 -35 70l38 66q36 -18 67.5 -57t31.5 -89v-132h-135z" />
    <glyph glyph-name=".notdef" horiz-adv-x="574" 
d="M40 0v714h494v-714h-494zM504 684h-416l416 -628v628zM70 658v-628h415z" />
    <glyph glyph-name=".null" horiz-adv-x="0" 
 />
    <glyph glyph-name="nonmarkingreturn" horiz-adv-x="333" 
 />
    <glyph glyph-name="NULL" horiz-adv-x="0" 
 />
    <glyph glyph-name="NULL" horiz-adv-x="0" 
 />
    <glyph glyph-name="uni0002" horiz-adv-x="270" 
 />
    <glyph glyph-name="CR" unicode="&#xd;" horiz-adv-x="189" 
 />
    <glyph glyph-name="space" unicode=" " horiz-adv-x="270" 
 />
    <glyph glyph-name="exclam" unicode="!" horiz-adv-x="275" 
d="M206 560l-35 -337h-66l-36 337v154h137v-154zM208 0h-141v141h141v-141z" />
    <glyph glyph-name="quotedbl" unicode="&#x22;" horiz-adv-x="420" 
d="M166 426h-100v288h100v-288zM354 426h-100v288h100v-288z" />
    <glyph glyph-name="numbersign" unicode="#" horiz-adv-x="575" 
d="M542 443h-89l-29 -171h118v-74h-131l-35 -198h-82l35 198h-139l-35 -198h-83l34 198h-74v74h87l30 171h-117v74h130l36 197h82l-35 -197h140l35 197h82l-35 -197h75v-74zM372 443h-140l-29 -171h139z" />
    <glyph glyph-name="dollar" unicode="$" 
d="M320 -59h-57v48q-81 6 -143.5 43t-97.5 99l98 61q47 -87 143 -98v210q-216 51 -216 211q0 90 60 144.5t156 58.5v47h57v-49q133 -15 204 -122l-91 -56q-45 57 -113 72v-192q43 -11 77 -25.5t68.5 -39t53.5 -62.5t19 -87q0 -87 -58.5 -147t-159.5 -67v-49zM421 193
q0 40 -24.5 61t-76.5 36v-198q48 4 74.5 31t26.5 70zM167 525q0 -38 25 -59t71 -34v182q-42 -3 -69 -25.5t-27 -63.5z" />
    <glyph glyph-name="percent" unicode="%" horiz-adv-x="797" 
d="M372 554q0 -72 -47.5 -121t-119.5 -49t-119.5 49t-47.5 121t47.5 121t119.5 49t119.5 -49t47.5 -121zM673 714l-451 -714h-97l451 714h97zM760 161q0 -73 -47.5 -122t-119.5 -49q-71 0 -118.5 49t-47.5 122q0 71 47.5 120t118.5 49q72 0 119.5 -49t47.5 -120zM287 554
q0 37 -23 61.5t-59 24.5t-59 -24.5t-23 -61.5t23 -61.5t59 -24.5t59 24.5t23 61.5zM675 161q0 36 -23 60.5t-59 24.5t-59 -24.5t-23 -60.5q0 -37 23 -62t59 -25t59 25t23 62z" />
    <glyph glyph-name="ampersand" unicode="&#x26;" horiz-adv-x="682" 
d="M527 0l-46 56q-98 -69 -207 -69t-170 56t-61 146q0 70 36.5 114.5t120.5 97.5q-35 44 -52.5 79.5t-17.5 78.5q0 76 53 122t132 46q75 0 126 -41.5t51 -110.5q0 -55 -35 -98t-102 -90l145 -174q35 42 54 85l90 -49q-23 -52 -78 -115l112 -134h-151zM290 92q62 0 126 43
l-154 190q-48 -33 -69 -60t-21 -64q0 -48 32 -78.5t86 -30.5zM248 563q0 -45 46 -103q47 31 66.5 54.5t19.5 53.5q0 31 -18 48.5t-46 17.5q-29 0 -48.5 -18.5t-19.5 -52.5z" />
    <glyph glyph-name="quotesingle" unicode="'" horiz-adv-x="232" 
d="M166 426h-100v288h100v-288z" />
    <glyph glyph-name="parenleft" unicode="(" horiz-adv-x="306" 
d="M217 804l76 -52q-145 -192 -145 -419t145 -419l-76 -52q-177 216 -177 471t177 471z" />
    <glyph glyph-name="parenright" unicode=")" horiz-adv-x="306" 
d="M13 752l75 52q178 -215 178 -471t-178 -471l-75 52q144 191 144 419t-144 419z" />
    <glyph glyph-name="asterisk" unicode="*" horiz-adv-x="386" 
d="M208 530q23 -70 23 -132h-78q0 56 25 132q-53 -58 -102 -87l-39 68q51 29 126 45q-75 16 -126 45l39 68q49 -29 102 -87q-25 76 -25 132h78q0 -62 -23 -132q53 58 102 87l39 -68q-50 -29 -127 -45q77 -16 127 -45l-39 -68q-49 29 -102 87z" />
    <glyph glyph-name="plus" unicode="+" 
d="M552 210h-211v-210h-107v210h-211v107h211v211h107v-211h211v-107z" />
    <glyph glyph-name="comma" unicode="," horiz-adv-x="250" 
d="M196 141v-104q0 -62 -24.5 -109.5t-79.5 -90.5l-42 49q68 52 68 111v3h-65v141h143z" />
    <glyph glyph-name="hyphen" unicode="-" horiz-adv-x="387" 
d="M333 210h-280v107h280v-107z" />
    <glyph glyph-name="period" unicode="." horiz-adv-x="250" 
d="M196 0h-142v141h142v-141z" />
    <glyph glyph-name="slash" unicode="/" horiz-adv-x="381" 
d="M353 714l-220 -714h-104l220 714h104z" />
    <glyph glyph-name="zero" unicode="0" 
d="M541 356q0 -75 -13.5 -138.5t-42 -116.5t-79 -83.5t-118.5 -30.5t-118.5 30.5t-79 83.5t-42 116.5t-13.5 138.5t13.5 139t42 117.5t79 84t118.5 30.5t118.5 -30.5t79 -84t42 -117.5t13.5 -139zM406 357q0 260 -118 260q-119 0 -119 -260q0 -261 119 -261q118 0 118 261z
" />
    <glyph glyph-name="one" unicode="1" horiz-adv-x="465" 
d="M99 473l-65 99l208 142h114v-714h-132v559z" />
    <glyph glyph-name="two" unicode="2" 
d="M534 0h-500v17q0 70 48.5 138t155.5 163q87 76 108 101q39 46 39 91q0 47 -31.5 73t-80.5 26q-47 0 -85.5 -25t-59.5 -71l-105 61q38 70 104.5 111.5t155.5 41.5q108 0 175.5 -59t67.5 -158q0 -65 -29.5 -112.5t-87.5 -95.5q-25 -21 -75.5 -59t-86 -68t-52.5 -55h339
v-120z" />
    <glyph glyph-name="three" unicode="3" 
d="M239 331l-56 54l163 208h-293v121h458v-84l-145 -185q78 -11 127 -67.5t49 -142.5q0 -102 -70 -175t-200 -73q-171 0 -252 150l103 61q47 -94 146 -94q60 0 99 35.5t39 94.5q0 51 -30 83.5t-78 32.5q-32 0 -60 -19z" />
    <glyph glyph-name="four" unicode="4" 
d="M547 157h-86v-157h-132v157h-305v102l296 455h141v-446h86v-111zM146 268h186v285z" />
    <glyph glyph-name="five" unicode="5" 
d="M279 -13q-180 0 -246 150l110 57q17 -42 51.5 -66t81.5 -24q58 0 95 35t37 96q0 60 -36.5 94t-98.5 34q-84 0 -140 -66l-72 35l24 382h420v-121h-315l-14 -162q48 38 132 38q102 0 169 -64t67 -168q0 -103 -69 -176.5t-196 -73.5z" />
    <glyph glyph-name="six" unicode="6" 
d="M513 678l-49 -101q-51 35 -120 35q-87 0 -133 -55t-46 -150q21 27 61 46.5t95 19.5q100 0 165.5 -64.5t65.5 -169.5q0 -107 -69.5 -179.5t-187.5 -72.5q-124 0 -193 92t-69 264q0 177 72 277q79 106 232 106q106 0 176 -48zM172 242q0 -58 33 -99.5t94 -41.5q56 0 87 36
t31 95t-31 97t-91 38q-55 0 -89 -33.5t-34 -91.5z" />
    <glyph glyph-name="seven" unicode="7" 
d="M544 714v-96l-316 -618h-145l311 593h-357v121h507z" />
    <glyph glyph-name="eight" unicode="8" 
d="M287 94q54 0 85 30.5t31 86.5q0 55 -30 85t-86 30t-86 -30.5t-30 -85.5q0 -56 31 -86t85 -30zM287 426q44 0 73 23t29 73q0 51 -29 75t-73 24t-72.5 -24t-28.5 -75q0 -50 29 -73t72 -23zM287 -13q-117 0 -184.5 60.5t-67.5 154.5q0 61 30 108.5t86 70.5q-98 50 -98 157
q0 88 67 138.5t167 50.5q101 0 168 -50.5t67 -138.5q0 -108 -99 -157q57 -23 87 -70t30 -108q0 -94 -67.5 -155t-185.5 -61z" />
    <glyph glyph-name="nine" unicode="9" 
d="M62 35l51 102q50 -35 120 -35q86 0 132 55.5t46 151.5q-20 -28 -61 -48t-97 -20q-99 0 -164 64.5t-65 169.5q0 107 69 179.5t187 72.5q124 0 193.5 -92t69.5 -266q0 -177 -72 -275q-78 -106 -231 -106q-107 0 -178 47zM404 474q0 58 -33 98.5t-94 40.5q-56 0 -87 -36.5
t-31 -95.5q0 -58 31.5 -96t90.5 -38q55 0 89 34t34 93z" />
    <glyph glyph-name="colon" unicode=":" horiz-adv-x="294" 
d="M219 0h-143v141h143v-141zM219 387h-143v141h143v-141z" />
    <glyph glyph-name="semicolon" unicode=";" horiz-adv-x="294" 
d="M219 141v-102q0 -117 -104 -199l-42 48q68 52 68 111v1h-66v141h144zM219 387h-144v141h144v-141z" />
    <glyph glyph-name="less" unicode="&#x3c;" 
d="M463 63l-74 -75l-277 276l277 277l74 -75l-200 -202z" />
    <glyph glyph-name="equal" unicode="=" 
d="M544 314h-513v106h513v-106zM544 108h-513v106h513v-106z" />
    <glyph glyph-name="greater" unicode="&#x3e;" 
d="M463 264l-277 -276l-74 75l201 201l-201 202l74 75z" />
    <glyph glyph-name="question" unicode="?" horiz-adv-x="527" 
d="M483 525q0 -48 -19.5 -85.5t-47 -61t-55 -44t-47 -45t-19.5 -52.5v-18h-131v12q0 45 19 81.5t45.5 60.5t53.5 45.5t46 48t19 56.5q0 42 -30 66t-81 24q-76 0 -141 -62l-66 90q95 86 223 86q103 0 167 -54.5t64 -147.5zM303 0h-142v141h142v-141z" />
    <glyph glyph-name="at" unicode="@" horiz-adv-x="850" 
d="M530 213q-45 -68 -130 -68q-79 0 -126.5 57t-47.5 145t47.5 144.5t127.5 56.5q63 0 107 -51v43h100v-269q0 -63 54 -63q41 0 63.5 39.5t22.5 102.5q0 139 -85 227t-229 88q-142 0 -229 -91.5t-87 -224.5t87 -224t229 -91q93 0 160 44l29 -55q-89 -51 -193 -51
q-173 0 -281 107.5t-108 269.5q0 161 108.5 269.5t282.5 108.5q171 0 277.5 -107t106.5 -266q0 -94 -45.5 -150.5t-122.5 -56.5q-86 0 -118 66zM508 347q0 50 -24 83.5t-67 33.5q-42 0 -64.5 -33.5t-22.5 -83.5q0 -51 22.5 -84t64.5 -33q44 0 67.5 33t23.5 84z" />
    <glyph glyph-name="A" unicode="A" horiz-adv-x="694" 
d="M690 0h-149l-60 177h-273l-60 -177h-144l265 714h157zM447 288l-101 310l-105 -310h206z" />
    <glyph glyph-name="B" unicode="B" horiz-adv-x="685" 
d="M645 207q0 -93 -63 -150t-179 -57h-330v714h310q112 0 174 -47.5t62 -132.5q0 -50 -24 -90t-67 -64q117 -47 117 -173zM485 515q0 82 -109 82h-170v-172h175q50 0 77 23.5t27 66.5zM509 216q0 46 -27.5 72.5t-79.5 26.5h-196v-198h189q54 0 84 26t30 73z" />
    <glyph glyph-name="C" unicode="C" horiz-adv-x="698" 
d="M672 567l-105 -65q-64 106 -184 106q-96 0 -153 -69t-57 -181q0 -113 57.5 -182.5t154.5 -69.5q119 0 184 110l107 -62q-102 -167 -292 -167q-156 0 -252.5 103t-96.5 268q0 164 96 266.5t250 102.5q192 0 291 -160z" />
    <glyph glyph-name="D" unicode="D" horiz-adv-x="739" 
d="M206 120h148q102 0 156.5 63.5t54.5 173.5t-54.5 173t-156.5 63h-148v-473zM354 0h-281v714h281q164 0 256.5 -99.5t92.5 -257.5q0 -157 -92.5 -257t-256.5 -100z" />
    <glyph glyph-name="E" unicode="E" horiz-adv-x="635" 
d="M589 0h-516v714h506v-121h-373v-168h332v-110h-332v-195h383v-120z" />
    <glyph glyph-name="F" unicode="F" horiz-adv-x="605" 
d="M578 593h-372v-168h332v-110h-332v-315h-133v714h505v-121z" />
    <glyph glyph-name="G" unicode="G" horiz-adv-x="745" 
d="M386 608q-100 0 -156.5 -68.5t-56.5 -180.5q0 -116 57.5 -184.5t154.5 -68.5q81 0 133.5 44t59.5 125h-174v110h308q6 -23 6 -57q0 -146 -89.5 -243.5t-245.5 -97.5t-252 103.5t-96 268.5t96.5 266.5t255.5 101.5q95 0 169 -41t120 -116l-111 -62q-57 100 -179 100z" />
    <glyph glyph-name="H" unicode="H" horiz-adv-x="747" 
d="M674 0h-133v315h-335v-315h-133v714h133v-279h335v279h133v-714z" />
    <glyph glyph-name="I" unicode="I" horiz-adv-x="280" 
d="M206 0h-133v714h133v-714z" />
    <glyph glyph-name="J" unicode="J" horiz-adv-x="529" 
d="M329 231v483h133v-467q0 -116 -51 -181q-62 -79 -186 -79q-79 0 -136 35.5t-85 100.5l106 57q30 -76 112 -76q107 0 107 127z" />
    <glyph glyph-name="K" unicode="K" horiz-adv-x="689" 
d="M693 0h-160l-213 324l-114 -133v-191h-133v714h133v-348l298 348h162l-253 -291z" />
    <glyph glyph-name="L" unicode="L" horiz-adv-x="578" 
d="M558 0h-485v714h133v-594h352v-120z" />
    <glyph glyph-name="M" unicode="M" horiz-adv-x="898" 
d="M825 0h-131v530l-198 -530h-95l-199 529v-529h-129v714h187l190 -515l191 515h184v-714z" />
    <glyph glyph-name="N" unicode="N" horiz-adv-x="745" 
d="M672 0h-145l-325 530v-530h-129v714h161l310 -505v505h128v-714z" />
    <glyph glyph-name="O" unicode="O" horiz-adv-x="768" 
d="M734 357q0 -160 -95.5 -265t-254.5 -105t-254.5 105t-95.5 265t95.5 265t254.5 105t254.5 -105t95.5 -265zM596 357q0 109 -56.5 177t-155.5 68q-98 0 -154.5 -68t-56.5 -177t56.5 -177t154.5 -68q99 0 155.5 68t56.5 177z" />
    <glyph glyph-name="P" unicode="P" horiz-adv-x="651" 
d="M206 379h169q59 0 90.5 28t31.5 80q0 51 -31.5 78.5t-90.5 27.5h-169v-214zM376 258h-170v-258h-133v714h303q120 0 188 -62t68 -166q0 -105 -67.5 -166.5t-188.5 -61.5z" />
    <glyph glyph-name="Q" unicode="Q" horiz-adv-x="768" 
d="M734 358q0 -173 -106 -277l55 -64l-87 -72l-60 75q-68 -33 -152 -33q-159 0 -254.5 105.5t-95.5 265.5q0 159 95.5 264t254.5 105t254.5 -105t95.5 -264zM596 358q0 108 -57 176t-155 68t-154.5 -68t-56.5 -176q0 -110 56.5 -179t154.5 -69q35 0 68 14l-75 93l81 66
l82 -100q56 69 56 175z" />
    <glyph glyph-name="R" unicode="R" horiz-adv-x="674" 
d="M648 0h-147l-140 269h-155v-269h-133v714h318q117 0 182.5 -59.5t65.5 -157.5q0 -75 -38.5 -127t-105.5 -78zM503 487q0 49 -31.5 77.5t-83.5 28.5h-182v-214h180q53 0 85 29.5t32 78.5z" />
    <glyph glyph-name="S" unicode="S" horiz-adv-x="628" 
d="M303 614q-54 0 -90 -23t-36 -64q0 -31 26 -50t76 -32q13 -4 46.5 -12t53 -13t51.5 -15.5t52 -21t43.5 -27.5t37 -36t23 -46.5t9.5 -59.5q0 -99 -75 -163t-203 -64q-98 0 -174.5 39t-118.5 109l103 70q30 -53 83 -79t112 -26q65 0 103.5 27.5t38.5 73.5q0 20 -9.5 35.5
t-20.5 25t-37 18.5t-42 12.5t-51 11.5q-56 11 -95.5 24t-80.5 37t-62.5 62.5t-21.5 90.5q0 98 74 153.5t188 55.5q181 0 274 -131l-99 -68q-28 40 -75 63t-103 23z" />
    <glyph glyph-name="T" unicode="T" horiz-adv-x="639" 
d="M613 593h-228v-593h-132v593h-228v121h588v-121z" />
    <glyph glyph-name="U" unicode="U" horiz-adv-x="709" 
d="M643 714v-446q0 -131 -79.5 -206t-209.5 -75q-131 0 -209 75t-78 206v446h132v-446q0 -75 40.5 -116.5t114.5 -41.5q73 0 114.5 42t41.5 116v446h133z" />
    <glyph glyph-name="V" unicode="V" horiz-adv-x="649" 
d="M504 714h143l-253 -714h-139l-254 714h143l180 -547z" />
    <glyph glyph-name="W" unicode="W" horiz-adv-x="967" 
d="M949 714l-188 -714h-138l-142 504l-142 -504h-139l-182 714h143l117 -516l148 516h113l148 -517l117 517h145z" />
    <glyph glyph-name="X" unicode="X" horiz-adv-x="668" 
d="M669 0h-161l-175 274l-175 -274h-160l251 372l-232 342h158l160 -248l158 248h157l-231 -342z" />
    <glyph glyph-name="Y" unicode="Y" horiz-adv-x="641" 
d="M643 714l-256 -417v-297h-134v297l-254 417h154l169 -291l168 291h153z" />
    <glyph glyph-name="Z" unicode="Z" horiz-adv-x="643" 
d="M604 0h-567v108l376 485h-361v121h543v-103l-380 -491h389v-120z" />
    <glyph glyph-name="bracketleft" unicode="[" horiz-adv-x="298" 
d="M281 -134h-222v934h222v-87h-113v-760h113v-87z" />
    <glyph glyph-name="backslash" unicode="\" horiz-adv-x="381" 
d="M352 0h-105l-220 714h105z" />
    <glyph glyph-name="bracketright" unicode="]" horiz-adv-x="299" 
d="M240 -134h-222v87h112v760h-112v87h222v-934z" />
    <glyph glyph-name="asciicircum" unicode="^" 
d="M565 483l-74 -74l-203 202l-203 -202l-74 74l231 231h92z" />
    <glyph glyph-name="underscore" unicode="_" horiz-adv-x="586" 
d="M591 -125h-597v50h597v-50z" />
    <glyph glyph-name="grave" unicode="`" horiz-adv-x="324" 
d="M116 779l97 -188h-88l-105 139z" />
    <glyph glyph-name="a" unicode="a" horiz-adv-x="545" 
d="M485 0h-120v56q-52 -68 -151 -68q-83 0 -133 43t-50 120q0 31 8.5 56t24.5 41t33 27.5t41 19t40.5 11t38.5 6.5q90 13 112 24q29 14 29 42q0 30 -27.5 43t-66.5 13q-92 0 -165 -50l-46 93q95 63 221 63q98 0 154.5 -42.5t56.5 -131.5v-366zM358 201v60q-21 -16 -115 -32
q-42 -8 -64 -22.5t-22 -49.5q0 -34 22.5 -51.5t60.5 -17.5q50 0 84 28.5t34 84.5z" />
    <glyph glyph-name="b" unicode="b" horiz-adv-x="625" 
d="M64 714h127v-253q54 79 163 79q106 0 171.5 -78t65.5 -197q0 -120 -65.5 -198.5t-171.5 -78.5q-108 0 -163 80v-68h-127v714zM191 263q0 -71 35.5 -117.5t99.5 -46.5t98 46t34 118t-34 119t-98 47t-99.5 -47.5t-35.5 -118.5z" />
    <glyph glyph-name="c" unicode="c" horiz-adv-x="538" 
d="M515 418l-92 -60q-43 71 -120 71q-63 0 -100 -45.5t-37 -118.5q0 -75 37.5 -120.5t101.5 -45.5q76 0 126 70l86 -70q-82 -111 -221 -111q-118 0 -191 78t-73 198q0 119 72.5 197.5t189.5 78.5q146 0 221 -122z" />
    <glyph glyph-name="d" unicode="d" horiz-adv-x="625" 
d="M561 0h-127v68q-55 -80 -163 -80q-106 0 -171.5 77.5t-65.5 197.5t65.5 198.5t171.5 78.5q107 0 163 -80v254h127v-714zM434 264q0 71 -36 118t-100 47q-63 0 -97 -47t-34 -118q0 -72 33.5 -118.5t97.5 -46.5q65 0 100.5 46.5t35.5 118.5z" />
    <glyph glyph-name="e" unicode="e" 
d="M169 323h249q-4 58 -38 88.5t-85 30.5q-53 0 -87 -32.5t-39 -86.5zM32 262q0 121 70 199.5t191 78.5q116 0 183.5 -72t67.5 -187q0 -11 -3 -47h-373q1 -63 40 -98t100 -35q86 0 137 65l81 -77q-84 -101 -225 -101q-126 0 -197.5 76.5t-71.5 197.5z" />
    <glyph glyph-name="f" unicode="f" horiz-adv-x="359" 
d="M347 714l-15 -97q-24 9 -50 9q-54 0 -54 -44v-54h111v-102h-111v-426h-127v426h-80v102h80v60q0 138 158 138q45 0 88 -12z" />
    <glyph glyph-name="g" unicode="g" horiz-adv-x="625" 
d="M435 65v39q-25 -38 -69 -58.5t-97 -20.5q-103 0 -168.5 73t-65.5 183q0 111 66.5 185t169.5 74q113 0 164 -80v68h127v-437q0 -123 -56 -188q-76 -87 -225 -87q-135 0 -223 64l60 95q65 -51 159 -51q158 0 158 141zM435 284q0 65 -35.5 107t-99.5 42q-63 0 -97 -42
t-34 -107q0 -67 34 -110t97 -43t99 43t36 110z" />
    <glyph glyph-name="h" unicode="h" horiz-adv-x="588" 
d="M191 0h-127v714h127v-252q56 78 161 78q82 0 129 -53t47 -139v-348h-127v319q0 107 -90 107q-52 0 -86 -34.5t-34 -93.5v-298z" />
    <glyph glyph-name="i" unicode="i" horiz-adv-x="255" 
d="M191 603h-127v111h127v-111zM191 0h-127v528h127v-528z" />
    <glyph glyph-name="j" unicode="j" horiz-adv-x="254" 
d="M190 605h-126v109h126v-109zM190 528v-548q0 -163 -155 -163q-51 0 -83 13l19 97q18 -9 39 -9q28 0 41 15t13 55v540h126z" />
    <glyph glyph-name="k" unicode="k" horiz-adv-x="581" 
d="M191 287l215 241h152l-196 -210l219 -318h-152l-153 234l-85 -93v-141h-127v714h127v-427z" />
    <glyph glyph-name="l" unicode="l" horiz-adv-x="257" 
d="M192 0h-127v714h127v-714z" />
    <glyph glyph-name="m" unicode="m" horiz-adv-x="897" 
d="M514 0h-126v321q0 105 -87 105q-49 0 -79.5 -33.5t-30.5 -90.5v-302h-127v528h127v-64q54 76 153 76q53 0 91.5 -24.5t55.5 -67.5q29 43 74.5 67.5t98.5 24.5q82 0 127.5 -51.5t45.5 -137.5v-351h-126v321q0 105 -87 105q-48 0 -79 -33.5t-31 -90.5v-302z" />
    <glyph glyph-name="n" unicode="n" horiz-adv-x="588" 
d="M191 0h-127v528h127v-66q56 78 161 78q82 0 129 -53t47 -139v-348h-127v319q0 107 -90 107q-52 0 -86 -34.5t-34 -93.5v-298z" />
    <glyph glyph-name="o" unicode="o" horiz-adv-x="596" 
d="M564 263q0 -122 -72.5 -198.5t-193.5 -76.5t-193.5 76.5t-72.5 198.5q0 123 72.5 200t193.5 77t193.5 -77t72.5 -200zM430 264q0 75 -35 121.5t-97 46.5t-96.5 -46.5t-34.5 -121.5q0 -74 35 -121t96 -47q62 0 97 47t35 121z" />
    <glyph glyph-name="p" unicode="p" horiz-adv-x="625" 
d="M64 528h127v-67q54 79 163 79q106 0 171.5 -78t65.5 -197q0 -120 -65.5 -198.5t-171.5 -78.5q-108 0 -163 80v-242h-127v702zM191 265q0 -72 36 -119t100 -47q63 0 97 47t34 119q0 71 -34 117.5t-97 46.5q-65 0 -100.5 -46t-35.5 -118z" />
    <glyph glyph-name="q" unicode="q" horiz-adv-x="625" 
d="M561 -174h-127v242q-55 -80 -163 -80q-106 0 -171.5 77.5t-65.5 197.5t65.5 198.5t171.5 78.5q107 0 163 -80v68h127v-702zM434 264q0 71 -36 118t-100 47q-63 0 -97 -47t-34 -118q0 -72 33.5 -118.5t97.5 -46.5q65 0 100.5 46.5t35.5 118.5z" />
    <glyph glyph-name="r" unicode="r" horiz-adv-x="406" 
d="M404 520l-22 -114q-22 14 -62 14q-57 0 -93 -44.5t-36 -128.5v-247h-127v528h127v-70q24 37 62 58.5t82 21.5q45 0 69 -18z" />
    <glyph glyph-name="s" unicode="s" horiz-adv-x="513" 
d="M22 75l68 80q65 -66 170 -66q98 0 98 62q0 28 -26.5 39.5t-103.5 24.5q-41 7 -71.5 17t-59.5 27.5t-44.5 46.5t-15.5 69q0 82 60.5 123.5t153.5 41.5q131 0 219 -82l-68 -79q-24 27 -66 44t-90 17q-90 0 -90 -52q0 -35 66 -50q13 -3 52 -10q104 -18 155 -53.5t51 -108.5
q0 -82 -61.5 -130t-165.5 -48q-144 0 -231 87z" />
    <glyph glyph-name="t" unicode="t" horiz-adv-x="403" 
d="M358 114l27 -99q-40 -27 -113 -27q-159 0 -159 162v276h-96v102h96v186h127v-186h130v-102h-130v-256q0 -73 62 -73q33 0 56 17z" />
    <glyph glyph-name="u" unicode="u" horiz-adv-x="587" 
d="M397 528h126v-528h-126v66q-56 -78 -162 -78q-82 0 -129.5 53t-47.5 139v348h127v-318q0 -108 91 -108q53 0 87 34.5t34 93.5v298z" />
    <glyph glyph-name="v" unicode="v" horiz-adv-x="538" 
d="M535 528l-200 -528h-131l-201 528h142l126 -381l125 381h139z" />
    <glyph glyph-name="w" unicode="w" horiz-adv-x="786" 
d="M769 528l-143 -528h-132l-101 357l-103 -357h-130l-142 528h136l84 -355l102 355h109l102 -355l83 355h135z" />
    <glyph glyph-name="x" unicode="x" horiz-adv-x="551" 
d="M545 0h-153l-117 193l-117 -193h-153l187 276l-171 252h150l107 -175l103 175h149l-171 -252z" />
    <glyph glyph-name="y" unicode="y" horiz-adv-x="538" 
d="M60 -170l28 101q14 -9 37 -9q28 0 45.5 18.5t35.5 67.5l-204 520h143l127 -367l126 367h136l-203 -535q-39 -102 -80.5 -139.5t-109.5 -37.5q-53 0 -81 14z" />
    <glyph glyph-name="z" unicode="z" horiz-adv-x="512" 
d="M474 0h-440v94l258 324h-246v110h420v-92l-258 -326h266v-110z" />
    <glyph glyph-name="braceleft" unicode="{" horiz-adv-x="334" 
d="M310 -134h-47q-68 0 -109.5 44.5t-41.5 123.5v171q0 86 -68 86h-25v84h25q68 0 68 86v171q0 79 41.5 123.5t109.5 44.5h47v-85h-15q-75 0 -75 -87v-156q0 -108 -88 -139q88 -31 88 -138v-157q0 -87 75 -87h15v-85z" />
    <glyph glyph-name="bar" unicode="|" horiz-adv-x="215" 
d="M156 -48h-97v810h97v-810z" />
    <glyph glyph-name="braceright" unicode="}" horiz-adv-x="338" 
d="M320 291h-24q-74 0 -74 -86v-171q0 -80 -43 -124t-115 -44h-41v85h12q79 0 79 87v156q0 108 91 139q-91 31 -91 138v157q0 87 -79 87h-12v85h41q72 0 115 -44t43 -124v-171q0 -86 74 -86h24v-84z" />
    <glyph glyph-name="asciitilde" unicode="~" 
d="M67 224l-41 55q22 28 39.5 46t49 35t64.5 17q35 0 116 -34q74 -32 104 -32q53 0 108 45l42 -53q-75 -98 -154 -98q-34 0 -115 34q-66 31 -105 31q-53 0 -108 -46z" />
    <glyph glyph-name="uni00A0" unicode="&#xa0;" horiz-adv-x="270" 
 />
    <glyph glyph-name="exclamdown" unicode="&#xa1;" horiz-adv-x="273" 
d="M170 307l35 -332v-149h-137v149l36 332h66zM66 528h141v-141h-141v141z" />
    <glyph glyph-name="cent" unicode="&#xa2;" 
d="M527 418l-92 -59q-36 60 -94 70v-332q62 11 103 72l85 -70q-70 -97 -188 -109v-84h-58v84q-108 8 -173 84.5t-65 189.5t65 189.5t173 84.5v83h58v-84q121 -13 186 -119zM171 265q0 -67 30 -111.5t82 -54.5v330q-52 -11 -82 -54.5t-30 -109.5z" />
    <glyph glyph-name="sterling" unicode="&#xa3;" 
d="M535 119v-119h-516v101q104 46 104 133q0 33 -12 65h-92v84h61q-26 75 -26 120q0 102 67.5 163t177.5 61q171 0 250 -150l-110 -58q-40 86 -131 86q-52 0 -83.5 -29t-31.5 -85q0 -40 26 -108h189v-84h-167q6 -27 6 -45q0 -76 -55 -135h343z" />
    <glyph glyph-name="currency" unicode="&#xa4;" horiz-adv-x="575" 
d="M177 303q0 -46 32 -77.5t78 -31.5q45 0 77 31.5t32 77.5t-32 78t-77 32q-46 0 -78 -32t-32 -78zM88 303q0 55 26 98l-76 76l75 76l77 -77q45 26 97 26t96 -27l77 78l75 -76l-76 -77q26 -46 26 -97t-26 -96l76 -76l-75 -76l-76 76q-46 -26 -97 -26t-98 26l-76 -76l-75 76
l76 75q-26 43 -26 97z" />
    <glyph glyph-name="yen" unicode="&#xa5;" 
d="M564 714l-165 -337h138v-63h-170l-14 -27v-57h184v-63h-184v-167h-133v167h-185v63h185v56l-14 28h-171v63h140l-165 337h152l127 -304l125 304h150z" />
    <glyph glyph-name="brokenbar" unicode="&#xa6;" horiz-adv-x="260" 
d="M170 444h-81v318h81v-318zM170 -60h-81v318h81v-318z" />
    <glyph glyph-name="section" unicode="&#xa7;" horiz-adv-x="569" 
d="M527 202q0 -117 -74.5 -192.5t-198.5 -75.5q-122 0 -210 77l69 88q60 -58 141 -58q76 0 116 51q-51 32 -64 39q-112 68 -156 107q-110 97 -110 221q0 116 75 192t200 76q123 0 209 -77l-69 -88q-60 58 -141 58q-74 0 -116 -51q18 -12 69.5 -43t77 -47.5t66.5 -50.5
t62 -63.5t37.5 -72.5t16.5 -90zM416 206q0 36 -10.5 65t-39 58t-53.5 48t-76 55l-81 57q-4 -16 -4 -27q0 -39 10 -69t38 -59.5t52.5 -48t78.5 -56.5l82 -57q3 23 3 34z" />
    <glyph glyph-name="dieresis" unicode="&#xa8;" horiz-adv-x="364" 
d="M132 603h-103v104h103v-104zM335 603h-104v104h104v-104z" />
    <glyph glyph-name="copyright" unicode="&#xa9;" horiz-adv-x="828" 
d="M602 255q-32 -54 -81 -82.5t-106 -28.5q-88 0 -150 62.5t-62 150.5q0 89 62 151t150 62q120 0 185 -110l-77 -50q-37 67 -107 67q-49 0 -83 -35t-34 -85q0 -49 34.5 -84.5t82.5 -35.5q68 0 108 69zM38 357q0 156 110 266t266 110t266 -110t110 -266t-110 -266t-266 -110
t-266 110t-110 266zM92 357q0 -133 94.5 -227.5t227.5 -94.5q134 0 228 94.5t94 227.5t-94.5 227.5t-227.5 94.5t-227.5 -94.5t-94.5 -227.5z" />
    <glyph glyph-name="ordfeminine" unicode="&#xaa;" horiz-adv-x="404" 
d="M348 375h-90v38q-34 -45 -99 -45q-55 0 -89 28.5t-34 79.5q0 50 34 74.5t75 27t75 10t34 26.5q0 34 -63 34q-58 0 -109 -34l-34 68q66 42 153 42q147 0 147 -121v-228zM254 506v34q-16 -13 -66 -19q-21 -3 -31.5 -6t-20 -12t-9.5 -24q0 -40 51 -40q33 0 54.5 17t21.5 50z
" />
    <glyph glyph-name="guillemotleft" unicode="&#xab;" horiz-adv-x="527" 
d="M41 264v46l160 212l66 -51l-123 -184l123 -184l-66 -50zM259 264v46l161 212l66 -51l-123 -184l123 -184l-66 -50z" />
    <glyph glyph-name="logicalnot" unicode="&#xac;" 
d="M535 54h-106v196h-395v107h501v-303z" />
    <glyph glyph-name="uni00AD" unicode="&#xad;" horiz-adv-x="371" 
d="M316 237h-261v106h261v-106z" />
    <glyph glyph-name="registered" unicode="&#xae;" horiz-adv-x="406" 
d="M369 560q0 -69 -49 -117.5t-117 -48.5q-69 0 -117.5 48.5t-48.5 117.5t48.5 117.5t117.5 48.5q68 0 117 -48.5t49 -117.5zM343 560q0 58 -41 99t-99 41q-59 0 -99.5 -41t-40.5 -99t41 -99t99 -41t99 41t41 99zM250 540l39 -71h-48l-34 62h-32v-62h-45v184h88q31 0 49 -16
t18 -43q0 -38 -35 -54zM237 591q0 11 -6.5 18t-16.5 7h-39v-48h39q23 0 23 23z" />
    <glyph glyph-name="macron" unicode="&#xaf;" horiz-adv-x="347" 
d="M316 610h-287v85h287v-85z" />
    <glyph glyph-name="degree" unicode="&#xb0;" horiz-adv-x="364" 
d="M339 568q0 -64 -46.5 -110t-110.5 -46t-110.5 46t-46.5 110q0 65 46 111.5t111 46.5t111 -46.5t46 -111.5zM262 568q0 33 -23.5 56.5t-56.5 23.5q-32 0 -55.5 -23.5t-23.5 -56.5q0 -32 23.5 -55t55.5 -23q33 0 56.5 23t23.5 55z" />
    <glyph glyph-name="plusminus" unicode="&#xb1;" 
d="M538 0h-501v106h501v-106zM538 355h-197v-197h-107v197h-197v106h197v197h107v-197h197v-106z" />
    <glyph glyph-name="twosuperior" unicode="&#xb2;" horiz-adv-x="452" 
d="M395 380h-344v12q0 45 33 87.5t104 94.5q8 6 23 17.5t22 16.5t18 14t16 14.5t10.5 13t7.5 15t2 15.5q0 24 -18.5 37.5t-49.5 13.5q-71 0 -99 -63l-77 43q58 105 184 105q73 0 118 -37t45 -100q0 -71 -80 -124q-16 -11 -46 -29t-52.5 -32.5t-33.5 -26.5h217v-87z" />
    <glyph glyph-name="threesuperior" unicode="&#xb3;" horiz-adv-x="452" 
d="M199 572l-40 37l107 112h-195v87h315v-59l-95 -101q53 -10 84.5 -43.5t31.5 -83.5q0 -62 -47.5 -105.5t-133.5 -43.5q-121 0 -178 101l74 45q37 -62 103 -62q38 0 60.5 18t22.5 48q0 27 -19 43.5t-49 16.5q-23 0 -41 -10z" />
    <glyph glyph-name="acute" unicode="&#xb4;" horiz-adv-x="324" 
d="M111 591l97 188l96 -49l-105 -139h-88z" />
    <glyph glyph-name="mu" unicode="&#xb5;" 
d="M154 -174h-126v702h126v-319q0 -112 94 -112q50 0 83 33.5t33 95.5v302h125v-403q0 -42 30 -42q17 0 24 6l11 -85q-24 -12 -66 -12q-40 0 -68.5 19.5t-37.5 56.5q-25 -40 -63 -60t-78 -20q-56 0 -87 38v-200z" />
    <glyph glyph-name="mu" unicode="&#x3bc;" 
d="M154 -174h-126v702h126v-319q0 -112 94 -112q50 0 83 33.5t33 95.5v302h125v-403q0 -42 30 -42q17 0 24 6l11 -85q-24 -12 -66 -12q-40 0 -68.5 19.5t-37.5 56.5q-25 -40 -63 -60t-78 -20q-56 0 -87 38v-200z" />
    <glyph glyph-name="paragraph" unicode="&#xb6;" horiz-adv-x="558" 
d="M491 -91h-52v727h-61v-727h-85v378h-47q-92 0 -153 59t-61 155q0 95 62 154t152 59h245v-805z" />
    <glyph glyph-name="periodcentered" unicode="&#xb7;" horiz-adv-x="255" 
d="M210 263q0 -34 -24.5 -58.5t-58.5 -24.5t-58.5 24.5t-24.5 58.5t24.5 59t58.5 25t58.5 -25t24.5 -59z" />
    <glyph glyph-name="cedilla" unicode="&#xb8;" horiz-adv-x="324" 
d="M142 -195q-48 0 -76 13v60q22 -16 62 -16q24 0 37.5 9t13.5 23q0 10 -7 14h-47v59q16 13 52 13q41 0 71 -22.5t30 -60.5q0 -42 -38 -67t-98 -25z" />
    <glyph glyph-name="onesuperior" unicode="&#xb9;" horiz-adv-x="381" 
d="M99 648l-47 73l143 87h84v-428h-97v316z" />
    <glyph glyph-name="ordmasculine" unicode="&#xba;" horiz-adv-x="426" 
d="M397 546q0 -79 -50.5 -128.5t-133.5 -49.5t-133 49.5t-50 128.5t50 128.5t133 49.5t133.5 -49.5t50.5 -128.5zM299 546q0 44 -22.5 71t-63.5 27q-40 0 -62.5 -27t-22.5 -71q0 -42 23 -69.5t62 -27.5q41 0 63.5 27t22.5 70z" />
    <glyph glyph-name="guillemotright" unicode="&#xbb;" horiz-adv-x="527" 
d="M486 310v-46l-161 -211l-66 50l123 184l-123 184l66 51zM267 310v-46l-160 -211l-66 50l123 184l-123 184l66 51z" />
    <glyph glyph-name="onequarter" unicode="&#xbc;" horiz-adv-x="1044" 
d="M99 554l-47 73l143 87h84v-428h-97v316zM790 714l-463 -714h-94l463 714h94zM996 88h-57v-88h-96v88h-205v72l198 268h103v-260h57v-80zM728 168h116v151z" />
    <glyph glyph-name="onehalf" unicode="&#xbd;" horiz-adv-x="1084" 
d="M99 554l-47 73l143 87h84v-428h-97v316zM790 714l-463 -714h-94l463 714h94zM1027 0h-344v12q0 45 33 87.5t104 94.5q8 6 23 17.5t22 16.5t18 14t16 14.5t10.5 13t7.5 15t2 15.5q0 24 -18.5 37.5t-49.5 13.5q-71 0 -99 -63l-77 43q58 105 184 105q73 0 118 -37t45 -100
q0 -71 -80 -124q-16 -11 -46 -29t-52.5 -32.5t-33.5 -26.5h217v-87z" />
    <glyph glyph-name="threequarters" unicode="&#xbe;" horiz-adv-x="1106" 
d="M842 714l-463 -714h-94l463 714h94zM1058 88h-57v-88h-96v88h-205v72l198 268h103v-260h57v-80zM790 168h116v151zM199 478l-40 37l107 112h-195v87h315v-59l-95 -101q53 -10 84.5 -43.5t31.5 -83.5q0 -62 -47.5 -105.5t-133.5 -43.5q-121 0 -178 101l74 45
q37 -62 103 -62q38 0 60.5 18t22.5 48q0 27 -19 43.5t-49 16.5q-23 0 -41 -10z" />
    <glyph glyph-name="questiondown" unicode="&#xbf;" horiz-adv-x="528" 
d="M225 528h144v-144h-144v144zM47 18q0 47 19.5 83.5t47.5 60t56 43.5t47.5 44t19.5 51v17h130v-12q0 -43 -19 -78.5t-46 -59.5t-54 -45.5t-46 -47.5t-19 -55q0 -41 30 -65t81 -24q77 0 141 62l67 -90q-97 -86 -223 -86q-104 0 -168 54.5t-64 147.5z" />
    <glyph glyph-name="Agrave" unicode="&#xc0;" horiz-adv-x="694" 
d="M690 0h-149l-60 177h-273l-60 -177h-144l265 714h157zM447 288l-101 310l-105 -310h206zM302 947l97 -188h-88l-105 139z" />
    <glyph glyph-name="Aacute" unicode="&#xc1;" horiz-adv-x="694" 
d="M690 0h-149l-60 177h-273l-60 -177h-144l265 714h157zM447 288l-101 310l-105 -310h206zM284 759l97 188l96 -49l-105 -139h-88z" />
    <glyph glyph-name="Acircumflex" unicode="&#xc2;" horiz-adv-x="694" 
d="M690 0h-149l-60 177h-273l-60 -177h-144l265 714h157zM447 288l-101 310l-105 -310h206zM406 941l126 -179h-88l-97 95l-96 -95h-88l125 179h118z" />
    <glyph glyph-name="Atilde" unicode="&#xc3;" horiz-adv-x="694" 
d="M690 0h-149l-60 177h-273l-60 -177h-144l265 714h157zM447 288l-101 310l-105 -310h206zM214 764l-67 31q39 105 131 105q37 0 80 -23q44 -22 65 -22q44 0 61 45l67 -31q-37 -105 -130 -105q-38 0 -81 22q-41 22 -64 22q-44 0 -62 -44z" />
    <glyph glyph-name="Adieresis" unicode="&#xc4;" horiz-adv-x="694" 
d="M690 0h-149l-60 177h-273l-60 -177h-144l265 714h157zM447 288l-101 310l-105 -310h206zM297 771h-103v104h103v-104zM500 771h-104v104h104v-104z" />
    <glyph glyph-name="Aring" unicode="&#xc5;" horiz-adv-x="694" 
d="M447 288l-101 310l-105 -310h206zM299 763q0 -20 14.5 -34.5t34.5 -14.5t34.5 15t14.5 34q0 21 -14.5 35.5t-34.5 14.5t-34.5 -14.5t-14.5 -35.5zM238 763q0 46 32 78.5t78 32.5q45 0 77.5 -32.5t32.5 -78.5q0 -37 -25 -67l257 -696h-149l-60 177h-273l-60 -177h-144
l258 697q-24 27 -24 66z" />
    <glyph glyph-name="AE" unicode="&#xc6;" horiz-adv-x="977" 
d="M931 0h-463v177h-234l-100 -177h-144l411 714h520v-121h-320v-164h280v-110h-280v-199h330v-120zM468 288v318l-174 -318h174z" />
    <glyph glyph-name="Ccedilla" unicode="&#xc7;" horiz-adv-x="698" 
d="M672 567l-105 -65q-64 106 -184 106q-96 0 -153 -69t-57 -181q0 -113 57.5 -182.5t154.5 -69.5q119 0 184 110l107 -62q-102 -167 -292 -167q-156 0 -252.5 103t-96.5 268q0 164 96 266.5t250 102.5q192 0 291 -160zM335 -195q-48 0 -76 13v60q22 -16 62 -16q24 0 37.5 9
t13.5 23q0 10 -7 14h-47v59q16 13 52 13q41 0 71 -22.5t30 -60.5q0 -42 -38 -67t-98 -25z" />
    <glyph glyph-name="Egrave" unicode="&#xc8;" horiz-adv-x="635" 
d="M589 0h-516v714h506v-121h-373v-168h332v-110h-332v-195h383v-120zM301 947l97 -188h-88l-105 139z" />
    <glyph glyph-name="Eacute" unicode="&#xc9;" horiz-adv-x="635" 
d="M589 0h-516v714h506v-121h-373v-168h332v-110h-332v-195h383v-120zM274 759l97 188l96 -49l-105 -139h-88z" />
    <glyph glyph-name="Ecircumflex" unicode="&#xca;" horiz-adv-x="635" 
d="M589 0h-516v714h506v-121h-373v-168h332v-110h-332v-195h383v-120zM384 947l126 -179h-88l-97 95l-96 -95h-88l125 179h118z" />
    <glyph glyph-name="Edieresis" unicode="&#xcb;" horiz-adv-x="635" 
d="M589 0h-516v714h506v-121h-373v-168h332v-110h-332v-195h383v-120zM278 771h-103v104h103v-104zM481 771h-104v104h104v-104z" />
    <glyph glyph-name="Igrave" unicode="&#xcc;" horiz-adv-x="280" 
d="M206 0h-133v714h133v-714zM94 947l97 -188h-88l-105 139z" />
    <glyph glyph-name="Iacute" unicode="&#xcd;" horiz-adv-x="280" 
d="M206 0h-133v714h133v-714zM89 757l97 188l96 -49l-105 -139h-88z" />
    <glyph glyph-name="Icircumflex" unicode="&#xce;" horiz-adv-x="280" 
d="M206 0h-133v714h133v-714zM199 938l126 -179h-88l-97 95l-96 -95h-88l125 179h118z" />
    <glyph glyph-name="Idieresis" unicode="&#xcf;" horiz-adv-x="280" 
d="M206 0h-133v714h133v-714zM90 771h-103v104h103v-104zM293 771h-104v104h104v-104z" />
    <glyph glyph-name="Eth" unicode="&#xd0;" horiz-adv-x="762" 
d="M725 357q0 -159 -91 -258t-255 -99h-284v310h-64v107h64v297h284q164 0 255 -99t91 -258zM586 357q0 112 -54 174t-153 62h-150v-176h176v-107h-176v-190h150q99 0 153 62.5t54 174.5z" />
    <glyph glyph-name="Ntilde" unicode="&#xd1;" horiz-adv-x="745" 
d="M672 0h-145l-325 530v-530h-129v714h161l310 -505v505h128v-714zM236 764l-67 31q39 105 131 105q37 0 80 -23q44 -22 65 -22q44 0 61 45l67 -31q-37 -105 -130 -105q-38 0 -81 22q-41 22 -64 22q-44 0 -62 -44z" />
    <glyph glyph-name="Ograve" unicode="&#xd2;" horiz-adv-x="768" 
d="M734 357q0 -160 -95.5 -265t-254.5 -105t-254.5 105t-95.5 265t95.5 265t254.5 105t254.5 -105t95.5 -265zM596 357q0 109 -56.5 177t-155.5 68q-98 0 -154.5 -68t-56.5 -177t56.5 -177t154.5 -68q99 0 155.5 68t56.5 177zM350 947l97 -188h-88l-105 139z" />
    <glyph glyph-name="Oacute" unicode="&#xd3;" horiz-adv-x="768" 
d="M734 357q0 -160 -95.5 -265t-254.5 -105t-254.5 105t-95.5 265t95.5 265t254.5 105t254.5 -105t95.5 -265zM596 357q0 109 -56.5 177t-155.5 68q-98 0 -154.5 -68t-56.5 -177t56.5 -177t154.5 -68q99 0 155.5 68t56.5 177zM314 759l97 188l96 -49l-105 -139h-88z" />
    <glyph glyph-name="Ocircumflex" unicode="&#xd4;" horiz-adv-x="768" 
d="M734 357q0 -160 -95.5 -265t-254.5 -105t-254.5 105t-95.5 265t95.5 265t254.5 105t254.5 -105t95.5 -265zM596 357q0 109 -56.5 177t-155.5 68q-98 0 -154.5 -68t-56.5 -177t56.5 -177t154.5 -68q99 0 155.5 68t56.5 177zM443 947l126 -179h-88l-97 95l-96 -95h-88
l125 179h118z" />
    <glyph glyph-name="Otilde" unicode="&#xd5;" horiz-adv-x="768" 
d="M734 357q0 -160 -95.5 -265t-254.5 -105t-254.5 105t-95.5 265t95.5 265t254.5 105t254.5 -105t95.5 -265zM596 357q0 109 -56.5 177t-155.5 68q-98 0 -154.5 -68t-56.5 -177t56.5 -177t154.5 -68q99 0 155.5 68t56.5 177zM249 764l-67 31q39 105 131 105q37 0 80 -23
q44 -22 65 -22q44 0 61 45l67 -31q-37 -105 -130 -105q-38 0 -81 22q-41 22 -64 22q-44 0 -62 -44z" />
    <glyph glyph-name="Odieresis" unicode="&#xd6;" horiz-adv-x="768" 
d="M734 357q0 -160 -95.5 -265t-254.5 -105t-254.5 105t-95.5 265t95.5 265t254.5 105t254.5 -105t95.5 -265zM596 357q0 109 -56.5 177t-155.5 68q-98 0 -154.5 -68t-56.5 -177t56.5 -177t154.5 -68q99 0 155.5 68t56.5 177zM334 771h-103v104h103v-104zM537 771h-104v104
h104v-104z" />
    <glyph glyph-name="multiply" unicode="&#xd7;" 
d="M555 72l-75 -76l-192 193l-193 -193l-75 76l193 192l-193 192l75 76l193 -193l192 193l75 -76l-192 -192z" />
    <glyph glyph-name="Oslash" unicode="&#xd8;" horiz-adv-x="768" 
d="M167 -14l-57 40l35 50q-111 105 -111 281q0 160 95.5 265t254.5 105q102 0 183 -49l34 50l57 -40l-35 -51q111 -103 111 -280q0 -160 -95.5 -265t-254.5 -105q-103 0 -183 47zM596 357q0 100 -52 168l-269 -386q44 -29 109 -29q98 0 155 69t57 178zM173 357
q0 -105 50 -169l270 386q-50 30 -109 30q-98 0 -154.5 -69t-56.5 -178z" />
    <glyph glyph-name="Ugrave" unicode="&#xd9;" horiz-adv-x="709" 
d="M643 714v-446q0 -131 -79.5 -206t-209.5 -75q-131 0 -209 75t-78 206v446h132v-446q0 -75 40.5 -116.5t114.5 -41.5q73 0 114.5 42t41.5 116v446h133zM313 947l97 -188h-88l-105 139z" />
    <glyph glyph-name="Uacute" unicode="&#xda;" horiz-adv-x="709" 
d="M643 714v-446q0 -131 -79.5 -206t-209.5 -75q-131 0 -209 75t-78 206v446h132v-446q0 -75 40.5 -116.5t114.5 -41.5q73 0 114.5 42t41.5 116v446h133zM294 759l97 188l96 -49l-105 -139h-88z" />
    <glyph glyph-name="Ucircumflex" unicode="&#xdb;" horiz-adv-x="709" 
d="M643 714v-446q0 -131 -79.5 -206t-209.5 -75q-131 0 -209 75t-78 206v446h132v-446q0 -75 40.5 -116.5t114.5 -41.5q73 0 114.5 42t41.5 116v446h133zM414 947l126 -179h-88l-97 95l-96 -95h-88l125 179h118z" />
    <glyph glyph-name="Udieresis" unicode="&#xdc;" horiz-adv-x="709" 
d="M643 714v-446q0 -131 -79.5 -206t-209.5 -75q-131 0 -209 75t-78 206v446h132v-446q0 -75 40.5 -116.5t114.5 -41.5q73 0 114.5 42t41.5 116v446h133zM305 771h-103v104h103v-104zM508 771h-104v104h104v-104z" />
    <glyph glyph-name="Yacute" unicode="&#xdd;" horiz-adv-x="641" 
d="M643 714l-256 -417v-297h-134v297l-254 417h154l169 -291l168 291h153zM267 759l97 188l96 -49l-105 -139h-88z" />
    <glyph glyph-name="Thorn" unicode="&#xde;" horiz-adv-x="651" 
d="M376 168h-170v-168h-133v714h133v-90h170q120 0 188 -62t68 -166q0 -105 -67.5 -166.5t-188.5 -61.5zM206 289h169q59 0 90.5 28t31.5 79t-31.5 79t-90.5 28h-169v-214z" />
    <glyph glyph-name="germandbls" unicode="&#xdf;" horiz-adv-x="620" 
d="M586 205q0 -98 -65.5 -156.5t-171.5 -58.5q-70 0 -110 19l22 110q31 -18 77 -18q52 0 83.5 30.5t31.5 83.5q0 109 -139 109h-47v105h52q50 0 81.5 24.5t31.5 70.5q0 48 -33.5 71.5t-83.5 23.5q-58 0 -90.5 -32t-32.5 -91v-496h-127v497q0 107 66.5 168t184.5 61
q107 0 175 -49.5t68 -138.5q0 -102 -94 -154q121 -46 121 -179z" />
    <glyph glyph-name="agrave" unicode="&#xe0;" horiz-adv-x="545" 
d="M485 0h-120v56q-52 -68 -151 -68q-83 0 -133 43t-50 120q0 31 8.5 56t24.5 41t33 27.5t41 19t40.5 11t38.5 6.5q90 13 112 24q29 14 29 42q0 30 -27.5 43t-66.5 13q-92 0 -165 -50l-46 93q95 63 221 63q98 0 154.5 -42.5t56.5 -131.5v-366zM358 201v60q-21 -16 -115 -32
q-42 -8 -64 -22.5t-22 -49.5q0 -34 22.5 -51.5t60.5 -17.5q50 0 84 28.5t34 84.5zM225 779l97 -188h-88l-105 139z" />
    <glyph glyph-name="aacute" unicode="&#xe1;" horiz-adv-x="545" 
d="M485 0h-120v56q-52 -68 -151 -68q-83 0 -133 43t-50 120q0 31 8.5 56t24.5 41t33 27.5t41 19t40.5 11t38.5 6.5q90 13 112 24q29 14 29 42q0 30 -27.5 43t-66.5 13q-92 0 -165 -50l-46 93q95 63 221 63q98 0 154.5 -42.5t56.5 -131.5v-366zM358 201v60q-21 -16 -115 -32
q-42 -8 -64 -22.5t-22 -49.5q0 -34 22.5 -51.5t60.5 -17.5q50 0 84 28.5t34 84.5zM205 591l97 188l96 -49l-105 -139h-88z" />
    <glyph glyph-name="acircumflex" unicode="&#xe2;" horiz-adv-x="545" 
d="M485 0h-120v56q-52 -68 -151 -68q-83 0 -133 43t-50 120q0 31 8.5 56t24.5 41t33 27.5t41 19t40.5 11t38.5 6.5q90 13 112 24q29 14 29 42q0 30 -27.5 43t-66.5 13q-92 0 -165 -50l-46 93q95 63 221 63q98 0 154.5 -42.5t56.5 -131.5v-366zM358 201v60q-21 -16 -115 -32
q-42 -8 -64 -22.5t-22 -49.5q0 -34 22.5 -51.5t60.5 -17.5q50 0 84 28.5t34 84.5zM323 770l126 -179h-88l-97 95l-96 -95h-88l125 179h118z" />
    <glyph glyph-name="atilde" unicode="&#xe3;" horiz-adv-x="545" 
d="M485 0h-120v56q-52 -68 -151 -68q-83 0 -133 43t-50 120q0 31 8.5 56t24.5 41t33 27.5t41 19t40.5 11t38.5 6.5q90 13 112 24q29 14 29 42q0 30 -27.5 43t-66.5 13q-92 0 -165 -50l-46 93q95 63 221 63q98 0 154.5 -42.5t56.5 -131.5v-366zM358 201v60q-21 -16 -115 -32
q-42 -8 -64 -22.5t-22 -49.5q0 -34 22.5 -51.5t60.5 -17.5q50 0 84 28.5t34 84.5zM130 596l-67 31q39 105 131 105q37 0 80 -23q44 -22 65 -22q44 0 61 45l67 -31q-37 -105 -130 -105q-38 0 -81 22q-41 22 -64 22q-44 0 -62 -44z" />
    <glyph glyph-name="adieresis" unicode="&#xe4;" horiz-adv-x="545" 
d="M485 0h-120v56q-52 -68 -151 -68q-83 0 -133 43t-50 120q0 31 8.5 56t24.5 41t33 27.5t41 19t40.5 11t38.5 6.5q90 13 112 24q29 14 29 42q0 30 -27.5 43t-66.5 13q-92 0 -165 -50l-46 93q95 63 221 63q98 0 154.5 -42.5t56.5 -131.5v-366zM358 201v60q-21 -16 -115 -32
q-42 -8 -64 -22.5t-22 -49.5q0 -34 22.5 -51.5t60.5 -17.5q50 0 84 28.5t34 84.5zM214 603h-103v104h103v-104zM417 603h-104v104h104v-104z" />
    <glyph glyph-name="aring" unicode="&#xe5;" horiz-adv-x="545" 
d="M485 0h-120v56q-52 -68 -151 -68q-83 0 -133 43t-50 120q0 31 8.5 56t24.5 41t33 27.5t41 19t40.5 11t38.5 6.5q90 13 112 24q29 14 29 42q0 30 -27.5 43t-66.5 13q-92 0 -165 -50l-46 93q95 63 221 63q98 0 154.5 -42.5t56.5 -131.5v-366zM358 201v60q-21 -16 -115 -32
q-42 -8 -64 -22.5t-22 -49.5q0 -34 22.5 -51.5t60.5 -17.5q50 0 84 28.5t34 84.5zM155 664q0 46 32.5 78.5t77.5 32.5q46 0 78 -32.5t32 -78.5q0 -45 -32 -77.5t-78 -32.5q-45 0 -77.5 32.5t-32.5 77.5zM217 664q0 -20 14.5 -34.5t33.5 -14.5q20 0 34.5 14.5t14.5 34.5
q0 21 -14.5 35.5t-34.5 14.5t-34 -14.5t-14 -35.5z" />
    <glyph glyph-name="ae" unicode="&#xe6;" horiz-adv-x="892" 
d="M275 540q118 0 169 -67q69 67 171 67q112 0 178.5 -72.5t66.5 -186.5q0 -23 -2 -47h-373q1 -63 40 -98t100 -35q86 0 137 65l80 -77q-84 -101 -224 -101q-127 0 -197 86q-64 -86 -193 -86q-94 0 -145.5 42.5t-51.5 119.5q0 37 13 65.5t31 44.5t46 28t48 16t48 8
q90 13 112 24q29 14 29 42q0 30 -27.5 43t-66.5 13q-92 0 -165 -50l-46 93q95 63 222 63zM358 201v60q-21 -16 -115 -32q-42 -8 -64 -22.5t-22 -49.5q0 -34 22.5 -51.5t60.5 -17.5q50 0 84 28.5t34 84.5zM485 323h249q-4 58 -37.5 88.5t-84.5 30.5q-54 0 -88 -32.5
t-39 -86.5z" />
    <glyph glyph-name="ccedilla" unicode="&#xe7;" horiz-adv-x="538" 
d="M515 418l-92 -60q-43 71 -120 71q-63 0 -100 -45.5t-37 -118.5q0 -75 37.5 -120.5t101.5 -45.5q76 0 126 70l86 -70q-82 -111 -221 -111q-118 0 -191 78t-73 198q0 119 72.5 197.5t189.5 78.5q146 0 221 -122zM243 -195q-48 0 -76 13v60q22 -16 62 -16q24 0 37.5 9
t13.5 23q0 10 -7 14h-47v59q16 13 52 13q41 0 71 -22.5t30 -60.5q0 -42 -38 -67t-98 -25z" />
    <glyph glyph-name="egrave" unicode="&#xe8;" horiz-adv-x="580" 
d="M169 323h249q-4 58 -38 88.5t-85 30.5q-53 0 -87 -32.5t-39 -86.5zM32 262q0 121 70 199.5t191 78.5q116 0 183.5 -72t67.5 -187q0 -11 -3 -47h-373q1 -63 40 -98t100 -35q86 0 137 65l81 -77q-84 -101 -225 -101q-126 0 -197.5 76.5t-71.5 197.5zM249 779l97 -188h-88
l-105 139z" />
    <glyph glyph-name="eacute" unicode="&#xe9;" horiz-adv-x="580" 
d="M169 323h249q-4 58 -38 88.5t-85 30.5q-53 0 -87 -32.5t-39 -86.5zM32 262q0 121 70 199.5t191 78.5q116 0 183.5 -72t67.5 -187q0 -11 -3 -47h-373q1 -63 40 -98t100 -35q86 0 137 65l81 -77q-84 -101 -225 -101q-126 0 -197.5 76.5t-71.5 197.5zM222 591l97 188l96 -49
l-105 -139h-88z" />
    <glyph glyph-name="ecircumflex" unicode="&#xea;" 
d="M169 323h249q-4 58 -38 88.5t-85 30.5q-53 0 -87 -32.5t-39 -86.5zM32 262q0 121 70 199.5t191 78.5q116 0 183.5 -72t67.5 -187q0 -11 -3 -47h-373q1 -63 40 -98t100 -35q86 0 137 65l81 -77q-84 -101 -225 -101q-126 0 -197.5 76.5t-71.5 197.5zM347 770l126 -179h-88
l-97 95l-96 -95h-88l125 179h118z" />
    <glyph glyph-name="edieresis" unicode="&#xeb;" 
d="M169 323h249q-4 58 -38 88.5t-85 30.5q-53 0 -87 -32.5t-39 -86.5zM32 262q0 121 70 199.5t191 78.5q116 0 183.5 -72t67.5 -187q0 -11 -3 -47h-373q1 -63 40 -98t100 -35q86 0 137 65l81 -77q-84 -101 -225 -101q-126 0 -197.5 76.5t-71.5 197.5zM238 603h-103v104h103
v-104zM441 603h-104v104h104v-104z" />
    <glyph glyph-name="igrave" unicode="&#xec;" horiz-adv-x="255" 
d="M191 0h-127v528h127v-528zM84 779l97 -188h-88l-105 139z" />
    <glyph glyph-name="iacute" unicode="&#xed;" horiz-adv-x="255" 
d="M191 0h-127v528h127v-528zM68 591l97 188l96 -49l-105 -139h-88z" />
    <glyph glyph-name="icircumflex" unicode="&#xee;" horiz-adv-x="255" 
d="M191 0h-127v528h127v-528zM186 770l126 -179h-88l-97 95l-96 -95h-88l125 179h118z" />
    <glyph glyph-name="idieresis" unicode="&#xef;" horiz-adv-x="255" 
d="M191 0h-127v528h127v-528zM77 603h-103v104h103v-104zM280 603h-104v104h104v-104z" />
    <glyph glyph-name="eth" unicode="&#xf0;" horiz-adv-x="599" 
d="M231 494v65l94 48q-33 14 -71 14q-76 0 -130 -43l-49 101q72 48 177 48q115 0 189 -63l108 54v-65l-66 -33q75 -99 75 -278q0 -171 -70.5 -263t-197.5 -92q-116 0 -186 73t-70 180q0 104 66 168.5t167 64.5q55 0 96.5 -19.5t61.5 -46.5q0 107 -45 162zM418 242
q0 58 -34.5 92t-90.5 34q-61 0 -92.5 -38.5t-31.5 -97.5t32 -95.5t88 -36.5q62 0 95.5 42t33.5 100z" />
    <glyph glyph-name="ntilde" unicode="&#xf1;" horiz-adv-x="588" 
d="M191 0h-127v528h127v-66q56 78 161 78q82 0 129 -53t47 -139v-348h-127v319q0 107 -90 107q-52 0 -86 -34.5t-34 -93.5v-298zM169 596l-67 31q39 105 131 105q37 0 80 -23q44 -22 65 -22q44 0 61 45l67 -31q-37 -105 -130 -105q-38 0 -81 22q-41 22 -64 22q-44 0 -62 -44
z" />
    <glyph glyph-name="ograve" unicode="&#xf2;" horiz-adv-x="596" 
d="M564 263q0 -122 -72.5 -198.5t-193.5 -76.5t-193.5 76.5t-72.5 198.5q0 123 72.5 200t193.5 77t193.5 -77t72.5 -200zM430 264q0 75 -35 121.5t-97 46.5t-96.5 -46.5t-34.5 -121.5q0 -74 35 -121t96 -47q62 0 97 47t35 121zM254 779l97 -188h-88l-105 139z" />
    <glyph glyph-name="oacute" unicode="&#xf3;" horiz-adv-x="596" 
d="M564 263q0 -122 -72.5 -198.5t-193.5 -76.5t-193.5 76.5t-72.5 198.5q0 123 72.5 200t193.5 77t193.5 -77t72.5 -200zM430 264q0 75 -35 121.5t-97 46.5t-96.5 -46.5t-34.5 -121.5q0 -74 35 -121t96 -47q62 0 97 47t35 121zM225 591l97 188l96 -49l-105 -139h-88z" />
    <glyph glyph-name="ocircumflex" unicode="&#xf4;" horiz-adv-x="596" 
d="M564 263q0 -122 -72.5 -198.5t-193.5 -76.5t-193.5 76.5t-72.5 198.5q0 123 72.5 200t193.5 77t193.5 -77t72.5 -200zM430 264q0 75 -35 121.5t-97 46.5t-96.5 -46.5t-34.5 -121.5q0 -74 35 -121t96 -47q62 0 97 47t35 121zM357 770l126 -179h-88l-97 95l-96 -95h-88
l125 179h118z" />
    <glyph glyph-name="otilde" unicode="&#xf5;" horiz-adv-x="596" 
d="M564 263q0 -122 -72.5 -198.5t-193.5 -76.5t-193.5 76.5t-72.5 198.5q0 123 72.5 200t193.5 77t193.5 -77t72.5 -200zM430 264q0 75 -35 121.5t-97 46.5t-96.5 -46.5t-34.5 -121.5q0 -74 35 -121t96 -47q62 0 97 47t35 121zM163 596l-67 31q39 105 131 105q37 0 80 -23
q44 -22 65 -22q44 0 61 45l67 -31q-37 -105 -130 -105q-38 0 -81 22q-41 22 -64 22q-44 0 -62 -44z" />
    <glyph glyph-name="odieresis" unicode="&#xf6;" horiz-adv-x="596" 
d="M564 263q0 -122 -72.5 -198.5t-193.5 -76.5t-193.5 76.5t-72.5 198.5q0 123 72.5 200t193.5 77t193.5 -77t72.5 -200zM430 264q0 75 -35 121.5t-97 46.5t-96.5 -46.5t-34.5 -121.5q0 -74 35 -121t96 -47q62 0 97 47t35 121zM248 603h-103v104h103v-104zM451 603h-104v104
h104v-104z" />
    <glyph glyph-name="divide" unicode="&#xf7;" 
d="M364 460q0 -32 -22.5 -54.5t-53.5 -22.5q-32 0 -54 22.5t-22 54.5t22 54.5t54 22.5q31 0 53.5 -22.5t22.5 -54.5zM364 67q0 -31 -22.5 -53.5t-53.5 -22.5q-32 0 -54 22.5t-22 53.5q0 32 22 54.5t54 22.5q31 0 53.5 -22.5t22.5 -54.5zM552 210h-529v107h529v-107z" />
    <glyph glyph-name="oslash" unicode="&#xf8;" horiz-adv-x="596" 
d="M142 -13l-52 35l23 33q-81 76 -81 208q0 123 72.5 200t193.5 77q71 0 132 -32l23 33l53 -35l-24 -34q82 -79 82 -209q0 -122 -72.5 -198.5t-193.5 -76.5q-75 0 -133 32zM165 264q0 -61 24 -100l176 252q-32 20 -67 20q-62 0 -97.5 -48t-35.5 -124zM431 264q0 58 -24 101
l-178 -252q31 -21 69 -21q63 0 98 48t35 124z" />
    <glyph glyph-name="ugrave" unicode="&#xf9;" horiz-adv-x="587" 
d="M397 528h126v-528h-126v66q-56 -78 -162 -78q-82 0 -129.5 53t-47.5 139v348h127v-318q0 -108 91 -108q53 0 87 34.5t34 93.5v298zM240 779l97 -188h-88l-105 139z" />
    <glyph glyph-name="uacute" unicode="&#xfa;" horiz-adv-x="587" 
d="M397 528h126v-528h-126v66q-56 -78 -162 -78q-82 0 -129.5 53t-47.5 139v348h127v-318q0 -108 91 -108q53 0 87 34.5t34 93.5v298zM231 591l97 188l96 -49l-105 -139h-88z" />
    <glyph glyph-name="ucircumflex" unicode="&#xfb;" horiz-adv-x="587" 
d="M397 528h126v-528h-126v66q-56 -78 -162 -78q-82 0 -129.5 53t-47.5 139v348h127v-318q0 -108 91 -108q53 0 87 34.5t34 93.5v298zM349 770l126 -179h-88l-97 95l-96 -95h-88l125 179h118z" />
    <glyph glyph-name="udieresis" unicode="&#xfc;" horiz-adv-x="587" 
d="M397 528h126v-528h-126v66q-56 -78 -162 -78q-82 0 -129.5 53t-47.5 139v348h127v-318q0 -108 91 -108q53 0 87 34.5t34 93.5v298zM240 603h-103v104h103v-104zM443 603h-104v104h104v-104z" />
    <glyph glyph-name="yacute" unicode="&#xfd;" horiz-adv-x="538" 
d="M60 -170l28 101q14 -9 37 -9q28 0 45.5 18.5t35.5 67.5l-204 520h143l127 -367l126 367h136l-203 -535q-39 -102 -80.5 -139.5t-109.5 -37.5q-53 0 -81 14zM217 591l97 188l96 -49l-105 -139h-88z" />
    <glyph glyph-name="thorn" unicode="&#xfe;" horiz-adv-x="625" 
d="M64 714h127v-253q54 79 163 79q106 0 171.5 -78t65.5 -197q0 -120 -65.5 -198.5t-171.5 -78.5q-108 0 -163 80v-242h-127v888zM191 265q0 -72 36 -119t100 -47q63 0 97 47t34 119q0 71 -34 117.5t-97 46.5q-65 0 -100.5 -46t-35.5 -118z" />
    <glyph glyph-name="ydieresis" unicode="&#xff;" horiz-adv-x="538" 
d="M60 -170l28 101q14 -9 37 -9q28 0 45.5 18.5t35.5 67.5l-204 520h143l127 -367l126 367h136l-203 -535q-39 -102 -80.5 -139.5t-109.5 -37.5q-53 0 -81 14zM221 603h-103v104h103v-104zM424 603h-104v104h104v-104z" />
    <glyph glyph-name="Amacron" unicode="&#x100;" horiz-adv-x="694" 
d="M690 0h-149l-60 177h-273l-60 -177h-144l265 714h157zM447 288l-101 310l-105 -310h206zM491 778h-287v85h287v-85z" />
    <glyph glyph-name="amacron" unicode="&#x101;" horiz-adv-x="545" 
d="M485 0h-120v56q-52 -68 -151 -68q-83 0 -133 43t-50 120q0 31 8.5 56t24.5 41t33 27.5t41 19t40.5 11t38.5 6.5q90 13 112 24q29 14 29 42q0 30 -27.5 43t-66.5 13q-92 0 -165 -50l-46 93q95 63 221 63q98 0 154.5 -42.5t56.5 -131.5v-366zM358 201v60q-21 -16 -115 -32
q-42 -8 -64 -22.5t-22 -49.5q0 -34 22.5 -51.5t60.5 -17.5q50 0 84 28.5t34 84.5zM408 610h-287v85h287v-85z" />
    <glyph glyph-name="Abreve" unicode="&#x102;" horiz-adv-x="694" 
d="M690 0h-149l-60 177h-273l-60 -177h-144l265 714h157zM447 288l-101 310l-105 -310h206zM347 839q77 0 113 78l77 -35q-20 -53 -67 -91.5t-123 -38.5t-123 38.5t-67 91.5l77 35q36 -78 113 -78z" />
    <glyph glyph-name="abreve" unicode="&#x103;" horiz-adv-x="545" 
d="M485 0h-120v56q-52 -68 -151 -68q-83 0 -133 43t-50 120q0 31 8.5 56t24.5 41t33 27.5t41 19t40.5 11t38.5 6.5q90 13 112 24q29 14 29 42q0 30 -27.5 43t-66.5 13q-92 0 -165 -50l-46 93q95 63 221 63q98 0 154.5 -42.5t56.5 -131.5v-366zM358 201v60q-21 -16 -115 -32
q-42 -8 -64 -22.5t-22 -49.5q0 -34 22.5 -51.5t60.5 -17.5q50 0 84 28.5t34 84.5zM265 671q77 0 113 78l77 -35q-20 -53 -67 -91.5t-123 -38.5t-123 38.5t-67 91.5l77 35q36 -78 113 -78z" />
    <glyph glyph-name="Aogonek" unicode="&#x104;" horiz-adv-x="694" 
d="M683 -79v-79q-26 -26 -82 -26q-51 0 -83 26.5t-32 72.5q0 56 49 99l-54 163h-273l-60 -177h-144l265 714h157l264 -714h-88q-35 -30 -35 -63q0 -44 51 -44q35 0 65 28zM447 288l-101 310l-105 -310h206z" />
    <glyph glyph-name="aogonek" unicode="&#x105;" horiz-adv-x="545" 
d="M485 366v-366q-45 -7 -71 -26.5t-26 -44.5q0 -17 12 -26.5t30 -9.5q33 0 59 28v-79q-26 -26 -75 -26q-46 0 -76 23.5t-30 63.5q0 54 57 97v56q-52 -68 -151 -68q-83 0 -133 43t-50 120q0 31 8.5 56t24.5 41t33 27.5t41 19t40.5 11t38.5 6.5q90 13 112 24q29 14 29 42
q0 30 -27.5 43t-66.5 13q-92 0 -165 -50l-46 93q95 63 224 63q95 0 151.5 -43t56.5 -131zM358 201v60q-21 -16 -115 -32q-42 -8 -64 -22.5t-22 -49.5q0 -34 22.5 -51.5t60.5 -17.5q50 0 84 28.5t34 84.5z" />
    <glyph glyph-name="Cacute" unicode="&#x106;" horiz-adv-x="698" 
d="M672 567l-105 -65q-64 106 -184 106q-96 0 -153 -69t-57 -181q0 -113 57.5 -182.5t154.5 -69.5q119 0 184 110l107 -62q-102 -167 -292 -167q-156 0 -252.5 103t-96.5 268q0 164 96 266.5t250 102.5q192 0 291 -160zM310 759l97 188l96 -49l-105 -139h-88z" />
    <glyph glyph-name="cacute" unicode="&#x107;" horiz-adv-x="538" 
d="M515 418l-92 -60q-43 71 -120 71q-63 0 -100 -45.5t-37 -118.5q0 -75 37.5 -120.5t101.5 -45.5q76 0 126 70l86 -70q-82 -111 -221 -111q-118 0 -191 78t-73 198q0 119 72.5 197.5t189.5 78.5q146 0 221 -122zM216 591l97 188l96 -49l-105 -139h-88z" />
    <glyph glyph-name="Ccircumflex" unicode="&#x108;" horiz-adv-x="698" 
d="M672 567l-105 -65q-64 106 -184 106q-96 0 -153 -69t-57 -181q0 -113 57.5 -182.5t154.5 -69.5q119 0 184 110l107 -62q-102 -167 -292 -167q-156 0 -252.5 103t-96.5 268q0 164 96 266.5t250 102.5q192 0 291 -160zM435 947l126 -179h-88l-97 95l-96 -95h-88l125 179
h118z" />
    <glyph glyph-name="ccircumflex" unicode="&#x109;" horiz-adv-x="538" 
d="M515 418l-92 -60q-43 71 -120 71q-63 0 -100 -45.5t-37 -118.5q0 -75 37.5 -120.5t101.5 -45.5q76 0 126 70l86 -70q-82 -111 -221 -111q-118 0 -191 78t-73 198q0 119 72.5 197.5t189.5 78.5q146 0 221 -122zM343 770l126 -179h-88l-97 95l-96 -95h-88l125 179h118z" />
    <glyph glyph-name="Cdotaccent" unicode="&#x10a;" horiz-adv-x="698" 
d="M672 567l-105 -65q-64 106 -184 106q-96 0 -153 -69t-57 -181q0 -113 57.5 -182.5t154.5 -69.5q119 0 184 110l107 -62q-102 -167 -292 -167q-156 0 -252.5 103t-96.5 268q0 164 96 266.5t250 102.5q192 0 291 -160zM426 771h-103v104h103v-104z" />
    <glyph glyph-name="cdotaccent" unicode="&#x10b;" horiz-adv-x="538" 
d="M515 418l-92 -60q-43 71 -120 71q-63 0 -100 -45.5t-37 -118.5q0 -75 37.5 -120.5t101.5 -45.5q76 0 126 70l86 -70q-82 -111 -221 -111q-118 0 -191 78t-73 198q0 119 72.5 197.5t189.5 78.5q146 0 221 -122zM334 603h-103v104h103v-104z" />
    <glyph glyph-name="Ccaron" unicode="&#x10c;" horiz-adv-x="698" 
d="M672 567l-105 -65q-64 106 -184 106q-96 0 -153 -69t-57 -181q0 -113 57.5 -182.5t154.5 -69.5q119 0 184 110l107 -62q-102 -167 -292 -167q-156 0 -252.5 103t-96.5 268q0 164 96 266.5t250 102.5q192 0 291 -160zM559 938l-126 -179h-118l-125 179h88l96 -96l97 96h88
z" />
    <glyph glyph-name="ccaron" unicode="&#x10d;" horiz-adv-x="541" 
d="M515 418l-92 -60q-43 71 -120 71q-63 0 -100 -45.5t-37 -118.5q0 -75 37.5 -120.5t101.5 -45.5q76 0 126 70l86 -70q-82 -111 -221 -111q-118 0 -191 78t-73 198q0 119 72.5 197.5t189.5 78.5q146 0 221 -122zM470 770l-126 -179h-118l-125 179h88l96 -96l97 96h88z" />
    <glyph glyph-name="Dcaron" unicode="&#x10e;" horiz-adv-x="739" 
d="M206 120h148q102 0 156.5 63.5t54.5 173.5t-54.5 173t-156.5 63h-148v-473zM354 0h-281v714h281q164 0 256.5 -99.5t92.5 -257.5q0 -157 -92.5 -257t-256.5 -100zM542 938l-126 -179h-118l-125 179h88l96 -96l97 96h88z" />
    <glyph glyph-name="dcaron" unicode="&#x10f;" horiz-adv-x="716" 
d="M561 0h-127v68q-55 -80 -163 -80q-106 0 -171.5 77.5t-65.5 197.5t65.5 198.5t171.5 78.5q107 0 163 -80v254h127v-714zM434 264q0 71 -36 118t-100 47q-63 0 -97 -47t-34 -118q0 -72 33.5 -118.5t97.5 -46.5q65 0 100.5 46.5t35.5 118.5zM750 714l-58 -285h-67v285h125z
" />
    <glyph glyph-name="Dcroat" unicode="&#x110;" horiz-adv-x="762" 
d="M725 357q0 -159 -91 -258t-255 -99h-284v310h-64v107h64v297h284q164 0 255 -99t91 -258zM586 357q0 112 -54 174t-153 62h-150v-176h176v-107h-176v-190h150q99 0 153 62.5t54 174.5z" />
    <glyph glyph-name="dcroat" unicode="&#x111;" horiz-adv-x="625" 
d="M561 0h-127v68q-55 -80 -163 -80q-106 0 -171.5 77.5t-65.5 197.5t65.5 198.5t171.5 78.5q107 0 163 -80v146h-112v60h112v48h127v-48h35v-60h-35v-606zM434 264q0 71 -36 118t-100 47q-63 0 -97 -47t-34 -118q0 -72 33.5 -118.5t97.5 -46.5q65 0 100.5 46.5t35.5 118.5z
" />
    <glyph glyph-name="Emacron" unicode="&#x112;" horiz-adv-x="635" 
d="M589 0h-516v714h506v-121h-373v-168h332v-110h-332v-195h383v-120zM472 778h-287v85h287v-85z" />
    <glyph glyph-name="emacron" unicode="&#x113;" 
d="M169 323h249q-4 58 -38 88.5t-85 30.5q-53 0 -87 -32.5t-39 -86.5zM32 262q0 121 70 199.5t191 78.5q116 0 183.5 -72t67.5 -187q0 -11 -3 -47h-373q1 -63 40 -98t100 -35q86 0 137 65l81 -77q-84 -101 -225 -101q-126 0 -197.5 76.5t-71.5 197.5zM431 610h-287v85h287
v-85z" />
    <glyph glyph-name="Ebreve" unicode="&#x114;" horiz-adv-x="635" 
d="M589 0h-516v714h506v-121h-373v-168h332v-110h-332v-195h383v-120zM325 839q77 0 113 78l77 -35q-20 -53 -67 -91.5t-123 -38.5t-123 38.5t-67 91.5l77 35q36 -78 113 -78z" />
    <glyph glyph-name="ebreve" unicode="&#x115;" 
d="M169 323h249q-4 58 -38 88.5t-85 30.5q-53 0 -87 -32.5t-39 -86.5zM32 262q0 121 70 199.5t191 78.5q116 0 183.5 -72t67.5 -187q0 -11 -3 -47h-373q1 -63 40 -98t100 -35q86 0 137 65l81 -77q-84 -101 -225 -101q-126 0 -197.5 76.5t-71.5 197.5zM288 671q77 0 113 78
l77 -35q-20 -53 -67 -91.5t-123 -38.5t-123 38.5t-67 91.5l77 35q36 -78 113 -78z" />
    <glyph glyph-name="Edotaccent" unicode="&#x116;" horiz-adv-x="635" 
d="M589 0h-516v714h506v-121h-373v-168h332v-110h-332v-195h383v-120zM366 771h-103v104h103v-104z" />
    <glyph glyph-name="edotaccent" unicode="&#x117;" 
d="M169 323h249q-4 58 -38 88.5t-85 30.5q-53 0 -87 -32.5t-39 -86.5zM32 262q0 121 70 199.5t191 78.5q116 0 183.5 -72t67.5 -187q0 -11 -3 -47h-373q1 -63 40 -98t100 -35q86 0 137 65l81 -77q-84 -101 -225 -101q-126 0 -197.5 76.5t-71.5 197.5zM339 603h-103v104h103
v-104z" />
    <glyph glyph-name="Eogonek" unicode="&#x118;" horiz-adv-x="640" 
d="M437 0h-364v714h517v-121h-383v-164h331v-110h-331v-199h387v-120h-73q-43 -34 -43 -65q0 -20 14.5 -31t36.5 -11q37 0 65 28v-79q-26 -26 -82 -26q-51 0 -82.5 26t-31.5 71q0 46 39 87z" />
    <glyph glyph-name="eogonek" unicode="&#x119;" 
d="M501 -79v-79q-26 -26 -82 -26q-51 0 -82.5 26.5t-31.5 72.5q0 41 24 74q-5 0 -14 -0.5t-17 -0.5q-123 0 -194.5 77t-71.5 198q0 120 70 198.5t191 78.5q116 0 183.5 -72t67.5 -187q0 -11 -3 -47h-373q1 -63 40 -98t100 -35q86 0 137 65l81 -77q-18 -20 -63 -56
q-32 -25 -42.5 -33.5t-23 -26.5t-12.5 -35q0 -45 51 -45q37 0 65 28zM169 323h249q-4 58 -38 88.5t-85 30.5q-53 0 -87 -32.5t-39 -86.5z" />
    <glyph glyph-name="Ecaron" unicode="&#x11a;" horiz-adv-x="635" 
d="M589 0h-516v714h506v-121h-373v-168h332v-110h-332v-195h383v-120zM507 938l-126 -179h-118l-125 179h88l96 -96l97 96h88z" />
    <glyph glyph-name="ecaron" unicode="&#x11b;" 
d="M169 323h249q-4 58 -38 88.5t-85 30.5q-53 0 -87 -32.5t-39 -86.5zM32 262q0 121 70 199.5t191 78.5q116 0 183.5 -72t67.5 -187q0 -11 -3 -47h-373q1 -63 40 -98t100 -35q86 0 137 65l81 -77q-84 -101 -225 -101q-126 0 -197.5 76.5t-71.5 197.5zM473 770l-126 -179
h-118l-125 179h88l96 -96l97 96h88z" />
    <glyph glyph-name="Gcircumflex" unicode="&#x11c;" horiz-adv-x="745" 
d="M386 608q-100 0 -156.5 -68.5t-56.5 -180.5q0 -116 57.5 -184.5t154.5 -68.5q81 0 133.5 44t59.5 125h-174v110h308q6 -23 6 -57q0 -146 -89.5 -243.5t-245.5 -97.5t-252 103.5t-96 268.5t96.5 266.5t255.5 101.5q95 0 169 -41t120 -116l-111 -62q-57 100 -179 100z
M438 941l126 -179h-88l-97 95l-96 -95h-88l125 179h118z" />
    <glyph glyph-name="gcircumflex" unicode="&#x11d;" horiz-adv-x="606" 
d="M436 65v39q-25 -38 -69 -58.5t-97 -20.5q-103 0 -168.5 73t-65.5 183q0 111 66.5 185t169.5 74q113 0 164 -80v68h127v-437q0 -123 -56 -188q-76 -87 -225 -87q-135 0 -223 64l60 95q65 -51 159 -51q158 0 158 141zM436 284q0 65 -35.5 107t-99.5 42q-63 0 -97 -42
t-34 -107q0 -67 34 -110t97 -43t99 43t36 110zM356 770l126 -179h-88l-97 95l-96 -95h-88l125 179h118z" />
    <glyph glyph-name="Gbreve" unicode="&#x11e;" horiz-adv-x="745" 
d="M386 608q-100 0 -156.5 -68.5t-56.5 -180.5q0 -116 57.5 -184.5t154.5 -68.5q81 0 133.5 44t59.5 125h-174v110h308q6 -23 6 -57q0 -146 -89.5 -243.5t-245.5 -97.5t-252 103.5t-96 268.5t96.5 266.5t255.5 101.5q95 0 169 -41t120 -116l-111 -62q-57 100 -179 100z
M376 839q77 0 113 78l77 -35q-20 -53 -67 -91.5t-123 -38.5t-123 38.5t-67 91.5l77 35q36 -78 113 -78z" />
    <glyph glyph-name="gbreve" unicode="&#x11f;" horiz-adv-x="606" 
d="M436 65v39q-25 -38 -69 -58.5t-97 -20.5q-103 0 -168.5 73t-65.5 183q0 111 66.5 185t169.5 74q113 0 164 -80v68h127v-437q0 -123 -56 -188q-76 -87 -225 -87q-135 0 -223 64l60 95q65 -51 159 -51q158 0 158 141zM436 284q0 65 -35.5 107t-99.5 42q-63 0 -97 -42
t-34 -107q0 -67 34 -110t97 -43t99 43t36 110zM290 671q77 0 113 78l77 -35q-20 -53 -67 -91.5t-123 -38.5t-123 38.5t-67 91.5l77 35q36 -78 113 -78z" />
    <glyph glyph-name="Gdotaccent" unicode="&#x120;" horiz-adv-x="745" 
d="M386 608q-100 0 -156.5 -68.5t-56.5 -180.5q0 -116 57.5 -184.5t154.5 -68.5q81 0 133.5 44t59.5 125h-174v110h308q6 -23 6 -57q0 -146 -89.5 -243.5t-245.5 -97.5t-252 103.5t-96 268.5t96.5 266.5t255.5 101.5q95 0 169 -41t120 -116l-111 -62q-57 100 -179 100z
M427 771h-103v104h103v-104z" />
    <glyph glyph-name="gdotaccent" unicode="&#x121;" horiz-adv-x="606" 
d="M436 65v39q-25 -38 -69 -58.5t-97 -20.5q-103 0 -168.5 73t-65.5 183q0 111 66.5 185t169.5 74q113 0 164 -80v68h127v-437q0 -123 -56 -188q-76 -87 -225 -87q-135 0 -223 64l60 95q65 -51 159 -51q158 0 158 141zM436 284q0 65 -35.5 107t-99.5 42q-63 0 -97 -42
t-34 -107q0 -67 34 -110t97 -43t99 43t36 110zM338 603h-103v104h103v-104z" />
    <glyph glyph-name="Gcommaaccent" unicode="&#x122;" horiz-adv-x="745" 
d="M386 608q-100 0 -156.5 -68.5t-56.5 -180.5q0 -116 57.5 -184.5t154.5 -68.5q81 0 133.5 44t59.5 125h-174v110h308q6 -23 6 -57q0 -146 -89.5 -243.5t-245.5 -97.5t-252 103.5t-96 268.5t96.5 266.5t255.5 101.5q95 0 169 -41t120 -116l-111 -62q-57 100 -179 100z
M260 -174l61 141h131l-125 -167z" />
    <glyph glyph-name="gcommaaccent" unicode="&#x123;" horiz-adv-x="606" 
d="M398 732l-61 -141h-131l125 167zM436 65v39q-25 -38 -69 -58.5t-97 -20.5q-103 0 -168.5 73t-65.5 183q0 111 66.5 185t169.5 74q113 0 164 -80v68h127v-437q0 -123 -56 -188q-76 -87 -225 -87q-135 0 -223 64l60 95q65 -51 159 -51q158 0 158 141zM436 284
q0 65 -35.5 107t-99.5 42q-63 0 -97 -42t-34 -107q0 -67 34 -110t97 -43t99 43t36 110z" />
    <glyph glyph-name="Hcircumflex" unicode="&#x124;" horiz-adv-x="723" 
d="M674 0h-133v315h-335v-315h-133v714h133v-279h335v279h133v-714zM432 941l126 -179h-88l-97 95l-96 -95h-88l125 179h118z" />
    <glyph glyph-name="hcircumflex" unicode="&#x125;" horiz-adv-x="588" 
d="M191 0h-127v714h127v-252q56 78 161 78q82 0 129 -53t47 -139v-348h-127v319q0 107 -90 107q-52 0 -86 -34.5t-34 -93.5v-298zM189 938l126 -179h-88l-97 95l-96 -95h-88l125 179h118z" />
    <glyph glyph-name="Hbar" unicode="&#x126;" horiz-adv-x="727" 
d="M664 0h-134v316h-334v-316h-133v570h-36v72h36v72h133v-72h334v72h134v-72h35v-72h-35v-570zM196 436h334v134h-334v-134z" />
    <glyph glyph-name="hbar" unicode="&#x127;" horiz-adv-x="588" 
d="M191 0h-127v606h-34v60h34v48h127v-48h112v-60h-112v-144q56 78 161 78q82 0 129 -53t47 -139v-348h-127v319q0 107 -90 107q-52 0 -86 -34.5t-34 -93.5v-298z" />
    <glyph glyph-name="Itilde" unicode="&#x128;" horiz-adv-x="280" 
d="M206 0h-133v714h133v-714zM5 764l-67 31q39 105 131 105q37 0 80 -23q44 -22 65 -22q44 0 61 45l67 -31q-37 -105 -130 -105q-38 0 -81 22q-41 22 -64 22q-44 0 -62 -44z" />
    <glyph glyph-name="itilde" unicode="&#x129;" horiz-adv-x="255" 
d="M191 0h-127v528h127v-528zM-8 596l-67 31q39 105 131 105q37 0 80 -23q44 -22 65 -22q44 0 61 45l67 -31q-37 -105 -130 -105q-38 0 -81 22q-41 22 -64 22q-44 0 -62 -44z" />
    <glyph glyph-name="Imacron" unicode="&#x12a;" horiz-adv-x="280" 
d="M206 0h-133v714h133v-714zM283 778h-287v85h287v-85z" />
    <glyph glyph-name="imacron" unicode="&#x12b;" horiz-adv-x="255" 
d="M191 0h-127v528h127v-528zM271 610h-287v85h287v-85z" />
    <glyph glyph-name="Ibreve" unicode="&#x12c;" horiz-adv-x="280" 
d="M206 0h-133v714h133v-714zM140 839q77 0 113 78l77 -35q-20 -53 -67 -91.5t-123 -38.5t-123 38.5t-67 91.5l77 35q36 -78 113 -78z" />
    <glyph glyph-name="ibreve" unicode="&#x12d;" horiz-adv-x="255" 
d="M191 0h-127v528h127v-528zM127 671q77 0 113 78l77 -35q-20 -53 -67 -91.5t-123 -38.5t-123 38.5t-67 91.5l77 35q36 -78 113 -78z" />
    <glyph glyph-name="Iogonek" unicode="&#x12e;" horiz-adv-x="280" 
d="M206 0q-44 -8 -70.5 -26.5t-26.5 -43.5q0 -18 13 -27.5t32 -9.5q34 0 62 28v-79q-28 -26 -78 -26q-47 0 -78 24t-31 65q0 54 44 95v714h133v-714z" />
    <glyph glyph-name="iogonek" unicode="&#x12f;" horiz-adv-x="255" 
d="M64 0v528h127v-528q-40 -2 -69 -21t-29 -48q0 -17 12 -27.5t32 -10.5q38 0 62 32v-81q-28 -28 -78 -28q-47 0 -77.5 24t-30.5 64q0 53 51 96zM191 603h-127v111h127v-111z" />
    <glyph glyph-name="Idotaccent" unicode="&#x130;" horiz-adv-x="280" 
d="M206 0h-133v714h133v-714zM191 769h-103v104h103v-104z" />
    <glyph glyph-name="dotlessi" unicode="&#x131;" horiz-adv-x="255" 
d="M191 0h-127v528h127v-528z" />
    <glyph glyph-name="Jcircumflex" unicode="&#x134;" horiz-adv-x="529" 
d="M329 231v483h133v-467q0 -116 -51 -181q-62 -79 -186 -79q-79 0 -136 35.5t-85 100.5l106 57q30 -76 112 -76q107 0 107 127zM452 938l126 -179h-88l-97 95l-96 -95h-88l125 179h118z" />
    <glyph glyph-name="jcircumflex" unicode="&#x135;" horiz-adv-x="254" 
d="M190 528v-548q0 -163 -155 -163q-51 0 -83 13l19 97q18 -9 39 -9q28 0 41 15t13 55v540h126zM184 770l126 -179h-88l-97 95l-96 -95h-88l125 179h118z" />
    <glyph glyph-name="Kcommaaccent" unicode="&#x136;" horiz-adv-x="689" 
d="M693 0h-160l-213 324l-114 -133v-191h-133v714h133v-348l298 348h162l-253 -291zM245 -174l61 141h131l-125 -167z" />
    <glyph glyph-name="kcommaaccent" unicode="&#x137;" horiz-adv-x="581" 
d="M191 287l215 241h152l-196 -210l219 -318h-152l-153 234l-85 -93v-141h-127v714h127v-427zM181 -174l61 141h131l-125 -167z" />
    <glyph glyph-name="kgreenlandic" unicode="&#x138;" horiz-adv-x="581" 
d="M189 287l215 241h152l-196 -210l219 -318h-152l-153 234l-85 -93v-141h-127v528h127v-241z" />
    <glyph glyph-name="Lacute" unicode="&#x139;" horiz-adv-x="573" 
d="M558 0h-485v714h133v-594h352v-120zM90 759l97 188l96 -49l-105 -139h-88z" />
    <glyph glyph-name="lacute" unicode="&#x13a;" horiz-adv-x="257" 
d="M192 0h-127v714h127v-714zM78 751l97 188l96 -49l-105 -139h-88z" />
    <glyph glyph-name="Lcommaaccent" unicode="&#x13b;" horiz-adv-x="573" 
d="M558 0h-485v714h133v-594h352v-120zM219 -174l61 141h131l-125 -167z" />
    <glyph glyph-name="lcommaaccent" unicode="&#x13c;" horiz-adv-x="257" 
d="M192 0h-127v714h127v-714zM4 -174l61 141h131l-125 -167z" />
    <glyph glyph-name="Lcaron" unicode="&#x13d;" horiz-adv-x="573" 
d="M558 0h-485v714h133v-594h352v-120zM418 714l-58 -285h-67v285h125z" />
    <glyph glyph-name="lcaron" unicode="&#x13e;" horiz-adv-x="359" 
d="M393 714l-58 -285h-67v285h125zM192 0h-127v714h127v-714z" />
    <glyph glyph-name="Ldot" unicode="&#x13f;" horiz-adv-x="573" 
d="M558 0h-485v714h133v-594h352v-120zM388 386q0 -34 -24.5 -58.5t-58.5 -24.5t-58.5 24.5t-24.5 58.5t24.5 58.5t58.5 24.5t58.5 -24.5t24.5 -58.5z" />
    <glyph glyph-name="ldot" unicode="&#x140;" horiz-adv-x="469" 
d="M192 0h-127v714h127v-714zM444 263q0 -34 -24.5 -58.5t-58.5 -24.5t-58.5 24.5t-24.5 58.5t24.5 59t58.5 25t58.5 -25t24.5 -59z" />
    <glyph glyph-name="Lslash" unicode="&#x141;" horiz-adv-x="587" 
d="M574 0h-485v294l-59 -26v91l59 25v330h133v-279l170 72v-91l-170 -71v-225h352v-120z" />
    <glyph glyph-name="lslash" unicode="&#x142;" horiz-adv-x="335" 
d="M317 435l-91 -37v-398h-126v350l-77 -33v103l77 34v260h126v-214l91 38v-103z" />
    <glyph glyph-name="Nacute" unicode="&#x143;" horiz-adv-x="745" 
d="M672 0h-145l-325 530v-530h-129v714h161l310 -505v505h128v-714zM314 759l97 188l96 -49l-105 -139h-88z" />
    <glyph glyph-name="nacute" unicode="&#x144;" horiz-adv-x="588" 
d="M191 0h-127v528h127v-66q56 78 161 78q82 0 129 -53t47 -139v-348h-127v319q0 107 -90 107q-52 0 -86 -34.5t-34 -93.5v-298zM249 591l97 188l96 -49l-105 -139h-88z" />
    <glyph glyph-name="Ncommaaccent" unicode="&#x145;" horiz-adv-x="745" 
d="M672 0h-145l-325 530v-530h-129v714h161l310 -505v505h128v-714zM257 -174l61 141h131l-125 -167z" />
    <glyph glyph-name="ncommaaccent" unicode="&#x146;" horiz-adv-x="588" 
d="M191 0h-127v528h127v-66q56 78 161 78q82 0 129 -53t47 -139v-348h-127v319q0 107 -90 107q-52 0 -86 -34.5t-34 -93.5v-298zM183 -174l61 141h131l-125 -167z" />
    <glyph glyph-name="Ncaron" unicode="&#x147;" horiz-adv-x="745" 
d="M672 0h-145l-325 530v-530h-129v714h161l310 -505v505h128v-714zM557 938l-126 -179h-118l-125 179h88l96 -96l97 96h88z" />
    <glyph glyph-name="ncaron" unicode="&#x148;" horiz-adv-x="588" 
d="M191 0h-127v528h127v-66q56 78 161 78q82 0 129 -53t47 -139v-348h-127v319q0 107 -90 107q-52 0 -86 -34.5t-34 -93.5v-298zM483 770l-126 -179h-118l-125 179h88l96 -96l97 96h88z" />
    <glyph glyph-name="Eng" unicode="&#x14a;" horiz-adv-x="745" 
d="M672 714v-637q0 -121 -58.5 -183.5t-162.5 -62.5q-66 0 -119 27l38 109q27 -19 72 -19q67 0 87 50l-327 532v-530h-129v714h161l310 -505v505h128z" />
    <glyph glyph-name="eng" unicode="&#x14b;" horiz-adv-x="588" 
d="M191 0h-127v528h127v-66q56 78 161 78q82 0 129 -53t47 -139v-368q0 -163 -156 -163q-50 0 -83 13l19 97q18 -9 40 -9q27 0 40 15t13 55v331q0 107 -90 107q-52 0 -86 -34.5t-34 -93.5v-298z" />
    <glyph glyph-name="Omacron" unicode="&#x14c;" horiz-adv-x="768" 
d="M734 357q0 -160 -95.5 -265t-254.5 -105t-254.5 105t-95.5 265t95.5 265t254.5 105t254.5 -105t95.5 -265zM596 357q0 109 -56.5 177t-155.5 68q-98 0 -154.5 -68t-56.5 -177t56.5 -177t154.5 -68q99 0 155.5 68t56.5 177zM524 778h-287v85h287v-85z" />
    <glyph glyph-name="omacron" unicode="&#x14d;" horiz-adv-x="596" 
d="M564 263q0 -122 -72.5 -198.5t-193.5 -76.5t-193.5 76.5t-72.5 198.5q0 123 72.5 200t193.5 77t193.5 -77t72.5 -200zM430 264q0 75 -35 121.5t-97 46.5t-96.5 -46.5t-34.5 -121.5q0 -74 35 -121t96 -47q62 0 97 47t35 121zM442 610h-287v85h287v-85z" />
    <glyph glyph-name="Obreve" unicode="&#x14e;" horiz-adv-x="768" 
d="M734 357q0 -160 -95.5 -265t-254.5 -105t-254.5 105t-95.5 265t95.5 265t254.5 105t254.5 -105t95.5 -265zM596 357q0 109 -56.5 177t-155.5 68q-98 0 -154.5 -68t-56.5 -177t56.5 -177t154.5 -68q99 0 155.5 68t56.5 177zM384 839q77 0 113 78l77 -35q-20 -53 -67 -91.5
t-123 -38.5t-123 38.5t-67 91.5l77 35q36 -78 113 -78z" />
    <glyph glyph-name="obreve" unicode="&#x14f;" horiz-adv-x="596" 
d="M564 263q0 -122 -72.5 -198.5t-193.5 -76.5t-193.5 76.5t-72.5 198.5q0 123 72.5 200t193.5 77t193.5 -77t72.5 -200zM430 264q0 75 -35 121.5t-97 46.5t-96.5 -46.5t-34.5 -121.5q0 -74 35 -121t96 -47q62 0 97 47t35 121zM298 671q77 0 113 78l77 -35
q-20 -53 -67 -91.5t-123 -38.5t-123 38.5t-67 91.5l77 35q36 -78 113 -78z" />
    <glyph glyph-name="Ohungarumlaut" unicode="&#x150;" horiz-adv-x="768" 
d="M734 357q0 -160 -95.5 -265t-254.5 -105t-254.5 105t-95.5 265t95.5 265t254.5 105t254.5 -105t95.5 -265zM596 357q0 109 -56.5 177t-155.5 68q-98 0 -154.5 -68t-56.5 -177t56.5 -177t154.5 -68q99 0 155.5 68t56.5 177zM222 759l96 188l96 -49l-104 -139h-88zM404 759
l96 188l96 -49l-104 -139h-88z" />
    <glyph glyph-name="ohungarumlaut" unicode="&#x151;" horiz-adv-x="596" 
d="M564 263q0 -122 -72.5 -198.5t-193.5 -76.5t-193.5 76.5t-72.5 198.5q0 123 72.5 200t193.5 77t193.5 -77t72.5 -200zM430 264q0 75 -35 121.5t-97 46.5t-96.5 -46.5t-34.5 -121.5q0 -74 35 -121t96 -47q62 0 97 47t35 121zM151 591l96 188l96 -49l-104 -139h-88z
M333 591l96 188l96 -49l-104 -139h-88z" />
    <glyph glyph-name="OE" unicode="&#x152;" horiz-adv-x="1068" 
d="M1032 0h-553q-49 -13 -99 -13q-159 0 -254 105t-95 265t95 265t254 105q50 0 99 -13h543v-121h-374q62 -68 74 -168h260v-110h-257q-8 -117 -76 -195h383v-120zM592 357q0 109 -56.5 178t-155.5 69q-98 0 -154 -69t-56 -178t56 -178t154 -69q99 0 155.5 69t56.5 178z" />
    <glyph glyph-name="oe" unicode="&#x153;" horiz-adv-x="974" 
d="M298 540q128 0 196 -99q68 99 196 99q116 0 183.5 -72t67.5 -187q0 -23 -2 -47h-373q1 -63 40 -98t100 -35q86 0 137 65l80 -77q-84 -101 -224 -101q-136 0 -205 98q-69 -98 -196 -98q-121 0 -193.5 76.5t-72.5 198.5q0 123 72.5 200t193.5 77zM430 264q0 75 -35 121.5
t-97 46.5t-96.5 -46.5t-34.5 -121.5q0 -74 35 -121t96 -47q62 0 97 47t35 121zM566 323h249q-4 58 -37.5 88.5t-84.5 30.5q-54 0 -88 -32.5t-39 -86.5z" />
    <glyph glyph-name="Racute" unicode="&#x154;" horiz-adv-x="674" 
d="M648 0h-147l-140 269h-155v-269h-133v714h318q117 0 182.5 -59.5t65.5 -157.5q0 -75 -38.5 -127t-105.5 -78zM503 487q0 49 -31.5 77.5t-83.5 28.5h-182v-214h180q53 0 85 29.5t32 78.5zM266 759l97 188l96 -49l-105 -139h-88z" />
    <glyph glyph-name="racute" unicode="&#x155;" horiz-adv-x="406" 
d="M404 520l-22 -114q-22 14 -62 14q-57 0 -93 -44.5t-36 -128.5v-247h-127v528h127v-70q24 37 62 58.5t82 21.5q45 0 69 -18zM157 591l97 188l96 -49l-105 -139h-88z" />
    <glyph glyph-name="Rcommaaccent" unicode="&#x156;" horiz-adv-x="674" 
d="M648 0h-147l-140 269h-155v-269h-133v714h318q117 0 182.5 -59.5t65.5 -157.5q0 -75 -38.5 -127t-105.5 -78zM503 487q0 49 -31.5 77.5t-83.5 28.5h-182v-214h180q53 0 85 29.5t32 78.5zM234 -174l61 141h131l-125 -167z" />
    <glyph glyph-name="rcommaaccent" unicode="&#x157;" horiz-adv-x="406" 
d="M4 -174l61 141h131l-125 -167zM404 520l-22 -114q-22 14 -62 14q-57 0 -93 -44.5t-36 -128.5v-247h-127v528h127v-70q24 37 62 58.5t82 21.5q45 0 69 -18z" />
    <glyph glyph-name="Rcaron" unicode="&#x158;" horiz-adv-x="674" 
d="M648 0h-147l-140 269h-155v-269h-133v714h318q117 0 182.5 -59.5t65.5 -157.5q0 -75 -38.5 -127t-105.5 -78zM503 487q0 49 -31.5 77.5t-83.5 28.5h-182v-214h180q53 0 85 29.5t32 78.5zM522 938l-126 -179h-118l-125 179h88l96 -96l97 96h88z" />
    <glyph glyph-name="rcaron" unicode="&#x159;" horiz-adv-x="406" 
d="M412 770l-126 -179h-118l-125 179h88l96 -96l97 96h88zM404 520l-22 -114q-22 14 -62 14q-57 0 -93 -44.5t-36 -128.5v-247h-127v528h127v-70q24 37 62 58.5t82 21.5q45 0 69 -18z" />
    <glyph glyph-name="Sacute" unicode="&#x15a;" horiz-adv-x="628" 
d="M303 614q-54 0 -90 -23t-36 -64q0 -31 26 -50t76 -32q13 -4 46.5 -12t53 -13t51.5 -15.5t52 -21t43.5 -27.5t37 -36t23 -46.5t9.5 -59.5q0 -99 -75 -163t-203 -64q-98 0 -174.5 39t-118.5 109l103 70q30 -53 83 -79t112 -26q65 0 103.5 27.5t38.5 73.5q0 20 -9.5 35.5
t-20.5 25t-37 18.5t-42 12.5t-51 11.5q-56 11 -95.5 24t-80.5 37t-62.5 62.5t-21.5 90.5q0 98 74 153.5t188 55.5q181 0 274 -131l-99 -68q-28 40 -75 63t-103 23zM238 759l97 188l96 -49l-105 -139h-88z" />
    <glyph glyph-name="sacute" unicode="&#x15b;" horiz-adv-x="513" 
d="M22 75l68 80q65 -66 170 -66q98 0 98 62q0 28 -26.5 39.5t-103.5 24.5q-41 7 -71.5 17t-59.5 27.5t-44.5 46.5t-15.5 69q0 82 60.5 123.5t153.5 41.5q131 0 219 -82l-68 -79q-24 27 -66 44t-90 17q-90 0 -90 -52q0 -35 66 -50q13 -3 52 -10q104 -18 155 -53.5t51 -108.5
q0 -82 -61.5 -130t-165.5 -48q-144 0 -231 87zM185 591l97 188l96 -49l-105 -139h-88z" />
    <glyph glyph-name="Scircumflex" unicode="&#x15c;" horiz-adv-x="628" 
d="M303 614q-54 0 -90 -23t-36 -64q0 -31 26 -50t76 -32q13 -4 46.5 -12t53 -13t51.5 -15.5t52 -21t43.5 -27.5t37 -36t23 -46.5t9.5 -59.5q0 -99 -75 -163t-203 -64q-98 0 -174.5 39t-118.5 109l103 70q30 -53 83 -79t112 -26q65 0 103.5 27.5t38.5 73.5q0 20 -9.5 35.5
t-20.5 25t-37 18.5t-42 12.5t-51 11.5q-56 11 -95.5 24t-80.5 37t-62.5 62.5t-21.5 90.5q0 98 74 153.5t188 55.5q181 0 274 -131l-99 -68q-28 40 -75 63t-103 23zM365 947l126 -179h-88l-97 95l-96 -95h-88l125 179h118z" />
    <glyph glyph-name="scircumflex" unicode="&#x15d;" horiz-adv-x="513" 
d="M22 75l68 80q65 -66 170 -66q98 0 98 62q0 28 -26.5 39.5t-103.5 24.5q-41 7 -71.5 17t-59.5 27.5t-44.5 46.5t-15.5 69q0 82 60.5 123.5t153.5 41.5q131 0 219 -82l-68 -79q-24 27 -66 44t-90 17q-90 0 -90 -52q0 -35 66 -50q13 -3 52 -10q104 -18 155 -53.5t51 -108.5
q0 -82 -61.5 -130t-165.5 -48q-144 0 -231 87zM306 770l126 -179h-88l-97 95l-96 -95h-88l125 179h118z" />
    <glyph glyph-name="Scedilla" unicode="&#x15e;" horiz-adv-x="628" 
d="M303 614q-54 0 -90 -23t-36 -64q0 -31 26 -50t76 -32q13 -4 46.5 -12t53 -13t51.5 -15.5t52 -21t43.5 -27.5t37 -36t23 -46.5t9.5 -59.5q0 -99 -75 -163t-203 -64q-98 0 -174.5 39t-118.5 109l103 70q30 -53 83 -79t112 -26q65 0 103.5 27.5t38.5 73.5q0 20 -9.5 35.5
t-20.5 25t-37 18.5t-42 12.5t-51 11.5q-56 11 -95.5 24t-80.5 37t-62.5 62.5t-21.5 90.5q0 98 74 153.5t188 55.5q181 0 274 -131l-99 -68q-28 40 -75 63t-103 23zM269 -195q-48 0 -76 13v60q22 -16 62 -16q24 0 37.5 9t13.5 23q0 10 -7 14h-47v59q16 13 52 13
q41 0 71 -22.5t30 -60.5q0 -42 -38 -67t-98 -25z" />
    <glyph glyph-name="scedilla" unicode="&#x15f;" horiz-adv-x="513" 
d="M22 75l68 80q65 -66 170 -66q98 0 98 62q0 28 -26.5 39.5t-103.5 24.5q-41 7 -71.5 17t-59.5 27.5t-44.5 46.5t-15.5 69q0 82 60.5 123.5t153.5 41.5q131 0 219 -82l-68 -79q-24 27 -66 44t-90 17q-90 0 -90 -52q0 -35 66 -50q13 -3 52 -10q104 -18 155 -53.5t51 -108.5
q0 -82 -61.5 -130t-165.5 -48q-144 0 -231 87zM210 -195q-48 0 -76 13v60q22 -16 62 -16q24 0 37.5 9t13.5 23q0 10 -7 14h-47v59q16 13 52 13q41 0 71 -22.5t30 -60.5q0 -42 -38 -67t-98 -25z" />
    <glyph glyph-name="Scaron" unicode="&#x160;" horiz-adv-x="628" 
d="M303 614q-54 0 -90 -23t-36 -64q0 -31 26 -50t76 -32q13 -4 46.5 -12t53 -13t51.5 -15.5t52 -21t43.5 -27.5t37 -36t23 -46.5t9.5 -59.5q0 -99 -75 -163t-203 -64q-98 0 -174.5 39t-118.5 109l103 70q30 -53 83 -79t112 -26q65 0 103.5 27.5t38.5 73.5q0 20 -9.5 35.5
t-20.5 25t-37 18.5t-42 12.5t-51 11.5q-56 11 -95.5 24t-80.5 37t-62.5 62.5t-21.5 90.5q0 98 74 153.5t188 55.5q181 0 274 -131l-99 -68q-28 40 -75 63t-103 23zM490 938l-126 -179h-118l-125 179h88l96 -96l97 96h88z" />
    <glyph glyph-name="scaron" unicode="&#x161;" horiz-adv-x="513" 
d="M22 75l68 80q65 -66 170 -66q98 0 98 62q0 28 -26.5 39.5t-103.5 24.5q-41 7 -71.5 17t-59.5 27.5t-44.5 46.5t-15.5 69q0 82 60.5 123.5t153.5 41.5q131 0 219 -82l-68 -79q-24 27 -66 44t-90 17q-90 0 -90 -52q0 -35 66 -50q13 -3 52 -10q104 -18 155 -53.5t51 -108.5
q0 -82 -61.5 -130t-165.5 -48q-144 0 -231 87zM434 770l-126 -179h-118l-125 179h88l96 -96l97 96h88z" />
    <glyph glyph-name="Tcedilla" unicode="&#x162;" horiz-adv-x="639" 
d="M613 593h-228v-593h-132v593h-228v121h588v-121zM270 -195q-48 0 -76 13v60q22 -16 62 -16q24 0 37.5 9t13.5 23q0 10 -7 14h-47v59q16 13 52 13q41 0 71 -22.5t30 -60.5q0 -42 -38 -67t-98 -25z" />
    <glyph glyph-name="tcedilla" unicode="&#x163;" horiz-adv-x="395" 
d="M359 114l27 -99q-40 -27 -113 -27q-159 0 -159 162v276h-96v102h96v186h127v-186h130v-102h-130v-256q0 -73 62 -73q33 0 56 17zM211 -195q-48 0 -76 13v60q22 -16 62 -16q24 0 37.5 9t13.5 23q0 10 -7 14h-47v59q16 13 52 13q41 0 71 -22.5t30 -60.5q0 -42 -37.5 -67
t-98.5 -25z" />
    <glyph glyph-name="Tcaron" unicode="&#x164;" horiz-adv-x="639" 
d="M613 593h-228v-593h-132v593h-228v121h588v-121zM504 938l-126 -179h-118l-125 179h88l96 -96l97 96h88z" />
    <glyph glyph-name="tcaron" unicode="&#x165;" horiz-adv-x="403" 
d="M358 114l27 -99q-40 -27 -113 -27q-159 0 -159 162v276h-96v102h96v186h127v-186h130v-102h-130v-256q0 -73 62 -73q33 0 56 17zM415 800l-51 -228h-60v228h111z" />
    <glyph glyph-name="Tbar" unicode="&#x166;" horiz-adv-x="639" 
d="M494 313h-109v-313h-133v313h-108v71h108v209h-227v121h588v-121h-228v-209h109v-71z" />
    <glyph glyph-name="tbar" unicode="&#x167;" horiz-adv-x="419" 
d="M367 114l27 -99q-41 -27 -113 -27q-159 0 -159 162v115h-83v72h83v89h-97v102h97v186h126v-186h131v-102h-131v-89h102v-72h-102v-95q0 -73 63 -73q33 0 56 17z" />
    <glyph glyph-name="Utilde" unicode="&#x168;" horiz-adv-x="709" 
d="M643 714v-446q0 -131 -79.5 -206t-209.5 -75q-131 0 -209 75t-78 206v446h132v-446q0 -75 40.5 -116.5t114.5 -41.5q73 0 114.5 42t41.5 116v446h133zM220 764l-67 31q39 105 131 105q37 0 80 -23q44 -22 65 -22q44 0 61 45l67 -31q-37 -105 -130 -105q-38 0 -81 22
q-41 22 -64 22q-44 0 -62 -44z" />
    <glyph glyph-name="utilde" unicode="&#x169;" horiz-adv-x="588" 
d="M398 528h126v-528h-126v66q-56 -78 -162 -78q-82 0 -129.5 53t-47.5 139v348h127v-318q0 -108 91 -108q53 0 87 34.5t34 93.5v298zM158 596l-67 31q39 105 131 105q37 0 80 -23q44 -22 65 -22q44 0 61 45l67 -31q-37 -105 -130 -105q-38 0 -81 22q-41 22 -64 22
q-44 0 -62 -44z" />
    <glyph glyph-name="Umacron" unicode="&#x16a;" horiz-adv-x="709" 
d="M643 714v-446q0 -131 -79.5 -206t-209.5 -75q-131 0 -209 75t-78 206v446h132v-446q0 -75 40.5 -116.5t114.5 -41.5q73 0 114.5 42t41.5 116v446h133zM498 778h-287v85h287v-85z" />
    <glyph glyph-name="umacron" unicode="&#x16b;" horiz-adv-x="587" 
d="M397 528h126v-528h-126v66q-56 -78 -162 -78q-82 0 -129.5 53t-47.5 139v348h127v-318q0 -108 91 -108q53 0 87 34.5t34 93.5v298zM434 610h-287v85h287v-85z" />
    <glyph glyph-name="Ubreve" unicode="&#x16c;" horiz-adv-x="709" 
d="M643 714v-446q0 -131 -79.5 -206t-209.5 -75q-131 0 -209 75t-78 206v446h132v-446q0 -75 40.5 -116.5t114.5 -41.5q73 0 114.5 42t41.5 116v446h133zM354 839q77 0 113 78l77 -35q-20 -53 -67 -91.5t-123 -38.5t-123 38.5t-67 91.5l77 35q36 -78 113 -78z" />
    <glyph glyph-name="ubreve" unicode="&#x16d;" horiz-adv-x="587" 
d="M397 528h126v-528h-126v66q-56 -78 -162 -78q-82 0 -129.5 53t-47.5 139v348h127v-318q0 -108 91 -108q53 0 87 34.5t34 93.5v298zM290 671q77 0 113 78l77 -35q-20 -53 -67 -91.5t-123 -38.5t-123 38.5t-67 91.5l77 35q36 -78 113 -78z" />
    <glyph glyph-name="Uring" unicode="&#x16e;" horiz-adv-x="709" 
d="M643 714v-446q0 -131 -79.5 -206t-209.5 -75q-131 0 -209 75t-78 206v446h132v-446q0 -75 40.5 -116.5t114.5 -41.5q73 0 114.5 42t41.5 116v446h133zM244 832q0 46 32.5 78.5t77.5 32.5q46 0 78 -32.5t32 -78.5q0 -45 -32 -77.5t-78 -32.5q-45 0 -77.5 32.5t-32.5 77.5z
M306 832q0 -20 14.5 -34.5t33.5 -14.5q20 0 34.5 14.5t14.5 34.5q0 21 -14.5 35.5t-34.5 14.5t-34 -14.5t-14 -35.5z" />
    <glyph glyph-name="uring" unicode="&#x16f;" horiz-adv-x="587" 
d="M397 528h126v-528h-126v66q-56 -78 -162 -78q-82 0 -129.5 53t-47.5 139v348h127v-318q0 -108 91 -108q53 0 87 34.5t34 93.5v298zM180 664q0 46 32.5 78.5t77.5 32.5q46 0 78 -32.5t32 -78.5q0 -45 -32 -77.5t-78 -32.5q-45 0 -77.5 32.5t-32.5 77.5zM242 664
q0 -20 14.5 -34.5t33.5 -14.5q20 0 34.5 14.5t14.5 34.5q0 21 -14.5 35.5t-34.5 14.5t-34 -14.5t-14 -35.5z" />
    <glyph glyph-name="Uhungarumlaut" unicode="&#x170;" horiz-adv-x="709" 
d="M643 714v-446q0 -131 -79.5 -206t-209.5 -75q-131 0 -209 75t-78 206v446h132v-446q0 -75 40.5 -116.5t114.5 -41.5q73 0 114.5 42t41.5 116v446h133zM217 759l96 188l96 -49l-104 -139h-88zM399 759l96 188l96 -49l-104 -139h-88z" />
    <glyph glyph-name="uhungarumlaut" unicode="&#x171;" horiz-adv-x="587" 
d="M397 528h126v-528h-126v66q-56 -78 -162 -78q-82 0 -129.5 53t-47.5 139v348h127v-318q0 -108 91 -108q53 0 87 34.5t34 93.5v298zM146 591l96 188l96 -49l-104 -139h-88zM328 591l96 188l96 -49l-104 -139h-88z" />
    <glyph glyph-name="Uogonek" unicode="&#x172;" horiz-adv-x="709" 
d="M573 -79v-79q-26 -26 -82 -26q-51 0 -83.5 27t-32.5 75q0 37 22 72q-21 -3 -44 -3q-129 0 -207.5 75t-78.5 206v446h132v-446q0 -75 40.5 -116.5t114.5 -41.5q73 0 114.5 42t41.5 116v446h133v-446q0 -153 -113 -232q-38 -28 -56 -49t-18 -47q0 -47 52 -47q35 0 65 28z
" />
    <glyph glyph-name="uogonek" unicode="&#x173;" horiz-adv-x="587" 
d="M397 528h126v-528q-45 -7 -70.5 -26.5t-25.5 -44.5q0 -17 11.5 -26.5t29.5 -9.5q33 0 59 28v-79q-26 -26 -75 -26q-46 0 -76 23.5t-30 63.5q0 51 51 97v66q-56 -78 -162 -78q-82 0 -129.5 53t-47.5 139v348h127v-318q0 -108 91 -108q53 0 87 34.5t34 93.5v298z" />
    <glyph glyph-name="Wcircumflex" unicode="&#x174;" horiz-adv-x="967" 
d="M949 714l-188 -714h-138l-142 504l-142 -504h-139l-182 714h143l117 -516l148 516h113l148 -517l117 517h145zM540 947l126 -179h-88l-97 95l-96 -95h-88l125 179h118z" />
    <glyph glyph-name="wcircumflex" unicode="&#x175;" horiz-adv-x="786" 
d="M769 528l-143 -528h-132l-101 357l-103 -357h-130l-142 528h136l84 -355l102 355h109l102 -355l83 355h135zM452 770l126 -179h-88l-97 95l-96 -95h-88l125 179h118z" />
    <glyph glyph-name="Ycircumflex" unicode="&#x176;" horiz-adv-x="641" 
d="M643 714l-256 -417v-297h-134v297l-254 417h154l169 -291l168 291h153zM379 947l126 -179h-88l-97 95l-96 -95h-88l125 179h118z" />
    <glyph glyph-name="ycircumflex" unicode="&#x177;" horiz-adv-x="538" 
d="M60 -170l28 101q14 -9 37 -9q28 0 45.5 18.5t35.5 67.5l-204 520h143l127 -367l126 367h136l-203 -535q-39 -102 -80.5 -139.5t-109.5 -37.5q-53 0 -81 14zM331 770l126 -179h-88l-97 95l-96 -95h-88l125 179h118z" />
    <glyph glyph-name="Ydieresis" unicode="&#x178;" horiz-adv-x="641" 
d="M643 714l-256 -417v-297h-134v297l-254 417h154l169 -291l168 291h153zM270 771h-103v104h103v-104zM473 771h-104v104h104v-104z" />
    <glyph glyph-name="Zacute" unicode="&#x179;" horiz-adv-x="643" 
d="M604 0h-567v108l376 485h-361v121h543v-103l-380 -491h389v-120zM248 759l97 188l96 -49l-105 -139h-88z" />
    <glyph glyph-name="zacute" unicode="&#x17a;" horiz-adv-x="512" 
d="M474 0h-440v94l258 324h-246v110h420v-92l-258 -326h266v-110zM195 591l97 188l96 -49l-105 -139h-88z" />
    <glyph glyph-name="Zdotaccent" unicode="&#x17b;" horiz-adv-x="643" 
d="M604 0h-567v108l376 485h-361v121h543v-103l-380 -491h389v-120zM356 771h-103v104h103v-104z" />
    <glyph glyph-name="zdotaccent" unicode="&#x17c;" horiz-adv-x="512" 
d="M474 0h-440v94l258 324h-246v110h420v-92l-258 -326h266v-110zM293 603h-103v104h103v-104z" />
    <glyph glyph-name="Zcaron" unicode="&#x17d;" horiz-adv-x="643" 
d="M604 0h-567v108l376 485h-361v121h543v-103l-380 -491h389v-120zM496 938l-126 -179h-118l-125 179h88l96 -96l97 96h88z" />
    <glyph glyph-name="zcaron" unicode="&#x17e;" horiz-adv-x="520" 
d="M474 0h-440v94l258 324h-246v110h420v-92l-258 -326h266v-110zM432 770l-126 -179h-118l-125 179h88l96 -96l97 96h88z" />
    <glyph glyph-name="florin" unicode="&#x192;" 
d="M575 703l-41 -100q-30 15 -58 15q-69 0 -82 -69l-13 -79h126l-18 -99h-126l-53 -310q-31 -177 -197 -177q-60 0 -108 24l41 99q30 -15 60 -15q67 0 80 70l53 309h-104l18 99h104l13 80q31 177 197 177q58 0 108 -24z" />
    <glyph glyph-name="Aringacute" unicode="&#x1fa;" horiz-adv-x="693" 
d="M308 887l79 113l92 -32l-85 -81h-86zM449 288l-101 310l-105 -310h206zM301 763q0 -20 14.5 -34.5t34.5 -14.5t34.5 15t14.5 34q0 21 -14.5 35.5t-34.5 14.5t-34.5 -14.5t-14.5 -35.5zM240 763q0 46 32 78.5t78 32.5q45 0 77.5 -32.5t32.5 -78.5q0 -37 -25 -67l257 -696
h-149l-60 177h-273l-60 -177h-144l258 697q-24 27 -24 66z" />
    <glyph glyph-name="aringacute" unicode="&#x1fb;" horiz-adv-x="545" 
d="M485 0h-120v56q-52 -68 -151 -68q-83 0 -133 43t-50 120q0 31 8.5 56t24.5 41t33 27.5t41 19t40.5 11t38.5 6.5q90 13 112 24q29 14 29 42q0 30 -27.5 43t-66.5 13q-92 0 -165 -50l-46 93q95 63 221 63q98 0 154.5 -42.5t56.5 -131.5v-366zM358 201v60q-21 -16 -115 -32
q-42 -8 -64 -22.5t-22 -49.5q0 -34 22.5 -51.5t60.5 -17.5q50 0 84 28.5t34 84.5zM209 798l97 179l96 -47l-105 -132h-88zM152 664q0 46 32.5 78.5t77.5 32.5q46 0 78 -32.5t32 -78.5q0 -45 -32 -77.5t-78 -32.5q-45 0 -77.5 32.5t-32.5 77.5zM214 664q0 -20 14.5 -34.5
t33.5 -14.5q20 0 34.5 14.5t14.5 34.5q0 21 -14.5 35.5t-34.5 14.5t-34 -14.5t-14 -35.5z" />
    <glyph glyph-name="AEacute" unicode="&#x1fc;" horiz-adv-x="935" 
d="M889 0h-463v177h-234l-100 -177h-144l411 714h520v-121h-320v-164h280v-110h-280v-199h330v-120zM426 288v318l-174 -318h174zM450 759l97 188l96 -49l-105 -139h-88z" />
    <glyph glyph-name="aeacute" unicode="&#x1fd;" horiz-adv-x="892" 
d="M275 540q118 0 169 -67q69 67 171 67q112 0 178.5 -72.5t66.5 -186.5q0 -23 -2 -47h-373q1 -63 40 -98t100 -35q86 0 137 65l80 -77q-84 -101 -224 -101q-127 0 -197 86q-64 -86 -193 -86q-94 0 -145.5 42.5t-51.5 119.5q0 37 13 65.5t31 44.5t46 28t48 16t48 8
q90 13 112 24q29 14 29 42q0 30 -27.5 43t-66.5 13q-92 0 -165 -50l-46 93q95 63 222 63zM358 201v60q-21 -16 -115 -32q-42 -8 -64 -22.5t-22 -49.5q0 -34 22.5 -51.5t60.5 -17.5q50 0 84 28.5t34 84.5zM485 323h249q-4 58 -37.5 88.5t-84.5 30.5q-54 0 -88 -32.5
t-39 -86.5zM395 591l97 188l96 -49l-105 -139h-88z" />
    <glyph glyph-name="Oslashacute" unicode="&#x1fe;" horiz-adv-x="768" 
d="M167 -14l-57 40l35 50q-111 105 -111 281q0 160 95.5 265t254.5 105q102 0 183 -49l34 50l57 -40l-35 -51q111 -103 111 -280q0 -160 -95.5 -265t-254.5 -105q-103 0 -183 47zM596 357q0 100 -52 168l-269 -386q44 -29 109 -29q98 0 155 69t57 178zM173 357
q0 -105 50 -169l270 386q-50 30 -109 30q-98 0 -154.5 -69t-56.5 -178zM334 759l97 188l96 -49l-105 -139h-88z" />
    <glyph glyph-name="oslashacute" unicode="&#x1ff;" horiz-adv-x="596" 
d="M142 -13l-52 35l23 33q-81 76 -81 208q0 123 72.5 200t193.5 77q71 0 132 -32l23 33l53 -35l-24 -34q82 -79 82 -209q0 -122 -72.5 -198.5t-193.5 -76.5q-75 0 -133 32zM165 264q0 -61 24 -100l176 252q-32 20 -67 20q-62 0 -97.5 -48t-35.5 -124zM431 264q0 58 -24 101
l-178 -252q31 -21 69 -21q63 0 98 48t35 124zM238 591l97 188l96 -49l-105 -139h-88z" />
    <glyph glyph-name="Scommaaccent" unicode="&#x218;" horiz-adv-x="628" 
d="M303 614q-54 0 -90 -23t-36 -64q0 -31 26 -50t76 -32q13 -4 46.5 -12t53 -13t51.5 -15.5t52 -21t43.5 -27.5t37 -36t23 -46.5t9.5 -59.5q0 -99 -75 -163t-203 -64q-98 0 -174.5 39t-118.5 109l103 70q30 -53 83 -79t112 -26q65 0 103.5 27.5t38.5 73.5q0 20 -9.5 35.5
t-20.5 25t-37 18.5t-42 12.5t-51 11.5q-56 11 -95.5 24t-80.5 37t-62.5 62.5t-21.5 90.5q0 98 74 153.5t188 55.5q181 0 274 -131l-99 -68q-28 40 -75 63t-103 23zM205 -174l61 141h131l-125 -167z" />
    <glyph glyph-name="scommaaccent" unicode="&#x219;" horiz-adv-x="513" 
d="M22 75l68 80q65 -66 170 -66q98 0 98 62q0 28 -26.5 39.5t-103.5 24.5q-41 7 -71.5 17t-59.5 27.5t-44.5 46.5t-15.5 69q0 82 60.5 123.5t153.5 41.5q131 0 219 -82l-68 -79q-24 27 -66 44t-90 17q-90 0 -90 -52q0 -35 66 -50q13 -3 52 -10q104 -18 155 -53.5t51 -108.5
q0 -82 -61.5 -130t-165.5 -48q-144 0 -231 87zM143 -174l61 141h131l-125 -167z" />
    <glyph glyph-name="Tcommaaccent" unicode="&#x21a;" horiz-adv-x="639" 
d="M613 593h-228v-593h-132v593h-228v121h588v-121zM195 -174l61 141h131l-125 -167z" />
    <glyph glyph-name="tcommaaccent" unicode="&#x21b;" horiz-adv-x="403" 
d="M358 114l27 -99q-40 -27 -113 -27q-159 0 -159 162v276h-96v102h96v186h127v-186h130v-102h-130v-256q0 -73 62 -73q33 0 56 17zM124 -174l61 141h131l-125 -167z" />
    <glyph glyph-name="dotlessj" unicode="&#x237;" horiz-adv-x="254" 
d="M190 528v-548q0 -163 -155 -163q-51 0 -83 13l19 97q18 -9 39 -9q28 0 41 15t13 55v540h126z" />
    <glyph glyph-name="schwa" unicode="&#x259;" horiz-adv-x="577" 
d="M409 205h-249q4 -58 37.5 -88.5t84.5 -30.5q54 0 88 32.5t39 86.5zM545 266q0 -121 -70 -199.5t-191 -78.5q-116 0 -183 72t-67 187q0 25 2 47h373q-1 63 -40 98t-100 35q-87 0 -137 -65l-80 77q83 101 224 101q126 0 197.5 -76.5t71.5 -197.5z" />
    <glyph glyph-name="circumflex" unicode="&#x2c6;" horiz-adv-x="413" 
d="M264 770l126 -179h-88l-97 95l-96 -95h-88l125 179h118z" />
    <glyph glyph-name="caron" unicode="&#x2c7;" horiz-adv-x="413" 
d="M390 770l-126 -179h-118l-125 179h88l96 -96l97 96h88z" />
    <glyph glyph-name="breve" unicode="&#x2d8;" horiz-adv-x="412" 
d="M206 671q77 0 113 78l77 -35q-20 -53 -67 -91.5t-123 -38.5t-123 38.5t-67 91.5l77 35q36 -78 113 -78z" />
    <glyph glyph-name="dotaccent" unicode="&#x2d9;" horiz-adv-x="321" 
d="M212 603h-103v104h103v-104z" />
    <glyph glyph-name="ring" unicode="&#x2da;" horiz-adv-x="324" 
d="M52 664q0 46 32.5 78.5t77.5 32.5q46 0 78 -32.5t32 -78.5q0 -45 -32 -77.5t-78 -32.5q-45 0 -77.5 32.5t-32.5 77.5zM114 664q0 -20 14.5 -34.5t33.5 -14.5q20 0 34.5 14.5t14.5 34.5q0 21 -14.5 35.5t-34.5 14.5t-34 -14.5t-14 -35.5z" />
    <glyph glyph-name="ogonek" unicode="&#x2db;" horiz-adv-x="322" 
d="M263 -79v-79q-26 -26 -83 -26q-50 0 -82 26.5t-32 72.5q0 47 34.5 86t96.5 65l28 -33q-40 -27 -59 -49t-19 -47q0 -22 14 -33t36 -11q36 0 66 28z" />
    <glyph glyph-name="tilde" unicode="&#x2dc;" horiz-adv-x="444" 
d="M87 596l-67 31q39 105 131 105q37 0 80 -23q44 -22 65 -22q44 0 61 45l67 -31q-37 -105 -130 -105q-38 0 -81 22q-41 22 -64 22q-44 0 -62 -44z" />
    <glyph glyph-name="hungarumlaut" unicode="&#x2dd;" horiz-adv-x="435" 
d="M91 591l96 188l96 -49l-104 -139h-88zM273 591l96 188l96 -49l-104 -139h-88z" />
    <glyph glyph-name="Delta" unicode="&#x394;" horiz-adv-x="617" 
d="M586 14v-14h-555v14l271 748h12zM308 541l-156 -455h313z" />
    <glyph glyph-name="Delta" unicode="&#x2206;" horiz-adv-x="617" 
d="M586 14v-14h-555v14l271 748h12zM308 541l-156 -455h313z" />
    <glyph glyph-name="Omega" unicode="&#x3a9;" horiz-adv-x="617" 
d="M309 727q119 0 193 -85t74 -218q0 -38 -8 -76t-15 -62.5t-28 -62.5t-28 -49.5t-34 -51t-29 -41.5h129v-81h-211l-15 77q83 118 118 190t35 160q0 97 -49.5 159t-131.5 62t-131.5 -62t-49.5 -159q0 -88 35 -160.5t119 -189.5l-17 -77h-210v81h129q-5 7 -26 36.5t-29 42.5
t-25.5 41.5t-25.5 49.5t-18.5 50.5t-14.5 60.5t-4 64q0 131 74.5 216t193.5 85z" />
    <glyph glyph-name="Omega" unicode="&#x2126;" horiz-adv-x="617" 
d="M309 727q119 0 193 -85t74 -218q0 -38 -8 -76t-15 -62.5t-28 -62.5t-28 -49.5t-34 -51t-29 -41.5h129v-81h-211l-15 77q83 118 118 190t35 160q0 97 -49.5 159t-131.5 62t-131.5 -62t-49.5 -159q0 -88 35 -160.5t119 -189.5l-17 -77h-210v81h129q-5 7 -26 36.5t-29 42.5
t-25.5 41.5t-25.5 49.5t-18.5 50.5t-14.5 60.5t-4 64q0 131 74.5 216t193.5 85z" />
    <glyph glyph-name="pi" unicode="&#x3c0;" horiz-adv-x="590" 
d="M562 442h-70v-442h-86v442h-222v-442h-85v442h-70v86h533v-86z" />
    <glyph glyph-name="uni058F" unicode="&#x58f;" 
d="M200 371v67h116v77q0 54 -26.5 80t-67.5 26q-50 0 -76 -36t-26 -97l-105 28q0 34 11.5 68.5t34.5 67.5t66.5 54t99.5 21q94 0 152.5 -58t58.5 -161v-70h98v-67h-98v-79h98v-67h-98v-225h-122v225h-116v67h116v79h-116z" />
    <glyph glyph-name="uni09F3" unicode="&#x9f3;" 
d="M70 401v82h88v66q0 70 -56 70q-38 0 -64 -26l-33 94q48 38 117 38q72 0 115 -43.5t43 -122.5v-76h77v-82h-77v-288q16 -14 43 -14q46 0 77.5 40t31.5 104q0 78 -41 124l100 50q60 -72 60 -175q0 -109 -68.5 -182t-176.5 -73q-97 0 -148 59v355h-88z" />
    <glyph glyph-name="uni0E3F" unicode="&#xe3f;" 
d="M69 0v714h190v51h57v-52q99 -5 153.5 -53.5t54.5 -126.5q0 -51 -27 -92.5t-76 -64.5q58 -21 89 -66t31 -105q0 -88 -59 -144t-166 -61v-59h-57v59h-190zM407 211q0 95 -91 106v-213q91 11 91 107zM199 102h60v217h-60v-217zM199 417h60v195h-60v-195zM392 518
q0 77 -76 91v-190q76 14 76 99z" />
    <glyph glyph-name="uni17DB" unicode="&#x17db;" 
d="M147 368v84h109q-26 73 -100 115q2 23 14.5 49.5t35 52t61 42t85.5 16.5q106 0 177 -85l-78 -75q-39 50 -90 50q-50 0 -65 -43q67 -44 91 -122h97v-84h-84v-18v-350h-169q-5 2 -27 13.5t-35.5 19t-34.5 22.5t-33.5 30t-22 36.5t-9.5 44.5q0 52 40 89t117 30v-71
q-20 1 -31 -9.5t-11 -26.5q0 -21 19 -38t52 -36h15v256v8h-123z" />
    <glyph glyph-name="Wgrave" unicode="&#x1e80;" horiz-adv-x="967" 
d="M949 714l-188 -714h-138l-142 504l-142 -504h-139l-182 714h143l117 -516l148 516h113l148 -517l117 517h145zM433 947l97 -188h-88l-105 139z" />
    <glyph glyph-name="wgrave" unicode="&#x1e81;" horiz-adv-x="786" 
d="M769 528l-143 -528h-132l-101 357l-103 -357h-130l-142 528h136l84 -355l102 355h109l102 -355l83 355h135zM346 779l97 -188h-88l-105 139z" />
    <glyph glyph-name="Wacute" unicode="&#x1e82;" horiz-adv-x="967" 
d="M949 714l-188 -714h-138l-142 504l-142 -504h-139l-182 714h143l117 -516l148 516h113l148 -517l117 517h145zM432 759l97 188l96 -49l-105 -139h-88z" />
    <glyph glyph-name="wacute" unicode="&#x1e83;" horiz-adv-x="786" 
d="M769 528l-143 -528h-132l-101 357l-103 -357h-130l-142 528h136l84 -355l102 355h109l102 -355l83 355h135zM345 591l97 188l96 -49l-105 -139h-88z" />
    <glyph glyph-name="Wdieresis" unicode="&#x1e84;" horiz-adv-x="967" 
d="M949 714l-188 -714h-138l-142 504l-142 -504h-139l-182 714h143l117 -516l148 516h113l148 -517l117 517h145zM431 771h-103v104h103v-104zM634 771h-104v104h104v-104z" />
    <glyph glyph-name="wdieresis" unicode="&#x1e85;" horiz-adv-x="786" 
d="M769 528l-143 -528h-132l-101 357l-103 -357h-130l-142 528h136l84 -355l102 355h109l102 -355l83 355h135zM344 603h-103v104h103v-104zM547 603h-104v104h104v-104z" />
    <glyph glyph-name="Ygrave" unicode="&#x1ef2;" horiz-adv-x="641" 
d="M643 714l-256 -417v-297h-134v297l-254 417h154l169 -291l168 291h153zM281 947l97 -188h-88l-105 139z" />
    <glyph glyph-name="ygrave" unicode="&#x1ef3;" horiz-adv-x="538" 
d="M60 -170l28 101q14 -9 37 -9q28 0 45.5 18.5t35.5 67.5l-204 520h143l127 -367l126 367h136l-203 -535q-39 -102 -80.5 -139.5t-109.5 -37.5q-53 0 -81 14zM229 779l97 -188h-88l-105 139z" />
    <glyph glyph-name="endash" unicode="&#x2013;" 
d="M556 221h-537v106h537v-106z" />
    <glyph glyph-name="emdash" unicode="&#x2014;" horiz-adv-x="920" 
d="M866 221h-812v106h812v-106z" />
    <glyph glyph-name="quoteleft" unicode="&#x2018;" horiz-adv-x="250" 
d="M52 421v103q0 63 24.5 109t79.5 94l42 -50q-68 -53 -68 -123v-8h65v-125h-143z" />
    <glyph glyph-name="quoteright" unicode="&#x2019;" horiz-adv-x="232" 
d="M193 714v-103q0 -63 -24.5 -109t-80.5 -94l-41 49q67 54 67 124v8h-65v125h144z" />
    <glyph glyph-name="quotesinglbase" unicode="&#x201a;" horiz-adv-x="269" 
d="M206 137v-94q0 -116 -105 -199l-41 49q67 49 67 114v2h-65v128h144z" />
    <glyph glyph-name="quotedblleft" unicode="&#x201c;" horiz-adv-x="457" 
d="M258 421v103q0 63 24.5 109t80.5 94l42 -50q-69 -54 -69 -123v-8h66v-125h-144zM52 421v96q0 64 25 113.5t79 96.5l42 -50q-69 -54 -69 -123v-8h66v-125h-143z" />
    <glyph glyph-name="quotedblright" unicode="&#x201d;" horiz-adv-x="438" 
d="M193 714v-103q0 -63 -24.5 -109t-80.5 -94l-41 49q67 54 67 124v8h-65v125h144zM399 714v-96q0 -64 -24.5 -113.5t-78.5 -96.5l-43 49q69 55 69 124v8h-66v125h143z" />
    <glyph glyph-name="quotedblbase" unicode="&#x201e;" horiz-adv-x="466" 
d="M206 137v-94q0 -116 -105 -199l-41 49q67 49 67 114v2h-65v128h144zM403 137v-94q0 -115 -103 -199l-43 49q69 50 69 114v2h-66v128h143z" />
    <glyph glyph-name="dagger" unicode="&#x2020;" horiz-adv-x="519" 
d="M485 434h-165v-434h-120v434h-165v107h165v173h120v-173h165v-107z" />
    <glyph glyph-name="daggerdbl" unicode="&#x2021;" horiz-adv-x="537" 
d="M494 174h-165v-174h-120v174h-166v106h166v154h-166v106h166v174h120v-174h165v-106h-165v-154h165v-106z" />
    <glyph glyph-name="bullet" unicode="&#x2022;" horiz-adv-x="378" 
d="M347 357q0 -66 -46.5 -112.5t-112.5 -46.5q-65 0 -111 46.5t-46 112.5q0 67 46 113.5t111 46.5q66 0 112.5 -46.5t46.5 -113.5z" />
    <glyph glyph-name="twodotenleader" unicode="&#x2025;" horiz-adv-x="502" 
d="M193 0h-141v139h141v-139zM450 0h-141v139h141v-139z" />
    <glyph glyph-name="ellipsis" unicode="&#x2026;" horiz-adv-x="752" 
d="M193 0h-141v139h141v-139zM446 0h-141v139h141v-139zM700 0h-141v139h141v-139z" />
    <glyph glyph-name="perthousand" unicode="&#x2030;" horiz-adv-x="1165" 
d="M372 554q0 -72 -47.5 -121t-119.5 -49t-119.5 49t-47.5 121t47.5 121t119.5 49t119.5 -49t47.5 -121zM673 714l-451 -714h-97l451 714h97zM760 161q0 -73 -47.5 -122t-119.5 -49q-71 0 -118.5 49t-47.5 122q0 71 47.5 120t118.5 49q72 0 119.5 -49t47.5 -120zM287 554
q0 37 -23 61.5t-59 24.5t-59 -24.5t-23 -61.5t23 -61.5t59 -24.5t59 24.5t23 61.5zM675 161q0 36 -23 60.5t-59 24.5t-59 -24.5t-23 -60.5q0 -37 23 -62t59 -25t59 25t23 62zM1128 161q0 -73 -47 -122t-119 -49t-119.5 49t-47.5 122q0 71 48 120t119 49t118.5 -49t47.5 -120
zM1044 161q0 36 -23 60.5t-59 24.5t-59 -24.5t-23 -60.5q0 -37 23 -62t59 -25t59 25t23 62z" />
    <glyph glyph-name="guilsinglleft" unicode="&#x2039;" horiz-adv-x="308" 
d="M41 264v46l160 212l66 -51l-123 -184l123 -184l-66 -50z" />
    <glyph glyph-name="guilsinglright" unicode="&#x203a;" horiz-adv-x="308" 
d="M267 310v-46l-160 -211l-66 50l123 184l-123 184l66 51z" />
    <glyph glyph-name="fraction" unicode="&#x2044;" horiz-adv-x="222" 
d="M390 714l-463 -714h-94l463 714h94z" />
    <glyph glyph-name="zerosuperior" unicode="&#x2070;" horiz-adv-x="452" 
d="M401 593q0 -96 -42.5 -158.5t-132.5 -62.5q-91 0 -132.5 62.5t-41.5 158.5q0 97 41.5 160t132.5 63q90 0 132.5 -63t42.5 -160zM301 594q0 144 -75 144t-75 -144q0 -143 75 -143t75 143z" />
    <glyph glyph-name="foursuperior" unicode="&#x2074;" horiz-adv-x="452" 
d="M404 468h-57v-88h-96v88h-205v72l198 268h103v-260h57v-80zM136 548h116v151z" />
    <glyph glyph-name="fivesuperior" unicode="&#x2075;" horiz-adv-x="452" 
d="M221 372q-120 0 -168 90l73 45q27 -51 92 -51q38 0 61.5 18.5t23.5 49.5t-23 48t-64 17q-57 0 -94 -35l-52 24l16 230h290v-87h-213l-9 -78q32 20 87 20q69 0 115 -37.5t46 -101.5q0 -63 -47 -107.5t-134 -44.5z" />
    <glyph glyph-name="sixsuperior" unicode="&#x2076;" horiz-adv-x="452" 
d="M381 786l-36 -73q-32 20 -81 20q-56 0 -86.5 -27t-30.5 -76q44 36 103 36q68 0 112.5 -39t44.5 -102q0 -64 -47.5 -108.5t-127.5 -44.5q-87 0 -134.5 55.5t-47.5 160.5q0 108 51 165q53 62 159 62q76 0 121 -29zM153 525q0 -30 21 -51t60 -21q36 0 56 19t20 49t-20 50
t-58 20q-36 0 -57.5 -18t-21.5 -48z" />
    <glyph glyph-name="sevensuperior" unicode="&#x2077;" horiz-adv-x="452" 
d="M402 808v-67l-213 -361h-106l209 341h-238v87h348z" />
    <glyph glyph-name="eightsuperior" unicode="&#x2078;" horiz-adv-x="452" 
d="M225 447q73 0 73 61t-73 61t-73 -61q0 -30 20 -45.5t53 -15.5zM225 639q65 0 65 51q0 27 -18.5 39.5t-46.5 12.5q-27 0 -45 -12.5t-18 -39.5q0 -51 63 -51zM225 372q-80 0 -126 37t-46 94q0 77 77 104q-65 31 -65 94q0 54 46 84.5t114 30.5q70 0 116 -30.5t46 -84.5
q0 -64 -66 -94q37 -13 57.5 -40t20.5 -64q0 -57 -46.5 -94t-127.5 -37z" />
    <glyph glyph-name="ninesuperior" unicode="&#x2079;" horiz-adv-x="452" 
d="M71 402l36 73q32 -20 81 -20q56 0 86.5 27.5t30.5 76.5q-44 -37 -104 -37q-67 0 -112 39t-45 102q0 64 48 108.5t128 44.5q87 0 134.5 -55t47.5 -162q0 -108 -50 -165q-53 -61 -160 -61q-76 0 -121 29zM299 663q0 30 -21 51t-60 21q-36 0 -56 -19t-20 -49t20 -50t58 -20
q36 0 57.5 18t21.5 48z" />
    <glyph glyph-name="zeroinferior" unicode="&#x2080;" horiz-adv-x="452" 
d="M401 119q0 -96 -42.5 -158.5t-132.5 -62.5q-91 0 -132.5 62.5t-41.5 158.5q0 97 41.5 160t132.5 63q90 0 132.5 -63t42.5 -160zM301 120q0 144 -75 144t-75 -144q0 -143 75 -143t75 143z" />
    <glyph glyph-name="oneinferior" unicode="&#x2081;" horiz-adv-x="381" 
d="M99 174l-47 73l143 87h84v-428h-97v316z" />
    <glyph glyph-name="twoinferior" unicode="&#x2082;" horiz-adv-x="452" 
d="M395 -94h-344v12q0 45 33 87.5t104 94.5q8 6 23 17.5t22 16.5t18 14t16 14.5t10.5 13t7.5 15t2 15.5q0 24 -18.5 37.5t-49.5 13.5q-71 0 -99 -63l-77 43q58 105 184 105q73 0 118 -37t45 -100q0 -71 -80 -124q-16 -11 -46 -29t-52.5 -32.5t-33.5 -26.5h217v-87z" />
    <glyph glyph-name="threeinferior" unicode="&#x2083;" horiz-adv-x="452" 
d="M199 98l-40 37l107 112h-195v87h315v-59l-95 -101q53 -10 84.5 -43.5t31.5 -83.5q0 -62 -47.5 -105.5t-133.5 -43.5q-121 0 -178 101l74 45q37 -62 103 -62q38 0 60.5 18t22.5 48q0 27 -19 43.5t-49 16.5q-23 0 -41 -10z" />
    <glyph glyph-name="fourinferior" unicode="&#x2084;" horiz-adv-x="452" 
d="M404 -6h-57v-88h-96v88h-205v72l198 268h103v-260h57v-80zM136 74h116v151z" />
    <glyph glyph-name="fiveinferior" unicode="&#x2085;" horiz-adv-x="452" 
d="M221 -102q-120 0 -168 90l73 45q27 -51 92 -51q38 0 61.5 18.5t23.5 49.5t-23 48t-64 17q-57 0 -94 -35l-52 24l16 230h290v-87h-213l-9 -78q32 20 87 20q69 0 115 -37.5t46 -101.5q0 -63 -47 -107.5t-134 -44.5z" />
    <glyph glyph-name="sixinferior" unicode="&#x2086;" horiz-adv-x="452" 
d="M381 312l-36 -73q-33 20 -82 20q-55 0 -85.5 -27t-30.5 -76q44 36 103 36q68 0 112.5 -39t44.5 -102q0 -64 -47.5 -108.5t-127.5 -44.5q-87 0 -134.5 55.5t-47.5 160.5q0 108 51 165q53 62 159 62q76 0 121 -29zM153 51q0 -30 21 -51t60 -21q36 0 56 19t20 49t-20 50
t-58 20q-36 0 -57.5 -18t-21.5 -48z" />
    <glyph glyph-name="seveninferior" unicode="&#x2087;" horiz-adv-x="452" 
d="M402 334v-67l-213 -361h-106l209 341h-238v87h348z" />
    <glyph glyph-name="eightinferior" unicode="&#x2088;" horiz-adv-x="452" 
d="M225 -27q73 0 73 61t-73 61t-73 -61q0 -30 20 -45.5t53 -15.5zM225 165q65 0 65 51q0 27 -18.5 39.5t-46.5 12.5q-27 0 -45 -12.5t-18 -39.5q0 -51 63 -51zM225 -102q-80 0 -126 37t-46 94q0 77 77 104q-65 31 -65 94q0 54 46 84.5t114 30.5q70 0 116 -30.5t46 -84.5
q0 -64 -66 -94q37 -13 57.5 -40t20.5 -64q0 -57 -46.5 -94t-127.5 -37z" />
    <glyph glyph-name="nineinferior" unicode="&#x2089;" horiz-adv-x="452" 
d="M71 -72l36 73q33 -20 81 -20q56 0 86.5 27.5t30.5 76.5q-44 -37 -104 -37q-67 0 -112 39t-45 102q0 64 48 108.5t128 44.5q87 0 134.5 -55.5t47.5 -162.5t-50 -164q-54 -62 -160 -62q-75 0 -121 30zM299 189q0 30 -21 50.5t-60 20.5q-36 0 -56 -18.5t-20 -48.5t20 -50
t58 -20q36 0 57.5 18t21.5 48z" />
    <glyph glyph-name="colonmonetary" unicode="&#x20a1;" 
d="M226 -58l17 66q-20 7 -40 18l-22 -84h-65l33 124q-110 101 -110 285q0 149 78.5 255.5t208.5 118.5l11 40h66l-11 -40q28 -4 42 -8l13 48h66l-19 -71q31 -16 62 -47l-64 -92q-22 20 -29 24l-128 -472q18 -3 38 -3q101 0 159 79v-141q-66 -55 -167 -55q-29 0 -61 5
l-13 -50h-65zM239 157q18 -18 37 -29l128 477q-22 5 -41 5h-2zM175 353q0 -69 19 -120l97 362q-57 -27 -86.5 -93t-29.5 -149z" />
    <glyph glyph-name="uni20A6" unicode="&#x20a6;" 
d="M14 423v59h58v232h117l105 -232h92v232h118v-232h59v-59h-59v-95h59v-59h-59v-269h-102l-124 269h-87v-269h-119v269h-58v59h58v95h-58zM320 423l43 -95h23v95h-66zM191 423v-95h60l-43 95h-17z" />
    <glyph glyph-name="uni20A9" unicode="&#x20a9;" 
d="M7 474v58h27l-29 182h104l23 -182h90l22 131h75l21 -131h88l24 182h104l-29 -182h28v-58h-37l-16 -96h53v-58h-62l-51 -320h-91l-50 320h-42l-50 -320h-91l-51 320h-60v58h51l-15 96h-36zM140 474l12 -96h45l16 96h-73zM349 474l16 -96h43l13 96h-72zM160 320l12 -93
l15 93h-27zM374 320l15 -93l12 93h-27zM280 454l-12 -76h24z" />
    <glyph glyph-name="uni20AA" unicode="&#x20aa;" horiz-adv-x="614" 
d="M211 0v478h69v-376h45q78 0 107.5 32.5t29.5 102.5v477h102v-477q0 -121 -53.5 -179t-188.5 -58h-111zM48 0v714h127q126 0 176.5 -58t50.5 -179v-241h-70v241q0 70 -29.5 102.5t-107.5 32.5h-45v-612h-102z" />
    <glyph glyph-name="dong" unicode="&#x20ab;" 
d="M250 -12q-98 0 -157.5 77.5t-59.5 197.5t60 198.5t157 78.5t146 -88v151h-119v58h119v53h118v-53h45v-58h-45v-603h-118v76q-49 -88 -146 -88zM60 -140v57h454v-57h-454zM275 93q56 0 88.5 46.5t32.5 123.5q0 78 -33 125t-88 47t-86 -47t-31 -125t31 -124t86 -46z" />
    <glyph glyph-name="Euro" unicode="&#x20ac;" 
d="M371 -13q-115 0 -196.5 72t-108.5 203h-66v61h59q-2 18 -2 33q0 17 2 33h-59v60h66q25 131 109 204.5t198 73.5q108 0 181 -64l-69 -91q-44 38 -106 38q-66 0 -111.5 -42t-64.5 -119h223v-60h-233q-1 -10 -1 -32q0 -25 1 -34h233v-61h-222q18 -75 63.5 -116.5
t107.5 -41.5q71 0 120 51l70 -88q-77 -80 -194 -80z" />
    <glyph glyph-name="uni20AD" unicode="&#x20ad;" 
d="M24 359v82h63v273h132v-240l193 240h143l-226 -273h209v-82h-207l239 -359h-148l-203 314v-314h-132v359h-63z" />
    <glyph glyph-name="uni20AE" unicode="&#x20ae;" 
d="M106 279v81l116 53v198h-187v103h505v-103h-187v-138l116 54v-81l-116 -54v-57l116 53v-80l-116 -54v-254h-131v194l-116 -53v81l116 53v57z" />
    <glyph glyph-name="uni20B1" unicode="&#x20b1;" 
d="M14 479v59h61v176h157q109 0 179 -47t95 -129h57v-59h-45q1 -10 1 -30q0 -12 -2 -34h46v-59h-58q-26 -82 -97 -128.5t-175 -46.5h-27v-181h-131v356h-61v59h61v64h-61zM390 447q0 12 -2 32h-182v-64h182q2 20 2 32zM206 598v-60h163q-36 60 -131 60h-32zM206 296h33
q94 0 130 60h-163v-60z" />
    <glyph glyph-name="uni20B4" unicode="&#x20b4;" 
d="M34 423v59h303q27 29 27 59q0 31 -21 52.5t-59 21.5q-69 0 -116 -74l-83 70q85 116 207 116q82 0 141 -51.5t59 -136.5q0 -31 -9 -57h60v-59h-96q-35 -41 -118 -86l-17 -9h231v-59h-319q-33 -35 -33 -77t28 -67t75 -25q46 0 86 24.5t66 70.5l86 -67q-36 -66 -99 -103.5
t-143 -37.5q-97 0 -162 53.5t-65 146.5q0 44 16 82h-45v59h85q8 8 16.5 15.5t18.5 15.5t17.5 13.5t21 14t19 12t21 12.5t19.5 12h-218z" />
    <glyph glyph-name="uni20B8" unicode="&#x20b8;" 
d="M222 0v426h-187v102h506v-102h-188v-426h-131zM35 612v102h506v-102h-506z" />
    <glyph glyph-name="uni20B9" unicode="&#x20b9;" 
d="M332 0l-286 306v90h151q124 0 146 79h-297v59h297q-18 79 -138 79h-159v101h496v-59h-144q65 -45 74 -121h70v-59h-71q-12 -79 -76 -129.5t-162 -50.5h-24l279 -295h-156z" />
    <glyph glyph-name="uni20BA" unicode="&#x20ba;" 
d="M94 0v248l-76 -32v87l76 32v68l-76 -32v87l76 32v224h128v-174l176 75v-87l-176 -75v-68l176 75v-87l-176 -75v-184h7q91 0 145 47.5t69 131.5l113 -33q-57 -260 -331 -260h-131z" />
    <glyph glyph-name="uni20BC" unicode="&#x20bc;" 
d="M247 150v368q-85 -46 -85 -295q0 -121 18 -223h-132q-18 108 -18 219q0 175 57 286.5t160 130.5v78l82 13v-91q103 -19 160 -130.5t57 -286.5q0 -111 -18 -219h-133q19 108 19 226q0 245 -85 292v-355z" />
    <glyph glyph-name="uni20BD" unicode="&#x20bd;" 
d="M91 0v172h-67v74h67v62h-67v113h67v293h212q115 0 180.5 -55.5t65.5 -147.5q0 -91 -64 -147t-172 -56h-94v-62h271v-74h-271v-172h-128zM219 421h92q54 0 83 24.5t29 65.5q0 42 -32 66t-90 24h-82v-180z" />
    <glyph glyph-name="litre" unicode="&#x2113;" horiz-adv-x="517" 
d="M410 148l73 -67q-67 -93 -182 -93q-83 0 -126 44.5t-43 130.5v24q-52 -26 -71 -32l-34 89q49 18 105 49v190q0 85 39 140t124 55q74 0 114.5 -43.5t40.5 -112.5q0 -74 -53.5 -146.5t-155.5 -132.5v-76q0 -78 71 -78q57 0 98 59zM241 505v-145q104 82 104 164q0 60 -49 60
q-55 0 -55 -79z" />
    <glyph glyph-name="uni2117" unicode="&#x2117;" horiz-adv-x="828" 
d="M450 291h-82v-134h-97v400h181q70 0 109 -37t39 -96q0 -58 -38 -95.5t-112 -37.5zM503 423q0 60 -74 60h-61v-120h61q74 0 74 60zM38 357q0 156 110 266t266 110t266 -110t110 -266t-110 -266t-266 -110t-266 110t-110 266zM92 357q0 -133 94.5 -227.5t227.5 -94.5
q134 0 228 94.5t94 227.5t-94.5 227.5t-227.5 94.5t-227.5 -94.5t-94.5 -227.5z" />
    <glyph glyph-name="uni2120" unicode="&#x2120;" horiz-adv-x="693" 
d="M158 663q-18 0 -30 -7.5t-12 -19.5q0 -13 11 -18.5t32 -10.5q3 -1 5 -1q25 -5 42.5 -10.5t36.5 -15.5t29 -26.5t10 -39.5q0 -41 -32 -67.5t-87 -26.5q-87 0 -128 64l53 34q24 -40 79 -40q49 0 49 30q0 10 -9 17t-19 10t-29 7q-52 10 -80.5 29t-28.5 59q0 43 31 66.5
t80 23.5q78 0 117 -58l-50 -34q-24 35 -70 35zM638 426h-65v205l-69 -205h-48l-70 205v-205h-64v288h90l68 -207l69 207h89v-288z" />
    <glyph glyph-name="uni2121" unicode="&#x2121;" horiz-adv-x="693" 
d="M370 426h-65v205l-69 -205h-48l-70 205v-205h-64v288h90l68 -207l69 207h89v-288zM670 648l-51 -32q-27 45 -70 45q-35 0 -56 -25.5t-21 -65.5q0 -41 21 -66t56 -25q43 0 71 45l52 -29q-43 -76 -125 -76q-62 0 -102 41.5t-40 109.5q0 67 40.5 108.5t101.5 41.5
q80 0 123 -72z" />
    <glyph glyph-name="trademark" unicode="&#x2122;" horiz-adv-x="693" 
d="M285 653h-91v-227h-67v227h-89v61h247v-61zM638 426h-65v205l-69 -205h-48l-70 205v-205h-64v288h90l68 -207l69 207h89v-288z" />
    <glyph glyph-name="uni2123" unicode="&#x2123;" horiz-adv-x="693" 
d="M370 426h-65v205l-69 -205h-48l-70 205v-205h-64v288h90l68 -207l69 207h89v-288zM487 485h46q36 0 55.5 22.5t19.5 62.5t-19.5 62t-55.5 22h-46v-169zM532 426h-112v288h112q68 0 106 -40t38 -104t-38 -104t-106 -40z" />
    <glyph glyph-name="uni2124" unicode="&#x2124;" horiz-adv-x="693" 
d="M370 426h-65v205l-69 -205h-48l-70 205v-205h-64v288h90l68 -207l69 207h89v-288zM534 663q-18 0 -30 -7.5t-12 -19.5q0 -14 11.5 -19.5t36.5 -10.5t42 -10.5t36 -15.5t29 -26.5t10 -39.5q0 -42 -31.5 -68t-86.5 -26q-87 0 -128 64l52 34q25 -40 79 -40q50 0 50 30
q0 10 -9 17t-19.5 10t-29.5 7q-52 10 -80.5 29t-28.5 59q0 43 31 66.5t80 23.5q79 0 118 -58l-50 -34q-25 35 -70 35z" />
    <glyph glyph-name="uni2125" unicode="&#x2125;" horiz-adv-x="693" 
d="M370 426h-65v205l-69 -205h-48l-70 205v-205h-64v288h90l68 -207l69 207h89v-288zM666 426h-74l-53 103h-51v-103h-67v288h133q50 0 77 -24t27 -66q0 -56 -54 -84zM592 619q0 16 -10.5 25.5t-28.5 9.5h-65v-71h64q18 0 29 10t11 26z" />
    <glyph glyph-name="estimated" unicode="&#x212e;" horiz-adv-x="614" 
d="M576 273h-417v-187q63 -61 150 -61q65 0 113 29.5t86 94.5l36 -22q-48 -75 -101.5 -107t-133.5 -32q-119 0 -192.5 81.5t-73.5 203.5t73.5 203.5t192.5 81.5t192.5 -79.5t74.5 -205.5zM159 310h301v150q-67 62 -152 62t-149 -62v-150z" />
    <glyph glyph-name="uni2150" unicode="&#x2150;" horiz-adv-x="950" 
d="M194 0l459 714h97l-459 -714h-97zM243 336q-84 0 -135.5 54t-51.5 138q0 85 51.5 140t133.5 55q102 0 157 -88l-66 -43q-30 52 -84 52q-44 0 -69.5 -32t-25.5 -82q0 -52 26 -84t70 -32q51 0 90 51l61 -51q-59 -78 -157 -78zM709 -9q-86 0 -137.5 53.5t-51.5 139.5
q0 87 51.5 140.5t137.5 53.5t137.5 -53.5t51.5 -140.5q0 -86 -51.5 -139.5t-137.5 -53.5zM709 67q43 0 68 33t25 85t-25 84.5t-68 32.5q-42 0 -66.5 -32.5t-24.5 -84.5t24 -85t67 -33z" />
    <glyph glyph-name="partialdiff" unicode="&#x2202;" horiz-adv-x="603" 
d="M138 605l-38 74q66 48 165 48q128 0 209 -92t81 -256q0 -53 -8.5 -105t-29.5 -104.5t-52 -92.5t-80.5 -65t-111.5 -25q-104 0 -167 65.5t-63 168.5q0 110 69.5 179t171.5 69q62 0 111.5 -26.5t73.5 -68.5q0 123 -50 196t-154 73q-73 0 -127 -38zM276 73q72 0 117.5 50
t45.5 122q0 64 -38 101t-103 37q-77 0 -117.5 -48t-40.5 -118q0 -66 37 -105t99 -39z" />
    <glyph glyph-name="product" unicode="&#x220f;" horiz-adv-x="608" 
d="M571 627h-70v-627h-86v627h-221v-627h-86v627h-70v87h533v-87z" />
    <glyph glyph-name="summation" unicode="&#x2211;" horiz-adv-x="589" 
d="M535 86v-86h-494v24l289 333l-289 333v24h494v-87h-321l232 -270l-232 -271h321z" />
    <glyph glyph-name="minus" unicode="&#x2212;" 
d="M552 210h-529v107h529v-107z" />
    <glyph glyph-name="radical" unicode="&#x221a;" horiz-adv-x="588" 
d="M517 756l77 -38l-382 -772h-12l-189 375l78 39l117 -235z" />
    <glyph glyph-name="infinity" unicode="&#x221e;" horiz-adv-x="793" 
d="M749 275q0 -71 -50 -121t-121 -50q-70 0 -119 49l-62 63l-63 -63q-49 -49 -119 -49q-71 0 -120.5 50t-49.5 121t49.5 120.5t120.5 49.5t119 -48l63 -63l62 63q48 48 119 48t121 -49.5t50 -120.5zM663 275q0 35 -25 59.5t-60 24.5q-18 0 -37.5 -10.5t-28 -17.5t-31 -30.5
t-24.5 -25.5l59 -58q26 -27 62 -27q35 0 60 25t25 60zM337 276l-59 58q-26 25 -63 25q-35 0 -59.5 -24.5t-24.5 -59.5t24.5 -60t59.5 -25q15 0 29 5t27.5 16t22 19t23.5 24.5t20 21.5z" />
    <glyph glyph-name="integral" unicode="&#x222b;" horiz-adv-x="320" 
d="M304 734l-45 -55q-19 19 -39 19q-40 0 -40 -54q0 -31 27 -294q25 -254 25 -303q0 -59 -30.5 -91.5t-83.5 -32.5q-57 0 -100 39l46 54q18 -18 38 -18q40 0 40 53q0 32 -27 295q-25 236 -25 303q0 59 30 91.5t84 32.5q59 0 100 -39z" />
    <glyph glyph-name="approxequal" unicode="&#x2248;" 
d="M66 149l-38 44q70 94 147 94q18 0 38.5 -5t32.5 -9.5t47 -19.5q77 -32 108 -32q54 0 109 47l38 -43q-71 -95 -147 -95q-19 0 -39 5t-32.5 10t-46.5 20q-71 31 -108 31q-56 0 -109 -47zM66 341l-38 44q72 94 147 94q18 0 38.5 -5t32.5 -9.5t47 -19.5q76 -33 108 -33
q53 0 109 48l38 -44q-72 -94 -147 -94q-6 0 -11.5 0.5t-10.5 1t-11.5 2t-10 2.5t-11 3.5l-10.5 3.5t-12.5 4.5t-12.5 4.5t-14 6t-14 6q-74 32 -108 32q-54 0 -109 -47z" />
    <glyph glyph-name="notequal" unicode="&#x2260;" 
d="M553 144h-269l-51 -154h-81l51 154h-181v91h211l28 82h-239v92h269l52 155h81l-52 -155h181v-92h-211l-28 -82h239v-91z" />
    <glyph glyph-name="lessequal" unicode="&#x2264;" 
d="M40 409l428 270l49 -93l-286 -177l293 -181l-56 -89zM552 0h-529v106h529v-106z" />
    <glyph glyph-name="greaterequal" unicode="&#x2265;" 
d="M107 679l427 -270l-427 -270l-56 89l293 181l-286 177zM552 0h-529v106h529v-106z" />
    <glyph glyph-name="lozenge" unicode="&#x25ca;" horiz-adv-x="606" 
d="M567 357l-261 -405h-12l-262 405l262 405h12zM463 357l-163 262l-163 -262l163 -263z" />
    <glyph glyph-name="commaaccent" unicode="&#xf6c3;" horiz-adv-x="270" 
d="M31 -174l61 141h131l-125 -167z" />
    <glyph glyph-name="uniF8FF" unicode="&#xf8ff;" horiz-adv-x="874" 
d="M199 714h476q49 0 84 -35t35 -84v-476q0 -49 -35 -84t-84 -35h-476q-49 0 -84 35t-35 84v476q0 49 35 84t84 35zM664 167v380q0 15 -11 26t-27 11h-379q-15 0 -26 -11t-11 -26v-380q0 -15 11 -26t26 -11h379q16 0 27 11t11 26zM361 260h152q9 0 15 6t6 15v152q0 9 -6 15
t-15 6h-152q-9 0 -15 -6t-6 -15v-152q0 -9 6 -15t15 -6z" />
    <glyph glyph-name="f_f" unicode="&#xfb00;" horiz-adv-x="684" 
d="M426 528v60q0 75 41.5 106t119.5 31q46 0 85 -11l-15 -97q-24 9 -49 9q-55 0 -55 -44v-54h111v-102h-111v-426h-127v426h-199v-426h-127v426h-79v102h79v60q0 75 41.5 106t119.5 31q46 0 85 -11l-15 -97q-24 9 -49 9q-55 0 -55 -44v-54h199z" />
    <glyph glyph-name="uniFEFF" unicode="&#xfeff;" horiz-adv-x="0" 
 />
    <glyph glyph-name="zero.lin" 
d="M541 356q0 -75 -13.5 -138.5t-42 -116.5t-79 -83.5t-118.5 -30.5t-118.5 30.5t-79 83.5t-42 116.5t-13.5 138.5t13.5 139t42 117.5t79 84t118.5 30.5t118.5 -30.5t79 -84t42 -117.5t13.5 -139zM406 357q0 260 -118 260q-119 0 -119 -260q0 -261 119 -261q118 0 118 261z
" />
    <glyph glyph-name="one.lin" 
d="M148 460l-64 99l224 155h114v-714h-132v559z" />
    <glyph glyph-name="two.lin" 
d="M534 0h-500v17q0 70 48.5 138t155.5 163q87 76 108 101q39 46 39 91q0 47 -31.5 73t-80.5 26q-47 0 -85.5 -25t-59.5 -71l-105 61q38 70 104.5 111.5t155.5 41.5q108 0 175.5 -59t67.5 -158q0 -65 -29.5 -112.5t-87.5 -95.5q-23 -20 -72.5 -57t-82.5 -66t-52 -59h332
v-120z" />
    <glyph glyph-name="three.lin" 
d="M239 331l-56 54l163 208h-293v121h458v-84l-145 -185q78 -11 127 -67.5t49 -142.5q0 -102 -70 -175t-200 -73q-171 0 -252 150l103 61q47 -94 146 -94q60 0 99 35.5t39 94.5q0 51 -30 83.5t-78 32.5q-32 0 -60 -19z" />
    <glyph glyph-name="four.lin" 
d="M547 157h-86v-157h-132v157h-305v102l296 455h141v-446h86v-111zM146 268h186v285z" />
    <glyph glyph-name="five.lin" 
d="M279 -13q-180 0 -246 150l110 57q17 -42 51.5 -66t81.5 -24q58 0 95 35t37 96q0 60 -36.5 94t-98.5 34q-84 0 -140 -66l-72 35l24 382h420v-121h-315l-14 -162q48 38 132 38q102 0 169 -64t67 -168q0 -103 -69 -176.5t-196 -73.5z" />
    <glyph glyph-name="six.lin" 
d="M513 678l-49 -101q-51 35 -120 35q-87 0 -133 -55t-46 -150q21 27 61 46.5t95 19.5q100 0 165.5 -64.5t65.5 -169.5q0 -107 -69.5 -179.5t-187.5 -72.5q-124 0 -193 92t-69 264q0 177 72 277q79 106 232 106q106 0 176 -48zM172 242q0 -58 33 -99.5t94 -41.5q56 0 87 36
t31 95t-31 97t-91 38q-55 0 -89 -33.5t-34 -91.5z" />
    <glyph glyph-name="seven.lin" 
d="M544 714v-96l-316 -618h-145l311 593h-357v121h507z" />
    <glyph glyph-name="eight.lin" 
d="M287 94q54 0 85 30.5t31 86.5q0 55 -29.5 85t-86.5 30q-56 0 -86 -31t-30 -86t31 -85t85 -30zM287 426q44 0 73 23t29 74q0 49 -29 73.5t-73 24.5q-43 0 -72 -24.5t-29 -73.5q0 -51 29 -74t72 -23zM287 -13q-117 0 -184.5 61t-67.5 155q0 61 30 108t86 70q-98 48 -98 157
q0 88 67 138.5t167 50.5q101 0 168 -50.5t67 -138.5q0 -110 -99 -157q57 -23 87 -70t30 -108q0 -94 -67.5 -155t-185.5 -61z" />
    <glyph glyph-name="nine.lin" 
d="M62 35l51 102q50 -35 120 -35q86 0 132 55.5t46 151.5q-20 -28 -61 -48t-97 -20q-99 0 -164 64.5t-65 169.5q0 107 69 179.5t187 72.5q124 0 193.5 -92t69.5 -266q0 -177 -72 -275q-78 -106 -231 -106q-107 0 -178 47zM404 474q0 58 -33 98.5t-94 40.5q-56 0 -87 -36.5
t-31 -95.5q0 -58 31.5 -96t90.5 -38q55 0 89 34t34 93z" />
    <glyph glyph-name="exclamdown.lin" horiz-adv-x="275" 
d="M171 491l35 -337v-154h-137v154l36 337h66zM67 714h141v-141h-141v141z" />
    <glyph glyph-name="questiondown.lin" horiz-adv-x="527" 
d="M44 189q0 48 19.5 85.5t47 61t55 44t47 45t19.5 52.5v18h131v-12q0 -45 -19 -81.5t-45.5 -60.5t-53.5 -45.5t-46 -48t-19 -56.5q0 -42 30 -66t81 -24q76 0 141 62l66 -90q-95 -86 -223 -86q-103 0 -167 54.5t-64 147.5zM224 714h142v-141h-142v141z" />
    <glyph glyph-name="hyphen.lin" horiz-adv-x="387" 
d="M333 279h-280v107h280v-107z" />
    <glyph glyph-name="endash.lin" 
d="M546 279h-517v107h517v-107z" />
    <glyph glyph-name="emdash.lin" horiz-adv-x="920" 
d="M866 279h-812v107h812v-107z" />
    <glyph glyph-name="registered.alt" horiz-adv-x="828" 
d="M267 163v387h174q72 0 110.5 -34t38.5 -91q0 -77 -71 -109l78 -153h-101l-61 133h-72v-133h-96zM363 367h75q26 0 39.5 15t13.5 40q0 24 -14 39t-39 15h-75v-109zM414 -19q-156 0 -266 110t-110 266t110 266t266 110t266 -110t110 -266t-110 -266t-266 -110zM414 35
q134 0 228 94.5t94 227.5t-94.5 227.5t-227.5 94.5t-227.5 -94.5t-94.5 -227.5t94.5 -227.5t227.5 -94.5z" />
    <glyph glyph-name="periodcentered.lin" horiz-adv-x="255" 
d="M210 333q0 -34 -24.5 -58.5t-58.5 -24.5t-58.5 24.5t-24.5 58.5t24.5 58.5t58.5 24.5t58.5 -24.5t24.5 -58.5z" />
    <glyph glyph-name="plus.lin" 
d="M552 280h-211v-210h-107v210h-211v106h211v212h107v-212h211v-106z" />
    <glyph glyph-name="minus.lin" 
d="M552 280h-529v106h529v-106z" />
    <glyph glyph-name="divide.lin" 
d="M364 530q0 -32 -22.5 -54.5t-53.5 -22.5q-32 0 -54 22.5t-22 54.5t22 54t54 22t54 -22t22 -54zM364 137q0 -31 -22 -53.5t-54 -22.5t-54 22t-22 54t22 54.5t54 22.5q31 0 53.5 -22.5t22.5 -54.5zM552 280h-529v106h529v-106z" />
    <glyph glyph-name="equal.lin" 
d="M544 384h-513v106h513v-106zM544 177h-513v107h513v-107z" />
    <glyph glyph-name="multiply.lin" 
d="M555 141l-75 -75l-192 192l-193 -192l-75 75l193 193l-193 192l75 76l193 -193l192 193l75 -76l-192 -192z" />
    <glyph glyph-name="less.lin" 
d="M463 133l-74 -75l-277 276l277 277l74 -75l-200 -202z" />
    <glyph glyph-name="greater.lin" 
d="M463 334l-277 -276l-74 75l201 201l-201 202l74 75z" />
    <glyph glyph-name="zero.num" horiz-adv-x="452" 
d="M401 499q0 -96 -42.5 -158.5t-132.5 -62.5q-91 0 -132.5 62.5t-41.5 158.5q0 97 41.5 160t132.5 63q90 0 132.5 -63t42.5 -160zM301 500q0 144 -75 144t-75 -144q0 -143 75 -143t75 143z" />
    <glyph glyph-name="one.num" horiz-adv-x="381" 
d="M99 554l-47 73l143 87h84v-428h-97v316z" />
    <glyph glyph-name="two.num" horiz-adv-x="452" 
d="M395 286h-344v12q0 45 33 87.5t104 94.5q8 6 23 17.5t22 16.5t18 14t16 14.5t10.5 13t7.5 15t2 15.5q0 24 -18.5 37.5t-49.5 13.5q-71 0 -99 -63l-77 43q58 105 184 105q73 0 118 -37t45 -100q0 -71 -80 -124q-16 -11 -46 -29t-52.5 -32.5t-33.5 -26.5h217v-87z" />
    <glyph glyph-name="three.num" horiz-adv-x="452" 
d="M199 478l-40 37l107 112h-195v87h315v-59l-95 -101q53 -10 84.5 -43.5t31.5 -83.5q0 -62 -47.5 -105.5t-133.5 -43.5q-121 0 -178 101l74 45q37 -62 103 -62q38 0 60.5 18t22.5 48q0 27 -19 43.5t-49 16.5q-23 0 -41 -10z" />
    <glyph glyph-name="four.num" horiz-adv-x="452" 
d="M404 374h-57v-88h-96v88h-205v72l198 268h103v-260h57v-80zM136 454h116v151z" />
    <glyph glyph-name="five.num" horiz-adv-x="452" 
d="M221 278q-120 0 -168 90l73 45q27 -51 92 -51q38 0 61.5 18.5t23.5 49.5t-23 48t-64 17q-57 0 -94 -35l-52 24l16 230h290v-87h-213l-9 -78q32 20 87 20q69 0 115 -37.5t46 -101.5q0 -63 -47 -107.5t-134 -44.5z" />
    <glyph glyph-name="six.num" horiz-adv-x="452" 
d="M381 692l-36 -73q-32 20 -81 20q-56 0 -86.5 -27t-30.5 -76q44 36 103 36q68 0 112.5 -39t44.5 -102q0 -64 -47.5 -108.5t-127.5 -44.5q-87 0 -134.5 55.5t-47.5 160.5q0 108 51 165q53 62 159 62q76 0 121 -29zM153 431q0 -30 21 -51t60 -21q36 0 56 19t20 49t-20 50
t-58 20q-36 0 -57.5 -18t-21.5 -48z" />
    <glyph glyph-name="seven.num" horiz-adv-x="452" 
d="M402 714v-67l-213 -361h-106l209 341h-238v87h348z" />
    <glyph glyph-name="eight.num" horiz-adv-x="452" 
d="M225 353q73 0 73 61t-73 61t-73 -61q0 -30 20 -45.5t53 -15.5zM225 545q65 0 65 51q0 27 -18.5 39.5t-46.5 12.5q-27 0 -45 -12.5t-18 -39.5q0 -51 63 -51zM225 278q-80 0 -126 37t-46 94q0 77 77 104q-65 31 -65 94q0 54 46 84.5t114 30.5q70 0 116 -30.5t46 -84.5
q0 -64 -66 -94q37 -13 57.5 -40t20.5 -64q0 -57 -46.5 -94t-127.5 -37z" />
    <glyph glyph-name="nine.num" horiz-adv-x="452" 
d="M71 308l36 73q33 -20 81 -20q56 0 86.5 27.5t30.5 76.5q-44 -37 -104 -37q-67 0 -112 39t-45 102q0 64 48 108.5t128 44.5q87 0 134.5 -55t47.5 -162q0 -108 -50 -165q-53 -61 -160 -61q-76 0 -121 29zM299 569q0 30 -21 51t-60 21q-36 0 -56 -19t-20 -49t20 -50t58 -20
q36 0 57.5 18t21.5 48z" />
    <glyph glyph-name="zero.den" horiz-adv-x="452" 
d="M401 213q0 -96 -42.5 -158.5t-132.5 -62.5q-91 0 -132.5 62.5t-41.5 158.5q0 97 41.5 160t132.5 63q90 0 132.5 -63t42.5 -160zM301 214q0 144 -75 144t-75 -144q0 -143 75 -143t75 143z" />
    <glyph glyph-name="one.den" horiz-adv-x="381" 
d="M99 268l-47 73l143 87h84v-428h-97v316z" />
    <glyph glyph-name="two.den" horiz-adv-x="452" 
d="M395 0h-344v12q0 45 33 87.5t104 94.5q8 6 23 17.5t22 16.5t18 14t16 14.5t10.5 13t7.5 15t2 15.5q0 24 -18.5 37.5t-49.5 13.5q-71 0 -99 -63l-77 43q58 105 184 105q73 0 118 -37t45 -100q0 -71 -80 -124q-16 -11 -46 -29t-52.5 -32.5t-33.5 -26.5h217v-87z" />
    <glyph glyph-name="three.den" horiz-adv-x="452" 
d="M199 192l-40 37l107 112h-195v87h315v-59l-95 -101q53 -10 84.5 -43.5t31.5 -83.5q0 -62 -47.5 -105.5t-133.5 -43.5q-121 0 -178 101l74 45q37 -62 103 -62q38 0 60.5 18t22.5 48q0 27 -19 43.5t-49 16.5q-23 0 -41 -10z" />
    <glyph glyph-name="four.den" horiz-adv-x="452" 
d="M404 88h-57v-88h-96v88h-205v72l198 268h103v-260h57v-80zM136 168h116v151z" />
    <glyph glyph-name="five.den" horiz-adv-x="452" 
d="M221 -8q-120 0 -168 90l73 45q27 -51 92 -51q38 0 61.5 18.5t23.5 49.5t-23 48t-64 17q-57 0 -94 -35l-52 24l16 230h290v-87h-213l-9 -78q32 20 87 20q69 0 115 -37.5t46 -101.5q0 -63 -47 -107.5t-134 -44.5z" />
    <glyph glyph-name="six.den" horiz-adv-x="452" 
d="M381 406l-36 -73q-32 20 -82 20q-55 0 -85.5 -27t-30.5 -76q44 36 103 36q68 0 112.5 -39t44.5 -102q0 -64 -47.5 -108.5t-127.5 -44.5q-87 0 -134.5 55.5t-47.5 160.5q0 108 51 165q53 62 159 62q76 0 121 -29zM153 145q0 -30 21 -51t60 -21q36 0 56 19t20 49t-20 50
t-58 20q-36 0 -57.5 -18t-21.5 -48z" />
    <glyph glyph-name="seven.den" horiz-adv-x="452" 
d="M402 428v-67l-213 -361h-106l209 341h-238v87h348z" />
    <glyph glyph-name="eight.den" horiz-adv-x="452" 
d="M225 67q73 0 73 61t-73 61t-73 -61q0 -30 20 -45.5t53 -15.5zM225 259q65 0 65 51q0 27 -18.5 39.5t-46.5 12.5q-27 0 -45 -12.5t-18 -39.5q0 -51 63 -51zM225 -8q-80 0 -126 37t-46 94q0 77 77 104q-65 31 -65 94q0 54 46 84.5t114 30.5q70 0 116 -30.5t46 -84.5
q0 -64 -66 -94q37 -13 57.5 -40t20.5 -64q0 -57 -46.5 -94t-127.5 -37z" />
    <glyph glyph-name="nine.den" horiz-adv-x="452" 
d="M71 22l36 73q33 -20 81 -20q56 0 86.5 27.5t30.5 76.5q-44 -37 -104 -37q-67 0 -112 39t-45 102q0 64 48 108.5t128 44.5q87 0 134.5 -55t47.5 -162q0 -108 -50 -165q-53 -61 -160 -61q-74 0 -121 29zM299 283q0 30 -21 51t-60 21q-36 0 -56 -19t-20 -49t20 -50t58 -20
q36 0 57.5 18t21.5 48z" />
    <glyph glyph-name="S_S" horiz-adv-x="1256" 
d="M303 614q-54 0 -90 -23t-36 -64q0 -31 26 -50t76 -32q13 -4 46.5 -12t53 -13t51.5 -15.5t52 -21t43.5 -27.5t37 -36t23 -46.5t9.5 -59.5q0 -99 -75 -163t-203 -64q-98 0 -174.5 39t-118.5 109l103 70q30 -53 83 -79t112 -26q65 0 103.5 27.5t38.5 73.5q0 20 -9.5 35.5
t-20.5 25t-37 18.5t-42 12.5t-51 11.5q-56 11 -95.5 24t-80.5 37t-62.5 62.5t-21.5 90.5q0 98 74 153.5t188 55.5q181 0 274 -131l-99 -68q-28 40 -75 63t-103 23zM931 614q-54 0 -90 -23t-36 -64q0 -31 26 -50t76 -32q13 -4 46.5 -12t53 -13t51.5 -15.5t52 -21t43.5 -27.5
t37 -36t23 -46.5t9.5 -59.5q0 -99 -75 -163t-203 -64q-98 0 -174.5 39t-118.5 109l103 70q30 -53 83 -79t112 -26q65 0 103.5 27.5t38.5 73.5q0 20 -9.5 35.5t-20.5 25t-37 18.5t-42 12.5t-51 11.5q-56 11 -95.5 24t-80.5 37t-62.5 62.5t-21.5 90.5q0 98 74 153.5t188 55.5
q181 0 274 -131l-99 -68q-28 40 -75 63t-103 23z" />
    <glyph glyph-name="f_f_t" horiz-adv-x="1048" 
d="M426 528v60q0 75 41.5 106t119.5 31q46 0 85 -11l-15 -97q-24 9 -49 9q-55 0 -55 -44v-54h205v186h126v-186h131v-102h-131v-256q0 -73 63 -73q33 0 56 17l27 -99q-41 -27 -113 -27q-159 0 -159 162v276h-205v-426h-127v426h-199v-426h-127v426h-79v102h79v60
q0 75 41.5 106t119.5 31q46 0 85 -11l-15 -97q-24 9 -49 9q-55 0 -55 -44v-54h199z" />
    <glyph glyph-name="f_t" horiz-adv-x="723" 
d="M678 114l27 -99q-41 -27 -113 -27q-159 0 -159 162v276h-205v-426h-127v426h-80v102h80v60q0 138 158 138q45 0 88 -12l-15 -97q-24 9 -50 9q-54 0 -54 -44v-54h205v186h126v-186h131v-102h-131v-256q0 -73 63 -73q33 0 56 17z" />
    <glyph glyph-name="r_f_f" horiz-adv-x="1069" 
d="M365 532v-106q-174 0 -174 -175v-251h-127v528h127v-69q45 78 140 78q21 0 34 -5zM811 528v60q0 75 41.5 106t119.5 31q46 0 84 -11l-14 -97q-24 9 -50 9q-55 0 -55 -44v-54h112v-102h-112v-426h-126v426h-200v-426h-126v426h-80v102h80v60q0 75 41.5 106t119.5 31
q46 0 84 -11l-14 -97q-24 9 -50 9q-55 0 -55 -44v-54h200z" />
    <glyph glyph-name="caron.alt" horiz-adv-x="264" 
d="M211 714l-58 -285h-67v285h125z" />
    <glyph glyph-name="i.trk" horiz-adv-x="255" 
d="M191 0h-127v528h127v-528zM179 603h-103v104h103v-104z" />
    <glyph glyph-name="apple.alt" horiz-adv-x="3250" 
d="M199 714h476q49 0 84 -35t35 -84v-476q0 -49 -35 -84t-84 -35h-476q-49 0 -84 35t-35 84v476q0 49 35 84t84 35zM664 167v380q0 15 -11 26t-27 11h-379q-15 0 -26 -11t-11 -26v-380q0 -15 11 -26t26 -11h379q16 0 27 11t11 26zM1634 6v171q-44 -55 -121 -55
q-73 0 -123.5 49.5t-50.5 121.5q0 71 50.5 120.5t123.5 49.5q76 0 121 -56v42q0 6 5 6h38q6 0 6 -6v-443q0 -6 -6 -6h-38q-5 0 -5 6zM2433 455q5 0 5 -6v-314q0 -5 -5 -5h-38q-6 0 -6 5v42q-44 -55 -120 -55q-74 0 -124.5 49.5t-50.5 121.5q0 71 51 120.5t124 49.5
q78 0 120 -56v42q0 6 6 6h38zM2744 273q8 -45 40.5 -75.5t87.5 -30.5t91 43q6 8 10 8h39q9 0 6 -8q-21 -40 -60.5 -64t-87.5 -24q-72 -1 -123.5 48.5t-51.5 121.5q0 70 49.5 120.5t119.5 50.5q71 0 121.5 -50t50.5 -124q0 -4 -1 -9q0 -7 -7 -7h-284zM1135 394
q72 -17 114.5 -46.5t43.5 -89.5q0 -58 -46 -98q-44 -39 -106 -39h-1q-43 1 -75 17.5t-47 39.5t-22 42t-7 32q0 8 7 8h36q7 0 7 -8q3 -28 29 -53.5t72 -26.5q40 -1 71.5 25t30.5 61q-1 30 -25.5 50.5t-93.5 36.5q-61 15 -89 41q-31 30 -31 81t39 88t95 37q55 0 96 -36
q42 -37 42 -86q0 -7 -7 -7h-37q-7 0 -7 7q-2 29 -25 50t-62 21q-34 0 -58.5 -22t-24.5 -52t16 -46t65 -27zM2269 167q52 0 87.5 36t35.5 89q0 52 -36 89t-87 37q-55 0 -90 -36t-35 -91q0 -54 35 -89t90 -35zM1513 167q52 0 87.5 36t35.5 89q0 52 -36 89t-87 37
q-54 0 -89.5 -36t-35.5 -91q0 -54 35.5 -89t89.5 -35zM1991 135v31q-32 -45 -96 -45q-75 0 -113 50q-29 35 -29 105v173q0 6 5 6h39q5 0 5 -6v-173q0 -110 93 -110q38 0 64 25q32 31 32 92v166q0 6 6 6h38q5 0 5 -6v-314q0 -5 -5 -5h-38q-6 0 -6 5zM361 260h152q9 0 15 6
t6 15v152q0 9 -6 15t-15 6h-152q-9 0 -15 -6t-6 -15v-152q0 -9 6 -15t15 -6zM2568 449v-42q44 56 121 56q7 -1 7 -8v-30q0 -7 -7 -7q-51 0 -86 -36.5t-35 -88.5v-158q0 -5 -5 -5h-38q-6 0 -6 5v314q0 6 6 6h38q5 0 5 -6zM2744 318h240q-10 44 -43 72t-77 28t-77.5 -28.5
t-42.5 -71.5z" />
    </font>
</defs>
</svg>
