<?xml version="1.0" standalone="no"?>
<!DOCTYPE svg PUBLIC "-//W3C//DTD SVG 1.1//EN" "http://www.w3.org/Graphics/SVG/1.1/DTD/svg11.dtd" >
<svg xmlns="http://www.w3.org/2000/svg" xmlns:xlink="http://www.w3.org/1999/xlink" version="1.1">
<metadata>
Created by FontForge 20170731 at Wed Feb 25 21:36:32 2015
 By Aleksey,,,
Copyright (c) 2012 by ARS Type-Angus R. Shamal. All rights reserved.
</metadata>
<defs>
<font id="SQMarket-Regular" horiz-adv-x="576" >
  <font-face 
    font-family="SQ Market"
    font-weight="400"
    font-stretch="normal"
    units-per-em="1000"
    panose-1="0 0 0 0 0 0 0 0 0 0"
    ascent="800"
    descent="-200"
    x-height="519"
    cap-height="714"
    bbox="-162 -200 3036 1000"
    underline-thickness="50"
    underline-position="-200"
    unicode-range="U+0002-FEFF"
  />
<missing-glyph horiz-adv-x="574" 
d="M40 0v714h494v-714h-494zM504 684h-416l416 -628v628zM70 658v-628h415z" />
    <glyph glyph-name="fi" unicode="fi" horiz-adv-x="564" 
d="M321 714l-12 -70q-20 10 -53 10q-61 0 -61 -52v-83h119v-73h-119v-446h-84v446h-87v73h87v89q0 117 135 117q40 0 75 -11zM486 624h-84v90h84v-90zM486 0h-84v519h84v-519z" />
    <glyph glyph-name="fl" unicode="fl" horiz-adv-x="566" 
d="M321 714l-12 -70q-20 10 -53 10q-61 0 -61 -52v-83h119v-73h-119v-446h-84v446h-87v73h87v89q0 117 135 117q40 0 75 -11zM488 0h-84v714h84v-714z" />
    <glyph glyph-name="r_f" unicode="rf" horiz-adv-x="707" 
d="M340 521v-75q-36 0 -64 -6.5t-56 -24t-43.5 -55t-15.5 -92.5v-268h-84v519h84v-76q20 34 60 58.5t86 24.5q25 0 33 -5zM689 714l-12 -70q-20 10 -53 10q-61 0 -61 -52v-83h119v-73h-119v-446h-84v446h-87v73h87v89q0 117 135 117q40 0 75 -11z" />
    <glyph glyph-name="r_t" unicode="rt" horiz-adv-x="737" 
d="M340 521v-75q-36 0 -64 -6.5t-56 -24t-43.5 -55t-15.5 -92.5v-268h-84v519h84v-76q20 34 60 58.5t86 24.5q25 0 33 -5zM698 81l21 -70q-33 -22 -93 -22q-139 0 -139 148v309h-97v73h97v195h84v-195h137v-73h-137v-297q0 -84 69 -84q37 0 58 16z" />
    <glyph glyph-name="uniFDFC" unicode="&#xfdfc;" horiz-adv-x="934" arabic-form="isolated" 
d="M179 -13q-86 0 -131 49.5t-45 108.5l74 31q0 -53 28 -84t76 -31q47 0 76.5 31.5t29.5 94.5v527h85v-512q0 -103 -53 -159t-140 -56zM450 0v80h60v-80h-60zM569 0v80h60v-80h-60zM671 -184q-65 0 -102 22v72q37 -25 95 -25q77 0 123.5 49.5t46.5 138.5q0 61 -26 102v100
q44 -31 73 -85.5t29 -124.5q0 -112 -66.5 -180.5t-172.5 -68.5zM630 175q-180 0 -180 191v348h85v-360q0 -56 20 -82t70 -26h46v45q0 49 -41 76l29 47q31 -15 57.5 -49.5t26.5 -78.5v-111h-113z" />
    <glyph glyph-name=".notdef" horiz-adv-x="574" 
d="M40 0v714h494v-714h-494zM504 684h-416l416 -628v628zM70 658v-628h415z" />
    <glyph glyph-name=".null" horiz-adv-x="0" 
 />
    <glyph glyph-name="nonmarkingreturn" horiz-adv-x="333" 
 />
    <glyph glyph-name="NULL" horiz-adv-x="0" 
 />
    <glyph glyph-name="NULL" horiz-adv-x="0" 
 />
    <glyph glyph-name="uni0002" horiz-adv-x="270" 
 />
    <glyph glyph-name="CR" unicode="&#xd;" horiz-adv-x="61" 
 />
    <glyph glyph-name="space" unicode=" " horiz-adv-x="270" 
 />
    <glyph glyph-name="exclam" unicode="!" horiz-adv-x="260" 
d="M176 561l-23 -350h-45l-24 350v153h92v-153zM182 0h-104v105h104v-105z" />
    <glyph glyph-name="quotedbl" unicode="&#x22;" horiz-adv-x="390" 
d="M145 447h-70v267h70v-267zM314 447h-70v267h70v-267z" />
    <glyph glyph-name="numbersign" unicode="#" 
d="M535 456h-87l-34 -198h121v-55h-130l-36 -203h-58l36 203h-170l-36 -203h-59l36 203h-79v55h88l34 198h-122v54h131l35 204h59l-35 -204h169l36 204h58l-35 -204h78v-54zM390 456h-170l-34 -198h170z" />
    <glyph glyph-name="dollar" unicode="$" 
d="M318 -60h-54v50q-74 6 -132.5 39.5t-93.5 88.5l71 45q52 -86 155 -97v261q-33 9 -57.5 17.5t-54 25t-48.5 36t-32 50t-13 68.5q0 86 58.5 137.5t146.5 57.5v46h54v-48q126 -11 196 -109l-63 -45q-50 63 -133 77v-238q45 -12 76.5 -25.5t65 -37t51 -59.5t17.5 -83
q0 -86 -56.5 -143.5t-153.5 -64.5v-49zM445 192q0 50 -30.5 75.5t-96.5 45.5v-248q59 5 93 38.5t34 88.5zM144 530q0 -47 32 -72.5t88 -41.5v226q-53 -3 -86.5 -32t-33.5 -80z" />
    <glyph glyph-name="percent" unicode="%" horiz-adv-x="777" 
d="M362 564q0 -71 -43.5 -117.5t-112.5 -46.5t-112.5 46.5t-43.5 117.5q0 69 43.5 115.5t112.5 46.5t112.5 -46.5t43.5 -115.5zM652 714l-459 -714h-67l459 714h67zM728 152q0 -71 -43.5 -117.5t-112.5 -46.5q-68 0 -112.5 47t-44.5 117t44 116t113 46t112.5 -46t43.5 -116z
M302 564q0 44 -26.5 73t-69.5 29q-44 0 -70.5 -29t-26.5 -73q0 -45 26.5 -75t70.5 -30q43 0 69.5 30t26.5 75zM668 152q0 44 -26.5 73.5t-69.5 29.5t-69.5 -29.5t-26.5 -73.5t26.5 -74t69.5 -30t69.5 29.5t26.5 74.5z" />
    <glyph glyph-name="ampersand" unicode="&#x26;" horiz-adv-x="660" 
d="M541 0l-58 70q-99 -83 -216 -83q-105 0 -162 57t-57 142q0 69 35.5 113t125.5 105q-39 46 -57.5 83t-18.5 82q0 72 47.5 115t118.5 43q69 0 112.5 -40.5t43.5 -102.5q0 -53 -34.5 -98t-101.5 -92l175 -210q38 46 56 86l65 -35q-26 -54 -73 -108l107 -127h-108zM277 63
q84 0 160 64l-183 222q-63 -43 -90 -76t-27 -81q0 -56 36 -92.5t104 -36.5zM215 571q0 -50 59 -123q56 39 78 66t22 63t-20 57.5t-56 21.5t-59.5 -22t-23.5 -63z" />
    <glyph glyph-name="quotesingle" unicode="'" horiz-adv-x="221" 
d="M145 447h-70v267h70v-267z" />
    <glyph glyph-name="parenleft" unicode="(" horiz-adv-x="290" 
d="M218 804l54 -43q-152 -178 -152 -428t152 -428l-54 -43q-175 199 -175 471q0 271 175 471z" />
    <glyph glyph-name="parenright" unicode=")" horiz-adv-x="290" 
d="M18 761l54 43q174 -199 174 -471q0 -273 -174 -471l-54 43q151 179 151 428t-151 428z" />
    <glyph glyph-name="asterisk" unicode="*" horiz-adv-x="359" 
d="M192 550q15 -63 15 -120h-56q0 51 15 120q-48 -46 -96 -73l-27 48q44 26 110 47q-66 21 -110 47l27 48q48 -27 96 -73q-15 69 -15 120h56q0 -57 -15 -120q48 46 96 73l28 -48q-46 -27 -112 -47q66 -20 112 -47l-28 -48q-48 27 -96 73z" />
    <glyph glyph-name="plus" unicode="+" 
d="M547 222h-222v-222h-75v222h-222v74h222v223h75v-223h222v-74z" />
    <glyph glyph-name="comma" unicode="," horiz-adv-x="250" 
d="M177 105v-80q0 -91 -79 -161l-31 31q56 48 56 103v2h-52v105h106z" />
    <glyph glyph-name="hyphen" unicode="-" horiz-adv-x="387" 
d="M325 222h-263v74h263v-74z" />
    <glyph glyph-name="period" unicode="." horiz-adv-x="250" 
d="M177 0h-105v105h105v-105z" />
    <glyph glyph-name="slash" unicode="/" horiz-adv-x="350" 
d="M321 714l-220 -714h-69l220 714h69z" />
    <glyph glyph-name="zero" unicode="0" 
d="M531 357q0 -74 -12.5 -137t-39.5 -117t-75.5 -85t-114.5 -31t-115 31t-76.5 85t-40 117t-12.5 137t12.5 137t40 117t76.5 85t115 31t114.5 -31t75.5 -85t39.5 -117t12.5 -137zM437 357q0 291 -148 291q-54 0 -89 -40.5t-48.5 -103t-13.5 -147.5t13.5 -147.5t48.5 -103
t89 -40.5q148 0 148 291z" />
    <glyph glyph-name="one" unicode="1" horiz-adv-x="441" 
d="M90 510l-44 67l197 137h75v-714h-90v604z" />
    <glyph glyph-name="two" unicode="2" 
d="M527 0h-479v12q0 37 15.5 73.5t48 75t65 69.5t84.5 76q40 35 52.5 46t39.5 37.5t35.5 42t17 38.5t8.5 48q0 60 -38 92t-98 32q-111 0 -166 -100l-73 47q85 138 243 138q101 0 165 -56t64 -149q0 -108 -107 -204q-23 -21 -85.5 -70.5t-105.5 -90t-60 -73.5h374v-84z" />
    <glyph glyph-name="three" unicode="3" 
d="M238 348l-43 41l187 241h-324v84h439v-62l-165 -209q85 -3 141 -61.5t56 -149.5q0 -63 -26.5 -117t-87.5 -91t-148 -37q-162 0 -238 132l76 46q49 -94 161 -94q73 0 120 42t47 114q0 63 -35.5 102.5t-94.5 39.5q-37 0 -65 -21z" />
    <glyph glyph-name="four" unicode="4" 
d="M540 170h-99v-170h-90v170h-321v77l312 467h99v-463h99v-81zM117 251h235v349z" />
    <glyph glyph-name="five" unicode="5" 
d="M276 -13q-164 0 -236 132l78 45q23 -46 64.5 -69.5t92.5 -23.5q70 0 114.5 40t44.5 115q0 73 -42.5 113.5t-115.5 40.5q-96 0 -152 -69l-54 27l23 376h397v-84h-322l-15 -215q58 45 145 45q100 0 165.5 -64.5t65.5 -165.5q0 -100 -64 -171.5t-189 -71.5z" />
    <glyph glyph-name="six" unicode="6" 
d="M502 680l-36 -72q-54 38 -125 38q-105 0 -155 -75t-50 -193q25 41 72 65.5t106 24.5q97 0 161.5 -64.5t64.5 -169.5q0 -106 -66.5 -176.5t-175.5 -70.5q-119 0 -185.5 91.5t-66.5 261.5q0 175 68 276q75 111 224 111q100 0 164 -47zM150 238q0 -71 40.5 -120t111.5 -49
q66 0 105 44t39 116q0 70 -38 115t-110 45q-67 0 -107.5 -40.5t-40.5 -110.5z" />
    <glyph glyph-name="seven" unicode="7" 
d="M534 714v-72l-331 -642h-98l328 630h-389v84h490z" />
    <glyph glyph-name="eight" unicode="8" 
d="M288 68q72 0 111 37t39 103q0 62 -37 97.5t-113 35.5t-113.5 -37t-37.5 -99q0 -64 39.5 -100.5t111.5 -36.5zM288 419q55 0 92.5 26.5t37.5 85.5q0 58 -37.5 86.5t-92.5 28.5t-92.5 -28.5t-37.5 -86.5q0 -59 37 -85.5t93 -26.5zM288 -13q-112 0 -178.5 59.5t-66.5 152.5
q0 61 31 110t94 76q-48 22 -75.5 63t-27.5 95q0 84 63.5 134t159.5 50t159 -50t63 -134q0 -111 -103 -158q64 -27 95 -76t31 -109q0 -94 -66 -153.5t-179 -59.5z" />
    <glyph glyph-name="nine" unicode="9" 
d="M71 33l41 74q52 -39 126 -39q103 0 152 76t49 197q-24 -42 -72 -68.5t-108 -26.5q-96 0 -159.5 64t-63.5 169q0 107 66.5 177.5t175.5 70.5q119 0 185.5 -92t66.5 -266t-67 -272q-76 -110 -223 -110q-101 0 -169 46zM426 479q0 71 -40.5 118.5t-110.5 47.5
q-67 0 -106 -45t-39 -116q0 -70 38 -114.5t109 -44.5q68 0 108.5 42t40.5 112z" />
    <glyph glyph-name="colon" unicode=":" horiz-adv-x="294" 
d="M200 0h-105v105h105v-105zM200 414h-105v105h105v-105z" />
    <glyph glyph-name="semicolon" unicode=";" horiz-adv-x="294" 
d="M200 105v-79q0 -91 -79 -162l-31 32q56 48 56 102v2h-52v105h106zM200 414h-106v105h106v-105z" />
    <glyph glyph-name="less" unicode="&#x3c;" 
d="M450 39l-52 -51l-272 272l272 273l52 -51l-221 -222z" />
    <glyph glyph-name="equal" unicode="=" 
d="M545 320h-515v74h515v-74zM545 125h-515v73h515v-73z" />
    <glyph glyph-name="greater" unicode="&#x3e;" 
d="M450 260l-274 -272l-50 51l221 221l-221 222l50 51z" />
    <glyph glyph-name="question" unicode="?" horiz-adv-x="493" 
d="M449 539q0 -48 -20.5 -86t-49.5 -63t-58.5 -47.5t-50 -52.5t-20.5 -66v-22h-86v14q0 49 20 89t48 66.5t56.5 50.5t48.5 53.5t20 64.5q0 46 -32 76t-91 30q-83 0 -155 -70l-49 63q95 88 211 88q92 0 150 -51t58 -137zM261 0h-105v105h105v-105z" />
    <glyph glyph-name="at" unicode="@" horiz-adv-x="841" 
d="M535 223q-48 -70 -135 -70q-77 0 -123.5 55.5t-46.5 139.5t47 138.5t125 54.5q73 0 118 -55v47h72v-261q0 -63 58 -63q47 0 70.5 38.5t23.5 103.5q0 136 -88.5 227.5t-228.5 91.5t-229.5 -93.5t-89.5 -227.5t89.5 -226.5t228.5 -92.5q89 0 158 41l28 -50
q-88 -48 -189 -48q-165 0 -272.5 108.5t-107.5 267.5t108 268.5t274 109.5t273 -108t107 -261q0 -92 -43.5 -147t-114.5 -55q-82 0 -112 67zM520 348q0 56 -29 92t-80 36q-50 0 -77.5 -36t-27.5 -92q0 -57 27.5 -93t78.5 -36t79.5 36.5t28.5 92.5z" />
    <glyph glyph-name="A" unicode="A" horiz-adv-x="678" 
d="M668 0h-103l-75 205h-307l-76 -205h-96l276 714h105zM460 286l-121 341l-127 -341h248z" />
    <glyph glyph-name="B" unicode="B" horiz-adv-x="684" 
d="M630 206q0 -90 -61 -148t-177 -58h-304v714h283q110 0 170 -45.5t60 -126.5q0 -104 -91 -155q59 -24 89.5 -71t30.5 -110zM510 528q0 103 -141 103h-191v-215h201q64 0 97.5 30t33.5 82zM536 211q0 57 -34 91t-101 34h-223v-253h211q70 0 108.5 33.5t38.5 94.5z" />
    <glyph glyph-name="C" unicode="C" horiz-adv-x="693" 
d="M656 587l-71 -50q-70 106 -200 106q-112 0 -177.5 -78.5t-65.5 -207.5q0 -130 67 -208t180 -78q123 0 199 107l72 -50q-100 -141 -271 -141q-154 0 -248 103.5t-94 266.5q0 162 93 266t245 104q175 0 271 -140z" />
    <glyph glyph-name="D" unicode="D" horiz-adv-x="742" 
d="M178 84h179q116 0 178.5 73.5t62.5 199.5t-62.5 199.5t-178.5 73.5h-179v-546zM357 0h-269v714h269q157 0 246.5 -99.5t89.5 -257.5q0 -157 -89.5 -257t-246.5 -100z" />
    <glyph glyph-name="E" unicode="E" horiz-adv-x="633" 
d="M580 0h-492v714h482v-84h-392v-214h349v-80h-349v-252h402v-84z" />
    <glyph glyph-name="F" unicode="F" horiz-adv-x="598" 
d="M568 630h-390v-214h348v-80h-348v-336h-90v714h480v-84z" />
    <glyph glyph-name="G" unicode="G" horiz-adv-x="748" 
d="M389 643q-114 0 -180.5 -78.5t-66.5 -206.5q0 -130 66 -208.5t178 -78.5q97 0 160 60t68 164h-190v81h280q5 -22 5 -50q0 -144 -87 -241.5t-236 -97.5q-152 0 -245.5 105t-93.5 266q0 162 94.5 265.5t248.5 103.5q175 0 271 -139l-74 -49q-66 104 -198 104z" />
    <glyph glyph-name="H" unicode="H" horiz-adv-x="747" 
d="M659 0h-90v336h-391v-336h-90v714h90v-295h391v295h90v-714z" />
    <glyph glyph-name="I" unicode="I" horiz-adv-x="266" 
d="M178 0h-90v714h90v-714z" />
    <glyph glyph-name="J" unicode="J" horiz-adv-x="495" 
d="M324 222v492h90v-473q0 -114 -38 -168q-54 -86 -176 -86q-62 0 -111.5 26t-77.5 75l71 48q42 -67 119 -67q123 0 123 153z" />
    <glyph glyph-name="K" unicode="K" horiz-adv-x="663" 
d="M663 0h-114l-243 351l-128 -148v-203h-90v714h90v-391l344 391h113l-266 -296z" />
    <glyph glyph-name="L" unicode="L" horiz-adv-x="566" 
d="M553 0h-465v714h90v-630h375v-84z" />
    <glyph glyph-name="M" unicode="M" horiz-adv-x="889" 
d="M801 0h-89v603l-230 -603h-75l-231 604v-604h-88v714h135l222 -591l225 591h131v-714z" />
    <glyph glyph-name="N" unicode="N" horiz-adv-x="742" 
d="M654 0h-99l-378 590v-590h-89v714h111l367 -570v570h88v-714z" />
    <glyph glyph-name="O" unicode="O" horiz-adv-x="772" 
d="M726 357q0 -160 -93.5 -265t-246.5 -105t-246.5 105t-93.5 265q0 161 93.5 265.5t246.5 104.5t246.5 -104.5t93.5 -265.5zM631 357q0 127 -66 205.5t-179 78.5t-178.5 -78t-65.5 -206t65.5 -206t178.5 -78t179 78.5t66 205.5z" />
    <glyph glyph-name="P" unicode="P" horiz-adv-x="639" 
d="M178 374h189q75 0 112.5 34t37.5 94t-38 94t-112 34h-189v-256zM366 290h-188v-290h-90v714h278q117 0 181 -57.5t64 -154.5t-64 -154.5t-181 -57.5z" />
    <glyph glyph-name="Q" unicode="Q" horiz-adv-x="772" 
d="M726 357q0 -180 -114 -286l53 -65l-61 -52l-58 72q-69 -39 -160 -39q-153 0 -246.5 105t-93.5 265q0 161 93.5 265.5t246.5 104.5t246.5 -104.5t93.5 -265.5zM631 357q0 128 -66 206t-179 78t-178.5 -78t-65.5 -206t65.5 -206t178.5 -78q59 0 103 22l-83 104l61 49
l86 -109q78 80 78 218z" />
    <glyph glyph-name="R" unicode="R" horiz-adv-x="668" 
d="M632 0h-103l-153 294h-198v-294h-90v714h304q106 0 168.5 -55.5t62.5 -149.5q0 -75 -39.5 -126.5t-113.5 -74.5zM529 502q0 58 -38 93t-102 35h-211v-256h209q66 0 104 35t38 93z" />
    <glyph glyph-name="S" unicode="S" horiz-adv-x="610" 
d="M296 645q-64 0 -107 -29.5t-43 -80.5q0 -63 84 -94q22 -8 63 -19.5t74 -20.5t72 -26t65 -38t43.5 -55.5t17.5 -78.5q0 -95 -70.5 -155.5t-189.5 -60.5q-89 0 -159.5 36t-111.5 100l73 51q34 -55 88.5 -80t114.5 -25q75 0 119.5 34.5t44.5 92.5q0 24 -9 42t-21.5 30
t-38 23t-46.5 17.5t-58 15.5q-43 10 -71.5 18.5t-64.5 25t-58 36.5t-37 52.5t-15 72.5q0 93 70.5 145.5t174.5 52.5q160 0 249 -118l-69 -51q-68 87 -184 87z" />
    <glyph glyph-name="T" unicode="T" horiz-adv-x="621" 
d="M596 630h-241v-630h-90v630h-241v84h572v-84z" />
    <glyph glyph-name="U" unicode="U" horiz-adv-x="712" 
d="M631 714v-455q0 -123 -77.5 -197.5t-198.5 -74.5q-122 0 -198.5 74.5t-76.5 197.5v455h90v-455q0 -85 49.5 -135.5t135.5 -50.5q85 0 135.5 51t50.5 135v455h90z" />
    <glyph glyph-name="V" unicode="V" horiz-adv-x="631" 
d="M526 714h94l-255 -714h-99l-256 714h99l206 -610z" />
    <glyph glyph-name="W" unicode="W" horiz-adv-x="953" 
d="M928 714l-187 -714h-95l-170 578l-170 -578h-96l-185 714h96l142 -578l172 578h84l172 -580l142 580h95z" />
    <glyph glyph-name="X" unicode="X" horiz-adv-x="650" 
d="M643 0h-111l-208 303l-209 -303h-109l262 371l-242 343h110l189 -274l190 274h109l-242 -343z" />
    <glyph glyph-name="Y" unicode="Y" horiz-adv-x="613" 
d="M608 714l-255 -416v-298h-92v298l-255 416h107l196 -328l194 328h105z" />
    <glyph glyph-name="Z" unicode="Z" horiz-adv-x="621" 
d="M578 0h-538v81l412 549h-396v84h513v-79l-413 -551h422v-84z" />
    <glyph glyph-name="bracketleft" unicode="[" horiz-adv-x="283" 
d="M271 -134h-194v934h194v-69h-116v-796h116v-69z" />
    <glyph glyph-name="backslash" unicode="\" horiz-adv-x="350" 
d="M319 0h-69l-220 714h69z" />
    <glyph glyph-name="bracketright" unicode="]" horiz-adv-x="284" 
d="M207 -134h-195v69h117v796h-117v69h195v-934z" />
    <glyph glyph-name="asciicircum" unicode="^" 
d="M552 485l-51 -52l-212 214l-215 -214l-51 52l229 229h71z" />
    <glyph glyph-name="underscore" unicode="_" horiz-adv-x="581" 
d="M589 -125h-597v50h597v-50z" />
    <glyph glyph-name="grave" unicode="`" horiz-adv-x="324" 
d="M94 771l115 -177h-71l-108 140z" />
    <glyph glyph-name="a" unicode="a" horiz-adv-x="537" 
d="M464 0h-82v64q-54 -76 -160 -76q-82 0 -131 42t-49 116q0 35 12.5 62.5t29 42.5t43 26.5t45 16t44.5 8.5q6 1 25.5 4t27 4t24.5 4t24 6t20 7.5t18.5 10l12.5 12.5t9.5 15.5t2.5 19.5q0 37 -33 54t-79 17q-97 0 -164 -54l-38 64q88 65 207 65q88 0 139.5 -40t51.5 -118
v-373zM380 204v77q-7 -5 -15 -9t-15 -7t-19 -6.5t-18 -5.5t-20.5 -4.5t-19 -3.5t-21 -4t-19.5 -3q-53 -10 -79 -27.5t-26 -59.5q0 -45 30 -67t77 -22q61 0 103 35.5t42 106.5z" />
    <glyph glyph-name="b" unicode="b" horiz-adv-x="617" 
d="M77 714h84v-276q60 93 177 93q106 0 170.5 -76.5t64.5 -194.5t-64.5 -195t-170.5 -77q-116 0 -177 93v-81h-84v714zM161 259q0 -84 43.5 -138.5t120.5 -54.5t118 54t41 139t-41 140t-118 55t-120.5 -55.5t-43.5 -139.5z" />
    <glyph glyph-name="c" unicode="c" horiz-adv-x="531" 
d="M497 424l-63 -44q-48 74 -136 74q-75 0 -120 -54t-45 -140q0 -87 44.5 -140.5t120.5 -53.5q89 0 139 74l62 -47q-75 -105 -206 -105q-112 0 -180.5 77t-68.5 195q0 117 68.5 194t180.5 77q133 0 204 -107z" />
    <glyph glyph-name="d" unicode="d" horiz-adv-x="617" 
d="M540 0h-84v81q-62 -93 -178 -93q-106 0 -170 76.5t-64 194.5t64.5 195t169.5 77q116 0 178 -93v276h84v-714zM456 260q0 84 -43.5 139t-121.5 55q-76 0 -117 -54.5t-41 -139.5t41 -139.5t117 -54.5q78 0 121.5 55t43.5 139z" />
    <glyph glyph-name="e" unicode="e" horiz-adv-x="570" 
d="M135 311h307q-4 72 -47 109.5t-105 37.5q-66 0 -108 -41t-47 -106zM44 258q0 119 66.5 196t180.5 77q108 0 173 -69t65 -177q0 -20 -2 -40h-394q1 -83 48 -131t122 -48q93 0 148 70l57 -52q-80 -96 -210 -96q-118 0 -186 75.5t-68 194.5z" />
    <glyph glyph-name="f" unicode="f" horiz-adv-x="339" 
d="M321 714l-12 -70q-20 10 -53 10q-61 0 -61 -52v-83h119v-73h-119v-446h-84v446h-87v73h87v89q0 117 135 117q40 0 75 -11z" />
    <glyph glyph-name="g" unicode="g" horiz-adv-x="618" 
d="M457 58v55q-25 -44 -74.5 -68.5t-106.5 -24.5q-101 0 -165.5 72t-64.5 182q0 112 66 184.5t167 72.5q56 0 104 -24t74 -69v81h85v-446q0 -109 -53 -173q-71 -84 -207 -84q-126 0 -209 63l46 66q63 -52 162 -52q84 0 130 43t46 122zM457 277q0 77 -42.5 127.5t-120.5 50.5
q-77 0 -118 -50.5t-41 -127.5q0 -78 41 -129.5t118 -51.5t120 51.5t43 129.5z" />
    <glyph glyph-name="h" unicode="h" horiz-adv-x="583" 
d="M161 0h-84v714h84v-273q62 90 173 90q82 0 130 -51.5t48 -143.5v-336h-84v317q0 136 -113 136q-67 0 -110.5 -45.5t-43.5 -118.5v-289z" />
    <glyph glyph-name="i" unicode="i" horiz-adv-x="238" 
d="M161 624h-84v90h84v-90zM161 0h-84v519h84v-519z" />
    <glyph glyph-name="j" unicode="j" horiz-adv-x="238" 
d="M161 625h-84v89h84v-89zM161 519v-564q0 -137 -130 -137q-41 0 -66 11l15 69q16 -9 40 -9q27 0 42 15.5t15 58.5v556h84z" />
    <glyph glyph-name="k" unicode="k" horiz-adv-x="552" 
d="M161 248l254 271h106l-204 -213l230 -306h-106l-183 251l-97 -102v-149h-84v714h84v-466z" />
    <glyph glyph-name="l" unicode="l" horiz-adv-x="243" 
d="M163 0h-84v714h84v-714z" />
    <glyph glyph-name="m" unicode="m" horiz-adv-x="894" 
d="M492 0h-84v322q0 131 -106 131q-61 0 -101 -44t-40 -113v-296h-84v519h84v-75q57 87 162 87q54 0 93.5 -25.5t57.5 -73.5q28 43 74.5 71t102.5 28q79 0 125 -50t46 -139v-342h-84v322q0 131 -106 131q-61 0 -100.5 -44t-39.5 -113v-296z" />
    <glyph glyph-name="n" unicode="n" horiz-adv-x="583" 
d="M161 0h-84v519h84v-78q62 90 173 90q82 0 130 -51.5t48 -143.5v-336h-84v317q0 136 -113 136q-67 0 -110.5 -45.5t-43.5 -118.5v-289z" />
    <glyph glyph-name="o" unicode="o" horiz-adv-x="584" 
d="M540 259q0 -118 -68 -194.5t-181 -76.5q-112 0 -179.5 76.5t-67.5 194.5q0 120 67.5 196t179.5 76q113 0 181 -76t68 -196zM450 259q0 86 -42.5 141t-116.5 55q-73 0 -115.5 -55t-42.5 -141q0 -84 42.5 -139.5t115.5 -55.5q74 0 116.5 55.5t42.5 139.5z" />
    <glyph glyph-name="p" unicode="p" horiz-adv-x="617" 
d="M77 519h84v-81q60 93 177 93q106 0 170.5 -76.5t64.5 -194.5t-64.5 -195t-170.5 -77q-116 0 -177 93v-255h-84v693zM161 259q0 -84 43.5 -138.5t120.5 -54.5q76 0 117.5 54.5t41.5 138.5q0 85 -41 140t-118 55t-120.5 -55t-43.5 -140z" />
    <glyph glyph-name="q" unicode="q" horiz-adv-x="617" 
d="M540 -174h-84v255q-62 -93 -178 -93q-106 0 -170 76.5t-64 194.5t64.5 195t169.5 77q116 0 178 -93v81h84v-693zM456 260q0 84 -43.5 139t-121.5 55q-76 0 -117 -54.5t-41 -139.5t41 -139.5t117 -54.5q78 0 121.5 55t43.5 139z" />
    <glyph glyph-name="r" unicode="r" horiz-adv-x="383" 
d="M382 511l-20 -77q-23 14 -62 14q-59 0 -99 -47t-40 -134v-267h-84v519h84v-76q22 38 63 62t88 24q44 0 70 -18z" />
    <glyph glyph-name="s" unicode="s" horiz-adv-x="495" 
d="M39 68l52 55q58 -61 157 -61q56 0 88.5 21.5t32.5 63.5q0 36 -29 50.5t-114 32.5q-38 8 -65 17t-54 25.5t-41 43t-14 63.5q0 75 56 113.5t138 38.5q122 0 198 -80l-51 -55q-55 62 -150 62q-46 0 -78.5 -17.5t-32.5 -53.5q0 -15 7.5 -27t16.5 -19.5t29.5 -14.5t31.5 -9.5
t38 -8.5q46 -9 75.5 -18.5t60.5 -26.5t46 -44.5t15 -65.5q0 -74 -55 -119.5t-151 -45.5q-127 0 -207 80z" />
    <glyph glyph-name="t" unicode="t" horiz-adv-x="367" 
d="M328 81l21 -70q-33 -22 -93 -22q-139 0 -139 148v309h-97v73h97v195h84v-195h137v-73h-137v-297q0 -84 69 -84q37 0 58 16z" />
    <glyph glyph-name="u" unicode="u" horiz-adv-x="582" 
d="M421 519h84v-519h-84v78q-60 -90 -173 -90q-82 0 -130 52t-48 143v336h85v-316q0 -136 112 -136q67 0 110.5 45t43.5 118v289z" />
    <glyph glyph-name="v" unicode="v" horiz-adv-x="517" 
d="M504 519l-200 -519h-90l-201 519h95l152 -421l152 421h92z" />
    <glyph glyph-name="w" unicode="w" horiz-adv-x="762" 
d="M736 519l-140 -519h-93l-122 407l-123 -407h-93l-139 519h89l105 -410l123 410h80l122 -409l104 409h87z" />
    <glyph glyph-name="x" unicode="x" horiz-adv-x="520" 
d="M506 0h-102l-144 213l-144 -213h-102l194 271l-178 248h103l130 -190l127 190h100l-176 -248z" />
    <glyph glyph-name="y" unicode="y" horiz-adv-x="518" 
d="M68 -173l19 70q16 -8 33 -8q30 0 50.5 24t45.5 89l-204 517h95l153 -412l152 412h92l-210 -532q-38 -96 -72.5 -133.5t-91.5 -37.5q-40 0 -62 11z" />
    <glyph glyph-name="z" unicode="z" horiz-adv-x="494" 
d="M452 0h-412v69l294 375h-282v75h391v-71l-291 -373h300v-75z" />
    <glyph glyph-name="braceleft" unicode="{" horiz-adv-x="308" 
d="M296 -134h-34q-65 0 -104.5 45t-39.5 126v162q0 101 -79 101h-16v66h16q79 0 79 101v162q0 81 39.5 126t104.5 45h34v-67h-21q-81 0 -81 -101v-160q0 -108 -81 -139q81 -31 81 -139v-160q0 -101 81 -101h21v-67z" />
    <glyph glyph-name="bar" unicode="|" horiz-adv-x="218" 
d="M141 -48h-64v810h64v-810z" />
    <glyph glyph-name="braceright" unicode="}" horiz-adv-x="310" 
d="M288 300h-17q-83 0 -83 -101v-162q0 -81 -41.5 -126t-110.5 -45h-24v67h13q86 0 86 101v160q0 108 84 139q-84 31 -84 139v160q0 101 -86 101h-13v67h24q69 0 110.5 -45t41.5 -126v-162q0 -101 83 -101h17v-66z" />
    <glyph glyph-name="asciitilde" unicode="~" 
d="M68 214l-34 36q69 90 140 90q37 0 116 -34q78 -34 112 -34q54 0 106 49l34 -34q-68 -91 -141 -91q-36 0 -115 34q-75 33 -113 33q-54 0 -105 -49z" />
    <glyph glyph-name="uni00A0" unicode="&#xa0;" horiz-adv-x="270" 
 />
    <glyph glyph-name="exclamdown" unicode="&#xa1;" horiz-adv-x="254" 
d="M150 313l23 -335v-152h-92v152l24 335h45zM75 519h104v-105h-104v105z" />
    <glyph glyph-name="cent" unicode="&#xa2;" 
d="M514 424l-66 -45q-40 64 -110 74v-388q71 11 114 76l63 -48q-64 -92 -177 -104v-83h-54v84q-102 9 -163 84t-61 186q0 110 61 185t163 84v83h54v-82q114 -13 176 -106zM147 260q0 -79 36.5 -131t100.5 -62v386q-63 -10 -100 -62.5t-37 -130.5z" />
    <glyph glyph-name="sterling" unicode="&#xa3;" 
d="M524 82v-82h-491v68q47 23 76.5 65.5t29.5 89.5q0 34 -18 88h-88v65h65q-30 82 -30 130q0 102 64.5 161.5t169.5 59.5q150 0 232 -130l-75 -46q-52 90 -155 90q-63 0 -102.5 -36t-39.5 -106q0 -50 29 -123h216v-65h-198q12 -38 12 -79q0 -39 -12.5 -72.5t-21.5 -45.5
t-26 -32h363z" />
    <glyph glyph-name="currency" unicode="&#xa4;" 
d="M165 304q0 -52 35.5 -87.5t87.5 -35.5q51 0 86.5 35.5t35.5 87.5q0 51 -35.5 86.5t-86.5 35.5q-52 0 -87.5 -35.5t-35.5 -86.5zM99 304q0 55 31 104l-71 72l53 53l71 -73q44 32 105 32q59 0 103 -32l72 73l52 -53l-71 -72q32 -48 32 -104q0 -58 -32 -104l71 -71l-52 -54
l-72 72q-46 -32 -103 -32q-59 0 -105 32l-71 -72l-53 54l71 70q-31 49 -31 105z" />
    <glyph glyph-name="yen" unicode="&#xa5;" 
d="M551 715l-176 -343h147v-54h-175l-15 -27v-67h190v-54h-190v-170h-90v170h-191v54h191v67l-16 27h-175v54h148l-174 343h104l161 -342l157 342h104z" />
    <glyph glyph-name="brokenbar" unicode="&#xa6;" horiz-adv-x="303" 
d="M180 448h-59v314h59v-314zM180 -60h-59v314h59v-314z" />
    <glyph glyph-name="section" unicode="&#xa7;" horiz-adv-x="525" 
d="M484 215q0 -112 -70 -185t-188 -73q-100 0 -172 56l48 64q51 -45 126 -45q98 0 145 76q-14 9 -42.5 26t-42.5 26q-111 68 -155 108q-95 89 -95 204q0 110 71 182.5t188 72.5q104 0 172 -56l-49 -63q-49 44 -124 44q-99 0 -146 -75q21 -13 61 -37t61.5 -37.5t55 -36.5
t52 -40t41.5 -42.5t34.5 -49.5t20 -55t8.5 -64zM405 214q0 74 -42.5 122t-149.5 122l-88 60q-6 -17 -6 -39q0 -35 8.5 -63.5t21 -49.5t40 -46t52 -43t70.5 -49l88 -60q6 28 6 46z" />
    <glyph glyph-name="dieresis" unicode="&#xa8;" horiz-adv-x="354" 
d="M121 618h-78v79h78v-79zM311 618h-77v79h77v-79z" />
    <glyph glyph-name="copyright" unicode="&#xa9;" horiz-adv-x="832" 
d="M595 249q-29 -48 -76 -75t-103 -27q-86 0 -147 61.5t-61 148.5q0 88 61 149.5t147 61.5q56 0 102.5 -26.5t74.5 -74.5l-52 -35q-19 34 -52.5 54t-71.5 20q-61 0 -103.5 -43.5t-42.5 -105.5q0 -61 42.5 -104.5t103.5 -43.5q38 0 71 20t54 54zM40 357q0 156 110 266
t266 110t266 -110t110 -266t-110 -266t-266 -110t-266 110t-110 266zM90 357q0 -135 95.5 -230.5t230.5 -95.5t230.5 95.5t95.5 230.5t-95.5 230.5t-230.5 95.5t-230.5 -95.5t-95.5 -230.5z" />
    <glyph glyph-name="ordfeminine" unicode="&#xaa;" horiz-adv-x="400" 
d="M335 384h-60v44q-39 -51 -110 -51q-54 0 -86.5 28t-32.5 77q0 40 23.5 62.5t56.5 28.5t66 9t56.5 12t23.5 30q0 44 -76 44q-57 0 -105 -34l-31 45q64 45 140 45q61 0 98 -27t37 -80v-233zM272 515v46q-14 -13 -31 -18t-54 -9q-26 -3 -40 -6.5t-26 -14.5t-12 -30
q0 -51 67 -51q40 0 68 21t28 62z" />
    <glyph glyph-name="guillemotleft" unicode="&#xab;" horiz-adv-x="494" 
d="M50 273v28l149 205l52 -41l-129 -178l129 -178l-52 -40zM244 273v28l149 205l51 -41l-129 -178l129 -178l-51 -40z" />
    <glyph glyph-name="logicalnot" unicode="&#xac;" 
d="M521 67h-73v200h-401v74h474v-274z" />
    <glyph glyph-name="uni00AD" unicode="&#xad;" horiz-adv-x="382" 
d="M319 231h-257v73h257v-73z" />
    <glyph glyph-name="registered" unicode="&#xae;" horiz-adv-x="388" 
d="M346 573q0 -62 -44.5 -106.5t-107.5 -44.5t-107.5 44.5t-44.5 106.5q0 64 44.5 108.5t107.5 44.5t107.5 -44.5t44.5 -108.5zM325 573q0 55 -38.5 93.5t-92.5 38.5q-55 0 -93 -38.5t-38 -93.5q0 -54 38 -92t93 -38q54 0 92.5 38t38.5 92zM230 558l39 -67h-34l-35 62h-38
v-62h-31v168h77q24 0 40 -14.5t16 -38.5q0 -36 -34 -48zM232 605q0 12 -7 19.5t-18 7.5h-45v-53h45q11 0 18 7.5t7 18.5z" />
    <glyph glyph-name="macron" unicode="&#xaf;" horiz-adv-x="347" 
d="M307 627h-269v61h269v-61z" />
    <glyph glyph-name="degree" unicode="&#xb0;" horiz-adv-x="377" 
d="M338 576q0 -62 -44 -106t-105 -44q-62 0 -106 44t-44 106t44 106t106 44q61 0 105 -44t44 -106zM282 576q0 38 -28 65.5t-65 27.5q-38 0 -65.5 -27.5t-27.5 -65.5t27.5 -65.5t65.5 -27.5q37 0 65 27.5t28 65.5z" />
    <glyph glyph-name="plusminus" unicode="&#xb1;" 
d="M543 0h-511v74h511v-74zM543 341h-218v-218h-75v218h-218v74h218v219h75v-219h218v-74z" />
    <glyph glyph-name="twosuperior" unicode="&#xb2;" horiz-adv-x="452" 
d="M390 380h-330v9q0 43 35.5 83.5t107.5 94.5q68 52 82 70q20 24 20 50q0 31 -23 48.5t-60 17.5q-77 0 -112 -68l-57 33q58 98 173 98q69 0 112 -35t43 -93q0 -66 -75 -124q-20 -16 -57.5 -40t-62.5 -43t-37 -36h241v-65z" />
    <glyph glyph-name="threesuperior" unicode="&#xb3;" horiz-adv-x="452" 
d="M198 582l-32 30l122 132h-214v64h302v-46l-107 -115q57 -5 93 -39.5t36 -88.5q0 -60 -45 -103.5t-128 -43.5q-117 0 -171 94l56 34q37 -65 114 -65q44 0 72 22.5t28 60.5q0 34 -23 55t-60 21q-27 0 -43 -12z" />
    <glyph glyph-name="acute" unicode="&#xb4;" horiz-adv-x="324" 
d="M115 594l115 177l64 -37l-108 -140h-71z" />
    <glyph glyph-name="mu" unicode="&#xb5;" 
d="M129 -174h-84v693h84v-311q0 -143 117 -143q64 0 106.5 43.5t42.5 121.5v289h84v-404q0 -56 37 -56q18 0 26 6l10 -64q-19 -9 -52 -9q-41 0 -68 22.5t-30 64.5q-58 -91 -158 -91q-80 0 -115 56v-218z" />
    <glyph glyph-name="mu" unicode="&#x3bc;" 
d="M129 -174h-84v693h84v-311q0 -143 117 -143q64 0 106.5 43.5t42.5 121.5v289h84v-404q0 -56 37 -56q18 0 26 6l10 -64q-19 -9 -52 -9q-41 0 -68 22.5t-30 64.5q-58 -91 -158 -91q-80 0 -115 56v-218z" />
    <glyph glyph-name="paragraph" unicode="&#xb6;" horiz-adv-x="552" 
d="M475 -91h-50v752h-65v-752h-61v398h-60q-88 0 -146 56t-58 147q0 92 59 148t145 56h236v-805z" />
    <glyph glyph-name="periodcentered" unicode="&#xb7;" horiz-adv-x="255" 
d="M190 259q0 -25 -18.5 -43.5t-43.5 -18.5q-26 0 -44.5 18.5t-18.5 43.5t18.5 44t44.5 19q25 0 43.5 -19t18.5 -44z" />
    <glyph glyph-name="cedilla" unicode="&#xb8;" horiz-adv-x="324" 
d="M141 -188q-42 0 -75 11v51q22 -14 65 -14q29 0 43.5 11t14.5 28q0 13 -12 21h-47v53q14 9 43 9q34 0 60 -21t26 -58q0 -41 -32.5 -66t-85.5 -25z" />
    <glyph glyph-name="onesuperior" unicode="&#xb9;" horiz-adv-x="367" 
d="M94 672l-35 52l137 84h59v-428h-70v345z" />
    <glyph glyph-name="ordmasculine" unicode="&#xba;" horiz-adv-x="419" 
d="M379 552q0 -76 -46.5 -125t-123.5 -49t-123 49t-46 125t46 124.5t123 48.5t123.5 -48.5t46.5 -124.5zM313 552q0 50 -28 82t-76 32t-76 -32.5t-28 -81.5t28 -82t76 -33t76 32.5t28 82.5z" />
    <glyph glyph-name="guillemotright" unicode="&#xbb;" horiz-adv-x="494" 
d="M444 301v-28l-149 -204l-52 40l129 178l-129 178l52 41zM250 301v-28l-148 -204l-52 40l129 178l-129 178l52 41z" />
    <glyph glyph-name="onequarter" unicode="&#xbc;" horiz-adv-x="1044" 
d="M94 578l-35 52l137 84h59v-428h-70v345zM784 714l-482 -714h-64l482 714h64zM991 97h-63v-97h-72v97h-214v56l209 275h77v-271h63v-60zM709 157h149v187z" />
    <glyph glyph-name="onehalf" unicode="&#xbd;" horiz-adv-x="1084" 
d="M94 578l-35 52l137 84h59v-428h-70v345zM784 714l-482 -714h-64l482 714h64zM1022 0h-330v9q0 43 35.5 83.5t107.5 94.5q68 52 82 70q20 24 20 50q0 31 -23 48.5t-60 17.5q-77 0 -112 -68l-57 33q58 98 173 98q69 0 112 -35t43 -93q0 -66 -75 -124q-20 -16 -57.5 -40
t-62.5 -43t-37 -36h241v-65z" />
    <glyph glyph-name="threequarters" unicode="&#xbe;" horiz-adv-x="1106" 
d="M836 714l-482 -714h-64l482 714h64zM1053 97h-63v-97h-72v97h-214v56l209 275h77v-271h63v-60zM771 157h149v187zM198 488l-32 30l122 132h-214v64h302v-46l-107 -115q57 -5 93 -39.5t36 -88.5q0 -60 -45 -103.5t-128 -43.5q-117 0 -171 94l56 34q37 -65 114 -65
q44 0 72 22.5t28 60.5q0 34 -23 55t-60 21q-27 0 -43 -12z" />
    <glyph glyph-name="questiondown" unicode="&#xbf;" horiz-adv-x="494" 
d="M232 519h112v-112h-112v112zM53 4q0 48 21 86t50.5 63t59.5 48t51 52.5t21 64.5v19h82v-14q0 -49 -20 -88t-48.5 -65t-57 -49.5t-48.5 -53.5t-20 -64q0 -46 32.5 -76t91.5 -30q83 0 155 70l48 -63q-93 -88 -210 -88q-93 0 -150.5 51t-57.5 137z" />
    <glyph glyph-name="Agrave" unicode="&#xc0;" horiz-adv-x="678" 
d="M668 0h-103l-75 205h-307l-76 -205h-96l276 714h105zM460 286l-121 341l-127 -341h248zM265 939l115 -177h-71l-108 140z" />
    <glyph glyph-name="Aacute" unicode="&#xc1;" horiz-adv-x="678" 
d="M668 0h-103l-75 205h-307l-76 -205h-96l276 714h105zM460 286l-121 341l-127 -341h248zM291 762l115 177l64 -37l-108 -140h-71z" />
    <glyph glyph-name="Acircumflex" unicode="&#xc2;" horiz-adv-x="678" 
d="M668 0h-103l-75 205h-307l-76 -205h-96l276 714h105zM460 286l-121 341l-127 -341h248zM377 938l122 -169h-70l-90 104l-88 -104h-71l122 169h75z" />
    <glyph glyph-name="Atilde" unicode="&#xc3;" horiz-adv-x="678" 
d="M668 0h-103l-75 205h-307l-76 -205h-96l276 714h105zM460 286l-121 341l-127 -341h248zM210 779l-51 23q15 38 45 62t73 24q33 0 74 -22q38 -21 59 -21q40 0 62 43l51 -24q-14 -37 -44 -61t-73 -24q-36 0 -76 22q-37 21 -58 21q-40 0 -62 -43z" />
    <glyph glyph-name="Adieresis" unicode="&#xc4;" horiz-adv-x="678" 
d="M668 0h-103l-75 205h-307l-76 -205h-96l276 714h105zM460 286l-121 341l-127 -341h248zM283 786h-78v79h78v-79zM473 786h-77v79h77v-79z" />
    <glyph glyph-name="Aring" unicode="&#xc5;" horiz-adv-x="678" 
d="M460 286l-121 341l-127 -341h248zM290 764q0 -21 14.5 -35.5t35.5 -14.5q20 0 35 14.5t15 35.5t-15 35.5t-35 14.5q-21 0 -35.5 -14.5t-14.5 -35.5zM243 764q0 40 28.5 68.5t68.5 28.5t68 -28.5t28 -68.5q0 -45 -35 -73l267 -691h-103l-75 205h-307l-76 -205h-96l267 691
q-35 28 -35 73z" />
    <glyph glyph-name="AE" unicode="&#xc6;" horiz-adv-x="937" 
d="M884 0h-429v205h-249l-119 -205h-97l420 714h464v-84h-327v-213h286v-80h-286v-253h337v-84zM455 286v349l-202 -349h202z" />
    <glyph glyph-name="Ccedilla" unicode="&#xc7;" horiz-adv-x="693" 
d="M656 587l-71 -50q-70 106 -200 106q-112 0 -177.5 -78.5t-65.5 -207.5q0 -130 67 -208t180 -78q123 0 199 107l72 -50q-100 -141 -271 -141q-154 0 -248 103.5t-94 266.5q0 162 93 266t245 104q175 0 271 -140zM343 -188q-42 0 -75 11v51q22 -14 65 -14q29 0 43.5 11
t14.5 28q0 13 -12 21h-47v53q14 9 43 9q34 0 60 -21t26 -58q0 -41 -32.5 -66t-85.5 -25z" />
    <glyph glyph-name="Egrave" unicode="&#xc8;" horiz-adv-x="633" 
d="M580 0h-492v714h482v-84h-392v-214h349v-80h-349v-252h402v-84zM278 939l115 -177h-71l-108 140z" />
    <glyph glyph-name="Eacute" unicode="&#xc9;" horiz-adv-x="633" 
d="M580 0h-492v714h482v-84h-392v-214h349v-80h-349v-252h402v-84zM281 762l115 177l64 -37l-108 -140h-71z" />
    <glyph glyph-name="Ecircumflex" unicode="&#xca;" horiz-adv-x="633" 
d="M580 0h-492v714h482v-84h-392v-214h349v-80h-349v-252h402v-84zM363 940l122 -169h-70l-90 104l-88 -104h-71l122 169h75z" />
    <glyph glyph-name="Edieresis" unicode="&#xcb;" horiz-adv-x="633" 
d="M580 0h-492v714h482v-84h-392v-214h349v-80h-349v-252h402v-84zM270 786h-78v79h78v-79zM460 786h-77v79h77v-79z" />
    <glyph glyph-name="Igrave" unicode="&#xcc;" horiz-adv-x="266" 
d="M178 0h-90v714h90v-714zM58 939l115 -177h-71l-108 140z" />
    <glyph glyph-name="Iacute" unicode="&#xcd;" horiz-adv-x="266" 
d="M178 0h-90v714h90v-714zM93 758l115 177l64 -37l-108 -140h-71z" />
    <glyph glyph-name="Icircumflex" unicode="&#xce;" horiz-adv-x="266" 
d="M178 0h-90v714h90v-714zM171 931l122 -169h-70l-90 104l-88 -104h-71l122 169h75z" />
    <glyph glyph-name="Idieresis" unicode="&#xcf;" horiz-adv-x="266" 
d="M178 0h-90v714h90v-714zM77 786h-78v79h78v-79zM267 786h-77v79h77v-79z" />
    <glyph glyph-name="Eth" unicode="&#xd0;" horiz-adv-x="760" 
d="M712 357q0 -160 -87.5 -258.5t-244.5 -98.5h-275v329h-61v74h61v311h275q158 0 245 -98t87 -259zM615 357q0 129 -62.5 201t-173.5 72h-183v-227h197v-74h-197v-245h183q111 0 173.5 72t62.5 201z" />
    <glyph glyph-name="Ntilde" unicode="&#xd1;" horiz-adv-x="742" 
d="M654 0h-99l-378 590v-590h-89v714h111l367 -570v570h88v-714zM242 779l-51 23q15 38 45 62t73 24q33 0 74 -22q38 -21 59 -21q40 0 62 43l51 -24q-14 -37 -44 -61t-73 -24q-36 0 -76 22q-37 21 -58 21q-40 0 -62 -43z" />
    <glyph glyph-name="Ograve" unicode="&#xd2;" horiz-adv-x="772" 
d="M726 357q0 -160 -93.5 -265t-246.5 -105t-246.5 105t-93.5 265q0 161 93.5 265.5t246.5 104.5t246.5 -104.5t93.5 -265.5zM631 357q0 127 -66 205.5t-179 78.5t-178.5 -78t-65.5 -206t65.5 -206t178.5 -78t179 78.5t66 205.5zM325 939l115 -177h-71l-108 140z" />
    <glyph glyph-name="Oacute" unicode="&#xd3;" horiz-adv-x="772" 
d="M726 357q0 -160 -93.5 -265t-246.5 -105t-246.5 105t-93.5 265q0 161 93.5 265.5t246.5 104.5t246.5 -104.5t93.5 -265.5zM631 357q0 127 -66 205.5t-179 78.5t-178.5 -78t-65.5 -206t65.5 -206t178.5 -78t179 78.5t66 205.5zM321 762l115 177l64 -37l-108 -140h-71z" />
    <glyph glyph-name="Ocircumflex" unicode="&#xd4;" horiz-adv-x="772" 
d="M726 357q0 -160 -93.5 -265t-246.5 -105t-246.5 105t-93.5 265q0 161 93.5 265.5t246.5 104.5t246.5 -104.5t93.5 -265.5zM631 357q0 127 -66 205.5t-179 78.5t-178.5 -78t-65.5 -206t65.5 -206t178.5 -78t179 78.5t66 205.5zM424 940l122 -169h-70l-90 104l-88 -104h-71
l122 169h75z" />
    <glyph glyph-name="Otilde" unicode="&#xd5;" horiz-adv-x="772" 
d="M726 357q0 -160 -93.5 -265t-246.5 -105t-246.5 105t-93.5 265q0 161 93.5 265.5t246.5 104.5t246.5 -104.5t93.5 -265.5zM631 357q0 127 -66 205.5t-179 78.5t-178.5 -78t-65.5 -206t65.5 -206t178.5 -78t179 78.5t66 205.5zM256 779l-51 23q15 38 45 62t73 24
q33 0 74 -22q38 -21 59 -21q40 0 62 43l51 -24q-14 -37 -44 -61t-73 -24q-36 0 -76 22q-37 21 -58 21q-40 0 -62 -43z" />
    <glyph glyph-name="Odieresis" unicode="&#xd6;" horiz-adv-x="772" 
d="M726 357q0 -160 -93.5 -265t-246.5 -105t-246.5 105t-93.5 265q0 161 93.5 265.5t246.5 104.5t246.5 -104.5t93.5 -265.5zM631 357q0 127 -66 205.5t-179 78.5t-178.5 -78t-65.5 -206t65.5 -206t178.5 -78t179 78.5t66 205.5zM330 786h-78v79h78v-79zM520 786h-77v79h77
v-79z" />
    <glyph glyph-name="multiply" unicode="&#xd7;" 
d="M549 51l-53 -54l-208 210l-209 -210l-53 54l210 208l-210 209l53 53l209 -210l208 210l53 -53l-209 -209z" />
    <glyph glyph-name="Oslash" unicode="&#xd8;" horiz-adv-x="772" 
d="M163 -10l-46 32l38 53q-109 106 -109 282q0 161 93.5 265.5t246.5 104.5q104 0 187 -54l35 51l46 -32l-37 -54q109 -103 109 -281q0 -160 -93.5 -265t-246.5 -105q-105 0 -188 54zM631 357q0 128 -68 205l-314 -449q57 -40 137 -40q113 0 179 78.5t66 205.5zM142 357
q0 -130 65 -206l315 449q-58 41 -136 41q-113 0 -178.5 -78t-65.5 -206z" />
    <glyph glyph-name="Ugrave" unicode="&#xd9;" horiz-adv-x="712" 
d="M631 714v-455q0 -123 -77.5 -197.5t-198.5 -74.5q-122 0 -198.5 74.5t-76.5 197.5v455h90v-455q0 -85 49.5 -135.5t135.5 -50.5q85 0 135.5 51t50.5 135v455h90zM286 939l115 -177h-71l-108 140z" />
    <glyph glyph-name="Uacute" unicode="&#xda;" horiz-adv-x="712" 
d="M631 714v-455q0 -123 -77.5 -197.5t-198.5 -74.5q-122 0 -198.5 74.5t-76.5 197.5v455h90v-455q0 -85 49.5 -135.5t135.5 -50.5q85 0 135.5 51t50.5 135v455h90zM301 762l115 177l64 -37l-108 -140h-71z" />
    <glyph glyph-name="Ucircumflex" unicode="&#xdb;" horiz-adv-x="712" 
d="M631 714v-455q0 -123 -77.5 -197.5t-198.5 -74.5q-122 0 -198.5 74.5t-76.5 197.5v455h90v-455q0 -85 49.5 -135.5t135.5 -50.5q85 0 135.5 51t50.5 135v455h90zM393 940l122 -169h-70l-90 104l-88 -104h-71l122 169h75z" />
    <glyph glyph-name="Udieresis" unicode="&#xdc;" horiz-adv-x="712" 
d="M631 714v-455q0 -123 -77.5 -197.5t-198.5 -74.5q-122 0 -198.5 74.5t-76.5 197.5v455h90v-455q0 -85 49.5 -135.5t135.5 -50.5q85 0 135.5 51t50.5 135v455h90zM299 786h-78v79h78v-79zM489 786h-77v79h77v-79z" />
    <glyph glyph-name="Yacute" unicode="&#xdd;" horiz-adv-x="613" 
d="M608 714l-255 -416v-298h-92v298l-255 416h107l196 -328l194 328h105zM256 762l115 177l64 -37l-108 -140h-71z" />
    <glyph glyph-name="Thorn" unicode="&#xde;" horiz-adv-x="639" 
d="M366 193h-188v-193h-90v714h90v-97h188q117 0 181 -57.5t64 -154.5t-64 -154.5t-181 -57.5zM178 277h189q75 0 112.5 34t37.5 94t-38 94t-112 34h-189v-256z" />
    <glyph glyph-name="germandbls" unicode="&#xdf;" horiz-adv-x="603" 
d="M555 206q0 -97 -63 -156.5t-166 -59.5q-70 0 -110 21l24 73q33 -19 84 -19q66 0 104.5 39.5t38.5 105.5q0 69 -43.5 102.5t-120.5 33.5h-52v73h54q58 0 96.5 30.5t38.5 87.5q0 58 -39.5 86.5t-95.5 28.5q-63 0 -102.5 -36t-39.5 -102v-514h-84v514q0 97 62.5 154
t164.5 57q93 0 156 -48t63 -132q0 -101 -99 -156q129 -44 129 -183z" />
    <glyph glyph-name="agrave" unicode="&#xe0;" horiz-adv-x="537" 
d="M464 0h-82v64q-54 -76 -160 -76q-82 0 -131 42t-49 116q0 35 12.5 62.5t29 42.5t43 26.5t45 16t44.5 8.5q6 1 25.5 4t27 4t24.5 4t24 6t20 7.5t18.5 10l12.5 12.5t9.5 15.5t2.5 19.5q0 37 -33 54t-79 17q-97 0 -164 -54l-38 64q88 65 207 65q88 0 139.5 -40t51.5 -118
v-373zM380 204v77q-7 -5 -15 -9t-15 -7t-19 -6.5t-18 -5.5t-20.5 -4.5t-19 -3.5t-21 -4t-19.5 -3q-53 -10 -79 -27.5t-26 -59.5q0 -45 30 -67t77 -22q61 0 103 35.5t42 106.5zM194 771l115 -177h-71l-108 140z" />
    <glyph glyph-name="aacute" unicode="&#xe1;" horiz-adv-x="537" 
d="M464 0h-82v64q-54 -76 -160 -76q-82 0 -131 42t-49 116q0 35 12.5 62.5t29 42.5t43 26.5t45 16t44.5 8.5q6 1 25.5 4t27 4t24.5 4t24 6t20 7.5t18.5 10l12.5 12.5t9.5 15.5t2.5 19.5q0 37 -33 54t-79 17q-97 0 -164 -54l-38 64q88 65 207 65q88 0 139.5 -40t51.5 -118
v-373zM380 204v77q-7 -5 -15 -9t-15 -7t-19 -6.5t-18 -5.5t-20.5 -4.5t-19 -3.5t-21 -4t-19.5 -3q-53 -10 -79 -27.5t-26 -59.5q0 -45 30 -67t77 -22q61 0 103 35.5t42 106.5zM204 594l115 177l64 -37l-108 -140h-71z" />
    <glyph glyph-name="acircumflex" unicode="&#xe2;" horiz-adv-x="537" 
d="M464 0h-82v64q-54 -76 -160 -76q-82 0 -131 42t-49 116q0 35 12.5 62.5t29 42.5t43 26.5t45 16t44.5 8.5q6 1 25.5 4t27 4t24.5 4t24 6t20 7.5t18.5 10l12.5 12.5t9.5 15.5t2.5 19.5q0 37 -33 54t-79 17q-97 0 -164 -54l-38 64q88 65 207 65q88 0 139.5 -40t51.5 -118
v-373zM380 204v77q-7 -5 -15 -9t-15 -7t-19 -6.5t-18 -5.5t-20.5 -4.5t-19 -3.5t-21 -4t-19.5 -3q-53 -10 -79 -27.5t-26 -59.5q0 -45 30 -67t77 -22q61 0 103 35.5t42 106.5zM301 763l122 -169h-70l-90 104l-88 -104h-71l122 169h75z" />
    <glyph glyph-name="atilde" unicode="&#xe3;" horiz-adv-x="537" 
d="M464 0h-82v64q-54 -76 -160 -76q-82 0 -131 42t-49 116q0 35 12.5 62.5t29 42.5t43 26.5t45 16t44.5 8.5q6 1 25.5 4t27 4t24.5 4t24 6t20 7.5t18.5 10l12.5 12.5t9.5 15.5t2.5 19.5q0 37 -33 54t-79 17q-97 0 -164 -54l-38 64q88 65 207 65q88 0 139.5 -40t51.5 -118
v-373zM380 204v77q-7 -5 -15 -9t-15 -7t-19 -6.5t-18 -5.5t-20.5 -4.5t-19 -3.5t-21 -4t-19.5 -3q-53 -10 -79 -27.5t-26 -59.5q0 -45 30 -67t77 -22q61 0 103 35.5t42 106.5zM132 611l-51 23q15 38 45 62t73 24q33 0 74 -22q38 -21 59 -21q40 0 62 43l51 -24
q-14 -37 -44 -61t-73 -24q-36 0 -76 22q-37 21 -58 21q-40 0 -62 -43z" />
    <glyph glyph-name="adieresis" unicode="&#xe4;" horiz-adv-x="537" 
d="M464 0h-82v64q-54 -76 -160 -76q-82 0 -131 42t-49 116q0 35 12.5 62.5t29 42.5t43 26.5t45 16t44.5 8.5q6 1 25.5 4t27 4t24.5 4t24 6t20 7.5t18.5 10l12.5 12.5t9.5 15.5t2.5 19.5q0 37 -33 54t-79 17q-97 0 -164 -54l-38 64q88 65 207 65q88 0 139.5 -40t51.5 -118
v-373zM380 204v77q-7 -5 -15 -9t-15 -7t-19 -6.5t-18 -5.5t-20.5 -4.5t-19 -3.5t-21 -4t-19.5 -3q-53 -10 -79 -27.5t-26 -59.5q0 -45 30 -67t77 -22q61 0 103 35.5t42 106.5zM206 618h-78v79h78v-79zM396 618h-77v79h77v-79z" />
    <glyph glyph-name="aring" unicode="&#xe5;" horiz-adv-x="537" 
d="M464 0h-82v64q-54 -76 -160 -76q-82 0 -131 42t-49 116q0 35 12.5 62.5t29 42.5t43 26.5t45 16t44.5 8.5q6 1 25.5 4t27 4t24.5 4t24 6t20 7.5t18.5 10l12.5 12.5t9.5 15.5t2.5 19.5q0 37 -33 54t-79 17q-97 0 -164 -54l-38 64q88 65 207 65q88 0 139.5 -40t51.5 -118
v-373zM380 204v77q-7 -5 -15 -9t-15 -7t-19 -6.5t-18 -5.5t-20.5 -4.5t-19 -3.5t-21 -4t-19.5 -3q-53 -10 -79 -27.5t-26 -59.5q0 -45 30 -67t77 -22q61 0 103 35.5t42 106.5zM172 646q0 40 28 68.5t68 28.5t68.5 -28.5t28.5 -68.5t-28 -68.5t-69 -28.5q-40 0 -68 28.5
t-28 68.5zM219 646q0 -21 14.5 -35.5t34.5 -14.5q21 0 35.5 14.5t14.5 35.5t-14.5 35.5t-35.5 14.5q-20 0 -34.5 -14.5t-14.5 -35.5z" />
    <glyph glyph-name="ae" unicode="&#xe6;" horiz-adv-x="898" 
d="M273 531q127 0 170 -82q67 82 180 82q107 0 171.5 -69t64.5 -177q0 -20 -2 -40h-393q0 -83 47 -131t122 -48q93 0 148 70l57 -52q-78 -96 -210 -96q-137 0 -203 105q-61 -105 -195 -105q-88 0 -138 42t-50 116q0 35 12 62.5t28.5 42.5t43.5 26.5t45.5 16t44.5 8.5
q6 1 25.5 4t27 4t24.5 4t24 6t20 7.5t18.5 10l12.5 12.5t9.5 15.5t2.5 19.5q0 37 -33 54t-79 17q-97 0 -164 -54l-38 64q88 65 207 65zM380 204v77q-7 -5 -15 -9t-15 -7t-19 -6.5t-18 -5.5t-20.5 -4.5t-19 -3.5t-21 -4t-19.5 -3q-53 -10 -79 -27.5t-26 -59.5q0 -45 30 -67
t77 -22q61 0 103 35.5t42 106.5zM465 311h308q-5 72 -47.5 109.5t-104.5 37.5q-66 0 -108 -40.5t-48 -106.5z" />
    <glyph glyph-name="ccedilla" unicode="&#xe7;" horiz-adv-x="531" 
d="M497 424l-63 -44q-48 74 -136 74q-75 0 -120 -54t-45 -140q0 -87 44.5 -140.5t120.5 -53.5q89 0 139 74l62 -47q-75 -105 -206 -105q-112 0 -180.5 77t-68.5 195q0 117 68.5 194t180.5 77q133 0 204 -107zM243 -188q-42 0 -75 11v51q22 -14 65 -14q29 0 43.5 11t14.5 28
q0 13 -12 21h-47v53q14 9 43 9q34 0 60 -21t26 -58q0 -41 -32.5 -66t-85.5 -25z" />
    <glyph glyph-name="egrave" unicode="&#xe8;" horiz-adv-x="580" 
d="M135 311h307q-4 72 -47 109.5t-105 37.5q-66 0 -108 -41t-47 -106zM44 258q0 119 66.5 196t180.5 77q108 0 173 -69t65 -177q0 -20 -2 -40h-394q1 -83 48 -131t122 -48q93 0 148 70l57 -52q-80 -96 -210 -96q-118 0 -186 75.5t-68 194.5zM221 771l115 -177h-71l-108 140z
" />
    <glyph glyph-name="eacute" unicode="&#xe9;" horiz-adv-x="580" 
d="M135 311h307q-4 72 -47 109.5t-105 37.5q-66 0 -108 -41t-47 -106zM44 258q0 119 66.5 196t180.5 77q108 0 173 -69t65 -177q0 -20 -2 -40h-394q1 -83 48 -131t122 -48q93 0 148 70l57 -52q-80 -96 -210 -96q-118 0 -186 75.5t-68 194.5zM226 594l115 177l64 -37
l-108 -140h-71z" />
    <glyph glyph-name="ecircumflex" unicode="&#xea;" horiz-adv-x="570" 
d="M135 311h307q-4 72 -47 109.5t-105 37.5q-66 0 -108 -41t-47 -106zM44 258q0 119 66.5 196t180.5 77q108 0 173 -69t65 -177q0 -20 -2 -40h-394q1 -83 48 -131t122 -48q93 0 148 70l57 -52q-80 -96 -210 -96q-118 0 -186 75.5t-68 194.5zM324 763l122 -169h-70l-90 104
l-88 -104h-71l122 169h75z" />
    <glyph glyph-name="edieresis" unicode="&#xeb;" horiz-adv-x="570" 
d="M135 311h307q-4 72 -47 109.5t-105 37.5q-66 0 -108 -41t-47 -106zM44 258q0 119 66.5 196t180.5 77q108 0 173 -69t65 -177q0 -20 -2 -40h-394q1 -83 48 -131t122 -48q93 0 148 70l57 -52q-80 -96 -210 -96q-118 0 -186 75.5t-68 194.5zM230 618h-78v79h78v-79zM420 618
h-77v79h77v-79z" />
    <glyph glyph-name="igrave" unicode="&#xec;" horiz-adv-x="238" 
d="M161 0h-84v519h84v-519zM43 771l115 -177h-71l-108 140z" />
    <glyph glyph-name="iacute" unicode="&#xed;" horiz-adv-x="238" 
d="M161 0h-84v519h84v-519zM72 594l115 177l64 -37l-108 -140h-71z" />
    <glyph glyph-name="icircumflex" unicode="&#xee;" horiz-adv-x="238" 
d="M161 0h-84v519h84v-519zM164 763l122 -169h-70l-90 104l-88 -104h-71l122 169h75z" />
    <glyph glyph-name="idieresis" unicode="&#xef;" horiz-adv-x="238" 
d="M161 0h-84v519h84v-519zM61 618h-78v79h78v-79zM251 618h-77v79h77v-79z" />
    <glyph glyph-name="eth" unicode="&#xf0;" horiz-adv-x="590" 
d="M237 508v55l112 61q-44 27 -101 27q-73 0 -129 -41l-36 70q68 47 166 47q107 0 179 -62l108 59v-55l-74 -40q78 -97 78 -289q0 -170 -67 -261.5t-186 -91.5q-109 0 -176 70.5t-67 176.5q0 105 65 169.5t162 64.5q60 0 109 -24.5t73 -65.5q0 140 -64 213zM440 238
q0 71 -41.5 112t-111.5 41q-75 0 -114 -45.5t-39 -116.5q0 -73 41 -117.5t109 -44.5q73 0 114.5 49.5t41.5 121.5z" />
    <glyph glyph-name="ntilde" unicode="&#xf1;" horiz-adv-x="583" 
d="M161 0h-84v519h84v-78q62 90 173 90q82 0 130 -51.5t48 -143.5v-336h-84v317q0 136 -113 136q-67 0 -110.5 -45.5t-43.5 -118.5v-289zM171 611l-51 23q15 38 45 62t73 24q33 0 74 -22q38 -21 59 -21q41 0 62 43l51 -24q-14 -37 -44 -61t-73 -24q-36 0 -76 22
q-37 21 -58 21q-41 0 -62 -43z" />
    <glyph glyph-name="ograve" unicode="&#xf2;" horiz-adv-x="584" 
d="M540 259q0 -118 -68 -194.5t-181 -76.5q-112 0 -179.5 76.5t-67.5 194.5q0 120 67.5 196t179.5 76q113 0 181 -76t68 -196zM450 259q0 86 -42.5 141t-116.5 55q-73 0 -115.5 -55t-42.5 -141q0 -84 42.5 -139.5t115.5 -55.5q74 0 116.5 55.5t42.5 139.5zM220 771l115 -177
h-71l-108 140z" />
    <glyph glyph-name="oacute" unicode="&#xf3;" horiz-adv-x="584" 
d="M540 259q0 -118 -68 -194.5t-181 -76.5q-112 0 -179.5 76.5t-67.5 194.5q0 120 67.5 196t179.5 76q113 0 181 -76t68 -196zM450 259q0 86 -42.5 141t-116.5 55q-73 0 -115.5 -55t-42.5 -141q0 -84 42.5 -139.5t115.5 -55.5q74 0 116.5 55.5t42.5 139.5zM224 594l115 177
l64 -37l-108 -140h-71z" />
    <glyph glyph-name="ocircumflex" unicode="&#xf4;" horiz-adv-x="584" 
d="M540 259q0 -118 -68 -194.5t-181 -76.5q-112 0 -179.5 76.5t-67.5 194.5q0 120 67.5 196t179.5 76q113 0 181 -76t68 -196zM450 259q0 86 -42.5 141t-116.5 55q-73 0 -115.5 -55t-42.5 -141q0 -84 42.5 -139.5t115.5 -55.5q74 0 116.5 55.5t42.5 139.5zM330 763l122 -169
h-70l-90 104l-88 -104h-71l122 169h75z" />
    <glyph glyph-name="otilde" unicode="&#xf5;" horiz-adv-x="584" 
d="M540 259q0 -118 -68 -194.5t-181 -76.5q-112 0 -179.5 76.5t-67.5 194.5q0 120 67.5 196t179.5 76q113 0 181 -76t68 -196zM450 259q0 86 -42.5 141t-116.5 55q-73 0 -115.5 -55t-42.5 -141q0 -84 42.5 -139.5t115.5 -55.5q74 0 116.5 55.5t42.5 139.5zM162 611l-51 23
q15 38 45 62t73 24q33 0 74 -22q38 -21 59 -21q40 0 62 43l51 -24q-14 -37 -44 -61t-73 -24q-36 0 -76 22q-37 21 -58 21q-40 0 -62 -43z" />
    <glyph glyph-name="odieresis" unicode="&#xf6;" horiz-adv-x="584" 
d="M540 259q0 -118 -68 -194.5t-181 -76.5q-112 0 -179.5 76.5t-67.5 194.5q0 120 67.5 196t179.5 76q113 0 181 -76t68 -196zM450 259q0 86 -42.5 141t-116.5 55q-73 0 -115.5 -55t-42.5 -141q0 -84 42.5 -139.5t115.5 -55.5q74 0 116.5 55.5t42.5 139.5zM236 618h-78v79
h78v-79zM426 618h-77v79h77v-79z" />
    <glyph glyph-name="divide" unicode="&#xf7;" 
d="M348 461q0 -25 -17.5 -43t-42.5 -18q-26 0 -43.5 18t-17.5 43t18 43t43 18t42.5 -18t17.5 -43zM348 57q0 -24 -17.5 -42t-42.5 -18t-43 18t-18 42q0 26 18 44.5t43 18.5t42.5 -18.5t17.5 -44.5zM547 222h-519v74h519v-74z" />
    <glyph glyph-name="oslash" unicode="&#xf8;" horiz-adv-x="584" 
d="M135 -10l-44 30l26 38q-73 75 -73 201q0 120 67.5 196t179.5 76q75 0 132 -37l25 36l44 -31l-26 -38q74 -77 74 -202q0 -118 -68 -194.5t-181 -76.5q-74 0 -132 36zM133 259q0 -80 35 -128l209 298q-37 27 -86 27q-73 0 -115.5 -55.5t-42.5 -141.5zM451 259q0 77 -36 130
l-210 -299q37 -27 86 -27q74 0 117 55.5t43 140.5z" />
    <glyph glyph-name="ugrave" unicode="&#xf9;" horiz-adv-x="582" 
d="M421 519h84v-519h-84v78q-60 -90 -173 -90q-82 0 -130 52t-48 143v336h85v-316q0 -136 112 -136q67 0 110.5 45t43.5 118v289zM215 771l115 -177h-71l-108 140z" />
    <glyph glyph-name="uacute" unicode="&#xfa;" horiz-adv-x="582" 
d="M421 519h84v-519h-84v78q-60 -90 -173 -90q-82 0 -130 52t-48 143v336h85v-316q0 -136 112 -136q67 0 110.5 45t43.5 118v289zM233 594l115 177l64 -37l-108 -140h-71z" />
    <glyph glyph-name="ucircumflex" unicode="&#xfb;" horiz-adv-x="582" 
d="M421 519h84v-519h-84v78q-60 -90 -173 -90q-82 0 -130 52t-48 143v336h85v-316q0 -136 112 -136q67 0 110.5 45t43.5 118v289zM325 763l122 -169h-70l-90 104l-88 -104h-71l122 169h75z" />
    <glyph glyph-name="udieresis" unicode="&#xfc;" horiz-adv-x="582" 
d="M421 519h84v-519h-84v78q-60 -90 -173 -90q-82 0 -130 52t-48 143v336h85v-316q0 -136 112 -136q67 0 110.5 45t43.5 118v289zM231 618h-78v79h78v-79zM421 618h-77v79h77v-79z" />
    <glyph glyph-name="yacute" unicode="&#xfd;" horiz-adv-x="518" 
d="M68 -173l19 70q16 -8 33 -8q30 0 50.5 24t45.5 89l-204 517h95l153 -412l152 412h92l-210 -532q-38 -96 -72.5 -133.5t-91.5 -37.5q-40 0 -62 11zM212 594l115 177l64 -37l-108 -140h-71z" />
    <glyph glyph-name="thorn" unicode="&#xfe;" horiz-adv-x="617" 
d="M77 714h84v-276q60 93 177 93q106 0 170.5 -76.5t64.5 -194.5t-64.5 -195t-170.5 -77q-116 0 -177 93v-255h-84v888zM161 259q0 -84 43.5 -138.5t120.5 -54.5q76 0 117.5 54.5t41.5 138.5q0 85 -41 140t-118 55t-120.5 -55t-43.5 -140z" />
    <glyph glyph-name="ydieresis" unicode="&#xff;" horiz-adv-x="518" 
d="M68 -173l19 70q16 -8 33 -8q30 0 50.5 24t45.5 89l-204 517h95l153 -412l152 412h92l-210 -532q-38 -96 -72.5 -133.5t-91.5 -37.5q-40 0 -62 11zM203 618h-78v79h78v-79zM393 618h-77v79h77v-79z" />
    <glyph glyph-name="Amacron" unicode="&#x100;" horiz-adv-x="678" 
d="M668 0h-103l-75 205h-307l-76 -205h-96l276 714h105zM460 286l-121 341l-127 -341h248zM474 795h-269v61h269v-61z" />
    <glyph glyph-name="amacron" unicode="&#x101;" horiz-adv-x="537" 
d="M464 0h-82v64q-54 -76 -160 -76q-82 0 -131 42t-49 116q0 35 12.5 62.5t29 42.5t43 26.5t45 16t44.5 8.5q6 1 25.5 4t27 4t24.5 4t24 6t20 7.5t18.5 10l12.5 12.5t9.5 15.5t2.5 19.5q0 37 -33 54t-79 17q-97 0 -164 -54l-38 64q88 65 207 65q88 0 139.5 -40t51.5 -118
v-373zM380 204v77q-7 -5 -15 -9t-15 -7t-19 -6.5t-18 -5.5t-20.5 -4.5t-19 -3.5t-21 -4t-19.5 -3q-53 -10 -79 -27.5t-26 -59.5q0 -45 30 -67t77 -22q61 0 103 35.5t42 106.5zM398 627h-269v61h269v-61z" />
    <glyph glyph-name="Abreve" unicode="&#x102;" horiz-adv-x="678" 
d="M668 0h-103l-75 205h-307l-76 -205h-96l276 714h105zM460 286l-121 341l-127 -341h248zM339 821q81 0 114 87l61 -26q-17 -53 -61 -89.5t-114 -36.5t-114 36.5t-60 89.5l61 26q32 -87 113 -87z" />
    <glyph glyph-name="abreve" unicode="&#x103;" horiz-adv-x="537" 
d="M464 0h-82v64q-54 -76 -160 -76q-82 0 -131 42t-49 116q0 35 12.5 62.5t29 42.5t43 26.5t45 16t44.5 8.5q6 1 25.5 4t27 4t24.5 4t24 6t20 7.5t18.5 10l12.5 12.5t9.5 15.5t2.5 19.5q0 37 -33 54t-79 17q-97 0 -164 -54l-38 64q88 65 207 65q88 0 139.5 -40t51.5 -118
v-373zM380 204v77q-7 -5 -15 -9t-15 -7t-19 -6.5t-18 -5.5t-20.5 -4.5t-19 -3.5t-21 -4t-19.5 -3q-53 -10 -79 -27.5t-26 -59.5q0 -45 30 -67t77 -22q61 0 103 35.5t42 106.5zM265 653q81 0 114 87l61 -26q-17 -53 -61 -89.5t-114 -36.5t-114 36.5t-60 89.5l61 26
q32 -87 113 -87z" />
    <glyph glyph-name="Aogonek" unicode="&#x104;" horiz-adv-x="678" 
d="M666 -97v-63q-26 -24 -74 -24q-44 0 -73 24t-29 68q0 62 67 113l-67 184h-307l-76 -205h-96l276 714h105l276 -714h-67q-46 -39 -46 -76q0 -48 51 -48q33 0 60 27zM460 286l-121 341l-127 -341h248z" />
    <glyph glyph-name="aogonek" unicode="&#x105;" horiz-adv-x="537" 
d="M464 373v-373q-83 -38 -83 -85q0 -20 12 -29.5t30 -9.5q28 0 51 27v-63q-22 -24 -66 -24q-39 0 -65 21t-26 59q0 57 65 104v64q-54 -76 -160 -76q-82 0 -131 42t-49 116q0 35 12.5 62.5t29 42.5t43 26.5t45 16t44.5 8.5q6 1 25.5 4t27 4t24.5 4t24 6t20 7.5t18.5 10
l12.5 12.5t9.5 15.5t2.5 19.5q0 37 -33 54t-79 17q-97 0 -164 -54l-38 64q88 65 208 65q87 0 138.5 -40t51.5 -118zM380 204v77q-7 -5 -15 -9t-15 -7t-19 -6.5t-18 -5.5t-20.5 -4.5t-19 -3.5t-21 -4t-19.5 -3q-53 -10 -79 -27.5t-26 -59.5q0 -45 30 -67t77 -22
q61 0 103 35.5t42 106.5z" />
    <glyph glyph-name="Cacute" unicode="&#x106;" horiz-adv-x="693" 
d="M656 587l-71 -50q-70 106 -200 106q-112 0 -177.5 -78.5t-65.5 -207.5q0 -130 67 -208t180 -78q123 0 199 107l72 -50q-100 -141 -271 -141q-154 0 -248 103.5t-94 266.5q0 162 93 266t245 104q175 0 271 -140zM325 762l115 177l64 -37l-108 -140h-71z" />
    <glyph glyph-name="cacute" unicode="&#x107;" horiz-adv-x="531" 
d="M497 424l-63 -44q-48 74 -136 74q-75 0 -120 -54t-45 -140q0 -87 44.5 -140.5t120.5 -53.5q89 0 139 74l62 -47q-75 -105 -206 -105q-112 0 -180.5 77t-68.5 195q0 117 68.5 194t180.5 77q133 0 204 -107zM228 594l115 177l64 -37l-108 -140h-71z" />
    <glyph glyph-name="Ccircumflex" unicode="&#x108;" horiz-adv-x="693" 
d="M656 587l-71 -50q-70 106 -200 106q-112 0 -177.5 -78.5t-65.5 -207.5q0 -130 67 -208t180 -78q123 0 199 107l72 -50q-100 -141 -271 -141q-154 0 -248 103.5t-94 266.5q0 162 93 266t245 104q175 0 271 -140zM419 940l122 -169h-70l-90 104l-88 -104h-71l122 169h75z
" />
    <glyph glyph-name="ccircumflex" unicode="&#x109;" horiz-adv-x="531" 
d="M497 424l-63 -44q-48 74 -136 74q-75 0 -120 -54t-45 -140q0 -87 44.5 -140.5t120.5 -53.5q89 0 139 74l62 -47q-75 -105 -206 -105q-112 0 -180.5 77t-68.5 195q0 117 68.5 194t180.5 77q133 0 204 -107zM322 763l122 -169h-70l-90 104l-88 -104h-71l122 169h75z" />
    <glyph glyph-name="Cdotaccent" unicode="&#x10a;" horiz-adv-x="693" 
d="M656 587l-71 -50q-70 106 -200 106q-112 0 -177.5 -78.5t-65.5 -207.5q0 -130 67 -208t180 -78q123 0 199 107l72 -50q-100 -141 -271 -141q-154 0 -248 103.5t-94 266.5q0 162 93 266t245 104q175 0 271 -140zM415 786h-77v79h77v-79z" />
    <glyph glyph-name="cdotaccent" unicode="&#x10b;" horiz-adv-x="531" 
d="M497 424l-63 -44q-48 74 -136 74q-75 0 -120 -54t-45 -140q0 -87 44.5 -140.5t120.5 -53.5q89 0 139 74l62 -47q-75 -105 -206 -105q-112 0 -180.5 77t-68.5 195q0 117 68.5 194t180.5 77q133 0 204 -107zM319 618h-77v79h77v-79z" />
    <glyph glyph-name="Ccaron" unicode="&#x10c;" horiz-adv-x="693" 
d="M656 587l-71 -50q-70 106 -200 106q-112 0 -177.5 -78.5t-65.5 -207.5q0 -130 67 -208t180 -78q123 0 199 107l72 -50q-100 -141 -271 -141q-154 0 -248 103.5t-94 266.5q0 162 93 266t245 104q175 0 271 -140zM541 931l-122 -169h-75l-122 169h71l88 -105l90 105h70z
" />
    <glyph glyph-name="ccaron" unicode="&#x10d;" horiz-adv-x="532" 
d="M497 424l-63 -44q-48 74 -136 74q-75 0 -120 -54t-45 -140q0 -87 44.5 -140.5t120.5 -53.5q89 0 139 74l62 -47q-75 -105 -206 -105q-112 0 -180.5 77t-68.5 195q0 117 68.5 194t180.5 77q133 0 204 -107zM445 763l-122 -169h-75l-122 169h71l88 -105l90 105h70z" />
    <glyph glyph-name="Dcaron" unicode="&#x10e;" horiz-adv-x="742" 
d="M178 84h179q116 0 178.5 73.5t62.5 199.5t-62.5 199.5t-178.5 73.5h-179v-546zM357 0h-269v714h269q157 0 246.5 -99.5t89.5 -257.5q0 -157 -89.5 -257t-246.5 -100zM521 931l-122 -169h-75l-122 169h71l88 -105l90 105h70z" />
    <glyph glyph-name="dcaron" unicode="&#x10f;" horiz-adv-x="682" 
d="M540 0h-84v81q-62 -93 -178 -93q-106 0 -170 76.5t-64 194.5t64.5 195t169.5 77q116 0 178 -93v276h84v-714zM456 260q0 84 -43.5 139t-121.5 55q-76 0 -117 -54.5t-41 -139.5t41 -139.5t117 -54.5q78 0 121.5 55t43.5 139zM714 714l-47 -267h-45v267h92z" />
    <glyph glyph-name="Dcroat" unicode="&#x110;" horiz-adv-x="760" 
d="M712 357q0 -160 -87.5 -258.5t-244.5 -98.5h-275v329h-61v74h61v311h275q158 0 245 -98t87 -259zM615 357q0 129 -62.5 201t-173.5 72h-183v-227h197v-74h-197v-245h183q111 0 173.5 72t62.5 201z" />
    <glyph glyph-name="dcroat" unicode="&#x111;" horiz-adv-x="617" 
d="M540 0h-84v81q-62 -93 -178 -93q-106 0 -170 76.5t-64 194.5t64.5 195t169.5 77q116 0 178 -93v178h-122v50h122v48h84v-48h38v-50h-38v-616zM456 260q0 84 -43.5 139t-121.5 55q-76 0 -117 -54.5t-41 -139.5t41 -139.5t117 -54.5q78 0 121.5 55t43.5 139z" />
    <glyph glyph-name="Emacron" unicode="&#x112;" horiz-adv-x="633" 
d="M580 0h-492v714h482v-84h-392v-214h349v-80h-349v-252h402v-84zM460 795h-269v61h269v-61z" />
    <glyph glyph-name="emacron" unicode="&#x113;" horiz-adv-x="570" 
d="M135 311h307q-4 72 -47 109.5t-105 37.5q-66 0 -108 -41t-47 -106zM44 258q0 119 66.5 196t180.5 77q108 0 173 -69t65 -177q0 -20 -2 -40h-394q1 -83 48 -131t122 -48q93 0 148 70l57 -52q-80 -96 -210 -96q-118 0 -186 75.5t-68 194.5zM420 627h-269v61h269v-61z" />
    <glyph glyph-name="Ebreve" unicode="&#x114;" horiz-adv-x="633" 
d="M580 0h-492v714h482v-84h-392v-214h349v-80h-349v-252h402v-84zM325 821q81 0 114 87l61 -26q-17 -53 -61 -89.5t-114 -36.5t-114 36.5t-60 89.5l61 26q32 -87 113 -87z" />
    <glyph glyph-name="ebreve" unicode="&#x115;" horiz-adv-x="570" 
d="M135 311h307q-4 72 -47 109.5t-105 37.5q-66 0 -108 -41t-47 -106zM44 258q0 119 66.5 196t180.5 77q108 0 173 -69t65 -177q0 -20 -2 -40h-394q1 -83 48 -131t122 -48q93 0 148 70l57 -52q-80 -96 -210 -96q-118 0 -186 75.5t-68 194.5zM286 653q81 0 114 87l61 -26
q-17 -53 -61 -89.5t-114 -36.5t-114 36.5t-60 89.5l61 26q32 -87 113 -87z" />
    <glyph glyph-name="Edotaccent" unicode="&#x116;" horiz-adv-x="633" 
d="M580 0h-492v714h482v-84h-392v-214h349v-80h-349v-252h402v-84zM360 786h-77v79h77v-79z" />
    <glyph glyph-name="edotaccent" unicode="&#x117;" horiz-adv-x="570" 
d="M135 311h307q-4 72 -47 109.5t-105 37.5q-66 0 -108 -41t-47 -106zM44 258q0 119 66.5 196t180.5 77q108 0 173 -69t65 -177q0 -20 -2 -40h-394q1 -83 48 -131t122 -48q93 0 148 70l57 -52q-80 -96 -210 -96q-118 0 -186 75.5t-68 194.5zM323 618h-77v79h77v-79z" />
    <glyph glyph-name="Eogonek" unicode="&#x118;" horiz-adv-x="634" 
d="M463 0h-375v714h486v-84h-395v-213h348v-80h-348v-253h403v-84h-44q-67 -44 -67 -81q0 -21 15.5 -32t36.5 -11q31 0 60 27v-63q-26 -24 -74 -24q-43 0 -72.5 23t-29.5 64q0 52 56 97z" />
    <glyph glyph-name="eogonek" unicode="&#x119;" horiz-adv-x="570" 
d="M472 -97v-63q-26 -24 -74 -24q-44 0 -73 24t-29 68q0 45 32 82q-22 -2 -33 -2q-115 0 -183 76t-68 194q0 119 66.5 196t180.5 77q108 0 173 -69t65 -177q0 -20 -2 -40h-394q1 -83 48 -131t122 -48q93 0 148 70l57 -52q-24 -26 -62 -55q-33 -25 -46 -36t-26 -30t-13 -39
q0 -24 14.5 -36t36.5 -12q33 0 60 27zM135 311h307q-4 72 -47 109.5t-105 37.5q-66 0 -108 -41t-47 -106z" />
    <glyph glyph-name="Ecaron" unicode="&#x11a;" horiz-adv-x="633" 
d="M580 0h-492v714h482v-84h-392v-214h349v-80h-349v-252h402v-84zM484 931l-122 -169h-75l-122 169h71l88 -105l90 105h70z" />
    <glyph glyph-name="ecaron" unicode="&#x11b;" horiz-adv-x="570" 
d="M135 311h307q-4 72 -47 109.5t-105 37.5q-66 0 -108 -41t-47 -106zM44 258q0 119 66.5 196t180.5 77q108 0 173 -69t65 -177q0 -20 -2 -40h-394q1 -83 48 -131t122 -48q93 0 148 70l57 -52q-80 -96 -210 -96q-118 0 -186 75.5t-68 194.5zM446 763l-122 -169h-75l-122 169
h71l88 -105l90 105h70z" />
    <glyph glyph-name="Gcircumflex" unicode="&#x11c;" horiz-adv-x="748" 
d="M389 643q-114 0 -180.5 -78.5t-66.5 -206.5q0 -130 66 -208.5t178 -78.5q97 0 160 60t68 164h-190v81h280q5 -22 5 -50q0 -144 -87 -241.5t-236 -97.5q-152 0 -245.5 105t-93.5 266q0 162 94.5 265.5t248.5 103.5q175 0 271 -139l-74 -49q-66 104 -198 104zM419 938
l122 -169h-70l-90 104l-88 -104h-71l122 169h75z" />
    <glyph glyph-name="gcircumflex" unicode="&#x11d;" horiz-adv-x="611" 
d="M457 58v55q-25 -44 -74.5 -68.5t-106.5 -24.5q-101 0 -165.5 72t-64.5 182q0 112 66 184.5t167 72.5q56 0 104 -24t74 -69v81h85v-446q0 -109 -53 -173q-71 -84 -207 -84q-126 0 -209 63l46 66q63 -52 162 -52q84 0 130 43t46 122zM457 277q0 77 -42.5 127.5t-120.5 50.5
q-77 0 -118 -50.5t-41 -127.5q0 -78 41 -129.5t118 -51.5t120 51.5t43 129.5zM327 763l122 -169h-70l-90 104l-88 -104h-71l122 169h75z" />
    <glyph glyph-name="Gbreve" unicode="&#x11e;" horiz-adv-x="748" 
d="M389 643q-114 0 -180.5 -78.5t-66.5 -206.5q0 -130 66 -208.5t178 -78.5q97 0 160 60t68 164h-190v81h280q5 -22 5 -50q0 -144 -87 -241.5t-236 -97.5q-152 0 -245.5 105t-93.5 266q0 162 94.5 265.5t248.5 103.5q175 0 271 -139l-74 -49q-66 104 -198 104zM380 821
q81 0 114 87l61 -26q-17 -53 -61 -89.5t-114 -36.5t-114 36.5t-60 89.5l61 26q32 -87 113 -87z" />
    <glyph glyph-name="gbreve" unicode="&#x11f;" horiz-adv-x="611" 
d="M457 58v55q-25 -44 -74.5 -68.5t-106.5 -24.5q-101 0 -165.5 72t-64.5 182q0 112 66 184.5t167 72.5q56 0 104 -24t74 -69v81h85v-446q0 -109 -53 -173q-71 -84 -207 -84q-126 0 -209 63l46 66q63 -52 162 -52q84 0 130 43t46 122zM457 277q0 77 -42.5 127.5t-120.5 50.5
q-77 0 -118 -50.5t-41 -127.5q0 -78 41 -129.5t118 -51.5t120 51.5t43 129.5zM286 653q81 0 114 87l61 -26q-17 -53 -61 -89.5t-114 -36.5t-114 36.5t-60 89.5l61 26q32 -87 113 -87z" />
    <glyph glyph-name="Gdotaccent" unicode="&#x120;" horiz-adv-x="748" 
d="M389 643q-114 0 -180.5 -78.5t-66.5 -206.5q0 -130 66 -208.5t178 -78.5q97 0 160 60t68 164h-190v81h280q5 -22 5 -50q0 -144 -87 -241.5t-236 -97.5q-152 0 -245.5 105t-93.5 266q0 162 94.5 265.5t248.5 103.5q175 0 271 -139l-74 -49q-66 104 -198 104zM419 786h-77
v79h77v-79z" />
    <glyph glyph-name="gdotaccent" unicode="&#x121;" horiz-adv-x="611" 
d="M457 58v55q-25 -44 -74.5 -68.5t-106.5 -24.5q-101 0 -165.5 72t-64.5 182q0 112 66 184.5t167 72.5q56 0 104 -24t74 -69v81h85v-446q0 -109 -53 -173q-71 -84 -207 -84q-126 0 -209 63l46 66q63 -52 162 -52q84 0 130 43t46 122zM457 277q0 77 -42.5 127.5t-120.5 50.5
q-77 0 -118 -50.5t-41 -127.5q0 -78 41 -129.5t118 -51.5t120 51.5t43 129.5zM327 618h-77v79h77v-79z" />
    <glyph glyph-name="Gcommaaccent" unicode="&#x122;" horiz-adv-x="748" 
d="M389 643q-114 0 -180.5 -78.5t-66.5 -206.5q0 -130 66 -208.5t178 -78.5q97 0 160 60t68 164h-190v81h280q5 -22 5 -50q0 -144 -87 -241.5t-236 -97.5q-152 0 -245.5 105t-93.5 266q0 162 94.5 265.5t248.5 103.5q175 0 271 -139l-74 -49q-66 104 -198 104zM281 -174
l65 136h92l-108 -162z" />
    <glyph glyph-name="gcommaaccent" unicode="&#x123;" horiz-adv-x="611" 
d="M381 730l-66 -136h-91l108 162zM457 58v55q-25 -44 -74.5 -68.5t-106.5 -24.5q-101 0 -165.5 72t-64.5 182q0 112 66 184.5t167 72.5q56 0 104 -24t74 -69v81h85v-446q0 -109 -53 -173q-71 -84 -207 -84q-126 0 -209 63l46 66q63 -52 162 -52q84 0 130 43t46 122z
M457 277q0 77 -42.5 127.5t-120.5 50.5q-77 0 -118 -50.5t-41 -127.5q0 -78 41 -129.5t118 -51.5t120 51.5t43 129.5z" />
    <glyph glyph-name="Hcircumflex" unicode="&#x124;" horiz-adv-x="739" 
d="M659 0h-90v336h-391v-336h-90v714h90v-295h391v295h90v-714zM411 938l122 -169h-70l-90 104l-88 -104h-71l122 169h75z" />
    <glyph glyph-name="hcircumflex" unicode="&#x125;" horiz-adv-x="583" 
d="M161 0h-84v714h84v-273q62 90 173 90q82 0 130 -51.5t48 -143.5v-336h-84v317q0 136 -113 136q-67 0 -110.5 -45.5t-43.5 -118.5v-289zM158 931l122 -169h-70l-90 104l-88 -104h-71l122 169h75z" />
    <glyph glyph-name="Hbar" unicode="&#x126;" horiz-adv-x="747" 
d="M659 0h-90v336h-391v-336h-91v569h-38v55h38v90h91v-90h391v90h90v-90h38v-55h-38v-569zM178 420h391v149h-391v-149z" />
    <glyph glyph-name="hbar" unicode="&#x127;" horiz-adv-x="583" 
d="M161 0h-84v616h-38v50h38v48h84v-48h122v-50h-122v-175q62 90 173 90q82 0 130 -51.5t48 -143.5v-336h-84v317q0 136 -113 136q-67 0 -110.5 -45.5t-43.5 -118.5v-289z" />
    <glyph glyph-name="Itilde" unicode="&#x128;" horiz-adv-x="266" 
d="M178 0h-90v714h90v-714zM2 779l-51 23q15 38 45 62t73 24q33 0 74 -22q38 -21 59 -21q40 0 62 43l51 -24q-14 -37 -44 -61t-73 -24q-36 0 -76 22q-37 21 -58 21q-40 0 -62 -43z" />
    <glyph glyph-name="itilde" unicode="&#x129;" horiz-adv-x="238" 
d="M161 0h-84v519h84v-519zM-6 611l-51 23q15 38 45 62t73 24q33 0 74 -22q38 -21 59 -21q40 0 62 43l51 -24q-14 -37 -44 -61t-73 -24q-36 0 -76 22q-37 21 -58 21q-40 0 -62 -43z" />
    <glyph glyph-name="Imacron" unicode="&#x12a;" horiz-adv-x="266" 
d="M178 0h-90v714h90v-714zM267 795h-269v61h269v-61z" />
    <glyph glyph-name="imacron" unicode="&#x12b;" horiz-adv-x="238" 
d="M161 0h-84v519h84v-519zM249 627h-269v61h269v-61z" />
    <glyph glyph-name="Ibreve" unicode="&#x12c;" horiz-adv-x="266" 
d="M178 0h-90v714h90v-714zM133 821q81 0 114 87l61 -26q-17 -53 -61 -89.5t-114 -36.5t-114 36.5t-60 89.5l61 26q32 -87 113 -87z" />
    <glyph glyph-name="ibreve" unicode="&#x12d;" horiz-adv-x="238" 
d="M161 0h-84v519h84v-519zM125 653q81 0 114 87l61 -26q-17 -53 -61 -89.5t-114 -36.5t-114 36.5t-60 89.5l61 26q32 -87 113 -87z" />
    <glyph glyph-name="Iogonek" unicode="&#x12e;" horiz-adv-x="266" 
d="M178 0q-84 -40 -84 -83q0 -20 14.5 -30.5t35.5 -10.5q31 0 58 27v-63q-24 -24 -72 -24q-43 0 -71.5 22t-28.5 62q0 55 58 100v714h90v-714z" />
    <glyph glyph-name="iogonek" unicode="&#x12f;" horiz-adv-x="238" 
d="M77 0v519h84v-519q-31 -6 -59 -27.5t-28 -53.5q0 -19 12.5 -30.5t34.5 -11.5q35 0 61 34v-66q-27 -29 -75 -29q-40 0 -67.5 23t-27.5 59q0 62 65 102zM161 624h-84v90h84v-90z" />
    <glyph glyph-name="Idotaccent" unicode="&#x130;" horiz-adv-x="266" 
d="M178 0h-90v714h90v-714zM171 780h-77v79h77v-79z" />
    <glyph glyph-name="dotlessi" unicode="&#x131;" horiz-adv-x="238" 
d="M161 0h-84v519h84v-519z" />
    <glyph glyph-name="Jcircumflex" unicode="&#x134;" horiz-adv-x="495" 
d="M324 222v492h90v-473q0 -114 -38 -168q-54 -86 -176 -86q-62 0 -111.5 26t-77.5 75l71 48q42 -67 119 -67q123 0 123 153zM405 931l122 -169h-70l-90 104l-88 -104h-71l122 169h75z" />
    <glyph glyph-name="jcircumflex" unicode="&#x135;" horiz-adv-x="238" 
d="M161 519v-564q0 -137 -130 -137q-41 0 -66 11l15 69q16 -9 40 -9q27 0 42 15.5t15 58.5v556h84zM156 763l122 -169h-70l-90 104l-88 -104h-71l122 169h75z" />
    <glyph glyph-name="Kcommaaccent" unicode="&#x136;" horiz-adv-x="663" 
d="M663 0h-114l-243 351l-128 -148v-203h-90v714h90v-391l344 391h113l-266 -296zM259 -174l65 136h92l-108 -162z" />
    <glyph glyph-name="kcommaaccent" unicode="&#x137;" horiz-adv-x="552" 
d="M161 248l254 271h106l-204 -213l230 -306h-106l-183 251l-97 -102v-149h-84v714h84v-466zM201 -174l65 136h92l-108 -162z" />
    <glyph glyph-name="kgreenlandic" unicode="&#x138;" horiz-adv-x="553" 
d="M162 248l253 271h106l-204 -213l231 -306h-106l-184 251l-96 -102v-149h-85v519h85v-271z" />
    <glyph glyph-name="Lacute" unicode="&#x139;" horiz-adv-x="567" 
d="M553 0h-465v714h90v-630h375v-84zM93 762l115 177l64 -37l-108 -140h-71z" />
    <glyph glyph-name="lacute" unicode="&#x13a;" horiz-adv-x="243" 
d="M163 0h-84v714h84v-714zM82 754l115 177l64 -37l-108 -140h-71z" />
    <glyph glyph-name="Lcommaaccent" unicode="&#x13b;" horiz-adv-x="567" 
d="M553 0h-465v714h90v-630h375v-84zM230 -174l65 136h92l-108 -162z" />
    <glyph glyph-name="lcommaaccent" unicode="&#x13c;" horiz-adv-x="243" 
d="M163 0h-84v714h84v-714zM15 -174l65 136h92l-108 -162z" />
    <glyph glyph-name="Lcaron" unicode="&#x13d;" horiz-adv-x="567" 
d="M553 0h-465v714h90v-630h375v-84zM378 714l-47 -267h-45v267h92z" />
    <glyph glyph-name="lcaron" unicode="&#x13e;" horiz-adv-x="309" 
d="M341 714l-47 -267h-45v267h92zM163 0h-84v714h84v-714z" />
    <glyph glyph-name="Ldot" unicode="&#x13f;" horiz-adv-x="567" 
d="M553 0h-465v714h90v-630h375v-84zM447 333q0 -25 -18.5 -43.5t-43.5 -18.5q-26 0 -44.5 18.5t-18.5 43.5t19 44t44 19t43.5 -19t18.5 -44z" />
    <glyph glyph-name="ldot" unicode="&#x140;" horiz-adv-x="409" 
d="M163 0h-84v714h84v-714zM384 259q0 -25 -18.5 -43.5t-43.5 -18.5q-26 0 -44.5 18.5t-18.5 43.5t18.5 44t44.5 19q25 0 43.5 -19t18.5 -44z" />
    <glyph glyph-name="Lslash" unicode="&#x141;" horiz-adv-x="581" 
d="M568 0h-465v295l-64 -29v70l64 28v350h90v-311l184 81v-70l-184 -81v-249h375v-84z" />
    <glyph glyph-name="lslash" unicode="&#x142;" horiz-adv-x="309" 
d="M295 453l-98 -45v-408h-84v372l-91 -43v73l91 43v269h84v-233l98 45v-73z" />
    <glyph glyph-name="Nacute" unicode="&#x143;" horiz-adv-x="742" 
d="M654 0h-99l-378 590v-590h-89v714h111l367 -570v570h88v-714zM321 762l115 177l64 -37l-108 -140h-71z" />
    <glyph glyph-name="nacute" unicode="&#x144;" horiz-adv-x="583" 
d="M161 0h-84v519h84v-78q62 90 173 90q82 0 130 -51.5t48 -143.5v-336h-84v317q0 136 -113 136q-67 0 -110.5 -45.5t-43.5 -118.5v-289zM253 594l115 177l64 -37l-108 -140h-71z" />
    <glyph glyph-name="Ncommaaccent" unicode="&#x145;" horiz-adv-x="742" 
d="M654 0h-99l-378 590v-590h-89v714h111l367 -570v570h88v-714zM280 -174l65 136h92l-108 -162z" />
    <glyph glyph-name="ncommaaccent" unicode="&#x146;" horiz-adv-x="583" 
d="M161 0h-84v519h84v-78q62 90 173 90q82 0 130 -51.5t48 -143.5v-336h-84v317q0 136 -113 136q-67 0 -110.5 -45.5t-43.5 -118.5v-289zM202 -174l65 136h92l-108 -162z" />
    <glyph glyph-name="Ncaron" unicode="&#x147;" horiz-adv-x="742" 
d="M654 0h-99l-378 590v-590h-89v714h111l367 -570v570h88v-714zM530 931l-122 -169h-75l-122 169h71l88 -105l90 105h70z" />
    <glyph glyph-name="ncaron" unicode="&#x148;" horiz-adv-x="583" 
d="M161 0h-84v519h84v-78q62 90 173 90q82 0 130 -51.5t48 -143.5v-336h-84v317q0 136 -113 136q-67 0 -110.5 -45.5t-43.5 -118.5v-289zM456 763l-122 -169h-75l-122 169h71l88 -105l90 105h70z" />
    <glyph glyph-name="Eng" unicode="&#x14a;" horiz-adv-x="742" 
d="M654 714v-644q0 -231 -194 -231q-68 0 -114 29l33 78q29 -24 79 -24q39 0 65 19.5t36 54.5l-382 594v-590h-89v714h111l367 -570v570h88z" />
    <glyph glyph-name="eng" unicode="&#x14b;" horiz-adv-x="583" 
d="M161 0h-84v519h84v-78q62 90 173 90q82 0 130 -51.5t48 -143.5v-381q0 -137 -130 -137q-41 0 -66 11l15 69q16 -9 40 -9q27 0 42 15.5t15 58.5v354q0 136 -113 136q-67 0 -110.5 -45.5t-43.5 -118.5v-289z" />
    <glyph glyph-name="Omacron" unicode="&#x14c;" horiz-adv-x="772" 
d="M726 357q0 -160 -93.5 -265t-246.5 -105t-246.5 105t-93.5 265q0 161 93.5 265.5t246.5 104.5t246.5 -104.5t93.5 -265.5zM631 357q0 127 -66 205.5t-179 78.5t-178.5 -78t-65.5 -206t65.5 -206t178.5 -78t179 78.5t66 205.5zM519 795h-269v61h269v-61z" />
    <glyph glyph-name="omacron" unicode="&#x14d;" horiz-adv-x="584" 
d="M540 259q0 -118 -68 -194.5t-181 -76.5q-112 0 -179.5 76.5t-67.5 194.5q0 120 67.5 196t179.5 76q113 0 181 -76t68 -196zM450 259q0 86 -42.5 141t-116.5 55q-73 0 -115.5 -55t-42.5 -141q0 -84 42.5 -139.5t115.5 -55.5q74 0 116.5 55.5t42.5 139.5zM426 627h-269v61
h269v-61z" />
    <glyph glyph-name="Obreve" unicode="&#x14e;" horiz-adv-x="772" 
d="M726 357q0 -160 -93.5 -265t-246.5 -105t-246.5 105t-93.5 265q0 161 93.5 265.5t246.5 104.5t246.5 -104.5t93.5 -265.5zM631 357q0 127 -66 205.5t-179 78.5t-178.5 -78t-65.5 -206t65.5 -206t178.5 -78t179 78.5t66 205.5zM386 821q81 0 114 87l61 -26
q-17 -53 -61 -89.5t-114 -36.5t-114 36.5t-60 89.5l61 26q32 -87 113 -87z" />
    <glyph glyph-name="obreve" unicode="&#x14f;" horiz-adv-x="584" 
d="M540 259q0 -118 -68 -194.5t-181 -76.5q-112 0 -179.5 76.5t-67.5 194.5q0 120 67.5 196t179.5 76q113 0 181 -76t68 -196zM450 259q0 86 -42.5 141t-116.5 55q-73 0 -115.5 -55t-42.5 -141q0 -84 42.5 -139.5t115.5 -55.5q74 0 116.5 55.5t42.5 139.5zM292 653
q81 0 114 87l61 -26q-17 -53 -61 -89.5t-114 -36.5t-114 36.5t-60 89.5l61 26q32 -87 113 -87z" />
    <glyph glyph-name="Ohungarumlaut" unicode="&#x150;" horiz-adv-x="772" 
d="M726 357q0 -160 -93.5 -265t-246.5 -105t-246.5 105t-93.5 265q0 161 93.5 265.5t246.5 104.5t246.5 -104.5t93.5 -265.5zM631 357q0 127 -66 205.5t-179 78.5t-178.5 -78t-65.5 -206t65.5 -206t178.5 -78t179 78.5t66 205.5zM256 762l114 177l64 -37l-108 -140h-70z
M413 762l115 177l64 -37l-109 -140h-70z" />
    <glyph glyph-name="ohungarumlaut" unicode="&#x151;" horiz-adv-x="584" 
d="M540 259q0 -118 -68 -194.5t-181 -76.5q-112 0 -179.5 76.5t-67.5 194.5q0 120 67.5 196t179.5 76q113 0 181 -76t68 -196zM450 259q0 86 -42.5 141t-116.5 55q-73 0 -115.5 -55t-42.5 -141q0 -84 42.5 -139.5t115.5 -55.5q74 0 116.5 55.5t42.5 139.5zM168 594l114 177
l64 -37l-108 -140h-70zM325 594l115 177l64 -37l-109 -140h-70z" />
    <glyph glyph-name="OE" unicode="&#x152;" horiz-adv-x="1073" 
d="M1023 0h-541q-49 -13 -97 -13q-153 0 -246.5 105t-93.5 265q0 161 93.5 265.5t246.5 104.5q48 0 97 -13h531v-84h-394q86 -83 101 -214h250v-80h-247q-6 -158 -105 -252h405v-84zM629 357q0 128 -65.5 206t-178.5 78t-178.5 -78t-65.5 -206t65.5 -206t178.5 -78t178.5 78
t65.5 206z" />
    <glyph glyph-name="oe" unicode="&#x153;" horiz-adv-x="977" 
d="M291 531q68 0 120 -32t82 -89q64 121 205 121q108 0 173 -69t65 -177q0 -10 -3 -40h-393q1 -83 47.5 -131t121.5 -48q94 0 148 70l57 -52q-78 -96 -210 -96q-147 0 -211 119q-30 -55 -82.5 -87t-119.5 -32q-112 0 -179.5 76.5t-67.5 194.5q0 120 67.5 196t179.5 76z
M450 259q0 86 -42.5 141t-116.5 55q-73 0 -115.5 -55t-42.5 -141q0 -84 42.5 -139.5t115.5 -55.5q74 0 116.5 55.5t42.5 139.5zM542 311h307q-5 72 -47.5 109.5t-104.5 37.5q-66 0 -108 -40.5t-47 -106.5z" />
    <glyph glyph-name="Racute" unicode="&#x154;" horiz-adv-x="668" 
d="M632 0h-103l-153 294h-198v-294h-90v714h304q106 0 168.5 -55.5t62.5 -149.5q0 -75 -39.5 -126.5t-113.5 -74.5zM529 502q0 58 -38 93t-102 35h-211v-256h209q66 0 104 35t38 93zM271 762l115 177l64 -37l-108 -140h-71z" />
    <glyph glyph-name="racute" unicode="&#x155;" horiz-adv-x="383" 
d="M382 511l-20 -77q-23 14 -62 14q-59 0 -99 -47t-40 -134v-267h-84v519h84v-76q22 38 63 62t88 24q44 0 70 -18zM168 594l115 177l64 -37l-108 -140h-71z" />
    <glyph glyph-name="Rcommaaccent" unicode="&#x156;" horiz-adv-x="668" 
d="M632 0h-103l-153 294h-198v-294h-90v714h304q106 0 168.5 -55.5t62.5 -149.5q0 -75 -39.5 -126.5t-113.5 -74.5zM529 502q0 58 -38 93t-102 35h-211v-256h209q66 0 104 35t38 93zM252 -174l65 136h92l-108 -162z" />
    <glyph glyph-name="rcommaaccent" unicode="&#x157;" horiz-adv-x="383" 
d="M12 -174l65 136h92l-108 -162zM382 511l-20 -77q-23 14 -62 14q-59 0 -99 -47t-40 -134v-267h-84v519h84v-76q22 38 63 62t88 24q44 0 70 -18z" />
    <glyph glyph-name="Rcaron" unicode="&#x158;" horiz-adv-x="668" 
d="M632 0h-103l-153 294h-198v-294h-90v714h304q106 0 168.5 -55.5t62.5 -149.5q0 -75 -39.5 -126.5t-113.5 -74.5zM529 502q0 58 -38 93t-102 35h-211v-256h209q66 0 104 35t38 93zM492 931l-122 -169h-75l-122 169h71l88 -105l90 105h70z" />
    <glyph glyph-name="rcaron" unicode="&#x159;" horiz-adv-x="383" 
d="M384 763l-122 -169h-75l-122 169h71l88 -105l90 105h70zM382 511l-20 -77q-23 14 -62 14q-59 0 -99 -47t-40 -134v-267h-84v519h84v-76q22 38 63 62t88 24q44 0 70 -18z" />
    <glyph glyph-name="Sacute" unicode="&#x15a;" horiz-adv-x="610" 
d="M296 645q-64 0 -107 -29.5t-43 -80.5q0 -63 84 -94q22 -8 63 -19.5t74 -20.5t72 -26t65 -38t43.5 -55.5t17.5 -78.5q0 -95 -70.5 -155.5t-189.5 -60.5q-89 0 -159.5 36t-111.5 100l73 51q34 -55 88.5 -80t114.5 -25q75 0 119.5 34.5t44.5 92.5q0 24 -9 42t-21.5 30
t-38 23t-46.5 17.5t-58 15.5q-43 10 -71.5 18.5t-64.5 25t-58 36.5t-37 52.5t-15 72.5q0 93 70.5 145.5t174.5 52.5q160 0 249 -118l-69 -51q-68 87 -184 87zM235 762l115 177l64 -37l-108 -140h-71z" />
    <glyph glyph-name="sacute" unicode="&#x15b;" horiz-adv-x="495" 
d="M39 68l52 55q58 -61 157 -61q56 0 88.5 21.5t32.5 63.5q0 36 -29 50.5t-114 32.5q-38 8 -65 17t-54 25.5t-41 43t-14 63.5q0 75 56 113.5t138 38.5q122 0 198 -80l-51 -55q-55 62 -150 62q-46 0 -78.5 -17.5t-32.5 -53.5q0 -15 7.5 -27t16.5 -19.5t29.5 -14.5t31.5 -9.5
t38 -8.5q46 -9 75.5 -18.5t60.5 -26.5t46 -44.5t15 -65.5q0 -74 -55 -119.5t-151 -45.5q-127 0 -207 80zM183 594l115 177l64 -37l-108 -140h-71z" />
    <glyph glyph-name="Scircumflex" unicode="&#x15c;" horiz-adv-x="610" 
d="M296 645q-64 0 -107 -29.5t-43 -80.5q0 -63 84 -94q22 -8 63 -19.5t74 -20.5t72 -26t65 -38t43.5 -55.5t17.5 -78.5q0 -95 -70.5 -155.5t-189.5 -60.5q-89 0 -159.5 36t-111.5 100l73 51q34 -55 88.5 -80t114.5 -25q75 0 119.5 34.5t44.5 92.5q0 24 -9 42t-21.5 30
t-38 23t-46.5 17.5t-58 15.5q-43 10 -71.5 18.5t-64.5 25t-58 36.5t-37 52.5t-15 72.5q0 93 70.5 145.5t174.5 52.5q160 0 249 -118l-69 -51q-68 87 -184 87zM336 940l122 -169h-70l-90 104l-88 -104h-71l122 169h75z" />
    <glyph glyph-name="scircumflex" unicode="&#x15d;" horiz-adv-x="495" 
d="M39 68l52 55q58 -61 157 -61q56 0 88.5 21.5t32.5 63.5q0 36 -29 50.5t-114 32.5q-38 8 -65 17t-54 25.5t-41 43t-14 63.5q0 75 56 113.5t138 38.5q122 0 198 -80l-51 -55q-55 62 -150 62q-46 0 -78.5 -17.5t-32.5 -53.5q0 -15 7.5 -27t16.5 -19.5t29.5 -14.5t31.5 -9.5
t38 -8.5q46 -9 75.5 -18.5t60.5 -26.5t46 -44.5t15 -65.5q0 -74 -55 -119.5t-151 -45.5q-127 0 -207 80zM280 763l122 -169h-70l-90 104l-88 -104h-71l122 169h75z" />
    <glyph glyph-name="Scedilla" unicode="&#x15e;" horiz-adv-x="610" 
d="M296 645q-64 0 -107 -29.5t-43 -80.5q0 -63 84 -94q22 -8 63 -19.5t74 -20.5t72 -26t65 -38t43.5 -55.5t17.5 -78.5q0 -95 -70.5 -155.5t-189.5 -60.5q-89 0 -159.5 36t-111.5 100l73 51q34 -55 88.5 -80t114.5 -25q75 0 119.5 34.5t44.5 92.5q0 24 -9 42t-21.5 30
t-38 23t-46.5 17.5t-58 15.5q-43 10 -71.5 18.5t-64.5 25t-58 36.5t-37 52.5t-15 72.5q0 93 70.5 145.5t174.5 52.5q160 0 249 -118l-69 -51q-68 87 -184 87zM258 -188q-42 0 -75 11v51q22 -14 65 -14q29 0 43.5 11t14.5 28q0 13 -12 21h-47v53q14 9 43 9q34 0 60 -21
t26 -58q0 -41 -32.5 -66t-85.5 -25z" />
    <glyph glyph-name="scedilla" unicode="&#x15f;" horiz-adv-x="495" 
d="M39 68l52 55q58 -61 157 -61q56 0 88.5 21.5t32.5 63.5q0 36 -29 50.5t-114 32.5q-38 8 -65 17t-54 25.5t-41 43t-14 63.5q0 75 56 113.5t138 38.5q122 0 198 -80l-51 -55q-55 62 -150 62q-46 0 -78.5 -17.5t-32.5 -53.5q0 -15 7.5 -27t16.5 -19.5t29.5 -14.5t31.5 -9.5
t38 -8.5q46 -9 75.5 -18.5t60.5 -26.5t46 -44.5t15 -65.5q0 -74 -55 -119.5t-151 -45.5q-127 0 -207 80zM205 -188q-42 0 -75 11v51q22 -14 65 -14q29 0 43.5 11t14.5 28q0 13 -12 21h-47v53q14 9 43 9q34 0 60 -21t26 -58q0 -41 -32.5 -66t-85.5 -25z" />
    <glyph glyph-name="Scaron" unicode="&#x160;" horiz-adv-x="610" 
d="M296 645q-64 0 -107 -29.5t-43 -80.5q0 -63 84 -94q22 -8 63 -19.5t74 -20.5t72 -26t65 -38t43.5 -55.5t17.5 -78.5q0 -95 -70.5 -155.5t-189.5 -60.5q-89 0 -159.5 36t-111.5 100l73 51q34 -55 88.5 -80t114.5 -25q75 0 119.5 34.5t44.5 92.5q0 24 -9 42t-21.5 30
t-38 23t-46.5 17.5t-58 15.5q-43 10 -71.5 18.5t-64.5 25t-58 36.5t-37 52.5t-15 72.5q0 93 70.5 145.5t174.5 52.5q160 0 249 -118l-69 -51q-68 87 -184 87zM454 931l-122 -169h-75l-122 169h71l88 -105l90 105h70z" />
    <glyph glyph-name="scaron" unicode="&#x161;" horiz-adv-x="495" 
d="M39 68l52 55q58 -61 157 -61q56 0 88.5 21.5t32.5 63.5q0 36 -29 50.5t-114 32.5q-38 8 -65 17t-54 25.5t-41 43t-14 63.5q0 75 56 113.5t138 38.5q122 0 198 -80l-51 -55q-55 62 -150 62q-46 0 -78.5 -17.5t-32.5 -53.5q0 -15 7.5 -27t16.5 -19.5t29.5 -14.5t31.5 -9.5
t38 -8.5q46 -9 75.5 -18.5t60.5 -26.5t46 -44.5t15 -65.5q0 -74 -55 -119.5t-151 -45.5q-127 0 -207 80zM400 763l-122 -169h-75l-122 169h71l88 -105l90 105h70z" />
    <glyph glyph-name="Tcedilla" unicode="&#x162;" horiz-adv-x="621" 
d="M596 630h-241v-630h-90v630h-241v84h572v-84zM276 -188q-42 0 -75 11v51q22 -14 65 -14q28 0 43 11t15 28q0 13 -12 21h-47v53q13 9 43 9q34 0 60 -21t26 -58q0 -41 -32.5 -66t-85.5 -25z" />
    <glyph glyph-name="tcedilla" unicode="&#x163;" horiz-adv-x="364" 
d="M328 81l21 -70q-33 -22 -93 -22q-139 0 -139 148v309h-97v73h97v195h84v-195h137v-73h-137v-297q0 -84 69 -84q37 0 58 16zM190 -188q-42 0 -75 11v51q22 -14 65 -14q28 0 43 11t15 28q0 13 -12 21h-47v53q13 9 43 9q34 0 60 -21t26 -58q0 -41 -32.5 -66t-85.5 -25z" />
    <glyph glyph-name="Tcaron" unicode="&#x164;" horiz-adv-x="621" 
d="M596 630h-241v-630h-90v630h-241v84h572v-84zM469 931l-122 -169h-75l-122 169h71l88 -105l90 105h70z" />
    <glyph glyph-name="tcaron" unicode="&#x165;" horiz-adv-x="367" 
d="M328 81l21 -70q-33 -22 -93 -22q-139 0 -139 148v309h-97v73h97v195h84v-195h137v-73h-137v-297q0 -84 69 -84q37 0 58 16zM366 800l-44 -233h-43v233h87z" />
    <glyph glyph-name="Tbar" unicode="&#x166;" horiz-adv-x="621" 
d="M468 347h-113v-347h-91v347h-112v54h112v229h-240v84h572v-84h-241v-229h113v-54z" />
    <glyph glyph-name="tbar" unicode="&#x167;" horiz-adv-x="389" 
d="M338 81l21 -70q-35 -22 -93 -22q-139 0 -139 148v137h-87v54h87v118h-98v73h98v195h84v-195h136v-73h-136v-118h110v-54h-110v-125q0 -84 68 -84q38 0 59 16z" />
    <glyph glyph-name="Utilde" unicode="&#x168;" horiz-adv-x="712" 
d="M631 714v-455q0 -123 -77.5 -197.5t-198.5 -74.5q-122 0 -198.5 74.5t-76.5 197.5v455h90v-455q0 -85 49.5 -135.5t135.5 -50.5q85 0 135.5 51t50.5 135v455h90zM225 779l-51 23q15 38 45 62t73 24q33 0 74 -22q38 -21 59 -21q40 0 62 43l51 -24q-14 -37 -44 -61t-73 -24
q-36 0 -76 22q-37 21 -58 21q-40 0 -62 -43z" />
    <glyph glyph-name="utilde" unicode="&#x169;" horiz-adv-x="584" 
d="M423 519h84v-519h-84v78q-60 -90 -173 -90q-82 0 -130 52t-48 143v336h85v-316q0 -136 112 -136q67 0 110.5 45t43.5 118v289zM159 611l-51 23q15 38 45 62t73 24q33 0 74 -22q38 -21 59 -21q41 0 62 43l51 -24q-14 -37 -44 -61t-73 -24q-36 0 -76 22q-37 21 -58 21
q-41 0 -62 -43z" />
    <glyph glyph-name="Umacron" unicode="&#x16a;" horiz-adv-x="712" 
d="M631 714v-455q0 -123 -77.5 -197.5t-198.5 -74.5q-122 0 -198.5 74.5t-76.5 197.5v455h90v-455q0 -85 49.5 -135.5t135.5 -50.5q85 0 135.5 51t50.5 135v455h90zM490 795h-269v61h269v-61z" />
    <glyph glyph-name="umacron" unicode="&#x16b;" horiz-adv-x="582" 
d="M421 519h84v-519h-84v78q-60 -90 -173 -90q-82 0 -130 52t-48 143v336h85v-316q0 -136 112 -136q67 0 110.5 45t43.5 118v289zM422 627h-269v61h269v-61z" />
    <glyph glyph-name="Ubreve" unicode="&#x16c;" horiz-adv-x="712" 
d="M631 714v-455q0 -123 -77.5 -197.5t-198.5 -74.5q-122 0 -198.5 74.5t-76.5 197.5v455h90v-455q0 -85 49.5 -135.5t135.5 -50.5q85 0 135.5 51t50.5 135v455h90zM355 821q81 0 114 87l61 -26q-17 -53 -61 -89.5t-114 -36.5t-114 36.5t-60 89.5l61 26q32 -87 113 -87z" />
    <glyph glyph-name="ubreve" unicode="&#x16d;" horiz-adv-x="582" 
d="M421 519h84v-519h-84v78q-60 -90 -173 -90q-82 0 -130 52t-48 143v336h85v-316q0 -136 112 -136q67 0 110.5 45t43.5 118v289zM287 653q81 0 114 87l61 -26q-17 -53 -61 -89.5t-114 -36.5t-114 36.5t-60 89.5l61 26q32 -87 113 -87z" />
    <glyph glyph-name="Uring" unicode="&#x16e;" horiz-adv-x="712" 
d="M631 714v-455q0 -123 -77.5 -197.5t-198.5 -74.5q-122 0 -198.5 74.5t-76.5 197.5v455h90v-455q0 -85 49.5 -135.5t135.5 -50.5q85 0 135.5 51t50.5 135v455h90zM259 813q0 40 28 68.5t68 28.5t68.5 -28.5t28.5 -68.5q0 -41 -28 -69t-69 -28q-40 0 -68 28.5t-28 68.5z
M306 813q0 -21 14.5 -35.5t34.5 -14.5q21 0 35.5 14.5t14.5 35.5t-14.5 35.5t-35.5 14.5q-20 0 -34.5 -14.5t-14.5 -35.5z" />
    <glyph glyph-name="uring" unicode="&#x16f;" horiz-adv-x="582" 
d="M421 519h84v-519h-84v78q-60 -90 -173 -90q-82 0 -130 52t-48 143v336h85v-316q0 -136 112 -136q67 0 110.5 45t43.5 118v289zM191 646q0 40 28 68.5t68 28.5t68.5 -28.5t28.5 -68.5t-28 -68.5t-69 -28.5q-40 0 -68 28.5t-28 68.5zM238 646q0 -21 14.5 -35.5t34.5 -14.5
q21 0 35.5 14.5t14.5 35.5t-14.5 35.5t-35.5 14.5q-20 0 -34.5 -14.5t-14.5 -35.5z" />
    <glyph glyph-name="Uhungarumlaut" unicode="&#x170;" horiz-adv-x="712" 
d="M631 714v-455q0 -123 -77.5 -197.5t-198.5 -74.5q-122 0 -198.5 74.5t-76.5 197.5v455h90v-455q0 -85 49.5 -135.5t135.5 -50.5q85 0 135.5 51t50.5 135v455h90zM234 762l114 177l64 -37l-108 -140h-70zM391 762l115 177l64 -37l-109 -140h-70z" />
    <glyph glyph-name="uhungarumlaut" unicode="&#x171;" horiz-adv-x="582" 
d="M421 519h84v-519h-84v78q-60 -90 -173 -90q-82 0 -130 52t-48 143v336h85v-316q0 -136 112 -136q67 0 110.5 45t43.5 118v289zM163 594l114 177l64 -37l-108 -140h-70zM320 594l115 177l64 -37l-109 -140h-70z" />
    <glyph glyph-name="Uogonek" unicode="&#x172;" horiz-adv-x="712" 
d="M561 -97v-63q-26 -24 -74 -24q-45 0 -75 25.5t-30 73.5q0 42 25 76q-32 -4 -53 -4q-121 0 -197.5 74.5t-76.5 197.5v455h90v-455q0 -85 49.5 -135.5t135.5 -50.5q85 0 135.5 51t50.5 135v455h90v-455q0 -137 -101 -217q-46 -36 -65 -59t-19 -53q0 -28 16 -41t39 -13
q33 0 60 27z" />
    <glyph glyph-name="uogonek" unicode="&#x173;" horiz-adv-x="582" 
d="M421 519h84v-519q-82 -38 -82 -85q0 -20 12 -29.5t29 -9.5q29 0 51 27v-63q-22 -24 -65 -24q-39 0 -65.5 21t-26.5 59q0 56 63 104v78q-60 -90 -173 -90q-82 0 -130 52t-48 143v336h85v-316q0 -136 112 -136q67 0 110.5 45t43.5 118v289z" />
    <glyph glyph-name="Wcircumflex" unicode="&#x174;" horiz-adv-x="953" 
d="M928 714l-187 -714h-95l-170 578l-170 -578h-96l-185 714h96l142 -578l172 578h84l172 -580l142 580h95zM513 940l122 -169h-70l-90 104l-88 -104h-71l122 169h75z" />
    <glyph glyph-name="wcircumflex" unicode="&#x175;" horiz-adv-x="762" 
d="M736 519l-140 -519h-93l-122 407l-123 -407h-93l-139 519h89l105 -410l123 410h80l122 -409l104 409h87zM419 763l122 -169h-70l-90 104l-88 -104h-71l122 169h75z" />
    <glyph glyph-name="Ycircumflex" unicode="&#x176;" horiz-adv-x="613" 
d="M608 714l-255 -416v-298h-92v298l-255 416h107l196 -328l194 328h105zM344 940l122 -169h-70l-90 104l-88 -104h-71l122 169h75z" />
    <glyph glyph-name="ycircumflex" unicode="&#x177;" horiz-adv-x="518" 
d="M68 -173l19 70q16 -8 33 -8q30 0 50.5 24t45.5 89l-204 517h95l153 -412l152 412h92l-210 -532q-38 -96 -72.5 -133.5t-91.5 -37.5q-40 0 -62 11zM298 763l122 -169h-70l-90 104l-88 -104h-71l122 169h75z" />
    <glyph glyph-name="Ydieresis" unicode="&#x178;" horiz-adv-x="613" 
d="M608 714l-255 -416v-298h-92v298l-255 416h107l196 -328l194 328h105zM250 786h-78v79h78v-79zM440 786h-77v79h77v-79z" />
    <glyph glyph-name="Zacute" unicode="&#x179;" horiz-adv-x="621" 
d="M578 0h-538v81l412 549h-396v84h513v-79l-413 -551h422v-84zM245 762l115 177l64 -37l-108 -140h-71z" />
    <glyph glyph-name="zacute" unicode="&#x17a;" horiz-adv-x="494" 
d="M452 0h-412v69l294 375h-282v75h391v-71l-291 -373h300v-75zM188 594l115 177l64 -37l-108 -140h-71z" />
    <glyph glyph-name="Zdotaccent" unicode="&#x17b;" horiz-adv-x="621" 
d="M578 0h-538v81l412 549h-396v84h513v-79l-413 -551h422v-84zM333 786h-77v79h77v-79z" />
    <glyph glyph-name="zdotaccent" unicode="&#x17c;" horiz-adv-x="494" 
d="M452 0h-412v69l294 375h-282v75h391v-71l-291 -373h300v-75zM272 618h-77v79h77v-79z" />
    <glyph glyph-name="Zcaron" unicode="&#x17d;" horiz-adv-x="621" 
d="M578 0h-538v81l412 549h-396v84h513v-79l-413 -551h422v-84zM456 931l-122 -169h-75l-122 169h71l88 -105l90 105h70z" />
    <glyph glyph-name="zcaron" unicode="&#x17e;" horiz-adv-x="497" 
d="M452 0h-412v69l294 375h-282v75h391v-71l-291 -373h300v-75zM395 763l-122 -169h-75l-122 169h71l88 -105l90 105h70z" />
    <glyph glyph-name="florin" unicode="&#x192;" 
d="M557 710l-26 -70q-27 12 -54 12q-48 0 -72 -21.5t-32 -66.5l-17 -101h130l-13 -67h-129l-59 -345q-13 -78 -58.5 -122.5t-124.5 -44.5q-46 0 -85 17l27 69q24 -12 58 -12q84 0 100 89l59 349h-100l12 67h101l16 97q12 78 59 122.5t126 44.5q46 0 82 -17z" />
    <glyph glyph-name="Aringacute" unicode="&#x1fa;" horiz-adv-x="678" 
d="M306 873l88 127l63 -31l-81 -96h-70zM461 286l-121 341l-127 -341h248zM291 764q0 -21 14.5 -35.5t35.5 -14.5q20 0 35 14.5t15 35.5t-15 35.5t-35 14.5q-21 0 -35.5 -14.5t-14.5 -35.5zM244 764q0 40 28.5 68.5t68.5 28.5t68 -28.5t28 -68.5q0 -45 -35 -73l267 -691
h-103l-75 205h-307l-76 -205h-96l267 691q-35 28 -35 73z" />
    <glyph glyph-name="aringacute" unicode="&#x1fb;" horiz-adv-x="537" 
d="M464 0h-82v64q-54 -76 -160 -76q-82 0 -131 42t-49 116q0 35 12.5 62.5t29 42.5t43 26.5t45 16t44.5 8.5q6 1 25.5 4t27 4t24.5 4t24 6t20 7.5t18.5 10l12.5 12.5t9.5 15.5t2.5 19.5q0 37 -33 54t-79 17q-97 0 -164 -54l-38 64q88 65 207 65q88 0 139.5 -40t51.5 -118
v-373zM380 204v77q-7 -5 -15 -9t-15 -7t-19 -6.5t-18 -5.5t-20.5 -4.5t-19 -3.5t-21 -4t-19.5 -3q-53 -10 -79 -27.5t-26 -59.5q0 -45 30 -67t77 -22q61 0 103 35.5t42 106.5zM222 764l115 168l64 -35l-108 -133h-71zM172 646q0 40 28 68.5t68 28.5t68.5 -28.5t28.5 -68.5
t-28.5 -68.5t-68.5 -28.5t-68 28.5t-28 68.5zM219 646q0 -21 14.5 -35.5t34.5 -14.5q21 0 35.5 14.5t14.5 35.5t-14.5 35.5t-35.5 14.5q-20 0 -34.5 -14.5t-14.5 -35.5z" />
    <glyph glyph-name="AEacute" unicode="&#x1fc;" horiz-adv-x="894" 
d="M841 0h-429v205h-249l-119 -205h-97l420 714h464v-84h-327v-213h286v-80h-286v-253h337v-84zM412 286v349l-202 -349h202zM424 762l115 177l64 -37l-108 -140h-71z" />
    <glyph glyph-name="aeacute" unicode="&#x1fd;" horiz-adv-x="898" 
d="M273 531q127 0 170 -82q67 82 180 82q107 0 171.5 -69t64.5 -177q0 -20 -2 -40h-393q0 -83 47 -131t122 -48q93 0 148 70l57 -52q-78 -96 -210 -96q-137 0 -203 105q-61 -105 -195 -105q-88 0 -138 42t-50 116q0 35 12 62.5t28.5 42.5t43.5 26.5t45.5 16t44.5 8.5
q6 1 25.5 4t27 4t24.5 4t24 6t20 7.5t18.5 10l12.5 12.5t9.5 15.5t2.5 19.5q0 37 -33 54t-79 17q-97 0 -164 -54l-38 64q88 65 207 65zM380 204v77q-7 -5 -15 -9t-15 -7t-19 -6.5t-18 -5.5t-20.5 -4.5t-19 -3.5t-21 -4t-19.5 -3q-53 -10 -79 -27.5t-26 -59.5q0 -45 30 -67
t77 -22q61 0 103 35.5t42 106.5zM465 311h308q-5 72 -47.5 109.5t-104.5 37.5q-66 0 -108 -40.5t-48 -106.5zM402 594l115 177l64 -37l-108 -140h-71z" />
    <glyph glyph-name="Oslashacute" unicode="&#x1fe;" horiz-adv-x="772" 
d="M163 -10l-46 32l38 53q-109 106 -109 282q0 161 93.5 265.5t246.5 104.5q104 0 187 -54l35 51l46 -32l-37 -54q109 -103 109 -281q0 -160 -93.5 -265t-246.5 -105q-105 0 -188 54zM631 357q0 128 -68 205l-314 -449q57 -40 137 -40q113 0 179 78.5t66 205.5zM142 357
q0 -130 65 -206l315 449q-58 41 -136 41q-113 0 -178.5 -78t-65.5 -206zM341 762l115 177l64 -37l-108 -140h-71z" />
    <glyph glyph-name="oslashacute" unicode="&#x1ff;" horiz-adv-x="584" 
d="M135 -10l-44 30l26 38q-73 75 -73 201q0 120 67.5 196t179.5 76q75 0 132 -37l25 36l44 -31l-26 -38q74 -77 74 -202q0 -118 -68 -194.5t-181 -76.5q-74 0 -132 36zM133 259q0 -80 35 -128l209 298q-37 27 -86 27q-73 0 -115.5 -55.5t-42.5 -141.5zM451 259q0 77 -36 130
l-210 -299q37 -27 86 -27q74 0 117 55.5t43 140.5zM242 594l115 177l64 -37l-108 -140h-71z" />
    <glyph glyph-name="Scommaaccent" unicode="&#x218;" horiz-adv-x="610" 
d="M296 645q-64 0 -107 -29.5t-43 -80.5q0 -63 84 -94q22 -8 63 -19.5t74 -20.5t72 -26t65 -38t43.5 -55.5t17.5 -78.5q0 -95 -70.5 -155.5t-189.5 -60.5q-89 0 -159.5 36t-111.5 100l73 51q34 -55 88.5 -80t114.5 -25q75 0 119.5 34.5t44.5 92.5q0 24 -9 42t-21.5 30
t-38 23t-46.5 17.5t-58 15.5q-43 10 -71.5 18.5t-64.5 25t-58 36.5t-37 52.5t-15 72.5q0 93 70.5 145.5t174.5 52.5q160 0 249 -118l-69 -51q-68 87 -184 87zM209 -174l65 136h92l-108 -162z" />
    <glyph glyph-name="scommaaccent" unicode="&#x219;" horiz-adv-x="495" 
d="M39 68l52 55q58 -61 157 -61q56 0 88.5 21.5t32.5 63.5q0 36 -29 50.5t-114 32.5q-38 8 -65 17t-54 25.5t-41 43t-14 63.5q0 75 56 113.5t138 38.5q122 0 198 -80l-51 -55q-55 62 -150 62q-46 0 -78.5 -17.5t-32.5 -53.5q0 -15 7.5 -27t16.5 -19.5t29.5 -14.5t31.5 -9.5
t38 -8.5q46 -9 75.5 -18.5t60.5 -26.5t46 -44.5t15 -65.5q0 -74 -55 -119.5t-151 -45.5q-127 0 -207 80zM148 -174l65 136h92l-108 -162z" />
    <glyph glyph-name="Tcommaaccent" unicode="&#x21a;" horiz-adv-x="621" 
d="M596 630h-241v-630h-90v630h-241v84h572v-84zM201 -174l65 136h92l-108 -162z" />
    <glyph glyph-name="tcommaaccent" unicode="&#x21b;" horiz-adv-x="367" 
d="M328 81l21 -70q-33 -22 -93 -22q-139 0 -139 148v309h-97v73h97v195h84v-195h137v-73h-137v-297q0 -84 69 -84q37 0 58 16zM128 -174l65 136h92l-108 -162z" />
    <glyph glyph-name="dotlessj" unicode="&#x237;" horiz-adv-x="238" 
d="M161 519v-564q0 -137 -130 -137q-41 0 -66 11l15 69q16 -9 40 -9q27 0 42 15.5t15 58.5v556h84z" />
    <glyph glyph-name="schwa" unicode="&#x259;" horiz-adv-x="573" 
d="M438 208h-307q4 -72 47 -109.5t105 -37.5q66 0 108 41t47 106zM529 261q0 -118 -67 -195.5t-180 -77.5q-108 0 -173 69t-65 177q0 22 2 40h394q-1 83 -48 131t-122 48q-93 0 -148 -70l-57 53q80 95 210 95q118 0 186 -75.5t68 -194.5z" />
    <glyph glyph-name="circumflex" unicode="&#x2c6;" horiz-adv-x="368" 
d="M219 763l122 -169h-70l-90 104l-88 -104h-71l122 169h75z" />
    <glyph glyph-name="caron" unicode="&#x2c7;" horiz-adv-x="368" 
d="M341 763l-122 -169h-75l-122 169h71l88 -105l90 105h70z" />
    <glyph glyph-name="breve" unicode="&#x2d8;" horiz-adv-x="368" 
d="M184 653q81 0 114 87l61 -26q-17 -53 -61 -89.5t-114 -36.5t-114 36.5t-60 89.5l61 26q32 -87 113 -87z" />
    <glyph glyph-name="dotaccent" unicode="&#x2d9;" horiz-adv-x="323" 
d="M199 618h-77v79h77v-79z" />
    <glyph glyph-name="ring" unicode="&#x2da;" horiz-adv-x="324" 
d="M63 646q0 40 28 68.5t68 28.5t68.5 -28.5t28.5 -68.5t-28 -68.5t-69 -28.5q-40 0 -68 28.5t-28 68.5zM110 646q0 -21 14.5 -35.5t34.5 -14.5q21 0 35.5 14.5t14.5 35.5t-14.5 35.5t-35.5 14.5q-20 0 -34.5 -14.5t-14.5 -35.5z" />
    <glyph glyph-name="ogonek" unicode="&#x2db;" horiz-adv-x="320" 
d="M250 -97v-63q-26 -24 -74 -24q-44 0 -73 24t-29 68q0 86 124 149l26 -28q-44 -30 -64.5 -54t-20.5 -51q0 -48 51 -48q33 0 60 27z" />
    <glyph glyph-name="tilde" unicode="&#x2dc;" horiz-adv-x="405" 
d="M72 611l-51 23q15 38 45 62t73 24q33 0 74 -22q38 -21 59 -21q40 0 62 43l51 -24q-14 -37 -44 -61t-73 -24q-36 0 -76 22q-37 21 -58 21q-40 0 -62 -43z" />
    <glyph glyph-name="hungarumlaut" unicode="&#x2dd;" horiz-adv-x="435" 
d="M109 594l114 177l64 -37l-108 -140h-70zM266 594l115 177l64 -37l-109 -140h-70z" />
    <glyph glyph-name="Delta" unicode="&#x394;" horiz-adv-x="605" 
d="M573 14v-14h-541v14l265 748h12zM303 586l-177 -518h353z" />
    <glyph glyph-name="Delta" unicode="&#x2206;" horiz-adv-x="605" 
d="M573 14v-14h-541v14l265 748h12zM303 586l-177 -518h353z" />
    <glyph glyph-name="Omega" unicode="&#x3a9;" horiz-adv-x="606" 
d="M303 727q117 0 190 -84.5t73 -218.5q0 -40 -8.5 -79.5t-16.5 -65.5t-30 -65t-30 -51.5t-36.5 -52.5t-30.5 -43h143v-67h-207l-17 63q90 123 127.5 197.5t37.5 164.5q0 105 -53.5 171t-141.5 66t-141.5 -66t-53.5 -171q0 -90 37.5 -164.5t127.5 -197.5l-18 -63h-206v67
h143q-3 4 -32 44.5t-37 53t-30 51.5t-30 65t-16 66t-8 80q0 131 73.5 215.5t190.5 84.5z" />
    <glyph glyph-name="Omega" unicode="&#x2126;" horiz-adv-x="606" 
d="M303 727q117 0 190 -84.5t73 -218.5q0 -40 -8.5 -79.5t-16.5 -65.5t-30 -65t-30 -51.5t-36.5 -52.5t-30.5 -43h143v-67h-207l-17 63q90 123 127.5 197.5t37.5 164.5q0 105 -53.5 171t-141.5 66t-141.5 -66t-53.5 -171q0 -90 37.5 -164.5t127.5 -197.5l-18 -63h-206v67
h143q-3 4 -32 44.5t-37 53t-30 51.5t-30 65t-16 66t-8 80q0 131 73.5 215.5t190.5 84.5z" />
    <glyph glyph-name="pi" unicode="&#x3c0;" horiz-adv-x="597" 
d="M563 451h-70v-451h-69v451h-251v-451h-69v451h-70v68h529v-68z" />
    <glyph glyph-name="uni058F" unicode="&#x58f;" 
d="M200 383v50h131v89q0 66 -32 98.5t-82 32.5q-56 0 -88.5 -39.5t-32.5 -105.5l-74 20q0 75 50.5 137t147.5 62q87 0 141.5 -55t54.5 -155v-84h114v-50h-114v-99h114v-50h-114v-234h-85v234h-131v50h131v99h-131z" />
    <glyph glyph-name="uni09F3" unicode="&#x9f3;" 
d="M77 415v60h99v92q0 85 -68 85q-42 0 -72 -30l-25 65q44 39 110 39q64 0 102 -39.5t38 -112.5v-99h90v-60h-90v-329q20 -20 59 -20q60 0 99 48t39 122q0 89 -48 137l68 37q63 -68 63 -175q0 -105 -64.5 -176.5t-166.5 -71.5q-86 0 -134 53v375h-99z" />
    <glyph glyph-name="uni0E3F" unicode="&#xe3f;" 
d="M76 0v714h180v51h54v-52q97 -4 149 -51t52 -124q0 -55 -28 -97.5t-79 -64.5q62 -19 95.5 -66t33.5 -109q0 -85 -58.5 -141.5t-164.5 -59.5v-60h-54v60h-180zM441 205q0 56 -32 92t-99 39v-264q66 4 98.5 40t32.5 93zM167 72h89v264h-89v-264zM167 406h89v236h-89v-236z
M421 529q0 100 -111 111v-234q55 4 83 37.5t28 85.5z" />
    <glyph glyph-name="uni17DB" unicode="&#x17db;" 
d="M162 384v60h121q-22 90 -114 135q7 52 52.5 100t124.5 48q97 0 163 -81l-55 -51q-40 57 -102 57q-67 0 -87 -55q83 -58 106 -153h103v-60h-96v-384h-125q-5 3 -25.5 13.5t-34.5 18t-34.5 22.5t-33 29t-22 35t-9.5 44q0 49 37.5 82.5t106.5 26.5v-50q-32 2 -48.5 -13.5
t-16.5 -38.5q0 -30 26 -52t71 -45h19v312h-127z" />
    <glyph glyph-name="Wgrave" unicode="&#x1e80;" horiz-adv-x="953" 
d="M928 714l-187 -714h-95l-170 578l-170 -578h-96l-185 714h96l142 -578l172 578h84l172 -580l142 580h95zM402 939l115 -177h-71l-108 140z" />
    <glyph glyph-name="wgrave" unicode="&#x1e81;" horiz-adv-x="762" 
d="M736 519l-140 -519h-93l-122 407l-123 -407h-93l-139 519h89l105 -410l123 410h80l122 -409l104 409h87zM310 771l115 -177h-71l-108 140z" />
    <glyph glyph-name="Wacute" unicode="&#x1e82;" horiz-adv-x="953" 
d="M928 714l-187 -714h-95l-170 578l-170 -578h-96l-185 714h96l142 -578l172 578h84l172 -580l142 580h95zM433 762l115 177l64 -37l-108 -140h-71z" />
    <glyph glyph-name="wacute" unicode="&#x1e83;" horiz-adv-x="762" 
d="M736 519l-140 -519h-93l-122 407l-123 -407h-93l-139 519h89l105 -410l123 410h80l122 -409l104 409h87zM337 594l115 177l64 -37l-108 -140h-71z" />
    <glyph glyph-name="Wdieresis" unicode="&#x1e84;" horiz-adv-x="953" 
d="M928 714l-187 -714h-95l-170 578l-170 -578h-96l-185 714h96l142 -578l172 578h84l172 -580l142 580h95zM419 786h-78v79h78v-79zM609 786h-77v79h77v-79z" />
    <glyph glyph-name="wdieresis" unicode="&#x1e85;" horiz-adv-x="762" 
d="M736 519l-140 -519h-93l-122 407l-123 -407h-93l-139 519h89l105 -410l123 410h80l122 -409l104 409h87zM326 618h-78v79h78v-79zM516 618h-77v79h77v-79z" />
    <glyph glyph-name="Ygrave" unicode="&#x1ef2;" horiz-adv-x="613" 
d="M608 714l-255 -416v-298h-92v298l-255 416h107l196 -328l194 328h105zM241 939l115 -177h-71l-108 140z" />
    <glyph glyph-name="ygrave" unicode="&#x1ef3;" horiz-adv-x="518" 
d="M68 -173l19 70q16 -8 33 -8q30 0 50.5 24t45.5 89l-204 517h95l153 -412l152 412h92l-210 -532q-38 -96 -72.5 -133.5t-91.5 -37.5q-40 0 -62 11zM195 771l115 -177h-71l-108 140z" />
    <glyph glyph-name="endash" unicode="&#x2013;" 
d="M549 226h-523v73h523v-73z" />
    <glyph glyph-name="emdash" unicode="&#x2014;" horiz-adv-x="920" 
d="M861 226h-802v73h802v-73z" />
    <glyph glyph-name="quoteleft" unicode="&#x2018;" horiz-adv-x="225" 
d="M59 471v80q0 97 79 176l31 -32q-56 -56 -56 -120v-11h52v-93h-106z" />
    <glyph glyph-name="quoteright" unicode="&#x2019;" horiz-adv-x="210" 
d="M163 714v-80q0 -97 -79 -176l-31 32q56 56 56 120v11h-52v93h106z" />
    <glyph glyph-name="quotesinglbase" unicode="&#x201a;" horiz-adv-x="249" 
d="M177 100v-73q0 -91 -79 -161l-31 31q56 49 56 104v2h-52v97h106z" />
    <glyph glyph-name="quotedblleft" unicode="&#x201c;" horiz-adv-x="409" 
d="M242 471v80q0 97 79 176l31 -32q-56 -56 -56 -120v-11h52v-93h-106zM59 471v78q0 99 79 178l31 -32q-56 -55 -56 -120v-11h51v-93h-105z" />
    <glyph glyph-name="quotedblright" unicode="&#x201d;" horiz-adv-x="393" 
d="M163 714v-80q0 -97 -79 -176l-31 32q56 56 56 120v11h-52v93h106zM346 714v-78q0 -99 -79 -178l-31 32q56 55 56 120v11h-52v93h106z" />
    <glyph glyph-name="quotedblbase" unicode="&#x201e;" horiz-adv-x="408" 
d="M177 100v-73q0 -91 -79 -161l-31 31q56 49 56 104v2h-52v97h106zM336 100v-73q0 -90 -77 -161l-33 31q57 48 57 104v2h-51v97h104z" />
    <glyph glyph-name="dagger" unicode="&#x2020;" horiz-adv-x="485" 
d="M450 450h-167v-450h-81v450h-166v73h166v191h81v-191h167v-73z" />
    <glyph glyph-name="daggerdbl" unicode="&#x2021;" horiz-adv-x="507" 
d="M461 192h-167v-192h-82v192h-166v72h166v186h-166v73h166v191h82v-191h167v-73h-167v-186h167v-72z" />
    <glyph glyph-name="bullet" unicode="&#x2022;" horiz-adv-x="368" 
d="M321 357q0 -57 -40 -97.5t-97 -40.5q-56 0 -96.5 40.5t-40.5 97.5q0 58 40.5 98.5t96.5 40.5q57 0 97 -40.5t40 -98.5z" />
    <glyph glyph-name="twodotenleader" unicode="&#x2025;" horiz-adv-x="468" 
d="M171 0h-104v103h104v-103zM401 0h-104v103h104v-103z" />
    <glyph glyph-name="ellipsis" unicode="&#x2026;" horiz-adv-x="686" 
d="M171 0h-104v103h104v-103zM395 0h-104v103h104v-103zM619 0h-104v103h104v-103z" />
    <glyph glyph-name="perthousand" unicode="&#x2030;" horiz-adv-x="1132" 
d="M362 564q0 -71 -43.5 -117.5t-112.5 -46.5t-112.5 46.5t-43.5 117.5q0 69 43.5 115.5t112.5 46.5t112.5 -46.5t43.5 -115.5zM652 714l-459 -714h-67l459 714h67zM728 152q0 -71 -43.5 -117.5t-112.5 -46.5q-68 0 -112.5 47t-44.5 117t44 116t113 46t112.5 -46t43.5 -116z
M302 564q0 44 -26.5 73t-69.5 29q-44 0 -70.5 -29t-26.5 -73q0 -45 26.5 -75t70.5 -30q43 0 69.5 30t26.5 75zM668 152q0 44 -26.5 73.5t-69.5 29.5t-69.5 -29.5t-26.5 -73.5t26.5 -74t69.5 -30t69.5 29.5t26.5 74.5zM1084 152q0 -71 -43.5 -117.5t-112.5 -46.5
q-68 0 -112.5 47t-44.5 117t44 116t113 46t112.5 -46t43.5 -116zM1024 152q0 44 -26.5 73.5t-69.5 29.5t-69.5 -29.5t-26.5 -73.5t26.5 -74t69.5 -30t69.5 29.5t26.5 74.5z" />
    <glyph glyph-name="guilsinglleft" unicode="&#x2039;" horiz-adv-x="301" 
d="M50 273v28l149 205l52 -41l-129 -178l129 -178l-52 -40z" />
    <glyph glyph-name="guilsinglright" unicode="&#x203a;" horiz-adv-x="300" 
d="M250 301v-28l-148 -204l-52 40l129 178l-129 178l52 41z" />
    <glyph glyph-name="fraction" unicode="&#x2044;" horiz-adv-x="222" 
d="M384 714l-482 -714h-64l482 714h64z" />
    <glyph glyph-name="zerosuperior" unicode="&#x2070;" horiz-adv-x="452" 
d="M394 594q0 -95 -40 -158.5t-127 -63.5q-88 0 -128 63t-40 159t40 159t128 63q87 0 127 -63.5t40 -158.5zM321 594q0 163 -94 163q-96 0 -96 -163t96 -163q94 0 94 163z" />
    <glyph glyph-name="foursuperior" unicode="&#x2074;" horiz-adv-x="452" 
d="M399 477h-63v-97h-72v97h-214v56l209 275h77v-271h63v-60zM117 537h149v187z" />
    <glyph glyph-name="fivesuperior" unicode="&#x2075;" horiz-adv-x="452" 
d="M218 372q-114 0 -162 84l59 33q30 -54 102 -54q45 0 73.5 22t28.5 61t-27.5 61t-74.5 22q-64 0 -101 -40l-40 20l16 227h274v-64h-216l-11 -109q39 24 96 24q69 0 113.5 -38.5t44.5 -100.5q0 -61 -44.5 -104.5t-130.5 -43.5z" />
    <glyph glyph-name="sixsuperior" unicode="&#x2076;" horiz-adv-x="452" 
d="M374 787l-27 -54q-37 22 -84 22q-67 0 -100 -38t-33 -100q41 46 116 46q66 0 110 -39t44 -102q0 -64 -45.5 -107t-121.5 -43q-82 0 -128 55.5t-46 157.5q0 107 47 166q52 65 154 65q71 0 114 -29zM138 524q0 -38 26 -64.5t71 -26.5q43 0 68 24t25 62q0 37 -24 61t-71 24
q-43 0 -69 -21.5t-26 -58.5z" />
    <glyph glyph-name="sevensuperior" unicode="&#x2077;" horiz-adv-x="452" 
d="M395 808v-52l-222 -376h-76l219 364h-258v64h337z" />
    <glyph glyph-name="eightsuperior" unicode="&#x2078;" horiz-adv-x="452" 
d="M226 431q94 0 94 75q0 72 -94 72q-95 0 -95 -73q0 -36 25 -55t70 -19zM226 634q35 0 58.5 14.5t23.5 47.5q0 31 -23.5 46.5t-58.5 15.5t-58.5 -15.5t-23.5 -46.5q0 -33 23.5 -47.5t58.5 -14.5zM226 372q-78 0 -123 36.5t-45 92.5q0 78 83 109q-69 28 -69 94q0 52 44 82
t110 30q67 0 110.5 -30t43.5 -82q0 -65 -69 -94q84 -31 84 -109q0 -56 -45.5 -92.5t-123.5 -36.5z" />
    <glyph glyph-name="ninesuperior" unicode="&#x2079;" horiz-adv-x="452" 
d="M76 401l30 55q34 -22 84 -22q67 0 100 38.5t33 102.5q-42 -50 -119 -50q-66 0 -109 39t-43 102t46 106.5t121 43.5q83 0 128.5 -55.5t45.5 -160.5q0 -106 -47 -163q-51 -65 -154 -65q-71 0 -116 29zM314 666q0 38 -26 63.5t-71 25.5q-43 0 -68 -24t-25 -62
q0 -37 24.5 -61t70.5 -24q43 0 69 22t26 60z" />
    <glyph glyph-name="zeroinferior" unicode="&#x2080;" horiz-adv-x="452" 
d="M394 120q0 -95 -40 -158.5t-127 -63.5q-88 0 -128 63t-40 159t40 159t128 63q87 0 127 -63.5t40 -158.5zM321 120q0 163 -94 163q-96 0 -96 -163t96 -163q94 0 94 163z" />
    <glyph glyph-name="oneinferior" unicode="&#x2081;" horiz-adv-x="367" 
d="M94 198l-35 52l137 84h59v-428h-70v345z" />
    <glyph glyph-name="twoinferior" unicode="&#x2082;" horiz-adv-x="452" 
d="M390 -94h-330v9q0 43 35.5 83.5t107.5 94.5q68 52 82 70q20 24 20 50q0 31 -23 48.5t-60 17.5q-77 0 -112 -68l-57 33q58 98 173 98q69 0 112 -35t43 -93q0 -66 -75 -124q-20 -16 -57.5 -40t-62.5 -43t-37 -36h241v-65z" />
    <glyph glyph-name="threeinferior" unicode="&#x2083;" horiz-adv-x="452" 
d="M198 108l-32 30l122 132h-214v64h302v-46l-107 -115q57 -5 93 -39.5t36 -88.5q0 -60 -45 -103.5t-128 -43.5q-117 0 -171 94l56 34q37 -65 114 -65q44 0 72 22.5t28 60.5q0 34 -23 55t-60 21q-27 0 -43 -12z" />
    <glyph glyph-name="fourinferior" unicode="&#x2084;" horiz-adv-x="452" 
d="M399 3h-63v-97h-72v97h-214v56l209 275h77v-271h63v-60zM117 63h149v187z" />
    <glyph glyph-name="fiveinferior" unicode="&#x2085;" horiz-adv-x="452" 
d="M218 -102q-114 0 -162 84l59 33q30 -54 103 -54q45 0 73 22t28 61t-27.5 61t-74.5 22q-64 0 -101 -40l-40 20l16 227h274v-64h-216l-11 -109q39 24 97 24q68 0 112.5 -38.5t44.5 -100.5q0 -61 -44.5 -104.5t-130.5 -43.5z" />
    <glyph glyph-name="sixinferior" unicode="&#x2086;" horiz-adv-x="452" 
d="M374 313l-27 -54q-37 22 -86 22q-65 0 -98 -38t-33 -100q41 46 116 46q66 0 110 -39t44 -102q0 -64 -45.5 -107t-121.5 -43q-82 0 -128 55.5t-46 158.5q0 106 47 165q52 65 155 65q70 0 113 -29zM138 50q0 -38 26 -64.5t71 -26.5q43 0 68 24t25 62q0 37 -24 61t-71 24
q-43 0 -69 -21.5t-26 -58.5z" />
    <glyph glyph-name="seveninferior" unicode="&#x2087;" horiz-adv-x="452" 
d="M395 334v-52l-222 -376h-76l219 364h-258v64h337z" />
    <glyph glyph-name="eightinferior" unicode="&#x2088;" horiz-adv-x="452" 
d="M226 -43q94 0 94 75q0 73 -94 73q-47 0 -71 -19.5t-24 -54.5q0 -36 25 -55t70 -19zM226 160q35 0 58.5 14.5t23.5 47.5q0 31 -23.5 46.5t-58.5 15.5t-58.5 -15.5t-23.5 -46.5q0 -33 23.5 -47.5t58.5 -14.5zM226 -102q-78 0 -123 36.5t-45 92.5q0 78 83 109q-69 28 -69 94
q0 52 44 82t110 30q67 0 110.5 -30t43.5 -82q0 -65 -69 -94q84 -31 84 -109q0 -56 -45.5 -92.5t-123.5 -36.5z" />
    <glyph glyph-name="nineinferior" unicode="&#x2089;" horiz-adv-x="452" 
d="M76 -73l30 55q36 -22 84 -22q67 0 100 38.5t33 102.5q-41 -49 -119 -49q-66 0 -109 38.5t-43 101.5q0 64 46 107t121 43q83 0 128.5 -55.5t45.5 -160.5q0 -106 -47 -163q-51 -65 -154 -65q-71 0 -116 29zM314 192q0 38 -26 63.5t-71 25.5q-43 0 -68 -24t-25 -62
q0 -37 24.5 -61t70.5 -24q43 0 69 22.5t26 59.5z" />
    <glyph glyph-name="colonmonetary" unicode="&#x20a1;" 
d="M111 -58l36 131q-100 103 -100 278q0 149 75 255t202 119l11 40h48l-11 -39q35 -2 63 -10l13 49h48l-18 -65q40 -20 70 -50l-45 -64q-24 24 -46 36l-150 -546q30 -8 62 -8q105 0 164 79v-99q-64 -61 -170 -61q-42 0 -78 9l-14 -54h-47l18 67q-37 17 -57 32l-27 -99h-47z
M211 136q22 -26 54 -43l149 546q-24 7 -54 7q-5 0 -10 -1zM141 354q0 -98 36 -168l123 451q-77 -24 -118 -102.5t-41 -180.5z" />
    <glyph glyph-name="uni20A6" unicode="&#x20a6;" 
d="M20 435v44h62v235h82l111 -235h136v235h83v-235h63v-44h-63v-110h63v-44h-63v-281h-73l-134 281h-122v-281h-83v281h-62v44h62v110h-62zM296 435l52 -110h63v110h-115zM165 435v-110h101l-52 110h-49zM368 281l43 -90v90h-43zM165 538v-59h28z" />
    <glyph glyph-name="uni20A9" unicode="&#x20a9;" 
d="M15 486v43h32l-31 185h70l28 -185h120l22 129h53l21 -129h120l29 185h70l-31 -185h32v-43h-40l-18 -111h58v-43h-65l-56 -332h-63l-55 332h-59l-55 -332h-62l-56 332h-64v43h57l-18 111h-39zM337 486l19 -111h71l17 111h-107zM121 486l17 -111h71l18 111h-106zM144 332
l28 -179l30 179h-58zM363 332l30 -179l27 179h-57zM277 486l-18 -111h45l-18 111h-9z" />
    <glyph glyph-name="uni20AA" unicode="&#x20aa;" horiz-adv-x="599" 
d="M195 0v473h70v-404h35q94 0 129.5 41t35.5 131v473h70v-473q0 -122 -54 -181.5t-182 -59.5h-104zM60 0v714h103q129 0 183 -59.5t54 -181.5v-232h-70v232q0 90 -35.5 131t-129.5 41h-35v-645h-70z" />
    <glyph glyph-name="dong" unicode="&#x20ab;" 
d="M256 -13q-97 0 -155.5 77t-58.5 195t58.5 195t155.5 77q56 0 98.5 -30.5t64.5 -83.5v193h-139v42h139v62h80v-62h46v-42h-46v-610h-80v102q-22 -53 -65 -84t-98 -31zM68 -140v42h431v-42h-431zM271 58q68 0 108 56t40 145q0 90 -40.5 146t-107.5 56t-106.5 -56.5
t-39.5 -145.5q0 -90 39 -145.5t107 -55.5z" />
    <glyph glyph-name="Euro" unicode="&#x20ac;" 
d="M366 -13q-114 0 -193 75t-102 204h-71v52h64q-1 8 -1 36q0 32 2 42h-65v51h72q24 129 104.5 204.5t194.5 75.5q105 0 176 -58l-48 -66q-53 41 -124 41q-80 0 -134.5 -52.5t-74.5 -144.5h263v-51h-271q-3 -19 -3 -40q0 -20 2 -38h272v-52h-264q19 -93 73.5 -144.5
t129.5 -51.5q82 0 133 55l54 -59q-70 -79 -189 -79z" />
    <glyph glyph-name="uni20AD" unicode="&#x20ad;" 
d="M30 370v59h70v285h90v-264l250 264h100l-270 -285h262v-59h-259l290 -370h-103l-270 342v-342h-90v370h-70z" />
    <glyph glyph-name="uni20AE" unicode="&#x20ae;" 
d="M116 292v58l127 61v231h-202v72h494v-72h-202v-187l127 61v-59l-127 -61v-75l127 61v-58l-127 -61v-263h-90v219l-127 -61v59l127 61v75z" />
    <glyph glyph-name="uni20B1" unicode="&#x20b1;" 
d="M20 501v45h64v168h143q108 0 177 -45t92 -123h61v-45h-51q2 -24 2 -37q0 -20 -3 -40h52v-44h-61q-25 -79 -93.5 -123.5t-174.5 -44.5h-53v-212h-91v380h-64v44h64v77h-64zM419 463q0 20 -3 38h-241v-77h241q3 18 3 39zM175 292h57q130 0 170 88h-227v-88zM175 633v-87
h227q-40 87 -171 87h-56z" />
    <glyph glyph-name="uni20B4" unicode="&#x20b4;" 
d="M40 435v44h315q33 33 33 75t-27.5 68t-72.5 26q-83 0 -137 -87l-59 48q80 118 201 118q76 0 130 -48t54 -127q0 -39 -17 -73h77v-44h-108q-32 -34 -117 -86l-41 -24h266v-44h-329q-49 -44 -49 -101q0 -52 35.5 -83t91.5 -31q109 0 170 105l60 -47q-78 -137 -232 -137
q-92 0 -153 51t-61 139q0 58 30 104h-60v44h98q10 9 21 18t26 19t24 15.5t29 18t26 16.5q28 18 36 23h-260z" />
    <glyph glyph-name="uni20B8" unicode="&#x20b8;" 
d="M243 0v448h-202v71h495v-71h-203v-448h-90zM41 643v71h495v-71h-495z" />
    <glyph glyph-name="uni20B9" unicode="&#x20b9;" 
d="M369 0l-313 317v59h129q79 0 125.5 29.5t55.5 81.5h-310v48h309q-7 50 -52.5 80.5t-122.5 30.5h-134v68h473v-48h-167q81 -45 89 -131h78v-48h-78q-10 -80 -74.5 -129.5t-169.5 -49.5h-41l308 -308h-105z" />
    <glyph glyph-name="uni20BA" unicode="&#x20ba;" 
d="M116 0v269l-85 -41v61l85 40v81l-85 -41v61l85 40v244h85v-210l194 92v-61l-194 -91v-80l194 91v-61l-194 -91v-226h7q112 0 178 53.5t83 146.5l75 -22q-24 -118 -107.5 -186.5t-230.5 -68.5h-90z" />
    <glyph glyph-name="uni20BC" unicode="&#x20bc;" 
d="M259 150v403q-63 -15 -98 -100t-35 -232q0 -115 19 -221h-90q-18 108 -18 218q0 177 59 287.5t163 125.5v83l59 13v-96q104 -15 163 -125.5t59 -287.5q0 -110 -18 -218h-91q19 106 19 221q0 147 -34.5 231.5t-97.5 100.5v-390z" />
    <glyph glyph-name="uni20BD" unicode="&#x20bd;" 
d="M106 0v203h-76v62h76v68h-76v75h76v306h192q115 0 178 -51.5t63 -138.5q0 -86 -61 -138.5t-170 -52.5h-117v-68h287v-62h-287v-203h-85zM191 408h116q73 0 110.5 31.5t37.5 84.5q0 54 -40 84t-118 30h-106v-230z" />
    <glyph glyph-name="litre" unicode="&#x2113;" horiz-adv-x="457" 
d="M370 118l56 -46q-56 -84 -154 -84q-76 0 -115 43t-39 123v40q-47 -28 -68 -36l-30 68q42 17 98 55v227q0 72 34.5 121t109.5 49q65 0 100.5 -40t35.5 -101q0 -74 -57 -151.5t-145 -141.5v-89q0 -94 81 -94q57 0 93 57zM196 515v-178q125 107 125 200q0 32 -15 51t-44 19
q-66 0 -66 -92z" />
    <glyph glyph-name="uni2117" unicode="&#x2117;" horiz-adv-x="832" 
d="M457 307h-107v-153h-65v404h172q62 0 99.5 -34.5t37.5 -90.5q0 -54 -36 -90t-101 -36zM529 432q0 39 -24.5 55t-74.5 16h-80v-142h80q51 0 75 16t24 55zM40 357q0 156 110 266t266 110t266 -110t110 -266t-110 -266t-266 -110t-266 110t-110 266zM90 357
q0 -135 95.5 -230.5t230.5 -95.5t230.5 95.5t95.5 230.5t-95.5 230.5t-230.5 95.5t-230.5 -95.5t-95.5 -230.5z" />
    <glyph glyph-name="uni2120" unicode="&#x2120;" horiz-adv-x="653" 
d="M153 678q-20 0 -33.5 -8.5t-13.5 -24.5q0 -15 14.5 -23t36.5 -13q4 -1 6 -1q48 -11 73.5 -28t25.5 -54q0 -39 -28 -62.5t-76 -23.5q-77 0 -113 58l39 25q25 -39 76 -39q24 0 39 9.5t15 27.5q0 17 -14 25t-45 15q-48 11 -73 27t-25 52q0 39 28.5 59.5t70.5 20.5
q66 0 102 -52l-37 -27q-24 37 -68 37zM592 446h-48v201l-75 -201h-37l-76 201v-201h-46v268h66l75 -207l77 207h64v-268z" />
    <glyph glyph-name="uni2121" unicode="&#x2121;" horiz-adv-x="653" 
d="M342 446h-47v201l-75 -201h-37l-76 201v-201h-46v268h66l75 -207l76 207h64v-268zM626 659l-37 -25q-26 42 -72 42q-37 0 -59.5 -26t-22.5 -70q0 -43 22.5 -69.5t60.5 -26.5q42 0 72 43l38 -25q-42 -62 -111 -62q-58 0 -95 38.5t-37 101.5q0 62 37 101t95 39
q69 0 109 -61z" />
    <glyph glyph-name="trademark" unicode="&#x2122;" horiz-adv-x="652" 
d="M271 668h-91v-222h-49v222h-88v46h228v-46zM592 446h-48v201l-75 -201h-37l-76 201v-201h-46v268h66l75 -207l77 207h64v-268z" />
    <glyph glyph-name="uni2123" unicode="&#x2123;" horiz-adv-x="653" 
d="M342 446h-47v201l-75 -201h-37l-76 201v-201h-46v268h66l75 -207l76 207h64v-268zM445 490h53q39 0 60 24t21 66t-21 65.5t-60 23.5h-53v-179zM497 446h-101v268h101q62 0 97 -37t35 -97q0 -59 -35 -96.5t-97 -37.5z" />
    <glyph glyph-name="uni2124" unicode="&#x2124;" horiz-adv-x="653" 
d="M342 446h-47v201l-75 -201h-37l-76 201v-201h-46v268h66l75 -207l76 207h64v-268zM497 678q-20 0 -33.5 -8.5t-13.5 -24.5q0 -11 8.5 -18.5t18.5 -11t24 -6.5q3 -1 5 -1q48 -11 74 -28t26 -54q0 -39 -28.5 -62.5t-76.5 -23.5q-78 0 -112 58l38 25q26 -39 77 -39
q23 0 38.5 10t15.5 27t-14.5 25t-45.5 15q-48 11 -72.5 27t-24.5 52q0 39 28 59.5t70 20.5q67 0 103 -52l-37 -27q-24 37 -68 37z" />
    <glyph glyph-name="uni2125" unicode="&#x2125;" horiz-adv-x="653" 
d="M342 446h-47v201l-75 -201h-37l-76 201v-201h-46v268h66l75 -207l76 207h64v-268zM620 446h-55l-54 102h-62v-102h-49v268h120q43 0 68 -21.5t25 -58.5q0 -55 -53 -77zM564 630q0 39 -44 39h-71v-79h71q20 0 32 11t12 29z" />
    <glyph glyph-name="estimated" unicode="&#x212e;" horiz-adv-x="622" 
d="M578 273h-417v-187q63 -61 150 -61q65 0 113 29.5t86 94.5l36 -22q-48 -75 -101.5 -107t-133.5 -32q-119 0 -192.5 81.5t-73.5 203.5t73.5 203.5t192.5 81.5t192.5 -79.5t74.5 -205.5zM161 310h301v150q-67 62 -152 62t-149 -62v-150z" />
    <glyph glyph-name="uni2150" unicode="&#x2150;" horiz-adv-x="950" 
d="M201 0l473 714h70l-473 -714h-70zM244 340q-80 0 -129 54t-49 137t49 137.5t128 54.5q93 0 149 -82l-46 -37q-36 62 -98 62q-51 0 -82 -38t-31 -96q0 -59 31 -97t82 -38q57 0 102 58l44 -38q-57 -77 -150 -77zM706 -9q-82 0 -131 53t-49 138t49 138.5t131 53.5
t131.5 -53.5t49.5 -138.5q0 -84 -49.5 -137.5t-131.5 -53.5zM706 47q52 0 82.5 38t30.5 98q0 58 -31 96.5t-82 38.5t-81 -38t-30 -97q0 -60 29.5 -98t81.5 -38z" />
    <glyph glyph-name="partialdiff" unicode="&#x2202;" horiz-adv-x="592" 
d="M126 618l-33 62q65 47 160 47q123 0 205.5 -91t82.5 -265q0 -67 -13.5 -130t-42.5 -122.5t-84 -95.5t-130 -36q-102 0 -164.5 64t-62.5 167q0 109 68.5 179t167.5 70q63 0 115 -30t75 -75q0 85 -20.5 149.5t-70.5 105.5t-124 41q-72 0 -129 -40zM270 58q78 0 126 52.5
t48 129.5q0 71 -42 113.5t-113 42.5q-81 0 -124 -53.5t-43 -128.5q0 -73 40 -114.5t108 -41.5z" />
    <glyph glyph-name="product" unicode="&#x220f;" horiz-adv-x="603" 
d="M565 645h-70v-645h-68v645h-251v-645h-69v645h-70v69h528v-69z" />
    <glyph glyph-name="summation" unicode="&#x2211;" horiz-adv-x="597" 
d="M532 68v-68h-479v24l303 333l-303 333v24h479v-69h-342l260 -288l-260 -289h342z" />
    <glyph glyph-name="minus" unicode="&#x2212;" 
d="M547 222h-519v74h519v-74z" />
    <glyph glyph-name="radical" unicode="&#x221a;" horiz-adv-x="598" 
d="M539 754l61 -30l-380 -778h-12l-189 383l61 30l133 -271z" />
    <glyph glyph-name="infinity" unicode="&#x221e;" horiz-adv-x="794" 
d="M743 275q0 -68 -47 -115.5t-118 -47.5q-64 0 -110 46l-71 71l-71 -71q-46 -46 -110 -46q-71 0 -118.5 47.5t-47.5 115.5t47.5 115.5t118.5 47.5q64 0 110 -46l71 -71l71 71q46 46 110 46q71 0 118 -47.5t47 -115.5zM677 275q0 40 -28 68t-67 28q-17 0 -32 -5t-30.5 -17
t-25 -20.5t-27 -27.5t-24.5 -26l68 -67q29 -29 67 -29q42 0 70.5 28t28.5 68zM351 275l-68 67q-29 29 -67 29q-42 0 -70.5 -28t-28.5 -68t28 -68t67 -28q17 0 32 5t30.5 17t25 20.5t27 27.5t24.5 26z" />
    <glyph glyph-name="integral" unicode="&#x222b;" horiz-adv-x="307" 
d="M286 734l-42 -44q-19 22 -42 22q-40 0 -40 -60q0 -32 27 -302q25 -254 25 -302q0 -61 -27 -93t-76 -32q-51 0 -90 39l42 44q19 -22 42 -22q40 0 40 60q0 32 -27 302q-25 254 -25 302q0 61 27.5 93t76.5 32q52 0 89 -39z" />
    <glyph glyph-name="approxequal" unicode="&#x2248;" 
d="M67 158l-32 32q65 90 138 90q36 0 117 -34q78 -34 113 -34q56 0 106 50l32 -31q-65 -90 -138 -90q-18 0 -38 5t-32 9.5t-47 19.5q-75 33 -113 33q-54 0 -106 -50zM67 347l-32 33q67 88 138 88q36 0 117 -34q79 -33 113 -33q56 0 106 50l32 -32q-65 -90 -138 -90
q-36 0 -117 35q-79 33 -113 33q-54 0 -106 -50z" />
    <glyph glyph-name="notequal" unicode="&#x2260;" 
d="M553 161h-275l-57 -171h-58l57 171h-198v70h220l31 91h-251v71h275l57 171h58l-56 -171h197v-71h-221l-31 -91h252v-70z" />
    <glyph glyph-name="lessequal" unicode="&#x2264;" 
d="M57 380l405 258l37 -62l-312 -196l315 -197l-40 -60zM547 0h-519v74h519v-74z" />
    <glyph glyph-name="greaterequal" unicode="&#x2265;" 
d="M113 638l405 -258l-405 -257l-40 60l315 197l-312 196zM547 0h-519v74h519v-74z" />
    <glyph glyph-name="lozenge" unicode="&#x25ca;" horiz-adv-x="610" 
d="M560 357l-254 -405h-12l-254 405l254 405h12zM479 357l-179 291l-179 -291l179 -292z" />
    <glyph glyph-name="commaaccent" unicode="&#xf6c3;" horiz-adv-x="270" 
d="M49 -174l65 136h92l-108 -162z" />
    <glyph glyph-name="uniF8FF" unicode="&#xf8ff;" horiz-adv-x="874" 
d="M199 714h476q49 0 84 -35t35 -84v-476q0 -49 -35 -84t-84 -35h-476q-49 0 -84 35t-35 84v476q0 49 35 84t84 35zM664 167v380q0 15 -11 26t-27 11h-379q-15 0 -26 -11t-11 -26v-380q0 -15 11 -26t26 -11h379q16 0 27 11t11 26zM361 260h152q9 0 15 6t6 15v152q0 9 -6 15
t-15 6h-152q-9 0 -15 -6t-6 -15v-152q0 -9 6 -15t15 -6z" />
    <glyph glyph-name="f_f" unicode="&#xfb00;" horiz-adv-x="635" 
d="M406 519v89q0 117 136 117q39 0 74 -11l-12 -70q-20 10 -52 10q-62 0 -62 -52v-83h119v-73h-119v-446h-84v446h-213v-446h-84v446h-85v73h85v89q0 117 136 117q37 0 74 -11l-12 -70q-20 10 -53 10q-61 0 -61 -52v-83h213z" />
    <glyph glyph-name="uniFEFF" unicode="&#xfeff;" horiz-adv-x="0" 
 />
    <glyph glyph-name="zero.lin" 
d="M531 357q0 -74 -12.5 -137t-39.5 -117t-75.5 -85t-114.5 -31t-115 31t-76.5 85t-40 117t-12.5 137t12.5 137t40 117t76.5 85t115 31t114.5 -31t75.5 -85t39.5 -117t12.5 -137zM437 357q0 291 -148 291q-54 0 -89 -40.5t-48.5 -103t-13.5 -147.5t13.5 -147.5t48.5 -103
t89 -40.5q148 0 148 291z" />
    <glyph glyph-name="one.lin" 
d="M146 495l-44 67l216 152h75v-714h-89v604z" />
    <glyph glyph-name="two.lin" 
d="M527 0h-479v12q0 37 15.5 73.5t48 75t65 69.5t84.5 76q40 35 52.5 46t39.5 37.5t35.5 42t17 38.5t8.5 48q0 60 -38 92t-98 32q-111 0 -166 -100l-73 47q85 138 243 138q101 0 165 -56t64 -149q0 -108 -107 -204q-22 -20 -84.5 -69.5t-104.5 -89.5t-60 -75h372v-84z" />
    <glyph glyph-name="three.lin" 
d="M238 348l-43 41l187 241h-324v84h439v-62l-165 -209q85 -3 141 -61.5t56 -149.5q0 -63 -26.5 -117t-87.5 -91t-148 -37q-162 0 -238 132l76 46q49 -94 161 -94q73 0 120 42t47 114q0 63 -35.5 102.5t-94.5 39.5q-37 0 -65 -21z" />
    <glyph glyph-name="four.lin" 
d="M540 170h-99v-170h-90v170h-321v77l312 467h99v-463h99v-81zM117 251h235v349z" />
    <glyph glyph-name="five.lin" 
d="M276 -13q-164 0 -236 132l78 45q23 -46 64.5 -69.5t92.5 -23.5q70 0 114.5 40t44.5 115q0 73 -42.5 113.5t-115.5 40.5q-96 0 -152 -69l-54 27l23 376h397v-84h-322l-15 -215q58 45 145 45q100 0 165.5 -64.5t65.5 -165.5q0 -100 -64 -171.5t-189 -71.5z" />
    <glyph glyph-name="six.lin" 
d="M502 680l-36 -72q-54 38 -125 38q-105 0 -155 -75t-50 -193q25 41 72 65.5t106 24.5q97 0 161.5 -64.5t64.5 -169.5q0 -106 -66.5 -176.5t-175.5 -70.5q-119 0 -185.5 91.5t-66.5 261.5q0 175 68 276q75 111 224 111q100 0 164 -47zM150 238q0 -71 40.5 -120t111.5 -49
q66 0 105 44t39 116q0 70 -38 115t-110 45q-67 0 -107.5 -40.5t-40.5 -110.5z" />
    <glyph glyph-name="seven.lin" 
d="M534 714v-72l-331 -642h-98l328 630h-389v84h490z" />
    <glyph glyph-name="eight.lin" 
d="M288 68q72 0 111 37t39 103q0 62 -37 97.5t-113 35.5t-113.5 -37t-37.5 -99q0 -64 39.5 -100.5t111.5 -36.5zM288 419q55 0 92.5 26.5t37.5 85.5q0 58 -37.5 86.5t-92.5 28.5t-92.5 -28.5t-37.5 -86.5q0 -59 37 -85.5t93 -26.5zM288 -13q-113 0 -179 59.5t-66 153.5
q0 60 31 109t94 76q-103 47 -103 158q0 84 63.5 134t159.5 50t159 -50t63 -134q0 -112 -103 -158q64 -27 95 -76t31 -109q0 -94 -66 -153.5t-179 -59.5z" />
    <glyph glyph-name="nine.lin" 
d="M71 33l41 74q52 -39 126 -39q103 0 152 76t49 197q-24 -42 -72 -68.5t-108 -26.5q-96 0 -159.5 64t-63.5 169q0 107 66.5 177.5t175.5 70.5q119 0 185.5 -92t66.5 -266t-67 -272q-76 -110 -223 -110q-101 0 -169 46zM426 479q0 71 -40.5 118.5t-110.5 47.5
q-67 0 -106 -45t-39 -116q0 -70 38 -114.5t109 -44.5q68 0 108.5 42t40.5 112z" />
    <glyph glyph-name="exclamdown.lin" horiz-adv-x="260" 
d="M153 503l23 -350v-153h-92v153l24 350h45zM78 714h104v-105h-104v105z" />
    <glyph glyph-name="questiondown.lin" horiz-adv-x="493" 
d="M44 175q0 48 20.5 86t50 63t58.5 47.5t49.5 52.5t20.5 66v22h86v-14q0 -49 -20 -89t-48.5 -66.5t-56.5 -50.5t-48 -53.5t-20 -64.5q0 -46 32 -76t91 -30q83 0 155 70l49 -63q-95 -88 -211 -88q-92 0 -150 51t-58 137zM232 714h105v-105h-105v105z" />
    <glyph glyph-name="hyphen.lin" horiz-adv-x="387" 
d="M325 296h-263v74h263v-74z" />
    <glyph glyph-name="endash.lin" 
d="M545 296h-515v74h515v-74z" />
    <glyph glyph-name="emdash.lin" horiz-adv-x="920" 
d="M861 296h-802v74h802v-74z" />
    <glyph glyph-name="registered.alt" horiz-adv-x="832" 
d="M282 164v383h165q61 0 98 -32.5t37 -86.5q0 -38 -21.5 -66t-54.5 -41l85 -157h-70l-78 145h-96v-145h-65zM347 362h100q33 0 51 18t18 47q0 30 -18.5 47.5t-50.5 17.5h-100v-130zM416 -19q-156 0 -266 110t-110 266t110 266t266 110t266 -110t110 -266t-110 -266
t-266 -110zM416 31q135 0 230.5 95.5t95.5 230.5t-95.5 230.5t-230.5 95.5t-230.5 -95.5t-95.5 -230.5t95.5 -230.5t230.5 -95.5z" />
    <glyph glyph-name="periodcentered.lin" horiz-adv-x="255" 
d="M190 333q0 -25 -18.5 -43.5t-43.5 -18.5q-26 0 -44.5 18.5t-18.5 43.5t18.5 44t44.5 19q25 0 43.5 -19t18.5 -44z" />
    <glyph glyph-name="plus.lin" 
d="M547 296h-222v-222h-75v222h-222v74h222v223h75v-223h222v-74z" />
    <glyph glyph-name="minus.lin" 
d="M547 296h-519v74h519v-74z" />
    <glyph glyph-name="divide.lin" 
d="M348 535q0 -25 -17.5 -43t-42.5 -18q-26 0 -43.5 18t-17.5 43t18 43t43 18t42.5 -18t17.5 -43zM348 131q0 -24 -17.5 -42t-42.5 -18t-43 18t-18 42q0 26 18 44.5t43 18.5t42.5 -18.5t17.5 -44.5zM547 296h-519v74h519v-74z" />
    <glyph glyph-name="equal.lin" 
d="M545 394h-515v74h515v-74zM545 199h-515v73h515v-73z" />
    <glyph glyph-name="multiply.lin" 
d="M549 125l-53 -54l-208 210l-209 -210l-53 54l210 208l-210 209l53 53l209 -210l208 210l53 -53l-209 -209z" />
    <glyph glyph-name="less.lin" 
d="M450 113l-52 -51l-272 272l272 273l52 -51l-221 -222z" />
    <glyph glyph-name="greater.lin" 
d="M450 334l-274 -272l-50 51l221 221l-221 222l50 51z" />
    <glyph glyph-name="zero.num" horiz-adv-x="452" 
d="M394 500q0 -95 -40 -158.5t-127 -63.5q-88 0 -128 63t-40 159t40 159t128 63q87 0 127 -63.5t40 -158.5zM321 500q0 163 -94 163q-96 0 -96 -163t96 -163q94 0 94 163z" />
    <glyph glyph-name="one.num" horiz-adv-x="367" 
d="M94 578l-35 52l137 84h59v-428h-70v345z" />
    <glyph glyph-name="two.num" horiz-adv-x="452" 
d="M390 286h-330v9q0 43 35.5 83.5t107.5 94.5q68 52 82 70q20 24 20 50q0 31 -23 48.5t-60 17.5q-77 0 -112 -68l-57 33q58 98 173 98q69 0 112 -35t43 -93q0 -66 -75 -124q-20 -16 -57.5 -40t-62.5 -43t-37 -36h241v-65z" />
    <glyph glyph-name="three.num" horiz-adv-x="452" 
d="M198 488l-32 30l122 132h-214v64h302v-46l-107 -115q57 -5 93 -39.5t36 -88.5q0 -60 -45 -103.5t-128 -43.5q-117 0 -171 94l56 34q37 -65 114 -65q44 0 72 22.5t28 60.5q0 34 -23 55t-60 21q-27 0 -43 -12z" />
    <glyph glyph-name="four.num" horiz-adv-x="452" 
d="M399 383h-63v-97h-72v97h-214v56l209 275h77v-271h63v-60zM117 443h149v187z" />
    <glyph glyph-name="five.num" horiz-adv-x="452" 
d="M218 278q-114 0 -162 84l59 33q30 -54 102 -54q45 0 73.5 22t28.5 61t-27.5 61t-74.5 22q-64 0 -101 -40l-40 20l16 227h274v-64h-216l-11 -109q39 24 96 24q69 0 113.5 -38.5t44.5 -100.5q0 -61 -44.5 -104.5t-130.5 -43.5z" />
    <glyph glyph-name="six.num" horiz-adv-x="452" 
d="M374 693l-27 -54q-37 22 -84 22q-67 0 -100 -38t-33 -100q41 46 116 46q66 0 110 -39t44 -102q0 -64 -45.5 -107t-121.5 -43q-82 0 -128 55.5t-46 157.5q0 107 47 166q52 65 154 65q71 0 114 -29zM138 430q0 -38 26 -64.5t71 -26.5q43 0 68 24t25 62q0 37 -24 61t-71 24
q-43 0 -69 -21.5t-26 -58.5z" />
    <glyph glyph-name="seven.num" horiz-adv-x="452" 
d="M395 714v-52l-222 -376h-76l219 364h-258v64h337z" />
    <glyph glyph-name="eight.num" horiz-adv-x="452" 
d="M226 337q94 0 94 75q0 72 -94 72q-95 0 -95 -73q0 -36 25 -55t70 -19zM226 540q35 0 58.5 14.5t23.5 47.5q0 31 -23.5 46.5t-58.5 15.5t-58.5 -15.5t-23.5 -46.5q0 -33 23.5 -47.5t58.5 -14.5zM226 278q-78 0 -123 36.5t-45 92.5q0 78 83 109q-69 28 -69 94q0 52 44 82
t110 30q67 0 110.5 -30t43.5 -82q0 -65 -69 -94q84 -31 84 -109q0 -56 -45.5 -92.5t-123.5 -36.5z" />
    <glyph glyph-name="nine.num" horiz-adv-x="452" 
d="M76 307l30 55q34 -22 84 -22q67 0 100 38.5t33 102.5q-42 -50 -119 -50q-66 0 -109 39t-43 102t46 106.5t121 43.5q83 0 128.5 -55.5t45.5 -160.5q0 -106 -47 -163q-51 -65 -154 -65q-71 0 -116 29zM314 572q0 38 -26 63.5t-71 25.5q-43 0 -68 -24t-25 -62
q0 -37 24.5 -61t70.5 -24q43 0 69 22t26 60z" />
    <glyph glyph-name="zero.den" horiz-adv-x="452" 
d="M394 214q0 -95 -40 -158.5t-127 -63.5q-88 0 -128 63t-40 159t40 159t128 63q87 0 127 -63.5t40 -158.5zM321 214q0 163 -94 163q-96 0 -96 -163t96 -163q94 0 94 163z" />
    <glyph glyph-name="one.den" horiz-adv-x="367" 
d="M94 292l-35 52l137 84h59v-428h-70v345z" />
    <glyph glyph-name="two.den" horiz-adv-x="452" 
d="M390 0h-330v9q0 43 35.5 83.5t107.5 94.5q68 52 82 70q20 24 20 50q0 31 -23 48.5t-60 17.5q-77 0 -112 -68l-57 33q58 98 173 98q69 0 112 -35t43 -93q0 -66 -75 -124q-20 -16 -57.5 -40t-62.5 -43t-37 -36h241v-65z" />
    <glyph glyph-name="three.den" horiz-adv-x="452" 
d="M198 202l-32 30l122 132h-214v64h302v-46l-107 -115q57 -5 93 -39.5t36 -88.5q0 -60 -45 -103.5t-128 -43.5q-117 0 -171 94l56 34q37 -65 114 -65q44 0 72 22.5t28 60.5q0 34 -23 55t-60 21q-27 0 -43 -12z" />
    <glyph glyph-name="four.den" horiz-adv-x="452" 
d="M399 97h-63v-97h-72v97h-214v56l209 275h77v-271h63v-60zM117 157h149v187z" />
    <glyph glyph-name="five.den" horiz-adv-x="452" 
d="M218 -8q-114 0 -162 84l59 33q30 -54 103 -54q45 0 73 22t28 61t-27.5 61t-74.5 22q-64 0 -101 -40l-40 20l16 227h274v-64h-216l-11 -109q39 24 97 24q68 0 112.5 -38.5t44.5 -100.5q0 -61 -44.5 -104.5t-130.5 -43.5z" />
    <glyph glyph-name="six.den" horiz-adv-x="452" 
d="M374 407l-27 -54q-37 22 -86 22q-65 0 -98 -38t-33 -100q41 46 116 46q66 0 110 -39t44 -102q0 -64 -45.5 -107t-121.5 -43q-82 0 -128 55.5t-46 158.5q0 106 47 165q52 65 155 65q70 0 113 -29zM138 144q0 -38 26 -64.5t71 -26.5q43 0 68 24t25 62q0 37 -24 61t-71 24
q-43 0 -69 -21.5t-26 -58.5z" />
    <glyph glyph-name="seven.den" horiz-adv-x="452" 
d="M395 428v-52l-222 -376h-76l219 364h-258v64h337z" />
    <glyph glyph-name="eight.den" horiz-adv-x="452" 
d="M226 51q94 0 94 75q0 73 -94 73q-47 0 -71 -19.5t-24 -54.5q0 -36 25 -55t70 -19zM226 254q35 0 58.5 14.5t23.5 47.5q0 31 -23.5 46.5t-58.5 15.5t-58.5 -15.5t-23.5 -46.5q0 -33 23.5 -47.5t58.5 -14.5zM226 -8q-78 0 -123 36.5t-45 92.5q0 78 83 109q-69 28 -69 94
q0 52 44 82t110 30q67 0 110.5 -30t43.5 -82q0 -65 -69 -94q84 -31 84 -109q0 -56 -45.5 -92.5t-123.5 -36.5z" />
    <glyph glyph-name="nine.den" horiz-adv-x="452" 
d="M76 21l30 55q34 -22 84 -22q67 0 100 38.5t33 102.5q-42 -50 -119 -50q-66 0 -109 39t-43 102t46 106.5t121 43.5q83 0 128.5 -55.5t45.5 -160.5q0 -106 -47 -163q-51 -65 -154 -65q-71 0 -116 29zM314 286q0 38 -26 63.5t-71 25.5q-43 0 -68 -24t-25 -62q0 -37 24.5 -61
t70.5 -24q43 0 69 22t26 60z" />
    <glyph glyph-name="S_S" horiz-adv-x="1220" 
d="M906 645q-64 0 -107 -29.5t-43 -80.5q0 -63 84 -94q22 -8 63 -19.5t74 -20.5t72 -26t65 -38t43.5 -55.5t17.5 -78.5q0 -95 -70.5 -155.5t-189.5 -60.5q-89 0 -159.5 36t-111.5 100l73 51q34 -55 88.5 -80t114.5 -25q75 0 119.5 34.5t44.5 92.5q0 24 -9 42t-21.5 30
t-38 23t-46.5 17.5t-58 15.5q-43 10 -71.5 18.5t-64.5 25t-58 36.5t-37 52.5t-15 72.5q0 93 70.5 145.5t174.5 52.5q160 0 249 -118l-69 -51q-68 87 -184 87zM296 645q-64 0 -107 -29.5t-43 -80.5q0 -63 84 -94q22 -8 63 -19.5t74 -20.5t72 -26t65 -38t43.5 -55.5
t17.5 -78.5q0 -95 -70.5 -155.5t-189.5 -60.5q-89 0 -159.5 36t-111.5 100l73 51q34 -55 88.5 -80t114.5 -25q75 0 119.5 34.5t44.5 92.5q0 24 -9 42t-21.5 30t-38 23t-46.5 17.5t-58 15.5q-43 10 -71.5 18.5t-64.5 25t-58 36.5t-37 52.5t-15 72.5q0 93 70.5 145.5
t174.5 52.5q160 0 249 -118l-69 -51q-68 87 -184 87z" />
    <glyph glyph-name="f_f_t" horiz-adv-x="956" 
d="M406 519v89q0 117 136 117q39 0 74 -11l-12 -70q-20 10 -52 10q-62 0 -62 -52v-83h216v195h84v-195h136v-73h-136v-297q0 -84 68 -84q38 0 59 16l21 -70q-35 -22 -93 -22q-139 0 -139 148v309h-216v-446h-84v446h-213v-446h-84v446h-85v73h85v89q0 117 136 117
q37 0 74 -11l-12 -70q-20 10 -53 10q-61 0 -61 -52v-83h213z" />
    <glyph glyph-name="f_t" horiz-adv-x="660" 
d="M622 81l20 -70q-33 -22 -92 -22q-139 0 -139 148v309h-216v-446h-84v446h-87v73h87v89q0 117 135 117q40 0 75 -11l-12 -70q-20 10 -53 10q-61 0 -61 -52v-83h216v195h84v-195h136v-73h-136v-297q0 -84 68 -84q38 0 59 16z" />
    <glyph glyph-name="r_f_f" horiz-adv-x="1002" 
d="M340 521v-75q-36 0 -64 -6.5t-56 -24t-43.5 -55t-15.5 -92.5v-268h-84v519h84v-76q20 34 60 58.5t86 24.5q25 0 33 -5zM774 519v89q0 117 136 117q39 0 74 -11l-12 -70q-20 10 -53 10q-61 0 -61 -52v-83h119v-73h-119v-446h-84v446h-213v-446h-84v446h-85v73h85v89
q0 117 136 117q37 0 74 -11l-12 -70q-20 10 -53 10q-61 0 -61 -52v-83h213z" />
    <glyph glyph-name="caron.alt" horiz-adv-x="242" 
d="M181 714l-47 -267h-45v267h92z" />
    <glyph glyph-name="i.trk" horiz-adv-x="238" 
d="M161 0h-84v519h84v-519zM157 618h-77v79h77v-79z" />
    <glyph glyph-name="apple.alt" horiz-adv-x="3250" 
d="M199 714h476q49 0 84 -35t35 -84v-476q0 -49 -35 -84t-84 -35h-476q-49 0 -84 35t-35 84v476q0 49 35 84t84 35zM664 167v380q0 15 -11 26t-27 11h-379q-15 0 -26 -11t-11 -26v-380q0 -15 11 -26t26 -11h379q16 0 27 11t11 26zM1634 6v171q-44 -55 -121 -55
q-73 0 -123.5 49.5t-50.5 121.5q0 71 50.5 120.5t123.5 49.5q76 0 121 -56v42q0 6 5 6h38q6 0 6 -6v-443q0 -6 -6 -6h-38q-5 0 -5 6zM2433 455q5 0 5 -6v-314q0 -5 -5 -5h-38q-6 0 -6 5v42q-44 -55 -120 -55q-74 0 -124.5 49.5t-50.5 121.5q0 71 51 120.5t124 49.5
q78 0 120 -56v42q0 6 6 6h38zM2744 273q8 -45 40.5 -75.5t87.5 -30.5t91 43q6 8 10 8h39q9 0 6 -8q-21 -40 -60.5 -64t-87.5 -24q-72 -1 -123.5 48.5t-51.5 121.5q0 70 49.5 120.5t119.5 50.5q71 0 121.5 -50t50.5 -124q0 -4 -1 -9q0 -7 -7 -7h-284zM1135 394
q72 -17 114.5 -46.5t43.5 -89.5q0 -58 -46 -98q-44 -39 -106 -39h-1q-43 1 -75 17.5t-47 39.5t-22 42t-7 32q0 8 7 8h36q7 0 7 -8q3 -28 29 -53.5t72 -26.5q40 -1 71.5 25t30.5 61q-1 30 -25.5 50.5t-93.5 36.5q-61 15 -89 41q-31 30 -31 81t39 88t95 37q55 0 96 -36
q42 -37 42 -86q0 -7 -7 -7h-37q-7 0 -7 7q-2 29 -25 50t-62 21q-34 0 -58.5 -22t-24.5 -52t16 -46t65 -27zM2269 167q52 0 87.5 36t35.5 89q0 52 -36 89t-87 37q-55 0 -90 -36t-35 -91q0 -54 35 -89t90 -35zM1513 167q52 0 87.5 36t35.5 89q0 52 -36 89t-87 37
q-54 0 -89.5 -36t-35.5 -91q0 -54 35.5 -89t89.5 -35zM1991 135v31q-32 -45 -96 -45q-75 0 -113 50q-29 35 -29 105v173q0 6 5 6h39q5 0 5 -6v-173q0 -110 93 -110q38 0 64 25q32 31 32 92v166q0 6 6 6h38q5 0 5 -6v-314q0 -5 -5 -5h-38q-6 0 -6 5zM361 260h152q9 0 15 6
t6 15v152q0 9 -6 15t-15 6h-152q-9 0 -15 -6t-6 -15v-152q0 -9 6 -15t15 -6zM2568 449v-42q44 56 121 56q7 -1 7 -8v-30q0 -7 -7 -7q-51 0 -86 -36.5t-35 -88.5v-158q0 -5 -5 -5h-38q-6 0 -6 5v314q0 6 6 6h38q5 0 5 -6zM2744 318h240q-10 44 -43 72t-77 28t-77.5 -28.5
t-42.5 -71.5z" />
    </font>
</defs>
</svg>
