<svg xmlns="http://www.w3.org/2000/svg" viewBox="0 0 85.48 56.46"><defs><style>.cls-1{fill:#f97242;}</style></defs><g id="Layer_2" data-name="Layer 2"><g id="Layer_1-2" data-name="Layer 1"><path class="cls-1" d="M21.6,56.46H7.53C2.75,56.45,0,53.7,0,48.92,0,34.68,0,20.75,0,7.53,0,2.74,2.75,0,7.53,0H78.28c4.28,0,7.16,2.82,7.17,7,0,13.47,0,27.34,0,42.4,0,4.2-2.9,7-7.18,7H21.6ZM8.05,2.6C4.1,2.6,2.7,4,2.7,8V48.48c0,4,1.4,5.38,5.33,5.38H77.58c3.72,0,5.17-1.45,5.18-5.18,0-13.57,0-27.32,0-40.87,0-3.74-1.45-5.2-5.16-5.2H8.05Z"/><path class="cls-1" d="M42.73,36.71a2.38,2.38,0,0,1-1.26-.48c-4.5-2.94-9-5.89-13.44-8.73l-.16-.11C22.68,24,17.31,20.55,12,17.06a3,3,0,0,1-1-1.93,3.54,3.54,0,0,1,.68-.6l.43-.34.59.33c.51.27,1,.51,1.37.78l3.86,2.49c7.59,4.89,15.43,10,23.11,15a3,3,0,0,0,1.69.6,3.1,3.1,0,0,0,1.7-.61c7.78-5.09,15.69-10.18,23.34-15.1l3.92-2.53.22-.15a2.48,2.48,0,0,1,1-.49,2.18,2.18,0,0,1,1.48.62,2.35,2.35,0,0,1-.25,1.57,1.71,1.71,0,0,1-.67.5l-.37.22-7.63,4.93-.08.05c-7,4.53-14.25,9.21-21.38,13.86A2.32,2.32,0,0,1,42.73,36.71Z"/><path class="cls-1" d="M10.29,45.71a1.18,1.18,0,0,1-1-.65c-.17-.27-.7-1.09.67-2l4.49-3L15,39.7c3.47-2.31,7.06-4.7,10.61-7a1.79,1.79,0,0,1,.94-.22,2.32,2.32,0,0,1,.72.1c.15,0,.35.4.53.7l.24.42c-.1.12-.19.25-.28.37a4.12,4.12,0,0,1-.79.85C23.44,37.3,19.87,39.68,16.42,42l-.62.41-4.31,2.88A2.24,2.24,0,0,1,10.29,45.71Z"/><path class="cls-1" d="M75.13,45.85l-.39-.21a7.44,7.44,0,0,1-.88-.48l-5.79-3.85-.59-.39Q63.13,38,58.76,35.13c-1.2-.79-1.45-1.38-.95-2.18.38-.6.74-.67,1-.67a3.05,3.05,0,0,1,1.5.64l4.93,3.29c3.36,2.24,6.84,4.55,10.25,6.9A2.62,2.62,0,0,1,76.21,45a3,3,0,0,1-.7.59C75.38,45.66,75.25,45.75,75.13,45.85Z"/></g></g></svg>