<svg xmlns="http://www.w3.org/2000/svg" viewBox="0 0 43.37 77.66"><defs><style>.cls-1{fill:#3e4348;}.cls-2{fill:#f97242;}</style></defs><g id="Layer_2" data-name="Layer 2"><g id="Layer_1-2" data-name="Layer 1"><path class="cls-1" d="M6.93,77.66l-.2-.07-.58-.19A8.09,8.09,0,0,1,.34,71.61c-.07-.26-.16-.53-.24-.79L0,70.51V7.16A.88.88,0,0,0,.05,7a4.43,4.43,0,0,0,.18-.55,8,8,0,0,1,4-5.41A12.32,12.32,0,0,1,6.11.3L6.94,0H36.45l.06,0A2.24,2.24,0,0,0,37,.2a8.15,8.15,0,0,1,6.4,8c0,1.23,0,2.49,0,3.71,0,.55,0,1.09,0,1.64V67.58c0,6-1.36,8-6.9,10.08ZM2.07,65.46a.46.46,0,0,0-.46.46c0,.44,0,.88,0,1.32,0,1,0,1.86,0,2.79a6.41,6.41,0,0,0,6.31,6c4.33,0,8.86,0,13.47,0s9.21,0,14.05,0A6.18,6.18,0,0,0,41.58,71a20.41,20.41,0,0,0,.25-3.44c0-.52,0-1,.05-1.59a.45.45,0,0,0-.46-.48Zm0-54a.46.46,0,0,0-.45.46v51.4a.46.46,0,0,0,.45.46H41.27a.47.47,0,0,0,.46-.46V11.93a.47.47,0,0,0-.46-.46ZM21.22,1.55H8.51a6.8,6.8,0,0,0-5.2,2.13A7.21,7.21,0,0,0,1.68,9.33a.47.47,0,0,0,.46.42H41.28a.46.46,0,0,0,.45-.42,7.27,7.27,0,0,0-1.68-5.69,7,7,0,0,0-5.3-2.08Z"/><path class="cls-1" d="M21.7,72.72a2,2,0,0,1-1.43-.61,1.87,1.87,0,0,1-.57-1.38,2,2,0,0,1,2-2h0a2,2,0,0,1,2,2,1.94,1.94,0,0,1-.56,1.39,2,2,0,0,1-1.44.61Z"/><g id="Layer_2-2" data-name="Layer 2"><g id="Layer_1-2-2" data-name="Layer 1-2"><path class="cls-2" d="M20.21,36.68a2.94,2.94,0,1,0,3-2.89h-.05a2.92,2.92,0,0,0-2.94,2.89h0m10.42,6.63-2.22-2.18a.52.52,0,0,0-.73,0,6.57,6.57,0,0,1-4.52,1.81,6.26,6.26,0,1,1,0-12.52A6.24,6.24,0,0,1,27.27,32a.52.52,0,0,0,.71,0l2.21-2.17a.49.49,0,0,0,0-.7s0,0,0,0a10.42,10.42,0,1,0-7,18,10.71,10.71,0,0,0,7.48-3,.5.5,0,0,0,0-.71h0"/></g></g></g></g></svg>