<svg xmlns="http://www.w3.org/2000/svg" viewBox="0 0 90.7 98.05"><defs><style>.cls-1{fill:#f97242;}</style></defs><g id="Layer_2" data-name="Layer 2"><g id="Layer_1-2" data-name="Layer 1"><path class="cls-1" d="M19.61,35.42h1.23a1.22,1.22,0,0,0-1.23-1.22Zm0,36.77v1.23a1.23,1.23,0,0,0,1.23-1.23Zm51.48,0H69.86a1.23,1.23,0,0,0,1.23,1.23Zm0-36.77V34.2a1.22,1.22,0,0,0-1.23,1.22ZM76,79.91l1.23,0v0ZM19.61,34.2A19.82,19.82,0,0,0,0,53.81H2.45A17.38,17.38,0,0,1,19.61,36.65ZM0,53.81A19.82,19.82,0,0,0,19.61,73.42V71A17.38,17.38,0,0,1,2.45,53.81ZM20.84,72.19V35.42H18.38V72.19Zm50.25,1.23A19.82,19.82,0,0,0,90.7,53.81H88.25A17.38,17.38,0,0,1,71.09,71ZM90.7,53.81A19.82,19.82,0,0,0,71.09,34.2v2.45A17.38,17.38,0,0,1,88.25,53.81ZM69.86,35.42V72.19h2.45V35.42Zm-9.8,57.73a2.39,2.39,0,0,1-2.45,2.45v2.45a4.83,4.83,0,0,0,4.9-4.9ZM57.61,95.6H40.45v2.45H57.61Zm-17.16,0A2.38,2.38,0,0,1,38,93.15H35.54a4.84,4.84,0,0,0,4.91,4.9ZM38,93.15a2.46,2.46,0,0,1,2.45-2.45V88.25a4.92,4.92,0,0,0-4.91,4.9Zm2.45-2.45H57.61V88.25H40.45Zm17.16,0a2.39,2.39,0,0,1,2.45,2.45h2.45a4.83,4.83,0,0,0-4.9-4.9ZM20.84,36.77V34.32H18.38v2.45Zm0-2.45A24.51,24.51,0,0,1,45.35,9.81V7.35a27,27,0,0,0-27,27ZM45.35,9.81A24.51,24.51,0,0,1,69.86,34.32h2.45a27,27,0,0,0-27-27ZM69.86,34.32V38h2.45V34.32ZM13.48,36.77V34.32H11v2.45Zm0-2.45A31.88,31.88,0,0,1,45.35,2.45V0A34.34,34.34,0,0,0,11,34.32ZM45.35,2.45A31.81,31.81,0,0,1,77.22,34.32h2.45A34.26,34.26,0,0,0,45.35,0ZM77.22,34.32v2.45h2.45V34.32Zm-2.45,38v7.6h2.45v-7.6Zm0,7.58c-.06,3.91-.89,7-2.31,9a7,7,0,0,1-6,3.06v2.46a9.4,9.4,0,0,0,8-4.11c1.8-2.57,2.68-6.16,2.75-10.34Zm-8.34,12H61.28v2.46h5.15Z"/></g></g></svg>