<svg xmlns="http://www.w3.org/2000/svg" viewBox="0 0 68.32 62.34"><defs><style>.cls-1{fill:#fe723a;}</style></defs><g id="Layer_2" data-name="Layer 2"><g id="Layer_1-2" data-name="Layer 1"><path class="cls-1" d="M46.3,2.5c3.59,0,7.17,2.79,9.56,5.58a37.92,37.92,0,0,0,8.36-3.59,14.59,14.59,0,0,1-5.57,8,25.53,25.53,0,0,0,7.17-2.39,24,24,0,0,1-6.38,7.56v2c0,19.12-13.14,40.22-37,40.22-7.57,0-14.33-1.59-19.91-5.57,1.19,0,2,.4,3.19.4A24.63,24.63,0,0,0,22,48.29c-5.57,0-10.35-4.38-12.34-9.95.79,0,1.59.4,2.39.4a13.51,13.51,0,0,0,4-.4c-6.37-1.59-10-7.57-10-14.73,0,1.19,2.79,1.59,4.78,2a14.94,14.94,0,0,1-5.57-12A13.68,13.68,0,0,1,6.88,6.48c6.37,8.76,15.53,14.34,26.28,15.13V18c0-8,6-15.53,13.14-15.53m17.92,2h0M46.3,0C38,0,30.66,8.43,30.66,18v.78A33.38,33.38,0,0,1,8.9,5a2.49,2.49,0,0,0-2-1H6.77a2.5,2.5,0,0,0-2,1.22,15.88,15.88,0,0,0-1.95,8.45,18.33,18.33,0,0,0,1.77,8,2.49,2.49,0,0,0-1,2A18.75,18.75,0,0,0,8.11,36.38a2.7,2.7,0,0,0-.49.52,2.53,2.53,0,0,0-.31,2.28,18,18,0,0,0,8.84,10.25A21.8,21.8,0,0,1,5.69,52.17,6,6,0,0,1,4.58,52a10,10,0,0,0-2.08-.25A2.5,2.5,0,0,0,1.05,56.3c5.69,4.07,12.68,6,21.36,6,24.75,0,39.53-21.72,39.53-42.72v-.84a25.17,25.17,0,0,0,6.11-7.6,2.5,2.5,0,0,0-2.23-3.61h0a15.66,15.66,0,0,0,.84-2.34,2.6,2.6,0,0,0,.11-.74A2.5,2.5,0,0,0,64.23,2h-.08a2.55,2.55,0,0,0-1.2.35,37.58,37.58,0,0,1-6.32,2.88C54.5,3.05,50.71,0,46.3,0Z"/></g></g></svg>