<svg xmlns="http://www.w3.org/2000/svg" viewBox="0 0 89.16 83.52"><defs><style>.cls-1{fill:#f97242;}</style></defs><g id="Layer_2" data-name="Layer 2"><g id="Layer_1-2" data-name="Layer 1"><path class="cls-1" d="M66.11,83.52,63.79,83c-1.67-.36-3.41-.72-5.08-1.16C40.45,77,25.52,66.62,13,50c-4-5.3-8.5-11.3-11-18.21C-1.3,22.47-.56,14.34,4.33,7,6.29,4,8.72.83,12.83.25A27.15,27.15,0,0,1,16.74,0c1.05,0,2.17,0,3.65.13,1.31.08,2.34,1,3.15,2.73.74,1.57,1.42,3.22,2.08,4.8l.36.88c.53,1.26,1,2.52,1.55,3.79,1,2.53,2.1,5.15,3.24,7.69a6.12,6.12,0,0,1-.87,7c-1.5,1.82-3,3.54-4.47,5.1a3.14,3.14,0,0,0-.36,4.33c7.14,11.6,16.14,19.49,27.53,24.1a6.88,6.88,0,0,0,2.5.63c1.31,0,2.2-.79,3.19-2.06,1.13-1.45,2.23-3,3.29-4.43L62.8,53c1.37-1.87,2.75-2.74,4.35-2.74a6.52,6.52,0,0,1,2.69.67c4.46,2,8.94,4.24,13.27,6.36l4,2a3.4,3.4,0,0,1,2,3.38C89.08,73.42,84.72,79,73.63,82.6a22.14,22.14,0,0,1-2.94.66c-.45.08-.91.16-1.37.26ZM13.21,2a.6.6,0,0,0-.29.08c-.37.21-.75.39-1.11.57A9.29,9.29,0,0,0,9.66,4,22.21,22.21,0,0,0,2.27,18.29C1.54,24.66,3.09,31,6.88,37.18a152.91,152.91,0,0,0,10,14.34A80.41,80.41,0,0,0,60.74,80.36a27.33,27.33,0,0,0,6.83.93A22.28,22.28,0,0,0,82.5,75.5,9.25,9.25,0,0,0,86,69.79a.6.6,0,0,0-.32-.64l-23-11.49a.54.54,0,0,0-.27-.07.63.63,0,0,0-.49.24l-.56.75c-.38.51-.74,1-1.12,1.47-1.77,2.26-3.21,3.19-5,3.19a9.86,9.86,0,0,1-3.7-.92C39.92,57.54,30.79,49.57,23.62,38c-2.08-3.35-2-4.26.47-7.45a2.33,2.33,0,0,0,.39-2c-2.93-7.21-5.84-14.3-8.93-21.79L13.78,2.38A.59.59,0,0,0,13.41,2,.45.45,0,0,0,13.21,2Zm54,50.37c-1.86,0-2.74,1.61-3.31,3a.61.61,0,0,0,.29.77L86,67.05a.68.68,0,0,0,.27.07.62.62,0,0,0,.61-.58c0-.43.06-.84.09-1.22a13.2,13.2,0,0,0,.07-2.49,2.69,2.69,0,0,0-1.31-2C79.45,57.72,74.3,55.22,69.55,53A5.48,5.48,0,0,0,67.25,52.37ZM18.47,1.91c-.45,0-1,0-1.77.1a.64.64,0,0,0-.47.29.63.63,0,0,0,0,.55l9.9,24a.61.61,0,0,0,.42.36h.14a.6.6,0,0,0,.4-.15c2.35-2.06,2.83-4.22,1.55-7-1.53-3.35-2.94-6.84-4.31-10.21-.61-1.49-1.23-3-1.86-4.56C21.43,2.89,20.79,1.91,18.47,1.91Z"/><path class="cls-1" d="M45.1,66a2.19,2.19,0,0,1-1-.32A61.81,61.81,0,0,1,31,56.23C29.3,54.69,27.61,53,25.81,51a1.91,1.91,0,0,1-.28-1.37h0a2.27,2.27,0,0,1,.24-.22,1,1,0,0,1,.56-.19.87.87,0,0,1,.5.15,3.58,3.58,0,0,1,.67.55,66.9,66.9,0,0,0,17.63,14c1.11.6,1,1.09.74,1.51S45.32,66,45.1,66Z"/><path class="cls-1" d="M21.9,45.64c-.24,0-1.1-.66-2.12-2.13a5.6,5.6,0,0,1-1.27-2.75,1,1,0,0,1,1-.72.85.85,0,0,1,.67.34,30.25,30.25,0,0,1,2.67,3.89.85.85,0,0,1,0,.88,1.06,1.06,0,0,1-.91.49Z"/></g></g></svg>