<svg xmlns="http://www.w3.org/2000/svg" viewBox="0 0 42.98 68.3"><defs><style>.cls-1{fill:#fe723a;}</style></defs><g id="Layer_2" data-name="Layer 2"><g id="Layer_1-2" data-name="Layer 1"><path class="cls-1" d="M28.61,2.5c4.35,0,9.49.4,9.49.4V14.37H34.54c-4.74,0-8.3,1.58-8.3,5.14v6.73H40.48L38.9,38.1H26.24V65.8H14.37V38.1H2.5V26.24H14.37V18.32C14.37,8,19.51,2.5,28.61,2.5M40.48,26.24h0M28.61,0C18,0,11.87,6.68,11.87,18.32v5.42H2.5A2.5,2.5,0,0,0,0,26.24V38.1a2.5,2.5,0,0,0,2.5,2.5h9.37V65.8a2.5,2.5,0,0,0,2.5,2.5H26.24a2.5,2.5,0,0,0,2.5-2.5V40.6H38.9a2.48,2.48,0,0,0,2.47-2.17l1.57-11.75a2.12,2.12,0,0,0,0-.44,2.5,2.5,0,0,0-2.5-2.5H28.74V19.51c0-2.45,4.44-2.64,5.8-2.64H38.1a2.5,2.5,0,0,0,2.5-2.5V2.9A2.5,2.5,0,0,0,38.3.4C38.08.39,33,0,28.61,0Z"/></g></g></svg>