<svg viewBox="0 0 76 76" xmlns="http://www.w3.org/2000/svg"><g fill="none" fill-rule="evenodd"><path d="M71 23c0 .6-.4 1-1 1s-1-.4-1-1 .4-1 1-1 1 .4 1 1" fill="#2D3B4D"/><path stroke="#2D3B4D" stroke-width="2" stroke-linecap="round" stroke-linejoin="round" d="M18 46v29h38V52M18 63h38M25 71v-4M33 71v-4M41 71v-4M49 71v-4M69.8 27c0 5.7-1.7 10.7-5.8 14"/><path d="M49 53c14.4 0 26-11.6 26-26S63.4 1 49 1c-7 0-13.6 3-18.3 7.5C27.7 7 24.5 6 21 6 10 6 1 15 1 26s9 20 20 20" stroke="#2D3B4D" stroke-width="2" stroke-linecap="round" stroke-linejoin="round"/></g></svg>