<?xml version="1.0" encoding="utf-8"?>
<!-- Generator: Adobe Illustrator 21.0.2, SVG Export Plug-In . SVG Version: 6.00 Build 0)  -->
<svg version="1.1" id="Layer_1" xmlns="http://www.w3.org/2000/svg" xmlns:xlink="http://www.w3.org/1999/xlink" x="0px" y="0px"
	 viewBox="0 0 76 76" style="enable-background:new 0 0 76 76;" xml:space="preserve">
<style type="text/css">
	.st0{fill:none;stroke:#2D3B4D;stroke-width:2;stroke-linecap:round;stroke-linejoin:round;}
</style>
<g>
	<path class="st0" d="M69.8,42.5c-1.6,0-2.4-1-2.4-2s0.8-1.8,2.4-1.8h2.8c1.6,0,2.4,0.8,2.4,2c0,1-0.8,1.8-2.4,1.8H69.8z M28,59.5
		c-1.5,0-2.3-1-2.3-2s0.8-1.8,2.3-1.8h20c1.5,0,2.3,0.8,2.3,2c0,1-0.8,1.8-2.3,1.8H28z M58,67.2v3.7c0,1,0.8,2,1.8,2h3.8
		c1,0,2-1,2-2v-3.7 M18,67.2v3.7c0,1-0.8,2-1.8,2h-3.8c-1,0-2-1-2-2v-3.7"/>
	<path class="st0" d="M8.6,57.7v6.5c0,1.8,2,3,3.8,3h52.2c1.7,0,2.8-1.2,2.8-3v-6.5 M67.4,40.5h-3.8 M6.2,42.5c1.6,0,2.4-1,2.4-2
		s-0.8-1.8-2.4-1.8H3.4c-1.6,0-2.4,0.8-2.4,2c0,1,0.8,1.8,2.4,1.8H6.2z M8.6,40.5h3.8 M22.8,49.2h30.4 M54,29.1c1,0,2,0.6,2.6,1.6
		l5,9.8 M14.6,40.5l4.8-9.8c0.6-1,1.6-1.6,2.6-1.6h32"/>
	<path class="st0" d="M67.4,57.7v-9.5l-3.8-7.6H12.4l-3.8,7.6v9.5"/>
	<path class="st0" d="M16.2,49.2c0.5,0,1,0.3,1,1v1.8c0,0.5-0.5,1-1,1H8.6v-4h7.6 M67.4,49.2v3.7h-7.6c-0.5,0-1-0.4-1-1v-1.7
		c0-0.7,0.5-1,1-1H67.4"/>
</g>
</svg>
