<svg width="80" height="80" viewBox="0 0 80 80" fill="none" xmlns="http://www.w3.org/2000/svg">
  <path d="M67.206 70.607a1 1 0 0 0 1.588-1.214l-1.588 1.214zm-56-1.214a1 1 0 0 0 1.588 1.214l-1.588-1.214zM59 30c0 10.451-8.456 19-19 19v2c11.656 0 21-9.451 21-21h-2zM40 49c-10.448 0-19-8.552-19-19h-2c0 11.552 9.448 21 21 21v-2zM21 30c0-10.451 8.456-19 19-19V9c-11.655 0-21 9.451-21 21h2zm19-19c10.548 0 19 8.452 19 19h2c0-11.652-9.348-21-21-21v2zm28.794 58.393C62.118 60.662 51.732 55 40 55v2c11.068 0 20.882 5.338 27.206 13.607l1.588-1.214zM40 55c-11.732 0-22.118 5.662-28.794 14.393l1.588 1.214C19.118 62.338 28.932 57 40 57v-2z" fill="#3e4348"></path>
</svg>