<svg width="80" height="80" viewBox="0 0 80 80" fill="none" xmlns="http://www.w3.org/2000/svg">
  <path d="M16.1 28.6h-1 1zm55.805 48.006a1 1 0 0 0 1.59-1.212l-1.59 1.212zm-66.2-1.212a1 1 0 0 0 1.59 1.212l-1.59-1.212zM17.43 61.493a1 1 0 1 0 1.74-.986l-1.74.986zm-17.3-.986a1 1 0 1 0 1.74.986l-1.74-.986zm77.3.986a1 1 0 1 0 1.74-.986l-1.74.986zm-17.387-1.008a1 1 0 0 0 1.715 1.03l-1.715-1.03zM62.3 28.6c0 12.545-10.15 22.6-22.6 22.6v2c13.55 0 24.6-10.945 24.6-24.6h-2zM39.7 51.2c-12.448 0-22.6-10.152-22.6-22.6h-2c0 13.552 11.047 24.6 24.6 24.6v-2zM17.1 28.6C17.1 16.15 27.155 6 39.7 6V4C26.045 4 15.1 15.05 15.1 28.6h2zM39.7 6c12.447 0 22.6 10.152 22.6 22.6h2C64.3 15.048 53.252 4 39.7 4v2zm33.795 69.394C65.62 65.063 53.433 58.4 39.6 58.4v2c13.167 0 24.78 6.337 32.305 16.206l1.59-1.212zM39.6 58.4c-13.833 0-26.02 6.663-33.895 16.994l1.59 1.212C14.82 66.736 26.433 60.4 39.6 60.4v-2zM14.7 46c0 2.748-2.253 5-5 5v2c3.852 0 7-3.148 7-7h-2zm-5 5c-2.748 0-5-2.252-5-5h-2c0 3.852 3.147 7 7 7v-2zm-5-5c0-2.748 2.252-5 5-5v-2c-3.853 0-7 3.148-7 7h2zm5-5c2.747 0 5 2.252 5 5h2c0-3.852-3.148-7-7-7v2zm9.47 19.507C17.293 57.194 13.66 55 9.6 55v2c3.34 0 6.307 1.806 7.83 4.493l1.74-.986zM9.6 55a10.839 10.839 0 0 0-9.47 5.507l1.74.986A8.839 8.839 0 0 1 9.6 57v-2zm65.1-9c0 2.748-2.253 5-5 5v2c3.852 0 7-3.148 7-7h-2zm-5 5c-2.749 0-5-2.252-5-5h-2c0 3.852 3.147 7 7 7v-2zm-5-5c0-2.748 2.251-5 5-5v-2c-3.853 0-7 3.148-7 7h2zm5-5c2.747 0 5 2.252 5 5h2c0-3.852-3.148-7-7-7v2zm9.47 19.507C77.293 57.194 73.661 55 69.6 55v2c3.34 0 6.308 1.806 7.83 4.493l1.74-.986zM69.6 55c-4.076 0-7.59 2.206-9.557 5.486l1.715 1.029C63.39 58.793 66.277 57 69.6 57v-2z" fill="#3e4348"></path>
</svg>