<svg id="Layer_1" data-name="Layer 1" xmlns="http://www.w3.org/2000/svg" viewBox="0 0 131 44">
  <defs>
    <style>
      .cls-1 {
        fill: #fff;
      }
    </style>
  </defs>
  <title>app-store-white</title>
  <path class="cls-1" d="M95.75,10l.07.86h0a2.09,2.09,0,0,1,1.84-1c1,0,2,.64,2,2.46v3.41H98.29V12.46c0-.82-.31-1.45-1.1-1.45a1.22,1.22,0,0,0-1.13.85,1.43,1.43,0,0,0-.07.46v3.39H94.54v-4c0-.67,0-1.22-.05-1.71Z"/>
  <rect class="cls-1" x="74.59" y="7.34" width="1.45" height="8.37"/>
  <path class="cls-1" d="M54.52,7.57a.79.79,0,0,1,.18,1.57h-.18a.76.76,0,0,1-.8-.72V8.36a.78.78,0,0,1,.77-.79Z"/>
  <rect class="cls-1" x="53.79" y="9.97" width="1.45" height="5.74"/>
  <path class="cls-1" d="M43.71,15.71H42.28L40.15,10h1.57l.93,2.91A13.2,13.2,0,0,1,43,14.32h0c.1-.48.24-.92.39-1.44l1-2.88H45.9Z"/>
  <rect class="cls-1" x="57.51" y="7.34" width="1.45" height="8.37"/>
  <path class="cls-1" d="M82.79,33.56a6.13,6.13,0,0,1-4.21,1.35,7.29,7.29,0,0,1-4-1l.57-2.06a7,7,0,0,0,3.58,1,3.39,3.39,0,0,0,2.18-.63,2.09,2.09,0,0,0,.77-1.69A2.17,2.17,0,0,0,81,29a6.05,6.05,0,0,0-2.13-1.19c-2.7-1-4-2.49-4-4.42a3.92,3.92,0,0,1,1.42-3.12A5.67,5.67,0,0,1,80.08,19a7.61,7.61,0,0,1,3.51.73l-.62,2A6.13,6.13,0,0,0,80,21a3.07,3.07,0,0,0-2,.64,1.88,1.88,0,0,0-.62,1.4A1.92,1.92,0,0,0,78,24.6a8.37,8.37,0,0,0,2.25,1.19,7.57,7.57,0,0,1,2.94,1.88,4,4,0,0,1,.94,2.68A4.11,4.11,0,0,1,82.79,33.56Z"/>
  <path class="cls-1" d="M91.52,25.4H88.79v5.41c0,1.38.49,2.06,1.45,2.06a4.52,4.52,0,0,0,1.1-.11l.07,1.88a5.74,5.74,0,0,1-1.93.27A3,3,0,0,1,87.19,34a4.41,4.41,0,0,1-.83-3V25.39H84.74V23.54h1.62v-2l2.43-.73v2.77h2.73Z"/>
  <path class="cls-1" d="M104.24,10h.82V8.89l1.42-.4V10h1.38v1.08h-1.38v2.53c0,.71.19,1.06.74,1.06a2.2,2.2,0,0,0,.57-.05v1.09a3.08,3.08,0,0,1-1,.16,1.66,1.66,0,0,1-1.25-.48,2.27,2.27,0,0,1-.45-1.61v-2.7h-.82Z"/>
  <path class="cls-1" d="M110.6,25.72a3.42,3.42,0,0,0-.78-.06,2.33,2.33,0,0,0-2,1,3.73,3.73,0,0,0-.62,2.2V34.7h-2.47V27.05c0-1.28,0-2.45-.07-3.51h2.15l.1,2.13H107a3.65,3.65,0,0,1,1.23-1.76,3,3,0,0,1,1.79-.59,3.21,3.21,0,0,1,.62,0v2.36Z"/>
  <path class="cls-1" d="M111,12.26v3.45h-1.44V7.34H111v3.4h0a1.93,1.93,0,0,1,.72-.64,2,2,0,0,1,1-.26c1,0,2,.64,2,2.48v3.39h-1.45V12.48c0-.83-.3-1.47-1.1-1.47a1.23,1.23,0,0,0-1.14.82A1.56,1.56,0,0,0,111,12.26Z"/>
  <path class="cls-1" d="M37.15,7.76H35.3l-2.55,8h1.5l.68-2.26h2.51l.72,2.26h1.57Zm-2,4.6.61-2c.13-.47.26-1,.38-1.48h0c.11.46.24,1,.4,1.48l.62,2Z"/>
  <path class="cls-1" d="M56.62,24.87a4.42,4.42,0,0,0-6.23-.51,4.38,4.38,0,0,0-.83.94h0l-.14-1.76H47.2c.06,1.25.1,2.47.1,3.66v12h2.47V33.35A3.43,3.43,0,0,0,53,34.94a4.54,4.54,0,0,0,3.44-1.47A6.28,6.28,0,0,0,57.94,29,6.24,6.24,0,0,0,56.62,24.87Zm-2,7A2.54,2.54,0,0,1,52.45,33a2.51,2.51,0,0,1-1.94-.84,3,3,0,0,1-.74-2V28.24a3.88,3.88,0,0,1,.11-.75,2.89,2.89,0,0,1,1-1.6,2.62,2.62,0,0,1,3.69.33l.13.17a4.59,4.59,0,0,1,.73,2.67,4.8,4.8,0,0,1-.8,2.85Z"/>
  <path class="cls-1" d="M101.73,24.94a5.08,5.08,0,0,0-4-1.62,5.2,5.2,0,0,0-4,1.64,6,6,0,0,0-1.5,4.25,5.92,5.92,0,0,0,1.45,4.1,5,5,0,0,0,3.91,1.63,5.25,5.25,0,0,0,4.08-1.7A6.09,6.09,0,0,0,103.15,29,5.92,5.92,0,0,0,101.73,24.94Zm-1.84,6.79a2.53,2.53,0,0,1-4.47,0,4.87,4.87,0,0,1-.67-2.63,5,5,0,0,1,.67-2.67,2.59,2.59,0,0,1,3.51-1,2.55,2.55,0,0,1,1,1,5,5,0,0,1,.66,2.63A4.92,4.92,0,0,1,99.89,31.73Z"/>
  <path class="cls-1" d="M68.86,24.87a4.41,4.41,0,0,0-6.22-.45,4.36,4.36,0,0,0-.78.88h0l-.14-1.76H59.45q.09,1.88.09,3.66v12H62V33.35a3.43,3.43,0,0,0,3.17,1.59,4.54,4.54,0,0,0,3.44-1.47A6.31,6.31,0,0,0,70.18,29,6.11,6.11,0,0,0,68.86,24.87Zm-2,7A2.54,2.54,0,0,1,64.69,33a2.49,2.49,0,0,1-1.93-.84,3,3,0,0,1-.74-2V28.24a2.72,2.72,0,0,1,.11-.75,2.81,2.81,0,0,1,1-1.6,2.52,2.52,0,0,1,1.66-.61A2.58,2.58,0,0,1,67,26.39a4.59,4.59,0,0,1,.73,2.67,4.8,4.8,0,0,1-.8,2.85Z"/>
  <path class="cls-1" d="M40.78,19.23H37.71l-5,15.45H35.3l1.38-4.53h5l1.44,4.53h2.64Zm-3.67,9,1.29-4c.34-1.29.58-2.26.73-2.91h0q.57,2.28.78,2.91l1.3,4Z"/>
  <path class="cls-1" d="M121.28,28.59a6.09,6.09,0,0,0-1-3.52,4.15,4.15,0,0,0-3.65-1.78,4.76,4.76,0,0,0-3.9,1.78,6.45,6.45,0,0,0-1.37,4.2,5.63,5.63,0,0,0,1.48,4.1,5.41,5.41,0,0,0,4.06,1.52,9.24,9.24,0,0,0,3.74-.69l-.39-1.72a7.92,7.92,0,0,1-3,.53,3.67,3.67,0,0,1-2.43-.78,3.23,3.23,0,0,1-1.08-2.52h7.43A6,6,0,0,0,121.28,28.59Zm-7.52-.65A3.62,3.62,0,0,1,114.5,26a2.37,2.37,0,0,1,2-1,2.17,2.17,0,0,1,2,1,3.41,3.41,0,0,1,.48,1.9Z"/>
  <path class="cls-1" d="M70.54,9.84a2.08,2.08,0,0,0-1.84.92h0V7.34H67.23v8.37h1.24l.07-.86h0a2,2,0,0,0,1.81,1c1.3,0,2.61-1,2.61-3.09C73,11,71.94,9.84,70.54,9.84ZM70,14.69a1.32,1.32,0,0,1-1.28-1,1,1,0,0,1,0-.34v-.93a1.21,1.21,0,0,1,0-.38A1.33,1.33,0,0,1,70,11c1,0,1.45.82,1.45,1.84S70.91,14.69,70,14.69Z"/>
  <path class="cls-1" d="M83,12.63a2.48,2.48,0,0,0-2.17-2.77l-.3,0a2.84,2.84,0,0,0-2.82,2.86,1.77,1.77,0,0,0,0,.23,2.71,2.71,0,0,0,2.51,2.9,2.68,2.68,0,0,0,.49,0,5.28,5.28,0,0,0,2-.36l-.22-1a4.53,4.53,0,0,1-1.59.26,1.56,1.56,0,0,1-1.76-1.33c0-.06,0-.11,0-.16H83Q83,12.93,83,12.63Zm-3.89-.4a1.41,1.41,0,0,1,1.34-1.4,1.24,1.24,0,0,1,1.2,1.28.49.49,0,0,1,0,.12Z"/>
  <path class="cls-1" d="M90.22,9.84a2.83,2.83,0,0,0-3,2.65,2,2,0,0,0,0,.35,2.78,2.78,0,0,0,2.55,3h.33a2.86,2.86,0,0,0,3-2.75c0-.1,0-.21,0-.31a2.74,2.74,0,0,0-2.55-2.93Zm0,4.95c-.88,0-1.43-.84-1.43-1.95,0-.95.41-1.95,1.44-1.95s1.39,1,1.39,1.93c0,1.18-.62,2-1.44,2Z"/>
  <path class="cls-1" d="M65.71,14.33V12.26a2.14,2.14,0,0,0-1.85-2.41,1.81,1.81,0,0,0-.52,0,4.18,4.18,0,0,0-2.08.5l.29.95a3,3,0,0,1,1.54-.43c1,0,1.17.63,1.17,1V12c-2.13,0-3.41.73-3.41,2.17a1.7,1.7,0,0,0,1.7,1.7h.1a2.08,2.08,0,0,0,1.7-.76h0l.1.63H65.8A8.35,8.35,0,0,1,65.71,14.33Zm-1.42-.64a1.71,1.71,0,0,1,0,.32,1.21,1.21,0,0,1-1.15.79.75.75,0,0,1-.82-.69V14c0-.87,1-1.08,2-1.07v.79Z"/>
  <path class="cls-1" d="M121.23,12.63a2.48,2.48,0,0,0-2.17-2.77l-.3,0A2.84,2.84,0,0,0,116,12.75a1.09,1.09,0,0,0,0,.18,2.71,2.71,0,0,0,2.51,2.9,2.68,2.68,0,0,0,.49,0,5.28,5.28,0,0,0,2-.36l-.21-1a4.53,4.53,0,0,1-1.59.26,1.56,1.56,0,0,1-1.76-1.33c0-.06,0-.11,0-.16h3.84A3,3,0,0,0,121.23,12.63Zm-3.89-.4a1.43,1.43,0,0,1,1.33-1.4,1.22,1.22,0,0,1,1.2,1.24.86.86,0,0,1,0,.16Z"/>
  <path class="cls-1" d="M51.55,14.33V12.26A2.14,2.14,0,0,0,49.7,9.85a1.81,1.81,0,0,0-.52,0,4.18,4.18,0,0,0-2.08.5l.29.95a3,3,0,0,1,1.54-.43c1,0,1.17.63,1.17,1V12c-2.13,0-3.41.73-3.41,2.17a1.7,1.7,0,0,0,1.7,1.7h.1a2.08,2.08,0,0,0,1.7-.76h0l.1.63H51.6A7.39,7.39,0,0,1,51.55,14.33Zm-1.42-.64a1.71,1.71,0,0,1,0,.32A1.19,1.19,0,0,1,49,14.8a.75.75,0,0,1-.82-.69V14c0-.87,1-1.08,2-1.07Z"/>
  <path class="cls-1" d="M23.11,7.38H12.22A2.54,2.54,0,0,0,9.68,9.91V34.1a2.54,2.54,0,0,0,2.54,2.54H23.11a2.54,2.54,0,0,0,2.54-2.54h0V9.91A2.54,2.54,0,0,0,23.11,7.38ZM16.4,10h2.52a.3.3,0,1,1,.11.59H16.4a.3.3,0,0,1-.11-.59Zm1.26,25.34a1.67,1.67,0,1,0,0-.05h0Zm6.44-3.75H11.22v-19H24.1Z"/>
</svg>
