<svg width="275" height="207" viewBox="0 0 275 207" fill="none" xmlns="http://www.w3.org/2000/svg">
<path d="M203.509 19.3629C227.241 24.5696 245.506 45.7682 253.533 70.1746C261.561 94.5809 259.35 122.195 242.132 139.953C224.973 157.712 192.748 165.615 161.278 174.541C129.751 183.467 98.9802 193.369 80.1918 184.582C61.3452 175.842 54.4814 148.414 43.2549 126.193C32.0284 104.018 16.4393 87.0498 18.1262 71.3833C19.8712 55.6702 38.8923 41.2589 58.9603 35.5873C79.0284 29.8692 100.085 32.891 125.272 28.986C150.459 25.0809 179.718 14.2027 203.509 19.3629Z" fill="#ECFBFB"/>
<path d="M138.339 88.5266C138.339 88.5266 140.821 82.1501 147.273 82.3062C153.724 82.4618 159.437 88.5266 159.437 88.5266H138.339Z" fill="white"/>
<path d="M135.273 86.969C135.273 86.969 136.632 94.1666 140.524 94.5536C144.415 94.941 156.866 94.7472 156.866 94.7472C156.866 94.7472 160.756 89.8859 160.559 87.163C155.307 87.1629 135.273 86.969 135.273 86.969Z" fill="#67786E"/>
<path d="M142.299 80.9557C142.222 81.7105 142.448 83.0225 142.459 83.3481C142.476 83.6695 142.745 83.8906 143.219 83.8818C143.692 83.872 145.624 84.1033 145.828 83.872C146.031 83.6412 145.954 82.6078 145.976 81.8753C145.998 81.1443 145.954 80.8661 145.355 80.8707C144.743 80.8795 142.371 80.2474 142.299 80.9557Z" fill="#D65125"/>
<path d="M149.195 81.4506C149.046 81.7107 148.914 82.1774 148.804 82.7111C148.694 83.2443 148.534 83.7589 148.914 84.0278C149.294 84.2925 150.252 84.4858 150.571 84.5141C150.89 84.542 151.815 84.6697 151.952 84.1978C152.09 83.7254 152.365 82.7868 152.37 82.4236C152.382 82.0599 152.37 81.8426 151.704 81.72C151.044 81.5973 149.294 81.2815 149.195 81.4506Z" fill="#B13D27"/>
<path d="M151.028 84.0878C150.807 83.6768 150.472 83.3415 149.64 83.5542C148.804 83.7669 147.301 84.0637 147.07 84.21C146.844 84.3563 147.202 85.3381 147.406 85.7018C147.61 86.065 147.753 86.8388 148.05 86.8815C148.347 86.9238 150.097 86.5322 150.687 86.4143C151.275 86.2963 151.87 86.3813 151.831 86.0887C151.793 85.7956 151.308 85.2387 151.27 84.9415C151.231 84.6447 151.028 84.0878 151.028 84.0878Z" fill="#D65125"/>
<path d="M152.891 82.2306L152.962 83.3397C152.962 83.3397 153.716 83.4721 153.904 83.4582C154.091 83.4433 154.173 83.1981 154.234 82.9858C154.294 82.7782 154.102 82.1786 154.102 82.1786L152.891 82.2306Z" fill="#80B480"/>
<path d="M143.62 85.4995L143.67 86.2658C143.67 86.2658 144.187 86.3559 144.319 86.3462C144.446 86.3369 144.507 86.1669 144.545 86.0201C144.589 85.878 144.457 85.4669 144.457 85.4669L143.62 85.4995Z" fill="#80B480"/>
<path d="M143.054 82.9203L143.103 83.6862C143.103 83.6862 143.621 83.7763 143.753 83.7665C143.885 83.7572 143.94 83.5872 143.978 83.4405C144.023 83.2983 143.89 82.8873 143.89 82.8873L143.054 82.9203Z" fill="#80B480"/>
<path d="M146.204 83.4626C146.589 83.4153 148.164 83.4487 148.164 83.4487C148.164 83.4487 148.34 84.2271 148.488 84.4306C148.637 84.6331 148.313 85.1992 148.313 85.1992L146.589 85.1054L146.204 83.4626Z" fill="#80B480"/>
<path d="M144.333 81.9879C144.273 81.8556 143.87 82.4552 143.87 82.4552C143.87 82.4552 144.327 83.0028 144.536 83.0924C144.746 83.182 144.971 83.1203 145.115 82.9791C145.258 82.8374 145.55 82.4505 145.44 82.2996C145.329 82.1533 144.421 82.1765 144.333 81.9879Z" fill="#80B480"/>
<path d="M141.78 87.5637L145.682 86.8967L145.776 87.1526L141.731 87.7912L141.78 87.5637Z" fill="#28362C"/>
<path d="M143.751 81.6905L147.654 81.0235L147.747 81.279L143.702 81.9176L143.751 81.6905Z" fill="#28362C"/>
<path d="M148.505 86.0233L151.912 87.8351L151.704 88.0618L148.224 86.1508L148.505 86.0233Z" fill="#28362C"/>
<path d="M152.326 81.9518C152.37 82.074 151.247 83.433 151.043 83.6647C150.84 83.896 150.334 84.4576 150.334 84.4576C150.334 84.4576 150.179 84.321 150.323 84.2407C150.46 84.1603 151.985 82.2305 152.068 82.1209C152.15 82.0127 152.326 81.9518 152.326 81.9518Z" fill="#28362C"/>
<path d="M99.9148 83.2218C100.12 83.8395 112.676 116.171 112.676 116.171L90.2412 116.583L99.9148 83.2218Z" fill="#AF8180"/>
<path d="M134.77 166.571C134.77 166.571 135.014 179.065 134.94 179.995C134.797 181.802 144.169 180.093 144.169 180.093L145.956 166.868L134.77 166.571Z" fill="#F6ED75"/>
<path d="M108.364 158.077C108.364 158.077 103.692 168.529 103.371 169.152C103.05 169.775 110.843 174.042 110.843 174.042L118.335 163.323L108.364 158.077Z" fill="#F6ED75"/>
<path d="M134.747 176.265C134.67 176.574 134.67 180.118 134.593 181.428C134.516 182.738 134.362 186.667 133.669 188.131C132.976 189.595 132.877 195.762 132.877 195.762L163.162 196.474C163.162 196.474 164.115 192.304 161.972 191.232C159.064 189.777 154.51 190.756 151.767 188.209C148.991 185.632 146.222 181.89 145.837 180.272C145.452 178.654 145.221 176.881 145.298 176.651C145.375 176.419 134.747 176.265 134.747 176.265Z" fill="#354239"/>
<path d="M132.74 195.764C132.74 195.764 132.722 198.551 133.204 198.75C133.559 198.896 157.701 198.768 158.703 198.691C159.704 198.614 162.996 198.647 162.996 198.647C162.996 198.647 163.612 197.223 163.562 196.176C163.532 195.545 159.902 195.839 156.975 195.763C154.049 195.686 132.74 195.764 132.74 195.764Z" fill="white"/>
<path d="M140.489 176.563C140.489 176.178 140.951 174.02 142.568 173.558C144.185 173.096 146.188 173.404 146.188 173.404L145.184 177.534L140.489 176.563Z" fill="#455248"/>
<path d="M104.303 166.712C104.099 166.947 102.532 170.048 101.886 171.159C101.239 172.271 99.1565 175.416 98.1144 176.614C96.7078 178.23 94.0488 182.938 94.0488 182.938L106.861 195.55L121.399 196.493C121.399 196.493 122.133 193.55 120.733 191.664C118.833 189.105 114.446 189.141 112.476 187.115C110.645 183.118 111.853 176.709 112.231 175.124C112.61 173.538 113.191 171.886 113.361 171.717C113.53 171.55 104.303 166.712 104.303 166.712Z" fill="#354239"/>
<path d="M93.9262 182.889C92.5466 183.342 92.9147 185.309 92.9147 185.309C92.9147 185.309 104.297 196.975 106.242 198.077C108.188 199.178 120.947 198.488 120.947 198.488C120.947 198.488 122.194 196.378 121.613 195.99C121.317 195.792 107.575 195.657 107.575 195.657C107.575 195.657 94.4758 182.708 93.9262 182.889Z" fill="white"/>
<path d="M109.184 169.504C109.355 169.168 110.712 167.485 112.331 167.796C113.95 168.108 115.565 169.263 115.565 169.263L112.862 172.431L109.184 169.504Z" fill="#455248"/>
<path d="M153.092 95.6669C155.924 94.8137 158.316 93.516 158.316 93.516C158.316 93.516 159.804 90.0786 154.138 89.8004C148.473 89.5222 145.722 89.4386 141.472 88.5924C137.222 87.7457 131.837 84.3501 131.837 84.3501L130.928 94.9094L153.092 95.6669Z" fill="#AD8E7D"/>
<path fill-rule="evenodd" clip-rule="evenodd" d="M174.719 75.9807C174.729 76.7483 172.669 95.5426 172.669 95.5426L164.71 95.4786L163.38 75.7986L174.719 75.9807Z" fill="#FF3008"/>
<path d="M165.062 62.8851L167.842 75.7619" stroke="white" stroke-width="0.172374"/>
<path d="M137.342 99.6806L174.906 198.333L137.342 99.6806Z" fill="white"/>
<path d="M187.192 99.6806L149.627 198.333L187.192 99.6806Z" fill="white"/>
<path d="M64.868 107.27C64.4878 113.729 67.2452 121.715 67.2749 121.743C70.1363 124.529 77.1027 128.419 96.6156 129.557C104.918 130.041 118.021 129.969 118.021 129.969C118.021 129.969 111.368 143.937 104.437 158.697L118.021 167.861C118.021 167.861 141.222 130.195 136.34 124.821C122.719 117.758 94.309 107.396 93.94 106.956C90.4598 102.82 65.0017 97.8436 65.0017 97.8436L64.868 107.27Z" fill="#37493E"/>
<path d="M61.6349 112.461C60.0496 118.733 63.4875 124.405 65.3397 126.67C67.8098 131.612 83.5956 130.377 95.802 130.377C108.008 130.377 132.336 133.363 132.336 133.363C132.336 133.363 131.037 168.026 132.336 169.812C133.634 171.6 145.753 171.984 147.052 169.71C148.351 167.435 150.86 125.331 149.316 121.933C147.772 118.536 142.708 115.403 137.779 114.653C132.85 113.902 63.0758 102.782 63.0758 102.782L61.6349 112.461Z" fill="#42564A"/>
<path d="M151.955 95.1803C152.712 94.8779 158.812 95.3856 160.762 95.6679C163.072 96.0028 164.051 96.4872 164.878 96.6085C166.23 96.8054 166.776 96.575 166.836 95.8965C166.896 95.2193 166.211 94.85 165.709 94.7112C164.797 94.4594 162.99 93.8547 163.025 93.648C163.041 93.5445 166.937 94.6424 167.601 94.8022C168.261 94.9597 168.804 95.2049 169.38 95.2448C169.956 95.2834 170.419 95.04 170.428 94.6703C170.437 94.302 170.386 93.9764 169.756 93.61C170.437 93.6671 171.202 93.8413 171.571 93.8487C171.941 93.8543 172.465 93.5668 172.429 93.1385C172.394 92.7098 171.947 92.2143 171.449 92.029C170.95 91.8441 169.299 91.2083 168.602 90.9928C167.895 90.7745 166.829 90.18 166.829 90.18C166.829 90.18 170.363 90.9036 170.982 91.0021C171.601 91.1024 172.109 90.9185 172.134 90.4456C172.16 89.9733 171.798 89.2632 170.68 88.9794C169.561 88.6951 163.61 87.4741 161.513 87.41C158.723 87.3264 153.959 88.5493 150.907 90.0523C149.429 95.2188 151.955 95.1803 151.955 95.1803Z" fill="#AD8E7D"/>
<path d="M83.0804 59.2169C83.6681 59.4291 89.1726 61.6176 90.0895 64.6091C91.0063 67.5993 90.8011 87.1717 90.8011 87.1717L71.8818 85.3195" stroke="#E5D1CF" stroke-width="0.0172374" stroke-miterlimit="10"/>
<path d="M111.295 29.5738C111.295 29.5738 111.218 42.3044 110.199 43.0615C109.701 43.4316 107.943 42.3648 107.943 42.3648C107.943 42.3648 106.587 47.9489 105.088 48.411C103.588 48.8727 96.7854 43.3457 96.3425 41.2157C95.9001 39.0858 98.5368 27.2399 99.5618 25.8935C100.587 24.547 111.295 29.5738 111.295 29.5738Z" fill="#AD8E7D"/>
<path d="M87.6572 46.0382C87.6572 46.0382 90.8296 41.645 90.7568 37.7427C90.702 34.8333 92.6461 29.7894 93.6033 29.5001C94.56 29.2112 97.6948 28.3886 98.0049 30.232C98.3145 32.0754 96.5723 35.9466 96.9855 38.4045C97.3986 40.8619 97.4664 43.5051 98.3647 44.3639C99.2629 45.2217 99.8998 45.2227 99.8998 45.2227C99.8998 45.2227 97.2236 49.4742 97.0287 53.6961C96.8332 57.918 92.2868 50.0738 89.9597 48.1947C87.6331 46.3155 87.6572 46.0382 87.6572 46.0382Z" fill="#AD8E7D"/>
<path d="M62.8595 126.857C62.8595 126.857 93.1807 120.08 101.054 111.895C104.973 107.819 93.6439 108.96 99.8309 90.2655C104.113 77.3255 97.9741 54.5028 97.9741 54.5028C97.9741 54.5028 90.2478 42.6495 89.013 42.7016C87.7782 42.7526 79.2043 49.7682 74.6774 55.7243C70.1509 61.68 63.3655 75.8564 61.3913 85.4942C59.4174 95.1321 59.7294 111.273 60.3004 116.374C60.8718 121.474 62.8595 126.857 62.8595 126.857Z" fill="#DEBCB8"/>
<path d="M90.6878 37.9112C91.0062 38.3399 92.832 36.6516 93.1272 36.3367C93.4224 36.0223 94.8629 31.2988 97.0117 31.3062C99.1596 31.3146 100.293 31.5208 100.538 33.2239C100.784 34.9266 100.773 37.6395 99.9775 38.6353C99.1823 39.6311 97.1199 40.7546 96.8882 42.6695C96.6566 44.5849 97.9155 48.5439 99.6103 50.2215C101.305 51.8991 104.614 53.043 105.426 52.6589C106.239 52.2743 107.101 49.8727 107.26 48.5174C107.418 47.1626 107.007 45.969 107.428 45.0024C107.848 44.0359 108.915 42.95 108.406 42.4814C107.862 41.9807 107.454 41.5269 106.397 42.1344C105.34 42.7419 105.267 43.3021 104.266 42.7382C103.265 42.1739 102.132 39.4889 102.16 37.94C102.187 36.391 102.594 33.7325 103.083 33.2862C103.571 32.8394 105.05 32.8877 105.746 31.3606C106.654 29.3699 108.32 29.2594 109.077 30.0466C109.834 30.8348 111.858 31.2802 112.356 31.12C115.237 30.1929 115.725 25.0143 113.282 22.8825C110.952 20.8496 107.622 20.3085 100.933 22.4705C97.4884 23.5838 93.8885 20.0814 90.5388 25.4569C88.9874 27.9455 90.0737 37.0835 90.6878 37.9112Z" fill="#354239"/>
<path d="M131.086 167.959L131.573 171.696C131.573 171.696 146.805 172.209 147.292 171.56C147.779 170.91 147.454 168.311 147.454 168.311L131.086 167.959Z" fill="#54675C"/>
<path d="M104.748 157.459L103.017 160.948C103.017 160.948 116.458 169.485 117.203 169.16C117.948 168.837 118.95 166.417 118.95 166.417L104.748 157.459Z" fill="#42564A"/>
<path d="M109.688 178.102L111.953 177.999" stroke="#67786E" stroke-width="0.172374" stroke-miterlimit="10" stroke-linecap="round" stroke-linejoin="round"/>
<path d="M109.688 181.912L111.953 181.809" stroke="#67786E" stroke-width="0.172374" stroke-miterlimit="10" stroke-linecap="round" stroke-linejoin="round"/>
<path d="M110.21 185.518L112.474 185.415" stroke="#67786E" stroke-width="0.172374" stroke-miterlimit="10" stroke-linecap="round" stroke-linejoin="round"/>
<path d="M110.527 173.788L112.759 174.184" stroke="#67786E" stroke-width="0.172374" stroke-miterlimit="10" stroke-linecap="round" stroke-linejoin="round"/>
<path d="M145.751 184.327L147.656 183.098" stroke="#67786E" stroke-width="0.172374" stroke-miterlimit="10" stroke-linecap="round" stroke-linejoin="round"/>
<path d="M147.995 186.998L149.901 185.768" stroke="#67786E" stroke-width="0.172374" stroke-miterlimit="10" stroke-linecap="round" stroke-linejoin="round"/>
<path d="M150.715 189.084L152.62 187.855" stroke="#67786E" stroke-width="0.172374" stroke-miterlimit="10" stroke-linecap="round" stroke-linejoin="round"/>
<path d="M144.323 180.171L146.451 179.39" stroke="#67786E" stroke-width="0.172374" stroke-miterlimit="10" stroke-linecap="round" stroke-linejoin="round"/>
<path d="M144.572 89.1949C144.572 89.1949 144.571 95.1654 144.572 96.2996C144.572 97.4328 126.261 96.4993 118.329 95.373C110.397 94.2463 86.0214 87.6176 81.4838 81.6703C76.9462 75.7225 72.9447 54.2895 86.5553 51.9073C88.5672 51.5553 98.7435 60.6817 103.563 64.9287C108.382 69.1752 122.554 77.9477 124.821 79.0796C127.088 80.211 144.572 89.1949 144.572 89.1949Z" fill="#DEBCB8"/>
<path d="M137.342 99.6806L174.907 198.333" stroke="#67786E" stroke-width="0.172374" stroke-miterlimit="10"/>
<path d="M187.186 99.6806L149.621 198.333" stroke="#67786E" stroke-width="0.172374" stroke-miterlimit="10"/>
<path d="M64.8708 137.054C64.5544 145.444 64.9258 188.512 64.9257 192.54C64.9257 196.568 65.1192 198.493 65.6989 198.513C66.6631 198.547 68.0849 190.19 69.0325 182.135C69.9797 174.081 73.083 135.376 73.083 135.376" stroke="#67786E" stroke-width="0.177545" stroke-miterlimit="10"/>
<path d="M84.1538 136.049C83.6799 137.391 86.5232 165.919 87.3126 175.82C88.1025 185.721 89.5449 199.527 90.6291 199.314C91.791 199.086 91.8925 183.036 91.7348 175.988C91.5767 168.939 91.2607 135.042 91.2607 135.042" stroke="#67786E" stroke-width="0.177545" stroke-miterlimit="10"/>
<path d="M62.4602 130.516C59.4683 132.213 61.2036 136.043 62.1513 136.94C63.099 137.836 91.4177 137.705 92.6814 136.81C93.9448 135.913 94.8922 130.834 93.6287 130.237C92.3653 129.639 64.0393 129.619 62.4602 130.516Z" fill="white"/>
<path d="M117.69 94.9919L118.653 99.8975C118.653 99.8975 209.691 101.001 209.181 99.7623C208.672 98.5224 209.181 95.2199 209.181 95.2199L117.69 94.9919Z" fill="white"/>
<path fill-rule="evenodd" clip-rule="evenodd" d="M213.976 150.962C208.7 151.606 195.06 151.59 189.713 151.84C187.453 151.945 176.561 151.55 174.859 152.538C174.024 167.805 174.181 183.293 172.121 198.512C172.065 198.936 172.268 199.048 172.945 199.05C186.115 199.082 202.19 199.131 215.355 199.392C216.06 199.406 216.141 198.991 216.087 198.554C215.125 190.646 215.136 182.827 214.607 174.801C214.323 170.478 214.473 167.069 214.344 161.853C214.313 160.625 214.268 153.026 213.976 152.972V150.962Z" fill="white"/>
<path fill-rule="evenodd" clip-rule="evenodd" d="M202.772 172.864C202.798 174.608 202.261 176.402 201.137 177.997C199.911 179.741 198.197 180.621 196.067 180.556C192.537 180.448 189.647 179.125 187.793 175.968C187.119 174.815 186.72 173.568 186.784 172.218C186.818 171.492 187.024 170.783 187.357 170.139C188.321 168.278 189.533 166.6 191.309 165.419C192.653 164.523 194.152 164.233 195.739 164.525C199.259 165.172 202.1 167.586 202.703 171.257C202.779 171.722 202.741 172.184 202.772 172.864Z" fill="#FF3008"/>
<path fill-rule="evenodd" clip-rule="evenodd" d="M190.268 170.118C190.56 170.654 190.478 171.019 190.952 171.461C191.427 171.903 191.713 172.166 191.99 172.159C192.269 172.152 194.021 171.925 195.04 171.9C196.058 171.872 196.891 171.851 196.996 172.303C197.103 172.752 197.109 173.025 196.37 173.134C195.632 173.244 194.057 173.194 193.78 173.293C193.506 173.39 192.485 173.326 192.96 173.767C193.435 174.207 194.495 175.319 194.785 175.284C195.269 175.226 197.07 175.166 197.721 175.095C198.806 174.976 199.684 173.184 199.592 172.326C199.499 171.471 198.602 169.993 197.581 169.929C196.56 169.865 193.597 169.942 192.951 169.958C192.302 169.973 190.268 170.118 190.268 170.118Z" fill="white"/>
<path d="M203.441 151.588C203.441 151.588 200.364 132.331 195.043 132.13C188.004 131.867 185.123 152 185.123 152" stroke="#B2D6DF" stroke-width="0.187887"/>
<path d="M202.773 153.653C202.773 153.653 199.419 131.097 192.846 132.164C187.477 133.036 186.777 153.653 186.777 153.653" stroke="white" stroke-width="0.187887"/>
<path fill-rule="evenodd" clip-rule="evenodd" d="M174.718 75.3317L175.247 76.9134L162.512 77.1974L162.596 75.4771L174.718 75.3317Z" fill="white"/>
<path fill-rule="evenodd" clip-rule="evenodd" d="M174.719 75.9818L163.38 75.7997L163.472 77.1748L174.644 76.9254C174.693 76.4069 174.72 76.071 174.719 75.9818Z" fill="#E6E5DA"/>
<path d="M83.8496 126.673C83.8496 126.673 133.042 129.351 134.688 130.38C136.335 131.41 134.767 166.573 134.767 166.573" stroke="#67786E" stroke-width="0.172374" stroke-miterlimit="10"/>
</svg>
