<svg width="221" height="166" viewBox="0 0 221 166" fill="none" xmlns="http://www.w3.org/2000/svg">
<path d="M191.247 165.234C203.324 157.478 212.764 140.683 218.854 118.699C225.211 95.7474 217.28 81.1943 197.286 79.058C177.292 76.9204 182.29 63.8718 183.54 52.475C184.789 41.0789 187.618 29.4411 178.306 15.2869C167.06 -1.80714 136.721 -8.44637 113.603 22.1814C90.4846 52.8085 72.1924 49.7578 50.6253 46.3102C39.4278 44.5209 16.4984 37.3515 4.90141 58.3754C-18.3914 100.602 48.8996 165.234 48.8996 165.234C48.8996 165.234 173.993 166.957 191.247 165.234Z" fill="#E2F3F7"/>
<path d="M69.6924 78.4433C67.8143 81.1837 65.6729 86.3791 66.4528 89.3472C67.2334 92.3147 69.5322 97.4931 72.198 97.5862C105.256 98.7523 114.449 94.0152 115.838 95.6262C116.282 96.1416 114.502 100.086 116.476 106.924C120.821 121.97 120.66 130.919 120.789 132.599C120.861 133.535 128.661 134.115 127.47 132.211C126.232 130.235 126.994 104.094 126.92 98.5154C126.778 87.9315 124.54 84.7554 120.189 83.5956C117.039 82.7552 95.3941 82.3513 90.7387 81.8697C86.0839 81.3882 69.6924 78.4433 69.6924 78.4433Z" fill="#A17C73"/>
<path d="M128.375 131.587C127.873 130.952 127.171 130.121 126.831 130.375C126.494 130.629 125.88 131.881 125.841 132.378C125.801 132.874 126.92 132.407 127.406 132.199C127.893 131.992 128.375 131.587 128.375 131.587Z" fill="#E6E6D5"/>
<path d="M141.159 138.786C141.277 139.378 141.23 139.926 140.646 140.184C140.284 140.345 136.44 140.759 133.499 140.813C130.558 140.867 122.099 141.065 121.194 141.04C120.115 141.011 118.956 140.99 118.687 140.64C118.234 140.054 119.019 137.509 119.019 137.509C119.019 137.509 125.454 138.085 129.181 138.115C132.909 138.145 138.064 138.496 139.287 138.325C140.509 138.154 140.752 138.049 140.752 138.049C140.752 138.049 141.051 138.243 141.159 138.786Z" fill="#E6E6D5"/>
<path d="M140.757 138.011C140.757 138.011 140.593 137.121 139.853 136.886C139.113 136.652 135.61 135.577 132.19 133.605C130.531 132.65 128.719 131.587 128.223 131.298C127.727 131.009 125.991 132.53 125.798 132.732C125.606 132.933 124.484 133.252 123.749 133.266C123.014 133.279 122.717 133.185 122.368 132.845C122.018 132.503 122.237 131.16 121.551 131.174C120.865 131.186 120.281 131.395 120.138 131.646C119.996 131.896 119.447 133.941 119.364 134.785C119.282 135.63 119.022 137.372 119.024 137.47C119.025 137.57 121.242 138.074 125.755 138.189C129.799 138.292 136.94 138.465 138.215 138.406C139.978 138.323 140.757 138.011 140.757 138.011Z" fill="#F4F3EC"/>
<path d="M129.785 131.919C129.785 131.919 129.716 132.508 129.153 132.9" stroke="#C7C6B6" stroke-width="0.201201" stroke-miterlimit="10" stroke-linecap="round" stroke-linejoin="round"/>
<path d="M131.107 132.571C131.107 132.571 131.035 133.434 130.621 133.759" stroke="#C7C6B6" stroke-width="0.201201" stroke-miterlimit="10" stroke-linecap="round" stroke-linejoin="round"/>
<path d="M132.378 133.223C132.378 133.223 132.366 134.025 131.992 134.573" stroke="#C7C6B6" stroke-width="0.201201" stroke-miterlimit="10" stroke-linecap="round" stroke-linejoin="round"/>
<path d="M133.702 134.062C133.702 134.062 133.689 134.863 133.316 135.411" stroke="#C7C6B6" stroke-width="0.201201" stroke-miterlimit="10" stroke-linecap="round" stroke-linejoin="round"/>
<path d="M134.966 134.993C134.966 134.993 135.076 135.438 134.702 135.986" stroke="#C7C6B6" stroke-width="0.201201" stroke-miterlimit="10" stroke-linecap="round" stroke-linejoin="round"/>
<path d="M86.4976 79.9339C86.4976 79.9339 93.5429 80.0058 101.955 80.6523C110.278 81.2918 113.985 81.6119 114.032 81.8368C114.176 82.5192 113.817 84.745 112.307 86.2531C110.798 87.7618 88.9065 84.2423 87.936 83.3808C86.9648 82.5192 86.4976 79.9339 86.4976 79.9339Z" fill="#8AC0C5"/>
<path d="M98.7775 60.3697C102.244 61.0789 110.313 63.5698 111.781 63.9949C116.12 65.2491 129.641 67.7901 130.493 67.6758C131.073 67.5983 132.27 68.3125 132.411 70.6461C132.458 71.4259 132.554 73.0756 131.458 72.8796C130.549 72.7168 128.376 72.7915 127.657 72.7541C126.038 72.671 126.448 72.8952 121.228 72.5631C114.73 72.1506 104.843 71.6973 95.4511 69.7338C94.8025 69.5985 93.6365 68.5254 92.9561 66.8644C92.347 65.376 93.4261 65.6313 94.0014 63.715C94.9246 60.639 98.7775 60.3697 98.7775 60.3697Z" fill="#A17C73"/>
<path d="M80.1558 42.2734C80.611 44.4322 90.2889 62.3448 92.2694 66.4072C92.2694 66.4072 94.6 71.5179 99.0451 69.3211C103.365 67.1869 99.5342 59.3238 99.5342 59.3238C98.0591 54.9293 95.1681 49.5429 95.3001 49.9589L89.0439 39.6542C89.0439 39.6542 82.5209 38.9626 80.1558 42.2734Z" fill="#A17C73"/>
<path d="M129.919 67.7704C129.919 67.7704 133.339 66.2525 135.239 66.4415C137.138 66.6318 142.746 69.8312 142.459 70.9966C142.23 71.9266 139.799 70.8077 139.419 70.4277C139.038 70.0477 139.171 72.3009 138.601 72.8699C138.031 73.4396 136.877 73.7744 136.806 73.4642C136.635 72.719 136.901 70.3325 136.141 69.7628C135.381 69.1939 133.909 68.8618 133.149 70.3797C132.389 71.8984 133.529 72.8953 134.099 73.0842C134.669 73.2746 136.505 73.0088 136.759 73.7484C136.976 74.3808 136.949 74.4322 136.56 74.55C136.171 74.6684 134.954 74.6028 134.242 74.6508C133.529 74.6973 132.959 74.9349 132.151 74.5556C131.344 74.1756 129.254 72.5146 129.254 72.5146L129.919 67.7704Z" fill="#A17C73"/>
<path d="M94.7297 57.9758C94.7297 57.9758 98.5039 55.3905 99.0434 54.4206C99.5822 53.4515 95.0525 44.5097 94.5137 43.6492C93.9748 42.7872 90.2003 47.7416 90.3082 50.5428C90.4161 53.344 94.7297 57.9758 94.7297 57.9758Z" fill="#EDB9B6"/>
<path d="M50.7761 30.8371C50.5799 31.2298 41.0474 74.1589 41.9275 74.6644C43.2721 75.4371 48.0694 76.869 53.4998 77.9696C59.4172 79.1674 65.6643 79.8224 65.9685 79.4981C66.5536 78.8748 76.1588 35.2456 76.1588 35.2456L50.7761 30.8371Z" fill="#FF3008"/>
<path d="M49.7622 61.9125C50.074 62.1471 63.4886 64.8608 63.8299 64.4399C64.1713 64.018 67.3672 46.0316 67.3672 46.0316C67.3672 46.0316 53.271 44.1597 53.2661 44.453C53.2611 44.7462 49.4508 61.6776 49.7622 61.9125Z" fill="#FF4F2D"/>
<path d="M53.7721 41.737C53.6896 42.3046 51.5686 46.5792 53.3748 47.452C55.1809 48.3262 64.062 49.7729 65.1059 49.6961C66.1498 49.6192 66.8471 49.7398 67.2903 48.389C67.7336 47.0374 68.3229 44.6206 68.3229 44.6206L53.7721 41.737Z" fill="#FF5E3E"/>
<path d="M53.8726 51.985C54.037 52.6068 53.8676 52.9636 54.2375 53.529C54.6066 54.0951 54.8282 54.435 55.107 54.4928C55.3865 54.5506 57.1912 54.729 58.2139 54.9405C59.2366 55.1527 60.0737 55.3261 60.0709 55.8154C60.0688 56.3047 60.0116 56.586 59.2486 56.5254C58.4857 56.4654 56.9237 56.0445 56.6252 56.0805C56.3273 56.1164 55.3237 55.8105 55.6935 56.3766C56.0627 56.942 56.8553 58.3359 57.1538 58.3683C57.6514 58.4226 59.4632 58.7836 60.1302 58.8625C61.2418 58.9951 62.544 57.3559 62.6555 56.4492C62.7671 55.5461 62.2229 53.8138 61.2192 53.5078C60.2149 53.2026 57.2399 52.5857 56.5885 52.4503C55.9377 52.3156 53.8726 51.985 53.8726 51.985Z" fill="white"/>
<path d="M50.8096 29.1939C50.4785 29.5302 49.5307 32.0549 50.0487 33.8569C50.3593 34.9377 51.3269 35.4757 52.9107 35.9177C57.1328 37.0965 71.8382 39.2892 74.1419 39.9321C76.4449 40.5758 78.0831 37.2721 78.4339 35.9939L78.784 34.7142C78.784 34.7142 51.3389 28.6552 50.8096 29.1939Z" fill="#FF4F2D"/>
<path d="M131.889 55.2568C131.889 55.2568 135.631 54.9176 136.765 57.9753C137.899 61.0337 141.755 68.8504 141.755 68.8504" stroke="#C7C6B6" stroke-width="0.201201" stroke-miterlimit="10"/>
<path d="M129.736 48.2557C130.643 46.9345 132.571 50.2953 132.684 52.56C132.798 54.826 132.515 56.129 131.097 57.8847C130.039 59.196 129.85 59.0745 129.509 59.1311C128.177 59.3524 128.828 49.5778 129.736 48.2557Z" fill="#C7C6B6"/>
<path d="M149.848 66.891C149.848 66.891 151.938 67.9768 152.419 71.5731C153.024 76.1036 150.604 78.3696 150.604 78.3696L149.848 66.891Z" fill="#FCF88D"/>
<path d="M119.121 133.557C118.545 132.753 117.736 131.701 117.314 131.997C116.894 132.291 116.092 133.796 116.02 134.403C115.949 135.01 117.324 134.491 117.921 134.261C118.518 134.03 119.121 133.557 119.121 133.557Z" fill="#9CD9E2"/>
<path d="M134.233 142.945C134.347 143.676 134.263 144.345 133.546 144.634C133.101 144.812 128.436 145.132 124.88 145.055C121.322 144.979 111.092 144.81 110.001 144.736C108.698 144.647 107.298 144.566 106.989 144.124C106.47 143.383 107.542 140.303 107.542 140.303C107.542 140.303 115.289 141.321 119.792 141.54C124.295 141.758 130.507 142.439 131.993 142.288C133.478 142.137 133.777 142.022 133.777 142.022C133.777 142.022 134.128 142.273 134.233 142.945Z" fill="#9CD9E2"/>
<path d="M120.813 134.062C120.813 134.062 120.703 134.781 120.003 135.233L120.813 134.062Z" fill="#9CD9E2"/>
<path d="M122.381 134.9C122.381 134.9 122.252 135.953 121.736 136.331L122.381 134.9Z" fill="#9CD9E2"/>
<path d="M123.88 135.832C123.88 135.832 123.826 136.813 123.348 137.466L123.88 135.832Z" fill="#9CD9E2"/>
<path d="M125.442 136.856C125.442 136.856 125.388 137.837 124.91 138.49L125.442 136.856Z" fill="#9CD9E2"/>
<path d="M126.928 138.161C126.928 138.161 127.039 138.711 126.561 139.364L126.928 138.161Z" fill="#9CD9E2"/>
<path d="M30.3938 120.143C28.9977 120.143 21.0857 119.213 20.1548 122.002C19.2238 124.792 20.1548 131.3 22.0167 132.696C23.8786 134.089 30.3938 120.143 30.3938 120.143Z" fill="#FF4926"/>
<path d="M159.747 121.41C156.458 126.103 150.982 136.023 146.123 141.12C141.079 146.412 133.845 152.975 126.563 153.21C121.241 153.381 108.925 153.362 100.939 153.064C97.9983 152.955 84.6975 152.36 80.2947 148.527C75.8926 144.693 89.9479 130.207 76.3634 121.34C63.0576 112.656 55.9185 110.851 55.9185 110.851L64.8454 106.392L106.188 110.616C106.188 110.616 95.4482 123.811 101.725 132.439C105.848 138.106 109.242 137.366 115.35 138.774C121.458 140.182 127.095 140.652 131.793 136.428C136.491 132.205 144.713 120.472 146.123 115.309" fill="#476759"/>
<path d="M63.5516 137.171L50.4025 134.816L50.6323 134.004L64.7261 135.645L63.5516 137.171Z" fill="#D3EEF2"/>
<path d="M61.5543 108.281C61.5543 108.281 61.0228 102.173 62.4323 100.296C63.8418 98.4191 65.5477 97.487 68.3667 97.487C71.1856 97.487 89.4772 97.7838 92.0491 97.4412C95.9458 96.9223 104.542 98.8949 106.186 99.5993C107.831 100.303 109.24 107.343 108.77 108.281C108.301 109.219 106.186 110.627 106.186 110.627L61.5543 108.281Z" fill="#325847"/>
<path d="M61.5543 108.281C61.5543 108.281 61.0228 102.173 62.4323 100.296C63.8418 98.4191 65.5477 97.487 68.3667 97.487C71.1856 97.487 89.4772 97.7838 92.0491 97.4412C95.9458 96.9223 104.542 98.8949 106.186 99.5993C107.831 100.303 109.24 107.343 108.77 108.281C108.301 109.219 106.186 110.627 106.186 110.627L61.5543 108.281Z" fill="#834A2C"/>
<path d="M24.96 165.364H186.21" stroke="#345848" stroke-width="0.261561" stroke-miterlimit="10"/>
<path d="M190.15 165.364H211.881" stroke="#345848" stroke-width="0.261561" stroke-miterlimit="10"/>
<path d="M8.98828 165.364H20.6425" stroke="#345848" stroke-width="0.261561" stroke-miterlimit="10"/>
<path d="M67.7937 77.698C65.8082 80.3616 63.4615 85.4681 64.1235 88.4645C64.7855 91.4608 66.8761 96.726 69.537 96.9255C102.523 99.4008 111.896 95.0325 113.22 96.6971C113.643 97.2294 111.708 101.1 113.409 108.01C117.152 123.217 116.636 132.154 116.698 133.838C116.732 134.776 124.503 135.664 123.389 133.714C122.23 131.69 124.032 105.6 124.179 100.023C124.457 89.4423 122.347 86.1802 118.046 84.8484C114.931 83.8839 93.3196 82.6219 88.6875 81.9564C84.0553 81.2908 67.7937 77.698 67.7937 77.698Z" fill="#AF897E"/>
<path d="M92.4509 25.2053C91.2249 26.7225 91.2659 29.1816 91.2087 30.3224C91.0301 33.8553 93.2435 36.9545 93.2435 36.9545C93.2435 36.9545 93.2259 36.6345 90.5389 36.0049C87.8519 35.376 82.5923 33.6783 82.5923 33.6783C82.5923 33.6783 84.1846 29.7055 84.7534 28.2193C86.8624 22.7201 85.0809 17.5141 85.1741 17.0213C85.268 16.5285 89.4252 18.97 89.4252 18.97L91.2009 25.0678L92.4509 25.2053Z" fill="#AF897E"/>
<path d="M99.2243 9.13582C99.8969 9.85283 100.81 12.6821 100.275 15.7419C99.8031 18.4436 101.523 20.345 101.726 20.9422C101.949 21.5958 100.294 21.4773 100.294 21.4773C100.294 21.4773 99.7875 23.9245 99.4777 24.9453C99.1678 25.9662 98.7825 27.2656 97.2283 27.2592C96.0383 27.2536 91.5501 27.2465 90.1964 24.217C88.8427 21.1868 87.8285 16.3764 89.4405 14.0978C91.0526 11.8184 98.2051 8.05008 99.2243 9.13582Z" fill="#AF897E"/>
<path d="M99.5946 17.562C99.7794 16.154 100.268 15.0569 100.686 15.1116C101.104 15.1664 101.292 16.3521 101.108 17.7601C100.923 19.1681 100.434 20.2652 100.016 20.2105C99.5987 20.1557 99.4098 18.97 99.5946 17.562Z" stroke="#FF0000" stroke-width="0.251501" stroke-miterlimit="10"/>
<path d="M88.8003 16.6763L99.523 17.3686" stroke="#FF0000" stroke-width="0.251501" stroke-miterlimit="10"/>
<path d="M91.9349 33.8481C91.9349 33.8481 94.528 38.8249 96.3581 43.4767C98.4021 48.6741 97.5756 52.9134 94.7877 54.5844C90.7901 60.7562 86.4917 75.7612 86.4917 75.7612L66.8352 77.5739L66.3813 72.4384C66.3813 72.4384 68.1204 52.4263 72.7321 42.8351C76.2371 35.5458 82.6359 30.8278 83.6184 30.7516C86.0795 30.5634 91.9349 33.8481 91.9349 33.8481Z" fill="#FBE2E0"/>
<path d="M81.5785 19.3254C76.4988 22.3238 77.4524 4.95481 60.9254 10.6303C53.4361 13.2015 46.4353 13.4328 42.8456 8.97698C37.4208 2.24398 36.3261 21.1105 44.0158 27.4466C50.6574 32.9183 56.6214 28.9201 64.0386 25.2152C71.4573 21.5109 73.7914 27.0285 79.008 28.3878C87.4973 30.5994 93.9018 23.1769 90.4617 13.774C89.4256 10.9412 90.6452 13.9735 81.5785 19.3254Z" fill="#24372C"/>
<path d="M112.351 83.7987C112.351 83.7987 98.7873 83.0768 90.3889 81.7979C88.6336 81.5307 87.1479 80.863 87.1479 80.863L86.9489 74.2837L68.0482 73.2262L63.8156 81.9741C62.1604 90.6051 62.8317 100.186 74.1725 101.092C83.8292 101.864 107.286 100.036 108.282 99.9749C109.458 99.1803 111.531 91.9799 112.2 89.085C112.605 83.9101 112.351 83.7987 112.351 83.7987Z" fill="#9EC8CF"/>
<path d="M86.7935 79.3749C86.389 79.843 81.6609 84.4144 77.419 85.8696C76.2305 86.2764 70.0935 83.9195 67.5181 82.7929" stroke="#DEF4F8" stroke-width="0.201201" stroke-miterlimit="10"/>
<path d="M95.8696 62.1398C99.3358 62.8498 107.405 65.3407 108.873 65.7651C113.213 67.0193 126.732 69.5602 127.585 69.446C128.164 69.3692 129.362 70.0834 129.502 72.4163C129.55 73.1961 129.646 74.8458 128.55 74.6505C127.641 74.4877 125.467 74.5617 124.749 74.525C123.13 74.4419 123.54 74.666 118.32 74.334C111.821 73.9208 101.935 73.4682 92.5432 71.504C91.8945 71.3686 90.7285 70.2956 90.0482 68.6345C89.4383 67.1469 90.5182 67.4022 91.0927 65.4859C92.0159 62.4099 95.8696 62.1398 95.8696 62.1398Z" fill="#AF897E"/>
<path d="M41.4357 8.66409C41.4357 8.66409 40.4998 19.8853 49.8615 20.1194C59.2225 20.3527 65.7752 9.3656 73.9667 18.7171" stroke="#345848" stroke-width="0.201201" stroke-miterlimit="10"/>
<path d="M151.081 141.231C150.113 142.682 149.75 150.778 152.654 155.854C155.557 160.928 161.122 166.005 171.042 165.883C181.094 165.761 185.921 160.928 189.188 154.283C193.172 146.176 190.398 137.365 186.284 132.048C182.171 126.731 174.55 123.831 164.993 126.731C153.801 130.127 151.081 141.231 151.081 141.231Z" fill="#24372C"/>
<path d="M161.708 141.888C161.346 143.066 160.71 145.152 161.799 148.234C162.889 151.317 166.33 154.217 170.966 154.126C175.594 154.036 178.59 151.407 179.406 147.689C180.223 143.973 178.68 139.259 176.23 137.354C173.78 135.451 169.605 134.816 166.156 136.63C162.707 138.442 161.708 141.888 161.708 141.888Z" fill="#E6E6D5"/>
<path d="M29.9056 140.58C28.938 142.03 28.5752 150.126 31.4788 155.201C34.3818 160.277 39.947 165.352 49.8664 165.232C59.9184 165.109 64.746 160.277 68.0125 153.631C71.9967 145.524 69.2222 136.714 65.1088 131.396C60.9961 126.079 53.3749 123.178 43.8176 126.079C32.6258 129.475 29.9056 140.58 29.9056 140.58Z" fill="#24372C"/>
<path d="M40.8248 140.676C40.462 141.855 39.8267 143.941 40.9158 147.023C42.0049 150.105 45.4463 153.006 50.082 152.916C54.7107 152.825 57.7061 150.196 58.5227 146.478C59.3393 142.762 57.7964 138.047 55.3466 136.143C52.8961 134.239 48.7212 133.605 45.272 135.418C41.8235 137.231 40.8248 140.676 40.8248 140.676Z" fill="#E6E6D5"/>
<path d="M139.415 80.4672C139.415 80.4672 136.693 80.7696 137.298 84.6966C137.903 88.6229 142.578 102.234 142.136 113.847C141.683 125.779 138.206 129.101 133.669 134.539C129.133 139.976 127.319 141.184 127.319 141.184C127.319 141.184 133.367 142.392 139.113 138.768C144.858 135.143 173.285 121.701 173.285 121.701C173.285 121.701 177.216 109.315 160.735 99.3471C148.215 91.7744 142.741 81.0714 142.439 79.5612C140.625 80.1654 139.415 80.4672 139.415 80.4672Z" fill="#476759"/>
<path d="M134.423 74.8081C134.649 74.7326 136.237 74.8828 137.069 75.6386C137.9 76.3937 138.883 77.9793 139.412 80.9249C141.378 80.774 142.436 79.4901 142.436 79.4901C142.436 79.4901 142.21 79.414 143.722 79.4901C145.233 79.5656 149.732 79.2258 150.45 78.4326C151.168 77.6402 151.358 70.1253 149.241 65.8965C147.502 65.2923 144.251 65.3677 140.848 68.0109C137.447 70.654 136.69 71.7109 135.783 72.0133C134.876 72.3158 133.439 72.5421 133.439 72.5421L134.423 74.8081Z" fill="#476759"/>
<path d="M147.544 154.806C147.544 154.806 142.093 139.738 148.841 129.551C154.912 120.384 166.831 116.761 175.907 119.676C184.983 122.589 191.628 130.846 190.98 133.112C190.331 135.379 187.089 136.35 183.2 136.35C179.31 136.35 173.283 133.524 167.033 136.917C161.736 139.793 163.427 143.474 161.158 148.006C158.889 152.54 154.676 156.425 147.544 154.806Z" fill="#476759"/>
<path d="M18.8038 136.201C17.4903 134.548 29.4911 115.307 45.9355 111.916C54.283 110.193 61.8217 109.724 68.4865 112.267C81.203 117.119 87.251 131.619 86.6461 140.983C86.3588 145.426 85.7384 149.14 85.7384 149.14C85.7384 149.14 61.2436 149.744 37.6558 143.4C31.9522 141.866 20.1173 137.854 18.8038 136.201Z" fill="#476759"/>
<path d="M142.262 79.3749C142.262 79.3749 139.423 81.1495 140.683 86.5161C141.943 91.8821 146.234 98.4142 146.698 112.46C147.173 126.839 139.832 136.066 134.681 140.716" stroke="#98AAA2" stroke-width="0.251501" stroke-miterlimit="10"/>
<path d="M50.3535 141.233C50.3535 141.233 57.1581 142.365 63.5085 142.593" stroke="#98AAA2" stroke-width="0.251501" stroke-miterlimit="10"/>
<path d="M51.0357 138.531C51.0357 138.531 57.8402 139.664 64.1906 139.891" stroke="#98AAA2" stroke-width="0.251501" stroke-miterlimit="10"/>
<path d="M51.7178 135.55C51.7178 135.55 58.5216 136.682 64.8729 136.909" stroke="#98AAA2" stroke-width="0.251501" stroke-miterlimit="10"/>
<path d="M85.7874 24.1239C88.161 23.1954 84.7964 21.8234 83.7829 20.3421C83.3298 19.6787 82.2287 18.1375 83.6276 17.2083C85.0272 16.2805 85.3815 16.3608 86.5376 14.5694C87.6944 12.7779 87.8455 7.5748 90.6179 6.16051C95.7208 3.55544 101.592 5.83197 101.429 9.17239C101.36 10.5817 101.558 14.1753 95.7935 15.3562C93.5822 15.8095 91.5262 13.7635 91.9949 19.7175C92.3245 23.9089 89.1886 25.2407 87.3669 25.5903" fill="#24372B"/>
<path d="M102.521 9.92501C102.521 8.26396 100.858 4.03451 97.2633 2.20073C93.2445 0.151219 89.7162 -1.15731 83.6548 1.46116C77.4275 4.15084 75.9863 10.2409 76.5657 13.7448C77.1438 17.2495 79.6176 22.3878 79.6176 22.3878C79.6176 22.3878 83.8044 23.372 85.3064 23.5045C86.809 23.6364 88.1825 23.6575 89.5214 22.1086C90.8603 20.5603 90.7502 19.6015 90.6083 17.1128C90.4665 14.6254 91.0749 13.4967 92.2839 12.437C93.2974 11.5487 94.4084 11.1539 96.8158 10.9783C99.224 10.8028 102.521 10.9508 102.521 9.92501Z" fill="#E6E6D5"/>
<path d="M147.379 154.676C147.379 154.676 141.765 139.157 148.715 128.664C154.967 119.223 167.243 115.492 176.59 118.494C185.937 121.495 191.402 128.514 192.108 131.824" stroke="#98AAA2" stroke-width="0.251501" stroke-miterlimit="10"/>
<path d="M74.8511 96.61C74.8511 96.61 91.4077 97.9693 105.47 96.61" stroke="#DEF4F8" stroke-width="0.201201" stroke-miterlimit="10"/>
<path d="M91.7847 19.0052C92.0866 21.1951 93.0704 28.9738 81.1246 25.4236" stroke="#24372C" stroke-width="0.201201" stroke-miterlimit="10"/>
<path d="M147.429 67.1705C147.429 67.1705 149.849 71.8524 148.639 78.951" stroke="#98AAA2" stroke-width="0.251501" stroke-miterlimit="10"/>
<path d="M19.2827 136.501C19.2827 136.501 24.272 120.416 42.6433 114.525C61.0146 108.635 73.7162 116.338 80.0663 131.291" stroke="#98AAA2" stroke-width="0.251501" stroke-miterlimit="10"/>
<path d="M109.435 83.6604C109.435 83.6604 109.549 91.7031 105.693 99.4059" stroke="#DEF4F8" stroke-width="0.201201" stroke-miterlimit="10"/>
<path d="M124.313 133.166C123.836 132.511 123.168 131.654 122.819 131.894C122.471 132.135 121.808 133.361 121.75 133.856C121.69 134.351 122.826 133.929 123.321 133.74C123.815 133.553 124.313 133.166 124.313 133.166Z" fill="#E6E6D5"/>
<path d="M136.808 140.781C136.903 141.377 136.834 141.923 136.24 142.158C135.872 142.304 132.015 142.565 129.074 142.502C126.133 142.441 117.673 142.303 116.771 142.242C115.693 142.17 114.535 142.103 114.28 141.743C113.851 141.139 114.737 138.627 114.737 138.627C114.737 138.627 121.144 139.457 124.867 139.635C128.59 139.813 133.728 140.369 134.956 140.245C136.184 140.123 136.431 140.029 136.431 140.029C136.431 140.029 136.722 140.234 136.808 140.781Z" fill="#E6E6D5"/>
<path d="M136.435 140.072C136.435 140.072 136.306 139.177 135.576 138.913C134.846 138.65 131.389 137.436 128.049 135.331C126.43 134.311 124.661 133.176 124.177 132.868C123.693 132.56 121.897 134.01 121.698 134.204C121.497 134.398 120.364 134.673 119.628 134.656C118.893 134.641 118.601 134.535 118.265 134.182C117.929 133.827 118.202 132.493 117.516 132.479C116.83 132.464 116.237 132.651 116.085 132.895C115.933 133.14 115.303 135.161 115.187 136.002C115.071 136.842 114.742 138.571 114.74 138.671C114.738 138.77 116.932 139.362 121.437 139.656C125.474 139.919 132.603 140.375 133.878 140.366C135.644 140.354 136.435 140.072 136.435 140.072Z" fill="white"/>
<path d="M125.716 133.503C125.716 133.503 125.625 134.087 125.046 134.457" stroke="#C7C6B6" stroke-width="0.201201" stroke-miterlimit="10" stroke-linecap="round" stroke-linejoin="round"/>
<path d="M127.01 134.248C127.01 134.248 126.903 135.108 126.476 135.415" stroke="#C7C6B6" stroke-width="0.201201" stroke-miterlimit="10" stroke-linecap="round" stroke-linejoin="round"/>
<path d="M128.246 134.993C128.246 134.993 128.202 135.793 127.806 136.326" stroke="#C7C6B6" stroke-width="0.201201" stroke-miterlimit="10" stroke-linecap="round" stroke-linejoin="round"/>
<path d="M129.54 135.832C129.54 135.832 129.496 136.632 129.1 137.165" stroke="#C7C6B6" stroke-width="0.201201" stroke-miterlimit="10" stroke-linecap="round" stroke-linejoin="round"/>
<path d="M130.77 136.856C130.77 136.856 130.862 137.305 130.466 137.839" stroke="#C7C6B6" stroke-width="0.201201" stroke-miterlimit="10" stroke-linecap="round" stroke-linejoin="round"/>
<path d="M68.5341 47.8832C68.5341 47.8832 81.6661 40.3209 87.9674 42.0944C87.5935 40.1164 84.1526 38.0737 81.1232 37.9044C76.9562 37.6721 73.4858 40.143 71.295 43.3421C70.7007 44.2101 68.5341 47.8832 68.5341 47.8832Z" fill="#FF3008"/>
<path d="M90.8958 59.8107C90.8958 59.8107 74.5706 69.6571 73.8458 70.4284C72.7045 71.6445 73.8112 74.8461 74.7005 74.9046C75.5891 74.9638 89.9938 66.0805 89.9938 66.0805L89.7693 62.494L90.8958 59.8107Z" fill="#FF3008"/>
<path d="M76.0635 70.7108L65.8894 73.0536L66.2142 76.0335L76.3643 72.6233L76.0635 70.7108Z" fill="#5D7A6D"/>
<path d="M77.2471 44.0436C77.7023 46.2024 87.3802 64.1151 89.3607 68.1767C89.3607 68.1767 91.6913 73.2874 96.1364 71.0913C100.457 68.9572 96.6255 61.094 96.6255 61.094C95.1504 56.6996 92.2594 51.3132 92.3921 51.7291L86.1359 41.4245C86.1359 41.4245 79.6122 40.7328 77.2471 44.0436Z" fill="#AF897E"/>
<path d="M88.3882 40.8923C90.1139 43.5361 93.8673 49.2595 95.01 50.7817C94.2597 53.0307 90.507 56.2788 83.5033 59.7764C78.2811 53.6398 77.1074 48.3479 76.9796 45.1774C76.8815 42.7408 77.9007 40.3353 79.8854 38.9147C81.1036 38.0425 82.7277 37.475 84.7279 38.0686C86.2496 38.5198 87.5215 39.5647 88.3882 40.8923Z" fill="#FBE2E0"/>
<path d="M84.4517 59.1902C93.7506 54.432 95.0097 50.7235 95.0097 50.7235C93.867 49.2014 90.1136 43.478 88.3879 40.8341C87.5212 39.5066 86.2493 38.4617 84.7283 38.0105" stroke="white" stroke-width="0.201201" stroke-miterlimit="10"/>
<path d="M134.595 73.1848C134.623 74.028 134.29 74.6865 133.753 75.247C133.331 75.6869 132.582 75.9499 131.98 75.8456C130.992 75.6756 130.518 76.0169 129.724 74.585C129.449 74.0893 129.311 73.3892 129.478 72.8421C129.694 72.1294 130.091 71.5364 130.661 71.062C131.826 70.0932 133.621 70.4803 134.274 71.8474C134.481 72.2795 134.626 72.735 134.595 73.1848Z" fill="#24372C"/>
<path d="M127.01 69.5407C127.01 69.5407 130.43 68.0221 132.33 68.2117C134.23 68.4021 139.837 71.6015 139.55 72.7669C139.321 73.6961 136.891 72.5772 136.51 72.1979C136.13 71.8179 136.262 74.0705 135.692 74.6394C135.123 75.2091 133.969 75.5447 133.898 75.2338C133.727 74.4893 133.993 72.1027 133.232 71.5331C132.473 70.9641 131 70.6321 130.241 72.15C129.48 73.6679 130.62 74.6648 131.19 74.8545C131.76 75.0448 133.596 74.779 133.85 75.5186C134.067 76.1503 134.04 76.2025 133.651 76.3202C133.262 76.4379 132.045 76.3724 131.333 76.4203C130.62 76.4676 130.05 76.7052 129.243 76.3251C128.435 75.9458 126.345 74.2848 126.345 74.2848L127.01 69.5407Z" fill="#AF897E"/>
<path d="M125.626 68.573L125.048 75.3846L121.533 75.0456C121.533 75.0456 122.568 68.3796 122.806 68.2929C123.044 68.2054 125.626 68.573 125.626 68.573Z" fill="#335848"/>
<path d="M124.834 69.4949C125.354 69.8622 125.782 70.307 125.901 70.7526C126.02 71.1989 126.097 72.1119 125.694 72.7218C125.261 73.3781 124.206 73.9986 123.546 73.9485C122.886 73.8999 121.967 73.4035 121.709 72.9657C121.452 72.5286 121.224 72.0252 121.284 71.4323C121.344 70.8302 121.44 70.3162 122.26 69.6457C122.914 69.1092 123.914 69.2058 124.185 69.2742C124.456 69.3426 124.834 69.4949 124.834 69.4949Z" fill="white"/>
<path d="M123.879 72.7092L123.303 71.3541L125.5 70.5243" stroke="#E6E6D5" stroke-width="0.201201" stroke-miterlimit="10"/>
<path d="M68.4994 116.876C68.4994 116.876 65.0219 122.766 63.5101 123.219C61.9976 123.672 55.6475 121.407 52.7742 120.199C51.6858 119.741 56.1006 113.1 56.1006 113.1" stroke="#98AAA2" stroke-width="0.251501" stroke-miterlimit="10"/>
<path d="M40.6753 17.9804C40.6753 17.9804 42.8555 37.394 56.5516 29.5351C67.2113 23.4182 69.9328 16.8481 77.4179 27.9495" stroke="#345848" stroke-width="0.201201" stroke-miterlimit="10"/>
<path d="M90.4596 13.753C89.4228 10.9195 90.6431 13.9526 81.5764 19.3044C79.7385 20.3887 78.689 18.8053 77.3169 16.614C78.2563 19.5025 79.615 22.3269 79.615 22.3269C79.615 22.3269 83.8011 23.3111 85.3037 23.4436C86.8064 23.5755 88.1792 23.5959 89.5188 22.0477C90.857 20.4994 90.7469 19.5399 90.6057 17.0518C90.5506 16.0874 90.6113 15.3309 90.773 14.6999C90.6791 14.3861 90.5761 14.071 90.4596 13.753Z" fill="#C7C6B6"/>
<path d="M87.5989 21.0622C87.2896 21.7068 86.6133 21.8997 85.9246 21.5714C85.2364 21.2409 85.1588 20.4821 85.4681 19.8376C85.7775 19.1931 86.4607 18.957 87.149 19.2859C87.837 19.6154 87.9083 20.4177 87.5989 21.0622Z" fill="#24372C"/>
<path d="M93.2129 36.8926C93.2225 36.9067 93.2288 36.9157 93.2288 36.9157C93.2288 36.9157 93.2274 36.9078 93.2129 36.8926Z" fill="#EDB9B6"/>
<path d="M83.7625 30.7448C83.1753 32.2233 82.5923 33.6792 82.5923 33.6792C82.5923 33.6792 87.8519 35.3769 90.5389 36.0064C92.6337 36.4971 93.1045 36.7989 93.2111 36.9082C93.0431 36.6635 92.23 35.4156 91.6887 33.7045C90.5813 33.1031 85.9822 30.6877 83.7625 30.7448Z" fill="#EDB9B6"/>
</svg>
