<?xml version="1.0" encoding="utf-8"?>
<!-- Generator: Adobe Illustrator 19.2.1, SVG Export Plug-In . SVG Version: 6.00 Build 0)  -->
<svg version="1.1" id="Layer_1" xmlns="http://www.w3.org/2000/svg" xmlns:xlink="http://www.w3.org/1999/xlink" x="0px" y="0px"
	 viewBox="0 0 18 18" style="enable-background:new 0 0 18 18;" xml:space="preserve">
<style type="text/css">
	.st0{fill:none;}
	.st1{fill:#FFFFFF;}
	.st2{fill:none;stroke:#FFFFFF;stroke-width:2;}
</style>
<g transform="translate(-3 -3)">
	<rect x="1" y="1" class="st0" width="24" height="24"/>
	<g transform="rotate(-45 13.621 4.257)">
		<path class="st1" d="M6.5,12h1C7.8,12,8,12.2,8,12.5v7C8,19.8,7.8,20,7.5,20h-1C6.2,20,6,19.8,6,19.5v-7C6,12.2,6.2,12,6.5,12z"/>
		<path class="st2" d="M7,1L7,1c3.3,0,6,2.7,6,6l0,0c0,3.3-2.7,6-6,6l0,0c-3.3,0-6-2.7-6-6l0,0C1,3.7,3.7,1,7,1z"/>
	</g>
</g>
</svg>
