<svg id="Layer_1" data-name="Layer 1" xmlns="http://www.w3.org/2000/svg" viewBox="0 0 26 26">
  <title>instagram-export</title>
  <path d="M13,2.34c3.47,0,3.88,0,5.25.08,3.53.16,5.17,1.83,5.33,5.33.07,1.37.08,1.78.08,5.25s0,3.88-.08,5.25c-.16,3.5-1.8,5.17-5.33,5.33-1.37.07-1.78.08-5.25.08s-3.88,0-5.25-.08c-3.53-.16-5.17-1.84-5.33-5.33-.06-1.37-.08-1.78-.08-5.25s0-3.88.08-5.25c.16-3.5,1.8-5.17,5.33-5.33C9.12,2.36,9.53,2.34,13,2.34ZM13,0C9.47,0,9,0,7.64.08,2.92.29.3,2.91.08,7.64,0,9,0,9.47,0,13s0,4,.08,5.36c.21,4.72,2.83,7.35,7.56,7.56C9,26,9.47,26,13,26s4,0,5.36-.08c4.72-.21,7.35-2.83,7.56-7.56C26,17,26,16.53,26,13s0-4-.08-5.36C25.71,2.92,23.09.3,18.36.08,17,0,16.53,0,13,0Zm0,6.32A6.68,6.68,0,1,0,19.68,13,6.68,6.68,0,0,0,13,6.32Zm0,11A4.33,4.33,0,1,1,17.33,13,4.33,4.33,0,0,1,13,17.33ZM19.94,4.5A1.56,1.56,0,1,0,21.5,6.06,1.56,1.56,0,0,0,19.94,4.5Z"/>
</svg>
