<svg width="200" height="208" viewBox="0 0 200 208" fill="none" xmlns="http://www.w3.org/2000/svg">
<path d="M14.9911 111.385C-19.9429 59.4748 28.4214 28.6152 51.585 15.6375C74.7486 2.65988 136.317 -13.6376 160.461 19.6364C181.814 52.2315 154.425 85.4301 181.06 97.4269C217.955 124.665 193.962 195.212 163.027 207.812C143.711 208.265 60.111 207.737 14.9911 207.888C-27.7144 169.86 36.6456 143.603 14.9911 111.385Z" fill="#E1F6F8"/>
<path d="M158.952 44.6863H22.687V44.9881H158.952V44.6863Z" fill="#A5CCCE"/>
<path d="M159.556 75.0932H29.9302V75.395H159.556V75.0932Z" fill="#A5CCCE"/>
<path d="M107.494 108.292C82.6706 108.292 58.6016 108.216 45.1712 108.216C39.6632 108.216 35.8152 108.216 34.1553 108.216H18.6123V107.915H34.2307C35.8152 107.915 39.7387 107.915 45.2467 107.915C68.033 107.99 121.453 108.066 157.443 107.915V108.216C142.579 108.292 124.848 108.292 107.494 108.292Z" fill="#A5CCCE"/>
<path d="M149.37 53.0615H149.068V158.316H149.37V53.0615Z" fill="#A5CCCE"/>
<path d="M113.078 21.9H112.776V106.481H113.078V21.9Z" fill="#A5CCCE"/>
<path d="M64.7139 31.4069H64.4121V118.931H64.7139V31.4069Z" fill="#A5CCCE"/>
<path d="M46.7564 110.933C45.1719 112.744 20.8011 151.148 21.3293 154.317C21.8574 157.486 32.4961 171.897 36.1932 174.614C39.8903 177.33 61.3185 170.917 61.3185 170.917L68.3355 124.514C68.3355 124.514 65.3929 97.0496 63.1293 95.9179C61.4694 95.0124 46.7564 110.933 46.7564 110.933Z" fill="white"/>
<path d="M83.7275 88.0709C83.7275 88.0709 95.1207 83.9211 105.005 86.7128C105.684 86.9391 106.363 87.1655 107.042 87.3918C106.363 93.0507 101.081 96.5969 98.2142 96.9742C95.3471 97.3514 88.3301 96.2196 88.3301 96.2196L83.7275 88.0709Z" fill="#24372B"/>
<path d="M79.0488 19.7119L79.577 53.3632C79.577 53.3632 91.8001 43.7055 106.513 53.5141C106.966 35.7831 107.72 19.1838 106.664 17.5238C104.929 14.8076 100.703 9.90323 92.0265 11.2614C85.4622 12.2422 81.3878 15.8639 79.8033 17.5993C79.3506 18.2783 79.0488 18.9574 79.0488 19.7119Z" fill="white"/>
<path d="M93.8218 10.5795L93.52 10.5863L94.333 46.8712L94.6347 46.8644L93.8218 10.5795Z" fill="#AAA891"/>
<path d="M107.797 31.6332C107.722 31.5578 102.893 27.7098 94.5176 27.7098C94.3667 27.7098 94.2158 27.7098 94.1403 27.7098C84.1807 27.8607 79.4273 31.4823 79.3518 31.4823L79.1255 31.256C79.2009 31.256 84.0298 27.5589 94.1403 27.408C102.893 27.2571 108.023 31.3314 108.023 31.4069L107.797 31.6332Z" fill="#AAA891"/>
<path d="M132.167 99.6904C141.372 106.934 157.216 131.757 160.008 139.152C161.744 143.754 159.254 165.333 156.085 167.521C151.331 170.841 133.449 165.861 133.449 165.861L114.888 140.811L132.167 99.6904Z" fill="white"/>
<path d="M85.0091 90.8626C83.1228 91.0135 62.9773 95.9933 62.9773 95.9933C62.9773 95.9933 61.091 100.822 61.2419 104.444C61.6946 121.798 60.1855 192.647 60.1855 192.647L130.733 193.024L130.959 165.333C130.959 165.333 132.317 99.1623 131.336 98.7096C116.699 92.2207 94.8177 88.9763 94.8177 88.9763L85.0091 90.8626Z" fill="white"/>
<path d="M86.293 89.3536C85.4631 93.2016 84.3313 93.8052 84.7085 94.5597C85.0858 95.3142 90.2165 101.954 94.819 101.652C99.497 101.35 104.477 96.0688 104.477 94.5597C104.477 93.0507 104.024 83.0911 104.1 78.7904C104.175 74.4897 85.9158 78.1113 85.9158 78.1113C85.9158 78.1113 86.4439 88.4482 86.293 89.3536Z" fill="#705A52"/>
<path d="M105.684 62.4929C105.986 65.8882 105.684 72.1506 105.684 75.8478C105.684 78.4131 100.628 84.751 94.5924 84.9774C88.9335 85.2037 83.7273 79.2431 83.0483 76.6023C82.1429 72.8297 81.6147 66.9445 81.6902 63.4737C81.6902 60.3802 81.0111 57.2113 82.8219 55.0986C84.4819 53.1369 89.3108 51.4015 93.4606 51.2506C97.6104 51.0997 102.967 51.5524 104.627 54.8723C106.061 57.7394 105.684 62.4929 105.684 62.4929Z" fill="#80685A"/>
<path d="M83.5014 67.0954C83.5014 67.0954 80.5588 64.0019 78.2198 65.6618C77.3899 66.2654 77.6162 68.4535 77.918 69.8116C78.0689 70.4152 78.2198 70.868 78.3707 70.9434C79.7289 72.3015 82.7469 73.5842 82.7469 73.5842L83.5014 67.0954Z" fill="#80685A"/>
<path d="M104.024 66.2654C104.024 66.2654 108.099 63.1719 109.532 64.8319C110.211 65.5864 110.287 69.8871 109.608 70.9434C108.552 72.5279 104.703 73.4333 104.703 73.4333L104.024 66.2654Z" fill="#80685A"/>
<path d="M81.0109 65.5864C81.0109 65.5864 82.2935 66.6427 82.5199 66.1145C83.0481 64.6809 83.0481 60.6066 83.0481 59.173C78.8228 57.3621 80.3318 58.7957 80.3318 58.7957C80.3318 58.7957 80.9354 64.1528 81.0109 65.5864Z" fill="#24372B"/>
<path d="M78.5964 57.2867C76.7855 54.9477 75.7292 49.5152 78.2945 45.5917C80.5581 42.0455 83.3498 40.9892 87.8769 41.0646C89.6877 41.1401 92.404 41.9701 94.8939 43.4036L102.062 47.5535C102.062 47.5535 103.948 46.7989 105.985 47.1007C106.664 47.1762 108.928 49.7415 108.626 52.8351C108.475 54.8722 107.947 55.7022 107.947 55.7022C107.947 55.7022 108.173 62.1156 107.57 64.3791C107.721 64.53 105.382 65.8882 105.306 65.2845C105.155 64.4546 104.627 59.0975 104.627 59.0975C104.627 59.0975 101.609 60.2293 98.4401 59.5502C96.5538 59.173 94.5166 56.9094 94.5166 56.9094C94.5166 56.9094 87.1978 61.5874 81.6144 61.8892C81.3126 61.8892 80.4072 59.6257 78.5964 57.2867Z" fill="#24372B"/>
<path d="M101.609 49.0625C101.308 44.0827 94.7434 41.5173 94.668 41.4419L94.8189 41.1401C94.8189 41.1401 96.5543 41.8191 98.2896 43.1018C100.553 44.8372 101.836 46.8744 101.987 48.987L101.609 49.0625Z" fill="#24372B"/>
<path d="M101.308 49.1379L101.006 49.0625C101.987 44.9881 107.495 43.7809 107.722 43.7054L107.797 44.0073C107.722 44.0073 102.214 45.2145 101.308 49.1379Z" fill="#24372B"/>
<path d="M81.5398 57.5885C78.7481 57.5885 76.9373 57.0604 76.8618 57.0604L76.9373 56.7586C77.0127 56.7586 82.3698 58.2676 88.7077 56.0795C93.7629 54.2687 95.6492 52.2315 97.1583 49.3643L97.4601 49.5152C95.8756 52.5333 93.9138 54.5705 88.7831 56.3813C86.1423 57.3622 83.577 57.5885 81.5398 57.5885Z" fill="#0A1911"/>
<path d="M110.437 55.0986L110.136 55.0232C111.192 52.0806 109.306 48.8361 109.306 48.8361L109.607 48.6852C109.683 48.7607 111.569 52.0051 110.437 55.0986Z" fill="#0A1911"/>
<path d="M100.704 56.7585V56.4567C104.099 56.1549 106.137 54.8723 106.665 52.7596L106.967 52.8351C106.589 54.4195 105.231 56.3058 100.704 56.7585Z" fill="#0A1911"/>
<path d="M83.0476 16.0061L82.7461 16.0196L83.3505 29.5872L83.652 29.5738L83.0476 16.0061Z" fill="#AAA891"/>
<path d="M88.1039 12.0151L87.8022 12.0237L88.256 27.9376L88.5577 27.929L88.1039 12.0151Z" fill="#AAA891"/>
<path d="M98.1422 12.1965L98.0029 27.5886L98.3047 27.5913L98.444 12.1992L98.1422 12.1965Z" fill="#AAA891"/>
<path d="M103.907 14.6561L103.605 14.658L103.692 28.7674L103.994 28.7655L103.907 14.6561Z" fill="#AAA891"/>
<path d="M83.7275 87.9954C84.0293 87.5427 88.1791 89.429 89.2354 89.6554C89.3109 89.6554 89.0845 100.143 89.0845 100.143C89.0845 100.143 85.312 99.0868 84.2556 97.955C84.1802 97.8796 83.1239 88.7499 83.7275 87.9954Z" fill="white"/>
<path d="M107.118 87.6182C107.118 86.6373 102.289 88.8254 101.912 88.9009C101.459 89.0518 102.062 98.9359 102.062 98.9359C102.062 98.9359 105.986 98.1059 107.344 97.2005C107.646 97.0496 107.118 88.5991 107.118 87.6182Z" fill="white"/>
<path d="M81.9165 95.4651C81.9165 95.4651 98.4404 97.3514 105.457 95.4651C109.909 94.2579 105.457 104.972 105.457 104.972C105.457 104.972 87.4245 105.576 86.4436 104.368C85.3873 103.161 82.2938 95.616 81.9165 95.4651Z" fill="white"/>
<path d="M86.2176 75.0178C84.8595 75.0178 82.8223 74.3387 82.4451 73.5842C82.1433 72.8297 80.936 66.869 80.936 66.6427V66.4918H81.1624C84.7086 66.3409 92.8574 66.0391 93.2346 66.7936C93.7628 67.8499 92.7819 72.5279 91.801 73.6596C90.8202 74.7914 87.5758 75.0932 86.3685 75.0932C86.2931 75.0178 86.2176 75.0178 86.2176 75.0178ZM81.3133 66.7936C81.766 68.9817 82.5205 72.9051 82.7469 73.4333C83.0487 74.0369 84.8595 74.716 86.2176 74.716H86.2931C87.8776 74.716 90.6693 74.2633 91.4992 73.3578C92.3292 72.377 93.3101 67.7744 92.8574 66.869C92.4801 66.4918 86.6703 66.5672 81.3133 66.7936Z" fill="#FEF9A8"/>
<path d="M101.76 74.7914C100.477 74.7914 97.4589 74.5651 96.478 73.5087C95.4971 72.5279 94.4408 67.8499 94.8181 66.7181C95.1199 65.6618 104.099 65.8881 106.89 65.9636H107.041V66.1145C106.966 66.3409 106.06 72.377 105.759 73.1315C105.457 73.9614 103.344 74.716 101.986 74.716C101.835 74.7914 101.835 74.7914 101.76 74.7914ZM102.514 66.2654C98.5152 66.2654 95.2708 66.4918 95.0444 66.869C94.7426 67.8499 95.7989 72.377 96.6289 73.2824C97.4589 74.1878 100.326 74.4896 101.91 74.4142C103.269 74.4142 105.155 73.6596 105.381 72.9806C105.608 72.4524 106.211 68.4535 106.588 66.2654C105.23 66.2654 103.797 66.2654 102.514 66.2654Z" fill="#FEF9A8"/>
<path d="M79.6526 66.9445L79.5771 66.6427L81.0862 66.4918V66.7936L79.6526 66.9445Z" fill="#FEF9A8"/>
<path d="M106.815 66.3408V65.9636H108.249V66.2654L106.815 66.3408Z" fill="#FEF9A8"/>
<path d="M95.3403 68.3813L92.2505 68.5354L92.2655 68.8368L95.3553 68.6828L95.3403 68.3813Z" fill="#FEF9A8"/>
<path d="M76.3335 184.649L73.4663 109.273L73.5418 109.197C73.6927 109.122 92.2537 99.6904 93.8382 98.9359L93.9891 99.2377C92.4801 99.9922 75.2017 108.745 73.7681 109.424L76.6353 184.573L76.3335 184.649Z" fill="#174A4F"/>
<path d="M106.362 111.084C104.928 111.687 106.06 114.102 107.72 113.875C109.38 113.649 109.682 112.366 109.229 111.763C108.625 110.706 107.418 110.555 106.362 111.084Z" fill="#24372B"/>
<path d="M82.2941 140.736C80.8605 141.34 81.9923 143.754 83.6522 143.528C85.3121 143.301 85.6139 142.019 85.1612 141.415C84.4822 140.359 83.2749 140.208 82.2941 140.736Z" fill="#24372B"/>
<path d="M76.559 116.063C76.1062 116.063 75.8044 115.988 75.6535 115.762C75.5781 115.611 75.5026 115.384 75.6535 115.082C76.408 113.951 81.0106 112.517 81.5387 112.593L81.4633 112.894V112.743V112.894C81.086 112.894 76.4835 114.177 75.8799 115.233C75.8044 115.384 75.8044 115.46 75.8799 115.535C76.408 116.29 81.1615 114.63 83.9532 113.423L84.1041 113.724C83.0478 114.177 78.5961 116.063 76.559 116.063Z" fill="#AAA891"/>
<path d="M99.0443 143.905C97.988 143.905 97.158 143.754 96.8562 143.301C96.6299 143 96.7053 142.698 96.8562 142.396C98.0635 140.661 106.439 139.302 107.118 139.529L107.042 139.831C106.74 139.755 104.628 140.057 102.289 140.585C99.497 141.264 97.6108 141.943 97.1581 142.622C97.0071 142.773 97.0071 142.924 97.1581 143.15C98.1389 144.584 107.797 142.245 111.418 141.189L111.494 141.491C110.438 141.792 102.892 143.905 99.0443 143.905Z" fill="#AAA891"/>
<path d="M94.7434 139.302L94.668 139.001C94.7434 139.001 103.571 137.114 110.362 138.472L110.286 138.774C103.571 137.416 94.8189 139.302 94.7434 139.302Z" fill="#AAA891"/>
<path d="M107.419 137.869C105.985 138.472 107.117 140.887 108.777 140.66C110.437 140.434 110.738 139.151 110.286 138.548C109.682 137.567 108.475 137.416 107.419 137.869Z" fill="#24372B"/>
<path d="M81.7653 111.914C80.3317 112.517 81.4635 114.932 83.1234 114.705C84.7833 114.479 85.0851 113.196 84.6324 112.593C83.9534 111.536 82.7461 111.461 81.7653 111.914Z" fill="#24372B"/>
<path d="M33.401 161.561C33.401 161.561 46.9823 169.483 48.2649 170.313C50.8303 171.973 55.3574 161.485 53.1693 159.901C50.9812 158.316 42.9833 150.318 40.9462 149.639C38.9844 148.96 31.062 158.543 33.401 161.561Z" fill="#80685A"/>
<path d="M42.9084 144.433C34.9106 141.34 29.4026 142.849 29.4026 142.849L29.3271 142.547C29.4026 142.547 34.986 140.962 43.0593 144.131L42.9084 144.433Z" fill="#AAA891"/>
<path d="M43.2103 142.773C41.5503 139.378 38.155 138.322 36.3442 137.718C35.5142 137.416 35.137 137.341 35.0615 137.114L35.3633 136.963C35.4388 137.114 35.9669 137.265 36.4951 137.416C38.3059 138.02 41.7767 139.151 43.5121 142.622L43.2103 142.773Z" fill="#AAA891"/>
<path d="M61.0921 162.24H60.7148L61.5448 139.981H61.8466L61.0921 162.24Z" fill="#AAA891"/>
<path d="M43.0591 191.364V193.627H151.256L151.03 191.062L43.0591 191.364Z" fill="#24372B"/>
<path d="M48.8689 188.723L48.6426 191.213H58.2249V188.874L52.1133 188.798L48.8689 188.723Z" fill="#C7C6B4"/>
<path d="M64.1849 188.874L63.9585 191.213H73.5408V188.874H64.1849Z" fill="#C7C6B4"/>
<path d="M51.811 189.855L51.9619 186.384L52.0374 186.309C52.3392 186.007 52.7165 185.856 53.0937 185.856C53.6219 185.856 54.0746 186.309 54.0746 186.837V189.629L51.811 189.855ZM52.2637 186.46L52.1128 189.478L53.6973 189.402V186.912C53.6973 186.535 53.3955 186.233 53.0183 186.233C52.7919 186.158 52.5655 186.309 52.2637 186.46Z" fill="#28362C"/>
<path d="M67.4302 189.855L67.5056 187.214C67.5056 186.761 67.732 186.384 68.1847 186.158C68.5619 185.931 69.0147 185.931 69.3165 186.158C69.5428 186.309 69.6183 186.384 69.6183 186.384L69.6937 186.46V189.704L67.4302 189.855ZM67.8829 187.214L67.8074 189.478L69.3919 189.402V186.61C69.3165 186.535 69.241 186.535 69.1656 186.46C68.9392 186.309 68.6374 186.309 68.3356 186.46C68.0338 186.61 67.8829 186.837 67.8829 187.214Z" fill="#28362C"/>
<path d="M61.3187 170.841L68.3357 124.438C68.3357 124.438 65.4685 97.955 63.2804 95.9178C63.0541 95.9933 62.9786 95.9933 62.9786 95.9933C62.9786 95.9933 61.0924 100.822 61.2433 104.444C61.5451 115.535 61.0169 148.734 60.6396 171.067C61.0169 170.917 61.3187 170.841 61.3187 170.841Z" fill="#F7F7F1"/>
<path d="M55.7354 160.655C55.7354 160.655 58.6025 161.485 61.4697 162.24C64.3368 162.994 66.9022 163.07 67.3549 163.447C68.2603 164.352 70.3729 166.163 70.3729 166.163C70.3729 166.163 73.0892 166.691 73.2401 167.069C73.5419 167.748 72.7119 169.106 71.2783 169.483C70.0711 169.709 67.4303 169.257 66.7513 168.955C66.0722 168.653 63.8841 166.012 63.5823 166.088C63.205 166.163 60.9415 169.257 57.3953 168.049" fill="#776055"/>
<path d="M128.319 138.397L131.337 139.227C131.639 120.666 131.79 98.9359 131.262 98.7095C129.149 97.8041 126.885 96.8987 124.622 96.1442C121.755 95.616 119.189 95.2388 117.077 95.2388L128.319 138.397Z" fill="#F7F7F1"/>
<path d="M140.918 155.6C139.032 156.807 124.319 172.576 124.319 172.576L133.675 178.235C133.675 178.235 152.236 168.955 152.689 164.88C153.141 160.806 142.88 154.393 140.918 155.6Z" fill="#705A52"/>
<path d="M120.018 188.497C119.339 189.1 118.887 190.006 116.849 190.534C114.812 191.062 113.303 190.459 113.303 188.572C115.793 186.535 118.736 182.687 118.736 182.687C118.736 182.687 121.754 184.498 121.829 185.177C122.056 185.781 120.697 187.893 120.018 188.497Z" fill="#776055"/>
<path d="M123.489 167.748C123.489 167.748 127.11 167.219 128.393 167.521C130.883 168.2 137.975 173.331 138.353 174.236C138.881 175.368 135.636 179.971 135.636 179.971C135.636 179.971 133.071 183.743 132.316 184.724C131.487 185.101 130.355 184.875 129.902 184.196C129.449 183.592 130.657 181.706 131.109 180.952C131.637 180.046 129.072 184.8 128.318 186.158C127.563 187.516 127.035 188.195 126.205 189.251C125.979 189.553 125.526 189.93 125.224 190.006C124.847 190.157 123.715 189.855 123.262 189.327C122.885 188.874 123.564 187.667 123.564 187.667C123.564 187.667 122.508 189.251 122.131 189.704C121.527 190.458 121.074 191.062 120.546 191.515C119.942 192.118 117.679 190.76 117.679 190.006C117.679 189.251 118.584 187.29 118.584 187.29C118.584 187.29 117.754 188.119 117 188.195C116.245 188.27 114.963 186.761 114.887 186.158C114.887 185.554 116.623 178.462 117.151 176.877C117.679 175.293 122.131 168.728 123.489 167.748Z" fill="#80685A"/>
<path d="M139.411 193.326L138.656 188.648C137.449 186.158 135.034 184.649 132.092 184.649L93.3098 185.026C91.1971 185.026 89.3863 186.384 88.9336 188.346L87.8018 192.873L87.5 192.797L88.6318 188.27C89.1599 186.158 91.0462 184.724 93.3098 184.724L132.092 184.347C135.185 184.347 137.751 185.931 138.958 188.572V188.648L139.712 193.326H139.411Z" fill="#28362C"/>
<path d="M125.98 193.326L125.603 188.648C125 186.158 123.868 184.951 122.359 184.951L101.534 185.101C100.478 185.101 99.5725 186.46 99.2707 188.421L98.667 192.948L98.3652 192.873L98.9688 188.346C99.2707 186.233 100.327 184.8 101.534 184.8L122.359 184.649C123.491 184.649 125.075 185.328 125.905 188.648L126.358 193.401L125.98 193.326Z" fill="#28362C"/>
<path d="M40.1167 173.105C42.2293 173.557 93.159 170.766 95.6489 170.237C95.7244 170.237 95.7244 170.162 95.7244 170.162L95.0453 166.012C95.0453 166.012 43.4366 168.955 42.0784 169.106C40.7203 169.181 40.1167 173.105 40.1167 173.105Z" fill="#24372B"/>
<path d="M90.519 127.909C90.519 127.909 104.176 132.135 105.081 131.757C105.987 131.38 108.099 130.022 108.099 130.022C108.099 130.022 92.7826 125.042 92.1035 125.57C91.4245 126.098 90.519 127.909 90.519 127.909Z" fill="#345949"/>
<path d="M117.304 122.175L114.361 121.043L117.53 136.511C117.53 136.511 119.341 137.869 120.096 137.265C120.85 136.662 117.304 122.175 117.304 122.175Z" fill="#345949"/>
<path d="M98.4414 153.185L100.177 155.977L104.704 141.566C104.704 141.566 103.723 139.981 102.818 139.755C101.912 139.68 98.4414 153.185 98.4414 153.185Z" fill="#637A6D"/>
<path d="M115.87 145.867C113.003 141.641 113.154 136.812 116.323 133.493C116.474 133.342 120.247 129.267 125.226 129.267C127.943 129.267 130.433 130.399 132.621 132.738L131.715 133.644C129.754 131.606 127.641 130.55 125.302 130.55H125.226C120.85 130.55 117.304 134.323 117.304 134.398C114.588 137.265 114.437 141.34 117.002 145.112L115.87 145.867Z" fill="#902A84"/>
<path d="M116.777 144.735C114.287 140.51 115.268 136.36 117.23 134.323C117.381 134.172 120.927 130.399 125.303 130.399C127.491 130.399 129.528 131.38 131.264 133.266L130.283 134.172C128.774 132.587 127.038 131.757 125.228 131.757C121.38 131.757 118.135 135.303 118.06 135.303C116.4 137.039 115.645 140.51 117.758 144.131L116.777 144.735Z" fill="#E7E5D3"/>
<path d="M87.1217 149.715C90.0643 149.036 91.8751 146.998 92.177 142.924C92.4788 138.85 90.4416 134.172 89.4607 134.172C88.4798 134.172 91.4979 139.227 89.838 141.264C88.178 143.301 84.7827 146.018 84.4809 147.376C84.1037 148.658 84.1037 150.394 87.1217 149.715Z" fill="#FF0000"/>
<path d="M81.9161 152.355L81.6143 152.28C81.6143 152.205 82.1424 149.941 84.1796 149.715L84.2551 150.016C82.3688 150.243 81.9161 152.355 81.9161 152.355Z" fill="#345949"/>
<path d="M85.085 150.318C84.6323 150.318 84.1041 150.167 83.8023 149.941C83.6514 149.866 83.5005 149.639 83.5005 149.262C83.5005 148.507 83.9532 147.149 84.255 146.923C84.4059 146.848 84.5568 146.848 84.6323 146.923C85.0095 147.149 85.085 148.281 85.085 148.658C85.085 148.96 85.5377 149.262 85.8395 149.413C86.0658 149.564 86.2167 149.639 86.2167 149.79C86.2167 149.866 86.2167 149.941 86.1413 149.941C85.9149 150.243 85.5377 150.318 85.085 150.318ZM84.5568 147.225C84.3305 147.376 83.8777 148.583 83.8777 149.262C83.8777 149.488 83.9532 149.639 84.0287 149.639C84.4814 149.941 85.3113 150.092 85.9149 149.715C85.8395 149.715 85.8395 149.639 85.764 149.639C85.3868 149.413 84.8586 149.111 84.8586 148.583C84.7832 147.828 84.6323 147.3 84.5568 147.225Z" fill="#345949"/>
<path d="M130.281 147.225L129.601 150.62L134.053 150.997L133.525 147.074C133.525 147.074 135.788 149.413 136.845 147.527C137.977 145.64 135.638 143 132.318 142.849C128.998 142.698 127.112 143.452 127.036 145.339C127.112 147.225 127.64 147.376 130.281 147.225Z" fill="#DDC7A2"/>
<path d="M130.357 147.376L130.206 147.3C129.376 146.999 128.697 145.565 128.772 144.886C128.848 144.66 128.999 144.509 129.15 144.509C129.753 144.509 130.81 144.961 130.96 145.489C131.111 145.942 130.508 146.999 130.357 147.149V147.376ZM129.225 144.886C129.225 144.886 129.225 144.886 129.15 144.961C129.074 145.414 129.527 146.621 130.206 146.923C130.508 146.395 130.734 145.791 130.734 145.565C130.659 145.414 129.829 144.961 129.225 144.886Z" fill="#726658"/>
<path d="M133.299 147.3V147.074C133.299 146.697 133.45 145.867 133.752 145.64C133.978 145.489 135.035 145.339 135.563 145.64C135.789 145.791 135.865 145.942 135.94 146.093C136.016 146.772 134.129 147.149 133.526 147.3H133.299ZM134.733 145.867C134.356 145.867 134.054 145.942 133.903 146.018C133.827 146.093 133.677 146.47 133.677 146.998C134.733 146.772 135.563 146.395 135.563 146.169C135.563 146.169 135.563 146.093 135.412 146.018C135.261 145.867 134.959 145.867 134.733 145.867Z" fill="#726658"/>
<path d="M96.4035 158.014L97.3089 161.41L101.459 159.825L99.2707 156.581C99.2707 156.581 102.364 157.637 102.44 155.449C102.515 153.261 99.3461 151.978 96.3281 153.261C93.31 154.544 91.9519 156.128 92.7818 157.863C93.6118 159.523 94.14 159.373 96.4035 158.014Z" fill="#DDC7A2"/>
<path d="M96.5546 158.165L96.3282 158.09C95.951 158.014 94.1401 157.562 93.8383 156.958C93.7629 156.883 93.7629 156.732 93.8383 156.656C93.9138 156.43 94.0647 156.279 94.3665 156.204C94.8946 155.977 95.7246 155.977 96.0264 156.128C96.4791 156.279 96.5546 157.562 96.5546 157.939V158.165ZM95.2719 156.355C94.9701 156.355 94.6683 156.43 94.4419 156.505C94.291 156.581 94.1401 156.656 94.1401 156.807C94.1401 156.807 94.1401 156.807 94.1401 156.883C94.291 157.184 95.4228 157.562 96.2528 157.788C96.1773 157.184 96.1019 156.505 95.8755 156.505C95.8001 156.43 95.5737 156.355 95.2719 156.355Z" fill="#726658"/>
<path d="M99.2711 156.732L99.1956 156.656C99.0447 156.505 98.2902 155.751 98.3656 155.298C98.3656 155.223 98.4411 155.072 98.592 154.996C98.8183 154.921 100.78 154.242 101.157 154.619C101.233 154.695 101.308 154.77 101.233 154.996C101.006 155.6 99.4974 156.581 99.2711 156.732ZM100.705 154.77C100.252 154.77 99.1956 154.996 98.7429 155.223C98.6674 155.223 98.6675 155.298 98.6675 155.298C98.6675 155.525 98.9693 155.977 99.2711 156.279C99.7238 155.977 100.78 155.223 100.931 154.77C100.856 154.77 100.78 154.77 100.705 154.77Z" fill="#726658"/>
<path d="M124.395 163.598L123.339 162.843C123.339 162.843 124.244 161.485 124.395 159.976C124.622 157.034 120.698 156.204 120.547 156.204L119.868 156.053L120.095 155.374C120.17 155.223 121.076 151.827 118.435 150.394C117.303 149.79 116.02 149.79 114.964 150.318C113.757 150.922 112.851 152.129 112.625 153.714L112.474 154.544L111.72 154.242C110.135 153.638 108.852 153.563 107.872 154.015C106.74 154.544 106.363 155.6 106.363 155.6L105.155 155.223C105.155 155.147 105.683 153.638 107.343 152.808C108.551 152.28 109.909 152.28 111.493 152.733C111.946 151.148 113.002 149.866 114.36 149.187C115.869 148.432 117.529 148.507 119.038 149.262C121.604 150.62 121.83 153.336 121.528 155.072C123.415 155.6 126.055 157.109 125.829 160.052C125.527 161.862 124.471 163.522 124.395 163.598Z" fill="#FF0000"/>
<path d="M86.3691 164.88L97.9132 174.689L148.39 160.58C148.39 160.58 153.672 148.206 153.295 147.828C152.917 147.376 86.3691 164.88 86.3691 164.88Z" fill="#24372B"/>
<path d="M88.1787 166.389L93.0076 170.539C94.4412 170.388 95.3466 170.313 95.6484 170.237C95.7238 170.237 95.7239 170.162 95.7239 170.162L95.0448 166.012C95.0448 166.012 92.3285 166.163 88.1787 166.389Z" fill="#0F1912"/>
<path d="M44.0405 165.182C44.0405 165.182 48.1904 175.142 49.7748 176.349C51.3593 177.632 60.2626 179.895 62.5261 178.688C62.9788 178.462 61.8471 174.01 61.5453 172.35C61.5453 172.35 61.6962 172.275 61.7716 172.275C62.677 173.482 65.016 176.802 66.5251 178.311C67.355 179.141 70.9767 178.99 70.9012 178.16C70.7503 177.028 69.1659 174.086 68.185 172.199C66.4496 168.879 65.4687 165.71 63.3561 164.126C61.2435 162.541 51.812 158.92 50.5294 158.316C49.2467 157.713 44.0405 165.182 44.0405 165.182Z" fill="#80685A"/>
<path d="M79.4258 44.0073L79.5767 53.4387C79.5767 53.4387 91.7998 43.7809 106.513 53.5896C106.588 51.5524 106.588 49.5152 106.664 47.5535C106.362 47.2517 106.06 47.0253 105.834 47.0253C103.797 46.799 101.91 47.478 101.91 47.478L94.7424 43.3282C92.1771 41.8946 89.5363 41.0647 87.7254 40.9892C84.1038 40.9892 81.5384 41.7437 79.4258 44.0073Z" fill="#0F1912"/>
</svg>
