<svg width="288" height="288" viewBox="0 0 288 288" fill="none" xmlns="http://www.w3.org/2000/svg">
<rect width="288" height="288" />
<path d="M52.1332 76.1865C52.1332 79.6234 55.4404 215.037 55.4404 215.037L233.856 213.49L232.29 75.1554L52.1332 76.1865Z" fill="#FF8B74"/>
<path fill-rule="evenodd" clip-rule="evenodd" d="M198.869 195.275C198.695 195.103 199.043 195.103 199.217 195.103C199.391 195.103 199.043 195.275 198.869 195.275Z" fill="#FFF3F0"/>
<path d="M207.814 196.871C207.828 196.682 207.607 196.511 207.319 196.489C207.032 196.468 206.787 196.604 206.772 196.793C206.758 196.982 206.979 197.153 207.267 197.175C207.554 197.196 207.799 197.06 207.814 196.871Z" fill="#FFF3F0"/>
<path fill-rule="evenodd" clip-rule="evenodd" d="M197.129 192.697C197.651 192.697 197.651 192.869 197.825 193.213C197.477 193.213 197.477 193.213 197.477 193.385C197.129 193.213 197.129 192.869 197.129 192.697Z" fill="#FFF3F0"/>
<path fill-rule="evenodd" clip-rule="evenodd" d="M208.965 201.118C208.791 200.946 209.139 200.946 209.313 200.946C209.487 200.946 209.139 201.118 208.965 201.118Z" fill="#FFF3F0"/>
<path d="M217.961 202.701C217.975 202.512 217.754 202.341 217.466 202.319C217.179 202.298 216.934 202.434 216.919 202.623C216.905 202.812 217.126 202.983 217.414 203.005C217.701 203.026 217.946 202.89 217.961 202.701Z" fill="#FFF3F0"/>
<path fill-rule="evenodd" clip-rule="evenodd" d="M164.231 182.73C163.882 182.558 164.579 182.215 164.753 182.215C165.101 182.387 164.405 182.902 164.231 182.73Z" fill="#FFF3F0"/>
<path fill-rule="evenodd" clip-rule="evenodd" d="M180.766 188.917C180.418 188.745 181.115 188.401 181.289 188.401C181.637 188.401 180.94 188.917 180.766 188.917Z" fill="#FFF3F0"/>
<path fill-rule="evenodd" clip-rule="evenodd" d="M197.651 191.322C197.303 191.151 197.999 190.807 198.173 190.807C198.521 190.807 197.825 191.322 197.651 191.322Z" fill="#FFF3F0"/>
<path fill-rule="evenodd" clip-rule="evenodd" d="M148.565 202.149C148.217 201.977 148.913 201.633 149.087 201.633C149.435 201.805 148.739 202.149 148.565 202.149Z" fill="#FFF3F0"/>
<path fill-rule="evenodd" clip-rule="evenodd" d="M168.408 197.853C168.06 197.681 168.756 197.337 168.93 197.337C169.452 197.509 168.582 198.024 168.408 197.853Z" fill="#FFF3F0"/>
<path fill-rule="evenodd" clip-rule="evenodd" d="M158.66 200.43C158.66 199.915 159.183 200.087 159.357 200.259C159.183 200.774 158.66 200.602 158.66 200.43Z" fill="#FFF3F0"/>
<path fill-rule="evenodd" clip-rule="evenodd" d="M153.439 203.18C153.787 203.008 154.309 203.008 154.657 202.836C154.657 203.008 154.831 203.351 154.831 203.523C154.483 203.695 153.961 203.695 153.613 203.867C153.439 203.695 153.439 203.351 153.439 203.18Z" fill="#FFF3F0"/>
<path fill-rule="evenodd" clip-rule="evenodd" d="M170.845 199.743C172.412 199.227 172.586 200.258 173.108 200.946C172.586 201.289 171.715 201.633 170.671 201.805C169.975 200.774 171.367 200.602 170.845 199.743Z" fill="#FFF3F0"/>
<path fill-rule="evenodd" clip-rule="evenodd" d="M168.582 201.118C168.582 200.43 169.278 200.946 169.278 201.289C169.278 201.977 168.582 201.461 168.582 201.118Z" fill="#FFF3F0"/>
<path fill-rule="evenodd" clip-rule="evenodd" d="M193.996 195.619C193.647 195.447 194.344 195.103 194.518 195.103C195.04 195.275 194.17 195.619 193.996 195.619Z" fill="#FFF3F0"/>
<path fill-rule="evenodd" clip-rule="evenodd" d="M173.63 200.43C173.63 199.915 174.152 200.087 174.326 200.259C174.326 200.774 173.63 200.602 173.63 200.43Z" fill="#FFF3F0"/>
<path fill-rule="evenodd" clip-rule="evenodd" d="M164.927 204.726C164.231 204.898 163.36 204.898 163.534 204.211C163.882 204.039 164.405 204.039 164.753 203.867C164.753 204.211 164.753 204.383 164.927 204.726Z" fill="#FFF3F0"/>
<path fill-rule="evenodd" clip-rule="evenodd" d="M169.801 203.18C169.801 202.664 170.323 202.836 170.497 203.008C170.323 203.523 169.801 203.523 169.801 203.18Z" fill="#FFF3F0"/>
<path fill-rule="evenodd" clip-rule="evenodd" d="M172.934 203.008C172.586 202.836 173.282 202.492 173.456 202.492C173.804 202.492 173.108 203.008 172.934 203.008Z" fill="#FFF3F0"/>
<path fill-rule="evenodd" clip-rule="evenodd" d="M156.746 206.445C158.486 205.585 158.312 208.85 155.875 208.679C156.049 207.819 157.616 207.476 156.746 206.445Z" fill="#FFF3F0"/>
<path fill-rule="evenodd" clip-rule="evenodd" d="M159.183 205.929C160.227 206.101 160.749 206.617 160.923 207.648C159.531 207.82 159.357 206.789 159.183 205.929Z" fill="#FFF3F0"/>
<path fill-rule="evenodd" clip-rule="evenodd" d="M164.927 204.726C167.015 205.07 164.753 207.304 164.927 204.726V204.726Z" fill="#FFF3F0"/>
<path fill-rule="evenodd" clip-rule="evenodd" d="M184.77 200.774C184.77 200.258 185.989 200.087 185.989 200.43C185.64 200.946 185.118 201.289 184.77 200.774Z" fill="#FFF3F0"/>
<path fill-rule="evenodd" clip-rule="evenodd" d="M199.74 197.681C199.391 197.509 200.088 197.165 200.262 197.165C200.61 197.165 199.914 197.681 199.74 197.681Z" fill="#FFF3F0"/>
<path fill-rule="evenodd" clip-rule="evenodd" d="M149.609 209.194C149.609 208.679 150.131 208.851 150.305 209.022C150.131 209.538 149.609 209.366 149.609 209.194Z" fill="#FFF3F0"/>
<path fill-rule="evenodd" clip-rule="evenodd" d="M186.859 200.774C189.122 200.087 191.21 202.492 188.077 203.008C189.47 201.633 186.859 201.977 186.859 200.774Z" fill="#FFF3F0"/>
<path fill-rule="evenodd" clip-rule="evenodd" d="M169.627 205.242C170.497 205.242 170.323 206.101 170.671 206.617C169.104 206.789 168.93 205.929 169.627 205.242Z" fill="#FFF3F0"/>
<path fill-rule="evenodd" clip-rule="evenodd" d="M190.166 201.289C190.166 200.43 191.036 201.289 191.036 201.977C190.862 202.664 190.166 201.805 190.166 201.289Z" fill="#FFF3F0"/>
<path fill-rule="evenodd" clip-rule="evenodd" d="M158.835 209.882C158.138 209.023 157.094 208.163 159.705 207.648C160.053 208.679 160.227 209.538 158.835 209.882Z" fill="#FFF3F0"/>
<path fill-rule="evenodd" clip-rule="evenodd" d="M174.849 205.414C174.849 204.898 175.371 205.07 175.545 205.242C175.371 205.757 174.849 205.585 174.849 205.414Z" fill="#FFF3F0"/>
<path fill-rule="evenodd" clip-rule="evenodd" d="M209.661 198.368C209.313 198.196 210.009 197.853 210.183 197.853C210.532 197.853 209.835 198.368 209.661 198.368Z" fill="#FFF3F0"/>
<path fill-rule="evenodd" clip-rule="evenodd" d="M148.913 211.772C148.913 211.428 149.609 211.256 150.131 211.085C150.131 211.428 149.261 211.428 148.913 211.772Z" fill="#FFF3F0"/>
<path fill-rule="evenodd" clip-rule="evenodd" d="M151.35 211.085C151.002 210.913 151.698 210.569 151.872 210.569C152.22 210.741 151.524 211.256 151.35 211.085Z" fill="#FFF3F0"/>
<path fill-rule="evenodd" clip-rule="evenodd" d="M153.265 210.741C152.916 210.569 153.613 210.225 153.787 210.225C154.135 210.397 153.439 210.913 153.265 210.741Z" fill="#FFF3F0"/>
<path fill-rule="evenodd" clip-rule="evenodd" d="M155.527 212.287C155.876 211.428 155.353 210.397 156.224 209.71C159.009 209.194 155.179 211.085 156.92 212.459C156.224 212.459 156.05 212.287 155.527 212.287Z" fill="#FFF3F0"/>
<path fill-rule="evenodd" clip-rule="evenodd" d="M163.882 208.507C163.882 207.991 164.404 208.163 164.579 208.335C164.404 208.85 163.882 208.679 163.882 208.507Z" fill="#FFF3F0"/>
<path fill-rule="evenodd" clip-rule="evenodd" d="M171.889 206.788C171.541 206.617 172.237 206.273 172.411 206.273C172.76 206.445 172.063 206.788 171.889 206.788Z" fill="#FFF3F0"/>
<path fill-rule="evenodd" clip-rule="evenodd" d="M203.047 200.086C203.047 199.571 203.569 199.743 203.743 199.915C203.569 200.43 203.047 200.258 203.047 200.086Z" fill="#FFF3F0"/>
<path fill-rule="evenodd" clip-rule="evenodd" d="M230.897 194.072C230.897 193.728 231.593 193.556 232.116 193.385C232.116 193.9 231.419 193.9 230.897 194.072Z" fill="#FFF3F0"/>
<path fill-rule="evenodd" clip-rule="evenodd" d="M229.853 194.759C229.853 194.072 230.549 194.587 230.549 194.931C230.549 195.618 229.853 195.275 229.853 194.759Z" fill="#FFF3F0"/>
<path fill-rule="evenodd" clip-rule="evenodd" d="M151.698 212.287C150.828 211.084 154.135 211.084 154.657 211.256C154.657 211.944 153.09 211.944 153.613 212.631C152.742 212.803 152.916 211.772 151.698 212.287Z" fill="#FFF3F0"/>
<path fill-rule="evenodd" clip-rule="evenodd" d="M158.835 209.882C160.227 211.944 157.268 212.631 157.616 210.225C158.138 210.054 158.486 210.054 158.835 209.882Z" fill="#FFF3F0"/>
<path fill-rule="evenodd" clip-rule="evenodd" d="M165.797 208.507C167.538 208.163 167.712 210.054 165.623 210.225C165.971 209.71 165.971 209.194 165.797 208.507Z" fill="#FFF3F0"/>
<path fill-rule="evenodd" clip-rule="evenodd" d="M168.408 208.335C169.626 207.82 169.8 208.679 169.975 209.194C169.452 209.194 169.278 209.022 168.582 209.022C168.408 208.851 168.408 208.679 168.408 208.335Z" fill="#FFF3F0"/>
<path fill-rule="evenodd" clip-rule="evenodd" d="M181.985 205.414C183.029 205.586 184.074 205.586 184.248 206.617C183.204 206.445 182.159 206.445 181.985 205.414Z" fill="#FFF3F0"/>
<path fill-rule="evenodd" clip-rule="evenodd" d="M151.698 212.287C151.872 212.631 151.872 212.975 152.046 213.49C151.176 213.662 150.828 212.631 151.698 212.287Z" fill="#FFF3F0"/>
<path fill-rule="evenodd" clip-rule="evenodd" d="M162.838 210.225C162.838 209.71 163.36 209.882 163.534 210.054C163.534 210.569 163.012 210.569 162.838 210.225Z" fill="#FFF3F0"/>
<path fill-rule="evenodd" clip-rule="evenodd" d="M185.989 205.414C185.815 204.898 186.685 204.898 185.989 205.414V205.414Z" fill="#FFF3F0"/>
<path fill-rule="evenodd" clip-rule="evenodd" d="M179.026 206.789C180.418 206.617 180.767 207.476 180.07 208.163C179.2 208.335 179.374 207.476 179.026 206.789Z" fill="#FFF3F0"/>
<path fill-rule="evenodd" clip-rule="evenodd" d="M185.988 205.414C186.162 205.758 185.118 205.758 185.988 205.414V205.414Z" fill="#FFF3F0"/>
<path fill-rule="evenodd" clip-rule="evenodd" d="M190.862 204.383C193.822 204.039 190.862 206.788 190.862 204.383V204.383Z" fill="#FFF3F0"/>
<path fill-rule="evenodd" clip-rule="evenodd" d="M194.17 204.039C194.17 203.352 194.866 203.867 194.866 204.211C194.866 204.898 194.17 204.383 194.17 204.039Z" fill="#FFF3F0"/>
<path fill-rule="evenodd" clip-rule="evenodd" d="M155.527 212.287C155.701 212.803 154.657 212.631 155.527 212.287V212.287Z" fill="#FFF3F0"/>
<path fill-rule="evenodd" clip-rule="evenodd" d="M181.115 207.132C180.767 206.96 181.463 206.617 181.637 206.617C181.985 206.788 181.289 207.304 181.115 207.132Z" fill="#FFF3F0"/>
<path fill-rule="evenodd" clip-rule="evenodd" d="M216.624 199.571C216.45 198.883 217.668 199.571 217.32 199.743C216.798 200.43 215.579 199.571 216.624 199.571Z" fill="#FFF3F0"/>
<path fill-rule="evenodd" clip-rule="evenodd" d="M151.872 213.49C152.568 213.319 152.394 214.006 151.872 213.49V213.49Z" fill="#FFF3F0"/>
<path fill-rule="evenodd" clip-rule="evenodd" d="M200.436 203.523C200.088 203.351 200.784 203.008 200.958 203.008C201.306 203.008 200.61 203.523 200.436 203.523Z" fill="#FFF3F0"/>
<path fill-rule="evenodd" clip-rule="evenodd" d="M206.006 202.32C205.658 202.149 206.354 201.805 206.528 201.805C207.05 201.805 206.354 202.32 206.006 202.32Z" fill="#FFF3F0"/>
<path fill-rule="evenodd" clip-rule="evenodd" d="M157.616 212.975C157.616 212.631 158.312 212.459 158.835 212.287C158.835 212.803 158.138 212.803 157.616 212.975Z" fill="#FFF3F0"/>
<path fill-rule="evenodd" clip-rule="evenodd" d="M160.227 212.459C160.923 210.913 161.968 212.803 161.793 213.662C161.097 213.834 160.575 214.006 159.879 214.006C159.357 213.147 160.923 213.147 160.923 212.631C160.923 212.459 160.575 212.459 160.227 212.459Z" fill="#FFF3F0"/>
<path fill-rule="evenodd" clip-rule="evenodd" d="M164.579 211.6C164.579 211.084 165.797 210.913 165.797 211.256C165.623 211.944 165.275 211.428 164.579 211.6Z" fill="#FFF3F0"/>
<path fill-rule="evenodd" clip-rule="evenodd" d="M175.719 209.194C175.719 208.679 176.241 208.851 176.415 209.022C176.241 209.538 175.719 209.366 175.719 209.194Z" fill="#FFF3F0"/>
<path fill-rule="evenodd" clip-rule="evenodd" d="M154.657 214.006C156.049 213.834 156.398 214.693 155.701 215.381C154.135 215.724 153.961 214.693 154.657 214.006Z" fill="#FFF3F0"/>
<path fill-rule="evenodd" clip-rule="evenodd" d="M151.698 215.553C151.698 215.037 152.22 215.209 152.394 215.381C152.394 215.896 151.698 215.724 151.698 215.553Z" fill="#FFF3F0"/>
<path fill-rule="evenodd" clip-rule="evenodd" d="M171.541 211.256C171.193 210.569 174.848 209.882 174.152 211.085C172.934 211.6 172.412 211.256 171.541 211.256Z" fill="#FFF3F0"/>
<path fill-rule="evenodd" clip-rule="evenodd" d="M188.251 207.304C189.47 207.132 189.122 208.679 190.514 208.507C189.992 209.71 188.251 208.163 188.251 207.304Z" fill="#FFF3F0"/>
<path fill-rule="evenodd" clip-rule="evenodd" d="M201.48 204.898C201.48 204.383 202.002 204.555 202.176 204.726C202.002 205.242 201.48 205.07 201.48 204.898Z" fill="#FFF3F0"/>
<path fill-rule="evenodd" clip-rule="evenodd" d="M156.746 214.35C157.79 214.006 157.964 214.35 158.138 214.865C157.616 214.865 157.616 215.209 157.616 215.381C156.92 215.553 156.92 214.865 156.746 214.35Z" fill="#FFF3F0"/>
<path fill-rule="evenodd" clip-rule="evenodd" d="M179.722 209.538C182.333 210.225 178.156 211.256 179.722 209.538V209.538Z" fill="#FFF3F0"/>
<path fill-rule="evenodd" clip-rule="evenodd" d="M223.238 200.258C224.805 200.086 224.109 201.977 222.716 201.118C222.89 200.774 223.238 200.602 223.238 200.258Z" fill="#FFF3F0"/>
<path fill-rule="evenodd" clip-rule="evenodd" d="M165.797 214.178C165.623 214.178 165.449 214.35 165.101 214.35C165.449 214.693 165.797 214.35 165.797 214.178C168.408 213.49 168.06 214.865 170.323 213.662C170.497 214.006 170.497 214.35 170.671 214.865C169.278 215.037 166.667 214.521 167.712 216.24C165.275 216.927 162.316 213.662 165.623 213.147C165.623 213.319 165.623 213.662 165.797 214.178Z" fill="#FFF3F0"/>
<path fill-rule="evenodd" clip-rule="evenodd" d="M230.897 199.399C230.549 199.227 231.245 198.883 231.419 198.883C231.767 199.055 231.071 199.399 230.897 199.399Z" fill="#FFF3F0"/>
<path fill-rule="evenodd" clip-rule="evenodd" d="M160.227 215.381C161.097 213.318 164.23 214.865 162.838 215.552C162.316 215.896 161.445 214.178 160.227 215.381Z" fill="#FFF3F0"/>
<path fill-rule="evenodd" clip-rule="evenodd" d="M172.063 212.803C171.715 212.631 172.411 212.287 172.585 212.287C172.934 212.459 172.237 212.803 172.063 212.803Z" fill="#FFF3F0"/>
<path fill-rule="evenodd" clip-rule="evenodd" d="M175.022 212.116C174.674 211.944 175.371 211.6 175.545 211.6C176.067 211.772 175.371 212.116 175.022 212.116Z" fill="#FFF3F0"/>
<path fill-rule="evenodd" clip-rule="evenodd" d="M178.156 211.428C177.808 211.256 178.504 210.913 178.678 210.913C179.026 211.085 178.33 211.428 178.156 211.428Z" fill="#FFF3F0"/>
<path fill-rule="evenodd" clip-rule="evenodd" d="M183.726 210.225C181.289 211.085 183.378 209.194 183.726 210.225V210.225Z" fill="#FFF3F0"/>
<path fill-rule="evenodd" clip-rule="evenodd" d="M186.859 209.538C186.511 209.366 187.207 209.022 187.381 209.022C187.729 209.194 187.033 209.71 186.859 209.538Z" fill="#FFF3F0"/>
<path fill-rule="evenodd" clip-rule="evenodd" d="M183.726 210.225C184.77 210.053 185.814 209.71 185.814 210.569C185.118 210.741 184.596 210.913 183.9 210.913C183.9 210.741 183.9 210.569 183.726 210.225Z" fill="#FFF3F0"/>
<path fill-rule="evenodd" clip-rule="evenodd" d="M194.518 208.679C193.647 207.304 196.432 208.335 194.518 208.679V208.679Z" fill="#FFF3F0"/>
<path fill-rule="evenodd" clip-rule="evenodd" d="M196.258 207.991C195.91 207.819 196.606 207.476 196.78 207.476C197.303 207.647 196.606 207.991 196.258 207.991Z" fill="#FFF3F0"/>
<path fill-rule="evenodd" clip-rule="evenodd" d="M211.228 204.726C210.88 204.555 211.576 204.211 211.75 204.211C212.098 204.383 211.402 204.898 211.228 204.726Z" fill="#FFF3F0"/>
<path fill-rule="evenodd" clip-rule="evenodd" d="M172.238 213.491C171.889 213.319 172.586 212.975 172.76 212.975C173.108 213.147 172.412 213.662 172.238 213.491Z" fill="#FFF3F0"/>
<path fill-rule="evenodd" clip-rule="evenodd" d="M174.5 212.631C174.848 212.459 175.371 212.459 175.719 212.287C176.241 212.975 175.022 213.147 173.978 213.49C174.152 213.147 174.674 212.975 174.5 212.631Z" fill="#FFF3F0"/>
<path fill-rule="evenodd" clip-rule="evenodd" d="M177.633 211.944C177.981 211.772 178.504 211.772 178.852 211.6C179.2 212.116 178.504 212.459 178.504 212.803C178.156 212.975 177.633 212.975 177.285 213.147C176.937 212.631 177.807 212.459 177.633 211.944Z" fill="#FFF3F0"/>
<path fill-rule="evenodd" clip-rule="evenodd" d="M159.183 216.756C158.835 216.584 159.531 216.24 159.705 216.24C160.053 216.24 159.357 216.756 159.183 216.756Z" fill="#FFF3F0"/>
<path fill-rule="evenodd" clip-rule="evenodd" d="M194.518 208.679C195.736 210.569 192.777 209.538 194.518 208.679V208.679Z" fill="#FFF3F0"/>
<path fill-rule="evenodd" clip-rule="evenodd" d="M206.528 206.617C206.18 206.445 206.876 206.101 207.05 206.101C207.398 206.273 206.702 206.617 206.528 206.617Z" fill="#FFF3F0"/>
<path fill-rule="evenodd" clip-rule="evenodd" d="M182.333 212.116C181.985 211.944 182.681 211.6 182.855 211.6C183.203 211.772 182.507 212.287 182.333 212.116Z" fill="#FFF3F0"/>
<path fill-rule="evenodd" clip-rule="evenodd" d="M193.125 210.741C192.603 210.913 192.429 211.256 192.603 211.6C190.34 211.772 192.603 208.507 193.125 210.741Z" fill="#FFF3F0"/>
<path fill-rule="evenodd" clip-rule="evenodd" d="M183.552 212.287C184.074 212.459 184.596 212.459 185.466 212.287C185.814 213.147 184.77 213.662 184.596 214.521C182.507 214.521 184.422 213.49 183.552 212.287Z" fill="#FFF3F0"/>
<path fill-rule="evenodd" clip-rule="evenodd" d="M172.76 215.896C172.586 215.896 172.412 216.068 172.063 216.068C171.715 215.381 172.586 214.865 172.76 215.896Z" fill="#FFF3F0"/>
<path d="M174.596 215.542C175.067 215.446 175.401 215.143 175.343 214.864C175.285 214.585 174.856 214.437 174.385 214.532C173.914 214.628 173.58 214.932 173.638 215.211C173.696 215.49 174.125 215.638 174.596 215.542Z" fill="#FFF3F0"/>
<path fill-rule="evenodd" clip-rule="evenodd" d="M176.937 214.522C176.589 214.35 177.285 214.006 177.46 214.006C177.808 214.178 177.111 214.522 176.937 214.522Z" fill="#FFF3F0"/>
<path fill-rule="evenodd" clip-rule="evenodd" d="M193.125 210.741C194.866 210.397 192.777 212.459 193.125 210.741V210.741Z" fill="#FFF3F0"/>
<path fill-rule="evenodd" clip-rule="evenodd" d="M195.04 210.569C195.388 210.397 195.91 210.397 196.258 210.225C196.084 210.569 195.736 210.913 195.91 211.428C194.518 211.772 194.518 211.428 195.04 210.569Z" fill="#FFF3F0"/>
<path fill-rule="evenodd" clip-rule="evenodd" d="M160.923 218.302C161.271 218.13 161.794 218.13 162.142 217.958C162.142 218.13 162.316 218.474 162.316 218.646C161.968 218.818 161.446 218.818 161.097 218.99C161.097 218.818 160.923 218.646 160.923 218.302Z" fill="#FFF3F0"/>
<path fill-rule="evenodd" clip-rule="evenodd" d="M163.36 217.787C163.708 217.615 164.23 217.615 164.579 217.443C164.579 217.615 164.753 217.958 164.753 218.13C164.404 218.302 163.882 218.302 163.534 218.474C163.534 218.302 163.36 218.13 163.36 217.787Z" fill="#FFF3F0"/>
<path fill-rule="evenodd" clip-rule="evenodd" d="M165.797 217.271C166.145 217.099 166.667 217.099 167.016 216.927C167.016 217.099 167.19 217.443 167.19 217.615C166.841 217.786 166.319 217.786 165.971 217.958C165.971 217.786 165.971 217.614 165.797 217.271Z" fill="#FFF3F0"/>
<path fill-rule="evenodd" clip-rule="evenodd" d="M172.063 215.896C171.715 216.412 170.845 216.927 169.8 217.271C168.93 216.24 171.019 216.24 172.063 215.896Z" fill="#FFF3F0"/>
<path fill-rule="evenodd" clip-rule="evenodd" d="M172.76 215.896C174.674 215.896 172.586 217.958 172.76 215.896V215.896Z" fill="#FFF3F0"/>
<path fill-rule="evenodd" clip-rule="evenodd" d="M175.893 215.552C175.893 215.209 176.589 215.037 177.111 214.865C177.111 215.209 176.415 215.381 175.893 215.552Z" fill="#FFF3F0"/>
<path fill-rule="evenodd" clip-rule="evenodd" d="M178.33 214.693C179.2 214.693 179.722 215.209 179.896 215.896C178.156 216.755 178.678 215.209 178.33 214.693Z" fill="#FFF3F0"/>
<path fill-rule="evenodd" clip-rule="evenodd" d="M180.766 214.178C181.115 214.006 181.637 214.006 181.985 213.834C181.985 214.006 182.159 214.35 182.159 214.521C181.811 214.693 181.289 214.693 180.941 214.865C180.941 214.521 180.766 214.35 180.766 214.178Z" fill="#FFF3F0"/>
<path fill-rule="evenodd" clip-rule="evenodd" d="M197.651 210.913C197.303 210.741 197.999 210.397 198.173 210.397C198.521 210.569 197.825 210.913 197.651 210.913Z" fill="#FFF3F0"/>
<path fill-rule="evenodd" clip-rule="evenodd" d="M204.439 209.022C206.006 208.679 206.006 210.054 206.18 211.085C204.091 211.944 204.962 209.71 204.439 209.022Z" fill="#FFF3F0"/>
<path fill-rule="evenodd" clip-rule="evenodd" d="M158.66 220.02C158.66 219.505 159.879 219.333 159.879 219.677C159.705 220.364 159.357 219.849 158.66 220.02Z" fill="#FFF3F0"/>
<path fill-rule="evenodd" clip-rule="evenodd" d="M216.45 207.648C216.45 207.304 217.146 207.132 217.668 206.96C217.668 207.304 216.972 207.476 216.45 207.648Z" fill="#FFF3F0"/>
<path fill-rule="evenodd" clip-rule="evenodd" d="M153.439 222.426C153.439 221.911 153.961 222.083 154.135 222.254C153.961 222.77 153.439 222.598 153.439 222.426Z" fill="#FFF3F0"/>
<path fill-rule="evenodd" clip-rule="evenodd" d="M160.749 220.708C160.053 221.052 160.227 220.364 160.749 220.708V220.708Z" fill="#FFF3F0"/>
<path fill-rule="evenodd" clip-rule="evenodd" d="M168.234 219.161C168.06 218.646 169.104 218.817 168.234 219.161V219.161Z" fill="#FFF3F0"/>
<path fill-rule="evenodd" clip-rule="evenodd" d="M173.456 218.818C171.541 218.989 171.715 219.849 169.801 220.02C169.452 219.161 174.5 216.755 173.456 218.818Z" fill="#FFF3F0"/>
<path fill-rule="evenodd" clip-rule="evenodd" d="M198.173 212.803C198.173 212.287 198.695 212.459 198.869 212.631C198.695 213.147 198.173 212.975 198.173 212.803Z" fill="#FFF3F0"/>
<path fill-rule="evenodd" clip-rule="evenodd" d="M211.75 209.882C211.75 209.366 212.272 209.538 212.446 209.71C212.446 210.225 211.924 210.053 211.75 209.882Z" fill="#FFF3F0"/>
<path fill-rule="evenodd" clip-rule="evenodd" d="M160.749 220.708C163.708 219.677 160.575 222.77 160.749 220.708V220.708Z" fill="#FFF3F0"/>
<path fill-rule="evenodd" clip-rule="evenodd" d="M168.234 219.161C169.452 220.02 165.797 220.88 166.319 219.505C167.016 219.505 167.712 219.333 168.234 219.161Z" fill="#FFF3F0"/>
<path fill-rule="evenodd" clip-rule="evenodd" d="M177.633 217.614C177.459 216.927 178.678 217.614 178.33 217.786C177.807 218.302 176.589 217.614 177.633 217.614Z" fill="#FFF3F0"/>
<path fill-rule="evenodd" clip-rule="evenodd" d="M184.596 216.068C184.77 215.381 185.118 216.068 185.814 215.724C185.814 216.412 184.596 216.412 184.596 216.068Z" fill="#FFF3F0"/>
<path fill-rule="evenodd" clip-rule="evenodd" d="M194.518 214.006C194.518 213.49 195.04 213.662 195.214 213.834C195.04 214.35 194.518 214.178 194.518 214.006Z" fill="#FFF3F0"/>
<path fill-rule="evenodd" clip-rule="evenodd" d="M224.805 207.132C226.197 206.96 225.501 208.679 226.023 209.366C224.979 208.851 223.935 207.82 224.805 207.132Z" fill="#FFF3F0"/>
<path fill-rule="evenodd" clip-rule="evenodd" d="M181.463 217.099C181.463 216.584 182.507 216.584 183.203 216.24C183.378 216.756 182.159 216.927 181.463 217.099Z" fill="#FFF3F0"/>
<path fill-rule="evenodd" clip-rule="evenodd" d="M203.221 212.116C203.395 213.319 200.61 213.49 199.217 214.178C198.521 212.803 202.35 212.975 203.221 212.116Z" fill="#FFF3F0"/>
<path fill-rule="evenodd" clip-rule="evenodd" d="M173.456 218.817C175.893 217.958 173.804 220.02 173.456 218.817V218.817Z" fill="#FFF3F0"/>
<path fill-rule="evenodd" clip-rule="evenodd" d="M179.2 218.13C179.2 217.615 180.418 217.443 180.418 217.786C180.244 218.474 179.722 217.786 179.2 218.13Z" fill="#FFF3F0"/>
<path fill-rule="evenodd" clip-rule="evenodd" d="M210.88 211.257C210.88 210.741 212.098 210.569 212.098 210.913C211.924 211.6 211.576 211.085 210.88 211.257Z" fill="#FFF3F0"/>
<path fill-rule="evenodd" clip-rule="evenodd" d="M218.365 209.71C218.365 209.194 219.409 209.194 220.105 208.851C220.105 209.366 219.061 209.538 218.365 209.71Z" fill="#FFF3F0"/>
<path fill-rule="evenodd" clip-rule="evenodd" d="M223.238 208.679C223.238 207.819 224.108 208.679 224.108 209.366C223.934 210.053 223.238 209.194 223.238 208.679Z" fill="#FFF3F0"/>
<path fill-rule="evenodd" clip-rule="evenodd" d="M227.59 207.648C227.242 207.476 227.938 207.132 228.112 207.132C228.46 207.304 227.764 207.819 227.59 207.648Z" fill="#FFF3F0"/>
<path fill-rule="evenodd" clip-rule="evenodd" d="M233.16 206.445C233.16 205.929 233.682 206.101 233.856 206.273C233.856 206.788 233.334 206.788 233.16 206.445Z" fill="#FFF3F0"/>
<path fill-rule="evenodd" clip-rule="evenodd" d="M173.108 220.536C173.108 220.02 173.63 220.192 173.804 220.364C173.804 220.88 173.282 220.708 173.108 220.536Z" fill="#FFF3F0"/>
<path fill-rule="evenodd" clip-rule="evenodd" d="M219.235 213.834C218.887 212.631 218.713 211.6 218.365 210.397C220.279 210.741 220.279 212.975 219.235 213.834Z" fill="#FFF3F0"/>
<path fill-rule="evenodd" clip-rule="evenodd" d="M228.46 208.679C228.46 208.335 229.156 208.163 229.679 207.991C229.679 208.507 228.982 208.507 228.46 208.679Z" fill="#FFF3F0"/>
<path fill-rule="evenodd" clip-rule="evenodd" d="M181.811 218.646C183.726 218.817 181.115 220.192 179.548 220.364C178.33 218.989 182.333 219.677 181.811 218.646Z" fill="#FFF3F0"/>
<path fill-rule="evenodd" clip-rule="evenodd" d="M205.832 215.209C204.613 212.803 207.573 213.834 205.832 215.209V215.209Z" fill="#FFF3F0"/>
<path fill-rule="evenodd" clip-rule="evenodd" d="M210.01 213.147C210.01 212.459 210.706 212.975 210.706 213.319C210.706 214.006 210.01 213.49 210.01 213.147Z" fill="#FFF3F0"/>
<path fill-rule="evenodd" clip-rule="evenodd" d="M168.408 222.426C168.06 222.254 168.756 221.911 168.93 221.911C169.278 221.911 168.582 222.426 168.408 222.426Z" fill="#FFF3F0"/>
<path fill-rule="evenodd" clip-rule="evenodd" d="M222.542 210.741C222.542 210.225 223.76 210.053 223.76 210.397C223.238 210.913 222.716 211.256 222.542 210.741Z" fill="#FFF3F0"/>
<path fill-rule="evenodd" clip-rule="evenodd" d="M178.33 220.536C178.33 220.02 178.852 220.192 179.026 220.364C179.026 220.88 178.504 220.88 178.33 220.536Z" fill="#FFF3F0"/>
<path fill-rule="evenodd" clip-rule="evenodd" d="M211.924 212.975C212.272 212.803 212.794 212.803 213.143 212.631C213.143 212.803 213.317 213.147 213.317 213.318C212.968 213.49 212.446 213.49 212.098 213.662C212.098 213.49 211.924 213.318 211.924 212.975Z" fill="#FFF3F0"/>
<path fill-rule="evenodd" clip-rule="evenodd" d="M200.262 216.412C199.914 216.24 200.61 215.896 200.784 215.896C201.132 215.896 200.436 216.412 200.262 216.412Z" fill="#FFF3F0"/>
<path d="M216.528 213.311C216.999 213.215 217.333 212.912 217.275 212.633C217.217 212.354 216.788 212.205 216.317 212.301C215.846 212.397 215.512 212.701 215.57 212.98C215.628 213.258 216.057 213.407 216.528 213.311Z" fill="#FFF3F0"/>
<path fill-rule="evenodd" clip-rule="evenodd" d="M185.466 219.849C185.118 219.677 185.814 219.333 185.988 219.333C186.337 219.505 185.64 220.021 185.466 219.849Z" fill="#FFF3F0"/>
<path fill-rule="evenodd" clip-rule="evenodd" d="M198.521 217.099C198.173 216.927 198.869 216.584 199.043 216.584C199.391 216.755 198.695 217.271 198.521 217.099Z" fill="#FFF3F0"/>
<path fill-rule="evenodd" clip-rule="evenodd" d="M205.832 215.209C206.18 216.068 206.006 216.755 205.658 217.271C203.743 217.271 206.18 216.068 205.136 215.381C205.484 215.209 205.658 215.209 205.832 215.209Z" fill="#FFF3F0"/>
<path fill-rule="evenodd" clip-rule="evenodd" d="M222.194 212.116C221.846 211.944 222.542 211.6 222.716 211.6C223.064 211.6 222.368 212.116 222.194 212.116Z" fill="#FFF3F0"/>
<path fill-rule="evenodd" clip-rule="evenodd" d="M209.139 215.209C209.139 215.38 209.313 215.724 209.313 215.896C206.354 217.099 207.747 214.177 209.139 215.209Z" fill="#FFF3F0"/>
<path fill-rule="evenodd" clip-rule="evenodd" d="M168.234 224.317C168.234 223.801 168.756 223.973 168.93 224.145C168.756 224.66 168.234 224.66 168.234 224.317Z" fill="#FFF3F0"/>
<path fill-rule="evenodd" clip-rule="evenodd" d="M229.157 211.428C228.808 211.256 229.505 210.913 229.679 210.913C230.027 210.913 229.331 211.428 229.157 211.428Z" fill="#FFF3F0"/>
<path fill-rule="evenodd" clip-rule="evenodd" d="M173.978 223.629C173.978 222.942 174.674 223.457 174.674 223.801C174.674 224.488 173.978 223.973 173.978 223.629Z" fill="#FFF3F0"/>
<path fill-rule="evenodd" clip-rule="evenodd" d="M184.422 221.395C184.596 220.708 184.944 221.395 185.64 221.051C185.64 221.567 184.596 221.739 184.422 221.395Z" fill="#FFF3F0"/>
<path fill-rule="evenodd" clip-rule="evenodd" d="M189.296 219.849C190.862 219.505 189.818 221.052 189.644 221.395C187.729 221.567 190.166 220.536 189.296 219.849Z" fill="#FFF3F0"/>
<path fill-rule="evenodd" clip-rule="evenodd" d="M213.665 214.693C216.102 215.381 211.924 216.412 213.665 214.693V214.693Z" fill="#FFF3F0"/>
<path fill-rule="evenodd" clip-rule="evenodd" d="M222.89 212.631C224.283 212.459 224.457 213.319 224.631 214.35C223.238 214.35 221.846 213.662 222.89 212.631Z" fill="#FFF3F0"/>
<path fill-rule="evenodd" clip-rule="evenodd" d="M159.009 227.238C159.009 226.551 159.705 227.066 159.705 227.41C159.705 228.097 159.009 227.582 159.009 227.238Z" fill="#FFF3F0"/>
<path fill-rule="evenodd" clip-rule="evenodd" d="M219.235 213.834C219.409 214.35 218.364 214.35 219.235 213.834V213.834Z" fill="#FFF3F0"/>
<path fill-rule="evenodd" clip-rule="evenodd" d="M226.72 212.288C229.505 211.944 226.546 214.693 226.72 212.288V212.288Z" fill="#FFF3F0"/>
<path fill-rule="evenodd" clip-rule="evenodd" d="M230.027 212.459C230.027 211.944 230.549 212.116 230.723 212.288C230.549 212.631 230.027 212.631 230.027 212.459Z" fill="#FFF3F0"/>
<path fill-rule="evenodd" clip-rule="evenodd" d="M232.464 211.428C233.334 211.428 233.856 211.6 234.03 212.287C233.16 212.287 232.464 212.116 232.464 211.428Z" fill="#FFF3F0"/>
<path fill-rule="evenodd" clip-rule="evenodd" d="M209.661 217.099C209.661 216.412 210.358 216.927 210.358 217.271C210.358 217.958 209.661 217.614 209.661 217.099Z" fill="#FFF3F0"/>
<path fill-rule="evenodd" clip-rule="evenodd" d="M219.583 215.381C219.583 214.522 220.453 215.381 220.453 216.068C220.453 216.756 219.583 215.896 219.583 215.381Z" fill="#FFF3F0"/>
<path fill-rule="evenodd" clip-rule="evenodd" d="M210.531 218.13C213.142 217.787 210.357 220.536 210.531 218.13V218.13Z" fill="#FFF3F0"/>
<path fill-rule="evenodd" clip-rule="evenodd" d="M212.968 217.615C214.709 216.583 215.231 218.989 213.317 218.817C213.143 218.474 213.143 217.958 212.968 217.615Z" fill="#FFF3F0"/>
<path fill-rule="evenodd" clip-rule="evenodd" d="M227.416 215.381C226.197 216.927 224.631 214.522 227.416 215.381V215.381Z" fill="#FFF3F0"/>
<path fill-rule="evenodd" clip-rule="evenodd" d="M229.331 214.865C228.982 214.693 229.679 214.349 229.853 214.349C230.201 214.521 229.505 215.037 229.331 214.865Z" fill="#FFF3F0"/>
<path fill-rule="evenodd" clip-rule="evenodd" d="M187.381 225.52C186.685 225.691 186.859 225.004 187.381 225.52V225.52Z" fill="#FFF3F0"/>
<path fill-rule="evenodd" clip-rule="evenodd" d="M212.272 220.192C212.098 218.989 214.883 220.02 212.272 220.192V220.192Z" fill="#FFF3F0"/>
<path fill-rule="evenodd" clip-rule="evenodd" d="M185.64 226.207C185.292 226.035 185.989 225.692 186.163 225.692C186.511 225.863 185.815 226.379 185.64 226.207Z" fill="#FFF3F0"/>
<path fill-rule="evenodd" clip-rule="evenodd" d="M187.381 225.519C189.47 224.832 188.599 226.035 188.251 226.551C187.555 226.551 187.555 226.035 187.381 225.519Z" fill="#FFF3F0"/>
<path fill-rule="evenodd" clip-rule="evenodd" d="M189.992 225.348C189.644 225.176 190.34 224.832 190.514 224.832C190.862 225.004 190.166 225.348 189.992 225.348Z" fill="#FFF3F0"/>
<path fill-rule="evenodd" clip-rule="evenodd" d="M212.272 220.192C213.317 221.911 209.313 220.364 212.272 220.192V220.192Z" fill="#FFF3F0"/>
<path d="M218.102 219.834C218.573 219.738 218.907 219.434 218.849 219.155C218.791 218.876 218.362 218.728 217.891 218.824C217.421 218.919 217.086 219.223 217.144 219.502C217.202 219.781 217.631 219.929 218.102 219.834Z" fill="#FFF3F0"/>
<path fill-rule="evenodd" clip-rule="evenodd" d="M229.679 216.412C230.375 216.412 230.201 217.099 231.071 216.927C231.245 217.271 230.897 217.271 230.549 217.443C230.201 217.615 229.679 217.615 229.33 217.787C228.982 217.099 229.679 216.927 229.679 216.412Z" fill="#FFF3F0"/>
<path fill-rule="evenodd" clip-rule="evenodd" d="M224.979 218.646C224.631 218.474 225.327 218.13 225.501 218.13C225.849 218.302 225.153 218.818 224.979 218.646Z" fill="#FFF3F0"/>
<path fill-rule="evenodd" clip-rule="evenodd" d="M228.112 217.958C227.764 217.787 228.46 217.443 228.634 217.443C228.982 217.615 228.286 218.13 228.112 217.958Z" fill="#FFF3F0"/>
<path fill-rule="evenodd" clip-rule="evenodd" d="M216.102 222.598C214.883 220.364 217.842 221.395 216.102 222.598V222.598Z" fill="#FFF3F0"/>
<path fill-rule="evenodd" clip-rule="evenodd" d="M166.319 232.909C166.319 232.393 166.841 232.565 167.015 232.737C166.841 233.081 166.319 233.081 166.319 232.909Z" fill="#FFF3F0"/>
<path fill-rule="evenodd" clip-rule="evenodd" d="M220.279 220.88C220.627 220.708 221.149 220.708 221.498 220.536C221.498 220.708 221.672 221.052 221.672 221.224C221.323 221.395 220.801 221.395 220.453 221.567C220.453 221.395 220.279 221.052 220.279 220.88Z" fill="#FFF3F0"/>
<path fill-rule="evenodd" clip-rule="evenodd" d="M188.077 228.613C188.077 228.269 188.773 228.097 189.296 227.925C189.296 228.269 188.599 228.441 188.077 228.613Z" fill="#FFF3F0"/>
<path fill-rule="evenodd" clip-rule="evenodd" d="M216.102 222.598C216.276 222.942 215.231 222.942 216.102 222.598V222.598Z" fill="#FFF3F0"/>
<path fill-rule="evenodd" clip-rule="evenodd" d="M227.938 220.364C227.938 219.849 228.46 220.02 228.634 220.192C228.634 220.708 228.112 220.708 227.938 220.364Z" fill="#FFF3F0"/>
<path fill-rule="evenodd" clip-rule="evenodd" d="M231.245 220.536C230.897 220.364 231.593 220.02 231.767 220.02C232.116 220.192 231.419 220.536 231.245 220.536Z" fill="#FFF3F0"/>
<path fill-rule="evenodd" clip-rule="evenodd" d="M226.371 221.911C227.59 221.911 229.853 221.223 228.634 223.113C227.938 222.598 226.545 222.942 226.371 221.911Z" fill="#FFF3F0"/>
<path fill-rule="evenodd" clip-rule="evenodd" d="M230.201 221.223C232.812 220.708 230.027 223.457 230.201 221.223V221.223Z" fill="#FFF3F0"/>
<path fill-rule="evenodd" clip-rule="evenodd" d="M188.077 231.018C187.729 230.847 188.425 230.503 188.599 230.503C188.948 230.675 188.251 231.018 188.077 231.018Z" fill="#FFF3F0"/>
<path fill-rule="evenodd" clip-rule="evenodd" d="M216.798 225.176C216.798 224.317 217.668 225.176 217.668 225.863C217.494 226.722 216.624 225.863 216.798 225.176Z" fill="#FFF3F0"/>
<path d="M223.176 224.805C223.647 224.71 223.981 224.406 223.923 224.127C223.865 223.848 223.436 223.7 222.965 223.796C222.495 223.891 222.16 224.195 222.218 224.474C222.277 224.753 222.706 224.901 223.176 224.805Z" fill="#FFF3F0"/>
<path fill-rule="evenodd" clip-rule="evenodd" d="M191.385 231.534C191.385 231.019 191.907 231.19 192.081 231.362C192.081 231.706 191.559 231.706 191.385 231.534Z" fill="#FFF3F0"/>
<path fill-rule="evenodd" clip-rule="evenodd" d="M195.214 230.675C195.214 230.331 195.91 230.16 196.432 229.988C196.432 230.331 195.562 230.503 195.214 230.675Z" fill="#FFF3F0"/>
<path fill-rule="evenodd" clip-rule="evenodd" d="M196.955 230.331C196.606 230.159 197.303 229.815 197.477 229.815C197.999 229.815 197.303 230.331 196.955 230.331Z" fill="#FFF3F0"/>
<path fill-rule="evenodd" clip-rule="evenodd" d="M211.402 227.582C211.75 228.613 210.357 228.784 209.139 229.3C208.791 228.269 209.835 227.753 211.402 227.582Z" fill="#FFF3F0"/>
<path fill-rule="evenodd" clip-rule="evenodd" d="M212.272 228.269C212.272 227.754 212.794 227.925 212.968 228.097C212.794 228.613 212.272 228.441 212.272 228.269Z" fill="#FFF3F0"/>
<path fill-rule="evenodd" clip-rule="evenodd" d="M217.32 227.582C216.972 227.41 217.668 227.066 217.842 227.066C218.19 227.238 217.494 227.582 217.32 227.582Z" fill="#FFF3F0"/>
<path fill-rule="evenodd" clip-rule="evenodd" d="M187.033 235.143C187.033 234.971 187.381 234.627 187.729 234.971C187.555 235.143 187.207 235.143 187.033 235.143Z" fill="#FFF3F0"/>
<path fill-rule="evenodd" clip-rule="evenodd" d="M220.105 228.097C220.105 227.925 220.453 227.582 220.801 227.925C220.453 228.097 220.279 228.097 220.105 228.097Z" fill="#FFF3F0"/>
<path fill-rule="evenodd" clip-rule="evenodd" d="M227.764 205.414C228.112 206.101 227.416 206.273 227.59 206.789C227.068 206.789 226.894 206.445 226.371 206.617C226.371 206.273 226.197 206.101 226.197 205.758C226.72 205.586 227.242 205.414 227.764 205.414Z" fill="#FFF3F0"/>
<path d="M224.756 226.366C225.135 226.299 225.387 225.942 225.319 225.569C225.252 225.195 224.89 224.946 224.512 225.012C224.133 225.079 223.881 225.436 223.948 225.81C224.016 226.183 224.377 226.432 224.756 226.366Z" fill="#FFF3F0"/>
<path fill-rule="evenodd" clip-rule="evenodd" d="M216.102 218.13C217.146 217.958 216.102 218.818 215.753 218.646C215.057 218.302 216.276 217.271 216.102 218.13Z" fill="#FFF3F0"/>
<path fill-rule="evenodd" clip-rule="evenodd" d="M195.04 194.588C194.692 194.416 195.388 194.072 195.562 194.072C195.91 194.244 195.214 194.759 195.04 194.588Z" fill="#FFF3F0"/>
<path fill-rule="evenodd" clip-rule="evenodd" d="M225.153 197.337C225.153 196.821 226.197 196.821 226.894 196.478C226.894 197.165 225.849 197.165 225.153 197.337Z" fill="#FFF3F0"/>
<path fill-rule="evenodd" clip-rule="evenodd" d="M211.576 200.774C211.228 200.602 211.924 200.258 212.098 200.258C212.446 200.258 211.75 200.774 211.576 200.774Z" fill="#FFF3F0"/>
<path fill-rule="evenodd" clip-rule="evenodd" d="M236.815 199.743C236.815 199.227 237.337 199.399 237.511 199.571C237.337 200.087 236.815 199.915 236.815 199.743Z" fill="#FFF3F0"/>
<path fill-rule="evenodd" clip-rule="evenodd" d="M228.46 203.18C228.112 203.008 228.808 202.664 228.982 202.664C229.33 202.664 228.634 203.18 228.46 203.18Z" fill="#FFF3F0"/>
<path fill-rule="evenodd" clip-rule="evenodd" d="M238.382 200.946C238.034 200.774 238.73 200.43 238.904 200.43C239.252 200.602 238.556 201.118 238.382 200.946Z" fill="#FFF3F0"/>
<path fill-rule="evenodd" clip-rule="evenodd" d="M179.374 214.006C179.026 213.834 179.722 213.49 179.896 213.49C180.244 213.662 179.548 214.006 179.374 214.006Z" fill="#FFF3F0"/>
<path fill-rule="evenodd" clip-rule="evenodd" d="M199.217 209.71C198.869 209.538 199.565 209.194 199.74 209.194C200.262 209.366 199.391 209.882 199.217 209.71Z" fill="#FFF3F0"/>
<path fill-rule="evenodd" clip-rule="evenodd" d="M189.47 212.288C189.47 211.772 189.992 211.944 190.166 212.116C189.992 212.631 189.47 212.46 189.47 212.288Z" fill="#FFF3F0"/>
<path fill-rule="evenodd" clip-rule="evenodd" d="M184.248 215.037C184.596 214.865 185.118 214.865 185.466 214.693C185.466 214.865 185.641 215.209 185.641 215.381C185.292 215.552 184.77 215.552 184.422 215.724C184.248 215.552 184.248 215.209 184.248 215.037Z" fill="#FFF3F0"/>
<path fill-rule="evenodd" clip-rule="evenodd" d="M201.654 211.6C203.221 211.084 203.395 212.116 203.917 212.803C203.395 213.147 202.525 213.49 201.48 213.662C200.784 212.631 202.176 212.459 201.654 211.6Z" fill="#FFF3F0"/>
<path fill-rule="evenodd" clip-rule="evenodd" d="M199.391 212.975C199.391 212.287 200.088 212.803 200.088 213.147C200.088 213.834 199.391 213.318 199.391 212.975Z" fill="#FFF3F0"/>
<path fill-rule="evenodd" clip-rule="evenodd" d="M224.805 207.476C224.457 207.304 225.153 206.96 225.327 206.96C225.849 207.132 224.979 207.476 224.805 207.476Z" fill="#FFF3F0"/>
<path fill-rule="evenodd" clip-rule="evenodd" d="M204.439 212.288C204.439 211.772 204.962 211.944 205.136 212.116C204.962 212.631 204.439 212.46 204.439 212.288Z" fill="#FFF3F0"/>
<path fill-rule="evenodd" clip-rule="evenodd" d="M195.736 216.583C195.04 216.755 194.17 216.755 194.344 216.068C194.692 215.896 195.214 215.896 195.562 215.724C195.562 216.068 195.562 216.24 195.736 216.583Z" fill="#FFF3F0"/>
<path fill-rule="evenodd" clip-rule="evenodd" d="M200.61 215.037C200.61 214.521 201.132 214.693 201.306 214.865C201.132 215.381 200.61 215.381 200.61 215.037Z" fill="#FFF3F0"/>
<path fill-rule="evenodd" clip-rule="evenodd" d="M203.743 214.865C203.395 214.693 204.091 214.35 204.265 214.35C204.613 214.35 203.917 214.865 203.743 214.865Z" fill="#FFF3F0"/>
<path fill-rule="evenodd" clip-rule="evenodd" d="M187.555 218.302C189.296 217.443 189.122 220.708 186.685 220.536C186.859 219.677 188.425 219.333 187.555 218.302Z" fill="#FFF3F0"/>
<path fill-rule="evenodd" clip-rule="evenodd" d="M189.992 217.786C191.036 217.958 191.559 218.474 191.733 219.505C190.34 219.677 190.166 218.646 189.992 217.786Z" fill="#FFF3F0"/>
<path fill-rule="evenodd" clip-rule="evenodd" d="M195.736 216.584C197.825 216.927 195.562 219.161 195.736 216.584V216.584Z" fill="#FFF3F0"/>
<path fill-rule="evenodd" clip-rule="evenodd" d="M215.579 212.631C215.579 212.116 216.798 211.944 216.798 212.288C216.45 212.803 215.928 213.147 215.579 212.631Z" fill="#FFF3F0"/>
<path fill-rule="evenodd" clip-rule="evenodd" d="M230.549 209.538C230.201 209.366 230.897 209.022 231.071 209.022C231.419 209.022 230.723 209.538 230.549 209.538Z" fill="#FFF3F0"/>
<path fill-rule="evenodd" clip-rule="evenodd" d="M180.419 221.052C180.419 220.536 180.941 220.708 181.115 220.88C180.941 221.395 180.419 221.223 180.419 221.052Z" fill="#FFF3F0"/>
<path fill-rule="evenodd" clip-rule="evenodd" d="M217.668 212.631C219.931 211.944 222.02 214.35 218.887 214.865C220.279 213.49 217.668 213.834 217.668 212.631Z" fill="#FFF3F0"/>
<path fill-rule="evenodd" clip-rule="evenodd" d="M200.436 217.099C201.306 217.099 201.132 217.958 201.48 218.474C199.914 218.646 199.74 217.786 200.436 217.099Z" fill="#FFF3F0"/>
<path fill-rule="evenodd" clip-rule="evenodd" d="M220.975 213.147C220.975 212.288 221.846 213.147 221.846 213.834C221.672 214.521 220.975 213.662 220.975 213.147Z" fill="#FFF3F0"/>
<path fill-rule="evenodd" clip-rule="evenodd" d="M189.644 221.739C188.948 220.88 187.903 220.021 190.514 219.505C190.862 220.536 191.036 221.395 189.644 221.739Z" fill="#FFF3F0"/>
<path fill-rule="evenodd" clip-rule="evenodd" d="M205.658 217.271C205.658 216.755 206.18 216.927 206.354 217.099C206.18 217.615 205.658 217.443 205.658 217.271Z" fill="#FFF3F0"/>
<path fill-rule="evenodd" clip-rule="evenodd" d="M179.722 223.629C179.722 223.286 180.418 223.114 180.941 222.942C180.941 223.286 180.07 223.286 179.722 223.629Z" fill="#FFF3F0"/>
<path fill-rule="evenodd" clip-rule="evenodd" d="M182.159 222.942C181.811 222.77 182.507 222.426 182.681 222.426C183.029 222.598 182.333 223.114 182.159 222.942Z" fill="#FFF3F0"/>
<path fill-rule="evenodd" clip-rule="evenodd" d="M184.074 222.598C183.726 222.426 184.422 222.083 184.596 222.083C184.944 222.254 184.248 222.77 184.074 222.598Z" fill="#FFF3F0"/>
<path fill-rule="evenodd" clip-rule="evenodd" d="M186.337 224.145C186.685 223.286 186.163 222.254 187.033 221.567C189.818 221.052 185.989 222.942 187.729 224.317C187.033 224.317 186.859 224.145 186.337 224.145Z" fill="#FFF3F0"/>
<path fill-rule="evenodd" clip-rule="evenodd" d="M194.692 220.364C194.692 219.849 195.214 220.02 195.388 220.192C195.214 220.708 194.692 220.536 194.692 220.364Z" fill="#FFF3F0"/>
<path fill-rule="evenodd" clip-rule="evenodd" d="M202.699 218.646C202.35 218.474 203.047 218.13 203.221 218.13C203.569 218.302 202.873 218.646 202.699 218.646Z" fill="#FFF3F0"/>
<path fill-rule="evenodd" clip-rule="evenodd" d="M233.682 211.944C233.682 211.428 234.204 211.6 234.378 211.772C234.378 212.287 233.856 212.116 233.682 211.944Z" fill="#FFF3F0"/>
<path fill-rule="evenodd" clip-rule="evenodd" d="M182.507 224.145C181.637 222.942 184.944 222.942 185.466 223.114C185.466 223.801 183.9 223.801 184.422 224.488C183.552 224.66 183.726 223.629 182.507 224.145Z" fill="#FFF3F0"/>
<path fill-rule="evenodd" clip-rule="evenodd" d="M189.644 221.739C191.036 223.801 188.077 224.488 188.425 222.083C188.948 221.911 189.296 221.911 189.644 221.739Z" fill="#FFF3F0"/>
<path fill-rule="evenodd" clip-rule="evenodd" d="M196.606 220.364C198.347 220.02 198.521 221.911 196.432 222.083C196.78 221.567 196.78 221.052 196.606 220.364Z" fill="#FFF3F0"/>
<path fill-rule="evenodd" clip-rule="evenodd" d="M199.217 220.192C200.436 219.677 200.61 220.536 200.784 221.052C200.262 221.052 200.088 220.88 199.391 220.88C199.217 220.708 199.217 220.364 199.217 220.192Z" fill="#FFF3F0"/>
<path fill-rule="evenodd" clip-rule="evenodd" d="M212.795 217.271C213.839 217.443 214.883 217.443 215.057 218.474C214.013 218.302 212.969 218.302 212.795 217.271Z" fill="#FFF3F0"/>
<path fill-rule="evenodd" clip-rule="evenodd" d="M182.507 224.145C182.681 224.488 182.681 224.832 182.855 225.348C181.811 225.52 181.637 224.488 182.507 224.145Z" fill="#FFF3F0"/>
<path fill-rule="evenodd" clip-rule="evenodd" d="M193.647 222.083C193.647 221.567 194.17 221.739 194.344 221.911C194.344 222.426 193.821 222.426 193.647 222.083Z" fill="#FFF3F0"/>
<path fill-rule="evenodd" clip-rule="evenodd" d="M216.798 217.271C216.624 216.756 217.494 216.756 216.798 217.271V217.271Z" fill="#FFF3F0"/>
<path fill-rule="evenodd" clip-rule="evenodd" d="M209.835 218.646C211.228 218.474 211.576 219.333 210.88 220.021C210.009 220.192 210.183 219.161 209.835 218.646Z" fill="#FFF3F0"/>
<path fill-rule="evenodd" clip-rule="evenodd" d="M216.798 217.271C216.972 217.615 215.928 217.615 216.798 217.271V217.271Z" fill="#FFF3F0"/>
<path fill-rule="evenodd" clip-rule="evenodd" d="M221.672 216.24C224.631 215.896 221.672 218.646 221.672 216.24V216.24Z" fill="#FFF3F0"/>
<path fill-rule="evenodd" clip-rule="evenodd" d="M224.979 215.896C224.979 215.209 225.675 215.724 225.675 216.068C225.675 216.755 224.979 216.24 224.979 215.896Z" fill="#FFF3F0"/>
<path fill-rule="evenodd" clip-rule="evenodd" d="M186.337 224.145C186.511 224.66 185.466 224.488 186.337 224.145V224.145Z" fill="#FFF3F0"/>
<path fill-rule="evenodd" clip-rule="evenodd" d="M211.924 218.989C211.576 218.818 212.272 218.474 212.446 218.474C212.794 218.646 212.098 219.161 211.924 218.989Z" fill="#FFF3F0"/>
<path fill-rule="evenodd" clip-rule="evenodd" d="M182.681 225.348C183.378 225.176 183.204 225.863 182.681 225.348V225.348Z" fill="#FFF3F0"/>
<path fill-rule="evenodd" clip-rule="evenodd" d="M231.245 215.381C230.897 215.209 231.593 214.865 231.767 214.865C232.116 214.865 231.419 215.381 231.245 215.381Z" fill="#FFF3F0"/>
<path fill-rule="evenodd" clip-rule="evenodd" d="M188.426 224.832C188.426 224.488 189.122 224.317 189.644 224.145C189.644 224.66 188.948 224.66 188.426 224.832Z" fill="#FFF3F0"/>
<path fill-rule="evenodd" clip-rule="evenodd" d="M191.036 224.317C191.733 222.77 192.777 224.66 192.603 225.52C191.907 225.692 191.385 225.863 190.688 225.863C190.166 225.004 191.733 225.004 191.733 224.489C191.733 224.317 191.385 224.317 191.036 224.317Z" fill="#FFF3F0"/>
<path fill-rule="evenodd" clip-rule="evenodd" d="M195.388 223.457C195.388 222.942 196.607 222.77 196.607 223.114C196.432 223.801 196.084 223.285 195.388 223.457Z" fill="#FFF3F0"/>
<path fill-rule="evenodd" clip-rule="evenodd" d="M206.528 221.052C206.528 220.536 207.05 220.708 207.224 220.88C207.05 221.395 206.528 221.223 206.528 221.052Z" fill="#FFF3F0"/>
<path fill-rule="evenodd" clip-rule="evenodd" d="M185.466 225.863C186.859 225.691 187.207 226.551 186.511 227.238C184.944 227.582 184.77 226.551 185.466 225.863Z" fill="#FFF3F0"/>
<path fill-rule="evenodd" clip-rule="evenodd" d="M182.507 227.41C182.507 226.894 183.029 227.066 183.204 227.238C183.204 227.753 182.507 227.582 182.507 227.41Z" fill="#FFF3F0"/>
<path fill-rule="evenodd" clip-rule="evenodd" d="M202.351 223.114C202.002 222.426 205.658 221.739 204.961 222.942C203.743 223.457 203.221 223.114 202.351 223.114Z" fill="#FFF3F0"/>
<path fill-rule="evenodd" clip-rule="evenodd" d="M219.061 219.161C220.279 218.99 219.931 220.536 221.324 220.364C220.801 221.567 219.061 220.021 219.061 219.161Z" fill="#FFF3F0"/>
<path fill-rule="evenodd" clip-rule="evenodd" d="M232.29 216.755C232.29 216.24 232.812 216.412 232.986 216.584C232.812 217.099 232.29 216.927 232.29 216.755Z" fill="#FFF3F0"/>
<path fill-rule="evenodd" clip-rule="evenodd" d="M187.555 226.207C188.599 225.863 188.774 226.207 188.948 226.722C188.425 226.722 188.425 227.066 188.425 227.238C187.729 227.41 187.729 226.722 187.555 226.207Z" fill="#FFF3F0"/>
<path fill-rule="evenodd" clip-rule="evenodd" d="M210.532 221.395C213.143 222.083 208.965 223.114 210.532 221.395V221.395Z" fill="#FFF3F0"/>
<path fill-rule="evenodd" clip-rule="evenodd" d="M196.607 226.035C196.432 226.035 196.258 226.207 195.91 226.207C196.258 226.551 196.607 226.207 196.607 226.035C199.217 225.348 198.869 226.722 201.132 225.52C201.306 225.863 201.306 226.207 201.48 226.722C200.088 226.894 197.477 226.379 198.521 228.097C196.084 228.785 193.125 225.52 196.432 225.004C196.432 225.176 196.432 225.52 196.607 226.035Z" fill="#FFF3F0"/>
<path fill-rule="evenodd" clip-rule="evenodd" d="M191.037 227.066C191.907 225.004 195.04 226.55 193.648 227.238C193.125 227.753 192.255 226.035 191.037 227.066Z" fill="#FFF3F0"/>
<path fill-rule="evenodd" clip-rule="evenodd" d="M202.873 224.66C202.525 224.488 203.221 224.145 203.395 224.145C203.743 224.317 203.047 224.66 202.873 224.66Z" fill="#FFF3F0"/>
<path fill-rule="evenodd" clip-rule="evenodd" d="M205.832 223.973C205.484 223.801 206.18 223.458 206.354 223.458C206.876 223.629 206.18 223.973 205.832 223.973Z" fill="#FFF3F0"/>
<path fill-rule="evenodd" clip-rule="evenodd" d="M208.965 223.286C208.617 223.114 209.313 222.77 209.487 222.77C209.835 222.942 209.139 223.286 208.965 223.286Z" fill="#FFF3F0"/>
<path fill-rule="evenodd" clip-rule="evenodd" d="M214.535 222.083C212.098 222.942 214.187 221.052 214.535 222.083V222.083Z" fill="#FFF3F0"/>
<path fill-rule="evenodd" clip-rule="evenodd" d="M217.668 221.395C217.32 221.223 218.016 220.88 218.19 220.88C218.539 221.051 217.842 221.567 217.668 221.395Z" fill="#FFF3F0"/>
<path fill-rule="evenodd" clip-rule="evenodd" d="M214.535 222.083C215.58 221.911 216.624 221.567 216.624 222.426C215.928 222.598 215.405 222.77 214.709 222.77C214.709 222.598 214.709 222.426 214.535 222.083Z" fill="#FFF3F0"/>
<path fill-rule="evenodd" clip-rule="evenodd" d="M225.327 220.536C224.457 219.161 227.242 220.192 225.327 220.536V220.536Z" fill="#FFF3F0"/>
<path fill-rule="evenodd" clip-rule="evenodd" d="M227.068 219.849C226.719 219.677 227.416 219.333 227.59 219.333C228.112 219.505 227.242 219.849 227.068 219.849Z" fill="#FFF3F0"/>
<path fill-rule="evenodd" clip-rule="evenodd" d="M203.047 225.348C202.699 225.176 203.395 224.832 203.569 224.832C203.917 225.004 203.221 225.52 203.047 225.348Z" fill="#FFF3F0"/>
<path fill-rule="evenodd" clip-rule="evenodd" d="M205.31 224.488C205.658 224.317 206.18 224.317 206.528 224.145C207.05 224.832 205.832 225.004 204.787 225.348C204.961 225.004 205.484 224.832 205.31 224.488Z" fill="#FFF3F0"/>
<path fill-rule="evenodd" clip-rule="evenodd" d="M208.443 223.801C208.791 223.629 209.313 223.629 209.661 223.458C210.009 223.973 209.313 224.317 209.313 224.66C208.965 224.832 208.443 224.832 208.095 225.004C207.747 224.489 208.617 224.317 208.443 223.801Z" fill="#FFF3F0"/>
<path fill-rule="evenodd" clip-rule="evenodd" d="M189.992 228.613C189.644 228.441 190.34 228.097 190.514 228.097C190.862 228.097 190.166 228.613 189.992 228.613Z" fill="#FFF3F0"/>
<path fill-rule="evenodd" clip-rule="evenodd" d="M225.327 220.536C226.545 222.426 223.586 221.395 225.327 220.536V220.536Z" fill="#FFF3F0"/>
<path fill-rule="evenodd" clip-rule="evenodd" d="M213.143 223.973C212.794 223.801 213.491 223.458 213.665 223.458C214.013 223.629 213.317 224.145 213.143 223.973Z" fill="#FFF3F0"/>
<path fill-rule="evenodd" clip-rule="evenodd" d="M223.934 222.598C223.412 222.77 223.238 223.114 223.412 223.457C221.149 223.629 223.412 220.364 223.934 222.598Z" fill="#FFF3F0"/>
<path fill-rule="evenodd" clip-rule="evenodd" d="M214.361 224.145C214.883 224.317 215.405 224.317 216.276 224.145C216.624 225.004 215.58 225.52 215.405 226.379C213.317 226.379 215.231 225.348 214.361 224.145Z" fill="#FFF3F0"/>
<path fill-rule="evenodd" clip-rule="evenodd" d="M203.569 227.754C203.395 227.754 203.221 227.925 202.873 227.925C202.525 227.238 203.395 226.723 203.569 227.754Z" fill="#FFF3F0"/>
<path d="M205.405 227.4C205.875 227.304 206.21 227.001 206.152 226.722C206.093 226.443 205.665 226.294 205.194 226.39C204.723 226.486 204.389 226.79 204.447 227.069C204.505 227.347 204.934 227.496 205.405 227.4Z" fill="#FFF3F0"/>
<path fill-rule="evenodd" clip-rule="evenodd" d="M207.747 226.379C207.398 226.207 208.095 225.863 208.269 225.863C208.617 226.035 207.921 226.379 207.747 226.379Z" fill="#FFF3F0"/>
<path fill-rule="evenodd" clip-rule="evenodd" d="M223.935 222.598C225.675 222.254 223.586 224.317 223.935 222.598V222.598Z" fill="#FFF3F0"/>
<path fill-rule="evenodd" clip-rule="evenodd" d="M225.849 222.426C226.197 222.254 226.719 222.254 227.068 222.083C226.894 222.426 226.545 222.77 226.719 223.286C225.327 223.629 225.327 223.286 225.849 222.426Z" fill="#FFF3F0"/>
<path fill-rule="evenodd" clip-rule="evenodd" d="M191.733 230.159C192.081 229.988 192.603 229.988 192.951 229.816C192.951 229.988 193.125 230.331 193.125 230.503C192.777 230.675 192.255 230.675 191.907 230.847C191.907 230.675 191.733 230.503 191.733 230.159Z" fill="#FFF3F0"/>
<path fill-rule="evenodd" clip-rule="evenodd" d="M194.17 229.644C194.518 229.472 195.04 229.472 195.388 229.3C195.388 229.472 195.562 229.816 195.562 229.988C195.214 230.159 194.692 230.159 194.344 230.331C194.344 230.159 194.17 229.988 194.17 229.644Z" fill="#FFF3F0"/>
<path fill-rule="evenodd" clip-rule="evenodd" d="M196.606 229.128C196.955 228.956 197.477 228.956 197.825 228.784C197.825 228.956 197.999 229.3 197.999 229.472C197.651 229.644 197.129 229.644 196.78 229.815C196.78 229.644 196.78 229.472 196.606 229.128Z" fill="#FFF3F0"/>
<path fill-rule="evenodd" clip-rule="evenodd" d="M202.873 227.753C202.525 228.269 201.654 228.784 200.61 229.128C199.74 228.097 201.828 228.097 202.873 227.753Z" fill="#FFF3F0"/>
<path fill-rule="evenodd" clip-rule="evenodd" d="M203.569 227.753C205.484 227.753 203.395 229.815 203.569 227.753V227.753Z" fill="#FFF3F0"/>
<path fill-rule="evenodd" clip-rule="evenodd" d="M206.702 227.41C206.702 227.066 207.398 226.894 207.921 226.723C207.921 227.066 207.224 227.238 206.702 227.41Z" fill="#FFF3F0"/>
<path fill-rule="evenodd" clip-rule="evenodd" d="M209.139 226.551C210.009 226.551 210.532 227.066 210.706 227.753C208.965 228.441 209.487 227.066 209.139 226.551Z" fill="#FFF3F0"/>
<path fill-rule="evenodd" clip-rule="evenodd" d="M211.576 225.863C211.924 225.692 212.446 225.692 212.794 225.52C212.794 225.692 212.968 226.035 212.968 226.207C212.62 226.379 212.098 226.379 211.75 226.551C211.75 226.379 211.576 226.207 211.576 225.863Z" fill="#FFF3F0"/>
<path fill-rule="evenodd" clip-rule="evenodd" d="M228.46 222.77C228.112 222.598 228.808 222.254 228.982 222.254C229.33 222.426 228.634 222.77 228.46 222.77Z" fill="#FFF3F0"/>
<path fill-rule="evenodd" clip-rule="evenodd" d="M189.47 231.878C189.47 231.362 190.688 231.19 190.688 231.534C190.514 232.221 190.166 231.706 189.47 231.878Z" fill="#FFF3F0"/>
<path fill-rule="evenodd" clip-rule="evenodd" d="M184.248 234.284C184.248 233.768 184.77 233.94 184.944 234.112C184.77 234.627 184.248 234.455 184.248 234.284Z" fill="#FFF3F0"/>
<path fill-rule="evenodd" clip-rule="evenodd" d="M191.559 232.565C190.862 232.909 191.036 232.221 191.559 232.565V232.565Z" fill="#FFF3F0"/>
<path fill-rule="evenodd" clip-rule="evenodd" d="M199.043 231.019C198.869 230.503 199.914 230.675 199.043 231.019V231.019Z" fill="#FFF3F0"/>
<path fill-rule="evenodd" clip-rule="evenodd" d="M204.265 230.675C202.351 230.847 202.525 231.706 200.61 231.878C200.262 231.019 205.31 228.613 204.265 230.675Z" fill="#FFF3F0"/>
<path fill-rule="evenodd" clip-rule="evenodd" d="M228.982 224.66C228.982 224.145 229.504 224.317 229.679 224.488C229.504 225.004 228.982 224.832 228.982 224.66Z" fill="#FFF3F0"/>
<path fill-rule="evenodd" clip-rule="evenodd" d="M191.559 232.565C194.518 231.534 191.385 234.627 191.559 232.565V232.565Z" fill="#FFF3F0"/>
<path fill-rule="evenodd" clip-rule="evenodd" d="M199.043 231.019C200.262 231.878 196.606 232.737 197.129 231.362C197.825 231.362 198.521 231.191 199.043 231.019Z" fill="#FFF3F0"/>
<path fill-rule="evenodd" clip-rule="evenodd" d="M208.443 229.472C208.269 228.785 209.487 229.472 209.139 229.644C208.617 230.159 207.399 229.472 208.443 229.472Z" fill="#FFF3F0"/>
<path fill-rule="evenodd" clip-rule="evenodd" d="M215.405 227.925C215.58 227.238 215.928 227.925 216.624 227.582C216.624 228.269 215.405 228.269 215.405 227.925Z" fill="#FFF3F0"/>
<path fill-rule="evenodd" clip-rule="evenodd" d="M225.327 225.863C225.327 225.348 225.849 225.52 226.023 225.692C225.849 226.207 225.327 226.035 225.327 225.863Z" fill="#FFF3F0"/>
<path fill-rule="evenodd" clip-rule="evenodd" d="M212.272 228.957C212.272 228.441 213.317 228.441 214.013 228.097C214.187 228.613 212.969 228.785 212.272 228.957Z" fill="#FFF3F0"/>
<path fill-rule="evenodd" clip-rule="evenodd" d="M234.03 223.973C234.204 225.176 231.419 225.348 230.027 226.035C229.33 224.66 233.16 224.832 234.03 223.973Z" fill="#FFF3F0"/>
<path fill-rule="evenodd" clip-rule="evenodd" d="M204.265 230.675C206.702 229.816 204.613 231.878 204.265 230.675V230.675Z" fill="#FFF3F0"/>
<path fill-rule="evenodd" clip-rule="evenodd" d="M210.009 229.987C210.009 229.472 211.228 229.3 211.228 229.644C211.054 230.331 210.531 229.644 210.009 229.987Z" fill="#FFF3F0"/>
<path fill-rule="evenodd" clip-rule="evenodd" d="M203.917 232.393C203.917 231.878 204.439 232.049 204.613 232.221C204.613 232.737 204.091 232.565 203.917 232.393Z" fill="#FFF3F0"/>
<path fill-rule="evenodd" clip-rule="evenodd" d="M212.62 230.503C214.535 230.675 211.924 232.05 210.358 232.221C209.139 230.847 213.143 231.534 212.62 230.503Z" fill="#FFF3F0"/>
<path fill-rule="evenodd" clip-rule="evenodd" d="M199.217 234.283C198.869 234.112 199.565 233.768 199.74 233.768C200.088 233.768 199.391 234.283 199.217 234.283Z" fill="#FFF3F0"/>
<path fill-rule="evenodd" clip-rule="evenodd" d="M209.139 232.393C209.139 231.878 209.661 232.049 209.835 232.221C209.835 232.737 209.313 232.737 209.139 232.393Z" fill="#FFF3F0"/>
<path fill-rule="evenodd" clip-rule="evenodd" d="M231.071 228.269C230.723 228.097 231.419 227.753 231.593 227.753C231.941 227.753 231.245 228.269 231.071 228.269Z" fill="#FFF3F0"/>
<path fill-rule="evenodd" clip-rule="evenodd" d="M216.276 231.706C215.928 231.534 216.624 231.19 216.798 231.19C217.146 231.362 216.45 231.878 216.276 231.706Z" fill="#FFF3F0"/>
<path fill-rule="evenodd" clip-rule="evenodd" d="M229.331 228.956C228.982 228.784 229.679 228.441 229.853 228.441C230.201 228.613 229.505 229.128 229.331 228.956Z" fill="#FFF3F0"/>
<path fill-rule="evenodd" clip-rule="evenodd" d="M199.043 236.174C199.043 235.658 199.566 235.83 199.74 236.002C199.566 236.518 199.043 236.518 199.043 236.174Z" fill="#FFF3F0"/>
<path fill-rule="evenodd" clip-rule="evenodd" d="M204.613 235.487C204.613 234.799 205.31 235.315 205.31 235.658C205.484 236.346 204.787 235.83 204.613 235.487Z" fill="#FFF3F0"/>
<path fill-rule="evenodd" clip-rule="evenodd" d="M215.231 233.252C215.405 232.565 215.754 233.252 216.45 232.909C216.45 233.424 215.405 233.596 215.231 233.252Z" fill="#FFF3F0"/>
<path fill-rule="evenodd" clip-rule="evenodd" d="M220.105 231.706C221.672 231.362 220.627 232.909 220.453 233.253C218.539 233.424 220.975 232.393 220.105 231.706Z" fill="#FFF3F0"/>
<path fill-rule="evenodd" clip-rule="evenodd" d="M189.818 239.095C189.818 238.408 190.514 238.923 190.514 239.267C190.514 239.955 189.818 239.439 189.818 239.095Z" fill="#FFF3F0"/>
<path fill-rule="evenodd" clip-rule="evenodd" d="M218.19 237.377C217.494 237.549 217.668 236.861 218.19 237.377V237.377Z" fill="#FFF3F0"/>
<path fill-rule="evenodd" clip-rule="evenodd" d="M216.45 238.064C216.102 237.893 216.798 237.549 216.972 237.549C217.32 237.721 216.624 238.236 216.45 238.064Z" fill="#FFF3F0"/>
<path fill-rule="evenodd" clip-rule="evenodd" d="M218.19 237.377C220.279 236.689 219.409 237.892 219.061 238.408C218.364 238.408 218.364 237.892 218.19 237.377Z" fill="#FFF3F0"/>
<path fill-rule="evenodd" clip-rule="evenodd" d="M220.801 237.205C220.453 237.033 221.15 236.69 221.324 236.69C221.672 236.861 220.975 237.205 220.801 237.205Z" fill="#FFF3F0"/>
<path fill-rule="evenodd" clip-rule="evenodd" d="M197.129 244.766C197.129 244.251 197.651 244.422 197.825 244.594C197.651 244.938 197.129 244.938 197.129 244.766Z" fill="#FFF3F0"/>
<path fill-rule="evenodd" clip-rule="evenodd" d="M218.887 240.47C218.887 240.126 219.583 239.955 220.105 239.783C220.105 240.126 219.409 240.298 218.887 240.47Z" fill="#FFF3F0"/>
<path fill-rule="evenodd" clip-rule="evenodd" d="M218.887 242.876C218.539 242.704 219.235 242.36 219.409 242.36C219.757 242.532 219.061 242.876 218.887 242.876Z" fill="#FFF3F0"/>
<path fill-rule="evenodd" clip-rule="evenodd" d="M222.194 243.391C222.194 242.876 222.716 243.048 222.89 243.22C222.89 243.563 222.368 243.563 222.194 243.391Z" fill="#FFF3F0"/>
<path fill-rule="evenodd" clip-rule="evenodd" d="M226.023 242.532C226.023 242.189 226.72 242.017 227.242 241.845C227.242 242.189 226.371 242.36 226.023 242.532Z" fill="#FFF3F0"/>
<path fill-rule="evenodd" clip-rule="evenodd" d="M227.764 242.188C227.416 242.017 228.112 241.673 228.286 241.673C228.808 241.673 228.112 242.188 227.764 242.188Z" fill="#FFF3F0"/>
<path fill-rule="evenodd" clip-rule="evenodd" d="M217.842 247C217.842 246.828 218.19 246.485 218.538 246.828C218.364 247 218.016 247 217.842 247Z" fill="#FFF3F0"/>
<path fill-rule="evenodd" clip-rule="evenodd" d="M234.03 205.586C234.204 205.242 234.727 205.757 234.727 205.929C234.552 206.273 234.03 205.757 234.03 205.586Z" fill="#FFF3F0"/>
<path d="M69.0174 128.599L70.9321 214.178L110.967 213.834V126.365L69.0174 128.599Z" fill="#FF4B28"/>
<path d="M75.9799 135.129L77.1984 187.542L103.134 186.854L102.264 134.785L75.9799 135.129Z" fill="#FBEBE9"/>
<path d="M120.366 129.286C120.366 131.005 119.844 195.447 119.844 195.447C119.844 195.447 190.34 194.244 196.258 194.244C202.176 194.244 222.542 193.728 222.542 193.728C222.542 193.728 222.89 161.25 222.542 153.688C222.02 142.518 222.02 127.74 222.02 127.74C222.02 127.74 140.732 127.224 134.814 128.255C128.721 129.286 120.366 129.286 120.366 129.286Z" fill="#FF4B28"/>
<path d="M124.892 135.129C124.892 138.91 125.066 189.776 125.066 189.776L216.972 188.229L215.928 132.208L124.892 135.129Z" fill="#FBEBE9"/>
<path d="M77.5464 191.494L78.2426 208.335L103.83 207.991L103.482 191.322L77.5464 191.494Z" fill="#FF3008"/>
<path d="M96.8677 170.014L96.6936 172.763L105.397 172.591L105.223 169.67L96.8677 170.014Z" fill="#C6C5B6"/>
<path d="M94.2567 180.84V184.62H100.697V180.668L94.2567 180.84Z" fill="#F3D1CD"/>
<path d="M87.4681 182.558C87.4681 182.215 87.6422 181.699 87.9903 181.183C88.1644 180.84 88.5125 180.668 88.8607 180.496C89.2088 180.324 89.3828 180.324 89.731 180.324C90.7754 180.324 91.6457 180.496 92.1679 181.527C92.516 182.215 92.516 182.902 92.1679 183.589C91.8197 184.277 91.2976 184.449 90.7754 184.792C90.0791 184.964 89.5569 184.964 88.8607 184.792C88.5125 184.62 88.3385 184.448 88.1644 184.105C87.6422 183.589 87.4681 183.246 87.4681 182.558Z" fill="#F3D1CD"/>
<path d="M134.64 182.73H137.947L138.121 189.604H141.428V182.73H154.483V189.26L157.616 189.088L157.442 182.73H161.271L160.749 178.778L134.64 178.434V182.73Z" fill="#F3D1CD"/>
<path d="M166.667 178.434L163.708 189.088H166.319L169.104 178.09L166.667 178.434Z" fill="#F3D1CD"/>
<path d="M127.329 178.948L130.288 189.775H132.725L129.94 178.261L127.329 178.948Z" fill="#F3D1CD"/>
<path d="M205.832 181.871H202.351V188.573H199.043V181.871H185.989L185.814 188.745H182.855V181.871H179.026L179.722 178.09L205.832 177.747V181.871Z" fill="#F3D1CD"/>
<path d="M175.371 177.747L178.678 188.916H175.893L172.586 177.918L175.371 177.747Z" fill="#F3D1CD"/>
<path d="M212.968 178.434L210.183 188.401H207.398L210.532 177.747L212.968 178.434Z" fill="#F3D1CD"/>
<path d="M155.179 153.345L157.79 156.094C157.79 156.094 162.142 152.829 164.579 152.142C167.016 151.454 170.323 151.111 173.456 151.798C176.589 152.485 180.07 154.719 181.463 155.922C182.507 155.235 184.596 153.345 184.596 153.345C184.596 153.345 179.026 149.392 176.589 148.705C174.674 148.189 170.671 147.33 167.538 147.846C164.753 148.189 161.62 149.564 159.531 150.767C158.138 151.454 155.179 153.345 155.179 153.345Z" fill="#F3D1CD"/>
<path d="M160.923 159.531L161.097 162.968C161.097 162.968 168.06 162.796 171.367 162.624C174.674 162.624 178.678 162.796 178.678 162.796L178.504 159.187L160.923 159.531Z" fill="#F3D1CD"/>
<path d="M63.9695 84.2631L64.1436 116.054L221.149 111.758L220.279 81.8573L63.9695 84.2631Z" fill="#FF5939"/>
<path d="M67.7989 88.9028V117.945L215.927 116.398L215.231 86.4969L67.7989 88.9028Z" fill="#FF775C"/>
<path d="M95.8231 108.665C95.6491 108.665 95.6491 108.665 95.475 108.665H95.6491H95.475C94.9528 108.665 94.4306 108.665 94.2565 108.15C94.2565 107.806 94.2565 107.29 94.0825 106.775C94.0825 106.087 94.0825 105.228 94.0825 104.885C94.0825 103.51 93.9084 93.1991 94.4306 92.6835C94.7787 92.3398 96.1712 92.3398 96.5194 92.3398C97.5638 92.3398 99.4785 92.5117 100.175 93.1991C101.045 94.0583 101.393 97.4952 101.393 98.8699C101.393 100.073 101.219 101.448 100.349 102.307C100.523 102.651 100.871 102.994 100.871 103.338C101.219 104.197 101.393 107.29 101.393 108.321V108.665C101.045 108.837 100.697 109.009 100.349 109.009C99.1303 109.009 98.7822 109.181 98.7822 107.634C98.7822 106.947 98.7822 106.431 98.7822 105.744C98.7822 104.713 98.9563 103.166 97.3897 103.166C97.0416 103.166 96.6934 103.166 96.3453 103.338C96.3453 104.197 96.3453 108.15 95.8231 108.665C95.9972 108.665 95.8231 108.665 95.8231 108.665ZM96.5194 94.7457C96.5194 95.9486 96.5194 97.1515 96.5194 98.3544V99.7292C96.5194 100.073 96.5194 100.588 96.5194 100.932H97.3897C98.26 100.932 99.3044 100.76 99.4785 99.7292C99.4785 98.5262 99.4785 97.1515 99.3044 95.9486C99.1303 94.9175 98.086 94.7457 97.2156 94.7457C96.8675 94.5738 96.6934 94.5738 96.5194 94.7457Z" fill="#FDFABA"/>
<path d="M112.359 93.3709C112.185 93.7146 112.011 93.8864 111.663 93.8864C110.967 93.8864 110.097 93.8864 109.4 93.8864C109.226 93.8864 108.878 93.8864 108.704 93.8864V94.0583C108.704 94.5738 108.704 95.0893 108.704 95.6049C108.704 96.4641 108.704 97.3233 108.704 98.0107C108.704 98.3544 108.704 98.8699 108.704 99.3854C109.226 99.3854 109.748 99.2136 110.271 99.2136C110.967 99.2136 111.141 99.901 111.141 100.417C111.141 101.619 110.619 101.619 109.748 101.619C109.574 101.619 109.4 101.619 109.052 101.619C108.356 101.619 108.704 103.166 108.704 103.853C108.704 104.369 108.704 105.056 108.704 105.572C109.052 105.744 109.4 105.744 109.748 105.744C110.271 105.744 110.793 105.744 111.141 105.744C111.489 105.744 112.011 105.744 112.185 106.259C112.185 106.431 112.185 106.603 112.185 106.775C112.185 108.15 111.315 108.321 110.097 108.321C109.574 108.321 108.878 108.321 108.53 108.321C108.182 108.321 107.834 108.321 107.486 108.321C106.441 108.321 106.093 107.806 106.093 106.947C106.093 103.166 106.267 99.3854 106.093 95.6049C106.093 94.7456 105.919 93.8864 105.919 93.0272C105.919 92.5117 106.093 91.9961 106.615 91.8243C106.963 91.6524 107.312 91.6524 107.66 91.6524C108.008 91.6524 108.182 91.6524 108.53 91.6524C109.226 91.6524 109.922 91.4806 110.619 91.4806C111.315 91.4806 112.533 91.3087 112.533 92.3398C112.533 92.6835 112.359 93.0272 112.359 93.3709Z" fill="#FDFABA"/>
<path d="M121.062 96.2923C120.714 96.1205 120.714 94.5739 119.67 94.5739C118.8 94.5739 118.277 95.2613 118.277 96.1205C118.277 98.87 123.673 100.932 123.673 104.369C123.673 107.29 121.759 107.806 121.062 108.15C120.54 108.321 120.018 108.493 119.322 108.493C118.277 108.493 117.233 107.806 116.711 107.119C116.537 106.947 115.492 105.744 115.492 104.885C115.492 104.713 115.492 104.541 115.666 104.369C116.015 103.853 117.059 103.853 117.407 103.853C117.929 103.853 118.103 104.369 118.277 104.713C118.626 105.228 118.8 105.744 119.496 105.744C120.192 105.744 120.888 105.4 120.888 104.541C120.888 103.338 119.844 102.307 118.974 101.62C118.452 101.104 117.929 100.417 117.581 99.7292C117.059 99.0418 116.537 98.3545 116.189 97.6671C115.841 96.9797 115.666 96.2923 115.666 95.605C115.666 93.7147 117.233 91.9962 119.148 91.9962C120.366 91.9962 121.759 92.5117 122.455 93.7147C122.803 94.2302 123.151 94.9176 123.151 95.4331C123.151 96.1205 122.629 96.2923 122.107 96.2923C121.933 96.2923 121.933 96.2923 121.759 96.2923C121.585 96.2923 121.411 96.2923 121.062 96.2923Z" fill="#FDFABA"/>
<path d="M127.155 106.775C127.155 103.853 127.329 100.76 127.329 97.8388C127.329 96.2922 127.329 94.9175 127.155 93.3709C126.633 93.3709 126.11 93.3709 125.588 93.3709V93.199C125.588 92.6835 125.588 92.3398 125.414 91.9961C125.414 91.6524 126.11 91.4806 126.459 91.4806C126.807 91.4806 126.981 91.4806 127.329 91.4806C128.721 91.4806 130.114 91.4806 131.68 91.3087C131.855 91.8242 131.854 92.5116 131.854 93.0272C131.506 93.199 131.332 93.3709 130.984 93.3709C130.81 93.3709 130.636 93.3709 130.288 93.3709H129.418C129.418 93.5427 129.418 93.7145 129.418 93.8864C129.418 94.2301 129.418 94.5738 129.418 95.0893C129.418 96.8077 129.244 98.698 129.244 100.416C129.244 103.338 129.592 105.228 129.592 106.259C129.592 107.29 129.418 107.634 128.373 107.634C127.677 107.634 127.503 107.634 127.155 107.462C127.155 107.29 127.155 107.118 127.155 106.775Z" fill="#FDFABA"/>
<path d="M141.08 106.947C141.08 107.29 140.906 107.634 140.732 107.806C140.036 107.806 139.513 107.806 138.817 107.634C138.469 106.603 138.121 104.713 137.947 103.681C137.599 103.681 137.251 103.681 136.902 103.681C136.554 103.681 136.38 103.681 136.032 103.681C135.51 105.056 135.51 107.118 134.988 107.806C134.466 107.806 133.073 108.149 133.073 107.118C133.073 106.259 133.247 105.4 133.595 104.541C133.769 104.197 133.769 103.681 133.943 103.166L134.988 97.6669C135.336 96.1203 135.684 93.7145 136.206 92.1679C136.38 91.8242 136.554 91.6523 137.076 91.6523C137.251 91.6523 137.599 91.8242 137.773 91.8242C137.947 91.8242 137.947 91.8242 138.121 91.8242C138.643 92.5116 138.817 94.9174 140.21 102.65C140.558 103.51 141.08 105.915 141.08 106.947ZM137.773 101.447C137.599 100.245 137.599 97.8388 137.251 97.8388L136.554 101.447C136.902 101.619 137.251 101.447 137.773 101.447Z" fill="#FDFABA"/>
<path d="M145.954 91.3089C145.954 91.3089 145.954 91.4807 145.954 91.6526C145.954 91.9963 145.78 92.1681 145.78 92.5118V93.1992C145.606 94.9176 145.606 96.4642 145.606 98.1827C145.606 100.245 145.606 105.056 147.346 105.056C149.087 105.056 149.261 102.479 149.261 101.276C149.261 98.1827 148.913 94.9176 148.913 91.8244C148.913 91.4807 149.087 91.137 149.609 91.137C149.957 91.137 150.131 91.3089 150.479 91.3089H150.653C151.176 91.4807 151.176 92.6836 151.35 93.371C151.35 94.0584 151.35 94.9176 151.35 95.605C151.35 97.839 151.698 100.245 151.698 102.479C151.698 105.056 151.176 107.634 148.043 107.634C144.039 107.634 143.691 103.51 143.691 100.073V97.839C143.691 96.9798 143.691 91.6526 143.865 91.3089C144.039 91.137 144.213 91.137 144.387 91.137H144.735C144.909 91.137 145.083 91.137 145.432 91.137C145.432 90.9652 145.78 90.9652 145.954 91.3089Z" fill="#FDFABA"/>
<path d="M163.708 107.462C163.186 107.462 162.664 107.29 162.316 106.947C162.316 105.744 162.142 102.651 160.401 102.479C159.879 102.479 159.183 102.479 158.834 102.479C158.312 102.479 158.486 103.51 158.486 103.853C158.486 104.713 158.66 105.572 158.834 106.603C158.834 107.29 158.834 107.634 157.442 107.806C156.746 107.806 156.049 107.806 156.049 107.634V107.29C156.049 107.118 156.049 106.947 156.049 106.775L155.527 100.073C155.527 99.5573 155.353 98.8699 155.353 98.3544C155.179 96.1204 155.179 94.0583 155.179 91.8243C155.179 91.4806 155.353 91.3088 155.701 91.3088C156.049 91.3088 156.572 91.3088 157.094 91.1369C161.62 90.9651 163.012 91.6524 163.186 94.0583C163.186 95.6049 163.36 97.1515 163.534 98.8699C163.534 99.5573 163.534 100.245 163.012 100.932C164.056 102.135 164.927 103.853 164.927 105.572C164.927 105.916 164.927 106.947 164.579 107.118C164.405 107.29 164.056 107.462 163.708 107.462ZM160.923 96.9796C160.923 96.2923 160.749 94.9175 160.401 94.2301C159.879 93.5427 158.834 93.5427 157.964 93.5427C157.616 93.5427 157.616 93.7146 157.616 94.2301C157.616 94.9175 157.964 95.7767 157.964 96.2923C157.964 97.1515 157.964 97.8389 158.138 98.6981C158.138 98.8699 158.138 99.0418 158.138 99.2136C158.138 99.3855 158.138 99.5573 158.138 99.7291C158.138 100.417 158.834 100.245 159.531 100.245C160.923 100.073 161.097 98.3544 160.923 96.9796Z" fill="#FDFABA"/>
<path d="M174.152 107.462C173.804 107.462 173.63 107.462 173.282 107.462C172.76 106.775 172.586 106.087 172.586 105.4V105.572C172.412 104.884 172.063 104.197 172.063 103.51C171.715 103.51 171.541 103.51 171.193 103.51C170.845 103.51 170.497 103.51 170.149 103.51C169.801 104.884 169.452 106.259 169.452 107.462C168.93 107.634 168.234 107.634 167.712 107.806H167.538C167.538 107.634 167.538 107.29 167.538 107.118C167.538 106.603 167.538 106.259 167.712 105.915C167.886 102.994 168.582 100.073 169.278 97.1514C169.801 95.2611 170.323 93.5426 170.497 91.8242C170.845 91.8242 171.193 91.6523 171.367 91.6523C171.715 91.6523 171.889 91.6523 172.238 91.6523C173.108 94.4019 173.282 97.3232 173.804 100.073L174.848 105.228C175.023 105.744 175.197 106.603 175.197 107.29C174.848 107.29 174.5 107.462 174.152 107.462ZM171.541 100.588C171.367 99.729 171.193 98.8698 171.019 98.1824C170.845 98.8698 170.671 99.729 170.497 100.588V100.932C170.845 100.932 171.193 100.932 171.541 100.932V100.588Z" fill="#FDFABA"/>
<path d="M180.592 99.0418C180.592 99.5573 180.592 100.245 180.418 100.76C180.244 102.479 180.244 104.541 180.244 106.087C180.244 106.431 180.244 106.775 180.244 106.947C180.07 107.462 179.374 107.462 178.852 107.462C178.155 107.462 177.981 107.462 177.633 106.775C177.807 106.431 177.807 102.822 177.807 102.307C177.807 99.0418 177.981 95.7767 177.981 92.5117C177.981 91.4806 178.852 91.3088 179.374 91.3088H180.07C180.592 91.9962 181.289 95.2612 181.985 96.4641C182.507 97.667 182.855 98.6981 183.377 99.901C183.377 99.3855 183.377 98.8699 183.377 98.5263C183.377 96.4641 183.726 94.5738 183.551 92.6835C183.551 92.3398 183.377 92.168 183.377 91.8243C183.377 91.4806 183.377 91.3088 183.551 90.9651C184.248 91.1369 186.162 90.7932 186.162 91.8243C186.162 92.3398 185.988 92.8554 185.988 93.3709C185.988 97.3233 185.814 100.932 185.814 104.885C185.814 105.228 185.814 105.572 185.814 105.916C185.814 107.29 185.466 107.634 184.596 107.634C184.248 107.634 183.726 107.634 183.551 107.29C183.377 107.118 181.115 100.76 180.941 100.073L180.592 99.0418Z" fill="#FDFABA"/>
<path d="M190.34 93.1991C190.166 93.1991 189.992 93.1991 189.818 93.1991C189.47 93.1991 189.296 93.1991 188.948 93.1991C188.948 92.6836 188.774 91.8243 189.122 91.3088C190.514 91.137 192.255 91.137 193.647 91.137C193.995 91.137 194.518 91.3088 194.518 91.9962C194.518 92.3399 194.518 92.8554 194.344 93.3709C193.821 93.3709 193.299 93.3709 192.777 93.3709H192.603V93.5428C192.603 94.402 192.777 95.2612 192.777 96.1205C192.777 96.636 192.777 97.1515 192.777 97.6671C192.777 100.932 193.125 104.369 193.299 107.634C192.951 107.806 192.429 107.806 192.081 107.806C191.733 107.806 191.384 107.806 191.036 107.634C190.688 104.025 190.688 100.417 190.688 96.8078C190.688 95.7768 190.862 94.9175 190.862 93.8865C190.34 93.5428 190.34 93.3709 190.34 93.1991Z" fill="#FDFABA"/>
<path d="M64.1435 115.023L63.0991 127.74C63.0991 127.74 140.732 128.771 158.834 127.224C176.937 125.678 226.197 125.678 226.197 125.678L224.108 111.93L64.1435 115.023Z" fill="#518C8F"/>
<path d="M75.6318 101.276C75.6318 100.76 75.8059 100.417 76.154 99.901C76.3281 99.5573 76.6762 99.3854 77.0243 99.2136C77.3725 99.0417 77.5465 99.0417 77.8947 99.0417C78.9391 99.0417 79.8094 99.2136 80.3316 100.245C80.6797 100.932 80.6797 101.619 80.3316 102.307C79.9834 102.994 79.4612 103.338 78.765 103.51C78.0687 103.682 77.5465 103.682 76.8503 103.338C76.5022 103.166 76.3281 102.994 76.154 102.65C75.8059 102.479 75.6318 101.963 75.6318 101.276Z" fill="#FDFABA"/>
<path d="M202.873 101.448C202.873 100.932 203.047 100.417 203.395 100.073C203.569 99.7291 203.917 99.5573 204.265 99.3854C204.613 99.2136 204.962 99.0417 205.136 99.0417C206.18 99.0417 207.05 99.2136 207.747 100.417C208.095 101.104 208.095 101.963 207.747 102.65C207.398 103.338 206.876 103.682 206.18 103.853C205.484 104.025 204.788 104.025 204.091 103.682C203.743 103.51 203.569 103.338 203.221 102.994C203.047 102.65 202.873 102.135 202.873 101.448Z" fill="#FDFABA"/>
<path d="M49 71.3748V78.4204L236.119 77.5612L235.423 70L49 71.3748Z" fill="#FF6648"/>
<path d="M63.2732 135.817C63.2732 135.817 66.9285 141.487 72.8467 140.8C76.1539 140.456 81.2018 135.988 81.2018 135.988C81.2018 135.988 83.8128 140.972 88.1644 140.972C92.516 140.972 97.3898 135.473 97.3898 135.473C97.3898 135.473 101.219 142.003 105.919 142.003C110.967 142.003 117.929 135.301 117.929 135.301C117.929 135.301 119.496 140.8 124.37 141.316C129.243 141.831 133.595 136.332 133.595 136.332C133.595 136.332 137.25 142.003 141.95 141.831C146.128 141.659 151.872 134.785 151.872 134.785C151.872 134.785 156.746 140.8 159.879 140.8C163.186 140.8 169.104 135.301 169.104 135.301C169.104 135.301 170.671 141.831 176.067 141.316C181.463 140.8 186.859 135.301 186.859 135.301C186.859 135.301 191.733 141.831 194.866 141.316C198.173 140.8 204.613 135.301 204.613 135.301C204.613 135.301 211.924 141.316 216.45 140.8C222.194 140.113 226.197 132.551 226.197 132.551V123.959L63.0991 126.021L63.2732 135.817Z" fill="#73A3A6"/>
</svg>
