<svg id="Layer_1" data-name="Layer 1" xmlns="http://www.w3.org/2000/svg" viewBox="0 0 490.72 56.53">
  <defs>
    <style>
      .cls-1 {
        fill: #ff3008;
      }
    </style>
  </defs>
  <title>DoorDash_logo_RGB</title>
  <g id="Layer_2" data-name="Layer 2">
    <g id="Layer_1-2" data-name="Layer 1-2">
      <path class="cls-1" d="M138.25,15.91V40.62h6.32a12.2,12.2,0,0,0,12.07-12.33v0A12,12,0,0,0,145,15.92h-6.76Zm6.32-7.76c11.78,0,20.69,8.91,20.69,20.12s-8.91,20.11-20.69,20.11h-13.9a1,1,0,0,1-1-1V9.19a1,1,0,0,1,1-1Z"/>
      <path class="cls-1" d="M195.67,41.49a13.22,13.22,0,1,0-13.22-13.22,13.22,13.22,0,0,0,13.22,13.22m0-34.2c12.35,0,21.84,9.48,21.84,21s-9.49,21-21.84,21-21.84-9.48-21.84-21,9.48-21,21.84-21"/>
      <path class="cls-1" d="M247.59,41.49a13.22,13.22,0,1,0-13.21-13.23h0a13.25,13.25,0,0,0,13.21,13.22m0-34.2c12.36,0,21.84,9.48,21.84,21s-9.48,21-21.84,21-21.84-9.48-21.84-21,9.48-21,21.84-21"/>
      <path class="cls-1" d="M298.38,15.91h-8.91V26.54h8.91a5.21,5.21,0,0,0,5.45-5,1.34,1.34,0,0,0,0-.2,5.29,5.29,0,0,0-5.11-5.46h-.35M280.85,9.19a1,1,0,0,1,1-1h16.77c8,0,13.8,5.86,13.8,13.22a13,13,0,0,1-7.19,11.78L313,46.83a1,1,0,0,1-.28,1.39,1,1,0,0,1-.62.16h-6.8a1,1,0,0,1-.91-.54L296.94,34.3h-7.47v13a1,1,0,0,1-1,1h-6.54a1,1,0,0,1-1-1Z"/>
      <path class="cls-1" d="M334.89,16.09V40.81h6.32a12.22,12.22,0,0,0,12.07-12.35h0A12,12,0,0,0,341.65,16.1h-6.76Zm6.32-7.75c11.78,0,20.69,8.9,20.69,20.11S353,48.57,341.21,48.57h-13.9a1,1,0,0,1-1-1V9.38a1,1,0,0,1,1-1Z"/>
      <path class="cls-1" d="M388.18,18.16,383.3,31.38h9.77Zm-7.76,20.69-3.2,8.8a1,1,0,0,1-1,.69h-6.94a1,1,0,0,1-1.09-.9,1,1,0,0,1,.09-.53l15-38.14a1,1,0,0,1,1-.67h7.77a1,1,0,0,1,1,.67l15,38.14a1,1,0,0,1-.47,1.34,1,1,0,0,1-.53.09h-6.94a1,1,0,0,1-1-.69l-3.2-8.8Z"/>
      <path class="cls-1" d="M416.11,19c0-6.32,5.45-11.78,14.08-11.78A17.84,17.84,0,0,1,442.7,12a1.05,1.05,0,0,1,0,1.47l-3.88,3.87a1,1,0,0,1-1.41.06h0a10.16,10.16,0,0,0-6.67-2.63c-3.45,0-6,2-6,4.31,0,7.48,20.38,3.17,20.38,17.53,0,7.19-5.46,12.65-15.23,12.65a20.41,20.41,0,0,1-14.54-5.85,1,1,0,0,1,0-1.41l0-.05,3.72-3.72a1,1,0,0,1,1.41,0l0,0a12.83,12.83,0,0,0,8.78,3.58c4.32,0,7.16-2.3,7.16-5.18,0-7.47-20.37-3.16-20.37-17.53"/>
      <path class="cls-1" d="M482.09,9.15V24.2H464.85V9.2a1,1,0,0,0-1-1h-6.59a1,1,0,0,0-1,1V47.29a1,1,0,0,0,.95,1.05h6.59a1,1,0,0,0,1-1V32h17.24V47.29a1,1,0,0,0,1,1.05h6.63a1,1,0,0,0,1.05-1V9.15a1,1,0,0,0-1-1.05h-6.63a1,1,0,0,0-1.05,1Z"/>
      <path class="cls-1" d="M95.64,13.38A25.26,25.26,0,0,0,73.27,0H2.43A2.44,2.44,0,0,0,.72,4.16L16.15,19.68a7.21,7.21,0,0,0,5.14,2.15H71.24a6.44,6.44,0,0,1,.14,12.88H36.94a2.44,2.44,0,0,0-1.71,4.16L50.66,54.39a7.27,7.27,0,0,0,5.15,2.14H71.38c20.25,0,35.57-21.66,24.26-43.15"/>
    </g>
  </g>
</svg>
