<svg id="Layer_1" data-name="Layer 1" xmlns="http://www.w3.org/2000/svg" viewBox="0 0 100 90">
  <defs>
    <style>
      .cls-1 {
        fill: #ee3a25;
      }
    </style>
  </defs>
  <title>DD-Icons-DW</title>
  <g>
    <path class="cls-1" d="M36.51,66.77l1.62-3.43C37.06,63.1,36,62.82,35,62.5a1.8,1.8,0,0,0-1.25.06L20,68.16l5.26-7.87a1.9,1.9,0,0,0,.28-1.39,1.84,1.84,0,0,0-.79-1.18c-7.12-4.76-11-11.14-11-18C13.7,26,29.57,14.9,49.08,14.9A47.12,47.12,0,0,1,66.6,18.17l2.07-3.12a50.28,50.28,0,0,0-19.59-3.86C27.53,11.19,10,24,10,39.73c0,7.49,4,14.69,11.17,20l-7.61,11.4A1.85,1.85,0,0,0,15.09,74a1.94,1.94,0,0,0,.7-.14l18.73-7.64C35.18,66.43,35.84,66.6,36.51,66.77Z"/>
    <g>
      <path class="cls-1" d="M84.21,28.51A1.84,1.84,0,0,0,83.52,31,18.74,18.74,0,0,1,86,38.68a1.87,1.87,0,0,0,1.85,1.69H88a1.87,1.87,0,0,0,1.69-2,22.36,22.36,0,0,0-2.92-9.16A1.85,1.85,0,0,0,84.21,28.51Z"/>
      <path class="cls-1" d="M74.06,58.79a38.63,38.63,0,0,1-7.66,3.64A1.85,1.85,0,0,0,67,66a1.69,1.69,0,0,0,.62-.11,42,42,0,0,0,8.38-4,1.85,1.85,0,0,0-2-3.15Z"/>
      <path class="cls-1" d="M70.44,17.54A1.86,1.86,0,0,0,71.26,20a33.81,33.81,0,0,1,7,4.67,1.86,1.86,0,0,0,2.62-.17,1.86,1.86,0,0,0-.17-2.62,37.43,37.43,0,0,0-7.77-5.18A1.85,1.85,0,0,0,70.44,17.54Z"/>
      <path class="cls-1" d="M58.11,64.47a50.3,50.3,0,0,1-8.55.54,1.86,1.86,0,0,0-.08,3.71h1.2a54.26,54.26,0,0,0,8-.59,1.86,1.86,0,0,0-.56-3.67Z"/>
      <path class="cls-1" d="M87.23,45.51a1.86,1.86,0,0,0-2.39,1.08,21.9,21.9,0,0,1-4.33,6.9,1.86,1.86,0,0,0,1.37,3.1A1.8,1.8,0,0,0,83.25,56a25.56,25.56,0,0,0,5.06-8.08A1.86,1.86,0,0,0,87.23,45.51Z"/>
      <path class="cls-1" d="M36.06,66.67c1.39.41,2.83.76,4.27,1a1.85,1.85,0,1,0,.72-3.63c-1.08-.22-2.14-.49-3.19-.77L36,66.69Z"/>
    </g>
  </g>
</svg>
