<svg id="Layer_1" data-name="Layer 1" xmlns="http://www.w3.org/2000/svg" viewBox="0 0 100 90">
  <defs>
    <style>
      .cls-1 {
        fill: #ee3a25;
      }
    </style>
  </defs>
  <title>DD-Icons-DW</title>
  <g>
    <path class="cls-1" d="M84.27,71.24H15.39a9.54,9.54,0,0,1-9.53-9.53V28.65a9.53,9.53,0,0,1,9.53-9.53H84.27a9.54,9.54,0,0,1,9.53,9.53V61.71A9.55,9.55,0,0,1,84.27,71.24ZM15.39,22.82a5.84,5.84,0,0,0-5.83,5.83V61.71a5.83,5.83,0,0,0,5.83,5.82H84.27a5.83,5.83,0,0,0,5.82-5.82V28.65a5.83,5.83,0,0,0-5.82-5.83Z"/>
    <path class="cls-1" d="M46.94,51.24a1.85,1.85,0,0,1-1-.3l-7.48-4.81a1.86,1.86,0,1,1,2-3.12l7.47,4.82a1.85,1.85,0,0,1-1,3.41Zm7.42-.51a1.86,1.86,0,0,1-1-3.39l7.38-5a1.85,1.85,0,1,1,2.07,3.07l-7.37,5A1.9,1.9,0,0,1,54.36,50.73ZM32,41.61a1.85,1.85,0,0,1-1-.3L23.5,36.5a1.86,1.86,0,0,1,2-3.12L33,38.2a1.85,1.85,0,0,1-1,3.41Zm37.13-.84a1.85,1.85,0,0,1-1-3.39l7.37-5a1.85,1.85,0,1,1,2.07,3.07l-7.37,5A1.89,1.89,0,0,1,69.11,40.77ZM17,32a1.84,1.84,0,0,1-1-.29L8.54,26.86a1.85,1.85,0,1,1,2-3.11L18,28.56A1.85,1.85,0,0,1,17,32Zm66.83-1.16a1.85,1.85,0,0,1-1-3.39l5.26-3.55a1.85,1.85,0,1,1,2.07,3.07l-5.26,3.55A1.77,1.77,0,0,1,83.85,30.81Z"/>
    <path class="cls-1" d="M10.29,67.31a1.85,1.85,0,0,1-1-3.39c.38-.26,1.74-1.32,6.6-5.63a1.85,1.85,0,1,1,2.46,2.77c-5.18,4.59-6.48,5.59-7,5.94A1.88,1.88,0,0,1,10.29,67.31ZM23.74,55.58a1.85,1.85,0,0,1-1.24-3.22l6.6-6a1.85,1.85,0,1,1,2.49,2.74c-2,1.8-4.28,3.89-6.61,6A1.85,1.85,0,0,1,23.74,55.58Z"/>
    <path class="cls-1" d="M87.62,67.31a1.82,1.82,0,0,1-1-.31,90.7,90.7,0,0,1-7-5.94,1.85,1.85,0,1,1,2.46-2.77c4.86,4.31,6.22,5.37,6.6,5.63a1.85,1.85,0,0,1-1,3.39ZM74.17,55.58a1.85,1.85,0,0,1-1.24-.47c-2.33-2.1-4.63-4.19-6.61-6a1.85,1.85,0,1,1,2.49-2.74l6.6,6a1.85,1.85,0,0,1-1.24,3.22Z"/>
  </g>
</svg>
