<svg id="Layer_1" data-name="Layer 1" xmlns="http://www.w3.org/2000/svg" viewBox="0 0 100 90">
  <defs>
    <style>
      .cls-1 {
        fill: #ee3a25;
      }
    </style>
  </defs>
  <title>DD-Icons-DW</title>
  <g>
    <path class="cls-1" d="M37.42,33.42a1.73,1.73,0,0,1-.48-.07l-1-.79L18.15,15.11l1.85-2,1.62-1.7c.73-.74,1.47-1.47,2.22-2.2a4.14,4.14,0,0,1,6.09,0C31.3,10.64,32.65,12,34,13.35l2.47,2.46L42.67,22c2.14,2.12,2.23,4.54.23,6.64-1,1-2,2-2.95,3l-.15.14L38.65,32.9A1.8,1.8,0,0,1,37.42,33.42ZM22.79,15,37.44,29.42l.16-.16c1-1,2-2,2.9-2.94.62-.66.79-1.05-.16-2l-6.2-6.16L31.67,15.7l-4.07-4a.87.87,0,0,0-1.45,0c-.72.71-1.45,1.42-2.16,2.14Z"/>
    <path class="cls-1" d="M80.76,78l-1.47-1.53c-.45-.47-.9-1-1.37-1.42q-4.83-4.87-9.68-9.73l-3.87-3.89-.18-.2-.13-.13a2.11,2.11,0,0,1-.83-1.56,2.15,2.15,0,0,1,.71-1.66l1.45-1.46c.94-1,1.92-1.94,2.92-2.89a4.23,4.23,0,0,1,6.11.2l6.8,6.76,5.36,5.35a8.77,8.77,0,0,1,.86,1,4.12,4.12,0,0,1-.19,5.47c-1.1,1.17-2.25,2.32-3.35,3.43L82.58,77a1.93,1.93,0,0,1-.64.42ZM67.07,59.4l3.53,3.54q4.83,4.86,9.67,9.73l.94,1,.34-.33c1.09-1.09,2.21-2.21,3.27-3.35.16-.16.48-.52,0-1.2a4.85,4.85,0,0,0-.55-.6l-5.36-5.34L72.08,56c-.79-.79-1.3-.31-1.5-.13-1,.9-1.91,1.86-2.83,2.8Z"/>
    <path class="cls-1" d="M77.47,77.27c-.13-.16-.21-.26-.29-.34L70.28,70c-2.93-3-5.86-5.89-8.78-8.85a2.27,2.27,0,0,0-3.06-.31A1.2,1.2,0,0,1,57.2,61a11.76,11.76,0,0,1-2.45-1.3l-.55-.43c-2.67-2.09-5.44-4.24-8-6.5A56.71,56.71,0,0,1,36,40.93c-.89-1.4-.75-2.13-.22-2.86a2.21,2.21,0,0,0,0-2.32A3.16,3.16,0,0,0,35.2,35l-3.68-3.72-11-11.09c-.29-.29-.55-.6-.83-.92s-.3-.35-.47-.53L18,17.33l-1.41,1.59a2.79,2.79,0,0,0-.26.32l-.28.42,4.06,4.79,9.05,9.15L32.57,37c-.85,1.75-.63,3.66.66,5.68A59.73,59.73,0,0,0,44,55.26c2.63,2.33,5.44,4.52,8.15,6.64l.55.43a14.15,14.15,0,0,0,3.19,1.73A4.5,4.5,0,0,0,59.63,64q4.14,4.18,8.3,8.36l5.73,5.75-.12.06a13.64,13.64,0,0,1-6.21,1,29.06,29.06,0,0,1-13.4-2.88,56.73,56.73,0,0,1-6.75-3.9l-2.29,2.46a62.72,62.72,0,0,0,7.56,4.42c5.44,2.71,10.2,3.13,14.81,3.22h.64a16.83,16.83,0,0,0,7-1.35,16.76,16.76,0,0,0,1.58-.89l.63-.39,1.65-1Z"/>
    <g>
      <path class="cls-1" d="M17.41,35.56a1.66,1.66,0,0,0-3.21.86,41.83,41.83,0,0,0,2.34,6.36l.06.12a1.66,1.66,0,0,0,1.51,1,1.72,1.72,0,0,0,.69-.15,1.66,1.66,0,0,0,.82-2.2l-.06-.13A38.13,38.13,0,0,1,17.41,35.56Z"/>
      <path class="cls-1" d="M14.84,29.77h.09a1.67,1.67,0,0,0,1.66-1.57,14.41,14.41,0,0,1,.88-4.55l-2.35-2.76,0,0A15.85,15.85,0,0,0,13.27,28,1.66,1.66,0,0,0,14.84,29.77Z"/>
      <path class="cls-1" d="M32.35,59.39a1.66,1.66,0,0,0-2.42,2.27c1.49,1.59,3.09,3.19,4.77,4.76A1.66,1.66,0,1,0,37,64C35.35,62.48,33.79,60.93,32.35,59.39Z"/>
      <path class="cls-1" d="M47.64,72.67c-1.56-1-3.13-2.2-4.76-3.51a1.66,1.66,0,1,0-2.08,2.58c1.73,1.39,3.39,2.61,5.05,3.73L48,73.35Z"/>
      <path class="cls-1" d="M27,55.8a1.67,1.67,0,0,0,.27-2.34c-1.47-1.83-2.73-3.54-3.84-5.23a1.66,1.66,0,0,0-2.77,1.84c1.17,1.76,2.48,3.55,4,5.47A1.66,1.66,0,0,0,27,55.8Z"/>
    </g>
  </g>
</svg>
