<svg id="Layer_1" data-name="Layer 1" xmlns="http://www.w3.org/2000/svg" viewBox="0 0 100 90">
  <defs>
    <style>
      .cls-1 {
        fill: #ee3a25;
      }
    </style>
  </defs>
  <title>DD-Icons-DW</title>
  <g>
    <path class="cls-1" d="M11.7,66.69l.16.12a3.24,3.24,0,0,0,.37.28l.23.13c2.43.9,10.59-.77,12.83-1.25a32.37,32.37,0,0,0,10.83-5.5,1.86,1.86,0,0,0,.64-2,1.84,1.84,0,0,0-1.65-1.31,13.66,13.66,0,0,1-8.68-3.65,12.74,12.74,0,0,1-2.45-3,16.38,16.38,0,0,0,4.21-.57,1.86,1.86,0,0,0,0-3.59,13.51,13.51,0,0,1-8.47-5.88,12.66,12.66,0,0,1-1.85-4.53l.63.19a20.39,20.39,0,0,0,3.66.61A1.83,1.83,0,0,0,24,35.52a1.85,1.85,0,0,0-.59-2.15,13.66,13.66,0,0,1-5.65-9.62A12.67,12.67,0,0,1,18.39,18,45.3,45.3,0,0,0,49,32.34a1.85,1.85,0,0,0,2-2.05c0-.28-.07-.55-.1-.81-.06-.52-.12-1-.15-1.47a12.89,12.89,0,0,1,6.52-12.48A13.26,13.26,0,0,1,73,17.17a3.66,3.66,0,0,0,3.67,1,36.39,36.39,0,0,0,3.53-1.08,34.34,34.34,0,0,1-2.88,2.79,1.85,1.85,0,0,0,1.54,3.22l.8-.14c.53-.09,1.08-.18,1.64-.3-.68.65-1.42,1.26-2.2,1.89l-.49.41c-.07.06-.12.12-.18.18a1.52,1.52,0,0,0,.14,2.16,2.65,2.65,0,0,0,3,0h0a33.19,33.19,0,0,0,2.82-2.53c1-1,1.82-2,2.66-3.05.35-.43.71-.85,1.07-1.28a1.84,1.84,0,0,0,0-2.43L88,17.82a1.87,1.87,0,0,0-2-.51l-.82.31-.86.31a10.42,10.42,0,0,0,2.18-4.69,1.85,1.85,0,0,0-2.7-1.88l-.26.13-.55.29a30.1,30.1,0,0,1-7.21,2.78l-.09,0-.11-.1a16.84,16.84,0,0,0-20.27-2.09A16.54,16.54,0,0,0,47.06,28.2c0,.08,0,.16,0,.24-11.17-1.28-20.27-6.2-27.77-15a1.85,1.85,0,0,0-1.58-.64,1.82,1.82,0,0,0-1.43.92A16.61,16.61,0,0,0,14.1,24.18a17,17,0,0,0,2.56,7.29l-.29-.11a1.89,1.89,0,0,0-1.71.21,1.85,1.85,0,0,0-.8,1.52,16.77,16.77,0,0,0,2.71,9.34,17.19,17.19,0,0,0,3.84,4.21,1.87,1.87,0,0,0-.77.54A1.84,1.84,0,0,0,19.29,49a16.56,16.56,0,0,0,4.63,7.27A17.08,17.08,0,0,0,30.2,60,28.74,28.74,0,0,1,13,63.4a1.86,1.86,0,0,0-1.33,3.29Z"/>
    <g>
      <path class="cls-1" d="M40.71,74.83h.13a43.58,43.58,0,0,0,9-1.54l.14,0a1.86,1.86,0,1,0-1-3.57l-.11,0a40.81,40.81,0,0,1-8.25,1.42,1.85,1.85,0,0,0,.12,3.7Z"/>
      <path class="cls-1" d="M21.44,70.09a1.84,1.84,0,0,0,1.14,2.36,44.56,44.56,0,0,0,9,2.1h.23a1.85,1.85,0,0,0,.23-3.69A40.67,40.67,0,0,1,23.79,69a2.05,2.05,0,0,0-.65-.1l-.51.09A1.84,1.84,0,0,0,21.44,70.09Z"/>
      <path class="cls-1" d="M70.08,58.29a1.81,1.81,0,0,0,1.12.38,1.83,1.83,0,0,0,1.47-.73,49.34,49.34,0,0,0,4.86-7.84,1.85,1.85,0,1,0-3.31-1.66,46.31,46.31,0,0,1-4.5,7.26A1.84,1.84,0,0,0,70.08,58.29Z"/>
      <path class="cls-1" d="M80.59,30.37a1.84,1.84,0,0,0-2,1.75,40.71,40.71,0,0,1-1.36,8.38,1.85,1.85,0,0,0,1.31,2.27,1.59,1.59,0,0,0,.48.07,1.85,1.85,0,0,0,1.79-1.37,44.57,44.57,0,0,0,1.48-9.15A1.86,1.86,0,0,0,80.59,30.37Z"/>
      <path class="cls-1" d="M63.9,61.86a37.81,37.81,0,0,1-7,4.7,1.85,1.85,0,0,0,.86,3.5,1.87,1.87,0,0,0,.85-.21,41.79,41.79,0,0,0,7.72-5.17,1.85,1.85,0,1,0-2.4-2.82Z"/>
    </g>
  </g>
</svg>
