<svg id="Layer_1" data-name="Layer 1" xmlns="http://www.w3.org/2000/svg" viewBox="0 0 111.74 13">
  <defs>
    <style>
      .cls-1 {
        fill: #ff3008;
      }
    </style>
  </defs>
  <title>DD-logo</title>
  <path class="cls-1" d="M2.78,2.68v7.65h2A3.77,3.77,0,0,0,8.47,6.51h0a3.71,3.71,0,0,0-3.6-3.82H2.78Zm2-2.4a6.23,6.23,0,1,1,0,12.45H.42a.3.3,0,0,1-.3-.31V.6A.3.3,0,0,1,.42.29Z" transform="translate(-0.12 0)"/>
  <path class="cls-1" d="M20.54,10.6a4.1,4.1,0,1,0-4.08-4.11h0a4.1,4.1,0,0,0,4.08,4.1m0-10.6a6.61,6.61,0,0,1,6.78,6.5A6.61,6.61,0,0,1,20.54,13,6.57,6.57,0,0,1,13.8,6.5,6.58,6.58,0,0,1,20.54,0" transform="translate(-0.12 0)"/>
  <path class="cls-1" d="M36.64,10.6a4.1,4.1,0,1,0-4.1-4.1,4.09,4.09,0,0,0,4.1,4.1h0m0-10.6A6.59,6.59,0,0,1,43.4,6.5a6.77,6.77,0,0,1-13.53,0A6.59,6.59,0,0,1,36.64,0" transform="translate(-0.12 0)"/>
  <path class="cls-1" d="M52.35,2.68H49.59V6h2.76A1.62,1.62,0,0,0,54,4.43V4.37a1.64,1.64,0,0,0-1.58-1.69h-.11M46.92.6a.31.31,0,0,1,.31-.31h5.2a4.1,4.1,0,0,1,4.26,4.1A4,4,0,0,1,54.47,8l2.4,4.24a.32.32,0,0,1-.08.43.29.29,0,0,1-.2.05H54.48a.32.32,0,0,1-.28-.17L51.89,8.39H49.58v4a.3.3,0,0,1-.31.3h-2a.3.3,0,0,1-.31-.3Z" transform="translate(-0.12 0)"/>
  <path class="cls-1" d="M63.65,2.74v7.65H65.6a3.78,3.78,0,0,0,3.74-3.82h0a3.71,3.71,0,0,0-3.6-3.82H63.65ZM65.6.34a6.23,6.23,0,1,1,0,12.45H61.3a.31.31,0,0,1-.31-.31V.66A.31.31,0,0,1,61.3.35Z" transform="translate(-0.12 0)"/>
  <path class="cls-1" d="M80.15,3.38,78.63,7.47h3Zm-2.41,6.4-1,2.73a.3.3,0,0,1-.31.21H74.3a.31.31,0,0,1-.34-.28.23.23,0,0,1,0-.16L78.63.47a.3.3,0,0,1,.31-.2h2.4a.3.3,0,0,1,.31.2L86.3,12.28a.31.31,0,0,1-.15.41.23.23,0,0,1-.16,0H83.84a.3.3,0,0,1-.31-.21l-1-2.73Z" transform="translate(-0.12 0)"/>
  <path class="cls-1" d="M88.79,3.65c0-2,1.69-3.65,4.36-3.65A5.53,5.53,0,0,1,97,1.46a.32.32,0,0,1,0,.44h0L95.83,3.1a.31.31,0,0,1-.44,0h0a3.12,3.12,0,0,0-2.07-.82c-1.07,0-1.85.62-1.85,1.34,0,2.31,6.3,1,6.3,5.42,0,2.25-1.7,4-4.71,4a6.31,6.31,0,0,1-4.5-1.81.29.29,0,0,1,0-.43l0,0,1.15-1.15a.3.3,0,0,1,.43,0l0,0a3.93,3.93,0,0,0,2.72,1.1c1.33,0,2.21-.71,2.21-1.6,0-2.31-6.31-1-6.31-5.43" transform="translate(-0.12 0)"/>
  <path class="cls-1" d="M109.21.59V5.26h-5.34V.59a.31.31,0,0,0-.31-.31h-2a.31.31,0,0,0-.31.31V12.4a.31.31,0,0,0,.31.31h2a.31.31,0,0,0,.31-.31V7.65h5.34V12.4a.31.31,0,0,0,.31.31h2a.31.31,0,0,0,.31-.31V.59a.31.31,0,0,0-.31-.31h-2A.31.31,0,0,0,109.21.59Z" transform="translate(-0.12 0)"/>
</svg>
