<svg id="Layer_1" data-name="Layer 1" xmlns="http://www.w3.org/2000/svg" viewBox="0 0 127.63 30.6">
  <defs>
    <style>
      .cls-1 {
        fill: #fff;
      }
    </style>
  </defs>
  <title>GooglePlay-white</title>
  <path class="cls-1" d="M37,4H36a6.91,6.91,0,0,0-.27-1.11H34.38A5.27,5.27,0,0,0,34.12,4h-.89c0-.08.23-.71.69-1.9a14.32,14.32,0,0,0,.69-2h1.13a17.56,17.56,0,0,0,.64,2A18.66,18.66,0,0,1,37,4ZM35.62,2.27A15.91,15.91,0,0,1,35.11.61h0c0,.08-.18.63-.53,1.66Z"/>
  <path class="cls-1" d="M40.83,4H40.1a7.83,7.83,0,0,0-.82-1.29,7.32,7.32,0,0,1-1-1.68h-.05a11.72,11.72,0,0,1,.15,1.19V4h-.73V.12h.88a5.71,5.71,0,0,0,.74,1.26A7.49,7.49,0,0,1,40.17,3h0a9.5,9.5,0,0,1-.07-1.19V.12h.74V2C40.84,2.7,40.8,3.36,40.83,4Z"/>
  <path class="cls-1" d="M45.14,1.89a2.16,2.16,0,0,1-.54,1.47A1.87,1.87,0,0,1,43.08,4H41.87V.16H43.1a2,2,0,0,1,1.56.53A1.85,1.85,0,0,1,45.14,1.89ZM44.33,2A1.46,1.46,0,0,0,44,1a1.26,1.26,0,0,0-1-.39,2,2,0,0,0-.35,0V3.29H43A1.12,1.12,0,0,0,44,2.9a1.46,1.46,0,0,0,.4-.88Z"/>
  <path class="cls-1" d="M49.12,4h-.88a6.12,6.12,0,0,0-.53-1.3.72.72,0,0,0-.6-.25h-.33V3.94H46V.09h1.4c.91,0,1.36.31,1.36.93A1.06,1.06,0,0,1,48,2h0a.94.94,0,0,1,.53.47A12.6,12.6,0,0,1,49.12,4ZM48,1.22c0-.39-.25-.59-.76-.59a4,4,0,0,0-.49,0V1.84H47C47.69,1.88,48,1.66,48,1.22Z"/>
  <path class="cls-1" d="M53.38,2a2.13,2.13,0,0,1-.56,1.52,1.87,1.87,0,0,1-2.64.11l-.06-.06a2,2,0,0,1-.53-1.41A2.1,2.1,0,0,1,50.15.6,1.84,1.84,0,0,1,51.54,0a1.74,1.74,0,0,1,1.31.55A2,2,0,0,1,53.38,2ZM52.56,2a1.57,1.57,0,0,0-.32-1,1,1,0,0,0-.78-.39.91.91,0,0,0-.74.39,1.63,1.63,0,0,0-.31,1,1.5,1.5,0,0,0,.32,1,1,1,0,0,0,.79.39A.92.92,0,0,0,52.26,3,1.56,1.56,0,0,0,52.56,2Z"/>
  <path class="cls-1" d="M55.06,4h-.84V.1h.84V2C55.06,2.69,55,3.36,55.06,4Z"/>
  <path class="cls-1" d="M59.38,1.89a2.16,2.16,0,0,1-.54,1.47A1.87,1.87,0,0,1,57.32,4H56.11V.16h1.27a2,2,0,0,1,1.56.53A1.89,1.89,0,0,1,59.38,1.89ZM58.57,2a1.46,1.46,0,0,0-.33-1,1.26,1.26,0,0,0-1-.39,2,2,0,0,0-.35,0V3.29h.39a1.12,1.12,0,0,0,.94-.39A1.57,1.57,0,0,0,58.56,2Z"/>
  <path class="cls-1" d="M65.09,4h-1a6.91,6.91,0,0,0-.27-1.11H62.49A6,6,0,0,0,62.21,4h-.89c0-.08.23-.71.69-1.9a15.8,15.8,0,0,0,.7-2h1.12A16.26,16.26,0,0,0,64.46,2,16.57,16.57,0,0,1,65.09,4ZM63.72,2.27A15.91,15.91,0,0,1,63.21.61h0c0,.08-.18.63-.53,1.66Z"/>
  <path class="cls-1" d="M68.56,1.1a1.16,1.16,0,0,1-.53,1,2.27,2.27,0,0,1-1.29.34h-.2V3.91h-.83V.06h1.48a1.69,1.69,0,0,1,1,.26A.85.85,0,0,1,68.56,1.1Zm-.77.17c0-.43-.28-.64-.84-.64a3.38,3.38,0,0,0-.45,0V1.91h.18C67.43,2,67.79,1.72,67.79,1.27Z"/>
  <path class="cls-1" d="M72.13,1.1a1.16,1.16,0,0,1-.53,1,2.27,2.27,0,0,1-1.29.34h-.2V3.91h-.84V.06h1.51a1.69,1.69,0,0,1,1,.26A.86.86,0,0,1,72.13,1.1Zm-.75.17c0-.43-.28-.64-.84-.64a3.38,3.38,0,0,0-.45,0V1.91h.17C71,2,71.38,1.72,71.38,1.27Z"/>
  <path class="cls-1" d="M78,2a2.19,2.19,0,0,1-.58,1.52,1.87,1.87,0,0,1-2.64.11l-.06-.06a2,2,0,0,1-.53-1.41A2.1,2.1,0,0,1,74.71.6,1.84,1.84,0,0,1,76.1,0a1.74,1.74,0,0,1,1.31.55A2,2,0,0,1,78,2ZM77.14,2a1.57,1.57,0,0,0-.32-1A1,1,0,0,0,76,.65.91.91,0,0,0,75.3,1,1.63,1.63,0,0,0,75,2a1.5,1.5,0,0,0,.32,1,1,1,0,0,0,.79.39A.92.92,0,0,0,76.84,3,1.56,1.56,0,0,0,77.14,2Z"/>
  <path class="cls-1" d="M82,4h-.73a7.83,7.83,0,0,0-.82-1.29,7.32,7.32,0,0,1-1-1.68h0a9.36,9.36,0,0,1,.08,1.18V4h-.73V.11h.88a5.86,5.86,0,0,0,.71,1.24,7.49,7.49,0,0,1,.9,1.58h0a9.5,9.5,0,0,1-.07-1.19V.09H82V1.93C82,2.66,82,3.36,82,4Z"/>
  <path class="cls-1" d="M46.91,16.37A6.22,6.22,0,0,1,45.2,21a6.68,6.68,0,0,1-5.06,2,7.1,7.1,0,0,1-7.15-7v-.14a7.1,7.1,0,0,1,7-7.19h.14A6.9,6.9,0,0,1,43,9.15a5.68,5.68,0,0,1,2.15,1.54L43.91,12a4.65,4.65,0,0,0-3.77-1.64,5.31,5.31,0,0,0-5.34,5.28v.22a5.32,5.32,0,0,0,5.12,5.5h.22A5.2,5.2,0,0,0,44,19.77,4.35,4.35,0,0,0,45.14,17h-5V15.33h6.67A6,6,0,0,1,46.91,16.37Z"/>
  <path class="cls-1" d="M49,14.4A4.83,4.83,0,0,1,57.32,18,5,5,0,0,1,56,21.53a4.93,4.93,0,0,1-7,0l0,0A5,5,0,0,1,47.64,18,5,5,0,0,1,49,14.4Zm1.32,6a3,3,0,0,0,4.24.08l.08-.08a3.39,3.39,0,0,0,.91-2.5,3.42,3.42,0,0,0-.91-2.47,3,3,0,0,0-4.32,0A3.37,3.37,0,0,0,49.38,18,3.4,3.4,0,0,0,50.32,20.45Z"/>
  <path class="cls-1" d="M59.28,14.4a5,5,0,0,1,7,0A5,5,0,0,1,67.61,18a5,5,0,0,1-1.37,3.58,4.93,4.93,0,0,1-7,0l0,0A5,5,0,0,1,57.92,18,5,5,0,0,1,59.28,14.4Zm1.32,6a3,3,0,0,0,4.24.08l.08-.08a3.36,3.36,0,0,0,.92-2.5,3.37,3.37,0,0,0-.92-2.47,3,3,0,0,0-4.24-.08l-.08.08A3.42,3.42,0,0,0,59.69,18,3.39,3.39,0,0,0,60.6,20.45Z"/>
  <path class="cls-1" d="M72.83,27.15a4.32,4.32,0,0,1-2.73-.84,4.78,4.78,0,0,1-1.51-1.91l1.61-.67a2.71,2.71,0,0,0,1,1.29,2.75,2.75,0,0,0,1.64.51,3,3,0,0,0,2.3-.87A3.28,3.28,0,0,0,76,22.29v-.91H75.9a3.49,3.49,0,0,1-1.31,1.16,3.92,3.92,0,0,1-1.9.46,4.14,4.14,0,0,1-3.15-1.44A5.07,5.07,0,0,1,68.2,18a5,5,0,0,1,1.33-3.57A4.13,4.13,0,0,1,72.68,13a3.92,3.92,0,0,1,1.9.46,3.71,3.71,0,0,1,1.31,1.15H76V13.27h1.69v8.94a4.66,4.66,0,0,1-1.41,3.68A5,5,0,0,1,72.83,27.15ZM73,21.38a2.79,2.79,0,0,0,2.12-.92A3.45,3.45,0,0,0,76,18a3.47,3.47,0,0,0-.87-2.48A2.89,2.89,0,0,0,71,15.31l-.16.16A3.43,3.43,0,0,0,70,18a3.4,3.4,0,0,0,.88,2.47A2.83,2.83,0,0,0,73,21.38Z"/>
  <path class="cls-1" d="M81.1,22.69H79.38V9h1.77Z"/>
  <path class="cls-1" d="M86.94,23a4.58,4.58,0,0,1-3.47-1.43A5,5,0,0,1,82.13,18a5.24,5.24,0,0,1,1.3-3.54A4.22,4.22,0,0,1,86.75,13a4.36,4.36,0,0,1,3.35,1.37A5.14,5.14,0,0,1,91.38,18v.33H83.9a3.21,3.21,0,0,0,1,2.25,2.93,2.93,0,0,0,2,.82,2.55,2.55,0,0,0,2.58-1.61l1.57.65a4.21,4.21,0,0,1-1.52,1.84A4.43,4.43,0,0,1,86.94,23Zm2.54-6.15a2.52,2.52,0,0,0-.74-1.54,2.65,2.65,0,0,0-2-.73,2.53,2.53,0,0,0-1.7.62,3.12,3.12,0,0,0-1,1.65Z"/>
  <path class="cls-1" d="M98.32,22.69H96.55V9h4.69a4.39,4.39,0,0,1,3,1.16,4,4,0,0,1,.21,5.65l-.21.21a4.34,4.34,0,0,1-3,1.17H98.32Zm0-7.26h3a2.26,2.26,0,0,0,1.78-.75,2.35,2.35,0,0,0,0-3.31,2.26,2.26,0,0,0-1.78-.75h-3Z"/>
  <path class="cls-1" d="M108.46,22.69H106.7V9h1.76Z"/>
  <path class="cls-1" d="M113,23a3.7,3.7,0,0,1-2.51-.87,3.07,3.07,0,0,1-.21-4.34,3.33,3.33,0,0,1,.39-.36,4.89,4.89,0,0,1,2.94-.87,5,5,0,0,1,2.56.58v-.27a2.16,2.16,0,0,0-.71-1.67,2.61,2.61,0,0,0-1.75-.62,2.69,2.69,0,0,0-1.35.37,1.88,1.88,0,0,0-.86,1l-1.61-.69a3.61,3.61,0,0,1,1.28-1.56,4,4,0,0,1,2.54-.73,4.34,4.34,0,0,1,3,1.06,3.8,3.8,0,0,1,1.19,3v5.69h-1.69V21.38h-.08A3.47,3.47,0,0,1,113,23Zm.29-1.62a2.87,2.87,0,0,0,2-.81,2.55,2.55,0,0,0,.89-1.93A3.47,3.47,0,0,0,114,18a2.93,2.93,0,0,0-1.94.56,1.63,1.63,0,0,0-.65,1.3A1.27,1.27,0,0,0,112,21,2.35,2.35,0,0,0,113.31,21.38Z"/>
  <path class="cls-1" d="M121.73,26.84H119.9l2.19-4.75-3.88-8.82h1.92L122.94,20h0l2.73-6.77h1.92Z"/>
  <path class="cls-1" d="M0,15.58V2.39A2,2,0,0,1,.49,1C.64.79.75.75.93,1q4.44,4.53,8.89,9,2.88,3,5.76,5.87c.19.19.21.29,0,.48q-7.08,7-14.12,14.08a.49.49,0,0,1-.69.08.3.3,0,0,1-.08-.08A1.78,1.78,0,0,1,0,29V15.57Z"/>
  <path class="cls-1" d="M1.7.45a1.64,1.64,0,0,1,.86.24L20.62,10.8c.28.16.27.24.06.45l-4,4c-.15.14-.23.23-.43,0L1.85.64C-5.35-6.67,1.78.55,1.7.45Z"/>
  <path class="cls-1" d="M3.05,30.27Q9.61,23.66,16.15,17c.27-.28.39-.24.64,0,1.1,1.15,2.23,2.29,3.36,3.42.2.2.21.29-.06.43L3.27,30.11Z"/>
  <path class="cls-1" d="M28,15.7a1.37,1.37,0,0,1-.61,1.1,6.36,6.36,0,0,1-.83.51l-5.09,2.81a.39.39,0,0,1-.55-.06h0c-1.2-1.25-2.42-2.48-3.64-3.71-.18-.18-.18-.28,0-.45,1.43-1.41,2.84-2.82,4.25-4.23a.33.33,0,0,1,.46-.09l0,0,5,2.82A1.57,1.57,0,0,1,28,15.7Z"/>
</svg>
