<svg id="Layer_1" data-name="Layer 1" xmlns="http://www.w3.org/2000/svg" viewBox="0 0 127.63 30.6">
  <title>GooglePlay</title>
  <path d="M45.62,12h-1a6.3,6.3,0,0,0-.27-1.11H43A5.47,5.47,0,0,0,42.74,12h-.89c0-.08.23-.71.69-1.9a15.51,15.51,0,0,0,.69-2h1.13A16.54,16.54,0,0,0,45,10.08,16.78,16.78,0,0,1,45.62,12Zm-1.38-1.68a16.73,16.73,0,0,1-.51-1.66h0c0,.08-.18.63-.53,1.66Z" transform="translate(-8.62 -8.05)"/>
  <path d="M49.45,12h-.73a7.92,7.92,0,0,0-.82-1.29,7.29,7.29,0,0,1-1-1.68h-.05A10.62,10.62,0,0,1,47,10.22c0,.49,0,1.09,0,1.79h-.73c0-.62,0-1.29,0-2s0-1.33,0-1.84h.88a6,6,0,0,0,.74,1.26,7.36,7.36,0,0,1,.9,1.58h0a10.59,10.59,0,0,1-.07-1.19c0-.54,0-1.09,0-1.65h.74c0,.49,0,1.1,0,1.84S49.42,11.41,49.45,12Z" transform="translate(-8.62 -8.05)"/>
  <path d="M53.76,9.94a2.19,2.19,0,0,1-.54,1.47,1.87,1.87,0,0,1-1.52.64l-1.21,0c0-.6,0-1.27,0-2s0-1.33,0-1.84h1.23a2,2,0,0,1,1.56.53A1.88,1.88,0,0,1,53.76,9.94Zm-.81.13a1.44,1.44,0,0,0-.33-1,1.26,1.26,0,0,0-1-.39,2.51,2.51,0,0,0-.35,0c0,.4,0,.81,0,1.25s0,.94,0,1.41l.39,0a1.12,1.12,0,0,0,.94-.39A1.52,1.52,0,0,0,53,10.07Z" transform="translate(-8.62 -8.05)"/>
  <path d="M57.74,12h-.88a6.17,6.17,0,0,0-.53-1.3.72.72,0,0,0-.6-.25H55.4c0,.51,0,1,0,1.54H54.6c0-.6,0-1.27,0-2s0-1.34,0-1.85H56c.91,0,1.36.31,1.36.93a1.06,1.06,0,0,1-.78,1v0a.94.94,0,0,1,.53.47A11.44,11.44,0,0,1,57.74,12ZM56.62,9.27c0-.39-.25-.59-.76-.59a3.34,3.34,0,0,0-.49,0c0,.31,0,.71,0,1.21h.28C56.31,9.93,56.62,9.71,56.62,9.27Z" transform="translate(-8.62 -8.05)"/>
  <path d="M62,10a2.16,2.16,0,0,1-.56,1.52,1.87,1.87,0,0,1-2.7.05,2,2,0,0,1-.53-1.41,2.14,2.14,0,0,1,.56-1.51,1.84,1.84,0,0,1,1.39-.6,1.73,1.73,0,0,1,1.31.55A2,2,0,0,1,62,10Zm-.82.09a1.57,1.57,0,0,0-.32-1,1,1,0,0,0-.78-.39.91.91,0,0,0-.74.39,1.58,1.58,0,0,0-.31,1,1.52,1.52,0,0,0,.32,1,1,1,0,0,0,.79.39.92.92,0,0,0,.74-.39A1.57,1.57,0,0,0,61.18,10.09Z" transform="translate(-8.62 -8.05)"/>
  <path d="M63.68,12h-.84c0-.61,0-1.29,0-2s0-1.34,0-1.85h.84c0,.5,0,1.11,0,1.85S63.66,11.41,63.68,12Z" transform="translate(-8.62 -8.05)"/>
  <path d="M68,9.94a2.19,2.19,0,0,1-.54,1.47,1.87,1.87,0,0,1-1.52.64l-1.21,0c0-.6,0-1.27,0-2s0-1.33,0-1.84H66a2,2,0,0,1,1.56.53A1.88,1.88,0,0,1,68,9.94Zm-.81.13a1.44,1.44,0,0,0-.33-1,1.26,1.26,0,0,0-1-.39,2.51,2.51,0,0,0-.35,0c0,.4,0,.81,0,1.25s0,.94,0,1.41l.39,0a1.12,1.12,0,0,0,.94-.39A1.52,1.52,0,0,0,67.18,10.07Z" transform="translate(-8.62 -8.05)"/>
  <path d="M73.71,12h-.95a6.3,6.3,0,0,0-.27-1.11H71.11A6.33,6.33,0,0,0,70.83,12h-.89c0-.08.23-.71.69-1.9a14.76,14.76,0,0,0,.7-2h1.12a16.54,16.54,0,0,0,.63,1.94A16.78,16.78,0,0,1,73.71,12Zm-1.37-1.68a16.73,16.73,0,0,1-.51-1.66h0c0,.08-.18.63-.53,1.66Z" transform="translate(-8.62 -8.05)"/>
  <path d="M77.18,9.15a1.15,1.15,0,0,1-.53,1,2.3,2.3,0,0,1-1.29.34h-.2q0,.56,0,1.47h-.83c0-.57,0-1.25,0-2s0-1.33,0-1.85h1.48a1.71,1.71,0,0,1,1,.26A.86.86,0,0,1,77.18,9.15Zm-.77.17c0-.43-.28-.64-.84-.64a2.42,2.42,0,0,0-.45,0c0,.38,0,.8,0,1.28h.18C76.05,10,76.41,9.77,76.41,9.32Z" transform="translate(-8.62 -8.05)"/>
  <path d="M80.75,9.15a1.15,1.15,0,0,1-.53,1,2.3,2.3,0,0,1-1.29.34h-.2q0,.56,0,1.47h-.84c0-.57,0-1.25,0-2s0-1.33,0-1.85H79.4a1.72,1.72,0,0,1,1,.26A.86.86,0,0,1,80.75,9.15ZM80,9.32c0-.43-.28-.64-.84-.64a2.42,2.42,0,0,0-.45,0c0,.38,0,.8,0,1.28h.17C79.62,10,80,9.77,80,9.32Z" transform="translate(-8.62 -8.05)"/>
  <path d="M86.58,10A2.16,2.16,0,0,1,86,11.52a1.87,1.87,0,0,1-2.7.05,2,2,0,0,1-.53-1.41,2.14,2.14,0,0,1,.56-1.51,1.84,1.84,0,0,1,1.39-.6,1.73,1.73,0,0,1,1.31.55A2,2,0,0,1,86.58,10Zm-.82.09a1.57,1.57,0,0,0-.32-1,1,1,0,0,0-.78-.39.91.91,0,0,0-.74.39,1.58,1.58,0,0,0-.31,1,1.52,1.52,0,0,0,.32,1,1,1,0,0,0,.79.39.92.92,0,0,0,.74-.39A1.57,1.57,0,0,0,85.76,10.09Z" transform="translate(-8.62 -8.05)"/>
  <path d="M90.61,12h-.73a7.92,7.92,0,0,0-.82-1.29,7.29,7.29,0,0,1-1-1.68h0a10.62,10.62,0,0,1,.08,1.18c0,.49,0,1.09,0,1.79h-.73c0-.62,0-1.29,0-2s0-1.33,0-1.84h.88A6,6,0,0,0,89,9.4a7.36,7.36,0,0,1,.9,1.58h0a10.59,10.59,0,0,1-.07-1.19c0-.54,0-1.09,0-1.65h.74c0,.49,0,1.11,0,1.84S90.58,11.41,90.61,12Z" transform="translate(-8.62 -8.05)"/>
  <path d="M55.53,24.42A6.2,6.2,0,0,1,53.82,29a6.67,6.67,0,0,1-5.06,2,7.1,7.1,0,0,1-7.15-7.19,7.1,7.1,0,0,1,7.15-7.19,7,7,0,0,1,2.83.58,5.69,5.69,0,0,1,2.15,1.54L52.53,20a4.65,4.65,0,0,0-3.77-1.64,5.31,5.31,0,0,0-5.34,5.5,5.31,5.31,0,0,0,5.34,5.5,5.22,5.22,0,0,0,3.84-1.54A4.36,4.36,0,0,0,53.76,25h-5V23.38h6.67A6.3,6.3,0,0,1,55.53,24.42Z" transform="translate(-8.62 -8.05)"/>
  <path d="M57.62,22.45a4.95,4.95,0,0,1,7,0A5,5,0,0,1,65.94,26a5,5,0,0,1-1.36,3.58,4.92,4.92,0,0,1-7,0A5,5,0,0,1,56.26,26,5,5,0,0,1,57.62,22.45Zm1.32,6.05a3,3,0,0,0,4.32,0A3.36,3.36,0,0,0,64.17,26a3.38,3.38,0,0,0-.91-2.47,2.93,2.93,0,0,0-2.16-.93,2.9,2.9,0,0,0-2.16.93A3.38,3.38,0,0,0,58,26,3.37,3.37,0,0,0,58.94,28.5Z" transform="translate(-8.62 -8.05)"/>
  <path d="M67.9,22.45a4.95,4.95,0,0,1,7,0A5,5,0,0,1,76.23,26a5,5,0,0,1-1.37,3.58,4.93,4.93,0,0,1-7,0A5,5,0,0,1,66.54,26,5,5,0,0,1,67.9,22.45Zm1.32,6.05a3,3,0,0,0,4.32,0A3.37,3.37,0,0,0,74.46,26a3.38,3.38,0,0,0-.92-2.47,3,3,0,0,0-4.32,0A3.38,3.38,0,0,0,68.31,26,3.36,3.36,0,0,0,69.22,28.5Z" transform="translate(-8.62 -8.05)"/>
  <path d="M81.45,35.2a4.28,4.28,0,0,1-2.73-.84,4.79,4.79,0,0,1-1.51-1.91l1.61-.67a2.69,2.69,0,0,0,1,1.29,2.77,2.77,0,0,0,1.64.51,3,3,0,0,0,2.3-.87,3.27,3.27,0,0,0,.84-2.37v-.91h-.08a3.54,3.54,0,0,1-1.31,1.16,3.87,3.87,0,0,1-1.9.46,4.13,4.13,0,0,1-3.15-1.44A5.06,5.06,0,0,1,76.82,26a5,5,0,0,1,1.33-3.57A4.13,4.13,0,0,1,81.3,21a3.87,3.87,0,0,1,1.9.46,3.69,3.69,0,0,1,1.31,1.15h.08V21.32h1.69v8.94a4.67,4.67,0,0,1-1.41,3.68A4.92,4.92,0,0,1,81.45,35.2Zm.14-5.77a2.79,2.79,0,0,0,2.12-.92A3.46,3.46,0,0,0,84.58,26a3.47,3.47,0,0,0-.87-2.48,2.89,2.89,0,0,0-4.24,0A3.44,3.44,0,0,0,78.59,26a3.43,3.43,0,0,0,.88,2.47A2.83,2.83,0,0,0,81.59,29.43Z" transform="translate(-8.62 -8.05)"/>
  <path d="M89.72,30.74H88V17h1.77Z" transform="translate(-8.62 -8.05)"/>
  <path d="M95.56,31.05a4.55,4.55,0,0,1-3.47-1.43A5,5,0,0,1,90.75,26a5.23,5.23,0,0,1,1.3-3.54A4.24,4.24,0,0,1,95.37,21a4.35,4.35,0,0,1,3.35,1.37A5.17,5.17,0,0,1,100,26l0,.33H92.52a3.2,3.2,0,0,0,1,2.25,2.9,2.9,0,0,0,2,.82,2.55,2.55,0,0,0,2.58-1.61l1.57.65a4.2,4.2,0,0,1-1.52,1.84A4.42,4.42,0,0,1,95.56,31.05ZM98.1,24.9a2.55,2.55,0,0,0-.74-1.54,2.65,2.65,0,0,0-2-.73,2.54,2.54,0,0,0-1.7.62,3.15,3.15,0,0,0-1,1.65Z" transform="translate(-8.62 -8.05)"/>
  <path d="M106.94,30.74h-1.77V17h4.69a4.4,4.4,0,0,1,3,1.16,4,4,0,0,1,0,5.86,4.36,4.36,0,0,1-3,1.17h-2.92Zm0-7.26h3a2.26,2.26,0,0,0,1.78-.75,2.35,2.35,0,0,0,0-3.31,2.26,2.26,0,0,0-1.78-.75h-3Z" transform="translate(-8.62 -8.05)"/>
  <path d="M117.08,30.74h-1.76V17h1.76Z" transform="translate(-8.62 -8.05)"/>
  <path d="M121.64,31.05a3.7,3.7,0,0,1-2.51-.87,3.07,3.07,0,0,1,.18-4.7,4.87,4.87,0,0,1,2.94-.87,5,5,0,0,1,2.56.58v-.27a2.14,2.14,0,0,0-.71-1.67,2.6,2.6,0,0,0-1.75-.62A2.72,2.72,0,0,0,121,23a1.9,1.9,0,0,0-.86,1l-1.61-.69a3.59,3.59,0,0,1,1.28-1.56,4.07,4.07,0,0,1,2.54-.73,4.38,4.38,0,0,1,3,1.06,3.8,3.8,0,0,1,1.19,3v5.69h-1.69V29.43h-.08A3.45,3.45,0,0,1,121.64,31.05Zm.29-1.62a2.9,2.9,0,0,0,2-.81,2.56,2.56,0,0,0,.89-1.93,3.49,3.49,0,0,0-2.25-.62,2.93,2.93,0,0,0-1.94.56,1.64,1.64,0,0,0-.65,1.3,1.27,1.27,0,0,0,.59,1.1A2.4,2.4,0,0,0,121.93,29.43Z" transform="translate(-8.62 -8.05)"/>
  <path d="M130.35,34.89h-1.83l2.19-4.75-3.88-8.82h1.92l2.81,6.77h0l2.73-6.77h1.92Z" transform="translate(-8.62 -8.05)"/>
  <path d="M8.63,23.63V10.44A2,2,0,0,1,9.11,9c.15-.16.26-.2.44,0q4.44,4.53,8.89,9Q21.32,21,24.2,23.87c.19.19.21.29,0,.48q-7.08,7-14.12,14.08a.49.49,0,0,1-.77,0A1.8,1.8,0,0,1,8.63,37c0-2.61,0-5.21,0-7.81V23.62Z" transform="translate(-8.62 -8.05)"/>
  <path d="M10.32,8.5a1.64,1.64,0,0,1,.86.24L29.24,18.85c.28.16.27.24.06.45q-2,2-4,4c-.15.14-.23.23-.43,0Q17.67,16,10.47,8.69S10.4,8.6,10.32,8.5Z" transform="translate(-8.62 -8.05)"/>
  <path d="M11.67,38.32q6.55-6.62,13.1-13.25c.27-.28.39-.24.64,0,1.1,1.15,2.23,2.29,3.36,3.42.2.2.21.29-.06.43L11.89,38.16A1.83,1.83,0,0,0,11.67,38.32Z" transform="translate(-8.62 -8.05)"/>
  <path d="M36.63,23.75a1.37,1.37,0,0,1-.61,1.1,7.11,7.11,0,0,1-.83.51L30.1,28.17a.39.39,0,0,1-.56-.07c-1.2-1.25-2.42-2.48-3.64-3.71-.18-.18-.18-.28,0-.45,1.43-1.41,2.84-2.82,4.25-4.23a.33.33,0,0,1,.49-.07l5,2.82A1.57,1.57,0,0,1,36.63,23.75Z" transform="translate(-8.62 -8.05)"/>
</svg>
