<svg id="Layer_1" data-name="Layer 1" xmlns="http://www.w3.org/2000/svg" viewBox="0 0 26 20.97">
  <title>twitter</title>
  <path d="M26,5a10.91,10.91,0,0,1-3.06.83A5.29,5.29,0,0,0,25.28,2.9a10.69,10.69,0,0,1-3.39,1.29,5.34,5.34,0,0,0-9.22,3.62A5.41,5.41,0,0,0,12.8,9a15.18,15.18,0,0,1-11-5.53,5.22,5.22,0,0,0-.72,2.66,5.28,5.28,0,0,0,2.37,4.4,5.29,5.29,0,0,1-2.41-.66A.17.17,0,0,0,1,10a5.31,5.31,0,0,0,4.28,5.19,5.37,5.37,0,0,1-1.4.18,5.58,5.58,0,0,1-1-.09,5.33,5.33,0,0,0,5,3.67,10.78,10.78,0,0,1-6.63,2.27A10.69,10.69,0,0,1,0,21.1a15.1,15.1,0,0,0,8.18,2.38A15,15,0,0,0,23.35,8.42c0-.23,0-.45,0-.68A11,11,0,0,0,26,5Z" transform="translate(0 -2.52)"/>
</svg>
