<svg width="16" height="14" viewBox="0 0 16 14" fill="none" xmlns="http://www.w3.org/2000/svg">
<path d="M7.70715 1.70717C8.09768 1.31664 8.09768 0.683479 7.70715 0.292954C7.31663 -0.09757 6.68346 -0.09757 6.29294 0.292954L0.84227 5.74362C0.758008 5.82781 0.657374 5.92837 0.575996 6.02423C0.481702 6.1353 0.356156 6.3039 0.280568 6.53654C0.182682 6.8378 0.182682 7.16232 0.280568 7.46359C0.356156 7.69622 0.481702 7.86482 0.575996 7.97589C0.657374 8.07175 0.758008 8.17231 0.84227 8.25651L6.29294 13.7072C6.68346 14.0977 7.31663 14.0977 7.70715 13.7072C8.09768 13.3166 8.09768 12.6835 7.70715 12.293L3.41426 8.00006L15 8.00006C15.5523 8.00006 16 7.55235 16 7.00006C16 6.44778 15.5523 6.00006 15 6.00006L3.41426 6.00006L7.70715 1.70717Z" fill="#191919"/>
</svg>
