<svg width="110" height="28" viewBox="0 0 110 28" fill="none" xmlns="http://www.w3.org/2000/svg">
<path d="M18.5993 23.5426C17.6723 24.924 16.4173 26.0541 14.9466 26.8317C13.4758 27.6093 11.8353 28.0101 10.1717 27.9983C4.41822 27.9983 0 23.4976 0 17.7516C0 12.0057 4.41447 7.50497 10.1717 7.50497C11.7232 7.46941 13.2596 7.81662 14.6451 8.51591C16.0306 9.21519 17.2225 10.245 18.1154 11.5144L15.0324 13.8547C14.4946 13.0635 13.7657 12.4208 12.9134 11.9861C12.0611 11.5515 11.1129 11.3389 10.1566 11.3681C6.70234 11.3681 4.53074 14.3011 4.53074 17.7441C4.53074 21.1872 6.72109 24.1202 10.1566 24.1202C12.3845 24.1202 14.2036 23.0437 15.6138 21.0372L18.5993 23.5426Z" fill="#F86932"/>
<path d="M40.0452 7.95129V27.5557H35.7358V25.1778C35.0255 26.0786 34.1158 26.8021 33.0784 27.2915C32.041 27.781 30.9041 28.0229 29.7573 27.9983C24.484 27.9983 20.0657 23.4976 20.0657 17.7516C20.0657 12.0057 24.484 7.50497 29.7573 7.50497C30.9041 7.48065 32.0409 7.72272 33.0782 8.21212C34.1156 8.70152 35.0253 9.42492 35.7358 10.3254V7.95129H40.0452ZM35.7358 17.7516C35.7358 14.2973 33.6954 11.3756 30.2411 11.3756C26.8656 11.3756 24.6152 14.3086 24.6152 17.7516C24.6152 21.1947 26.8656 24.1277 30.2411 24.1277C33.6954 24.1277 35.7358 21.1947 35.7358 17.7516Z" fill="#F86932"/>
<path d="M55.1189 27.552H50.2919L42.6069 7.95128H47.4715L52.7035 22.2824L57.9394 7.95128H62.8039L55.1189 27.552Z" fill="#F86932"/>
<path d="M65.0318 2.75295C65.0311 2.20905 65.1917 1.67715 65.4933 1.22456C65.7949 0.77196 66.224 0.419005 66.7263 0.21035C67.2286 0.00169418 67.7815 -0.0532847 68.315 0.0523697C68.8486 0.158024 69.3388 0.419564 69.7236 0.803896C70.1085 1.18823 70.3707 1.67808 70.4771 2.21147C70.5835 2.74487 70.5293 3.29783 70.3213 3.8004C70.1133 4.30297 69.7609 4.73256 69.3088 5.03481C68.8566 5.33706 68.3249 5.49839 67.781 5.49839C67.42 5.49938 67.0624 5.42907 66.7286 5.2915C66.3949 5.15392 66.0916 4.95179 65.8361 4.6967C65.5807 4.44162 65.3782 4.1386 65.2401 3.80504C65.1021 3.47148 65.0313 3.11394 65.0318 2.75295ZM65.5531 7.95129H70.0089V27.5557H65.5494L65.5531 7.95129Z" fill="#F86932"/>
<path d="M93.2626 7.95129V27.5557H88.9419V25.1778C88.2317 26.0786 87.322 26.8021 86.2846 27.2915C85.2472 27.781 84.1103 28.0229 82.9635 27.9983C77.6901 27.9983 73.2719 23.4976 73.2719 17.7516C73.2719 12.0057 77.6901 7.50497 82.9635 7.50497C84.1102 7.48065 85.247 7.72272 86.2844 8.21212C87.3218 8.70152 88.2315 9.42492 88.9419 10.3254V7.95129H93.2626ZM88.9419 17.7516C88.9419 14.2973 86.9016 11.3756 83.4473 11.3756C80.0717 11.3756 77.8214 14.3086 77.8214 17.7516C77.8214 21.1947 80.0717 24.1277 83.4473 24.1277C86.9016 24.1277 88.9419 21.1947 88.9419 17.7516Z" fill="#F86932"/>
<path d="M109.015 12.4783C108.308 12.112 107.52 11.9277 106.724 11.9419C104.049 11.9419 101.934 14.0198 101.934 18.3667V27.537H97.4821V7.94754H101.938V10.5467C102.512 9.64699 103.302 8.90436 104.235 8.38579C105.168 7.86722 106.215 7.589 107.282 7.57623C108.182 7.5557 109.069 7.78693 109.844 8.24384L109.015 12.4783Z" fill="#F86932"/>
</svg>
