<svg width="256" height="181" viewBox="0 0 256 181" fill="none" xmlns="http://www.w3.org/2000/svg">
<rect width="256" height="180.502" fill="white"/>
<path d="M112.697 31.4121C114.998 34.8465 121.524 46.4892 107.992 56.1742C99.8524 62.0127 102.806 72.4533 92.8806 72.2473C82.9551 72.0412 79.5894 69.5684 74.4378 74.617C69.2861 79.6656 60.7345 81.108 55.2738 79.8373C49.813 78.5666 43.5624 77.1585 39.4411 71.0452C35.3198 64.932 32.0228 52.2246 34.9764 41.5093C37.93 30.7939 48.3362 23.3756 49.1605 17.3654C49.9848 11.3551 50.7403 6.78738 59.3607 6.27222C64.7184 5.96312 76.9792 22.0705 93.0523 20.1129C102.05 19.0482 109.572 26.7413 112.697 31.4121Z" fill="#E1EEF0"/>
<path d="M54.9303 41.1646C54.9303 41.1646 54.5869 47.587 54.5182 52.6699C54.4838 57.7528 52.904 62.9044 52.3202 64.4156C51.7363 65.9267 40.0936 83.717 39.7159 85.022" stroke="#B3BDB7" stroke-width="0.65" stroke-miterlimit="10"/>
<path d="M61.971 19.4599C61.971 19.4599 67.2257 28.9389 68.3247 33.5753C69.4237 38.2118 55.8921 60.2264 55.8921 60.2264" stroke="#B3BDB7" stroke-width="0.65" stroke-miterlimit="10"/>
<path d="M78.2157 36.7004C78.1814 37.1812 78.4218 40.9934 78.4218 40.9934C78.4218 40.9934 79.3834 54.525 78.9369 55.4523C78.4905 56.3796 56.1325 72.9678 55.3769 73.8607C54.6213 74.7194 52.4576 76.2305 51.9081 75.8184C51.1182 75.2002 53.9688 70.9758 55.8577 67.9192C57.4032 65.3777 69.9044 38.5893 71.5873 34.5711C72.4459 32.4761 73.6136 29.2134 73.957 27.4619" stroke="#B3BDB7" stroke-width="0.65" stroke-miterlimit="10"/>
<path d="M80.4481 54.7308C80.1733 54.7308 79.7612 45.4236 80.242 44.8741C80.7228 44.3246 83.333 42.9508 83.333 42.9508" stroke="#B3BDB7" stroke-width="0.65" stroke-miterlimit="10"/>
<path d="M70.2134 65.3781C70.7629 64.0387 74.5064 61.2568 75.3993 60.5012C77.4943 58.7497 86.9733 51.6061 87.3511 51.194" stroke="#B3BDB7" stroke-width="0.65" stroke-miterlimit="10"/>
<path d="M42.017 95.1545C42.017 95.1545 54.5526 80.2835 56.9911 77.4329C59.4295 74.5824 66.264 68.2974 67.26 67.9539C69.458 67.164 80.139 68.9843 80.139 68.9843C80.139 68.9843 85.9432 69.9116 86.7331 69.9802" stroke="#B3BDB7" stroke-width="0.65" stroke-miterlimit="10"/>
<path d="M94.5291 19.9751C94.5291 19.9751 97.1735 6.1688 104.935 3.76471C112.697 1.36062 120.15 14.5144 120.15 14.5144C120.15 14.5144 124.237 2.32226 134.403 5.75667" stroke="#E6E5D8" stroke-width="0.65" stroke-miterlimit="10"/>
<path d="M212.158 43.776L126.504 43.3982V36.289L129.354 16.6785L203.537 16.9876" stroke="#C7C6B7" stroke-width="0.65" stroke-miterlimit="10"/>
<path d="M207.315 36.2896C205.804 36.2896 135.879 36.2896 135.879 36.2896" stroke="#C7C6B7" stroke-width="0.65" stroke-miterlimit="10"/>
<path d="M215.146 126.477L130.247 126.099V43.7766" stroke="#C7C6B7" stroke-width="0.65" stroke-miterlimit="10"/>
<path d="M173.658 112.637H137.322C137.322 112.637 136.189 49.0314 136.566 47.9324L173.212 48.3102L173.658 112.637Z" stroke="#C7C6B7" stroke-width="0.65" stroke-miterlimit="10"/>
<path d="M176.234 126.854L176.989 48.6527L211.78 49.0305L211.711 122.458" stroke="#C7C6B7" stroke-width="0.65" stroke-miterlimit="10"/>
<path d="M207.968 53.4946L208.483 109.201H179.394L179.84 53.4946H207.968Z" fill="#D0E1E1"/>
<path d="M202.404 82.8258L186.64 75.0641" stroke="white" stroke-width="0.65" stroke-miterlimit="10"/>
<path d="M204.327 88.9035L184.202 78.2225" stroke="white" stroke-width="0.65" stroke-miterlimit="10"/>
<path opacity="0.3" d="M129.766 43.6391C129.766 43.6391 127.053 59.9869 135.708 64.7607C145.908 70.3588 167.922 45.2189 173.383 50.8857C178.844 56.5525 194.677 66.8214 204.052 62.1506C213.428 57.4798 212.845 43.6391 212.845 43.6391H129.766Z" fill="#D0E1E1"/>
<path d="M172.422 141.863L38.5483 142.309" stroke="#E6E5D8" stroke-width="0.65" stroke-miterlimit="10"/>
<path d="M117.128 176.138L48.611 177.031" stroke="#E6E5D8" stroke-width="0.65" stroke-miterlimit="10"/>
<path d="M215.18 176.242C215.18 176.242 225.174 167.278 220.984 161.68C216.794 156.082 202.232 163.809 200.996 167.003C199.794 170.094 201.786 171.193 203.4 168.137C204.396 166.179 205.804 160.306 203.984 159.722C202.198 159.173 198.97 164.496 194.986 168.411C191.002 172.327 183.584 175.795 178.569 175.211" stroke="#C7C6B7" stroke-width="0.65" stroke-miterlimit="10"/>
<path d="M207.796 174.833C207.796 174.833 218.511 148.8 210.2 147.117C208.345 146.739 203.743 154.02 206.525 153.746C208.38 153.574 210.234 148.628 210.131 144.335C209.925 137.26 203.915 137.844 201.545 139.596C194.024 145.091 193.921 152.303 187.155 161.851C179.634 172.463 175.512 177.958 162.153 176.241" stroke="#C7C6B7" stroke-width="0.65" stroke-miterlimit="10"/>
<path d="M104.763 95.772C104.763 95.772 102.256 99.7216 101.672 100.168C101.089 100.615 94.7693 101.336 94.0481 101.061C93.3269 100.752 91.8501 100.168 92.2966 99.0004C92.743 97.8327 94.632 95.1882 95.3875 95.0508C96.1087 94.9134 104.763 95.772 104.763 95.772Z" fill="#72574C"/>
<path d="M133.2 155.084C138.037 155.084 141.958 151.24 141.958 146.498C141.958 141.756 138.037 137.912 133.2 137.912C128.364 137.912 124.443 141.756 124.443 146.498C124.443 151.24 128.364 155.084 133.2 155.084Z" stroke="#C7C6B7" stroke-width="3" stroke-miterlimit="10"/>
<path d="M120.528 52.2934C118.055 50.4732 112.835 46.661 112.319 46.7297C111.633 46.8327 110.327 46.3175 110.568 47.5539C110.808 48.7903 111.495 53.8045 111.495 53.8045C111.495 53.8045 114.483 58.4067 116.132 61.2229C116.647 62.1158 118.227 59.0248 119.532 57.1703C119.635 57.0329 118.639 56.0026 118.948 54.9379C119.326 53.8045 120.94 52.6025 120.528 52.2934Z" fill="#755A4F"/>
<path d="M102.806 40.9598C102.806 40.9598 102.153 50.954 102.497 51.2974C102.84 51.6409 103.733 51.6409 103.733 51.6409C103.733 51.6409 104.248 53.0146 104.695 54.1136C105.279 55.5561 106.172 56.5864 107.305 56.5521C108.851 56.5177 111.255 53.8732 112.869 52.2247C113.899 51.1944 112.937 44.4973 112.594 43.4326C112.285 42.3679 102.806 40.9598 102.806 40.9598Z" fill="#80685A"/>
<path d="M115.994 44.4968C116.303 43.02 114.758 39.9634 112.113 41.3372" stroke="#3C5749" stroke-width="0.65" stroke-miterlimit="10"/>
<path d="M98.6849 111.811C103.905 119.916 134.059 152.714 134.059 152.714" stroke="#2B362D" stroke-width="0.65" stroke-miterlimit="10"/>
<path d="M143.504 109.373L169.914 146.43L130.075 147.495" stroke="#2B362D" stroke-width="0.65" stroke-miterlimit="10"/>
<path d="M98.9252 111.296L145.427 111.776" stroke="#2B362D" stroke-width="0.65" stroke-miterlimit="10"/>
<path d="M102.291 100.065L97.0706 100.306" stroke="#2B362D" stroke-width="4" stroke-miterlimit="10" stroke-linecap="round" stroke-linejoin="round"/>
<path d="M80.1732 148.834C80.1732 148.834 89.9612 130.7 93.327 124.415C95.9371 119.538 100.333 105.629 101.982 100.512" stroke="#2B362D" stroke-width="0.65" stroke-miterlimit="10"/>
<path d="M171.838 118.578C164.316 118.097 148.69 121.051 143.263 136.025C138.421 149.35 141.821 161.474 153.189 170.918C159.989 176.551 178.157 181.084 190.727 166.557C203.297 152.029 197.596 134.239 191.929 128.263C182.519 118.337 171.838 118.578 171.838 118.578Z" stroke="#2B362D" stroke-width="5" stroke-miterlimit="10"/>
<path d="M166.205 121.669C158.031 123.111 146.182 128.194 144.568 142.378C143.023 155.876 148.861 166.282 159.405 171.021C166.617 174.25 183.583 175.349 191.826 160.203C200.068 145.057 191.688 130.53 185.61 126.374C175.444 119.437 166.205 121.669 166.205 121.669Z" stroke="#2B362D" stroke-width="0.65" stroke-miterlimit="10"/>
<path d="M169.056 142.652C168.163 142.893 166.274 143.545 166.068 145.503C165.862 147.357 166.652 148.8 168.128 149.452C169.124 149.899 171.46 150.071 172.627 147.941C173.761 145.846 172.593 143.82 171.769 143.27C170.361 142.343 169.056 142.652 169.056 142.652Z" stroke="#2B362D" stroke-width="0.65" stroke-miterlimit="10"/>
<path d="M79.4862 144.953C78.5933 145.194 76.7043 145.846 76.4983 147.804C76.2922 149.659 77.0821 151.101 78.5589 151.754C79.5549 152.2 81.8903 152.372 83.058 150.242C84.1914 148.147 83.0237 146.121 82.1994 145.572C80.7569 144.644 79.4862 144.953 79.4862 144.953Z" stroke="#2B362D" stroke-width="0.65" stroke-miterlimit="10"/>
<path d="M77.1165 121.703C71.5528 122.424 57.609 128.125 56.2696 142.309C55.0676 155.188 58.9828 165.114 70.7972 170.883C77.4943 174.18 95.2845 175.52 103.561 160.443C111.838 145.366 104.489 132.349 98.2038 127.266C91.2663 121.703 82.6802 120.981 77.1165 121.703Z" stroke="#2B362D" stroke-width="0.65" stroke-miterlimit="10"/>
<path d="M83.6421 118.577C74.9187 118.336 60.8719 120.74 55.0678 136.023C49.9161 149.555 53.6253 161.953 64.5124 170.677C71.4156 176.172 89.9614 181.083 102.566 166.555C115.17 152.028 109.434 134.237 103.768 128.262C94.3231 118.336 83.6421 118.577 83.6421 118.577Z" stroke="#2B362D" stroke-width="5" stroke-miterlimit="10"/>
<path d="M142.885 89.0074L130.178 99.551L137.768 111.331L134.677 126.683C134.677 126.683 120.94 110.507 117.436 106.076C113.865 101.577 111.255 100.272 113.796 95.1893C115.719 91.3428 135.982 77.3647 135.982 77.3647L141.821 82.3103L142.885 89.0074Z" fill="#163338"/>
<path d="M125.473 71.8004C125.473 71.8004 117.814 81.2794 116.784 82.3097C115.616 83.4774 109.469 81.0047 109.778 80.2147C110.087 79.3905 115.582 68.7438 117.196 68.0913C118.879 67.4387 125.473 71.8004 125.473 71.8004Z" fill="#9DC8CF"/>
<path d="M98.0322 96.5289C98.0322 96.5289 101.432 99.5855 102.566 99.1047C103.699 98.6239 116.544 82.963 117.574 81.2801C118.02 80.5246 110.018 80.6963 109.847 80.2155C109.64 79.7346 98.0322 96.5289 98.0322 96.5289Z" fill="#9DC8CF"/>
<path d="M104.832 39.6879C101.535 39.5849 100.436 43.3627 103.424 43.2597C104.729 43.191 106.481 43.3284 106.378 44.8739C106.275 46.3163 106.481 49.2699 109.022 47.6214C109.915 47.0375 111.22 46.0415 112.491 47.4153C113.762 48.8234 112.766 51.3305 113.556 51.3992C114.346 51.5023 117.986 51.88 118.467 50.575C118.948 49.2699 117.608 48.8921 118.845 48.2396C120.115 47.587 121.489 47.7244 121.111 46.5911C120.528 44.8052 117.128 46.1446 117.711 44.8395C118.295 43.5344 118.948 42.0576 117.849 41.0273C116.784 39.997 116.475 39.9626 115.685 39.7566C114.93 39.6192 104.832 39.6879 104.832 39.6879Z" fill="#28362C"/>
<path d="M118.398 45.4238C118.398 45.4238 120.424 44.1187 122.107 46.1794" stroke="#28362C" stroke-width="0.65" stroke-miterlimit="10"/>
<path d="M112.766 49.7167C112.766 49.7167 115.41 46.6258 114.964 45.0803C114.517 43.5348 112.422 42.7792 111.873 43.1913C111.323 43.6378 109.091 47.4157 108.679 48.1369C108.541 48.4803 112.766 49.7167 112.766 49.7167Z" fill="#80685A"/>
<path d="M107.477 44.7716C107.477 44.7716 106.824 43.1231 106.034 43.2261C105.279 43.3291 104.764 45.218 101.776 45.1494C98.6162 45.0807 97.8949 43.02 98.994 41.5776C100.093 40.1351 102.188 41.0281 103.287 41.3715C104.386 41.7149 107.374 42.1271 107.786 42.2645C108.267 42.3331 107.477 44.7716 107.477 44.7716Z" fill="#28362C"/>
<path d="M115.857 46.936L111.495 50.7826L111.461 54.4231" stroke="white" stroke-width="0.65" stroke-miterlimit="10"/>
<path d="M109.915 45.4579C109.915 45.4579 110.293 48.9953 111.495 50.7812" stroke="white" stroke-width="0.65" stroke-miterlimit="10"/>
<path d="M102.291 40.547C102.291 40.547 101.261 39.242 99.5091 39.3793" stroke="#28362C" stroke-width="0.65" stroke-miterlimit="10"/>
<path d="M136.326 140.317C136.326 140.317 133.235 148.113 134.128 153.986C134.78 158.245 123.893 160.855 125.748 156.219C127.603 151.582 128.53 141.279 129.285 140.249C130.041 139.218 136.326 140.317 136.326 140.317Z" fill="#FCF79B"/>
<path d="M154.185 74.4785C154.185 74.4785 158.272 75.7835 158.478 76.127C159.714 77.9472 161.74 81.8281 161.328 86.1554C161.019 89.2464 160.401 92.4404 156.692 100.03C149.102 115.554 139.829 136.057 137.7 140.179C137.562 140.488 136.051 141.621 136.051 141.621C136.051 141.621 135.021 144.643 134.815 145.262L128.186 144.54L128.804 140.797L128.255 139.148C128.255 139.148 140.104 94.7758 142.508 89.3838C142.714 88.9373 142.508 88.0787 142.164 87.1514C141.58 85.5373 140.619 83.7514 140.619 83.7514L154.185 74.4785Z" fill="#315960"/>
<path d="M136.12 141.656L135.296 144.025L128.461 143.201L128.736 140.763L136.12 141.656Z" fill="#2B362D"/>
<path d="M91.5409 100.099C89.3429 100.374 88.1065 100.992 87.0419 102.332C85.256 104.667 86.0802 107.896 87.7631 109.613C89.446 111.296 93.3268 111.296 94.2885 111.296" stroke="#2B362D" stroke-width="4" stroke-miterlimit="10" stroke-linecap="round" stroke-linejoin="round"/>
<path d="M141.478 87.4621L134.849 77.6397C134.849 77.6397 114.174 70.3587 114.002 69.2254C113.831 68.092 122.245 50.6452 122.245 50.6452C122.245 50.6452 131.449 48.5502 140.344 54.3544C149.239 60.1585 158.444 75.9911 158.444 75.9911L141.478 87.4621Z" fill="#BAD8DD"/>
<path d="M135.364 163.121L135.639 165.182L121.249 167.964L121.043 165.559L135.364 163.121Z" fill="#C7C6B7"/>
<path d="M153.841 92.9905L134.368 140.214" stroke="#528C8F" stroke-width="0.65" stroke-miterlimit="10"/>
<path d="M125.233 153.712C125.679 152.854 126.297 151.72 126.71 151.961C127.122 152.201 128.083 153.506 128.255 154.09C128.427 154.674 127.053 154.365 126.469 154.227C125.885 154.09 125.233 153.712 125.233 153.712Z" fill="#3C5749"/>
<path d="M112.628 164.015C112.628 164.015 112.629 162.916 113.418 162.504C114.208 162.057 117.917 160.031 121.352 156.94C123.035 155.463 124.821 153.78 125.336 153.334C125.817 152.887 128.118 154.295 128.358 154.501C128.633 154.707 129.938 154.81 130.762 154.673C131.586 154.536 131.896 154.364 132.239 153.883C132.548 153.402 132.033 151.857 132.823 151.72C133.613 151.582 134.3 151.685 134.506 151.96C134.712 152.235 135.776 154.501 136.017 155.497C136.292 156.459 136.944 158.451 136.944 158.588C136.978 158.691 134.574 159.79 129.526 160.924C124.992 161.954 117.025 163.706 115.548 163.946C113.59 164.221 112.628 164.015 112.628 164.015Z" fill="#28362C"/>
<path d="M112.319 164.976C112.319 165.698 112.491 166.35 113.178 166.522C113.624 166.625 118.02 166.282 121.352 165.698C124.683 165.114 134.231 163.465 135.227 163.259C136.429 162.984 137.734 162.71 137.974 162.229C138.352 161.439 136.944 158.623 136.944 158.623C136.944 158.623 129.835 160.718 125.645 161.576C121.455 162.435 115.754 163.98 114.311 164.049C112.903 164.118 112.594 164.049 112.594 164.049C112.594 164.049 112.354 164.29 112.319 164.976Z" stroke="#E6E5D8" stroke-width="0.65" stroke-miterlimit="10"/>
<path d="M123.721 154.399C123.721 154.399 123.927 155.086 124.649 155.429" stroke="#E6E5D8" stroke-width="0.65" stroke-miterlimit="10" stroke-linecap="round" stroke-linejoin="round"/>
<path d="M122.348 155.463C122.348 155.463 122.623 156.459 123.138 156.768" stroke="#E6E5D8" stroke-width="0.65" stroke-miterlimit="10" stroke-linecap="round" stroke-linejoin="round"/>
<path d="M121.077 156.563C121.077 156.563 121.249 157.491 121.798 158.074" stroke="#E6E5D8" stroke-width="0.65" stroke-miterlimit="10" stroke-linecap="round" stroke-linejoin="round"/>
<path d="M119.738 157.833C119.738 157.833 119.909 158.76 120.459 159.344" stroke="#E6E5D8" stroke-width="0.65" stroke-miterlimit="10" stroke-linecap="round" stroke-linejoin="round"/>
<path d="M118.536 159.241C118.536 159.241 118.501 159.79 119.051 160.34" stroke="#E6E5D8" stroke-width="0.65" stroke-miterlimit="10" stroke-linecap="round" stroke-linejoin="round"/>
<path d="M133.166 145.228L131.724 152.131" stroke="#F5E202" stroke-width="0.65" stroke-miterlimit="10"/>
<path d="M131.346 144.987L129.869 151.753" stroke="#F5E202" stroke-width="0.65" stroke-miterlimit="10"/>
<path d="M129.732 144.747L128.083 151.582" stroke="#F5E202" stroke-width="0.65" stroke-miterlimit="10"/>
<path d="M99.7838 97.4555C99.7838 97.4555 97.2767 101.405 96.6929 101.852C96.109 102.298 89.7897 103.019 89.0685 102.744C88.3472 102.435 86.8705 101.852 87.3169 100.684C87.7634 99.5161 89.6523 96.8716 90.4079 96.7342C91.1291 96.5969 99.7838 97.4555 99.7838 97.4555Z" fill="#80685A"/>
<path d="M113.212 80.6952C113.212 80.6952 106.584 89.8995 103.837 93.6086C102.463 95.4975 97.2768 101.164 97.2768 101.164C97.2768 101.164 94.1515 98.142 94.6323 97.1461C95.1131 96.1501 104.558 78.3942 105.279 76.9517C105.863 75.8527 113.212 80.6952 113.212 80.6952Z" fill="#BAD8DD"/>
<path d="M90.6824 110.059L90.0642 111.708C90.0642 111.708 87.5915 111.227 86.4238 109.681C84.7752 107.518 84.8783 105.732 85.2561 104.289L86.9389 104.633C86.9389 104.633 86.4238 106.694 87.6601 108.239C88.6905 109.51 90.6824 110.059 90.6824 110.059Z" fill="#E6E5D8"/>
<path d="M89.2056 109.441L88.3813 111.158" stroke="#C7C6B7" stroke-width="0.65" stroke-miterlimit="10"/>
<path d="M87.935 108.616L86.6986 110.059" stroke="#C7C6B7" stroke-width="0.65" stroke-miterlimit="10"/>
<path d="M87.1795 107.484L85.2905 107.965" stroke="#C7C6B7" stroke-width="0.65" stroke-miterlimit="10"/>
<path d="M86.9048 105.973H84.9128" stroke="#C7C6B7" stroke-width="0.65" stroke-miterlimit="10"/>
<path d="M137.768 111.331L134.677 126.682C134.677 126.682 133.75 125.618 132.342 123.935C133.613 119.298 135.021 114.147 136.429 109.27L137.768 111.331Z" fill="#528C8F"/>
<path d="M158.375 76.0589L142.13 87.0147C141.546 85.4349 140.653 83.752 140.653 83.752L154.185 74.5135C154.185 74.4791 157.688 75.6125 158.375 76.0589Z" fill="#A5CCD3"/>
<path d="M121.936 68.3654C121.936 68.3654 142.508 72.7614 143.504 73.0362C145.084 73.4483 145.873 76.6766 145.152 77.1918C144.431 77.707 125.782 72.4867 125.782 72.4867L119.772 70.426L121.936 68.3654Z" fill="#F86932"/>
<path d="M140.104 48.9957C140.104 48.9957 133.613 48.034 127.946 50.3007C126.504 50.8846 124.168 51.8462 121.421 55.0402C120.459 56.1736 119.497 56.9291 119.566 60.0545C119.635 63.4545 121.524 66.7172 121.558 66.7859C121.901 67.3354 120.562 71.3537 119.291 69.7052C118.227 68.297 116.784 64.3818 116.2 61.703C114.62 53.8382 120.493 49.7169 122.897 47.9997C126.229 45.5956 131.896 45.2521 135.399 46.7289C136.36 47.1067 140.104 48.9957 140.104 48.9957Z" fill="#F86932"/>
<path d="M142.027 28.1147C142.405 28.3208 172.937 58.8184 172.49 59.7113C171.803 61.0507 168.575 64.7599 164.66 68.5378C160.401 72.6591 155.593 76.4713 155.181 76.3682C154.356 76.1622 123.412 45.1494 123.412 45.1494L142.027 28.1147Z" fill="#F86932"/>
<path d="M159.268 53.2547C159.13 53.5982 149.48 62.9398 148.965 62.768C148.449 62.5963 136.326 49.4082 136.326 49.4082C136.326 49.4082 146.973 40.41 147.144 40.6504C147.316 40.8908 159.371 52.9113 159.268 53.2547Z" fill="#F86932"/>
<path d="M145.324 38.7275C145.702 39.1397 149.686 41.5781 148.656 43.261C147.625 44.9438 141.066 50.8167 140.138 51.2975C139.211 51.7783 138.73 52.2591 137.631 51.3662C136.566 50.4732 134.781 48.7904 134.781 48.7904L145.324 38.7275Z" fill="#F86932"/>
<path d="M141.168 26.81C141.615 26.9131 143.744 28.4929 144.259 30.2788C144.568 31.3434 144.053 32.3051 142.988 33.5071C140.138 36.7011 129.113 46.2831 127.568 48.0347C125.988 49.7862 122.897 47.8973 121.935 47.0387C120.974 46.1801 120.974 46.1801 120.974 46.1801C120.974 46.1801 140.447 26.6383 141.168 26.81Z" fill="#F86932"/>
<path d="M141.821 74.4448L151.472 71.0104L152.777 73.6549L142.611 76.162L141.821 74.4448Z" fill="#28362C"/>
<path d="M119.257 49.7506C119.257 49.7506 103.664 79.5613 103.664 80.5229C103.664 81.4846 110.774 83.2705 111.735 82.4462C112.697 81.6219 125.782 64.5186 126.606 60.6377C127.431 56.7568 125.954 52.3951 125.164 51.7426C124.34 51.1244 119.257 49.7506 119.257 49.7506Z" fill="#BAD8DD"/>
<path d="M122.279 50.6453C123.55 51.0575 124.786 51.5039 125.164 51.7787C125.988 52.4312 127.431 56.7929 126.607 60.6738C126.229 62.5284 123.069 67.3709 119.738 72.0074C116.509 70.7023 114.071 69.6033 114.002 69.2255C113.865 68.0921 122.245 50.6453 122.279 50.6453C122.245 50.6453 122.279 50.6453 122.279 50.6453Z" fill="#A5CCD3"/>
<path d="M111.838 78.1878C111.838 78.1878 113.075 80.9009 112.8 81.2787C112.251 81.9313 111.907 82.3777 111.77 82.4808C110.808 83.305 103.664 81.2444 103.664 80.2827C103.664 80.0767 104.317 79.0464 105.279 77.0887C105.313 77.0544 105.313 77.0201 105.347 76.9857C105.863 75.8524 111.838 78.1878 111.838 78.1878Z" fill="#A5CCD3"/>
<path d="M178.226 90.4498V100.066" stroke="#B9C3BD" stroke-width="3" stroke-miterlimit="10"/>
<path d="M106.79 46.8676L106.378 48.6192L102.703 49.8212L100.917 47.0737L106.79 46.8676Z" stroke="#FF3008" stroke-width="0.65" stroke-miterlimit="10" stroke-linecap="round" stroke-linejoin="round"/>
<path d="M110.053 46.4537L106.79 46.8658" stroke="#FF3008" stroke-width="0.65" stroke-miterlimit="10" stroke-linecap="round" stroke-linejoin="round"/>
<path d="M117.883 48.0351C117.814 48.2412 115.239 48.722 114.792 48.3099C114.311 47.8634 114.346 45.3563 112.903 45.1159C110.877 44.7724 110.74 46.9018 109.503 46.6614C108.267 46.4209 106.515 44.6007 106.515 44.6007C106.515 44.6007 101.638 44.1542 101.604 43.7765C101.57 43.3987 101.329 40.0673 103.665 37.5258C106.893 34.0571 111.461 34.2288 114.964 36.049C118.639 38.0066 119.909 41.7158 117.883 48.0351Z" fill="#E6E5D8"/>
<path d="M109.778 35.7056C109.778 35.7056 103.459 36.2207 102.738 42.4027" stroke="#C7C6B7" stroke-width="0.65" stroke-miterlimit="10"/>
<path d="M153.386 51.0709L151.803 51.0709C151.733 51.0709 151.667 51.0985 151.618 51.1476C151.569 51.1966 151.541 51.2631 151.541 51.3325C151.526 52.1892 151.179 53.0066 150.574 53.6133C149.969 54.2181 149.149 54.5578 148.294 54.5578C147.439 54.5578 146.618 54.2181 146.014 53.6133C145.409 53.0086 145.069 52.1883 145.069 51.3331C145.069 50.4778 145.409 49.6576 146.014 49.0528C146.556 48.5073 147.28 48.1805 148.048 48.1346C148.114 48.1305 148.177 48.1012 148.222 48.0527C148.268 48.0042 148.293 47.9402 148.294 47.8736L148.294 46.2934C148.294 46.2576 148.287 46.2221 148.273 46.1891C148.259 46.1562 148.239 46.1265 148.213 46.1019C148.187 46.0773 148.156 46.0584 148.122 46.0464C148.088 46.0344 148.053 46.0295 148.017 46.0321C146.706 46.103 145.477 46.6081 144.522 47.5627C143.907 48.1847 143.454 48.9486 143.204 49.787C142.953 50.6254 142.913 51.5126 143.086 52.3702C143.259 53.2279 143.641 54.0297 144.197 54.7051C144.754 55.3804 145.468 55.9084 146.277 56.2427C147.085 56.5769 147.964 56.707 148.835 56.6215C149.705 56.5361 150.542 56.2377 151.27 55.7527C151.998 55.2677 152.596 54.6109 153.011 53.8403C153.425 53.0697 153.644 52.209 153.647 51.334C153.647 51.2996 153.64 51.2655 153.627 51.2337C153.614 51.2019 153.595 51.1731 153.57 51.1488C153.546 51.1244 153.517 51.1051 153.485 51.092C153.454 51.0788 153.42 51.0721 153.385 51.0721L153.386 51.0709ZM147.242 52.3851C147.451 52.5932 147.716 52.7349 148.004 52.7923C148.293 52.8498 148.592 52.8203 148.864 52.7077C149.136 52.595 149.369 52.4043 149.532 52.1596C149.696 51.9148 149.783 51.6271 149.783 51.3328C149.783 51.0385 149.696 50.7507 149.532 50.506C149.369 50.2613 149.136 50.0705 148.864 49.9579C148.592 49.8453 148.293 49.8158 148.004 49.8732C147.716 49.9306 147.451 50.0724 147.242 50.2805C146.963 50.5596 146.807 50.9381 146.807 51.3328C146.807 51.7275 146.963 52.106 147.242 52.3851Z" fill="white"/>
</svg>
