<svg width="256" height="181" viewBox="0 0 256 181" fill="none" xmlns="http://www.w3.org/2000/svg">
<path d="M120.249 90.5997C121.261 124.414 92.5806 150.667 60.8018 150.453C27.5975 150.23 -0.352029 123.841 0.00347661 90.5997C0.342054 58.812 26.9204 30.4072 60.128 30.4072C93.3356 30.4072 119.254 57.3714 120.249 90.5997Z" fill="#FFFBFB"/>
<path d="M106.391 59.2895L105.748 58.4184L45.4066 95.321L50.5834 101.744L106.391 59.2895Z" fill="#FFC7C0"/>
<path d="M90.0751 117.28L90.9283 116.398L54.7514 79.4279L48.5588 85.1766L90.0751 117.28Z" fill="#FFD6D0"/>
<path d="M129.729 116.973L134.005 118.512L138.512 118.102C138.512 118.102 178.83 101.191 183.323 99.6148C190.25 97.1879 193.92 97.7573 197.868 100.655C207.185 107.492 212.972 119.003 219.577 123.962C222.537 126.186 222.445 129.135 221.941 130.942C222.019 131.019 222.096 131.101 222.168 131.179C226.376 135.65 229.613 138.005 231.952 138.877C232.037 137.724 232.084 136.863 232.338 136.738C233.09 136.361 241.575 138.165 244.879 139.67C248.184 141.175 248.285 144.564 248.031 145.832C247.964 146.168 238.304 146.022 231.438 145.879V145.907C231.438 145.907 220.553 145.981 220.404 145.757C220.255 145.53 220.329 144.256 220.553 144.029C220.597 143.985 221.033 143.968 221.71 143.964C221.612 142.727 220.569 140.948 219.354 139.517C218.819 138.887 217.834 137.89 217.045 137.094C216.957 137.006 216.869 136.917 216.781 136.829C216.097 137.446 215.558 137.894 215.376 137.938C214.272 138.212 209.176 138.416 207.72 135.382C206.265 132.348 188.428 119.827 184.43 113.468C179.273 118.02 169.366 132.524 151.876 141.205C143.475 145.374 139.785 143.195 134.012 140.188C128.239 137.182 123.655 128.467 123.655 128.467L129.729 116.973Z" fill="#FFD6D0"/>
<path d="M249.751 141.772C253.103 142.477 252.077 145.589 251.272 145.66C246.318 146.111 234.979 145.629 234.441 145.602C233.412 145.555 229.542 146.504 229.599 144.192C229.63 142.955 228.529 141.036 227.236 139.514C226.701 138.884 225.716 137.887 224.927 137.091C222.526 134.664 220.028 132.976 220.028 132.976L226.109 127.566C226.109 127.566 228.587 129.62 230.05 131.173C234.61 136.02 238.037 138.386 240.407 139.064C244.741 140.308 244.124 140.589 249.751 141.772Z" fill="#93494A"/>
<path d="M158.759 72.2246C159.297 72.1263 160.78 73.1568 161.088 73.8449C161.396 74.5296 162.537 76.7362 162.371 77.8785C162.205 79.0208 159.524 84.7017 159.49 86.5626C159.456 88.4235 159.561 96.1993 159.243 103.677C158.925 111.158 160.238 117.411 156.795 119.889C153.352 122.367 151.083 123.15 149.062 122.214C147.041 121.282 142.233 118.255 142.135 117.716C142.036 117.178 122.182 89.4133 122.182 89.4133C122.182 89.4133 148.046 108.504 149.167 108.788C150.071 109.015 150.721 103.873 152.597 97.6398C153.778 93.7113 155.183 89.3794 154.923 87.9422C154.662 86.505 153.328 85.261 153.606 83.7289C153.887 82.1968 158.759 72.2246 158.759 72.2246Z" fill="#93494A"/>
<path d="M163.892 65.8654L157.553 80.7661L155.373 79.634C155.373 79.634 161.711 64.7333 162.192 64.6452C162.669 64.5605 163.892 65.8654 163.892 65.8654Z" fill="#371933"/>
<path d="M119.21 76.62C111.03 70.3865 127.786 48.4829 130.806 48.8728C133.826 49.2626 137.181 53.0013 139.274 55.9096C141.559 59.0822 143.75 63.6345 141.468 68.946C139.714 73.0304 136.724 73.6948 139.853 78.2809L119.937 77.3488" fill="#240F22"/>
<path d="M125.839 70.3803C125.561 71.0616 125.043 72.6208 124.525 74.241C123.533 77.3357 124 80.7152 125.795 83.4201C125.795 83.4201 121.292 84.7962 120.043 84.359C119.484 84.1624 115.414 80.1017 114.29 78.2238C115.604 76.2206 117.314 74.2105 117.981 72.7157C119.335 69.6752 119.189 67.394 119.189 67.394L125.839 70.3803Z" fill="#883C3C"/>
<path d="M140.736 58.1771C140.736 58.1771 134.666 56.9568 130.301 54.113C126.878 51.8826 125.436 47.5236 126.154 46.4016C136.223 48.8387 140.736 58.1771 140.736 58.1771Z" fill="#371933"/>
<path d="M119.287 55.2588C121.59 52.442 126.327 52.5505 127.942 53.164C129.621 53.8012 131.392 52.8386 131.392 52.8386C131.541 53.73 132.157 57.5433 132.458 60.7465L132.573 61.6753C132.79 62.665 132.966 63.5192 133.227 64.5971C133.291 64.8649 133.372 65.1022 133.088 65.2954C132.759 65.5191 132.316 65.5259 132.001 65.492C131.263 68.4375 130.752 70.295 129.733 71.2441C127.664 73.1796 125.182 72.0712 122.643 70.4781C117.957 67.5393 113.491 62.3532 119.287 55.2588Z" fill="#93494A"/>
<path d="M131.815 51.4288C131.971 50.6357 131.466 49.1544 129.976 48.0392C126.34 45.3174 120.286 45.2903 115.956 48.0494C112.584 50.1984 110.549 55.6997 111.094 61.4451C111.568 66.4448 115.973 74.4578 116.535 74.7934C117.226 75.2069 121.996 68.8412 120.561 62.7467C120.486 62.4349 121.661 59.469 121.993 59.3605C122.714 59.1232 123.97 59.1334 125.822 58.0725C131.111 55.0422 131.686 52.0796 131.815 51.4288Z" fill="#371933"/>
<path d="M133.002 62.8751C133.557 60.9974 132.56 59.0469 130.776 58.5184C128.992 57.99 127.096 59.0838 126.541 60.9614C125.986 62.8391 126.983 64.7896 128.767 65.318C130.551 65.8465 132.447 64.7527 133.002 62.8751Z" stroke="white" stroke-width="0.7983" stroke-miterlimit="10"/>
<path d="M126.503 60.9363L121.156 58.6754" stroke="white" stroke-width="0.6903" stroke-miterlimit="10"/>
<path d="M122.863 60.3093C122.863 60.3093 121.952 58.1128 120.774 58.2348C119.596 58.3568 118.786 58.9466 118.685 59.6686C118.509 60.8957 119.487 62.2922 121.014 63.2243C122.541 64.1565 122.863 60.3093 122.863 60.3093Z" fill="#93494A"/>
<path d="M127.779 47.2492C129.492 50.1677 131.503 55.5775 140.019 57.1062" stroke="#FF9D90" stroke-width="0.5402" stroke-miterlimit="10"/>
<path d="M223.254 137.938C223.854 137.789 228.36 133.277 229.108 132.528C229.565 132.071 231.81 127.23 227.456 123.963C220.85 119.004 211.319 105.401 202.002 98.5646C198.051 95.6665 194.384 95.097 187.457 97.524C182.964 99.0967 143.821 114.858 143.821 114.858L135.021 117.173L133.318 118.878L126.851 134.274C126.851 134.274 131.124 140.979 136.893 143.982C142.666 146.988 151.351 145.378 159.751 141.209C177.242 132.528 187.148 118.024 192.305 113.472C196.307 119.831 214.14 132.352 215.596 135.386C217.052 138.419 222.154 138.216 223.254 137.938Z" fill="#FF9D90"/>
<path d="M124.925 82.1284C124.925 82.1284 130.237 86.9179 135.708 95.3953C139.321 100.992 147.308 113.523 147.308 113.523L142.764 116.329C139.626 118.465 136.572 120.827 135.918 125.092C135.265 129.356 135.752 132.4 132.468 136.664C130.498 139.219 126.387 139.219 126.387 139.219C126.387 139.219 105.985 118.373 106.073 99.1374C106.107 91.9548 107.583 86.5382 109.1 83.9554C110.908 80.8776 113.579 78.1625 115.248 76.9457C118.945 80.8166 124.925 82.1284 124.925 82.1284Z" fill="#EDB9B6"/>
<path d="M119.971 83.4366C119.46 83.2569 115.76 79.5623 114.734 77.8505C114.92 77.5692 115.113 77.2844 115.313 77.0031C118.841 80.6435 124.359 81.9926 124.881 82.1146L125.209 82.579C125.209 82.5824 121.109 83.8365 119.971 83.4366Z" fill="#DC9E9E"/>
<path d="M157.662 130.051C157.662 130.051 154.378 133.339 151.825 132.606C149.272 131.878 143.8 130.417 141.976 130.417C140.151 130.417 115.797 129.057 112.154 128.868C107.532 128.624 101.935 128.136 100.232 124.97C98.7866 122.282 99.501 118.394 101.326 111.703C102.101 108.862 108.985 88.3314 108.985 88.3314L119.694 93.548L111.669 118.746C111.669 118.746 143.069 124.573 144.528 124.939C145.988 125.305 157.662 130.051 157.662 130.051Z" fill="#93494A"/>
<path d="M143.536 136.416C143.536 136.416 147.674 127.891 147.186 121.071C153.267 120.339 164.46 128.379 163.729 131.545C162.998 134.711 158.864 139.097 156.673 139.582C154.483 140.067 143.536 136.416 143.536 136.416Z" fill="#FF9D90"/>
<path d="M121.156 107.92C121.156 107.92 104.614 100.368 104.857 100.127C105.101 99.883 106.317 89.8972 108.995 85.7551C110.471 83.4706 117.51 83.318 121.404 87.2161C123.845 89.6634 121.156 107.92 121.156 107.92Z" fill="#EDB9B6"/>
<path d="M121.4 87.2159C124.806 92.5749 121.156 107.92 121.156 107.92C121.156 107.92 104.614 100.368 104.857 100.127" stroke="white" stroke-width="0.5402" stroke-miterlimit="10"/>
<path d="M147.186 121.071C147.186 121.071 147.674 128.864 143.536 136.416" stroke="#EC7759" stroke-width="0.5402" stroke-miterlimit="10"/>
<path d="M162.189 64.6447L138.549 43.0089L125.209 82.5824L155.373 79.6335L162.189 64.6447Z" fill="url(#paint0_linear)"/>
<path d="M240.22 136.738C239.469 137.114 240.522 144.026 237.068 145.829C243.823 145.978 255.839 146.205 255.913 145.829C256.167 144.561 256.062 141.168 252.761 139.666C249.457 138.165 240.969 136.362 240.22 136.738Z" fill="#EDB9B6"/>
<path d="M228.435 144.025C228.661 143.798 239.32 144.252 239.32 144.252V145.907C239.32 145.907 228.435 145.981 228.286 145.757C228.133 145.527 228.211 144.252 228.435 144.025Z" fill="#EDB9B6"/>
<path d="M59.5929 91.376C60.4643 91.376 61.1707 90.6688 61.1707 89.7965C61.1707 88.9241 60.4643 88.2169 59.5929 88.2169C58.7216 88.2169 58.0152 88.9241 58.0152 89.7965C58.0152 90.6688 58.7216 91.376 59.5929 91.376Z" fill="#FFFBFB"/>
<defs>
<linearGradient id="paint0_linear" x1="159.132" y1="72.6487" x2="132.85" y2="63.1687" gradientUnits="userSpaceOnUse">
<stop stop-color="#F3D1CD"/>
<stop offset="1" stop-color="white" stop-opacity="0"/>
</linearGradient>
</defs>
</svg>
