<?xml version="1.0" encoding="utf-8"?>
<!-- Generator: Adobe Illustrator 19.2.1, SVG Export Plug-In . SVG Version: 6.00 Build 0)  -->
<svg version="1.1" id="Layer_1" xmlns="http://www.w3.org/2000/svg" xmlns:xlink="http://www.w3.org/1999/xlink" x="0px" y="0px"
	 viewBox="0 0 432 110.1" style="enable-background:new 0 0 432 110.1;" xml:space="preserve">
<style type="text/css">
	.st0{fill:#F86932;}
</style>
<title>Caviar_Logotype_NEW_rgb</title>
<path class="st0" d="M73.1,92.5C65.8,102.9,54.6,110,40,110C17.4,110,0,92.4,0,69.8s17.4-40.3,40-40.3c14.6,0,24.5,6.7,31.2,15.8
	l-12.1,9.2c-4.1-6.1-11-9.8-19.1-9.8c-13.6,0-22.2,11.5-22.2,25.1S26.4,94.9,40,94.9c8.8,0,15.9-4.2,21.5-12.1L73.1,92.5z"/>
<path class="st0" d="M140.6,69.8c0-13.6-8-25.1-21.6-25.1c-13.3,0-22.2,11.5-22.2,25.1s8.9,25.1,22.2,25.1
	C132.5,94.9,140.6,83.3,140.6,69.8 M157.5,31.2v77.1h-16.9V99c-5.7,7.2-14.4,11.3-23.6,11.1c-20.7,0-38.1-17.7-38.1-40.3
	S96.3,29.5,117,29.5c9.2-0.2,17.9,3.9,23.6,11.1v-9.3L157.5,31.2L157.5,31.2z"/>
<polygon class="st0" points="216.8,108.3 197.8,108.3 167.6,31.2 186.7,31.2 207.3,87.6 227.9,31.2 247,31.2 "/>
<path class="st0" d="M257.8,31.2h17.5v77.1h-17.5V31.2z M255.8,10.8c0-6,4.8-10.8,10.8-10.8c6,0,10.8,4.8,10.8,10.8
	c0,6-4.8,10.8-10.8,10.8c0,0,0,0,0,0C260.6,21.6,255.8,16.8,255.8,10.8C255.8,10.8,255.8,10.8,255.8,10.8"/>
<path class="st0" d="M349.8,69.8c0-13.6-8-25.1-21.6-25.1c-13.3,0-22.2,11.5-22.2,25.1s8.9,25.1,22.2,25.1
	C341.8,94.9,349.8,83.3,349.8,69.8 M366.7,31.2v77.1h-16.9V99c-5.7,7.2-14.4,11.3-23.5,11.1c-20.7,0-38.1-17.7-38.1-40.3
	s17.4-40.3,38.1-40.3c9.1-0.2,17.9,3.9,23.5,11.1v-9.3L366.7,31.2L366.7,31.2z"/>
<path class="st0" d="M428.8,49c-2-1.3-5.8-2-9-2c-10.5,0-18.8,8.2-18.8,25.2v36h-17.5V31.2h17.5v10.2c4.6-7.2,12.5-11.6,21-11.7
	c4.2,0,8.3,1.3,10.1,2.6L428.8,49z"/>
</svg>
