<svg xmlns="http://www.w3.org/2000/svg" viewBox="0 0 140.36 160"><defs><style>.cls-1{fill:#f86932;}</style></defs><title>Asset 1</title><g id="Layer_2" data-name="Layer 2"><g id="Layer_1-2" data-name="Layer 1"><path class="cls-1" d="M58.69,80A22.72,22.72,0,1,0,81.41,57.68,22.52,22.52,0,0,0,58.69,80m80.5,51.23-17.1-16.8a4,4,0,0,0-5.64,0,51,51,0,0,1-35,13.94c-27.14,0-49.23-21.7-49.23-48.37S54.27,31.63,81.41,31.63a48.27,48.27,0,0,1,31.87,11.84,4,4,0,0,0,5.47-.17l17.06-16.76a3.83,3.83,0,0,0-.17-5.71C120.73,7.71,102,0,81.41,0,36.52,0,0,35.89,0,80s36.52,80,81.41,80a82.68,82.68,0,0,0,57.78-23.22,3.88,3.88,0,0,0,0-5.55"/></g></g></svg>