<svg width="60" height="60" viewBox="0 0 24 24" fill="none" xmlns="http://www.w3.org/2000/svg">
<path fill-rule="evenodd" clip-rule="evenodd" d="M15.103 3.3304L22.3055 15.5747C22.3166 15.5935 22.3277 15.6124 22.3388 15.6313C22.5418 15.9763 22.7577 16.343 22.9099 16.6661C23.0656 16.9965 23.3078 17.5826 23.2369 18.2966C23.1525 19.146 22.7102 19.9193 22.0209 20.4227C21.4414 20.8459 20.8134 20.9342 20.4497 20.9676C20.094 21.0002 19.6685 21.0001 19.2683 21C19.2463 21 19.2244 21 19.2026 21H4.79748C4.77565 21 4.75373 21 4.73173 21C4.33153 21.0001 3.90602 21.0002 3.55033 20.9676C3.18661 20.9342 2.55862 20.8459 1.97917 20.4227C1.2898 19.9193 0.84753 19.146 0.763132 18.2966C0.692191 17.5826 0.93448 16.9965 1.09013 16.6661C1.24234 16.343 1.45818 15.9763 1.66117 15.6314C1.67233 15.6124 1.68345 15.5935 1.69452 15.5747L8.89705 3.3304C8.90796 3.31186 8.91892 3.29322 8.92992 3.27451C9.12752 2.93838 9.33903 2.57861 9.54412 2.29325C9.75582 1.99871 10.1434 1.51249 10.7887 1.2277C11.5603 0.887153 12.4397 0.887153 13.2113 1.2277C13.8566 1.51249 14.2442 1.99871 14.4559 2.29325C14.661 2.57861 14.8725 2.93838 15.0701 3.2745C15.0811 3.29322 15.0921 3.31185 15.103 3.3304ZM11.5963 3.05743C11.3015 3.18753 11.0746 3.57317 10.6209 4.34444L3.41839 16.5887C2.95351 17.379 2.72107 17.7742 2.75333 18.0989C2.78147 18.382 2.92889 18.6398 3.15868 18.8076C3.42217 19 3.8806 19 4.79748 19H19.2026C20.1194 19 20.5779 19 20.8414 18.8076C21.0711 18.6398 21.2186 18.382 21.2467 18.0989C21.279 17.7742 21.0465 17.379 20.5816 16.5887L13.3791 4.34444C12.9254 3.57317 12.6986 3.18753 12.4038 3.05743C12.1466 2.94391 11.8535 2.94391 11.5963 3.05743Z" fill="#191919"/>
<path d="M12.9827 13.92L13.4027 7.20001H10.6027L11.0227 13.92H12.9827ZM10.6727 15.88C10.6727 16.58 11.2327 17.14 12.0027 17.14C12.7727 17.14 13.3327 16.58 13.3327 15.88C13.3327 15.18 12.7727 14.62 12.0027 14.62C11.2327 14.62 10.6727 15.18 10.6727 15.88Z" fill="#000000"/>
</svg>
            