<?xml version="1.0" encoding="utf-8"?>
<!-- Generator: Adobe Illustrator 23.1.1, SVG Export Plug-In . SVG Version: 6.00 Build 0)  -->
<svg version="1.1" id="Layer_1" xmlns="http://www.w3.org/2000/svg" xmlns:xlink="http://www.w3.org/1999/xlink" x="0px" y="0px"
	 viewBox="0 0 438 500" style="enable-background:new 0 0 438 500;" xml:space="preserve">
<style type="text/css">
	.st0{fill:none;stroke:#00848E;stroke-width:18.06;stroke-linecap:round;stroke-linejoin:round;}
</style>
<title>DD_Community_Alert_Icon</title>
<g id="chinese_food">
	<g>
		<path class="st0" d="M104.7,240c-11.8,0-21.4,9.6-21.3,21.4c0,4.4,1.4,8.7,3.9,12.3l26.4,37.2c5.5,7.8,14.4,12.4,23.9,12.4h162.2
			c9.5,0,18.4-4.6,24-12.4l26.4-37.2c6.8-9.6,4.6-23-5.1-29.8c-3.6-2.6-7.9-3.9-12.3-3.9"/>
		<path class="st0" d="M93.3,284.6L127.1,464c3,13.5,14.9,23.1,28.8,23.1H285c11.9,0,22.1-8.2,24.7-19.8l36.5-182.7"/>
		<path class="st0" d="M87.6,240.9L48.4,304c-3.2,7.8,0.6,16.7,8.4,19.9c1.8,0.7,3.8,1.1,5.7,1.1h29.4"/>
		<line class="st0" x1="290.3" y1="11.8" x2="265.3" y2="209.7"/>
		<line class="st0" x1="374.7" y1="47.2" x2="294.3" y2="218.1"/>
		<path class="st0" d="M95.4,230.2c0-34.1,35.2-61.7,78.7-61.7c21.7,0,41.4,6.9,55.6,18.1"/>
		<path class="st0" d="M336.1,189.2c5.9,12.9,9,26.8,8.9,41"/>
		<path class="st0" d="M164.1,168.5c19.4-24.1,48.7-38,79.6-37.9"/>
		<path class="st0" d="M349.3,240.9l39.2,63.1c3.2,7.8-0.6,16.7-8.4,19.9c-1.8,0.7-3.8,1.1-5.7,1.1H345"/>
		<line class="st0" x1="101.6" y1="240" x2="363.3" y2="240"/>
	</g>
</g>
</svg>
