<?xml version="1.0" encoding="utf-8"?>
<!-- Generator: Adobe Illustrator 23.1.1, SVG Export Plug-In . SVG Version: 6.00 Build 0)  -->
<svg version="1.1" id="Layer_1" xmlns="http://www.w3.org/2000/svg" xmlns:xlink="http://www.w3.org/1999/xlink" x="0px" y="0px"
	 viewBox="0 0 484 500" style="enable-background:new 0 0 484 500;" xml:space="preserve">
<title>DD_Community_Alert_Icon</title>
<g>
	<path d="M276.5,130.4c-6.8-12.4-20.1-19.7-35.7-19.7c-0.1,0-0.2,0-0.3,0c-15.6,0.1-29,7.6-35.7,20.1L115.3,296
		c-5.5,10.2-5.3,21.7,0.6,31.7c7.1,11.9,20.3,18.9,35.3,18.9h181.6c15.2,0,28.4-7.1,35.4-19.1c5.9-10.1,6-21.7,0.4-31.9L276.5,130.4
		z M229.7,139.8c3.1-3.4,7.2-5.1,12.1-5.1s8.9,1.7,12.1,5c3,3.4,4.6,7.6,4.6,12.7c0,4.4-1.4,19.1-4.3,44.1s-5.4,49.2-7.6,72.5h-10.2
		c-1.9-23.3-4.3-47.5-7.1-72.5s-4.3-39.7-4.3-44.1C225,147.4,226.6,143.2,229.7,139.8z M254.4,323c-3.5,3.4-7.8,5.2-12.7,5.2
		c-4.9,0-9.1-1.7-12.7-5.2c-3.6-3.5-5.3-7.6-5.3-12.5c0-4.9,1.8-9.1,5.3-12.7c3.5-3.6,7.8-5.3,12.7-5.3c4.9,0,9.1,1.8,12.7,5.3
		s5.3,7.8,5.3,12.7C259.7,315.4,257.9,319.6,254.4,323z"/>
	<path d="M242.1,36c-117.6,0-213,95.4-213,213s95.4,213,213,213s213-95.4,213-213S359.7,36,242.1,36z M386.4,338.1
		c-10.7,18.2-31.2,29.5-53.5,29.5H151.3c-22.5,0-42.5-10.9-53.4-29.2c-9.7-16.2-10.1-35.8-1.1-52.5l89.6-165.2
		c10.3-19,31-30.9,54.1-31.1c0.1,0,0.3,0,0.4,0c22.9,0,43.6,11.7,54.1,30.5l92,165.3C396.3,302,396,321.7,386.4,338.1z"/>
</g>
</svg>
