<svg xmlns="http://www.w3.org/2000/svg" viewBox="0 0 500 500">
  <defs>
    <style>
      .cls-1, .cls-2, .cls-3 {
        fill: none;
        stroke: #fff;
        stroke-linecap: round;
        stroke-linejoin: round;
      }

      .cls-1 {
        stroke-width: 18.06px;
      }

      .cls-2, .cls-3 {
        stroke-width: 16px;
      }

      .cls-3 {
        stroke-dasharray: 30 40;
      }
    </style>
  </defs>
  <title>DD_Community_Alert_Icon</title>
  <g id="bag_groceries">
    <g>
      <path class="cls-1" d="M203,124.7l.05.77c-.43-6.31,18.63-12.74,42.58-14.38s43.71,2.15,44.14,8.45l-.05-.76,1.15,21.06"/>
      <polyline class="cls-1" points="293.84 139.84 299.86 101.99 353.99 85.63 400.23 118.16 388.84 186.84"/>
      <path class="cls-1" d="M240.84,195.84a29.73,29.73,0,0,1-1.49-10.94,45.62,45.62,0,0,1,91.23,0c0,6.2-1.5,10.56-3.74,15.94"/>
      <g>
        <path class="cls-1" d="M133.16,192.1,102.34,83.76A42.35,42.35,0,0,1,131.5,31.43h0a42.36,42.36,0,0,1,52.33,29.15l35,124.26"/>
        <path class="cls-1" d="M139.3,106.61a30,30,0,0,1,25.53-8.45"/>
        <path class="cls-1" d="M151.77,147.75a30.09,30.09,0,0,1,25.53-8.46"/>
      </g>
      <polyline class="cls-2" points="394.44 271.84 394.44 180.99 371.36 204.07 348.7 181.41 326.46 203.65 303.8 180.99 303.34 180.99 280.26 204.07 257.6 181.41 235.36 203.65 212.7 180.99 189.62 204.07 166.96 181.41 144.72 203.65 122.06 180.99 122.06 403.2 116.84 469.02 215.84 469.02"/>
      <line class="cls-1" x1="353.54" y1="85.85" x2="357.45" y2="68.91"/>
      <polyline class="cls-3" points="175.84 469.02 399.66 469.02 394.44 403.2 394.44 284.84"/>
    </g>
  </g>
</svg>
