<svg width="32" height="32" viewBox="0 0 32 32" fill="none" xmlns="http://www.w3.org/2000/svg">
<circle cx="16" cy="16" r="16" fill="#191919"/>
<path fill-rule="evenodd" clip-rule="evenodd" d="M18.5858 8.7754L24.5879 18.979C24.5972 18.9947 24.6064 19.0104 24.6157 19.0262C24.7849 19.3136 24.9647 19.6192 25.0916 19.8885C25.2213 20.1638 25.4232 20.6522 25.3641 21.2472C25.2938 21.9551 24.9252 22.5995 24.3507 23.019C23.8679 23.3716 23.3445 23.4452 23.0414 23.473C22.745 23.5002 22.3904 23.5001 22.0569 23.5001C22.0386 23.5001 22.0203 23.5 22.0021 23.5H9.99791C9.97972 23.5 9.96145 23.5001 9.94312 23.5001C9.60962 23.5001 9.25503 23.5002 8.95862 23.473C8.65552 23.4452 8.13219 23.3716 7.64932 23.019C7.07484 22.5995 6.70629 21.9551 6.63595 21.2472C6.57684 20.6522 6.77874 20.1638 6.90845 19.8885C7.0353 19.6192 7.21516 19.3136 7.38432 19.0262C7.39362 19.0104 7.40289 18.9947 7.41211 18.979L13.4142 8.7754C13.4233 8.75994 13.4324 8.74441 13.4416 8.72882C13.6063 8.44871 13.7825 8.1489 13.9534 7.9111C14.1299 7.66565 14.4529 7.26047 14.9906 7.02315C15.6336 6.73935 16.3664 6.73935 17.0094 7.02315C17.5472 7.26047 17.8702 7.66565 18.0466 7.91111C18.2175 8.1489 18.3938 8.44871 18.5584 8.72881C18.5676 8.74441 18.5767 8.75994 18.5858 8.7754ZM15.6636 8.54792C15.4179 8.65634 15.2289 8.9777 14.8508 9.62043L8.84867 19.824C8.46127 20.4826 8.26757 20.8119 8.29445 21.0824C8.3179 21.3184 8.44075 21.5332 8.63224 21.673C8.85181 21.8334 9.23385 21.8334 9.99791 21.8334H22.0021C22.7662 21.8334 23.1482 21.8334 23.3678 21.673C23.5593 21.5332 23.6821 21.3184 23.7056 21.0824C23.7325 20.8119 23.5388 20.4826 23.1514 19.824L17.1493 9.62043C16.7712 8.9777 16.5822 8.65634 16.3365 8.54792C16.1222 8.45332 15.8779 8.45332 15.6636 8.54792Z" fill="#FFFFA3"/>
<path d="M16.8189 17.6001L17.1689 12.0001H14.8356L15.1856 17.6001H16.8189ZM14.8939 19.2334C14.8939 19.8167 15.3606 20.2834 16.0023 20.2834C16.6439 20.2834 17.1106 19.8167 17.1106 19.2334C17.1106 18.6501 16.6439 18.1834 16.0023 18.1834C15.3606 18.1834 14.8939 18.6501 14.8939 19.2334Z" fill="#FFFFA3"/>
</svg>
