<?xml version="1.0" encoding="utf-8"?>
<!-- Generator: Adobe Illustrator 25.2.0, SVG Export Plug-In . SVG Version: 6.00 Build 0)  -->
<svg version="1.1" xmlns="http://www.w3.org/2000/svg" xmlns:xlink="http://www.w3.org/1999/xlink" x="0px" y="0px"
	 viewBox="0 0 900 900" style="enable-background:new 0 0 900 900;" xml:space="preserve">
<style type="text/css">
	.st0{fill:#8E0000;}
	.st1{fill:#E4B08A;}
	.st2{fill:#1E382A;}
	.st3{fill:#FFFFFF;}
	.st4{fill:#FF0000;}
	.st5{fill:#4D2D20;}
	.st6{fill:none;stroke:#FFFFFF;stroke-width:0.5;stroke-miterlimit:10;}
	.st7{fill:#D30909;}
	.st8{fill:#1D2D22;}
	.st9{fill:#BA7E71;}
	.st10{fill:#E6E5D7;}
	.st11{fill:#004F54;}
	.st12{fill:#FF9D90;}
	.st13{fill:#AF7268;}
	.st14{fill:#F4887F;}
	.st15{fill:#995F5C;}
	.st16{fill:#152119;}
	.st17{fill:#753C35;}
	.st18{fill:#68312D;}
	.st19{fill:#C7C6B5;}
	.st20{fill:#0E1C13;}
	.st21{fill:#C6C5B4;}
	.st22{fill:#ADAC99;}
	.st23{fill:#5E7B6E;}
	.st24{fill:none;stroke:#C7C6B5;stroke-width:0.5;stroke-miterlimit:10;}
	.st25{fill:#EABB9B;}
	.st26{fill:#15211B;}
	.st27{fill:#024042;}
	.st28{fill:#345848;}
	.st29{fill:#020202;}
	.st30{fill:#5E3E33;}
	.st31{fill:#014042;}
	.st32{fill:none;stroke:#66312D;stroke-width:0.5;stroke-miterlimit:10;}
	.st33{fill:#4C302A;}
	.st34{fill:#593A31;}
	.st35{fill:#A78C80;}
	.st36{fill:#7A0101;}
	.st37{fill:#71C3C2;}
	.st38{fill:#A58273;}
	.st39{fill:#7C0303;}
	.st40{fill:#C80000;}
	.st41{fill:#4C3029;}
	.st42{fill:#24372B;}
</style>
<g id="Background">
</g>
<g id="Layer_1">
	<g>
		<g>
			<path class="st29" d="M184.8,227.1c0.3,5.7-1.1,14.4-4.9,20.7c-3.8,6.3-9.8,11.8-17.8,17.6c-9.1,6.5-12.6,8.3-15.4,15.5
				c-2.8,7.2-2.4,14.5-0.2,19.8c2.2,5.3,48.7,16.1,65.2,3.1c16.5-13,20.9-67.9,20.7-75.1c-0.2-7.2,4.9-56.7,4.9-56.7
				s1.7-9.3-9.6-12.5c-11.3-3.2-27.7-1.2-36.7,11.3c-5.7,7.8-8.2,19.9-7.3,29.1S184.8,227.1,184.8,227.1z"/>
			<rect x="206.4" y="706.7" class="st25" width="30.7" height="56.1"/>
			
				<rect x="315.1" y="710.7" transform="matrix(0.9647 -0.2633 0.2633 0.9647 -182.87 113.1109)" class="st25" width="30.8" height="56.1"/>
			<g>
				<g>
					<path class="st10" d="M352.9,741.8c-1.9-5.4-5.8-7.6-7.3-6.5c-1.5,1.1-3.8,9.7-4,11.9c-0.2,2.2,4.3-1.6,6.5-2.4
						C350.2,744,352.9,741.8,352.9,741.8z"/>
					<path class="st3" d="M404.6,768.9c-3.2-1.1-20.7-8.7-35.6-17.5c-7.2-4.3-15.1-9.1-17.3-10.4c-2.2-1.3-9.9,5.2-10.8,6
						c-0.9,0.9-5.8,2.2-9.1,2.2c-3.2,0-4.5-0.4-6-1.9c-1.5-1.5-0.4-7.3-3.5-7.3c-3,0-5.5-1.3-6.2-0.2c-0.6,1.1-9.2,40.1-7.3,42.6
						c1.2,1.5,95,1.8,96.6,1.1C408.1,782.3,407.8,769.9,404.6,768.9z"/>
				</g>
			</g>
			<g>
				<g>
					<path class="st10" d="M201.4,742.5c2.2-2.8,5.3-6.6,6.8-5.5c1.5,1.1,4.4,6.6,4.6,8.8c0.2,2.2-4.8,0.2-7-0.7
						S201.4,742.5,201.4,742.5z"/>
					<path class="st3" d="M238.2,742.1c-0.7-1.1-3.3-2-6.4-2c-3.1,0-2,5.9-3.5,7.5c-1.5,1.5-2.8,2-6.1,2c-3.3,0-8.3-1.3-9.2-2.2
						c-0.9-0.9-8.8-7.4-11-6.1c-2.2,1.3-10.2,6.2-17.5,10.5c-15.1,9-33.7,15.8-37,16.9c-3.3,1.1-2.3,13.1,0.3,14.2
						c1.6,0.7,18.2,0.7,31.4,0.7c13.1,0,51,0.2,55,0c4.8-0.2,10-0.4,11.2-2C247.5,778.9,238.9,743.2,238.2,742.1z"/>
				</g>
			</g>
			<path class="st2" d="M202.6,376.6c0,0-22.4,31.4-29.2,61.9c-5.1,22.9,24.1,290.4,28,293.5c3.9,3.1,38,0,38,0
				s-1.2-252.8,0.9-251.7c2.1,1.1,65,247.4,71.4,249.8s39.8-1.9,39.8-1.9l-62.4-337.2L202.6,376.6z"/>
			<path class="st1" d="M274.8,259.9c-2.2-0.5-5.2-5.4-6.3-7.7c0,0,0,0,0,0c-2.4-5.3-0.3-21.2-0.3-21.2s-24-16.9-31.7-14.4
				c1.8,5.8,2.4,22.4,0.2,34.8c-0.2,0.9,1.6,3.8-3.4,5.8c-4.3,1.7-8.8,2.1-8.8,2.1s27.9,34.6,48.8,29.7
				C283,286.7,277.5,263.7,274.8,259.9z"/>
			<path class="st25" d="M233.1,199c-0.8,2.1,3.7,20.2,7.2,27.2c3.3,6.6,15.9,11.9,23.5,10.9c10.5-1.5,13.4-10.5,15.1-17.2
				c1.3-5.4-4-37.9-5.7-40.6c-3.2-5.1-10.8-13.9-22.1-9.1c-9.1,3.9-16.1,11.5-16.1,11.5L233.1,199z"/>
			<path class="st25" d="M237.2,200.8c0,0-9.4-1.8-11.8,1c-3.6,4.3-1.5,8.1,1,10.7c2.4,2.5,12.8,5.8,12.8,5.8L237.2,200.8z"/>
			<path class="st29" d="M274,182c0,0-1.8-4.1-6.3-4.4c-5.3-0.4-7.5,2.3-7.5,2.3s-7.6-5.9-15.7-2c-7.8,3.7-7.6,5.9-7.2,23.7
				c0,2-2,0.8-4,0c-2-0.8-4.7-1.7-6.8,1.3s-0.3,7.9,2.3,10.3c4.2,3.8,8,3.8,8,3.8l0.9,5.8l0.5,3.7c0,0-4.6,0.2-11.1-4.4
				c-6-4.4-9.4-14.7-10.6-23.3c-1.1-8.5,0.6-28.3,21.2-33.3c6-1.4,11.9-2,18.1-0.7C271,168.2,274,182,274,182z"/>
			<g>
				<path class="st0" d="M278,210.5c-1.7,0-3.5-0.5-5.1-1.4c-2.5-1.4-4.4-3.8-5.4-6.7c-1.9-5.9,1.1-12.2,6.6-14
					c2.7-0.9,5.6-0.5,8.1,0.9c2.5,1.4,4.4,3.8,5.4,6.7c1.9,5.9-1.1,12.2-6.6,14C280,210.3,279,210.5,278,210.5z M277.2,188.6
					c-1,0-1.9,0.1-2.9,0.4c-5.3,1.7-8.1,7.6-6.3,13.3c0.9,2.7,2.7,5,5.1,6.4c2.4,1.4,5.1,1.7,7.7,0.8c5.3-1.7,8.1-7.6,6.3-13.3
					c-0.9-2.7-2.7-5-5.1-6.4C280.5,189,278.8,188.6,277.2,188.6z"/>
				<path class="st0" d="M253.4,213.7c-1.7,0-3.5-0.5-5.1-1.4c-2.5-1.4-4.4-3.8-5.4-6.7c-1.9-5.9,1.1-12.2,6.6-14
					c5.5-1.8,11.6,1.6,13.5,7.5c0.9,2.9,0.7,5.9-0.5,8.5c-1.2,2.6-3.4,4.6-6.1,5.4C255.5,213.5,254.4,213.7,253.4,213.7z
					 M252.6,191.8c-0.9,0-1.9,0.1-2.8,0.4c-5.3,1.7-8.1,7.6-6.3,13.3c0,0,0,0,0,0c0.9,2.7,2.7,5,5.1,6.4c2.4,1.4,5.1,1.7,7.7,0.8
					c2.5-0.8,4.6-2.6,5.8-5.1c1.2-2.5,1.4-5.4,0.5-8.1C261.1,194.8,256.9,191.8,252.6,191.8z"/>
				<path class="st0" d="M263.5,200.9c-0.1,0-0.3-0.1-0.3-0.2c0-0.2,0.1-0.3,0.2-0.3l3.8-0.6c0.1,0,0.3,0.1,0.3,0.2
					c0,0.2-0.1,0.3-0.2,0.3L263.5,200.9C263.6,200.9,263.6,200.9,263.5,200.9z"/>
			</g>
			<g>
				<path class="st4" d="M229.6,257.2c5.5-1.1,6.3-11.6,6.3-11.6l32.9,1.7c0,0-0.5,8,6.3,10.5c5.4,2,13-1,23.6,9
					c1.5,2,0.6,47.7-1.7,78.5c-1.9,25.3-5.9,55.5-5.9,55.5s-88-7.3-97.2-10.3c-2-0.7,1.2-100.1,7.1-120.7
					C203.4,260.9,224.2,258.3,229.6,257.2z"/>
			</g>
			<path class="st25" d="M348.5,279.2c0,0,4.6-13.3,8.6-14.7c5.7-2.1,12.3-3.5,12.3-3.5s2.3-4.6,3.8-7.4c1.6-2.8,3.8-5.5,5.7-4.8
				c1.9,0.7-3.5,12.6-3.5,12.6l5.6-0.7c0,0,2.2-9.1,3.1-9.9c2.2-1.8,2.9-0.7,3.1,0.3c0.2,1-1.1,10.4-1.1,10.4s7.1-9.6,10.1-10.1
				c3-0.5,4-0.4,3.2,0.8s-6.6,9.8-6.6,9.8s7-2.7,9-2.8s5.2,0.7,3.3,1.7c-1.9,1.1-15.8,10.2-18.5,11.9c-6,3.8-14.6,10.4-19.2,10.4
				s-8.9-1.2-8.9-1.2L348.5,279.2z"/>
			<path class="st4" d="M369.2,282.7l-22.5-5.6l-10.5,43.2c0,0-25.7-45.4-38.4-54.8c-8.3-6.2-12.7-5.7-12.7-5.7l0,58.5
				c0,0,34.3,54.8,38.7,59.1c4.3,4.3,8.7,8.7,16.2,9.3c7.5,0.6,18.6-4.3,18.6-12.4C358.5,366.3,369.2,282.7,369.2,282.7z"/>
			
				<rect x="323.6" y="329.6" transform="matrix(0.2241 -0.9746 0.9746 0.2241 -62.6366 581.3359)" class="st0" width="20.4" height="0.7"/>
			<path class="st25" d="M147.4,281.4c0,0-5.4-13.2-9.3-14.6c-5.7-2.1-12.3-3.5-12.3-3.5s-2.3-4.6-3.8-7.4s-3.8-5.5-5.7-4.8
				c-1.9,0.7,3.5,12.6,3.5,12.6l-5.6-0.7c0,0-2.2-9.1-3.1-9.9c-2.2-1.8-2.9-0.7-3.1,0.3c-0.2,1,1.1,10.4,1.1,10.4
				s-7.1-9.6-10.1-10.1c-3-0.5-4-0.4-3.2,0.8c0.8,1.2,6.6,9.8,6.6,9.8s-7-2.7-9-2.8c-2-0.1-5.2,0.7-3.3,1.7
				c1.9,1.1,15.8,10.2,18.5,11.9c6,3.8,14.6,10.3,19.2,10.4c1.4,0,3.1,6.7,3.1,6.7l18.6-3.3L147.4,281.4z"/>
			<path class="st4" d="M125,285.9l23.1-5.8l11,42.4c0,0,33.7-49.8,39.1-54.7c5.4-4.8,14.3-6.8,14.3-6.8l17.4,34.8
				c0,0-54,79.5-58.4,83.9c-4.3,4.3-8.7,8.7-16.2,9.3c-7.5,0.6-18.6-4.3-18.6-12.4S125,285.9,125,285.9z"/>
			
				<rect x="160.8" y="322.4" transform="matrix(0.9775 -0.2111 0.2111 0.9775 -66.5917 41.5318)" class="st0" width="0.7" height="20.4"/>
			<path class="st2" d="M161,290.1l-0.3-0.7c0.4-0.1,36.3-13.4,40.1-47.6c0.6-5.7-0.7-14.5-2.1-23.8c-2.4-15.8-5.1-33.6,1-41.2
				c11.2-13.8,27.1-6.4,27.3-6.3l-0.3,0.7c-0.2-0.1-15.5-7.2-26.4,6.1c-5.9,7.3-3.2,25-0.9,40.6c1.4,9.4,2.8,18.3,2.1,24
				C197.8,276.6,161.4,290,161,290.1z"/>
			<path class="st2" d="M229.6,198.7c-5.4-14-2.1-25.7-2.1-25.8l0.7,0.2c0,0.1-3.2,11.5,2.1,25.3L229.6,198.7z"/>
			<path class="st2" d="M263.6,175c-0.1-0.1-10.1-11-26.4-5.6l-0.2-0.7c16.8-5.6,27.1,5.7,27.2,5.8L263.6,175z"/>
			<path class="st2" d="M235.9,191.7c-0.1-0.1-8.2-7.8-8.5-19l0.8,0c0.3,11,8.2,18.4,8.3,18.5L235.9,191.7z"/>
			<path class="st2" d="M169.8,279.8c-1.9,0-3-0.2-3.1-0.2l0.1-0.7c0.1,0,12.7,2.2,27.6-9.1c14-10.6,18.2-33.4,10.7-58.1
				c-3.3-10.8-3.8-26.5,2.8-35.1c3.3-4.3,8.1-6.4,14.1-6.2l0,0.7c-5.7-0.2-10.3,1.8-13.4,5.9c-6.5,8.4-6,23.8-2.7,34.4
				c7.6,25,3.3,48.1-11,58.9c-8,6-15.2,8.2-19.9,9C173,279.7,171.2,279.8,169.8,279.8z"/>
			<path class="st19" d="M246.3,772.3c-0.9,0-96.3-0.2-97.3-0.2l0-0.5c1,0,96.4,0.2,97.3,0.2V772.3z"/>
			
				<rect x="357.5" y="724.5" transform="matrix(1.868626e-02 -0.9998 0.9998 1.868626e-02 -422.0174 1116.3785)" class="st19" width="0.5" height="97.4"/>
			<path class="st3" d="M262.7,299.9c0.3,1,0.1,1.6,0.6,2.5c0.5,0.9,0.9,1.4,1.2,1.4c0.4,0,2.8,0,4.2,0.2c1.4,0.2,2.5,0.3,2.6,1.1
				c0,0.8,0,1.3-1.1,1.3s-3.2-0.4-3.6-0.3c-0.4,0.1-1.8-0.2-1.2,0.7c0.5,0.9,1.7,3.1,2.1,3.1c0.7,0,3.2,0.3,4.1,0.3
				c1.5,0,3.2-2.9,3.3-4.4c0.1-1.5-0.8-4.3-2.2-4.6c-1.4-0.3-5.5-0.8-6.4-1C265.5,300.1,262.7,299.9,262.7,299.9z"/>
			
				<rect x="239.2" y="252.3" transform="matrix(4.812127e-02 -0.9988 0.9988 4.812127e-02 -21.3638 482.862)" class="st0" width="7" height="0.8"/>
			<rect x="248.8" y="249.1" class="st0" width="0.8" height="7"/>
			
				<rect x="262.9" y="249.1" transform="matrix(0.9991 -4.337079e-02 4.337079e-02 0.9991 -10.7239 11.6566)" class="st0" width="0.8" height="7.7"/>
			<rect x="255.8" y="249.1" class="st0" width="0.8" height="6.7"/>
			<path class="st7" d="M298.7,266.8c-2.1-1.9-4-3.4-5.8-4.5c-5.2-2.8-7.8-2.5-7.8-2.5l0,37.9c0,0,5.5,29.4,12.4,40.3
				C299.4,307.7,300.1,268.6,298.7,266.8z"/>
		</g>
		<g>
			<path d="M306.7,767.1c20.7-4.5,42.6-18,53.5-28.7c5.4-5.3,7.4-9.1,9.4-17.3l37.4,5c-1.8,15.9-0.8,47.9-0.8,47.9l-0.8,8.9
				l-98.3,0.5C307,783.5,306.7,770.2,306.7,767.1z"/>
			
				<rect x="306.3" y="774.6" transform="matrix(0.9999 -1.562309e-02 1.562309e-02 0.9999 -12.0624 5.65)" class="st3" width="98.7" height="0.5"/>
			<polygon class="st35" points="489.6,701.7 491.2,727.7 525.2,730 523.5,700.4 			"/>
			<polygon class="st35" points="376.5,687.8 368.9,728 405.4,733.3 411.4,689.8 			"/>
			<polygon points="491.2,727.7 491.9,745.3 484.6,774.9 485.2,782.2 535.5,781.9 535.8,774.6 525.8,741.3 524.8,728 			"/>
			<polygon class="st3" points="484.6,775.1 484.6,774.6 535.8,774.3 535.8,774.8 			"/>
			<path class="st0" d="M535.5,733.2c3.4-3.5,6.4-7.4,5.9-10.4c-0.9-5.3-5.1-13.1-6.8-16l-0.7-21.2v-4.9l-0.2,0l-9.2-272.6
				c0,0-110.7,4-126.7,3c-6.5,44.9-24.6,193.2-34,271.3l-0.3,0c0,0-2.8,18.5-2.8,22.1c0,3.6-6.4,8.5-9.3,12.1
				c-2.8,3.6,4.3,14.2,4.3,14.2l2.3,0.4c0,0.1,0,0.2,0,0.2l1.1,0l47.6,8.6c-0.3,0,10.7-4.1,14.2-8.4c3.2-4,8-6.7,4-16.4
				c-3.5-8.6,1.3-29.3,1.3-29.3l-0.4,0l33-197l16.2,191.5l-0.2,0c0,4.8,3.4,20.1-2,23.9s-3.4,4-2.4,11.7s12.9,24.9,12.9,24.9h43.1
				c0,0,4.8-3.4,9-7.6h0.1L535.5,733.2z"/>
			
				<rect x="457.1" y="458" transform="matrix(0.9983 -5.871865e-02 5.871865e-02 0.9983 -27.0982 27.692)" class="st36" width="1" height="34"/>
			<path class="st4" d="M390,218.5c-6.5,8.8,7.1,149.1,7.1,149.1l127.4,0.9c0,0,9-141,0-151C516.4,208.6,396.6,209.7,390,218.5z"/>
			<path class="st28" d="M523.3,367.5c-1.7,0.9-17.5-14.3-23-21.6c-5.3-7.1-5.5-8.8-5.5-8.8l8.7-8.4c0,0,18.6,12,20.8,14.2
				C524.8,343.4,524.3,367,523.3,367.5z"/>
			<path class="st37" d="M440.4,221.1c-3.4,0.2-40.4,9.4-40.4,9.4s-3.4,8.8-3.2,15.4c0.8,31.7-11.8,162.2-3.4,166.9
				c8.4,4.7,123.9,2.9,131.7,0.4c7.8-2.4-0.7-55.8-0.7-55.8s2.4-121.1,0.7-121.9c-26.8-11.9-66.8-17.8-66.8-17.8L440.4,221.1z"/>
			<path class="st3" d="M388.4,352c0,0,12-57.3,17.7-70c1.2-2.7-26.1-24.9-26.1-24.9s-25.7,75.7-26.5,85.1
				C351.9,362.6,388.4,352,388.4,352z"/>
			<path class="st37" d="M416.3,226.4c-9.5,1.8-21,4.1-26.2,8.2c-1.3,1-31,50.8-30.3,61.9c10,6.7,58.2,18.8,58.2,18.8l-0.7-55.4
				L416.3,226.4z"/>
			<path class="st2" d="M390.2,371.1l0.9-21.3c0,0,23.9-26.2,27.9-53.6c3-20.6-4.2-70.9-4-70.9c4.3-1.5,12-3.5,14.2-2.7
				c2.6,1.1,6.5,59.3,6.4,64.2C435,336,390.2,371.1,390.2,371.1z"/>
			<g>
				<g>
					<path class="st38" d="M439.4,230.6c-2.6-2.3,7.4-30.1,8.1-41.2c11.4,0.1,31.4,10.8,31.4,10.8s-0.2,4.4-0.7,10.2
						c-0.7,8.5,4.8,24.5,3,27.4c-1.7,2.9-17.3,6.6-31.3-0.2C442.5,233.8,440.5,231.3,439.4,230.6z"/>
					<path class="st38" d="M444.9,191.2c0,0,9,9.5,15.4,12.7c6.4,3.3,10.8,4.2,15.7,3.8s9.4-2.2,10.5-4.2c1.1-1.9,7.9-9.2,6.8-17.2
						c-0.2-1.7-4-24.4-5.3-29.3c-1.4-5.3-2.7-5-5-7.4c-5.3-5.5-17.4-9.6-27-5.8c-9.6,3.8-14.9,15.9-15.7,22.1
						C439.5,172.3,444.9,191.2,444.9,191.2z"/>
				</g>
				<path d="M454.7,178.4c-1.9-9.2-4.1-22.7-0.5-24.6c16.6-8.4,25.4-5.1,28.5-3.4c3,1.6,4.9,6.6,5.7,7.7c0.2,0.3,2.8-4.3,1.1-8.4
					c1.6-1.3,2.6-3.6-3.2-8c-1.4-1-3.1-1.5-3-3.3c0.1-1.8-2.9-3.1-4-4.2c-2.9-3.1-6.8-5.9-10.2-3.8c-1.2,0.8-4.2,2-5.8,0.9
					c-2.8-1.8-4.7-0.4-6.6-0.7c-3.8-0.5-4.8-1.3-8.3,4.1c-0.9,1.4-5.4,2.3-7.3,2.7c-1.9,0.4,0.3,3.9-1.7,5c-9,4.7-8.2,15.9-5.9,17.4
					c0.7,0.5,2.8,13.8,4.7,16.4C442.4,182.4,454.7,178.4,454.7,178.4z"/>
				<path class="st38" d="M436,172.6c-2.2,3.7-0.5,10.9,2.3,15c2.8,4.1,7.3,6.6,9.1,6.2c1.8-0.4,3.5-3,3.5-3l-0.7-17.2
					C450.2,173.6,438,169.4,436,172.6z"/>
				<path d="M446.9,169.5c1.5,0.4,6.4-5,6.1,1.7c-0.1,2.2,2.7,11.3,4,13.5c1.7,2.6,3.3,5,7.6,5.4c3.6,0.4,6.7-1.8,9.3-4.2
					c2-1.9,8.3-3.1,11.7-0.3c4.9,4,7.8,0,7.8,0c1.9,4.3,3.6,22.5,1.2,26.5c-3,5-7.6,8.7-12.1,9.9c-4.5,1.2-17-0.4-25.1-6.9
					c-8-6.5-7.6-19-8.6-24.4C447.8,185.2,446.9,169.5,446.9,169.5z"/>
				<path class="st2" d="M454.6,194.9c-4.5-4.1-3.5-11.5-2.8-17l0-0.2c0.8-6.3-5.3-9.2-5.6-9.4l0.3-0.7c0.1,0,6.9,3.3,6,10.1l0,0.2
					c-0.7,5.6-1.7,12.5,2.6,16.3L454.6,194.9z"/>
			</g>
			<path class="st35" d="M420.8,280c-0.4-2.1-0.5-3-1.5-9c-0.4-2.5-15,25-14,26.9c1.1,1.9,17.5,17.5,17.5,17.5s18.9-9,20.9-13
				c1.8-3.6,0-24.9-6-26.9C434.8,274.5,420.8,280,420.8,280z"/>
			<path class="st3" d="M405.3,296.1l-51.9,44.8c0,0-3.5,31,3.5,41.5c1.9,2.8,18.5,4.1,21.3,3.3c2.9-0.9,11.6-10.5,16.8-18.2
				c18.2-26.6,28.4-52.8,28.4-52.8L405.3,296.1z"/>
			<path class="st3" d="M537.2,355c0,0-12-57.3-17.7-70c-1.2-2.7,26.1-24.9,26.1-24.9s25.7,75.7,26.5,85.1
				C573.7,365.6,537.2,355,537.2,355z"/>
			<path class="st37" d="M509.4,229.4c9.5,1.8,21,4.1,26.2,8.2c1.3,1,31,50.8,30.3,61.9c-10,6.7-58.2,18.8-58.2,18.8l0.7-55.4
				L509.4,229.4z"/>
			<path class="st2" d="M489.9,289.8c-0.1-4.9,3.8-63.2,6.4-64.2c2.2-0.9,9.9,1.1,14.2,2.7c0.2,0.1-7,50.3-4,70.9
				c4,27.5,27.9,53.6,27.9,53.6l0.9,21.3C535.4,374.1,490.6,339,489.9,289.8z"/>
			<path class="st35" d="M504.8,283c0.4-2.1,0.5-3,1.5-9c0.4-2.5,15,25,14,26.9c-1.1,1.9-17.5,17.5-17.5,17.5s-18.9-9-20.9-13
				c-1.8-3.6,0-24.9,6-26.9C490.8,277.5,504.8,283,504.8,283z"/>
			<path class="st3" d="M520.3,299.1l51.9,44.8c0,0,3.5,31-3.5,41.5c-1.9,2.8-18.5,4.1-21.3,3.3c-2.9-0.9-11.6-10.5-16.8-18.2
				c-18.2-26.6-28.4-52.8-28.4-52.8L520.3,299.1z"/>
			<path class="st39" d="M369.5,721.1c-1.2,5-2.4,8.3-4.4,11.4l40.9,7.4c0.2-5.1,0.4-9.9,0.9-13.8L369.5,721.1z"/>
			<polygon class="st39" points="524.8,728 491.2,727.7 491.7,741 525.8,741 			"/>
		</g>
		<line class="st3" x1="682.4" y1="776.2" x2="733.7" y2="775.9"/>
		<g>
			<path class="st40" d="M492.7,156.6c1.7,0.4,12.2,3.2,17.8-2c5.7-5.1,4.8-12.4,1.1-13.9c-3.7-1.5-8.9,1.3-8.9,1.3L492.7,156.6z"/>
			<path class="st4" d="M447.6,131.8c0,0-1.3-4,1.2-5.5c3.6-2.2,6.1-0.8,7.1,1.1C456.9,129.1,447.6,131.8,447.6,131.8z"/>
			<path class="st4" d="M434.2,170.1c0,0-14.5-28.9,17-41.6c30.2-12.1,40.5,18,40.5,18L434.2,170.1z"/>
			<path class="st4" d="M457.1,160.7c5.2,3.9,15.1,9.7,25.5,5.8c12.1-4.5,20.4-24.7,20.4-24.7L457.1,160.7z"/>
		</g>
		<path class="st3" d="M464.9,138.1c0.6,0.8,0.7,1.5,1.5,2.1c0.8,0.6,1.3,1,1.7,0.9s2.7-1,4-1.4s2.5-0.6,2.8,0.1
			c0.3,0.7,0.4,1.2-0.5,1.6c-1,0.4-3.1,0.8-3.4,1.1s-1.7,0.4-0.9,1.1c0.8,0.6,2.7,2.2,3.1,2.1c0.6-0.2,3-0.9,3.9-1.2
			c1.4-0.5,1.9-3.9,1.4-5.3c-0.5-1.4-2.3-3.7-3.7-3.5c-1.4,0.2-5.4,1.2-6.3,1.4C467.6,137.2,464.9,138.1,464.9,138.1z"/>
		
			<rect x="599.8" y="321.9" transform="matrix(0.8293 -0.5588 0.5588 0.8293 -80.8697 391.4197)" class="st41" width="0.7" height="12.3"/>
		<g>
			<g>
				<path class="st30" d="M574.8,284.2l-4.5-6.6c0,0,0.5-13.8-1.1-16.9s-4.4-4.6-4.5-8.6s0.2-11.8,0.2-11.8s-3.9-0.7-5.1,2.8
					s-0.1,14.9-2.1,15.4c-2,0.4-14.9-0.1-16.5-0.5s-5.2-2.7-5.2-2.7s-2.2-5.8-4-7.1c-2.1-1.6-3.8-1.5-4-1c-0.2,0.5,1.3,5.1,1.3,5.1
					s-3.3-2.9-4.8-3.4c-2.2-0.7-4.9,0.3-5.1,1.1c-0.2,0.8,13.8,11.5,13.8,11.5l0.4,8.4c0,0,5.7,10.1,7.3,10.9
					c1.6,0.8,17.5,9.9,17.5,9.9L574.8,284.2z"/>
				<g>
					<g>
						<path class="st30" d="M615.4,299.9l-29.7,54.3c0,0,0.5,3.7,5.8,13.3c2.5,4.5,7.4,7.1,12.5,7.3c5.6,0.2,11.5-2.5,14.7-8.6
							c5.9-11.3,21.9-48.6,21.9-48.6L615.4,299.9z"/>
					</g>
					<path class="st3" d="M654,167.8c0,0-5.1,13-1.3,21.6c4.6-11.7,6.7-21.1,6.7-21.1L654,167.8z"/>
					<path class="st34" d="M656.5,248.8c0.3-0.3,3.7-2,4.3-4.7c2.3-10.6-3-21.3-3-21.9c0-0.9,29.2-4.6,35.4-14.3
						c-0.6,10.4-2.4,18,0.2,26.9c2.1,6.9,12.3,7.8,12.3,9.3c0,0-12.6,12.1-26.7,13C658.9,258.3,656.5,248.8,656.5,248.8z"/>
					<path class="st30" d="M694.6,198.7c0.6,2.1-3.7,20.2-7.9,24.9c-5.3,6-17.6,9.4-25.8,7.1c-10.5-2.9-13.4-11.2-13.7-21.4
						c-0.2-5.3,10.2-38.2,12.1-41c8-1.3,13.6,3.7,17.2,0.5C700.3,170.3,694.6,198.7,694.6,198.7z"/>
					<path class="st3" d="M690.5,160.6c-0.3-0.9-0.7-4.6-17-9.9c-15.5-5.1-19.9,1.9-16.4,7.5c1.9,3,3.5,2.5,3.5,2.5
						s-10.6-0.5-11.5,4.4c-0.8,4.7,8.5,5.8,8.5,5.8s9.3,0.4,14.6,0.2c12.6-0.6,10.7,5.5,10.7,5.5s-1.3,3.6,2.1,4.3
						c5.1,1.1,7.1-0.7,7.4,0.2c0.3,0.9-1.7,15.1-3.6,22.3c3.3,0.2,8.2-1.9,8.7-2.8c4.6-8.6,7.1-20.3,7.1-27
						c-0.1-6-1.2-10.1-7.2-12.7C694.9,160,690.5,160.6,690.5,160.6z"/>
					<path class="st30" d="M694.3,198.6c0,0,9.1-0.1,9.6,4.2s-5.3,9-8,9.5c-5.3,1.1-8.1-1.1-8.1-1.1L694.3,198.6z"/>
					<g>
						<path class="st4" d="M671.1,210.1c0,0-0.1,0-0.1,0c-4.4-0.1-7.9-3.9-7.8-8.6l0,0c0-2.3,0.9-4.4,2.4-6c1.5-1.6,3.6-2.4,5.7-2.4
							c2.1,0,4.1,1,5.6,2.6c1.5,1.6,2.2,3.8,2.2,6C678.9,206.4,675.4,210.1,671.1,210.1z M663.7,201.5c-0.1,4.4,3.2,8,7.2,8.1
							c0,0,0.1,0,0.1,0c4,0,7.3-3.5,7.4-7.8c0-2.1-0.7-4.1-2.1-5.7c-1.4-1.5-3.2-2.4-5.2-2.4c0,0-0.1,0-0.1,0
							c-1.9,0-3.7,0.8-5.1,2.2C664.6,197.4,663.7,199.4,663.7,201.5L663.7,201.5z"/>
						<path class="st4" d="M649.5,205.6c0,0-0.1,0-0.1,0c-4.4-0.1-7.9-3.9-7.8-8.6c0-2.3,0.9-4.4,2.4-6c1.5-1.5,3.5-2.4,5.5-2.4
							c0,0,0.1,0,0.1,0c4.4,0.1,7.9,3.9,7.8,8.6C657.4,201.9,653.8,205.6,649.5,205.6z M649.6,189.2c-1.9,0-3.7,0.8-5.1,2.2
							c-1.4,1.5-2.2,3.5-2.3,5.6l0,0c-0.1,4.4,3.2,8,7.2,8.1c0,0,0.1,0,0.1,0c4,0,7.3-3.5,7.4-7.8c0.1-4.4-3.2-8-7.2-8.1
							C649.7,189.2,649.6,189.2,649.6,189.2z M641.9,197L641.9,197L641.9,197z"/>
						<path class="st4" d="M663.3,200.4C663.3,200.4,663.3,200.4,663.3,200.4l-6.1-1.2c-0.1,0-0.2-0.2-0.2-0.3
							c0-0.1,0.2-0.2,0.3-0.2l6,1.2c0.1,0,0.2,0.2,0.2,0.3C663.6,200.3,663.4,200.4,663.3,200.4z"/>
					</g>
					<g>
						<g>
							<path class="st10" d="M609.4,741.4c1.8-5.3,5.6-7.4,7.1-6.3c1.5,1.1,3.7,9.5,4,11.6s-4.2-1.5-6.3-2.4
								C612.1,743.5,609.4,741.4,609.4,741.4z"/>
							<path class="st3" d="M559.1,767.2c0,0,20.1-7.9,34.7-16.6c7.1-4.2,14.8-8.9,16.9-10.1c2.1-1.3,9.7,5.1,10.6,5.9
								c0.8,0.8,5.7,2.1,8.9,2.1c3.2,0,4.4-0.4,5.9-1.9c1.5-1.5,0.4-7.2,3.4-7.2c3,0,5.4-1.2,6-0.2c0.6,1.1,9,39.2,7.1,41.7
								c-1.1,1.5-6.2,0.6-10.8,0.8c-3.9,0.2-41.2,0.5-53.8,0.5c-12.7,0-30.1-1.1-30.1-1.1L559.1,767.2z"/>
						</g>
					</g>
					<path class="st11" d="M597.6,732.7c0,0,48.9,51.2,55.4,48.6s3.4-201.9,6.5-214.2s19.7-81.6,19.7-81.6s0.9,288.8,1.9,290.8
						s59.9,0,65.8-2c6-2,1.9-296.2-0.3-317.6c-5.3-50.5-18.6-79.8-18.6-79.8l-83.8-1.3c0,0-31.3,99.1-39.9,149
						c-5.5,32-4,97.8-4.7,111.1C599.2,644.4,597.6,732.7,597.6,732.7z"/>
					<g>
						<path class="st4" d="M642.8,267.7c3.5-11.9,8.4-17.1,14.4-19.1c-0.1,1.4,1.8,2.7,2.9,3.2c13.7,7.1,44-9,44-9
							c22.9,9,25.3,42.3,25.8,44.9c3.3,16.6,6.7,96.4-0.7,103.8c-3.9,3.9-86.5,5.3-89.8,0c-1.9-3.1-4.6-39.6-3.4-66.7
							C637.3,295,641,273.8,642.8,267.7z"/>
					</g>
					<path class="st3" d="M689.4,774.2l-0.3,8.3l50.2-0.3l0.3-7.3c0,0-3-9.4-11.2-15.3c-3.6-2.6-22.4-4.1-29.4,0.7
						C691.8,765.4,689.4,774.2,689.4,774.2z"/>
					<path class="st30" d="M775.2,343.1l-17.3-44.3L726,315l19.3,41.9c-6.7,15-25.3,52-29.3,58.4c0,0,5.2,19.3,16.3,28.9
						c0.9-3.3,2.9-13.2,6.1-19c5.1-9.1,27.7-44.2,33.3-53.2C778.1,361.5,781.9,358.2,775.2,343.1z"/>
					<path class="st21" d="M687.2,161.1c-0.1-0.1-11.4-10.5-29-7l-0.1-0.6c17.9-3.6,29.4,7,29.5,7.1L687.2,161.1z"/>
					<path class="st27" d="M735.4,448.3c-19.8-18.5-21.6-41.4-21.6-41.7l0.7,0c0,0.2,1.7,22.9,21.3,41.2L735.4,448.3z"/>
					<path class="st4" d="M607,304.3l33.3,21.3l20.6-63.8l-3.7-13.1c0,0-19.6,3.8-24.3,8.5C623.6,266.4,616.3,284.4,607,304.3z"/>
					<path class="st4" d="M703.4,242.5c8,0.3,24.4,3.9,31.3,13.3c7.5,10.3,21.3,31.6,31.3,51.5c-6.7,3.3-38.6,12.6-38.6,12.3
						C726.7,317.6,703.4,242.5,703.4,242.5z"/>
					
						<rect x="715.5" y="286.4" transform="matrix(0.8927 -0.4508 0.4508 0.8927 -60.7111 355.438)" class="st40" width="0.8" height="37.6"/>
					
						<rect x="626.5" y="313.5" transform="matrix(1.171795e-02 -0.9999 0.9999 1.171795e-02 314.6887 946.3795)" class="st40" width="19.3" height="1"/>
					<path class="st7" d="M729.2,391.5c0.9-0.9,1.6-2.9,2.2-5.8c-2.1-5.8-3.5-8.9-3.5-8.9l-83.8-1.3c0,0-1.9,6-4.9,15.8
						c0,0.1,0.1,0.2,0.1,0.2C642.8,396.8,725.3,395.5,729.2,391.5z"/>
					<path class="st7" d="M703.8,243c-2.8,1.4-30.8,15.6-43.8,8.9c-1-0.5-3-1.8-2.9-3.2c-0.2,0.1-0.4,0.2-0.6,0.2
						c0.3,0.8,3.3,9.4,22.5,8.2c14.1-0.8,26.7-13,26.7-13C705.7,243.8,705,243.4,703.8,243z"/>
				</g>
				<polygon class="st30" points="587,358.2 557.1,288.2 571.6,279.8 612.3,336.3 				"/>
				
					<rect x="598" y="731.2" transform="matrix(2.762219e-03 -1 1 2.762219e-03 -174.4612 1367.7482)" class="st42" width="1" height="80.3"/>
				
					<rect x="689.4" y="773.2" transform="matrix(0.9998 -1.952753e-02 1.952753e-02 0.9998 -14.9728 14.0942)" class="st42" width="49.6" height="1"/>
			</g>
			<path class="st21" d="M697.3,193.4l-0.6-0.2c5.8-16.5,4-23.9,1.5-27.2c-2.5-3.4-6.2-3.2-6.3-3.2l0-0.6c0.2,0,4.1-0.2,6.8,3.5
				C702.5,170.6,702,179.9,697.3,193.4z"/>
			<path class="st21" d="M654.4,168.9l-0.5-0.5c0.1-0.1,2.7-2.7,8.1-4.8c4.9-1.9,13.2-3.7,24.8-1.5l-0.1,0.6
				c-11.4-2.2-19.6-0.4-24.4,1.5C657,166.3,654.4,168.9,654.4,168.9z"/>
			<path class="st3" d="M683.3,286.9c0.4,1,0.2,1.6,0.9,2.4c0.6,0.8,1,1.3,1.4,1.3c0.4,0,2.8-0.3,4.2-0.2c1.4,0,2.6,0,2.7,0.9
				c0.1,0.8,0.1,1.3-0.9,1.4s-3.2-0.1-3.6,0.1c-0.4,0.2-1.8,0-1.2,0.8c0.6,0.8,2,2.9,2.4,2.8c0.7-0.1,3.2,0,4.1-0.1
				c1.5-0.1,2.8-3.2,2.8-4.8c-0.1-1.5-1.2-4.2-2.6-4.4c-1.4-0.2-5.5-0.3-6.4-0.3C686.1,286.8,683.3,286.9,683.3,286.9z"/>
			<path class="st27" d="M641.8,761.6c-0.1-0.2-0.1-4.4-0.2-52c0-44.7-0.1-106-0.5-131.7c-0.1-9.9,20.8-86.9,21.7-90.2l0.7,0.2
				c-0.2,0.8-21.8,80.2-21.6,90c0.4,25.7,0.4,87,0.5,131.8c0,28.5,0.1,51,0.1,51.8l-0.3,0L641.8,761.6z"/>
			<rect x="678.7" y="439" class="st27" width="0.8" height="49.9"/>
		</g>
		<path class="st7" d="M213.2,293.7l-0.8-32.6c0,0-0.7,0.2-1.7,0.5c-4.8,1.9-8.8,4.6-9.8,8.2c-3.3,11.6-5.8,48.5-6.9,78.4
			C201.9,326.3,213.2,293.7,213.2,293.7z"/>
	</g>
</g>
</svg>
