<?xml version="1.0" encoding="utf-8"?>
<!-- Generator: Adobe Illustrator 25.2.0, SVG Export Plug-In . SVG Version: 6.00 Build 0)  -->
<svg version="1.1" xmlns="http://www.w3.org/2000/svg" xmlns:xlink="http://www.w3.org/1999/xlink" x="0px" y="0px"
	 viewBox="0 0 900 900" style="enable-background:new 0 0 900 900;" xml:space="preserve">
<style type="text/css">
	.st0{fill:#8E0000;}
	.st1{fill:#E4B08A;}
	.st2{fill:#1E382A;}
	.st3{fill:#FFFFFF;}
	.st4{fill:#FF0000;}
	.st5{fill:#4D2D20;}
	.st6{fill:none;stroke:#FFFFFF;stroke-width:0.5;stroke-miterlimit:10;}
	.st7{fill:#D30909;}
	.st8{fill:#1D2D22;}
	.st9{fill:#BA7E71;}
	.st10{fill:#E6E5D7;}
	.st11{fill:#004F54;}
	.st12{fill:#FF9D90;}
	.st13{fill:#AF7268;}
	.st14{fill:#F4887F;}
	.st15{fill:#995F5C;}
	.st16{fill:#152119;}
	.st17{fill:#753C35;}
	.st18{fill:#68312D;}
	.st19{fill:#C7C6B5;}
	.st20{fill:#0E1C13;}
	.st21{fill:#C6C5B4;}
	.st22{fill:#ADAC99;}
	.st23{fill:#5E7B6E;}
	.st24{fill:none;stroke:#C7C6B5;stroke-width:0.5;stroke-miterlimit:10;}
	.st25{fill:#EABB9B;}
	.st26{fill:#15211B;}
	.st27{fill:#024042;}
	.st28{fill:#345848;}
	.st29{fill:#020202;}
	.st30{fill:#5E3E33;}
	.st31{fill:#014042;}
	.st32{fill:none;stroke:#66312D;stroke-width:0.5;stroke-miterlimit:10;}
	.st33{fill:#4C302A;}
	.st34{fill:#593A31;}
	.st35{fill:#A78C80;}
	.st36{fill:#7A0101;}
	.st37{fill:#71C3C2;}
	.st38{fill:#A58273;}
	.st39{fill:#7C0303;}
	.st40{fill:#C80000;}
	.st41{fill:#4C3029;}
	.st42{fill:#24372B;}
</style>
<g id="Background">
</g>
<g id="Layer_1">
	<g>
		<g>
			<g>
				<path class="st0" d="M278.6,232.3c0,0,47.2-9,63.7-0.5c7.4-8.5,7.4-11.7,7.4-11.7s-16.4-9.5-35-9.5s-39.3,11.1-39.3,11.1
					L278.6,232.3z"/>
				<polygon class="st1" points="322.2,673.5 323.4,741.5 358.9,729.1 359.2,672.3 				"/>
				<polygon class="st1" points="225.9,680.2 207.4,745.7 174.9,724.3 189.1,669.3 				"/>
				<g>
					<path class="st0" d="M207.6,762.8c-1.6-15.3,1.8-23.3,5-35.4l-34.3-8.8l-1.9-0.3c-2.7,6.3-6.5,10.8-12,16.1
						c-10.8,10.6-34.8,25.2-55.5,29.7c0,3.1,0.3,16.4,0.3,16.4l98.3-0.5l0.8-8.9L207.6,762.8z"/>
					<path class="st0" d="M416.8,761.1c-20.7-4.5-42.6-18-53.5-28.7c-5.4-5.3-4.6-10.9-4.4-17.3l-36.4,5c0,16.7-2.7,24.4-4.3,39.7
						l-0.9,8.2l0.8,8.9l98.3,0.5C416.5,777.5,416.9,764.2,416.8,761.1z"/>
					<polygon class="st2" points="257,370.8 159,707.1 223.1,712.9 304.7,477.4 309.5,704.2 374.7,701 375.6,373.1 					"/>
					<polygon class="st3" points="295.2,225 245.8,258.8 254.4,380.3 376.6,377.2 377.3,242.4 336.1,227.6 					"/>
					<polygon class="st1" points="251.7,467.8 235.5,461.6 218,420.4 220.5,370.4 258,361.7 					"/>
					<path class="st4" d="M295.4,218.1c0,0-20,3.7-13.7,8.7s18.7,16.2,17.5,23.7c-1.2,7.5-4.2,58.1-4.2,58.1l-5.8,144.1l-49.9-2.5
						l8.7-82.4l-27.5,2.5c0,0-8.7-10-7.5-16.2s-3.7-15-1.2-20c2.5-5,6.2-11.2,6.2-11.2s13.7-74.9,25-81.2s23.7-11.2,23.7-11.2
						s-8.7-12.5-2.5-15c6.2-2.5,33.7-8.7,33.7-8.7L295.4,218.1z"/>
					<polygon class="st1" points="369.9,467 388.9,461.6 406.4,420.4 403.9,370.4 366.4,361.7 					"/>
					<path class="st4" d="M329,218.1c0,0,20,3.7,13.7,8.7c-6.2,5-18.7,16.2-17.5,23.7c1.2,7.5,4.8,58.7,4.8,58.7l5.2,143.6l49.9-2.5
						l-8.7-82.4l27.5,2.5c0,0,8.7-10,7.5-16.2c-1.2-6.2,3.7-15,1.2-20c-2.5-5-6.2-11.2-6.2-11.2s-13.7-74.9-25-81.2
						c-11.2-6.2-23.7-11.2-23.7-11.2s8.7-12.5,2.5-15c-6.2-2.5-33.7-8.7-33.7-8.7L329,218.1z"/>
					<path class="st1" d="M295.2,219.7c-0.6,6.3-2.2,11.5-1.3,13.1s10.6,12.3,20.4,11.3c9.8-1,21.1-12,21.1-15.3
						c-0.1-3.3-1.3-29-0.7-40.6c0.5-9.4-43.2,9.8-43.2,9.8S296.1,210.8,295.2,219.7z"/>
					<path class="st1" d="M333.9,171.8c0,7.4,0.2,22.1-3.5,30.7c-3.7,8.6-15.3,13.7-21.8,13.3c-6.5-0.4-21.1-10.8-22.4-16.5
						c-2.7-11.1-2.3-44.7,1-48.4c3.7-4.1,16.1-5.3,24.7-4.9c8.6,0.4,16.9,0.3,20.6,7.3C336,159.9,333.9,171.8,333.9,171.8z"/>
					<path class="st1" d="M331.6,172.8c0,0,5.7-3.6,9.8-0.1c2,1.7,1.1,8.8-1.1,11.9c-2.1,3-9,6.3-9,6.3L331.6,172.8z"/>
					<path class="st5" d="M337.4,153.5c-1.3-4.3-7.3-11.9-14.5-13.8c3.1-3.1,3.4-6.4,0.6-6.1c-2.8,0.3-26.8,0.4-33,7
						c-3,3.2-5.7,5.8-5.7,8c0,1.3-0.3,5.3,0.7,8.6c0,0,1.7-4.8,2.8-4.7c1.8,0.2,6.8,3.6,14.1,4c10.9,0.6,21.3-2,21.3-2
						s9.3,11.3,4.7,29.9c-1.5,6-11.5,10.1-15.6,10.3c-4.6,0.2-8.9-2-10.9-3.5c-2.7-2-6-2.1-8.8-0.7c-2.4,1.1-3.7,1.4-5.2,0.9
						c-1.9-0.6-3.2-4.3-3.2-4.3s-0.6,11.2-0.6,13.5c0,3.5,4.8,15,10.4,18.2c4.3,2.4,12.4,2.9,18.2,1.3c5.8-1.6,16.3-4.9,19.4-14.2
						c1.1-3.4,2.2-19,2.2-19s0.7-8.4,0.5-12C335.3,171.9,338.4,156.6,337.4,153.5z"/>
					
						<rect x="109.1" y="771.7" transform="matrix(0.9998 -1.757541e-02 1.757541e-02 0.9998 -13.5427 2.9099)" class="st3" width="99.4" height="0.5"/>
					
						<rect x="367.7" y="719.5" transform="matrix(1.613172e-02 -0.9999 0.9999 1.613172e-02 -406.7481 1124.3687)" class="st3" width="0.5" height="98.7"/>
					<polygon class="st7" points="262.9,275.9 248,367.9 266.9,345.7 					"/>
				</g>
				<path class="st3" d="M333.7,263.9c0.4,0.9,0.3,1.6,1,2.4s1.2,1.3,1.6,1.3c0.4,0,3.1-0.3,4.7-0.2s2.9,0,3,0.8s0.2,1.2-1,1.4
					c-1.1,0.1-3.6-0.1-4,0.1c-0.4,0.1-2,0-1.3,0.8s2.3,2.8,2.8,2.7c0.8-0.1,3.5,0,4.5-0.1c1.7-0.1,3.1-3.1,3-4.6
					c-0.1-1.5-1.5-4.1-3-4.3s-6.2-0.3-7.2-0.3C336.9,263.8,333.7,263.9,333.7,263.9z"/>
				<path class="st0" d="M287,309l-0.3-0.7c0.1-0.1,14.9-7.2,14.9-15.6c0-6.1-2.5-9.3-6-13.8c-2.3-3-5-6.4-7.5-11.5
					c-3.4-6.7-2.3-12.1-0.8-15.4c1.6-3.6,4-5.6,4.1-5.7l0.5,0.6c0,0-2.4,2-3.9,5.5c-2,4.6-1.8,9.6,0.8,14.8c2.5,5,5.1,8.4,7.4,11.4
					c3.4,4.4,6.1,7.9,6.1,14.2C302.3,301.7,287.6,308.7,287,309z"/>
				<path class="st0" d="M350.4,307.3c-0.7-0.2-16.4-4.5-18-13.3c-1.1-6.3,0.9-10.2,3.5-15.1c1.7-3.3,3.7-7.1,5.3-12.5
					c1.6-5.5,1-10.5-1.8-14.7c-2.1-3.1-4.8-4.7-4.8-4.7l0.4-0.7c0.1,0.1,2.8,1.6,5,4.9c2.1,3,4.1,8.1,2,15.3
					c-1.6,5.5-3.6,9.3-5.4,12.7c-2.6,5-4.5,8.6-3.4,14.6c1.5,8.3,17.3,12.6,17.4,12.7L350.4,307.3z"/>
				<polygon class="st8" points="322.7,703.5 359,701.7 359.2,672.3 322.2,673.5 				"/>
			</g>
			<g>
				<polygon class="st9" points="467.9,708.9 473.4,752.7 506,747.9 500.5,699.4 				"/>
				<polygon class="st9" points="416.1,664.4 391.5,697.8 414.5,718.5 436,691.4 				"/>
				<g>
					<g>
						<path class="st10" d="M506.5,736.5c-1.8-5.3-5.6-7.4-7.1-6.3c-1.5,1.1-3.7,9.5-4,11.6c-0.2,2.1,4.2-1.5,6.3-2.4
							C503.8,738.6,506.5,736.5,506.5,736.5z"/>
						<path class="st3" d="M560.4,768.4c-0.4-2.3-1.7-3.2-1.7-3.2s0,0,0,0c0,0,0,0,0,0s-0.6-3.8-3.8-4.9
							c-3.2-1.1-18.1-5.9-32.7-14.6c-7.1-4.2-14.8-8.9-16.9-10.1c-2.1-1.3-9.7,5.1-10.6,5.9c-0.8,0.8-5.7,2.1-8.9,2.1
							c-3.2,0-4.4-0.4-5.9-1.9c-1.5-1.5-0.4-7.2-3.4-7.2c-3,0-5.4-1.2-6-0.2c-0.6,1.1-9,39.2-7.1,41.7c1.1,1.5,6.2,0.6,10.8,0.8
							c3.9,0.2,41.2,0.5,53.8,0.5c12.7,0,28.5-0.4,30.1-1.1C560.7,775.3,560.8,770.9,560.4,768.4z"/>
					</g>
				</g>
				<g>
					<g>
						<path class="st10" d="M424.9,711.6c1.5-5.4-0.5-9.3-2.3-9.3c-1.8,0-8.5,5.7-9.9,7.3c-1.4,1.6,4.3,1.1,6.5,1.6
							S424.9,711.6,424.9,711.6z"/>
						<path class="st3" d="M451.2,758.7c-2-2.7-11.6-15.2-18.7-30.6c-3.4-7.5-7.1-15.7-8.1-17.9c-1-2.2-10.9-1.3-12-1.1
							c-1.2,0.2-5.9-1.5-8.5-3.3c-2.6-1.8-3.4-2.9-3.8-4.9c-0.4-2.1,3.7-6.1,1.3-7.8c-2.4-1.7-3.7-4.1-4.9-3.6
							c-1.1,0.5-7.5,5.7-11.8,10.5c-2.4,2.7-7.6,8.1-7.9,8.4c0,0-10,8.2-9.9,11.3c0.1,1.9,4.8,4,8.5,6.8c3.1,2.4,33.6,23.8,44,31
							c10.4,7.2,23.7,15.9,25.4,16.2C447.5,774.3,453.2,761.3,451.2,758.7z"/>
					</g>
				</g>
				<path class="st11" d="M402.9,307.2l13.6,56.4l87.9-0.8c0,0,26.5-88.2,23.5-98.1c-1.6-5.4-9.8-13.3-14.9-17.9
					c-2.9-2.6-6.3-4.4-10-5.4c-4-1-9.8-2.2-17-2.8c-6.7-0.6-14.3-1.8-24.2-1.8c-11.9-0.8-19.8,1.1-26.7,1.6
					c-5.5,0.4-26.3,7.3-29,7.1L402.9,307.2z"/>
				<path class="st12" d="M504.5,362l44.2,171.9c0.7,3,0.2,6.1-1.4,8.7L448,723.2l-60.9-47.7l91.1-139.3l-30.8-132l-3.3-41.1
					L504.5,362z"/>
				<path class="st12" d="M417.7,363.1c0,0-10,46.6-7.6,63.3c1.6,11.5,26,140.7,26,140.7l18.1,166.2l68.5-7.8
					c0,0-15.9-181.4-19.2-193c-1.6-5.7-25-169.5-25-169.5H417.7z"/>
				<path class="st13" d="M484.7,238.3c0,0-8.4-1.1-9.8-8.6c-0.9-5.1-0.2-12.2-0.2-13s-24.5,0.1-30.8-8.8
					c1.5,14.3,1.5,17.2,1.5,22.6c0,2.3,0.2,4.3-2,6c-1.1,0.9-8.4,1.8-8.4,1.8s34.4,29,36.8,29S484.7,238.3,484.7,238.3z"/>
				<path d="M489.2,162.7c-0.9-5.5-4.6-13.1-13-14c-2-0.2-4.4-0.6-6.2-0.5c0.8-2.3,2.5-5.7-3.2-4.4c-1.4,0.3-6.9,2.9-8.4,2.6
					c-4.3-0.9-8.7-2.3-16.1-3.7c-7.4-1.4-17.5,0.5-21.1,4.8c-3.5,4.3-1,10.5,2,13.4c-3.6,3.3-7.8,5.2-11,11.4s1.5,9.8,6.4,14
					c4.9,4.1,5.8,3.3,7.8,7c2.5,4.7-0.5,8.1,0.9,11.2c2.3,5.3,21.1,6.7,28.4,4.6c3.5-1,17.6,3.8,23.5-3.5c6.7-8.3-2.9-13.6,2.3-22.9
					C485.5,175.4,490.3,169.4,489.2,162.7z"/>
				<path class="st9" d="M441.2,192.9c-0.9,1.8,3.2,18.2,4.5,22s13.3,12.7,21.3,11.9c10.2-1,14.4-11.8,16.6-16.3
					c2.2-4.5-3.5-27.9-4.9-30.8c-4.2-9.2-22.9-11.1-18.6-3.6C464.5,183.5,441.2,192.9,441.2,192.9z"/>
				<polygon class="st14" points="512,623 503.2,532.6 489.8,439.2 490.5,439.1 504,532.6 512.8,623 				"/>
				
					<rect x="445.5" y="594.8" transform="matrix(0.9947 -0.1029 0.1029 0.9947 -64.8066 49.3539)" class="st14" width="1" height="116"/>
				<polygon class="st11" points="529.1,260 528.6,337.2 494.3,337.4 				"/>
				<path class="st11" d="M406.2,245.5c0,0-17.2,10.1-21.2,36c-4,25.9,0,53.9,0,53.9l47.2-4.7L406.2,245.5z"/>
				<path class="st9" d="M390.3,334.7c0,0,2.8,20.4,4.4,22.6c1.7,2.2,10.9,9.8,19.8,7.1c8.8-2.8,11.3-12.2,11.2-18.7
					c-0.1-4.7-3.3-72.3-3.3-72.3s14.3-24.8,12.7-27.6c-1.7-2.8-13.8-16-18.8-15.5c-5,0.6-8.3,9.9-8.3,9.9s-6.1,0-6.1,5.5
					c0,3.4-0.6,87.7-0.6,87.7L390.3,334.7z"/>
				<path class="st9" d="M425.1,338.1l101.1-12.7c0,0,2.8,26.6-2.1,32.7c-4.9,6.1-12.6,6.2-24.2,6.3c-11.6,0.1-72.3,0.7-80-0.9
					c-7.7-1.6-12.2-2.6-13.3-4.8c-1.1-2.2-0.8-28.1-0.8-28.1L425.1,338.1z"/>
				<path class="st9" d="M441.5,192.8c0,0-8.5-1.5-9.6,2.4c-1.1,3.9,3.4,9.4,5.9,10.2c4.5,1.4,7.8,0.3,7.8,0.3L441.5,192.8z"/>
				<path class="st15" d="M424,354.8l-0.4-0.2c2.6-4.8,2.2-16.2,2.2-16.3l0.5,0C426.3,338.7,426.7,349.9,424,354.8z"/>
				<g>
					<path class="st0" d="M459.6,206.2c-0.4,0-0.8,0-1.2-0.1c-2.8-0.3-5.3-1.8-7-4.2c-1.7-2.3-2.5-5.3-2.1-8.3c0.3-3,1.8-5.7,4-7.6
						c2.2-1.9,5-2.8,7.8-2.4c5.8,0.7,9.9,6.3,9.2,12.4l0,0C469.6,201.9,464.9,206.2,459.6,206.2z M459.9,184.2
						c-2.3,0-4.5,0.8-6.3,2.4c-2.1,1.8-3.5,4.4-3.8,7.2c-0.3,2.9,0.4,5.7,2,7.9c1.6,2.2,4,3.6,6.7,3.9c5.5,0.6,10.5-3.6,11.2-9.5
						l0,0c0.7-5.9-3.2-11.2-8.7-11.8C460.6,184.2,460.3,184.2,459.9,184.2z M470,196.1L470,196.1L470,196.1z"/>
					<path class="st0" d="M484.3,204.6c-0.4,0-0.8,0-1.2-0.1c-2.8-0.3-5.3-1.8-7-4.2c-1.7-2.3-2.5-5.3-2.1-8.3c0.3-3,1.8-5.7,4-7.6
						c2.2-1.9,5-2.8,7.8-2.4c2.8,0.3,5.3,1.8,7,4.2c1.7,2.3,2.5,5.3,2.1,8.3l0,0c-0.3,3-1.8,5.7-4,7.6
						C489.1,203.7,486.7,204.6,484.3,204.6z M484.6,182.6c-2.3,0-4.5,0.8-6.3,2.4c-2.1,1.8-3.5,4.4-3.8,7.2c-0.3,2.9,0.4,5.7,2,7.9
						c1.6,2.2,4,3.6,6.7,3.9c2.6,0.3,5.3-0.5,7.4-2.3c2.1-1.8,3.5-4.4,3.8-7.2l0,0c0.3-2.9-0.4-5.7-2-7.9c-1.6-2.2-4-3.6-6.7-3.9
						C485.4,182.6,485,182.6,484.6,182.6z"/>
					<path class="st0" d="M469.9,194c-0.1,0-0.3-0.1-0.3-0.3c0-0.2,0.1-0.3,0.3-0.3l3.9-0.2c0.2,0,0.3,0.1,0.3,0.3
						c0,0.2-0.1,0.3-0.3,0.3L469.9,194C470,194,470,194,469.9,194z"/>
				</g>
				<path class="st2" d="M557.4,768.8c-31-0.7-90.1-1.8-91.9-1.4l-0.2-0.7c1.6-0.5,82.8,1.2,92.1,1.4L557.4,768.8z"/>
				
					<rect x="409.1" y="693.9" transform="matrix(0.5755 -0.8178 0.8178 0.5755 -429.4616 648.046)" class="st2" width="0.7" height="87.6"/>
			</g>
			
				<rect x="591.7" y="475.5" transform="matrix(8.013362e-02 -0.9968 0.9968 8.013362e-02 83.5533 1042.5298)" class="st16" width="29.9" height="1"/>
			<g>
				<polygon class="st17" points="644,331.4 657.2,397.8 658.3,414.5 665.5,445.6 670.3,431.8 674,409 671.5,327.4 				"/>
				<path class="st18" d="M580.5,224.4c-1.1,7.8-4.9,14-4.2,15.5c0.8,1.5,20.6,21.3,29.9,20.7c9.3-0.7,16.9-19.1,16.9-22.1
					s-6.5-12.7-4.6-31c0.9-8.6-36.6-2-36.6-2S581.4,218.5,580.5,224.4z"/>
				<path class="st17" d="M622.9,174.4c0.6,6.8,0.7,20.1-0.6,29.8c-0.6,5-6.5,16-13.7,16.2c-11.2,0.3-31.2-11.7-32.5-17
					c-1.7-7.5-1.7-20.1-1.6-26.9c0.1-6.1,0.6-18.9,2.6-22.9c2-4,22.1-6.2,22.1-6.2l20.4,3.1L622.9,174.4z"/>
				<path class="st17" d="M578.3,184.3c0,0-5.8-6.2-10.5-2.8c-1.6,1.1-1.3,5.5-0.6,8.3c0.3,1.2,0.6,2,0.9,2.3
					c2.8,2.6,8.7,5.3,8.7,5.3L578.3,184.3z"/>
				<path class="st19" d="M617.1,142.3c-5.8-2.3-7.3,1.2-7.3,1.2l-8.1-4.8c-5.1-2.9-12,0.6-16,3.4c-7.4,5.3-9.4-1.3-13,5.2
					c-1.7,3,0.9,9-3.4,12.2c-5,3.8,3.9,20.2,4,21.8c0,0,5.1,2.8,5.4,1.8c0.7-2-0.6-20.4,4.8-26.1c8.5-9,25.5-6.8,29.9-4.4
					c8.5,4.7,8,12.6,8,12.6l2-4.4c0,0,2.7-6.2-1.4-9.2C617.2,147.9,619.9,143.5,617.1,142.3z"/>
				<path class="st20" d="M719.6,763.8c-20.7-4.5-44.7-21.8-55.6-32.5c-5.4-5.3-1.1-9.8-3.8-16.1l-1.9,0.3l-32.2,8
					c-1.1,12.7-3.7,20.9-5.3,36.3l-0.1,17.2l98.3,0.5C719.2,777.5,719.6,766.4,719.6,763.8z"/>
				<path class="st20" d="M633.6,761.1c-20.7-4.5-44.7-19.1-55.5-29.7c-5.4-5.3,0.8-13.2-1.9-19.5l-3.7,3.7l-28.2-5.7
					c-1.6,14.3-7.6,34.6-9.2,49.9l-0.9,8.2l0.8,8.9l98.3,0.5C633.3,777.5,633.7,764.2,633.6,761.1z"/>
				<path class="st2" d="M537.8,389.9c7.1,2.4,114.6-8,114.6-8s29.9,142,35,166.3c3.2,15.1-6.8,176.6-6.8,176.6l-60.1-0.8
					c0,0,6.4-148,4.8-157.9c-0.8-4.8-17.1-77.6-17.1-77.6l-14.7,231.5l-59.7,2.4L537.8,389.9z"/>
				<path class="st3" d="M580.4,224.1l32.2,26.5l6.8-25.7c0,0,36.2,14.3,39.4,21c7.9,16.6,21.5,91.5,21.5,91.5l-25.5,8.8l3.3,63.4
					l-99.4-1l-10.5-63.2L518,358.6c0,0-5.7-38.7-7.3-61.8c-0.8-12,16.5-45.6,19.1-49.1C532.5,244.2,580.4,224.1,580.4,224.1z"/>
				<polygon class="st17" points="546.7,451.4 570.1,429 547.7,345.3 520.8,356.9 539.3,411.6 541.9,436 				"/>
				<path class="st21" d="M654.5,346.1c0-0.6-2.4-60.5-2.4-62.9h0.5c0,2.4,2.4,62.2,2.4,62.8L654.5,346.1z"/>
				<path class="st22" d="M621.7,164.9l-1.9-14.3l-20.4-3.1c0,0-20.1,2.2-22.1,6.2c-2,4-2.6,16.8-2.6,22.9c0,1.5,0,3.3,0,5.3
					c1.5,0.8,4,1.9,4.3,1.2c0.7-2-0.6-20.4,4.8-26.1c8.5-9,25.5-6.8,29.9-4.4c8.5,4.7,8,12.6,8,12.6L621.7,164.9z"/>
			</g>
			<polygon class="st23" points="608.5,494.9 608,494.9 609.6,459.9 610.1,459.9 			"/>
			<polygon class="st19" points="577.7,257.3 577.7,257 580.1,224.1 580.6,224.1 578.3,256.7 610.5,248.8 610.7,249.3 			"/>
			<path class="st19" d="M634.9,250.9l-21.9-0.8l0-0.5l21.1,0.8c-1.6-3-12-22.9-14.9-25.3l0.3-0.4c3.2,2.7,14.7,24.9,15.2,25.8
				L634.9,250.9z"/>
			<rect x="611.2" y="249.8" class="st19" width="0.5" height="19.1"/>
			
				<rect x="533.5" y="438.4" transform="matrix(0.7187 -0.6953 0.6953 0.7187 -147.651 512.3436)" class="st23" width="51.8" height="0.5"/>
			<path class="st3" d="M684.5,291.3c0.4,0.9,0.3,1.6,1,2.4s1.2,1.3,1.6,1.3c0.4,0,3.1-0.3,4.7-0.2s2.9,0,3,0.8s0.2,1.2-1,1.4
				c-1.1,0.1-3.6-0.1-4,0.1c-0.4,0.1-2,0-1.3,0.8s2.3,2.8,2.8,2.7c0.8-0.1,3.5,0,4.5-0.1c1.7-0.1,3.1-3.1,3-4.6
				c-0.1-1.5-1.5-4.1-3-4.3s-6.2-0.3-7.2-0.3S684.5,291.3,684.5,291.3z"/>
			<g>
				<path class="st25" d="M738,614.9c0,0,11.1,116.3,11.1,137.4c0,8.4-2,10.8-2,17.7c0,5,1.7,6.1,1.7,6.1l40.9-5.8
					c0,0-13-2.5-15.6-36.5c-2.1-27.6,6.9-116.3,6-122.4C779.5,606.2,738,614.9,738,614.9z"/>
				<path class="st25" d="M598.6,329.8c0,0,36.5,39.2,42.1,45.9c5.6,6.7,11.4,7.6,19.1,6.1c2.4-0.5,10.6-6,16.5-14
					c13.7-18.5,29.8-38.9,33.3-45.5c5.1-9.7,16.5-63.9,16.5-63.9s-15.9-0.5-25.1,9.2c-9.2,9.7-23,39.2-30.4,52.1
					c-5.6,9.7-20.6,33.5-20.6,33.5l-38.1-30.8c0,0-10.4-9.4-14.6-10.2c-6.1-1.2-12.9-1.5-12.9-1.5s-3-4.3-5.1-6.9s-4.7-4.9-6.5-3.9
					c-1.8,1,5.6,12.1,5.6,12.1l-5.7,0.2c0,0-3.7-8.8-4.8-9.4c-2.5-1.4-3.1-0.3-3.1,0.8s2.8,10.3,2.8,10.3s-8.7-8.5-11.8-8.5
					c-3.1,0-4.1,0.2-3.1,1.3s8.2,8.7,8.2,8.7s-7.4-1.6-9.5-1.3s-5.1,1.5-3.1,2.3c2,0.8,17.6,7.7,20.5,8.9c6.7,2.8,16.3,8.1,20.9,7.3
					S598.6,329.8,598.6,329.8z"/>
				<path class="st25" d="M621.3,760.3c0,0,18.1-5.8,23.5-16.4c6.9-13.5,27-87.8,27-87.8l33.1,2.6c0,0-15.1,49.3-24.7,84.3
					c-6,22.1,2.3,24.7-9.5,28.6c-6.3,2.1-42,2.7-46.5,2.6C619.6,774.2,621.3,760.3,621.3,760.3z"/>
				<path class="st0" d="M588,764.8c-3.4,1-2.5,9,2,11.4c4.5,2.4,93.1,0.9,93.1,0.9s1.9-6.2,0.2-7.9c-1.7-1.7-55.2,1.8-56.9,0.7
					c-1.7-1.2,0.3-11.9,0.3-11.9S589.8,764.3,588,764.8z"/>
				<path class="st26" d="M746.2,308.7c-27-20.3-66.2-51.1-50.2-69.5c10.7-12.3,12.7-22.9,12.5-34.2c-0.3-15.9,7-24.8,16.3-31.5
					c11-8,37.6-7.5,44.7,11.5c9.7,26,8.8,15.4,22,27.3c6.2,5.6,0,15.4,4.6,21.6c7.4,10,19.2,6.4,24.5,8.3L746.2,308.7z"/>
				<path class="st4" d="M821.5,293.2c0,0-11.4-21.5-22.2-31.6c-7.1-6.7-30.2-10.6-47-4c-12.5,4.9-15.1,4.6-21.7,2.7
					c-13.7-4-31.5,6.7-37.7,15.7c-10.6,15.5-20.2,32.9-20.2,32.9l27,18.2l-5.5,75.3l98.2-9.2c0,0-1.4-67.5-0.6-81.7
					C792,309.9,821.5,293.2,821.5,293.2z"/>
				<path class="st11" d="M694.3,402.3l-68.2,284.3c0,0,54.9,1.8,117,0.8c47.7-0.8,92.3,0.8,92.3-1.6c0-2.4-20.7-228.4-25.1-241.9
					s-17.8-50.9-17.8-50.9L694.3,402.3z"/>
				
					<rect x="536.4" y="543.3" transform="matrix(0.1856 -0.9826 0.9826 0.1856 20.8634 1112.8236)" class="st27" width="290.7" height="1"/>
				
					<rect x="548.4" y="543.7" transform="matrix(0.1972 -0.9804 0.9804 0.1972 23.3435 1116.9543)" class="st27" width="290.6" height="1"/>
				<path class="st27" d="M714.1,687.5l-1-0.1c0.2-2.9,21.5-285.5,21.5-288l1,0C735.6,401.8,715,675.8,714.1,687.5z"/>
				<path class="st27" d="M822.1,686.7c-0.2-1.7-17.4-167.7-25.5-218.8c-6.3-40-19.7-72.8-19.9-73.1l0.9-0.4
					c0.1,0.3,13.6,33.1,19.9,73.3c8,51.1,25.3,217.2,25.5,218.8L822.1,686.7z"/>
				
					<rect x="783.3" y="395.9" transform="matrix(0.9926 -0.1213 0.1213 0.9926 -59.9577 99.1168)" class="st27" width="1" height="291.8"/>
				<rect x="752.1" y="398.6" class="st27" width="1" height="287.2"/>
				<path class="st25" d="M793.1,310.1l34.3,50.6l-21.9,43.9c0,0-5.6-4.1-10.3-7.4c-2.5-1.8-27.6-0.6-28.3,1.1
					c-1,2.5,4.2,3.8,4.2,3.8s-8.1,1.6-8.7,2.9c-0.6,1.3-0.7,1.7,0.6,2.3s8.8-0.7,8.8-0.7s-6.8,1.8-6.7,3.7c0.1,1.9,0.7,2.6,2.5,2.4
					c2.9-0.3,10.6-2.4,12.1-2.3c1.6,0.1,6.6,1.3,6.6,1.3s-5.4,1.5-8.5,3c-2.7,1.4-5.5,3-5.9,4.3c-0.7,2.3-0.2,2.5,1.1,2.8
					c1.3,0.4,5.7-2.6,7.2-3.5c3.9-2.1,12.4-2,12.4-2s2.8,2.3,5.8,4.2c3.1,1.9,9.1,3.4,12.9,1.5c3.3-1.6,34-45.3,37.8-49.9
					c8.5-10.5,7.5-15.4,4.8-21.4c-3-6.6-30-53.7-32.5-57.7L793.1,310.1z"/>
				<path class="st1" d="M760.9,264.9c0-0.6-1.4-1.8-3.7-11.6c-5.3-23.3,0.4-40.4-0.3-37.9l-30.7,16.2c0,0,2,11.4,3,19.7
					c1.2,9.8-2.9,18-2.5,19.6c1.2,5.3,6.5,8.9,12.3,8C748.7,277.4,760.9,266.8,760.9,264.9z"/>
				<path class="st25" d="M756.3,209.9c0,0,5.9-5.7,9,1c2,4.4-1.6,10.6-4.3,12.4c-3.2,2.1-3.7,1.9-5.5,2.7c-1.2,3.3-4,9.6-10.7,14.9
					c-9.1,5.3-16.1,6.5-23.7-0.7c-4-3.7-6.7-15.6-6.7-15.6s-1.8-20.1,2-29.4c3.5-8.6,12.4-16.6,27.2-13.5
					C755.7,184.4,757,207.3,756.3,209.9z"/>
				<path class="st26" d="M750.5,189.4c0.1-0.3,0.3,2.4,1.4,7.9c1.7,8,4.1,13.6,4.1,13.6s1.4-1.8,2.6-11.2
					c1.2-9.4,3.5-12.8-2.1-20.1c-6.7-8.6-23.2-7.6-32.8,1.1c-7.4,6.7-8.8,16-8.8,16s20.5-14.6,14.8-7.5
					C720,201.5,740.4,202.1,750.5,189.4z"/>
				<path class="st0" d="M740.7,769.3c0,0,12.5,0.2,15.8-1.7c3.2-1.9-2.6-8.4,2.6-9c5.1-0.6,18.5-3.2,23.3-1.2
					c3.1,1.3,5.5,8.7,14.2,11.1c8.7,2.4,6.2,7.7,4.5,8.3c-4.8,1.6-45.9,0.4-57.8,1.2C739.5,778.4,740.7,769.3,740.7,769.3z"/>
				<path class="st3" d="M751.6,295.5c0.5,0.9,0.4,1.5,1.2,2.3s1.3,1.2,1.7,1.1c0.4,0,3.1-0.5,4.7-0.6s2.9-0.2,3.1,0.6
					c0.2,0.8,0.3,1.2-0.9,1.5s-3.6,0.3-4,0.4c-0.4,0.2-2,0.1-1.2,0.9c0.8,0.7,2.6,2.6,3,2.5c0.7-0.1,3.5-0.3,4.5-0.5
					c1.7-0.3,2.8-3.4,2.6-4.9c-0.2-1.5-1.8-3.9-3.4-4s-6.2,0.3-7.2,0.3C754.7,295.1,751.6,295.5,751.6,295.5z"/>
				<path class="st28" d="M800,257.7c-1.4-1.8-2.1-4.3-2.8-7.2c-1.7-6.7-3.9-14.9-17-19.3c-11.2-3.7-12-22.2-11.5-32.8
					c1.1-24.1-25.4-26.3-25.7-26.3l0-0.5c0.3,0,27.3,2.3,26.2,26.9c-0.5,10.5,0.3,28.7,11.1,32.3c13.3,4.4,15.6,12.9,17.3,19.6
					c0.7,2.8,1.4,5.3,2.7,7L800,257.7z"/>
				<polygon class="st7" points="703.9,385.6 694.3,402.3 792.5,393.1 781.7,377.7 				"/>
			</g>
			<g>
				<path class="st3" d="M619.8,194.1c-1.9,0-3.7-0.6-5.3-1.8c-1.8-1.4-3-3.5-3.3-5.8c-0.3-2.3,0.3-4.6,1.7-6.4
					c1.4-1.8,3.5-3,5.8-3.3c2.3-0.3,4.6,0.3,6.4,1.7c1.8,1.4,3,3.5,3.3,5.8c0.3,2.3-0.3,4.6-1.7,6.4s-3.5,3-5.8,3.3
					C620.6,194,620.2,194.1,619.8,194.1z M619.9,177.2c-0.4,0-0.7,0-1.1,0.1c-2.2,0.3-4.1,1.4-5.4,3.1c-1.3,1.7-1.9,3.9-1.6,6l0,0
					c0.3,2.2,1.4,4.1,3.1,5.4c1.7,1.3,3.9,1.9,6,1.6c2.2-0.3,4.1-1.4,5.4-3.1c1.3-1.7,1.9-3.9,1.6-6c-0.3-2.2-1.4-4.1-3.1-5.4
					C623.4,177.8,621.6,177.2,619.9,177.2z"/>
				<path class="st3" d="M596.7,194.6c-1.9,0-3.7-0.6-5.3-1.8c-1.8-1.4-3-3.5-3.3-5.8c-0.2-1.2-0.1-2.3,0.2-3.4
					c0.9-3.4,3.8-5.8,7.3-6.3c2.3-0.3,4.6,0.3,6.4,1.7c1.8,1.4,3,3.5,3.3,5.8c0.3,2.3-0.3,4.6-1.7,6.4c-1.4,1.8-3.5,3-5.8,3.3
					C597.5,194.5,597.1,194.6,596.7,194.6z M596.7,177.7c-0.4,0-0.7,0-1.1,0.1c-3.2,0.4-5.9,2.7-6.8,5.9c-0.3,1-0.4,2.1-0.2,3.2l0,0
					c0.3,2.2,1.4,4.1,3.1,5.4c1.7,1.3,3.9,1.9,6,1.6c2.2-0.3,4.1-1.4,5.4-3.1c1.3-1.7,1.9-3.9,1.6-6c-0.3-2.2-1.4-4.1-3.1-5.4
					C600.2,178.3,598.5,177.7,596.7,177.7z"/>
				
					<rect x="604.2" y="185.1" transform="matrix(0.9999 -1.065659e-02 1.065659e-02 0.9999 -1.9409 6.4913)" class="st3" width="8" height="0.5"/>
			</g>
			
				<rect x="582.6" y="177.5" transform="matrix(4.675258e-02 -0.9989 0.9989 4.675258e-02 372.7842 756.6548)" class="st3" width="0.6" height="10.9"/>
			<g>
				<path class="st29" d="M162.5,221.9c4.5-6.5,8.1-17.6,7.8-24c-0.5-11.7-8.9-35.2-32.4-33c-20.4,1.9-29.3,15.1-30.5,24.9
					c-1.8,14.5,3.2,25,9.5,32.1C132.2,239.3,154.4,233.7,162.5,221.9z"/>
				<g>
					
						<rect x="166.4" y="471.8" transform="matrix(0.4613 -0.8873 0.8873 0.4613 -322.4684 412.9143)" class="st17" width="24.8" height="0.3"/>
					
						<rect x="173.5" y="474.6" transform="matrix(0.5498 -0.8353 0.8353 0.5498 -313.5207 367.8018)" class="st17" width="22" height="0.3"/>
				</g>
				<path class="st30" d="M221.1,327.4l-29.9,4c1.9,11-1,25.2-1,34.9c0,34.5-5.4,59.7-5.4,66.8c-3.4,1.3-8.3,4-12.9,11
					c-4.4,6.7-6.4,9.7-8.2,14.4c-1.2,3.1-0.5,3.8,0.6,4.5c0.7,0.4,1.6-0.1,2.7-1.1c4.2-4.2,9.6-10.5,9.4-7.8
					c-0.2,3.3-12.8,25.6-12.1,29.4c0.4,2.2,3.1,2.2,3.5,1.6c0.4-0.7,0,2.6,2.5,3c1.6,0.3,2.9-2.1,2.9-2.1s0.6,1.8,2.7,1.5
					c2.1-0.3,7.3-6.2,11.5-13.3c3.3-5.5,4.7-8.6,5.3-8.8c0.6-0.2-7.2,14.6-6.1,17.8c0.7,2.1,3.7,1.5,4.5-0.5
					c0.8-2,29.4-104.7,30.1-118.4C221.9,348.6,223.1,333,221.1,327.4z"/>
				<path class="st12" d="M222.7,329.4c0.2-2-4.6-49.6-13.3-61.9c-8-11.3-49.2-20-54.5-16c-13.9,10.4-20.9,6.1-23.9,0
					c-1.3-2.7-47.2,6-52.5,18.6c-10.8,25.7-13,65.6-13,65.6l31.7,3l9.7,53.5l88-13c0,0,4.3-43,6.7-48.9
					C202.1,328.7,222.7,329.4,222.7,329.4z"/>
				<line class="st12" x1="98.3" y1="353.1" x2="94" y2="382"/>
				<path class="st20" d="M188.7,732.3l13.4,48c0,0,34.6,0.4,39.3,0c4.8-0.4-23.3-53.1-23.3-53.1L188.7,732.3z"/>
				<path class="st20" d="M145.8,735.5L131,781.3c0,0-35.4,0-39.3,0s24.6-50.9,24.6-50.9L145.8,735.5z"/>
				<path class="st11" d="M153.6,481.2c0,0,68.5,238.6,71.7,246.6c0.9,2.3-42.2,5.4-42.2,5.4L91.5,487.7
					c-10.2-27.3-14.6-52.1-7.8-80.4c2.8-11.5,11.1-26.1,11.1-29.4l100.3,0.8l3.6,27c3.1,23.1,3.1,46.4,0.1,69.5
					c-10.3,77.7-33.1,262-44,265.2c-5.1,1.5-56.3-7.3-56.3-7.3L153.6,481.2z"/>
				<path class="st31" d="M167.9,692.6c5.2-28.9,10.9-67.5,16.1-105.7c-16-55.3-30.5-105.8-30.5-105.8l-23.8,109.1L167.9,692.6z"/>
				
					<rect x="164.7" y="449.4" transform="matrix(0.9639 -0.2662 0.2662 0.9639 -132.5581 62.7104)" class="st27" width="0.7" height="142"/>
				
					<rect x="93.6" y="388.2" transform="matrix(1 -2.604158e-03 2.604158e-03 1 -1.0113 0.3781)" class="st27" width="102.1" height="0.8"/>
				<path class="st30" d="M148.8,345.2l7.5-2.6c0,0,7.9-11.3,11.1-12.8c3.2-1.5,6.3-1,8.8-4.1c2.4-3.1,7-9.5,7-9.5s3.6,1.8,2.3,5.3
					c-1.3,3.5-9,12-7.7,13.5s12,9,13.4,9.6c1.5,0.7,5.7,1,5.7,1s5.3-3.3,7.5-3.2c2.6,0,3.9,1.1,3.8,1.7c-0.1,0.5-4.1,3.3-4.1,3.3
					s4.4-0.3,5.9,0.2c2.2,0.7,3.7,3.2,3.3,4s-18,0.8-18,0.8l-5.4,6.4c0,0-10.7,4.6-12.4,4.2c-1.7-0.4-19.9-2.7-19.9-2.7L148.8,345.2
					z"/>
				<path class="st30" d="M157.9,360.4l-68,23.8c-12,4.3-24.6-4.4-24.8-17.1l1.7-30.7l30.9,2l1.8,9.8l49.3-2.9L157.9,360.4z"/>
				<path class="st33" d="M195.5,352.7l0-0.5c6.4,0,16.8-0.2,17.7-0.7c0-0.1,0-0.4-0.2-0.8c-0.4-1-1.6-2.3-3-2.8
					c-1.5-0.5-5.8-0.2-5.8-0.2l-0.9,0.1l0.8-0.5c1.9-1.3,3.9-2.8,4-3.1c0,0,0-0.1-0.1-0.3c-0.3-0.4-1.4-1.1-3.5-1.1c0,0,0,0,0,0
					c-2.1,0-7.3,3.2-7.3,3.2l-0.1,0l-0.1,0c-0.2,0-4.3-0.4-5.8-1l0.2-0.5c1.3,0.6,5,0.9,5.6,1c0.7-0.4,5.4-3.2,7.5-3.2c0,0,0,0,0,0
					c2.1,0,3.4,0.7,3.9,1.3c0.2,0.3,0.3,0.5,0.2,0.7c-0.1,0.5-2.1,2-3.5,2.9c1.4-0.1,4-0.1,5.1,0.3c1.6,0.5,2.8,1.9,3.3,3
					c0.2,0.4,0.3,0.9,0.2,1.3C213.4,352.4,203.6,352.6,195.5,352.7z"/>
				<path class="st34" d="M162.9,250.8c-2.2-0.5-5.3-2.1-6.4-4.5c0,0,0,0,0,0c-2.4-5.3,0.4-20.6,0.4-20.6s-23.2-9.6-30.9-7.1
					c0.7,2,2.4,14.7,0.7,26.4c-0.1,0.9-0.4,4.3-5.4,6.3c-4.3,1.7-8.8,2.1-8.8,2.1s27.9,34.6,48.8,29.7
					C170.9,280.8,165.6,254.6,162.9,250.8z"/>
				<polygon class="st0" points="120.5,162.5 122.7,173.5 137.5,171.7 138.5,161.2 				"/>
				<path class="st30" d="M121.9,195.9c-0.9,2.1,2.9,20.5,5.8,27.7c1.7,4.3,15.3,15.1,23,14.5c10.6-0.9,13.8-12.2,15.8-18.9
					c1.6-5.4-1.3-40.7-4.6-40.9c-18.4-1.1-37.3,0.4-37.3,0.4L121.9,195.9z"/>
				<path class="st29" d="M169,194.6c0,0-10.8-1.5-19.3-15.1c-4.4,13.2-21.7,21.4-32,23.6c-0.8-10.7,2.3-29.2,18.1-33.9
					C151.6,164.5,165.9,171,169,194.6z"/>
				<path class="st29" d="M127.5,162.2c0,0-4,10.5-9.9,10.3c-5.9-0.2-5.8-7-5.8-7s-12.4,2.1-10.4-3.1c2-5.2,5.8-9,5.8-9
					s-13.5-8.7-7.9-11.8c5.6-3.1,12.2-3.8,12.2-3.8s-0.9-13.1,18.4-12.5c19.4,0.5,29.9,11.5,21.9,30.8c-1.7,7.7-11.4,12.2-14.8,11.7
					C133.6,167.2,127.5,162.2,127.5,162.2z"/>
				<path class="st30" d="M123,201.7c0,0-6.2-1-7.8,2.4c-2,4.2,0.8,7.3,3,9.9s8,4.5,8,4.5L123,201.7z"/>
				<path class="st28" d="M145,165.3l-0.3-0.4c8.8-5.2,13.2-11,13.3-17.1c0.1-10.3-12.3-18.3-12.4-18.3l0.3-0.4
					c0.1,0.1,12.8,8.2,12.7,18.8C158.5,154.1,153.9,160,145,165.3z"/>
				<g>
					<path class="st3" d="M136.6,213.9c-2.7,0-6.3-1-7.1-2.4c-0.6-1.2-2.9-9.8-3.3-11.6l-0.1-0.4c0-0.1,0-0.2,0-0.2
						c0-0.1,0.1-0.1,0.2-0.1l0.4,0c1-0.1,5.9-0.4,11-0.7c11.4-0.6,11.8,0,12.1,0.5c1.1,1.8-0.5,10-2.3,11.9
						c-2.2,2.5-10.3,2.9-10.4,2.9l-0.1,0c0,0,0,0,0,0C136.8,213.9,136.7,213.9,136.6,213.9z M137,213.6L137,213.6L137,213.6z
						 M126.7,199.7L126.7,199.7c1,3.9,2.8,10.6,3.3,11.5c0.6,1.1,4.2,2.2,7,2.1l0.1,0c3-0.2,8.4-1.1,10-2.8
						c1.6-1.8,3.1-9.7,2.2-11.3c-0.1-0.2-0.4-0.8-11.6-0.2c-5,0.2-10,0.6-10.9,0.7L126.7,199.7z"/>
					<path class="st3" d="M164.8,212.3c-2.4,0-7.2-0.2-9-1.8c-2-1.7-4.3-9.5-3.7-11.5c0.2-0.6,0.4-1.5,11.9-2.1
						c5.5-0.3,11-0.3,11-0.3l0.4,0c0.1,0,0.2,0,0.2,0.1c0.1,0.1,0.1,0.1,0.1,0.2l0,0.4c0,0.1,0,0.2,0,0.5c-0.5,5.8-1.1,9.6-1.9,11.4
						c-0.7,1.5-4.6,3-7.3,3.2l-0.4,0C165.9,212.3,165.5,212.3,164.8,212.3z M175.1,197.1l-0.1,0c-0.1,0-5.5,0.1-11,0.3
						c-7.4,0.4-11.2,0.9-11.4,1.7c-0.5,1.8,1.8,9.4,3.6,11c1.8,1.5,7,1.8,9.9,1.7l0,0l0.4,0c2.7-0.2,6.3-1.6,6.8-2.8
						c0.7-1.7,1.3-5.5,1.8-11.2C175.1,197.3,175.1,197.2,175.1,197.1L175.1,197.1z"/>
					
						<rect x="149.5" y="201.4" transform="matrix(0.9992 -3.904658e-02 3.904658e-02 0.9992 -7.7612 6.0551)" class="st3" width="3.2" height="0.6"/>
				</g>
			</g>
			<path class="st28" d="M435.6,179.6l-0.5-0.1c0-0.1,1.4-8.4,8.1-12.6c4.3-2.8,9.9-3.2,16.6-1.4c4.9,1.4,8.8,1.1,11.8-0.7
				c3.6-2.2,4.5-6,4.5-6.1l0.5,0.1c0,0.2-0.9,4.1-4.7,6.4c-3.1,1.9-7.2,2.1-12.2,0.7c-6.5-1.8-11.9-1.4-16.2,1.3
				C437,171.5,435.6,179.5,435.6,179.6z"/>
		</g>
		<polygon class="st7" points="364.7,284.9 376.4,367.9 364.7,355.7 		"/>
	</g>
</g>
</svg>
